<svg xmlns="http://www.w3.org/2000/svg" viewBox="0 0 204 204"><defs><style>.cls-1,.cls-3{fill:#fff;}.cls-1,.cls-2,.cls-7,.cls-8,.cls-9{stroke:#000;}.cls-1,.cls-2,.cls-7{stroke-miterlimit:10;}.cls-1,.cls-2{stroke-width:4px;}.cls-2,.cls-7,.cls-8,.cls-9{fill:none;}.cls-2,.cls-8{stroke-linecap:round;}.cls-4{fill:#51bfb6;}.cls-5{fill:#af54a1;}.cls-6{fill:#b1b5dd;}.cls-7,.cls-8,.cls-9{stroke-width:2px;}.cls-8,.cls-9{stroke-linejoin:round;}</style></defs><title>Аксессуары_1</title><g id="Категории"><rect class="cls-1" x="2" y="2" width="200" height="200" rx="20" ry="20"/><path class="cls-2" d="M160.55,42c0,27.64-26.49,50.06-59.16,50.06S42.23,69.64,42.23,42"/><line class="cls-2" x1="7.58" y1="42" x2="42.23" y2="42"/><line class="cls-2" x1="10.78" y1="62.62" x2="44.24" y2="55.03"/><line class="cls-2" x1="20.16" y1="81.83" x2="50.17" y2="67.17"/><line class="cls-2" x1="35.11" y1="98.34" x2="59.61" y2="77.61"/><line class="cls-2" x1="54.59" y1="111" x2="71.92" y2="85.62"/><line class="cls-2" x1="77.29" y1="118.97" x2="86.26" y2="90.66"/><line class="cls-2" x1="101.65" y1="121.7" x2="101.65" y2="92.39"/><line class="cls-2" x1="126.02" y1="119" x2="117.05" y2="90.69"/><line class="cls-2" x1="148.73" y1="111.06" x2="131.4" y2="85.67"/><line class="cls-2" x1="168.23" y1="98.41" x2="143.73" y2="77.68"/><line class="cls-2" x1="183.2" y1="81.93" x2="153.2" y2="67.27"/><line class="cls-2" x1="192.62" y1="62.72" x2="159.16" y2="55.14"/><line class="cls-2" x1="195.85" y1="42.11" x2="161.2" y2="42.11"/><path d="M37.47,145.48H30.22l-.85,2.25c-.72,1.87-.95,2.27-2,2.27a1.71,1.71,0,0,1-1.73-1.6,5.91,5.91,0,0,1,.5-1.87l4.6-11.63c1-2.52,1.35-3.4,3.1-3.4a2.64,2.64,0,0,1,2.55,1.85l5.3,13.08a5.92,5.92,0,0,1,.52,1.92A1.77,1.77,0,0,1,40.42,150c-1.07,0-1.32-.37-2.07-2.32Zm-6.32-2.8h5.37l-2.72-7.35Z"/><path d="M44.5,138.53c0-1.38.57-2.08,1.7-2.08.8,0,1.62.55,1.62,2.08V142c.88,0,1.15-.25,1.9-2.38,1-2.7,2-3,3.53-3,1.77,0,1.92.63,1.92,1.2,0,.73-.45,1.1-1.37,1.13-1.18.05-1.28.3-1.78,1.87a3.13,3.13,0,0,1-1.62,2.2,5.27,5.27,0,0,1,2.8,2.9l.72,1.43a3,3,0,0,1,.43,1.27A1.4,1.4,0,0,1,52.8,150c-.95,0-1.43-.45-2-1.72l-1-2.33c-.6-1.37-1.08-1.75-2-1.77v3.72c0,1.4-.55,2.1-1.67,2.1-.93,0-1.65-.67-1.65-2.1Z"/><path d="M68.65,145.88c0,1.75-2.3,4.12-6,4.12-4.4,0-6.62-2.77-6.62-6.7s2.42-6.85,6.67-6.85c3.35,0,5.75,2.23,5.75,3.88A1.44,1.44,0,0,1,67,141.75a1.3,1.3,0,0,1-1.15-.62c-1.25-1.88-2-2.13-3.15-2.13-2.13,0-3.33,1.85-3.33,4.28s1.33,4.25,3.33,4.25a3.26,3.26,0,0,0,2.85-1.65c.7-1.1,1-1.45,1.67-1.45A1.49,1.49,0,0,1,68.65,145.88Z"/><path d="M74.3,144.05c.07,2.48,1.55,3.75,3.35,3.75a4.45,4.45,0,0,0,3.15-1.47c.8-.8,1-.9,1.52-.9a1.06,1.06,0,0,1,1.1,1c0,1.45-2.17,3.6-5.7,3.6-4.52,0-6.8-2.82-6.8-6.77s2.43-6.78,6.53-6.78a5.81,5.81,0,0,1,6.15,5.63c0,1.2-.53,2-2.75,2Zm6.07-1.9c-.1-2.2-1.35-3.4-3-3.4s-2.78,1.13-3,3.4Z"/><path d="M98.35,145.88c0,1.75-2.3,4.12-6,4.12-4.4,0-6.62-2.77-6.62-6.7s2.42-6.85,6.67-6.85c3.35,0,5.75,2.23,5.75,3.88a1.44,1.44,0,0,1-1.47,1.42,1.3,1.3,0,0,1-1.15-.62c-1.25-1.88-2-2.13-3.15-2.13-2.13,0-3.33,1.85-3.33,4.28s1.33,4.25,3.33,4.25a3.26,3.26,0,0,0,2.85-1.65c.7-1.1,1-1.45,1.67-1.45A1.49,1.49,0,0,1,98.35,145.88Z"/><path d="M113.19,145.88c0,1.75-2.3,4.12-6,4.12-4.4,0-6.62-2.77-6.62-6.7s2.42-6.85,6.67-6.85c3.35,0,5.75,2.23,5.75,3.88a1.44,1.44,0,0,1-1.47,1.42,1.33,1.33,0,0,1-1.16-.62c-1.24-1.88-2-2.13-3.14-2.13-2.13,0-3.33,1.85-3.33,4.28s1.33,4.25,3.33,4.25a3.26,3.26,0,0,0,2.85-1.65c.7-1.1,1-1.45,1.67-1.45A1.48,1.48,0,0,1,113.19,145.88Z"/><path d="M119.1,149.67,115,139.35a4.19,4.19,0,0,1-.37-1.37,1.61,1.61,0,0,1,1.6-1.53c.72,0,1.22.35,1.72,1.78l2.83,8.2,2.67-7.6c.75-2.13.9-2.38,1.9-2.38a1.48,1.48,0,0,1,1.47,1.4,4.57,4.57,0,0,1-.4,1.6l-4.34,11.38c-1.18,3-1.95,4.12-4.95,4.12-1.93,0-2.9-.5-2.9-1.48a1.12,1.12,0,0,1,1.2-1.15l1.12.08c1.23,0,1.65-.55,2.23-2Z"/><path d="M133,150c-2.87,0-4.47-1.67-4.47-3.77,0-3.95,4.57-3.65,8.89-4.93,0-2-.77-2.57-2.37-2.57s-2.52.42-3,1.27-.8,1.33-1.58,1.33a1.33,1.33,0,0,1-1.37-1.25c0-1.65,1.75-3.63,5.82-3.63s5.8,1,5.8,5.33l-.08,3.12a22.45,22.45,0,0,0,.65,3.78,1.48,1.48,0,0,1-1.52,1.32c-.68,0-1.38-.62-2.13-1.87A7.54,7.54,0,0,1,133,150Zm2-6.05c-2.23.45-3.13.88-3.13,2.05a1.93,1.93,0,0,0,2.18,1.83,3.63,3.63,0,0,0,2-.6c1.3-.85,1.4-1.7,1.4-3.93A14.67,14.67,0,0,1,135,144Z"/><path d="M147.1,138.68a5.35,5.35,0,0,1,4.34-2.23c3.4,0,5.58,2.93,5.58,6.93,0,3.77-2,6.62-5.55,6.62a5.76,5.76,0,0,1-4.37-2.07v4.34c0,2.53-.73,2.68-1.65,2.68-1.23,0-1.68-.68-1.68-2.78V139c0-1.88.3-2.58,1.68-2.58,1.1,0,1.65.63,1.65,1.88Zm3.47.32c-1.9,0-3.27,1.5-3.27,4.08s1.3,4.37,3.3,4.37c1.79,0,3-1.55,3-4.15C153.64,140.38,152.19,139,150.57,139Z"/><path d="M163,141.68h3.44c3.63,0,5.55,1.4,5.55,3.95,0,2.1-1.35,4.07-5.55,4.07h-4.74c-1.43,0-2-.65-2-2v-9.13c0-1.5.8-2.1,1.73-2.1s1.6.53,1.6,2.1Zm0,5.6H166c2.15,0,2.55-.85,2.55-1.6,0-1.05-.85-1.58-2.55-1.58H163Zm14.37,0c0,1.83-.3,2.75-1.65,2.75s-1.68-.92-1.68-2.75V139.2c0-2.07.45-2.75,1.65-2.75,1.4,0,1.68.93,1.68,2.73Z"/><path class="cls-3" d="M141.39,33.4a75.3,75.3,0,0,1-.68,8.72l-.05.1c-1.12-.54-3.15.67-3.15.67V38.63c0-6.88-3-1.74-4.27-10.08-1.54,7.66-19-1.16-19,10.08v4.26s-1.93-1.1-3.06-.67l0-.1a45.11,45.11,0,0,1-.78-7.75c0-7.56,4.55-13.18,15.5-13.18,6.59,0,7.75,3.87,7.75,3.87C141.09,25.06,141.39,29.81,141.39,33.4Z"/><path class="cls-3" d="M141.39,43.76c0,1.66-.49,3-2.33,3.2-2.61,6-6.69,12-13.18,12s-10.56-6-13.17-12c-1.85-.19-2.33-1.54-2.33-3.2,0-.91.34-1.37.82-1.54,1.13-.43,3.06.67,3.06.67V38.63c0-11.24,17.44-2.42,19-10.08,1.27,8.34,4.27,3.2,4.27,10.08v4.26s2-1.21,3.15-.67C141.09,42.42,141.39,42.88,141.39,43.76Z"/><path class="cls-4" d="M134.6,60.82v6.11a.74.74,0,0,1-1,.78l-4.84-2.33-.18,0a1,1,0,0,0,.18-.57V62.86a1.15,1.15,0,0,0-.08-.44l.08-.05L133.63,60C134.12,59.76,134.6,60.24,134.6,60.82Z"/><path class="cls-4" d="M128.79,62.86v1.93a1,1,0,0,1-1,1h-3.88a1,1,0,0,1-.81-.46,1,1,0,0,1-.15-.52V62.86a.88.88,0,0,1,.1-.43,1,1,0,0,1,.86-.54h3.88a1,1,0,0,1,.89.53A1.15,1.15,0,0,1,128.79,62.86Z"/><path class="cls-4" d="M123.13,65.31l-.15.07-4.85,2.33a.74.74,0,0,1-1-.78V60.82c0-.58.48-1.06,1-.78L123,62.37l.1.06a.88.88,0,0,0-.1.43v1.93A1,1,0,0,0,123.13,65.31Z"/><path class="cls-3" d="M70.89,46a1.77,1.77,0,0,1,1.21-.5,1.82,1.82,0,0,1,1,.36V43.21a1.65,1.65,0,0,1,1.11-1.55,48.67,48.67,0,0,0,9.22-3c2.73-1.21,3.83-2,4.64-5.64.61,2.14.85,4.94,3.8,7,1.4,1,2.84,2,2.84,2a2,2,0,0,1,.85,1.61v1.93a2.24,2.24,0,0,1,.51-.07,2.16,2.16,0,0,1,1.49.62h0a3.5,3.5,0,0,1,1,2.57c0,1.77-1.13,3.2-2.53,3.2,0,0-5.37,11.93-11.76,11.93C78.5,63.8,72.1,51.56,72.1,51.56c-1.22,0-2.21-1.36-2.21-3A3.41,3.41,0,0,1,70.89,46Z"/><path class="cls-3" d="M99.39,39.56a12.78,12.78,0,0,1-1.79,6.53,2.16,2.16,0,0,0-1.49-.62,2.24,2.24,0,0,0-.51.07V43.61A2,2,0,0,0,94.75,42s-1.44-1-2.84-2c-3-2.1-3.19-4.9-3.8-7-.81,3.6-1.91,4.43-4.64,5.64a48.67,48.67,0,0,1-9.22,3,1.65,1.65,0,0,0-1.11,1.55v2.62a1.82,1.82,0,0,0-1-.36,1.77,1.77,0,0,0-1.21.5,12.86,12.86,0,0,1-1.72-6.41,13.95,13.95,0,0,1,6.66-11.49h0A16.23,16.23,0,0,1,93,28.23a11.87,11.87,0,0,1,1.14.83A13.36,13.36,0,0,1,99.39,39.56Z"/><path class="cls-5" d="M94.3,25.69A7.09,7.09,0,0,1,94.41,27a7.79,7.79,0,0,1-.27,2.05h0A11.87,11.87,0,0,0,93,28.23s-2.26-7.36-6.13-5.39a2.15,2.15,0,0,0-2.52-1.69c-1.47,0-2.1.2-2.58,1.78-3.59-1.74-5.84,4.84-5.93,5.13h0a13.46,13.46,0,0,0-1.5,1.06A7.88,7.88,0,0,1,74,27a8.08,8.08,0,0,1,.11-1.31c.73-4.28,5-7.58,10.09-7.58S93.57,21.41,94.3,25.69Z"/><path class="cls-6" d="M86.87,22.84c3.87-2,6.13,5.39,6.13,5.39a16.23,16.23,0,0,0-17.16-.17c.09-.29,2.34-6.87,5.93-5.13.48-1.58,1.11-1.78,2.58-1.78A2.15,2.15,0,0,1,86.87,22.84Z"/><path class="cls-7" d="M128.79,62.37,133.63,60c.49-.28,1,.2,1,.78v6.11a.74.74,0,0,1-1,.78l-4.84-2.33"/><path class="cls-7" d="M123,62.37,118.13,60c-.49-.28-1,.2-1,.78v6.11a.74.74,0,0,0,1,.78L123,65.38"/><path class="cls-8" d="M111.16,42.12a45.11,45.11,0,0,1-.78-7.75c0-7.56,4.55-13.18,15.5-13.18,6.59,0,7.75,3.87,7.75,3.87,7.46,0,7.76,4.75,7.76,8.34a75.3,75.3,0,0,1-.68,8.72"/><path class="cls-7" d="M128.71,62.42a1,1,0,0,0-.89-.53h-3.88a1,1,0,0,0-.86.54.88.88,0,0,0-.1.43v1.93a1,1,0,0,0,.15.52,1,1,0,0,0,.81.46h3.88a1,1,0,0,0,1-1V62.86A1.15,1.15,0,0,0,128.71,62.42Z"/><path class="cls-8" d="M140.66,42.22c-1.12-.54-3.15.67-3.15.67V38.63c0-6.88-3-1.74-4.27-10.08-1.54,7.66-19-1.16-19,10.08v4.26s-1.93-1.1-3.06-.67c-.48.17-.82.63-.82,1.54,0,1.66.48,3,2.33,3.2,2.61,6,6.68,12,13.17,12s10.57-6,13.18-12c1.84-.19,2.33-1.54,2.33-3.2C141.39,42.88,141.09,42.42,140.66,42.22Z"/><path class="cls-9" d="M97.6,46.09a2.16,2.16,0,0,0-1.49-.62,2.24,2.24,0,0,0-.51.07h0"/><path class="cls-9" d="M95.6,45.54V43.61A2,2,0,0,0,94.75,42s-1.44-1-2.84-2c-3-2.1-3.19-4.9-3.8-7-.81,3.6-1.91,4.43-4.64,5.64a48.67,48.67,0,0,1-9.22,3,1.65,1.65,0,0,0-1.11,1.55v2.62a1.82,1.82,0,0,0-1-.36,1.77,1.77,0,0,0-1.21.5,3.41,3.41,0,0,0-1,2.55c0,1.68,1,3,2.21,3,0,0,6.4,12.24,12.25,12.24,6.39,0,11.76-11.93,11.76-11.93,1.4,0,2.53-1.43,2.53-3.2a3.5,3.5,0,0,0-1-2.57"/><path class="cls-9" d="M75.84,28.06A16.23,16.23,0,0,1,93,28.23a11.87,11.87,0,0,1,1.14.83,13.36,13.36,0,0,1,5.25,10.5,12.78,12.78,0,0,1-1.79,6.53h0"/><path class="cls-9" d="M70.89,46h0a12.86,12.86,0,0,1-1.72-6.41,13.95,13.95,0,0,1,6.66-11.49"/><path class="cls-9" d="M74.33,29.13A7.88,7.88,0,0,1,74,27a8.08,8.08,0,0,1,.11-1.31c.73-4.28,5-7.58,10.09-7.58s9.34,3.3,10.07,7.58A7.09,7.09,0,0,1,94.41,27a7.79,7.79,0,0,1-.27,2.05"/><path class="cls-9" d="M74.14,25.69c-15.39,7.59-12.54,39-12.54,39"/><path class="cls-9" d="M94.3,25.69c15.63,7.3,12.87,39,12.87,39"/><path class="cls-9" d="M75.83,28.07h0c.09-.29,2.34-6.87,5.93-5.13.48-1.58,1.11-1.78,2.58-1.78a2.15,2.15,0,0,1,2.52,1.69c3.87-2,6.13,5.39,6.13,5.39"/></g></svg>