<svg xmlns="http://www.w3.org/2000/svg" viewBox="0 0 104 104"><defs><style>.cls-1,.cls-2{fill:#fff;}.cls-1,.cls-6,.cls-7,.cls-8{stroke:#000;}.cls-1,.cls-6{stroke-miterlimit:10;}.cls-1{stroke-width:4px;}.cls-3{fill:#51bfb6;}.cls-4{fill:#af54a1;}.cls-5{fill:#b1b5dd;}.cls-6,.cls-7,.cls-8{fill:none;stroke-width:2px;}.cls-7{stroke-linecap:round;}.cls-7,.cls-8{stroke-linejoin:round;}</style></defs><title>Аксессуары</title><g id="Пиктограммы"><rect class="cls-1" x="2" y="2" width="100" height="100"/><path class="cls-2" d="M95,43.69A80.48,80.48,0,0,1,94.28,53l-.06.09c-1.19-.56-3.35.73-3.35.73V49.25c0-7.31-3.19-1.86-4.52-10.71-1.65,8.13-20.2-1.24-20.2,10.71v4.53s-2-1.17-3.25-.72l0-.1A48,48,0,0,1,62,44.72c0-8,4.84-14,16.49-14,7,0,8.23,4.12,8.23,4.12C94.69,34.83,95,39.88,95,43.69Z"/><path class="cls-2" d="M95,54.71c0,1.75-.52,3.2-2.48,3.4-2.78,6.38-7.1,12.77-14,12.77s-11.24-6.39-14-12.77c-2-.2-2.47-1.65-2.47-3.4,0-1,.36-1.46.87-1.65,1.21-.45,3.25.72,3.25.72V49.25c0-12,18.55-2.58,20.2-10.71,1.33,8.85,4.52,3.4,4.52,10.71v4.53s2.16-1.29,3.35-.73C94.68,53.28,95,53.77,95,54.71Z"/><path class="cls-3" d="M87.79,72.84v6.49a.78.78,0,0,1-1,.82L81.6,77.68l-.19,0a1,1,0,0,0,.19-.59V75a1,1,0,0,0-.1-.48l.1,0L86.75,72C87.27,71.7,87.79,72.22,87.79,72.84Z"/><path class="cls-3" d="M81.6,75v2.06a1,1,0,0,1-.19.59,1,1,0,0,1-.83.43H76.46a1,1,0,0,1-.88-.47,1,1,0,0,1-.16-.55V75a1,1,0,0,1,.11-.46,1.06,1.06,0,0,1,.93-.58h4.12a1,1,0,0,1,.92.56A1,1,0,0,1,81.6,75Z"/><path class="cls-3" d="M75.58,77.62l-.16.06-5.15,2.47a.77.77,0,0,1-1-.82V72.84c0-.62.51-1.14,1-.82l5.15,2.46.11.07a1,1,0,0,0-.11.46v2.06A1,1,0,0,0,75.58,77.62Z"/><path class="cls-2" d="M48.45,57.19a3.7,3.7,0,0,1,1.1,2.74c0,1.87-1.2,3.4-2.69,3.4,0,0-5.7,12.67-12.51,12.67-6.21,0-13-13-13-13C20,63,19,61.54,19,59.76a3.69,3.69,0,0,1,1.06-2.71,1.92,1.92,0,0,1,1.29-.52,1.79,1.79,0,0,1,1.1.38V54.12a1.73,1.73,0,0,1,1.19-1.65,52.72,52.72,0,0,0,9.8-3.21c2.89-1.3,4.07-2.18,4.93-6,.66,2.28.91,5.26,4,7.48,1.49,1.06,3,2.1,3,2.1a2.1,2.1,0,0,1,.9,1.72V56.6a2.35,2.35,0,0,1,.54-.07A2.28,2.28,0,0,1,48.45,57.19Z"/><path class="cls-2" d="M50.35,50.23a13.73,13.73,0,0,1-1.9,7,2.28,2.28,0,0,0-1.59-.66,2.35,2.35,0,0,0-.54.07V54.55a2.1,2.1,0,0,0-.9-1.72s-1.53-1-3-2.1c-3.13-2.22-3.38-5.2-4-7.48-.86,3.83-2,4.71-4.93,6a52.72,52.72,0,0,1-9.8,3.21,1.73,1.73,0,0,0-1.19,1.65v2.79a1.79,1.79,0,0,0-1.1-.38,1.92,1.92,0,0,0-1.29.52,13.71,13.71,0,0,1-1.82-6.82,14.18,14.18,0,0,1,5.49-11.07A13.91,13.91,0,0,1,25.31,38a17.24,17.24,0,0,1,18.24.18,12.75,12.75,0,0,1,1.21.87A14.19,14.19,0,0,1,50.35,50.23Z"/><path class="cls-4" d="M45,35.5a7.87,7.87,0,0,1,.11,1.38,8.2,8.2,0,0,1-.29,2.18h0a12.75,12.75,0,0,0-1.21-.87S41.16,30.37,37,32.47a2.29,2.29,0,0,0-2.69-1.81c-1.55,0-2.22.22-2.72,1.89C27.72,30.66,25.3,38,25.3,38h0a13.91,13.91,0,0,0-1.59,1.14h0a8.19,8.19,0,0,1-.32-2.27,7.87,7.87,0,0,1,.12-1.38c.76-4.57,5.27-8.07,10.72-8.07S44.18,30.93,45,35.5Z"/><path class="cls-5" d="M37,32.47c4.12-2.1,6.51,5.73,6.51,5.73A17.24,17.24,0,0,0,25.31,38h0s2.42-7.36,6.33-5.47c.5-1.67,1.17-1.89,2.72-1.89A2.29,2.29,0,0,1,37,32.47Z"/><path class="cls-6" d="M81.6,74.48,86.75,72c.52-.32,1,.2,1,.82v6.49a.78.78,0,0,1-1,.82L81.6,77.68"/><path class="cls-6" d="M75.42,74.48,70.27,72c-.51-.32-1,.2-1,.82v6.49a.77.77,0,0,0,1,.82l5.15-2.47"/><path class="cls-7" d="M62.86,53A48,48,0,0,1,62,44.72c0-8,4.84-14,16.49-14,7,0,8.23,4.12,8.23,4.12,7.94,0,8.25,5.05,8.25,8.86A80.48,80.48,0,0,1,94.28,53"/><path class="cls-6" d="M81.5,74.53a1,1,0,0,0-.92-.56H76.46a1.06,1.06,0,0,0-.93.58,1,1,0,0,0-.11.46v2.06a1,1,0,0,0,.16.55,1,1,0,0,0,.88.47h4.12a1,1,0,0,0,.83-.43,1,1,0,0,0,.19-.59V75A1,1,0,0,0,81.5,74.53Z"/><path class="cls-7" d="M94.22,53.05c-1.19-.56-3.35.73-3.35.73V49.25c0-7.31-3.19-1.86-4.52-10.71-1.65,8.13-20.2-1.24-20.2,10.71v4.53s-2-1.17-3.25-.72c-.51.19-.87.68-.87,1.65,0,1.75.52,3.2,2.47,3.4,2.78,6.38,7.11,12.77,14,12.77s11.22-6.39,14-12.77c2-.2,2.48-1.65,2.48-3.4C95,53.77,94.68,53.28,94.22,53.05Z"/><path class="cls-8" d="M48.45,57.19a2.28,2.28,0,0,0-1.59-.66,2.35,2.35,0,0,0-.54.07V54.55a2.1,2.1,0,0,0-.9-1.72s-1.53-1-3-2.1c-3.13-2.22-3.38-5.2-4-7.48-.86,3.83-2,4.71-4.93,6a52.72,52.72,0,0,1-9.8,3.21,1.73,1.73,0,0,0-1.19,1.65v2.79a1.79,1.79,0,0,0-1.1-.38,1.92,1.92,0,0,0-1.29.52A3.69,3.69,0,0,0,19,59.76C19,61.54,20,63,21.34,63c0,0,6.8,13,13,13,6.81,0,12.51-12.67,12.51-12.67,1.49,0,2.69-1.53,2.69-3.4A3.7,3.7,0,0,0,48.45,57.19Z"/><path class="cls-8" d="M20.05,57.05a13.71,13.71,0,0,1-1.82-6.82,14.18,14.18,0,0,1,5.49-11.07A13.91,13.91,0,0,1,25.31,38a17.24,17.24,0,0,1,18.24.18,12.75,12.75,0,0,1,1.21.87,14.19,14.19,0,0,1,5.59,11.16,13.73,13.73,0,0,1-1.9,7"/><path class="cls-8" d="M23.71,39.15a8.19,8.19,0,0,1-.32-2.27,7.87,7.87,0,0,1,.12-1.38c.76-4.57,5.27-8.07,10.72-8.07s10,3.5,10.72,8.07a7.87,7.87,0,0,1,.11,1.38,8.2,8.2,0,0,1-.29,2.18"/><path class="cls-8" d="M23.51,35.5c-16.36,8-13.34,41.43-13.34,41.43"/><path class="cls-8" d="M44.94,35.5h0c16.61,7.76,13.67,41.43,13.67,41.43"/><path class="cls-8" d="M25.3,38s2.42-7.36,6.33-5.47c.5-1.67,1.17-1.89,2.72-1.89A2.29,2.29,0,0,1,37,32.47c4.12-2.1,6.51,5.73,6.51,5.73"/></g></svg>