<svg xmlns="http://www.w3.org/2000/svg" viewBox="0 0 104 104"><defs><style>.cls-1{fill:#fff;stroke-width:4px;}.cls-1,.cls-4,.cls-5{stroke:#000;}.cls-1,.cls-4{stroke-miterlimit:10;}.cls-2{fill:#ffefbe;}.cls-3{fill:#b1b5dd;}.cls-4,.cls-5{fill:none;stroke-linecap:round;stroke-width:2px;}.cls-5{stroke-linejoin:round;}</style></defs><title>Банкетные залы</title><g id="Пиктограммы"><rect class="cls-1" x="2" y="2" width="100" height="100"/><path class="cls-2" d="M94.74,72.77a.71.71,0,0,1-.69.84H24a.7.7,0,0,1-.7-.61l-.65-5.09L17.9,31.35a.71.71,0,0,1,.7-.79l67.47.15a.7.7,0,0,1,.69.57ZM77.2,51.86a1.81,1.81,0,0,0-1.8-1.8H37.6a1.79,1.79,0,0,0-1.27.53,1.76,1.76,0,0,0-.53,1.27,1.81,1.81,0,0,0,1.8,1.8H75.4a1.83,1.83,0,0,0,1.8-1.8Z"/><path d="M75.4,50.06a1.81,1.81,0,0,1,1.8,1.8,1.83,1.83,0,0,1-1.8,1.8H37.6a1.81,1.81,0,0,1-1.8-1.8,1.76,1.76,0,0,1,.53-1.27,1.79,1.79,0,0,1,1.27-.53Z"/><polygon class="cls-3" points="17.9 31.35 22.61 67.91 9.25 67.91 17.9 31.35"/><path class="cls-4" d="M17.9,31.35a.71.71,0,0,1,.7-.79l67.47.15a.7.7,0,0,1,.69.57l8,41.49a.71.71,0,0,1-.69.84H24a.7.7,0,0,1-.7-.61l-.65-5.09"/><polygon class="cls-5" points="17.9 31.35 9.25 67.91 22.61 67.91 17.9 31.35"/></g></svg>