<svg xmlns="http://www.w3.org/2000/svg" viewBox="0 0 204 204"><defs><style>.cls-1{fill:#fff;}.cls-1,.cls-2,.cls-5,.cls-6{stroke:#000;}.cls-1,.cls-2,.cls-5{stroke-miterlimit:10;}.cls-1,.cls-2{stroke-width:4px;}.cls-2,.cls-5,.cls-6{fill:none;stroke-linecap:round;}.cls-3{fill:#ffefbe;}.cls-4{fill:#b1b5dd;}.cls-5,.cls-6{stroke-width:2px;}.cls-6{stroke-linejoin:round;}</style></defs><title>Банкетные залы_1</title><g id="Категории"><rect class="cls-1" x="2" y="2" width="200" height="200" rx="20" ry="20"/><path class="cls-2" d="M160.55,42c0,27.64-26.49,50.06-59.16,50.06S42.23,69.64,42.23,42"/><line class="cls-2" x1="7.58" y1="42" x2="42.23" y2="42"/><line class="cls-2" x1="10.78" y1="62.62" x2="44.24" y2="55.03"/><line class="cls-2" x1="20.16" y1="81.83" x2="50.17" y2="67.17"/><line class="cls-2" x1="35.11" y1="98.34" x2="59.61" y2="77.61"/><line class="cls-2" x1="54.59" y1="111" x2="71.92" y2="85.62"/><line class="cls-2" x1="77.29" y1="118.97" x2="86.26" y2="90.66"/><line class="cls-2" x1="101.65" y1="121.7" x2="101.65" y2="92.39"/><line class="cls-2" x1="126.02" y1="119" x2="117.05" y2="90.69"/><line class="cls-2" x1="148.73" y1="111.06" x2="131.4" y2="85.67"/><line class="cls-2" x1="168.23" y1="98.41" x2="143.73" y2="77.68"/><line class="cls-2" x1="183.2" y1="81.93" x2="153.2" y2="67.27"/><line class="cls-2" x1="192.62" y1="62.72" x2="159.16" y2="55.14"/><line class="cls-2" x1="195.85" y1="42.11" x2="161.2" y2="42.11"/><path d="M33.37,134.77v4.94h5.21c4.05,0,7,1.7,7,5.67a5.58,5.58,0,0,1-1,3.35c-1.37,1.91-2.78,2.43-6,2.43H31.89c-1.73,0-2.43-.73-2.43-2.43V134.29c0-1.76.78-2.46,2.43-2.46H42.22c1.33,0,2,.51,2,1.51,0,.68-.51,1.43-2,1.43Zm0,13.44h3.78a12.12,12.12,0,0,0,2.67-.21,2.69,2.69,0,0,0,1.89-2.65c0-1.43-.62-2.7-4.37-2.7h-4Z"/><path d="M52.81,151.48c-3.1,0-4.83-1.81-4.83-4.08,0-4.26,4.94-3.94,9.61-5.31,0-2.16-.84-2.78-2.57-2.78s-2.72.46-3.21,1.37c-.57,1.06-.86,1.43-1.7,1.43a1.43,1.43,0,0,1-1.48-1.35c0-1.78,1.89-3.91,6.29-3.91s6.26,1.11,6.26,5.75L61.1,146c0,2.06.7,3.35.7,4.08a1.6,1.6,0,0,1-1.65,1.43c-.73,0-1.48-.67-2.29-2A8.17,8.17,0,0,1,52.81,151.48ZM54.94,145c-2.4.48-3.37.94-3.37,2.21a2.08,2.08,0,0,0,2.35,2,3.87,3.87,0,0,0,2.18-.65c1.41-.91,1.51-1.83,1.51-4.23A16.25,16.25,0,0,1,54.94,145Z"/><path d="M68.25,142.46h5.56v-3.34c0-1.7.87-2.27,1.81-2.27s1.78.57,1.78,2.27v10.09c0,1.7-.89,2.27-1.83,2.27s-1.76-.73-1.76-2.27v-4.13H68.25v4.13c0,1.7-.86,2.27-1.8,2.27s-1.79-.57-1.79-2.27V139.12c0-1.62.84-2.27,1.84-2.27.84,0,1.75.57,1.75,2.27Z"/><path d="M80.86,139.09c0-1.48.63-2.24,1.84-2.24.86,0,1.75.59,1.75,2.24v3.78c1,0,1.25-.27,2.06-2.57,1-2.91,2.18-3.23,3.8-3.23,1.92,0,2.08.67,2.08,1.29,0,.78-.49,1.19-1.48,1.22-1.27,0-1.38.32-1.92,2A3.42,3.42,0,0,1,87.23,144c1,.29,2.11,1.32,3,3.13l.78,1.54A3.17,3.17,0,0,1,91.5,150a1.51,1.51,0,0,1-1.67,1.46c-1,0-1.54-.49-2.14-1.86l-1.1-2.51c-.65-1.49-1.16-1.89-2.14-1.92v4c0,1.51-.59,2.27-1.8,2.27-1,0-1.79-.73-1.79-2.27Z"/><path d="M97,145.06c.08,2.67,1.67,4,3.62,4a4.75,4.75,0,0,0,3.4-1.59c.86-.86,1.13-1,1.64-1a1.14,1.14,0,0,1,1.19,1.05c0,1.57-2.35,3.89-6.15,3.89-4.89,0-7.34-3-7.34-7.31s2.61-7.32,7-7.32a6.28,6.28,0,0,1,6.64,6.07c0,1.3-.57,2.14-3,2.14Zm6.56-2.06c-.11-2.37-1.46-3.67-3.27-3.67s-3,1.22-3.29,3.67Z"/><path d="M116.75,139.77v9.44c0,1.7-.87,2.27-1.81,2.27s-1.76-.57-1.76-2.27v-9.44h-3c-1.22,0-1.84-.44-1.84-1.33,0-.62.46-1.29,1.84-1.29h9.64c1.21,0,1.83.46,1.83,1.35,0,.62-.51,1.27-1.83,1.27Z"/><path d="M127,142.46h5.56v-3.34c0-1.7.87-2.27,1.81-2.27s1.78.57,1.78,2.27v10.09c0,1.7-.89,2.27-1.83,2.27s-1.76-.73-1.76-2.27v-4.13H127v4.13c0,1.7-.86,2.27-1.8,2.27s-1.79-.57-1.79-2.27V139.12c0-1.62.84-2.27,1.84-2.27.84,0,1.75.57,1.75,2.27Z"/><path d="M143.23,142.49H147c3.91,0,6,1.51,6,4.27,0,2.26-1.46,4.4-6,4.4h-5.13c-1.54,0-2.19-.71-2.19-2.19v-9.85c0-1.62.87-2.27,1.87-2.27s1.72.57,1.72,2.27Zm0,6h3.32c2.33,0,2.76-.92,2.76-1.73,0-1.13-.92-1.7-2.76-1.7h-3.32Zm15.53,0c0,2-.33,3-1.79,3s-1.81-1-1.81-3v-8.69c0-2.24.49-3,1.79-3,1.51,0,1.81,1,1.81,2.94Z"/><path d="M165.32,145.06c.08,2.67,1.67,4,3.62,4a4.75,4.75,0,0,0,3.4-1.59c.86-.86,1.13-1,1.64-1a1.14,1.14,0,0,1,1.19,1.05c0,1.57-2.35,3.89-6.15,3.89-4.89,0-7.34-3-7.34-7.31s2.61-7.32,7-7.32a6.28,6.28,0,0,1,6.64,6.07c0,1.3-.56,2.14-3,2.14Zm6.56-2.06c-.11-2.37-1.46-3.67-3.27-3.67s-3,1.22-3.29,3.67Z"/><path d="M81.27,176.1c0,3.29-2.19,5.88-7.59,5.88-4.51,0-7.18-2.78-7.18-4.83a1.84,1.84,0,0,1,1.84-1.78,1.91,1.91,0,0,1,1.72,1.24,3.81,3.81,0,0,0,3.67,2.27c2.16,0,3.57-1.25,3.57-2.87,0-1.86-1.68-2.94-3.86-2.88l-.87,0a1.47,1.47,0,0,1,0-2.94,4,4,0,0,1,.43,0h.51c1.62,0,3.13-.89,3.13-2.49a2.8,2.8,0,0,0-3-2.64,3,3,0,0,0-2.94,2c-.68,1.4-1.33,1.48-1.86,1.48a1.91,1.91,0,0,1-1.92-1.94,1.06,1.06,0,0,1,.08-.49l.08-.24c.81-2.56,3.54-3.91,6.56-3.91,4,0,6.88,2,6.88,5.23a4.3,4.3,0,0,1-2.78,4.19A4.5,4.5,0,0,1,81.27,176.1Z"/><path d="M88.45,182c-3.1,0-4.83-1.81-4.83-4.08,0-4.26,4.94-3.94,9.61-5.31,0-2.16-.84-2.78-2.57-2.78s-2.72.46-3.21,1.37c-.57,1.06-.86,1.43-1.7,1.43a1.43,1.43,0,0,1-1.48-1.35c0-1.78,1.88-3.91,6.29-3.91s6.26,1.11,6.26,5.75l-.08,3.37c0,2.06.7,3.35.7,4.08A1.61,1.61,0,0,1,95.79,182c-.73,0-1.48-.67-2.29-2A8.17,8.17,0,0,1,88.45,182Zm2.13-6.53c-2.4.48-3.37.94-3.37,2.21a2.08,2.08,0,0,0,2.35,2,3.87,3.87,0,0,0,2.18-.65c1.41-.91,1.51-1.83,1.51-4.23A16.25,16.25,0,0,1,90.58,175.45Z"/><path d="M105.22,170.27v6.61c0,3.8-1.27,5-3.78,5-2,0-3-.49-3-1.81,0-.84.46-1.24,1.35-1.24.3,0,.68.05.81.05.76,0,1-.37,1-1.75v-7.32c0-1.51.62-2.18,2.16-2.18h8.07c1.54,0,2.16.67,2.16,2.21v9.85c0,1.73-.89,2.27-1.83,2.27s-1.76-.57-1.76-2.27v-9.44Z"/><path d="M121.12,173h3.72c3.92,0,6,1.51,6,4.27,0,2.26-1.46,4.4-6,4.4h-5.12c-1.54,0-2.19-.71-2.19-2.19v-9.85c0-1.62.86-2.27,1.86-2.27s1.73.57,1.73,2.27Zm0,6h3.32c2.32,0,2.75-.92,2.75-1.73,0-1.13-.91-1.7-2.75-1.7h-3.32Zm15.52,0c0,2-.32,3-1.78,3s-1.81-1-1.81-3v-8.69c0-2.24.49-3,1.78-3,1.51,0,1.81,1,1.81,2.94Z"/><path class="cls-3" d="M141.37,62.29a.65.65,0,0,1-.64.78H75.15a.67.67,0,0,1-.65-.57l-.61-4.76-4.4-34.21a.65.65,0,0,1,.64-.74l63.14.14a.65.65,0,0,1,.64.53ZM125,43.79V41.65a.6.6,0,0,0-.6-.61H86.84a.61.61,0,0,0-.61.61v2.14a.61.61,0,0,0,.61.62h37.52A.61.61,0,0,0,125,43.79Z"/><path d="M125,41.65v2.14a.61.61,0,0,1-.6.62H86.84a.61.61,0,0,1-.61-.62V41.65a.61.61,0,0,1,.61-.61h37.52A.6.6,0,0,1,125,41.65Z"/><polygon class="cls-4" points="69.49 23.53 73.89 57.74 61.38 57.74 69.49 23.53"/><path class="cls-5" d="M69.49,23.53a.65.65,0,0,1,.64-.74l63.14.14a.65.65,0,0,1,.64.53l7.46,38.83a.65.65,0,0,1-.64.78H75.15a.67.67,0,0,1-.65-.57l-.61-4.76"/><polygon class="cls-6" points="69.49 23.53 61.38 57.74 73.89 57.74 69.49 23.53"/></g></svg>