<svg xmlns="http://www.w3.org/2000/svg" viewBox="0 0 204 204"><defs><style>.cls-1,.cls-3{fill:#fff;}.cls-1,.cls-2,.cls-5{stroke:#000;}.cls-1,.cls-2{stroke-miterlimit:10;stroke-width:4px;}.cls-2,.cls-5{fill:none;stroke-linecap:round;}.cls-4{fill:#af54a1;}.cls-5{stroke-linejoin:round;stroke-width:2px;}</style></defs><title>Свадебные торты_1</title><g id="Категории"><rect class="cls-1" x="2" y="2" width="200" height="200" rx="20" ry="20"/><path class="cls-2" d="M160.55,42c0,27.64-26.49,50.06-59.16,50.06S42.23,69.64,42.23,42"/><line class="cls-2" x1="7.58" y1="42" x2="42.23" y2="42"/><line class="cls-2" x1="10.78" y1="62.62" x2="44.24" y2="55.03"/><line class="cls-2" x1="20.16" y1="81.83" x2="50.17" y2="67.17"/><line class="cls-2" x1="35.11" y1="98.34" x2="59.61" y2="77.61"/><line class="cls-2" x1="54.59" y1="111" x2="71.92" y2="85.62"/><line class="cls-2" x1="77.29" y1="118.97" x2="86.26" y2="90.66"/><line class="cls-2" x1="101.65" y1="121.7" x2="101.65" y2="92.39"/><line class="cls-2" x1="126.02" y1="119" x2="117.05" y2="90.69"/><line class="cls-2" x1="148.73" y1="111.06" x2="131.4" y2="85.67"/><line class="cls-2" x1="168.23" y1="98.41" x2="143.73" y2="77.68"/><line class="cls-2" x1="183.2" y1="81.93" x2="153.2" y2="67.27"/><line class="cls-2" x1="192.62" y1="62.72" x2="159.16" y2="55.14"/><line class="cls-2" x1="195.85" y1="42.11" x2="161.2" y2="42.11"/><path d="M42.09,145.06c0,2.61-2.78,6.42-8,6.42-6.28,0-9.28-4.48-9.28-10,0-6,3.8-10,9.28-10,4.78,0,7.89,3.45,7.89,5.88a1.69,1.69,0,0,1-1.73,1.67c-1,0-1.22-.37-2.08-2a4.6,4.6,0,0,0-4.1-2.48c-3.24,0-5.29,2.54-5.29,7.07s2,6.7,5.18,6.7a4.48,4.48,0,0,0,4.56-3.3c.54-1.48,1.08-1.72,1.81-1.72A1.72,1.72,0,0,1,42.09,145.06Z"/><path d="M58.77,147.49c0,2-1.48,3.67-4.75,3.67H47.38c-1.54,0-2.18-.71-2.18-2.19v-9.61c0-1.54.7-2.21,2.18-2.21h5.94c3.35,0,5,1.24,5,3.67a3.23,3.23,0,0,1-2.4,3.18A3.57,3.57,0,0,1,58.77,147.49Zm-10-4.51h2.53c3,0,3.51-.79,3.51-1.68s-.32-1.53-3.51-1.53H48.79Zm0,5.56h3.07c2.57,0,3.27-.54,3.27-1.57,0-1.43-1.24-1.75-4.29-1.75H48.79Z"/><path d="M65.88,151.48c-3.11,0-4.83-1.81-4.83-4.08,0-4.26,4.94-3.94,9.61-5.31,0-2.16-.84-2.78-2.57-2.78s-2.73.46-3.21,1.37c-.57,1.06-.86,1.43-1.7,1.43a1.44,1.44,0,0,1-1.49-1.35c0-1.78,1.89-3.91,6.29-3.91s6.27,1.11,6.27,5.75L74.16,146c0,2.06.71,3.35.71,4.08a1.61,1.61,0,0,1-1.65,1.43c-.73,0-1.49-.67-2.29-2A8.2,8.2,0,0,1,65.88,151.48ZM68,145c-2.4.48-3.37.94-3.37,2.21a2.07,2.07,0,0,0,2.34,2,3.88,3.88,0,0,0,2.19-.65c1.4-.91,1.51-1.83,1.51-4.23A16.54,16.54,0,0,1,68,145Z"/><path d="M90,151.16H78.62v2.16c0,1.21-.43,1.83-1.32,1.83-.73,0-1.3-.57-1.3-1.83V150.7c0-2.41-.08-2.16,1.19-2.16,1.65-2,2.49-4.86,2.54-8.61a4.88,4.88,0,0,1,.19-1.73c.19-.41.62-1,2-1h7c1.54,0,2.19.7,2.19,2.21v9.18h.65c.78,0,.86-.14.86,1.78v3c0,1.21-.46,1.83-1.35,1.83-.62,0-1.27-.46-1.27-1.83Zm-2.45-2.62v-8.77H83c-.11,3.86-.49,6.5-2.11,8.77Z"/><path d="M98.06,145.06c.08,2.67,1.67,4,3.62,4a4.75,4.75,0,0,0,3.4-1.59c.86-.86,1.13-1,1.65-1a1.14,1.14,0,0,1,1.18,1.05c0,1.57-2.34,3.89-6.15,3.89-4.89,0-7.34-3-7.34-7.31s2.62-7.32,7-7.32a6.28,6.28,0,0,1,6.64,6.07c0,1.3-.56,2.14-3,2.14Zm6.56-2.06c-.11-2.37-1.46-3.67-3.27-3.67s-3,1.22-3.29,3.67Z"/><path d="M118,137.2c3.91,0,6.61,3.13,6.61,7a7.05,7.05,0,0,1-7.26,7.26c-4.61,0-7.07-3.35-7.07-9.8s2-9.64,7-9.64h.38l1.51,0h.38a4.11,4.11,0,0,0,1.21-.11c.54-.16,1.27-1,2.14-1,.67,0,1,.38,1,1.11,0,2.43-1.59,2.62-5,2.67-4,.08-5.37.49-5.78,5A5.83,5.83,0,0,1,118,137.2Zm-4.08,7.07c0,2.76,1.57,4.54,3.54,4.54s3.51-2,3.51-4.51c0-2.67-1.59-4.4-3.46-4.4S113.88,141.55,113.88,144.27Z"/><path d="M130.87,142.46h5.56v-3.34c0-1.7.86-2.27,1.81-2.27s1.78.57,1.78,2.27v10.09c0,1.7-.89,2.27-1.84,2.27s-1.75-.73-1.75-2.27v-4.13h-5.56v4.13c0,1.7-.87,2.27-1.81,2.27s-1.78-.57-1.78-2.27V139.12c0-1.62.83-2.27,1.83-2.27.84,0,1.76.57,1.76,2.27Z"/><path d="M147.07,142.49h3.72c3.92,0,6,1.51,6,4.27,0,2.26-1.45,4.4-6,4.4h-5.13c-1.54,0-2.18-.71-2.18-2.19v-9.85c0-1.62.86-2.27,1.86-2.27s1.73.57,1.73,2.27Zm0,6h3.32c2.32,0,2.75-.92,2.75-1.73,0-1.13-.92-1.7-2.75-1.7h-3.32Zm15.52,0c0,2-.33,3-1.78,3s-1.81-1-1.81-3v-8.69c0-2.24.48-3,1.78-3,1.51,0,1.81,1,1.81,2.94Z"/><path d="M169.15,145.06c.08,2.67,1.68,4,3.62,4a4.75,4.75,0,0,0,3.4-1.59c.87-.86,1.14-1,1.65-1a1.14,1.14,0,0,1,1.19,1.05c0,1.57-2.35,3.89-6.16,3.89-4.88,0-7.34-3-7.34-7.31s2.62-7.32,7-7.32a6.27,6.27,0,0,1,6.64,6.07c0,1.3-.56,2.14-3,2.14Zm6.56-2.06c-.11-2.37-1.45-3.67-3.26-3.67s-3,1.22-3.3,3.67Z"/><path d="M70.13,165.35v13.39c0,2.27-.46,3.24-1.94,3.24-1.73,0-2-1.16-2-3.24V165.35H62.68c-2.24,0-2.7-.51-2.7-1.51s.3-1.51,2.7-1.51h11c2,0,2.7.27,2.7,1.51,0,1-.33,1.51-2.7,1.51Z"/><path d="M90.19,174.67c0,4.23-2.81,7.31-7.1,7.31-4.64,0-7.26-3.13-7.26-7.31s2.73-7.32,7.18-7.32S90.19,170.45,90.19,174.67Zm-3.64,0c0-2.92-1.38-4.65-3.54-4.65s-3.54,1.76-3.54,4.65,1.38,4.64,3.54,4.64S86.55,177.58,86.55,174.67Z"/><path d="M96.24,169.75a5.81,5.81,0,0,1,4.7-2.4c3.67,0,6,3.16,6,7.48,0,4.07-2.19,7.15-6,7.15a6.21,6.21,0,0,1-4.72-2.24v4.7c0,2.72-.78,2.89-1.78,2.89-1.32,0-1.81-.73-1.81-3v-14.2c0-2,.32-2.78,1.81-2.78,1.18,0,1.78.67,1.78,2Zm3.75.35c-2,0-3.53,1.62-3.53,4.4s1.4,4.73,3.56,4.73c1.94,0,3.29-1.68,3.29-4.48C103.31,171.59,101.75,170.1,100,170.1Z"/><path d="M116.57,170.27v9.44c0,1.7-.86,2.27-1.81,2.27s-1.75-.57-1.75-2.27v-9.44h-3c-1.21,0-1.83-.44-1.83-1.33,0-.62.46-1.29,1.83-1.29h9.64c1.21,0,1.84.46,1.84,1.35,0,.62-.52,1.27-1.84,1.27Z"/><path d="M126.86,173h3.72c3.92,0,6,1.51,6,4.27,0,2.26-1.45,4.4-6,4.4h-5.13c-1.54,0-2.18-.71-2.18-2.19v-9.85c0-1.62.86-2.27,1.86-2.27s1.73.57,1.73,2.27Zm0,6h3.32c2.32,0,2.75-.92,2.75-1.73,0-1.13-.92-1.7-2.75-1.7h-3.32Zm15.52,0c0,2-.32,3-1.78,3s-1.81-1-1.81-3v-8.69c0-2.24.48-3,1.78-3,1.51,0,1.81,1,1.81,2.94Z"/><path class="cls-3" d="M129.89,67.42a2.22,2.22,0,0,1-1.21,2c-2,1.11-3.93,2.48-6.5,2.46-13.66-.08-27.32-.1-41,0-2.54,0-4.44-1.16-6.53-2.13a2.61,2.61,0,0,1-1.74-2.38c.11-3.36-.52-6.76.4-10.09l.35-.38a4.08,4.08,0,0,0,.67.41c4.87,2.43,9.6,2.51,14.26-.36a3.72,3.72,0,0,1,4.19,0A17.5,17.5,0,0,0,110,57a3.78,3.78,0,0,1,4.2,0c4.8,2.87,9.61,2.9,14.58.13l.69.2C130.37,60.66,129.68,64.06,129.89,67.42Z"/><path class="cls-3" d="M129.84,55.25a1.76,1.76,0,0,1-1.08,1.88c-5,2.77-9.78,2.74-14.58-.13a3.78,3.78,0,0,0-4.2,0,17.5,17.5,0,0,1-17.17,0,3.72,3.72,0,0,0-4.19,0c-4.66,2.87-9.39,2.79-14.26.36a4.08,4.08,0,0,1-.67-.41c-1.18-.92-.84-2.05-.15-3.16,1-1.62,2.91-2.21,4.41-3.29h.29c.3.49.78.29,1.19.29h44.82a2.89,2.89,0,0,1,.5,0C126.83,51.19,129.73,53.51,129.84,55.25Z"/><path class="cls-3" d="M125.1,38c0,.49,0,1,0,1.54-.09,3.56.41,7.14-.27,10.69l-.1.62a2.89,2.89,0,0,0-.5,0H79.43c-.41,0-.89.2-1.19-.29H78v-.29c-.68-3.55-.19-7.13-.28-10.69,0-.53,0-1.05,0-1.54l.85.05c5,2.73,9.84,3.25,14.6-.62,5.38,3.65,10.83,4,16.38,0,4.7,3.84,9.66,3.5,14.73.66Z"/><path class="cls-3" d="M125.1,38l-.85.05c-5.07,2.84-10,3.18-14.73-.66-5.55,4-11,3.69-16.38,0-4.76,3.87-9.64,3.35-14.6.62L77.69,38c.18-2.7,1.17-4.94,4.4-5.92,1.41-.43,2.78-.15,4.17-.25,4-.3,8.16.62,12.16-.6l.28-.05c1.14,1.07,3.11.94,4.68,0l1.28.06c3.5,1.27,7.13.26,10.69.6,1.77.16,3.55-.27,5.35.26C123.94,33,124.92,35.28,125.1,38Z"/><path class="cls-4" d="M100.83,15.83l.86-.06c.8.11,1.23-.54,1.77-.91,2.28-1.54,4.5-1,6.52.35,1.86,1.24,2.56,4.17,1.79,6.5a9.24,9.24,0,0,1-3.23,4.78,22.75,22.75,0,0,0-3.84,3.56,5.34,5.34,0,0,1-1.32,1.1c-1.57,1-3.54,1.08-4.68,0a2.55,2.55,0,0,1-.47-.6c-1-1.81-2.65-2.78-4-4A12.38,12.38,0,0,1,91,22c-1.6-3.81,1.78-8.3,5.92-8C98.51,14.08,99.54,15.21,100.83,15.83Z"/><path class="cls-5" d="M73.34,57.33c-.92,3.33-.29,6.73-.4,10.09a2.61,2.61,0,0,0,1.74,2.38c2.09,1,4,2.16,6.53,2.13,13.65-.12,27.31-.1,41,0,2.57,0,4.46-1.35,6.5-2.46a2.22,2.22,0,0,0,1.21-2c-.21-3.36.48-6.76-.44-10.09"/><path class="cls-5" d="M78.24,50.5c.3.49.78.29,1.19.29h44.82a2.89,2.89,0,0,1,.5,0c2.08.36,5,2.68,5.09,4.42a1.76,1.76,0,0,1-1.08,1.88c-5,2.77-9.78,2.74-14.58-.13a3.78,3.78,0,0,0-4.2,0,17.5,17.5,0,0,1-17.17,0,3.72,3.72,0,0,0-4.19,0c-4.66,2.87-9.39,2.79-14.26.36a4.08,4.08,0,0,1-.67-.41c-1.18-.92-.84-2.05-.15-3.16,1-1.62,2.91-2.21,4.41-3.29"/><path class="cls-5" d="M101.4,16.06a3.57,3.57,0,0,1-.57-.23C99.54,15.21,98.51,14.08,97,14c-4.14-.28-7.52,4.21-5.92,8a12.38,12.38,0,0,0,3.18,4.53c1.37,1.26,3,2.23,4,4a2.55,2.55,0,0,0,.47.6c1.14,1.07,3.11.94,4.68,0a5.34,5.34,0,0,0,1.32-1.1,22.75,22.75,0,0,1,3.84-3.56,9.24,9.24,0,0,0,3.23-4.78c.77-2.33.07-5.26-1.79-6.5-2-1.33-4.24-1.89-6.52-.35-.54.37-1,1-1.77.91"/><path class="cls-5" d="M98.42,31.21c-4,1.22-8.11.3-12.16.6-1.39.1-2.76-.18-4.17.25-3.23,1-4.22,3.22-4.4,5.92,0,.49,0,1,0,1.54.09,3.56-.4,7.14.28,10.69"/><path class="cls-5" d="M104.66,31.21c3.5,1.27,7.13.26,10.69.6,1.77.16,3.55-.27,5.35.26,3.24,1,4.22,3.21,4.4,5.91,0,.49,0,1,0,1.54-.09,3.56.41,7.14-.27,10.69"/><path class="cls-5" d="M78.54,38c5,2.73,9.84,3.25,14.6-.62,5.38,3.65,10.83,4,16.38,0,4.7,3.84,9.66,3.5,14.73.66"/></g></svg>