<svg xmlns="http://www.w3.org/2000/svg" viewBox="0 0 104 104"><defs><style>.cls-1,.cls-2{fill:#fff;}.cls-1,.cls-4{stroke:#000;}.cls-1{stroke-miterlimit:10;stroke-width:4px;}.cls-3{fill:#af54a1;}.cls-4{fill:none;stroke-linecap:round;stroke-linejoin:round;stroke-width:2px;}</style></defs><title>Свадебные торты</title><g id="Пиктограммы"><rect class="cls-1" x="2" y="2" width="100" height="100"/><path class="cls-2" d="M93.28,87.47a3.21,3.21,0,0,1-1.75,2.94C88.58,92,85.83,94,82.1,94c-19.77-.13-39.55-.16-59.32,0-3.68,0-6.43-1.69-9.46-3.09a3.79,3.79,0,0,1-2.52-3.44c.16-4.88-.75-9.8.59-14.62l.5-.55a5.52,5.52,0,0,0,1,.61c7,3.5,13.89,3.62,20.63-.52,2.16-1.33,3.87-1.19,6.08,0a25.38,25.38,0,0,0,24.87,0c2.21-1.16,3.91-1.27,6.07,0,7,4.16,13.92,4.19,21.12.19l1,.28C94,77.67,93,82.6,93.28,87.47Z"/><path class="cls-2" d="M93.2,69.85a2.53,2.53,0,0,1-1.56,2.72c-7.2,4-14.16,4-21.12-.19-2.16-1.29-3.86-1.18-6.07,0a25.38,25.38,0,0,1-24.87,0c-2.21-1.16-3.92-1.3-6.08,0-6.74,4.14-13.59,4-20.63.52a5.52,5.52,0,0,1-1-.61c-1.71-1.33-1.22-3-.23-4.58,1.45-2.35,4.23-3.2,6.39-4.76h.43c.44.7,1.13.42,1.72.42H85.11a3.72,3.72,0,0,1,.73.06C88.85,64,93.05,67.32,93.2,69.85Z"/><path class="cls-2" d="M86.34,44.83c0,.72.06,1.46,0,2.22C86.24,52.22,87,57.4,86,62.53l-.13.92a3.72,3.72,0,0,0-.73-.06H20.2c-.59,0-1.28.28-1.72-.42h-.43v-.43c-1-5.13-.26-10.31-.4-15.48q0-1.14,0-2.22l1.23.08c7.2,3.94,14.26,4.7,21.15-.9,7.8,5.29,15.67,5.71,23.72-.07,6.8,5.56,14,5.06,21.33,1Z"/><path class="cls-2" d="M86.34,44.83l-1.23.08c-7.33,4.09-14.53,4.59-21.33-1-8.05,5.78-15.92,5.36-23.72.07-6.89,5.6-14,4.84-21.15.9l-1.23-.08c.25-3.91,1.69-7.17,6.37-8.58,2.06-.61,4-.21,6-.36,5.87-.44,11.83.91,17.64-.87l.39-.07c1.63,1.54,4.5,1.36,6.78,0l1.85.08c5.07,1.85,10.33.38,15.47.86,2.59.24,5.16-.38,7.76.39C84.66,37.65,86.09,40.92,86.34,44.83Z"/><path class="cls-3" d="M51.19,12.75l1.25-.09c1.15.16,1.78-.78,2.57-1.31,3.3-2.23,6.51-1.43,9.44.51,2.69,1.79,3.7,6,2.6,9.4a13.55,13.55,0,0,1-4.69,6.93,33.55,33.55,0,0,0-5.57,5.14,7.7,7.7,0,0,1-1.9,1.61c-2.28,1.37-5.15,1.55-6.78,0a3.7,3.7,0,0,1-.68-.87c-1.48-2.62-3.84-4-5.83-5.84A18.33,18.33,0,0,1,37,21.68c-2.33-5.54,2.57-12,8.56-11.62C47.83,10.22,49.34,11.84,51.19,12.75Z"/><path class="cls-4" d="M11.39,72.85c-1.34,4.82-.43,9.74-.59,14.62a3.79,3.79,0,0,0,2.52,3.44c3,1.4,5.78,3.12,9.46,3.09,19.77-.18,39.55-.15,59.32,0,3.73,0,6.48-2,9.43-3.57a3.21,3.21,0,0,0,1.75-2.94c-.31-4.87.7-9.8-.65-14.62"/><path class="cls-4" d="M18.48,63c.44.7,1.13.42,1.72.42H85.11a3.72,3.72,0,0,1,.73.06c3,.5,7.21,3.87,7.36,6.4a2.53,2.53,0,0,1-1.56,2.72c-7.2,4-14.16,4-21.12-.19-2.16-1.29-3.86-1.18-6.07,0a25.38,25.38,0,0,1-24.87,0c-2.21-1.16-3.92-1.3-6.08,0-6.74,4.14-13.59,4-20.63.52a5.52,5.52,0,0,1-1-.61c-1.71-1.33-1.22-3-.23-4.58,1.45-2.35,4.23-3.2,6.39-4.76"/><path class="cls-4" d="M52,13.09a6.45,6.45,0,0,1-.82-.34c-1.85-.91-3.36-2.53-5.63-2.69-6-.41-10.89,6.08-8.56,11.62a18.33,18.33,0,0,0,4.6,6.56c2,1.82,4.35,3.22,5.83,5.84a3.7,3.7,0,0,0,.68.87c1.63,1.54,4.5,1.36,6.78,0a7.7,7.7,0,0,0,1.9-1.61,33.55,33.55,0,0,1,5.57-5.14,13.55,13.55,0,0,0,4.69-6.93c1.1-3.37.09-7.61-2.6-9.4-2.93-1.94-6.14-2.74-9.44-.51-.79.53-1.42,1.47-2.57,1.31"/><path class="cls-4" d="M47.72,35c-5.81,1.78-11.77.43-17.64.87-2,.15-4-.25-6,.36-4.68,1.41-6.12,4.67-6.37,8.58q-.06,1.08,0,2.22c.14,5.17-.59,10.35.4,15.48"/><path class="cls-4" d="M56.74,35c5.07,1.85,10.33.38,15.47.86,2.59.24,5.16-.38,7.76.39,4.69,1.38,6.12,4.65,6.37,8.56,0,.72.06,1.46,0,2.22C86.24,52.22,87,57.4,86,62.53"/><path class="cls-4" d="M18.91,44.91c7.2,3.94,14.26,4.7,21.15-.9,7.8,5.29,15.67,5.71,23.72-.07,6.8,5.56,14,5.06,21.33,1"/></g></svg>