<svg xmlns="http://www.w3.org/2000/svg" viewBox="0 0 200 200"><defs><style>.cls-1{fill:#fff;}.cls-2{fill:#201600;}.cls-3,.cls-5{fill:none;}.cls-3,.cls-4{stroke:#000;stroke-width:3px;}.cls-3,.cls-4,.cls-5{stroke-linecap:round;stroke-linejoin:round;}.cls-4{fill:#ff85c8;}.cls-5{stroke:#201600;stroke-width:4px;}</style></defs><title>Ресурс 6</title><g id="Слой_2" data-name="Слой 2"><g id="Слой_2-2" data-name="Слой 2"><rect class="cls-1" x="2" y="2" width="196" height="196" rx="18" ry="18"/><path class="cls-2" d="M180,4a16,16,0,0,1,16,16V180a16,16,0,0,1-16,16H20A16,16,0,0,1,4,180V20A16,16,0,0,1,20,4H180m0-4H20A20,20,0,0,0,0,20V180a20,20,0,0,0,20,20H180a20,20,0,0,0,20-20V20A20,20,0,0,0,180,0Z"/><path class="cls-3" d="M76.22,53.65c-.79,2.82-.25,5.7-.35,8.55a2.21,2.21,0,0,0,1.48,2C79.12,65,80.73,66,82.88,66c11.56-.11,23.12-.09,34.68,0,2.18,0,3.78-1.14,5.51-2.08a1.89,1.89,0,0,0,1-1.72c-.18-2.85.41-5.73-.37-8.55"/><path class="cls-3" d="M80.36,47.87c.26.41.67.25,1,.25q19,0,37.95,0c1.75,0,4.63,2.17,4.73,3.78a1.49,1.49,0,0,1-.92,1.58,11.51,11.51,0,0,1-12.34-.1,3.19,3.19,0,0,0-3.55,0,14.88,14.88,0,0,1-14.54,0,3.17,3.17,0,0,0-3.55,0c-3.94,2.43-8,2.35-12.07.3-1.66-.82-1.37-1.94-.7-3,.84-1.38,2.47-1.88,3.73-2.79"/><path class="cls-4" d="M100,18.72c-1.33-.44-2.26-1.67-3.77-1.77a5.09,5.09,0,0,0-5,6.79,10.73,10.73,0,0,0,2.69,3.83C95,28.64,96.42,29.46,97.29,31c1,1.8,4,1.34,5.47-.44a19.41,19.41,0,0,1,3.26-3,7.92,7.92,0,0,0,2.74-4.05c.64-2,0-4.45-1.53-5.49s-3.58-1.61-5.51-.3c-.46.31-.83.86-1.5.77"/><path class="cls-3" d="M97.45,31.54c-3.39,1-6.87.25-10.3.51a15.62,15.62,0,0,0-3.53.21c-3.24,1-3.82,3.47-3.74,6.31.08,3-.34,6,.23,9"/><path class="cls-3" d="M102.73,31.54c3,1.08,6,.22,9,.5,1.5.14,3-.22,4.53.23,3.25,1,3.82,3.46,3.75,6.3-.09,3,.34,6-.24,9"/><path class="cls-3" d="M80.62,37.32c4.2,2.3,8.33,2.74,12.36-.53,4.56,3.1,9.17,3.34,13.87,0,4,3.25,8.18,3,12.47.57"/><path d="M36.9,141.53c0,2.82-3,6.91-8.56,6.91-6.76,0-10-4.82-10-10.71,0-6.43,4.09-10.76,10-10.76,5.13,0,8.47,3.72,8.47,6.33A1.82,1.82,0,0,1,35,135.1c-1,0-1.3-.41-2.23-2.12a5,5,0,0,0-4.41-2.67c-3.48,0-5.69,2.73-5.69,7.6s2.18,7.19,5.57,7.19a4.84,4.84,0,0,0,4.91-3.54c.58-1.59,1.16-1.85,1.94-1.85A1.84,1.84,0,0,1,36.9,141.53Z"/><path d="M54.82,144.15c0,2.17-1.6,3.94-5.11,3.94H42.58c-1.66,0-2.35-.75-2.35-2.35V135.41c0-1.65.75-2.37,2.35-2.37H49c3.59,0,5.33,1.33,5.33,3.94a3.46,3.46,0,0,1-2.58,3.42A3.83,3.83,0,0,1,54.82,144.15ZM44.08,139.3h2.73c3.28,0,3.77-.84,3.77-1.8s-.35-1.65-3.77-1.65H44.08Zm0,6h3.31c2.76,0,3.51-.58,3.51-1.69,0-1.53-1.33-1.88-4.61-1.88H44.08Z"/><path d="M62.44,148.44c-3.33,0-5.19-1.95-5.19-4.38,0-4.58,5.31-4.24,10.32-5.72,0-2.32-.89-3-2.75-3s-2.93.49-3.45,1.48-.93,1.53-1.83,1.53a1.55,1.55,0,0,1-1.6-1.45c0-1.91,2-4.2,6.76-4.2s6.73,1.19,6.73,6.18l-.08,3.62c0,2.21.75,3.6.75,4.38a1.73,1.73,0,0,1-1.77,1.54c-.78,0-1.59-.73-2.47-2.18A8.78,8.78,0,0,1,62.44,148.44Zm2.29-7c-2.58.52-3.62,1-3.62,2.38a2.23,2.23,0,0,0,2.52,2.11,4.19,4.19,0,0,0,2.35-.69c1.51-1,1.62-2,1.62-4.56A16.22,16.22,0,0,1,64.73,141.42Z"/><path d="M88.37,148.09H76.13v2.32c0,1.31-.47,2-1.42,2-.79,0-1.4-.61-1.4-2V147.6c0-2.58-.08-2.32,1.28-2.32,1.77-2.15,2.67-5.22,2.73-9.26a5.19,5.19,0,0,1,.2-1.85c.2-.44.67-1.13,2.18-1.13h7.51c1.65,0,2.35.75,2.35,2.37v9.87h.69c.85,0,.93-.15.93,1.91v3.22c0,1.31-.49,2-1.45,2-.66,0-1.36-.49-1.36-2Zm-2.64-2.81v-9.43h-4.9c-.12,4.15-.53,7-2.27,9.43Z"/><path d="M97,141.53c.09,2.88,1.8,4.36,3.89,4.36a5.11,5.11,0,0,0,3.65-1.72c.93-.92,1.22-1,1.77-1a1.23,1.23,0,0,1,1.28,1.13c0,1.68-2.53,4.18-6.62,4.18-5.25,0-7.89-3.28-7.89-7.86s2.82-7.86,7.57-7.86,7.14,3.42,7.14,6.52c0,1.4-.61,2.29-3.19,2.29Zm7-2.2c-.12-2.55-1.57-3.94-3.51-3.94s-3.22,1.3-3.54,3.94Z"/><path d="M118.38,133.09c4.21,0,7.11,3.37,7.11,7.55a7.57,7.57,0,0,1-7.8,7.8c-5,0-7.6-3.6-7.6-10.53s2.11-10.36,7.51-10.36h.4l1.63,0h.4a4.81,4.81,0,0,0,1.31-.11c.58-.18,1.36-1,2.29-1,.73,0,1.1.41,1.1,1.19,0,2.61-1.71,2.82-5.39,2.87-4.27.09-5.77.53-6.21,5.34A6.24,6.24,0,0,1,118.38,133.09Zm-4.38,7.6c0,3,1.68,4.88,3.8,4.88s3.77-2.15,3.77-4.85c0-2.87-1.71-4.73-3.71-4.73S114,137.76,114,140.69Z"/><path d="M132.24,138.75h6v-3.6c0-1.82.93-2.43,1.94-2.43s1.92.61,1.92,2.43V146c0,1.83-1,2.44-2,2.44s-1.88-.79-1.88-2.44v-4.44h-6V146c0,1.83-.92,2.44-1.94,2.44s-1.91-.61-1.91-2.44V135.15c0-1.74.89-2.43,2-2.43.9,0,1.88.61,1.88,2.43Z"/><path d="M149.64,138.78h4c4.2,0,6.44,1.62,6.44,4.58,0,2.44-1.57,4.73-6.44,4.73h-5.52c-1.65,0-2.35-.75-2.35-2.35V135.15c0-1.74.93-2.43,2-2.43.92,0,1.85.61,1.85,2.43Zm0,6.5h3.57c2.49,0,3-1,3-1.86,0-1.22-1-1.83-3-1.83h-3.57Zm16.68,0c0,2.11-.35,3.19-1.91,3.19s-1.95-1.08-1.95-3.19v-9.34c0-2.41.53-3.19,1.92-3.19,1.62,0,1.94,1.07,1.94,3.16Z"/><path d="M173.36,141.53c.09,2.88,1.8,4.36,3.89,4.36a5.13,5.13,0,0,0,3.66-1.72c.92-.92,1.21-1,1.77-1a1.22,1.22,0,0,1,1.27,1.13c0,1.68-2.52,4.18-6.61,4.18-5.25,0-7.89-3.28-7.89-7.86s2.81-7.86,7.57-7.86a6.73,6.73,0,0,1,7.13,6.52c0,1.4-.6,2.29-3.19,2.29Zm7-2.2c-.11-2.55-1.56-3.94-3.51-3.94s-3.22,1.3-3.54,3.94Z"/><path d="M65.88,170.65V180.8c0,1.83-.93,2.44-1.95,2.44s-1.88-.61-1.88-2.44V170.65H58.8c-1.31,0-2-.46-2-1.42,0-.67.49-1.39,2-1.39H69.16c1.3,0,2,.49,2,1.45,0,.66-.55,1.36-2,1.36Z"/><path d="M87.69,175.38c0,4.55-3,7.86-7.63,7.86-5,0-7.8-3.37-7.8-7.86s2.93-7.86,7.71-7.86S87.69,170.85,87.69,175.38Zm-3.92,0c0-3.14-1.48-5-3.8-5s-3.8,1.88-3.8,5,1.48,5,3.8,5S83.77,178.51,83.77,175.38Z"/><path d="M94.18,170.1a6.25,6.25,0,0,1,5-2.58c3.94,0,6.47,3.39,6.47,8,0,4.38-2.35,7.69-6.44,7.69a6.65,6.65,0,0,1-5.08-2.41v5c0,2.93-.84,3.1-1.91,3.1-1.43,0-2-.78-2-3.22V170.5c0-2.17.35-3,2-3,1.27,0,1.91.72,1.91,2.17Zm4,.38c-2.2,0-3.8,1.74-3.8,4.72s1.51,5.08,3.83,5.08c2.09,0,3.54-1.8,3.54-4.82C101.78,172.07,100.1,170.48,98.21,170.48Z"/><path d="M116,170.65V180.8c0,1.83-.93,2.44-2,2.44s-1.88-.61-1.88-2.44V170.65h-3.25c-1.3,0-2-.46-2-1.42,0-.67.49-1.39,2-1.39H119.3c1.3,0,2,.49,2,1.45,0,.66-.55,1.36-2,1.36Z"/><path d="M127.07,173.58h4c4.2,0,6.44,1.62,6.44,4.58,0,2.44-1.57,4.73-6.44,4.73h-5.51c-1.66,0-2.35-.75-2.35-2.35V170c0-1.74.93-2.43,2-2.43s1.86.61,1.86,2.43Zm0,6.5h3.56c2.5,0,3-1,3-1.86,0-1.22-1-1.83-3-1.83h-3.56Zm16.68,0c0,2.11-.35,3.19-1.92,3.19s-1.94-1.08-1.94-3.19v-9.34c0-2.41.52-3.19,1.91-3.19,1.63,0,1.95,1.07,1.95,3.16Z"/><line class="cls-5" x1="53.03" y1="42.99" x2="39.25" y2="45.42"/><line class="cls-5" x1="66.01" y1="68.71" x2="53.28" y2="81.44"/><line class="cls-5" x1="99.35" y1="81.08" x2="99.35" y2="103.08"/><line class="cls-5" x1="132.98" y1="68.52" x2="145.71" y2="81.25"/><line class="cls-5" x1="145.43" y1="43.94" x2="159.22" y2="46.37"/><path class="cls-5" d="M146.13,35.16q0,21.59-13.71,33.76A47.44,47.44,0,0,1,99.86,81.08q-19.53,0-33.41-12T52.57,35.16"/></g></g></svg>