<svg xmlns="http://www.w3.org/2000/svg" viewBox="0 0 204 204"><defs><style>.cls-1,.cls-5{fill:#fff;}.cls-1,.cls-2,.cls-7,.cls-8{stroke:#000;}.cls-1,.cls-2,.cls-8{stroke-miterlimit:10;}.cls-1,.cls-2{stroke-width:4px;}.cls-2,.cls-7,.cls-8{fill:none;}.cls-2,.cls-7{stroke-linecap:round;}.cls-3{fill:#ffefbe;}.cls-4{fill:#51bfb6;}.cls-6{fill:#af54a1;}.cls-7{stroke-linejoin:round;}.cls-7,.cls-8{stroke-width:2px;}</style></defs><title>Автомобили_1</title><g id="Категории"><rect class="cls-1" x="2" y="2" width="200" height="200" rx="20" ry="20"/><path class="cls-2" d="M160.55,42c0,27.64-26.49,50.06-59.16,50.06S42.23,69.64,42.23,42"/><line class="cls-2" x1="7.58" y1="42" x2="42.23" y2="42"/><line class="cls-2" x1="10.78" y1="62.62" x2="44.24" y2="55.03"/><line class="cls-2" x1="20.16" y1="81.83" x2="50.17" y2="67.17"/><line class="cls-2" x1="35.11" y1="98.34" x2="59.61" y2="77.61"/><line class="cls-2" x1="54.59" y1="111" x2="71.92" y2="85.62"/><line class="cls-2" x1="77.29" y1="118.97" x2="86.26" y2="90.66"/><line class="cls-2" x1="101.65" y1="121.7" x2="101.65" y2="92.39"/><line class="cls-2" x1="126.02" y1="119" x2="117.05" y2="90.69"/><line class="cls-2" x1="148.73" y1="111.06" x2="131.4" y2="85.67"/><line class="cls-2" x1="168.23" y1="98.41" x2="143.73" y2="77.68"/><line class="cls-2" x1="183.2" y1="81.93" x2="153.2" y2="67.27"/><line class="cls-2" x1="192.62" y1="62.72" x2="159.16" y2="55.14"/><line class="cls-2" x1="195.85" y1="42.11" x2="161.2" y2="42.11"/><path d="M36.87,145.48H29.62l-.85,2.25c-.72,1.87-.95,2.27-2,2.27A1.71,1.71,0,0,1,25,148.4a5.91,5.91,0,0,1,.5-1.87l4.6-11.63c.95-2.52,1.35-3.4,3.1-3.4a2.64,2.64,0,0,1,2.55,1.85l5.3,13.08a6,6,0,0,1,.53,1.92A1.78,1.78,0,0,1,39.82,150c-1.07,0-1.32-.38-2.07-2.32Zm-6.32-2.8h5.37l-2.72-7.35Z"/><path d="M56.47,146.3c0,1.88-1.37,3.4-4.4,3.4H45.92c-1.42,0-2-.65-2-2v-8.9c0-1.43.65-2.05,2-2.05h5.5c3.1,0,4.6,1.15,4.6,3.4a3,3,0,0,1-2.22,3A3.29,3.29,0,0,1,56.47,146.3Zm-9.25-4.17h2.35c2.83,0,3.25-.73,3.25-1.55s-.3-1.43-3.25-1.43H47.22Zm0,5.15h2.85c2.38,0,3-.5,3-1.45,0-1.33-1.15-1.63-4-1.63h-1.9Z"/><path d="M65.47,139.15v8.75c0,1.58-.8,2.1-1.67,2.1s-1.63-.52-1.63-2.1v-8.75h-2.8c-1.12,0-1.7-.4-1.7-1.22,0-.58.43-1.2,1.7-1.2H68.3c1.12,0,1.7.42,1.7,1.25,0,.57-.48,1.17-1.7,1.17Z"/><path d="M84.27,143.23c0,3.92-2.6,6.77-6.57,6.77-4.3,0-6.73-2.9-6.73-6.77s2.53-6.78,6.65-6.78S84.27,139.33,84.27,143.23Zm-3.37,0c0-2.7-1.28-4.3-3.28-4.3s-3.27,1.62-3.27,4.3,1.27,4.3,3.27,4.3S80.9,145.93,80.9,143.23Z"/><path d="M94.25,145.78l2.75-7.6a1.71,1.71,0,0,1,2-1.45h1c1.22,0,1.82.67,1.82,2.05v9.42q0,1.8-1.5,1.8c-.8,0-1.44-.58-1.44-1.8v-7l-2.63,7.12c-.57,1.53-1.3,1.7-2,1.7-1,0-1.5-.42-2-1.8l-2.5-7v7q0,1.8-1.5,1.8c-.7,0-1.45-.47-1.45-1.8v-9.42c0-1.38.6-2.05,1.83-2.05h1a1.74,1.74,0,0,1,2,1.45Z"/><path d="M117.54,143.23c0,3.92-2.59,6.77-6.57,6.77-4.3,0-6.72-2.9-6.72-6.77s2.52-6.78,6.65-6.78S117.54,139.33,117.54,143.23Zm-3.37,0c0-2.7-1.27-4.3-3.27-4.3s-3.28,1.62-3.28,4.3,1.28,4.3,3.28,4.3S114.17,145.93,114.17,143.23Z"/><path d="M126.5,136.78c3.62,0,6.12,2.9,6.12,6.5A6.53,6.53,0,0,1,125.9,150c-4.28,0-6.55-3.1-6.55-9.07s1.82-8.93,6.47-8.93h.35l1.4,0h.35a4.07,4.07,0,0,0,1.13-.1c.5-.15,1.17-.9,2-.9.62,0,.95.35.95,1,0,2.25-1.48,2.43-4.65,2.48-3.67.07-5,.45-5.35,4.6A5.39,5.39,0,0,1,126.5,136.78Zm-3.78,6.55c0,2.55,1.45,4.2,3.28,4.2s3.24-1.85,3.24-4.18-1.47-4.07-3.19-4.07S122.72,140.8,122.72,143.33Z"/><path d="M138.45,144.88l4.45-7c.8-1.25,1.37-1.38,2-1.38,1.35,0,2,.85,2,2.55v9c0,1.52-.8,2-1.68,2s-1.62-.52-1.62-2v-6.55l-4.52,7.22c-.73,1.18-1.2,1.38-1.93,1.38-1,0-2-.63-2-2.53v-9c0-1.53.8-2,1.68-2s1.65.55,1.65,2Z"/><path d="M154.7,139.15v6.13c0,3.52-1.18,4.64-3.5,4.64-1.8,0-2.73-.44-2.73-1.67,0-.77.43-1.15,1.25-1.15.28,0,.63.05.75.05.7,0,.93-.35.93-1.62v-6.78c0-1.4.57-2,2-2h7.47c1.43,0,2,.62,2,2.05v9.12c0,1.6-.82,2.1-1.7,2.1s-1.62-.52-1.62-2.1v-8.75Z"/><path d="M169.42,144.88l4.45-7c.8-1.25,1.37-1.38,2-1.38,1.35,0,2,.85,2,2.55v9c0,1.52-.8,2-1.67,2s-1.62-.52-1.62-2v-6.55l-4.53,7.22c-.72,1.18-1.2,1.38-1.92,1.38-1,0-2.05-.63-2.05-2.53v-9c0-1.53.8-2,1.67-2s1.65.55,1.65,2Z"/><path class="cls-3" d="M142.15,35.86a2.67,2.67,0,0,1-.48,4,5,5,0,0,1-3.1,1H133.5c-1.38-2.79-3-5.33-3-5.33,0-.57,0-1.1,0-1.53h5.88C137.88,34,141.24,34.64,142.15,35.86Z"/><path class="cls-4" d="M135.37,63.28V67.1a4.86,4.86,0,0,1-4.85,4.83h-5.4a4.86,4.86,0,0,1-4.85-4.83V63.28Z"/><path class="cls-5" d="M69.28,40.87a47.15,47.15,0,0,1,2.61-4.41c.07,4,5.59,4.41,5.59,4.41h50c2.4-.21,3-3.1,3.06-5.33,0,0,1.63,2.54,3,5.33,1,2,1.87,4.18,1.87,5.58V63.28H67.19V46.67A18.3,18.3,0,0,1,69.28,40.87ZM130,49.41c0-6.2-17-6.76-15.76,2.4C115.67,62.47,130,55.39,130,49.41Zm-41.68,2.4c1.23-9.16-15.75-7.65-15.75-2.4C72.57,55.22,86.9,62.47,88.32,51.81Z"/><path class="cls-5" d="M71.89,36.46v-.07A12.38,12.38,0,0,1,72.27,34c1-4.35,3.87-12.37,6.21-14.71,4.67-4.67,13.86-5.37,22.91-5.37s15.47,0,19.33,3c7.34,5.73,9.67,16,9.67,16s.06.42.09,1.08c0,.43,0,1,0,1.53-.08,2.23-.66,5.12-3.06,5.33H77.48s-5.52-.44-5.59-4.41Z"/><path class="cls-6" d="M114.24,51.81C113,42.65,130,43.21,130,49.41,130,55.39,115.67,62.47,114.24,51.81Z"/><path class="cls-6" d="M72.57,49.41c0-5.25,17-6.76,15.75,2.4C86.9,62.47,72.57,55.22,72.57,49.41Z"/><path class="cls-4" d="M82.17,63.28V67.1a4.85,4.85,0,0,1-4.84,4.83H72a4.85,4.85,0,0,1-4.84-4.83V63.28Z"/><path class="cls-3" d="M66.41,34h5.86a12.38,12.38,0,0,0-.38,2.38v.07h0a47.15,47.15,0,0,0-2.61,4.41H64.21a5,5,0,0,1-3.1-1,2.66,2.66,0,0,1-.48-4C61.54,34.64,64.9,34,66.41,34Z"/><path class="cls-7" d="M130.49,35.54c0-.57,0-1.1,0-1.53"/><path class="cls-8" d="M71.89,36.46c.07,4,5.59,4.41,5.59,4.41h50c2.4-.21,3-3.1,3.06-5.33"/><path class="cls-8" d="M130.48,34c0-.66-.09-1.08-.09-1.08s-2.33-10.25-9.67-16c-3.86-3-10.17-3-19.33-3s-18.24.7-22.91,5.37C76.14,21.64,73.29,29.66,72.27,34a12.38,12.38,0,0,0-.38,2.38v.07"/><path class="cls-7" d="M135.37,63.28V46.45c0-1.4-.88-3.56-1.87-5.58-1.38-2.79-3-5.33-3-5.33"/><line class="cls-7" x1="82.17" y1="63.28" x2="120.27" y2="63.28"/><path class="cls-7" d="M71.89,36.46a47.15,47.15,0,0,0-2.61,4.41,18.3,18.3,0,0,0-2.09,5.8V63.28"/><path class="cls-8" d="M71.89,36.46h0"/><path class="cls-7" d="M71.94,36.39l0,.07"/><path class="cls-8" d="M82.17,63.28V67.1a4.85,4.85,0,0,1-4.84,4.83H72a4.85,4.85,0,0,1-4.84-4.83V63.28Z"/><path class="cls-8" d="M120.27,63.28V67.1a4.86,4.86,0,0,0,4.85,4.83h5.4a4.86,4.86,0,0,0,4.85-4.83V63.28Z"/><path class="cls-8" d="M130,49.41c0-6.2-17-6.76-15.76,2.4C115.67,62.47,130,55.39,130,49.41Z"/><path class="cls-8" d="M72.57,49.41c0-5.25,17-6.76,15.75,2.4C86.9,62.47,72.57,55.22,72.57,49.41Z"/><path class="cls-8" d="M72.27,34H66.41c-1.51,0-4.87.63-5.78,1.85a2.66,2.66,0,0,0,.48,4,5,5,0,0,0,3.1,1h5.08"/><path class="cls-8" d="M130.51,34h5.85c1.52,0,4.88.63,5.79,1.85a2.67,2.67,0,0,1-.48,4,5,5,0,0,1-3.1,1h-5.09"/></g></svg>