<svg xmlns="http://www.w3.org/2000/svg" viewBox="0 0 104 104"><defs><style>.cls-1,.cls-2{fill:#fff;}.cls-1,.cls-7,.cls-8,.cls-9{stroke:#000;stroke-miterlimit:10;}.cls-1{stroke-width:4px;}.cls-3{fill:#ffefbe;}.cls-4{fill:#b1b5dd;}.cls-5{fill:#51bfb6;}.cls-6{fill:#af54a1;}.cls-7,.cls-8,.cls-9{fill:none;}.cls-8,.cls-9{stroke-width:2px;}.cls-9{stroke-linecap:round;}</style></defs><title>Оформление свадеб</title><g id="Пиктограммы"><rect class="cls-1" x="2" y="2" width="100" height="100"/><path class="cls-2" d="M91,84.88c2.85.6,4.84,2,4.84,3.57,0,2.16-3.61,3.91-8.07,3.91s-8.06-1.75-8.06-3.91c0-1.61,2-3,4.93-3.59h0a4.14,4.14,0,0,0,6.35,0Z"/><path class="cls-2" d="M92,43V82.2a4.16,4.16,0,0,1-8.31,0V43A4.16,4.16,0,0,1,92,43Z"/><path class="cls-2" d="M87.81,30.52a4.14,4.14,0,1,1-4.13,4.13A4.13,4.13,0,0,1,87.81,30.52Z"/><path class="cls-3" d="M80.18,37.59a1.93,1.93,0,0,1-1.11,3.21l-.24,0a1.82,1.82,0,0,0-1.41,1L77.3,42a1.78,1.78,0,0,1-2.39.81,1.83,1.83,0,0,1-.86-.93l-.1-.23a1.81,1.81,0,0,0-1.33-1.08l-.25-.06a1.05,1.05,0,0,1-.24-.06,1.89,1.89,0,0,1,1.27-.78l.25,0a1.82,1.82,0,0,0,1.13-.61,1.6,1.6,0,1,0,1-2.85,1.51,1.51,0,0,0-1,.34.49.49,0,0,0-.12-.13l-.18-.18A1.91,1.91,0,0,1,74,34.57l0-.26a1.85,1.85,0,0,0-.22-1.26,1.63,1.63,0,0,1,1.12.23l.22.13a1.75,1.75,0,0,0,1.69.06l0,0,.18-.09a1.78,1.78,0,0,1,1.35-.11,1.9,1.9,0,0,1,1.22,2.2l0,.25A2,2,0,0,0,80,37.4Z"/><path class="cls-4" d="M76.85,33.45l0,0a1.75,1.75,0,0,1-1.69-.06l-.22-.13a1.63,1.63,0,0,0-1.12-.23,1.87,1.87,0,0,0-2.52-.74l-.22.12a2,2,0,0,1-1.76,0l-.22-.12,0,0v0a.49.49,0,0,0,0-.12L69,31.89a1.89,1.89,0,0,1,2.74-2l.22.12a1.89,1.89,0,0,0,1.76,0l.22-.12a1.89,1.89,0,0,1,2.71,1.21,2.13,2.13,0,0,1,0,.8l0,.25A1.93,1.93,0,0,0,76.85,33.45Z"/><path class="cls-5" d="M74.81,36.55a1.9,1.9,0,0,1,0,2.51,1.82,1.82,0,0,1-1.13.61l-.25,0a1.89,1.89,0,0,0-1.27.78,2.07,2.07,0,0,0-.15.25l-.11.24a1.88,1.88,0,0,1-3.18.33,2.66,2.66,0,0,1-.21-.33l-.11-.24a1.86,1.86,0,0,0-1.42-1l-.25,0a1.9,1.9,0,0,1-1-3.25l.18-.18a1.88,1.88,0,0,0,.54-1.67l0-.26a1.89,1.89,0,0,1,2.69-2l0,0,.22.12a2,2,0,0,0,1.76,0l.22-.12a1.87,1.87,0,0,1,2.52.74A1.85,1.85,0,0,1,74,34.31l0,.26a1.91,1.91,0,0,0,.54,1.67l.18.18A.49.49,0,0,1,74.81,36.55Zm-3.17.18a1.58,1.58,0,1,0-1.58,1.6A1.59,1.59,0,0,0,71.64,36.73Z"/><path class="cls-2" d="M73.33,84.87a2,2,0,0,1-1.72,2.91h-40a2,2,0,0,1-1.7-3l12.4-21.22a2,2,0,0,1,1.7-1H60a2,2,0,0,1,1.73,1Z"/><path class="cls-6" d="M66.2,19c0,8-9.7,15.44-13.32,17l-2.15,0c-3.68-1.62-13.25-9.06-13.25-17,0-6.56,6.46-11.75,14.36-6.95C59.74,7.29,66.2,12.48,66.2,19Z"/><path d="M52.88,36l1,2.61H49.68l1-2.65a3.05,3.05,0,0,0,1.11.33A3,3,0,0,0,52.88,36Z"/><path d="M50.73,36l2.15,0a3,3,0,0,1-1,.29A3.05,3.05,0,0,1,50.73,36Z"/><path class="cls-5" d="M37.06,35.67A1.9,1.9,0,0,1,36,38.91l-.25,0a1.91,1.91,0,0,0-1.42,1l-.11.23a1.33,1.33,0,0,1-.22.34,1.87,1.87,0,0,1-3.16-.34L30.74,40a2.07,2.07,0,0,0-.15-.25A1.87,1.87,0,0,0,29.32,39l-.26,0a1.84,1.84,0,0,1-1.13-.6,1.91,1.91,0,0,1,0-2.51l.11-.13.18-.18a1.9,1.9,0,0,0,.54-1.68l0-.25a1.87,1.87,0,0,1,.21-1.27h0a1.87,1.87,0,0,1,2.51-.74l.23.13a1.87,1.87,0,0,0,1.75,0l.24-.13.05,0a1.88,1.88,0,0,1,2.68,2l0,.25a1.9,1.9,0,0,0,.54,1.68Zm-2.82.3a1.59,1.59,0,1,0-1.58,1.61A1.59,1.59,0,0,0,34.24,36Z"/><path class="cls-4" d="M31,29.13a1.88,1.88,0,0,1,2.73,2l0,.25c0,.05,0,.09,0,.14h0l-.05,0-.24.13a1.87,1.87,0,0,1-1.75,0l-.23-.13a1.87,1.87,0,0,0-2.51.74h0a1.72,1.72,0,0,0-1.11.24l-.21.13a1.72,1.72,0,0,1-1.69.05h0a2,2,0,0,0,.26-1.32l0-.25a1.87,1.87,0,0,1,2.73-2l.23.12a1.87,1.87,0,0,0,1.75,0Z"/><path class="cls-3" d="M25.86,32.7h0a1.72,1.72,0,0,0,1.69-.05l.21-.13a1.72,1.72,0,0,1,1.11-.24,1.87,1.87,0,0,0-.21,1.27l0,.25a1.9,1.9,0,0,1-.54,1.68l-.18.18-.11.13h0a1.56,1.56,0,0,0-1-.33,1.61,1.61,0,0,0,0,3.21,1.53,1.53,0,0,0,1-.36,1.84,1.84,0,0,0,1.13.6l.26,0a1.87,1.87,0,0,1,1.27.79l-.25.07-.24,0a1.81,1.81,0,0,0-1.33,1.09l-.1.23a1.84,1.84,0,0,1-.87.93,1.78,1.78,0,0,1-2.39-.81l-.12-.22a1.78,1.78,0,0,0-1.4-1l-.24,0a1.92,1.92,0,0,1-1.12-3.2l.17-.18A1.92,1.92,0,0,0,23.16,35l0-.25a1.89,1.89,0,0,1,1.22-2.19,1.63,1.63,0,0,1,1.34.1Z"/><path class="cls-2" d="M19,84.88c2.85.6,4.84,2,4.84,3.57,0,2.16-3.61,3.91-8.06,3.91s-8.06-1.75-8.06-3.91c0-1.61,2-3,4.92-3.59h0a4.14,4.14,0,0,0,6.35,0Z"/><path class="cls-2" d="M19,84.88a4.16,4.16,0,0,1-7.32-2.68V43A4.16,4.16,0,1,1,20,43V82.2A4.12,4.12,0,0,1,19,84.88Z"/><path class="cls-2" d="M15.83,30.52a4.14,4.14,0,1,1-4.14,4.13A4.13,4.13,0,0,1,15.83,30.52Z"/><path class="cls-7" d="M25.86,32.7h0a2,2,0,0,0,.26-1.32l0-.25a1.87,1.87,0,0,1,2.73-2l.23.12a1.87,1.87,0,0,0,1.75,0l.23-.12a1.88,1.88,0,0,1,2.73,2l0,.25c0,.05,0,.09,0,.14"/><path class="cls-7" d="M30.59,39.74l-.25.07-.24,0a1.81,1.81,0,0,0-1.33,1.09l-.1.23a1.84,1.84,0,0,1-.87.93,1.78,1.78,0,0,1-2.39-.81l-.12-.22a1.78,1.78,0,0,0-1.4-1l-.24,0a1.92,1.92,0,0,1-1.12-3.2l.17-.18A1.92,1.92,0,0,0,23.16,35l0-.25a1.89,1.89,0,0,1,1.22-2.19,1.63,1.63,0,0,1,1.34.1l.18.09h0a1.72,1.72,0,0,0,1.69-.05l.21-.13a1.72,1.72,0,0,1,1.11-.24"/><path class="cls-7" d="M28.92,32.29a1.87,1.87,0,0,1,2.51-.74l.23.13a1.87,1.87,0,0,0,1.75,0l.24-.13.05,0a1.88,1.88,0,0,1,2.68,2l0,.25a1.9,1.9,0,0,0,.54,1.68l.18.18A1.9,1.9,0,0,1,36,38.91l-.25,0a1.91,1.91,0,0,0-1.42,1l-.11.23a1.33,1.33,0,0,1-.22.34,1.87,1.87,0,0,1-3.16-.34L30.74,40a2.07,2.07,0,0,0-.15-.25A1.87,1.87,0,0,0,29.32,39l-.26,0a1.84,1.84,0,0,1-1.13-.6,1.91,1.91,0,0,1,0-2.51l.11-.13.18-.18a1.9,1.9,0,0,0,.54-1.68l0-.25a1.87,1.87,0,0,1,.21-1.27Z"/><path class="cls-7" d="M27.93,38.31a1.53,1.53,0,0,1-1,.36,1.61,1.61,0,0,1,0-3.21,1.56,1.56,0,0,1,1,.33"/><path class="cls-7" d="M34.24,36a1.59,1.59,0,1,1-1.58-1.6A1.6,1.6,0,0,1,34.24,36Z"/><path class="cls-7" d="M26.1,30.34a6.49,6.49,0,0,0-3.16-1.05.15.15,0,0,0-.11.26,5.93,5.93,0,0,1,1.51,3"/><path class="cls-7" d="M30.1,39.85c1.78,2.08,1.09,5.6.68,7.08,0,0,0,.08,0,.12a.17.17,0,0,1-.14.12.16.16,0,0,1-.15-.13c0-.07,0-.14,0-.21-.34-1.54-1.23-4.77-2.62-4.73"/><path class="cls-7" d="M30.73,47.11l.21-.13A7.53,7.53,0,0,0,34,40.56"/><path class="cls-7" d="M30.62,47.17a5.46,5.46,0,0,0,.8-.05c2.59-.22,5.52-1.61,6.28-5.06.55-2.54,1.09-5.51,2.56-8a.17.17,0,0,0-.08-.24c-1.61-.53-3.3,1.62-3.3,1.62"/><path class="cls-7" d="M76.85,33.45a1.93,1.93,0,0,1-.26-1.31l0-.25a2.13,2.13,0,0,0,0-.8,1.89,1.89,0,0,0-2.71-1.21l-.22.12a1.89,1.89,0,0,1-1.76,0l-.22-.12a1.89,1.89,0,0,0-2.74,2l.05.25a.49.49,0,0,1,0,.12"/><path class="cls-7" d="M72.13,40.49a1.05,1.05,0,0,0,.24.06l.25.06A1.81,1.81,0,0,1,74,41.69l.1.23a1.83,1.83,0,0,0,.86.93A1.78,1.78,0,0,0,77.3,42l.12-.23a1.82,1.82,0,0,1,1.41-1l.24,0a1.93,1.93,0,0,0,1.11-3.21L80,37.4a2,2,0,0,1-.46-1.7l0-.25a1.9,1.9,0,0,0-1.22-2.2,1.78,1.78,0,0,0-1.35.11l-.18.09,0,0a1.75,1.75,0,0,1-1.69-.06l-.22-.13a1.63,1.63,0,0,0-1.12-.23"/><path class="cls-7" d="M73.79,33.05a1.87,1.87,0,0,0-2.52-.74l-.22.12a2,2,0,0,1-1.76,0l-.22-.12,0,0a1.89,1.89,0,0,0-2.69,2l0,.26a1.88,1.88,0,0,1-.54,1.67l-.18.18a1.9,1.9,0,0,0,1,3.25l.25,0a1.86,1.86,0,0,1,1.42,1l.11.24a2.66,2.66,0,0,0,.21.33A1.88,1.88,0,0,0,71.87,41l.11-.24a2.07,2.07,0,0,1,.15-.25,1.89,1.89,0,0,1,1.27-.78l.25,0a1.82,1.82,0,0,0,1.13-.61,1.9,1.9,0,0,0,0-2.51.49.49,0,0,0-.12-.13l-.18-.18A1.91,1.91,0,0,1,74,34.57l0-.26A1.85,1.85,0,0,0,73.79,33.05Z"/><path class="cls-7" d="M74.78,39.06a1.6,1.6,0,1,0,1-2.85,1.51,1.51,0,0,0-1,.34"/><ellipse class="cls-7" cx="70.06" cy="36.73" rx="1.58" ry="1.6"/><path class="cls-7" d="M76.61,31.09a6.48,6.48,0,0,1,3.16-1,.15.15,0,0,1,.12.25,6,6,0,0,0-1.51,2.95"/><path class="cls-7" d="M72.62,40.61c-1.74,2-1.13,5.43-.73,7l.06.23,0,.06a.12.12,0,0,0,.1,0,.14.14,0,0,0,.15-.11c0-.1,0-.22.07-.34.37-1.58,1.24-4.65,2.6-4.6"/><path class="cls-7" d="M72,47.87a3,3,0,0,1-.32-.23,7.44,7.44,0,0,1-3-6.33"/><path class="cls-7" d="M72.09,47.91a6.85,6.85,0,0,1-1.1-.07,6.51,6.51,0,0,1-6-5c-.56-2.55-1.1-5.53-2.57-8a.16.16,0,0,1,.09-.23c1.61-.54,3.3,1.61,3.3,1.61"/><path class="cls-8" d="M20,34.65a4.14,4.14,0,1,1-4.14-4.13A4.15,4.15,0,0,1,20,34.65Z"/><path class="cls-8" d="M19,84.88a4.16,4.16,0,0,1-7.32-2.68V43A4.16,4.16,0,1,1,20,43V82.2A4.12,4.12,0,0,1,19,84.88Z"/><path class="cls-8" d="M18.93,84.86l.08,0c2.85.6,4.84,2,4.84,3.57,0,2.16-3.61,3.91-8.06,3.91s-8.06-1.75-8.06-3.91c0-1.61,2-3,4.92-3.59"/><path class="cls-8" d="M92,34.65a4.14,4.14,0,1,1-4.14-4.13A4.15,4.15,0,0,1,92,34.65Z"/><path class="cls-8" d="M91,84.88a4.16,4.16,0,0,1-7.32-2.68V43A4.16,4.16,0,0,1,92,43V82.2A4.12,4.12,0,0,1,91,84.88Z"/><path class="cls-8" d="M91,84.88c2.85.6,4.84,2,4.84,3.57,0,2.16-3.61,3.91-8.07,3.91s-8.06-1.75-8.06-3.91c0-1.61,2-3,4.93-3.59"/><path class="cls-8" d="M44,62.62H60a2,2,0,0,1,1.73,1L73.33,84.87a2,2,0,0,1-1.72,2.91h-40a2,2,0,0,1-1.7-3l12.4-21.22A2,2,0,0,1,44,62.62Z"/><path class="cls-8" d="M20,43a103.2,103.2,0,0,0,10.42,3.79l.36.1.16,0,.48.14c6,1.78,13.48,3.46,20.56,3.46a70.77,70.77,0,0,0,19-2.74c.23-.06.46-.12.68-.2a.66.66,0,0,0,.22-.06l.42-.12A67.32,67.32,0,0,0,83.68,43"/><path class="cls-8" d="M52.88,36C56.5,34.48,66.2,27,66.2,19c0-6.56-6.46-11.75-14.36-6.95-7.9-4.8-14.36.39-14.36,7,0,7.89,9.57,15.33,13.25,17"/><path class="cls-9" d="M51.84,38.64l-.37,1.22a6.06,6.06,0,0,0,.18,4l.51,1.22a4.72,4.72,0,0,1,.16,3.08l-.48,1.67"/></g></svg>