<svg xmlns="http://www.w3.org/2000/svg" viewBox="0 0 200 200"><defs><style>.cls-1{fill:#fff;}.cls-2,.cls-7,.cls-8,.cls-9{fill:none;stroke:#000;stroke-miterlimit:10;}.cls-2,.cls-9{stroke-linecap:round;}.cls-2{stroke-width:4px;}.cls-3{fill:#ffefbe;}.cls-4{fill:#b1b5dd;}.cls-5{fill:#51bfb6;}.cls-6{fill:#af54a1;}.cls-8,.cls-9{stroke-width:2px;}</style></defs><title>Оформление и украшение</title><g id="Категории"><rect class="cls-1" x="2" y="2" width="196" height="196" rx="18" ry="18"/><path d="M180,4a16,16,0,0,1,16,16V180a16,16,0,0,1-16,16H20A16,16,0,0,1,4,180V20A16,16,0,0,1,20,4H180m0-4H20A20.06,20.06,0,0,0,0,20V180a20.06,20.06,0,0,0,20,20H180a20.06,20.06,0,0,0,20-20V20A20.06,20.06,0,0,0,180,0Z"/><path class="cls-2" d="M158.55,40c0,27.64-26.49,50.06-59.16,50.06S40.23,67.64,40.23,40"/><line class="cls-2" x1="5.58" y1="40" x2="40.23" y2="40"/><line class="cls-2" x1="8.78" y1="60.62" x2="42.24" y2="53.03"/><line class="cls-2" x1="18.16" y1="79.83" x2="48.17" y2="65.17"/><line class="cls-2" x1="33.11" y1="96.34" x2="57.61" y2="75.61"/><line class="cls-2" x1="52.59" y1="109" x2="69.92" y2="83.62"/><line class="cls-2" x1="75.29" y1="116.97" x2="84.26" y2="88.66"/><line class="cls-2" x1="99.65" y1="119.7" x2="99.65" y2="90.39"/><line class="cls-2" x1="124.02" y1="117" x2="115.05" y2="88.69"/><line class="cls-2" x1="146.73" y1="109.06" x2="129.4" y2="83.67"/><line class="cls-2" x1="166.23" y1="96.41" x2="141.73" y2="75.68"/><line class="cls-2" x1="181.2" y1="79.93" x2="151.2" y2="65.27"/><line class="cls-2" x1="190.62" y1="60.72" x2="157.16" y2="53.14"/><line class="cls-2" x1="193.85" y1="40.11" x2="159.2" y2="40.11"/><path d="M29.67,129.5c5.52,0,8.47,3.65,8.47,8.85s-2.91,8.91-8.38,8.91-8.42-3.65-8.42-8.81C21.34,133,24.43,129.5,29.67,129.5Zm.07,2.76c-2.86,0-4.87,2.06-4.87,6.12s2.13,6.12,4.84,6.12,4.9-2,4.9-6.12C34.61,134.63,32.81,132.26,29.74,132.26Z"/><path d="M51.24,136.1a3.88,3.88,0,0,1,3.36-1.85c2.69,0,4.56,3,4.56,6.58s-2.16,6.43-4.8,6.43a3.85,3.85,0,0,1-3.12-1.75V150c0,1.46-.79,2-1.63,2s-1.56-.63-1.56-2v-4.51a4.29,4.29,0,0,1-3.31,1.75c-2.67,0-4.63-2.83-4.63-6.55s2.44-6.46,4.75-6.46A3.84,3.84,0,0,1,48.05,136v-4.52c0-1.51.77-2,1.63-2s1.56.65,1.56,2Zm-5.45.6c-1.32,0-2.44,1.61-2.44,4.08,0,2.21,1,4.06,2.4,4.06s2.3-1.66,2.3-4.18S47,136.7,45.79,136.7Zm7.71,0c-1.27,0-2.26,1.7-2.26,4.2,0,2.3,1,3.94,2.28,3.94s2.4-1.85,2.4-4S55,136.7,53.5,136.7Z"/><path d="M73.66,140.75c0,3.77-2.5,6.51-6.31,6.51-4.13,0-6.46-2.78-6.46-6.51s2.42-6.5,6.38-6.5S73.66,137,73.66,140.75Zm-3.24,0c0-2.59-1.23-4.12-3.15-4.12s-3.14,1.56-3.14,4.12,1.22,4.13,3.14,4.13S70.42,143.35,70.42,140.75Z"/><path d="M79,136.39a5.16,5.16,0,0,1,4.18-2.14c3.27,0,5.35,2.81,5.35,6.65,0,3.62-1.94,6.36-5.33,6.36a5.53,5.53,0,0,1-4.2-2v4.17c0,2.43-.69,2.57-1.58,2.57-1.18,0-1.61-.65-1.61-2.66V136.72c0-1.8.29-2.47,1.61-2.47,1.06,0,1.58.6,1.58,1.8Zm3.34.31c-1.82,0-3.14,1.44-3.14,3.91s1.24,4.2,3.16,4.2c1.73,0,2.93-1.49,2.93-4C85.32,138,83.93,136.7,82.37,136.7Z"/><path d="M98.23,143.2l2.64-7.29c.39-1.16.87-1.4,1.9-1.4h.91c1.18,0,1.75.65,1.75,2v9.05c0,1.15-.47,1.73-1.44,1.73-.76,0-1.39-.55-1.39-1.73v-6.74l-2.52,6.84c-.55,1.46-1.25,1.63-1.89,1.63-.92,0-1.44-.41-1.9-1.73l-2.4-6.74v6.74c0,1.15-.48,1.73-1.44,1.73-.67,0-1.39-.46-1.39-1.73v-9.05c0-1.32.57-2,1.75-2h.91c1.13,0,1.54.32,1.92,1.4Z"/><path d="M112.87,136.84v5.88c0,3.39-1.12,4.47-3.36,4.47-1.72,0-2.61-.43-2.61-1.61,0-.74.41-1.1,1.2-1.1.26,0,.6,0,.72,0,.67,0,.89-.33.89-1.56v-6.5c0-1.35.55-2,1.92-2h7.17c1.37,0,1.92.6,1.92,2v8.76c0,1.54-.79,2-1.63,2s-1.56-.5-1.56-2v-8.4Z"/><path d="M126.58,141.55c.07,2.37,1.48,3.6,3.21,3.6a4.26,4.26,0,0,0,3-1.42c.77-.77,1-.86,1.46-.86a1,1,0,0,1,1.06.93c0,1.4-2.09,3.46-5.47,3.46-4.35,0-6.53-2.71-6.53-6.51s2.33-6.5,6.26-6.5a5.58,5.58,0,0,1,5.91,5.4c0,1.15-.51,1.9-2.64,1.9Zm5.83-1.83c-.1-2.11-1.3-3.26-2.9-3.26s-2.67,1.08-2.93,3.26Z"/><path d="M141.27,139.24h4.94v-3c0-1.52.77-2,1.61-2s1.58.5,1.58,2v9c0,1.52-.79,2-1.63,2s-1.56-.65-1.56-2v-3.67h-4.94v3.67c0,1.52-.77,2-1.61,2s-1.59-.5-1.59-2v-9c0-1.44.75-2,1.64-2,.74,0,1.56.5,1.56,2Z"/><path d="M155.66,142.34l4.28-6.77c.77-1.2,1.32-1.32,1.92-1.32,1.29,0,1.94.82,1.94,2.45v8.62c0,1.46-.77,1.94-1.61,1.94s-1.56-.5-1.56-1.94V139L156.29,146c-.7,1.13-1.15,1.32-1.85,1.32-1,0-2-.6-2-2.42v-8.67c0-1.46.77-1.94,1.61-1.94s1.58.53,1.58,1.94Z"/><path d="M169.66,141.55c.07,2.37,1.48,3.6,3.21,3.6a4.26,4.26,0,0,0,3-1.42c.76-.77,1-.86,1.46-.86a1,1,0,0,1,1.06.93c0,1.4-2.09,3.46-5.47,3.46-4.35,0-6.53-2.71-6.53-6.51s2.32-6.5,6.26-6.5a5.58,5.58,0,0,1,5.91,5.4c0,1.15-.51,1.9-2.64,1.9Zm5.83-1.83c-.1-2.11-1.3-3.26-2.91-3.26s-2.66,1.08-2.92,3.26Z"/><path d="M28,172.84l4.27-6.77c.77-1.2,1.33-1.32,1.92-1.32,1.3,0,2,.82,2,2.45v8.62c0,1.46-.77,1.94-1.61,1.94s-1.56-.5-1.56-1.94v-6.29l-4.34,6.93c-.7,1.13-1.16,1.32-1.85,1.32-1,0-2-.6-2-2.42v-8.67c0-1.46.77-1.94,1.61-1.94s1.58.53,1.58,1.94Z"/><path d="M52.54,168.9l2.78-7.32c.41-1.05,1-1.58,1.87-1.58a1.38,1.38,0,0,1,1.54,1.29,3.28,3.28,0,0,1-.31,1.3l-4.49,10.49c-1.18,2.88-2.38,4.68-4.87,4.68-1.44,0-2.16-.5-2.16-1.49A1.24,1.24,0,0,1,48.19,175h.51c.74,0,1.44.12,2.37-2.49l-5.06-10a2,2,0,0,1-.27-.89A1.6,1.6,0,0,1,47.4,160c.82,0,1.3.29,1.83,1.46Z"/><path d="M59.31,166.74c0-1.32.55-2,1.63-2,.77,0,1.56.53,1.56,2v3.36c.84,0,1.1-.24,1.82-2.28.94-2.59,2-2.88,3.39-2.88,1.7,0,1.85.6,1.85,1.15s-.44,1.06-1.33,1.08c-1.12.05-1.22.29-1.7,1.8A3,3,0,0,1,65,171.09a5,5,0,0,1,2.69,2.78l.69,1.37a2.8,2.8,0,0,1,.41,1.22,1.34,1.34,0,0,1-1.49,1.3c-.91,0-1.36-.43-1.89-1.66l-1-2.23c-.57-1.32-1-1.68-1.89-1.7v3.57c0,1.35-.53,2-1.61,2-.89,0-1.58-.65-1.58-2Z"/><path d="M74.71,166.89a5.16,5.16,0,0,1,4.18-2.14c3.26,0,5.35,2.81,5.35,6.65,0,3.62-1.94,6.36-5.33,6.36a5.53,5.53,0,0,1-4.2-2v4.17c0,2.43-.69,2.57-1.58,2.57-1.18,0-1.61-.65-1.61-2.66V167.22c0-1.8.29-2.47,1.61-2.47,1.06,0,1.58.6,1.58,1.8Zm3.34.31c-1.82,0-3.15,1.44-3.15,3.91s1.25,4.2,3.17,4.2c1.73,0,2.93-1.49,2.93-4C81,168.52,79.61,167.2,78.05,167.2Z"/><path d="M90.46,177.76c-2.76,0-4.3-1.61-4.3-3.62,0-3.8,4.39-3.51,8.55-4.73,0-1.92-.75-2.48-2.28-2.48s-2.43.41-2.86,1.23-.77,1.27-1.51,1.27a1.28,1.28,0,0,1-1.32-1.2c0-1.58,1.68-3.48,5.59-3.48s5.57,1,5.57,5.11l-.07,3a21.52,21.52,0,0,0,.62,3.63A1.43,1.43,0,0,1,97,177.76c-.65,0-1.32-.6-2-1.8A7.31,7.31,0,0,1,90.46,177.76ZM92.35,172c-2.13.43-3,.84-3,2a1.85,1.85,0,0,0,2.09,1.75,3.55,3.55,0,0,0,2-.57c1.24-.82,1.34-1.64,1.34-3.77A14,14,0,0,1,92.35,172Z"/><path d="M104.19,175.14h3.6v-8.37c0-1.52.76-2,1.6-2s1.56.5,1.56,2v8.37h3.58v-8.37c0-1.52.79-2,1.63-2s1.56.5,1.56,2v8.76c0,1.41-.57,1.94-1.94,1.94H102.94c-1.37,0-2-.62-2-1.94v-8.76c0-1.44.75-2,1.64-2s1.56.5,1.56,2Z"/><path d="M123.58,172.05c.07,2.37,1.48,3.6,3.21,3.6a4.26,4.26,0,0,0,3-1.42c.76-.77,1-.86,1.46-.86a1,1,0,0,1,1.06.93c0,1.4-2.09,3.46-5.47,3.46-4.35,0-6.53-2.71-6.53-6.51s2.32-6.5,6.26-6.5a5.58,5.58,0,0,1,5.91,5.4c0,1.15-.51,1.9-2.64,1.9Zm5.83-1.83c-.1-2.11-1.3-3.26-2.91-3.26s-2.66,1.08-2.92,3.26Z"/><path d="M138.26,169.74h5v-3c0-1.52.77-2,1.61-2s1.58.5,1.58,2v9c0,1.52-.79,2-1.63,2s-1.56-.65-1.56-2v-3.67h-5v3.67c0,1.52-.76,2-1.6,2s-1.59-.5-1.59-2v-9c0-1.44.75-2,1.63-2s1.56.5,1.56,2Z"/><path d="M152.66,172.84l4.28-6.77c.76-1.2,1.32-1.32,1.92-1.32,1.29,0,1.94.82,1.94,2.45v8.62c0,1.46-.77,1.94-1.61,1.94s-1.56-.5-1.56-1.94v-6.29l-4.34,6.93c-.7,1.13-1.15,1.32-1.85,1.32-1,0-2-.6-2-2.42v-8.67c0-1.46.77-1.94,1.61-1.94s1.58.53,1.58,1.94Z"/><path d="M166.65,172.05c.08,2.37,1.49,3.6,3.22,3.6a4.26,4.26,0,0,0,3-1.42c.76-.77,1-.86,1.46-.86a1,1,0,0,1,1.06.93c0,1.4-2.09,3.46-5.48,3.46-4.34,0-6.53-2.71-6.53-6.51s2.33-6.5,6.27-6.5a5.57,5.57,0,0,1,5.9,5.4c0,1.15-.5,1.9-2.64,1.9Zm5.84-1.83c-.1-2.11-1.3-3.26-2.91-3.26s-2.66,1.08-2.93,3.26Z"/><path class="cls-1" d="M127.08,64.65c2,.43,3.41,1.4,3.41,2.53,0,1.52-2.55,2.75-5.69,2.75s-5.69-1.23-5.69-2.75c0-1.14,1.43-2.12,3.48-2.54h0a2.91,2.91,0,0,0,4.49,0Z"/><path class="cls-1" d="M127.78,35.11V62.76a2.94,2.94,0,0,1-5.87,0V35.11a2.94,2.94,0,0,1,2.93-2.94,3,3,0,0,1,2.94,2.94Z"/><path class="cls-1" d="M124.83,26.26a2.93,2.93,0,1,1-2.92,2.92A2.92,2.92,0,0,1,124.83,26.26Z"/><path class="cls-3" d="M119.44,31.26a1.35,1.35,0,0,1-.79,2.26l-.17,0a1.29,1.29,0,0,0-1,.7l-.08.16a1.26,1.26,0,0,1-2.3-.08l-.07-.17a1.33,1.33,0,0,0-.94-.77l-.17,0-.17,0a1.29,1.29,0,0,1,.89-.55l.18,0a1.35,1.35,0,0,0,.8-.42,1.1,1.1,0,0,0,.71.25,1.14,1.14,0,0,0,0-2.27,1.11,1.11,0,0,0-.69.24l-.08-.08-.13-.13a1.34,1.34,0,0,1-.38-1.19l0-.18a1.39,1.39,0,0,0-.16-.89,1.15,1.15,0,0,1,.79.17l.15.09a1.23,1.23,0,0,0,1.19,0h0l.13-.07a1.22,1.22,0,0,1,1-.07,1.35,1.35,0,0,1,.86,1.55l0,.18a1.37,1.37,0,0,0,.32,1.2Z"/><path class="cls-4" d="M117.09,28.34h0a1.23,1.23,0,0,1-1.19,0l-.15-.09a1.15,1.15,0,0,0-.79-.17,1.31,1.31,0,0,0-1.77-.52l-.16.08a1.3,1.3,0,0,1-1.24,0l-.16-.08,0,0h0s0-.06,0-.09l0-.18a1.33,1.33,0,0,1,1.93-1.41l.16.08a1.3,1.3,0,0,0,1.24,0l.16-.08a1.32,1.32,0,0,1,1.91.85,1.48,1.48,0,0,1,0,.56l0,.18A1.33,1.33,0,0,0,117.09,28.34Z"/><path class="cls-5" d="M113.76,33.31a.67.67,0,0,0-.11.18l-.08.16a1.33,1.33,0,0,1-2.24.24,1.2,1.2,0,0,1-.15-.24l-.08-.16a1.31,1.31,0,0,0-1-.73l-.18,0a1.3,1.3,0,0,1-1.06-.87,1.33,1.33,0,0,1,.32-1.41l.13-.13a1.32,1.32,0,0,0,.38-1.19l0-.18a1.33,1.33,0,0,1,1.88-1.43l0,0,.16.08a1.3,1.3,0,0,0,1.24,0l.16-.08a1.31,1.31,0,0,1,1.77.52,1.39,1.39,0,0,1,.16.89l0,.18a1.34,1.34,0,0,0,.38,1.19l.13.13.08.08a1.33,1.33,0,0,1-.82,2.2l-.18,0A1.29,1.29,0,0,0,113.76,33.31Zm-.34-2.66a1.13,1.13,0,1,0-1.13,1.13A1.14,1.14,0,0,0,113.42,30.65Z"/><path class="cls-1" d="M114.6,64.64a1.39,1.39,0,0,1-1.22,2.06H85.1a1.38,1.38,0,0,1-1.19-2.09l8.75-15a1.4,1.4,0,0,1,1.2-.69h11.31a1.39,1.39,0,0,1,1.21.72Z"/><path class="cls-6" d="M109.57,18.16c0,5.62-6.88,10.92-9.42,12l-1.5,0c-2.59-1.13-9.37-6.39-9.37-12,0-4.63,4.57-8.3,10.15-4.9C105,9.86,109.57,13.53,109.57,18.16Z"/><path d="M100.16,30.16,100.9,32h-3l.73-1.87h0a2.24,2.24,0,0,0,.78.23,2.19,2.19,0,0,0,.72-.2Z"/><path d="M98.65,30.13l1.5,0a2.19,2.19,0,0,1-.72.2A2.24,2.24,0,0,1,98.65,30.13Z"/><path class="cls-5" d="M89,29.91a1.34,1.34,0,0,1-.74,2.29l-.18,0a1.32,1.32,0,0,0-1,.74l-.08.16a1.82,1.82,0,0,1-.15.23,1.32,1.32,0,0,1-2.24-.23L84.52,33a1.62,1.62,0,0,0-.1-.18,1.34,1.34,0,0,0-.9-.56l-.18,0a1.28,1.28,0,0,1-.8-.44,1.33,1.33,0,0,1,0-1.76.31.31,0,0,1,.07-.09l.13-.13a1.36,1.36,0,0,0,.39-1.19l0-.18a1.27,1.27,0,0,1,.15-.89A1.33,1.33,0,0,1,85,27l.16.08a1.3,1.3,0,0,0,1.24,0l.16-.08,0,0a1.33,1.33,0,0,1,1.9,1.43l0,.18a1.35,1.35,0,0,0,.38,1.19Zm-2,.21a1.12,1.12,0,1,0-1.12,1.14A1.12,1.12,0,0,0,87,30.12Z"/><path class="cls-4" d="M84.72,25.28a1.34,1.34,0,0,1,1.93,1.42l0,.18s0,.06,0,.09h0l0,0-.16.08a1.3,1.3,0,0,1-1.24,0L85,27a1.33,1.33,0,0,0-1.78.52,1.27,1.27,0,0,0-.79.16l-.15.1a1.23,1.23,0,0,1-1.19,0l0,0a1.33,1.33,0,0,0,.17-.92l0-.18a1.48,1.48,0,0,1,0-.56,1.33,1.33,0,0,1,1.91-.86l.16.09a1.36,1.36,0,0,0,1.24,0Z"/><path class="cls-3" d="M84.42,32.78l-.18,0-.17,0a1.26,1.26,0,0,0-.94.77l-.07.16a1.28,1.28,0,0,1-.61.66,1.26,1.26,0,0,1-1.69-.58l-.08-.16a1.29,1.29,0,0,0-1-.7l-.17,0a1.36,1.36,0,0,1-.79-2.26l.12-.13a1.41,1.41,0,0,0,.33-1.2l0-.18A1.34,1.34,0,0,1,80,27.67a1.2,1.2,0,0,1,.94.07l.14.06,0,0a1.23,1.23,0,0,0,1.19,0l.15-.1a1.27,1.27,0,0,1,.79-.16,1.27,1.27,0,0,0-.15.89l0,.18a1.36,1.36,0,0,1-.39,1.19l-.13.13a.31.31,0,0,0-.07.09h0a1.06,1.06,0,0,0-.68-.24,1.14,1.14,0,0,0,0,2.27,1.1,1.1,0,0,0,.7-.26,1.28,1.28,0,0,0,.8.44l.18,0A1.34,1.34,0,0,1,84.42,32.78Z"/><path class="cls-1" d="M76.24,64.65c2,.43,3.42,1.4,3.42,2.53,0,1.52-2.55,2.75-5.69,2.75s-5.69-1.23-5.69-2.75c0-1.14,1.43-2.12,3.48-2.54h0a2.9,2.9,0,0,0,4.48,0Z"/><path class="cls-1" d="M76.24,64.65a2.93,2.93,0,0,1-5.16-1.89V35.11A2.94,2.94,0,0,1,74,32.17,3,3,0,0,1,77,35.11V62.76A2.89,2.89,0,0,1,76.24,64.65Z"/><path class="cls-1" d="M74,26.26a2.93,2.93,0,1,1-2.92,2.92A2.92,2.92,0,0,1,74,26.26Z"/><path class="cls-7" d="M81.09,27.8a1.33,1.33,0,0,0,.17-.92l0-.18a1.48,1.48,0,0,1,0-.56,1.33,1.33,0,0,1,1.91-.86l.16.09a1.36,1.36,0,0,0,1.24,0l.16-.09a1.34,1.34,0,0,1,1.93,1.42l0,.18s0,.06,0,.09"/><path class="cls-7" d="M84.42,32.78l-.18,0-.17,0a1.26,1.26,0,0,0-.94.77l-.07.16a1.28,1.28,0,0,1-.61.66,1.26,1.26,0,0,1-1.69-.58l-.08-.16a1.29,1.29,0,0,0-1-.7l-.17,0a1.36,1.36,0,0,1-.79-2.26l.12-.13a1.41,1.41,0,0,0,.33-1.2l0-.18A1.34,1.34,0,0,1,80,27.67a1.2,1.2,0,0,1,.94.07l.14.06,0,0a1.23,1.23,0,0,0,1.19,0l.15-.1a1.27,1.27,0,0,1,.79-.16"/><path class="cls-7" d="M83.24,27.52A1.33,1.33,0,0,1,85,27l.16.08a1.3,1.3,0,0,0,1.24,0l.16-.08,0,0a1.33,1.33,0,0,1,1.9,1.43l0,.18a1.35,1.35,0,0,0,.38,1.19l.13.13a1.34,1.34,0,0,1-.74,2.29l-.18,0a1.32,1.32,0,0,0-1,.74l-.08.16a1.82,1.82,0,0,1-.15.23,1.32,1.32,0,0,1-2.24-.23L84.52,33a1.62,1.62,0,0,0-.1-.18,1.34,1.34,0,0,0-.9-.56l-.18,0a1.28,1.28,0,0,1-.8-.44,1.33,1.33,0,0,1,0-1.76.31.31,0,0,1,.07-.09l.13-.13a1.36,1.36,0,0,0,.39-1.19l0-.18A1.27,1.27,0,0,1,83.24,27.52Z"/><path class="cls-7" d="M82.54,31.76a1.1,1.1,0,0,1-.7.26,1.14,1.14,0,0,1,0-2.27,1.06,1.06,0,0,1,.68.24"/><path class="cls-7" d="M87,30.12A1.12,1.12,0,1,1,85.88,29,1.13,1.13,0,0,1,87,30.12Z"/><path class="cls-7" d="M81.25,26.14A4.55,4.55,0,0,0,79,25.4a.1.1,0,0,0-.08.18A4.22,4.22,0,0,1,80,27.67"/><path class="cls-7" d="M84.07,32.86c1.26,1.47.77,4,.49,5a.19.19,0,0,1,0,.08s0,0,0,.05a.19.19,0,0,1-.08,0,.1.1,0,0,1-.1-.09l0-.15c-.25-1.08-.87-3.37-1.86-3.33"/><path class="cls-7" d="M84.52,38l.14-.1a5.29,5.29,0,0,0,2.18-4.53"/><path class="cls-7" d="M84.44,38,85,38a4.66,4.66,0,0,0,4.45-3.57c.19-.91.39-1.89.67-2.87a11.41,11.41,0,0,1,1.14-2.75.11.11,0,0,0-.06-.16c-1.14-.38-2.33,1.14-2.33,1.14"/><path class="cls-7" d="M117.09,28.34a1.33,1.33,0,0,1-.18-.93l0-.18a1.48,1.48,0,0,0,0-.56,1.32,1.32,0,0,0-1.91-.85l-.16.08a1.3,1.3,0,0,1-1.24,0l-.16-.08a1.33,1.33,0,0,0-1.93,1.41l0,.18s0,.06,0,.09"/><path class="cls-7" d="M113.75,33.31h0l.17,0,.17,0a1.33,1.33,0,0,1,.94.77l.07.17a1.26,1.26,0,0,0,2.3.08l.08-.16a1.29,1.29,0,0,1,1-.7l.17,0a1.35,1.35,0,0,0,.79-2.26l-.12-.13a1.37,1.37,0,0,1-.32-1.2l0-.18a1.35,1.35,0,0,0-.86-1.55,1.22,1.22,0,0,0-1,.07l-.13.07h0a1.23,1.23,0,0,1-1.19,0l-.15-.09a1.15,1.15,0,0,0-.79-.17"/><path class="cls-7" d="M114.93,28.05a1.31,1.31,0,0,0-1.77-.52l-.16.08a1.3,1.3,0,0,1-1.24,0l-.16-.08,0,0a1.33,1.33,0,0,0-1.88,1.43l0,.18a1.32,1.32,0,0,1-.38,1.19l-.13.13a1.33,1.33,0,0,0-.32,1.41,1.3,1.3,0,0,0,1.06.87l.18,0a1.31,1.31,0,0,1,1,.73l.08.16a1.2,1.2,0,0,0,.15.24,1.33,1.33,0,0,0,2.24-.24l.08-.16a.67.67,0,0,1,.11-.18,1.29,1.29,0,0,1,.89-.55l.18,0a1.33,1.33,0,0,0,.82-2.2l-.08-.08-.13-.13a1.34,1.34,0,0,1-.38-1.19l0-.18A1.39,1.39,0,0,0,114.93,28.05Z"/><path class="cls-7" d="M115.63,32.3a1.1,1.1,0,0,0,.71.25,1.14,1.14,0,0,0,0-2.27,1.11,1.11,0,0,0-.69.24"/><path class="cls-7" d="M111.17,30.65a1.13,1.13,0,1,0,1.12-1.14A1.13,1.13,0,0,0,111.17,30.65Z"/><path class="cls-7" d="M116.92,26.67a4.48,4.48,0,0,1,2.23-.73.1.1,0,0,1,.09.17,4.15,4.15,0,0,0-1.07,2.09"/><path class="cls-7" d="M113.73,38.55a.11.11,0,0,0,.11-.08c0-.08,0-.15,0-.24.25-1.12.87-3.28,1.83-3.25"/><path class="cls-7" d="M114.1,33.38c-1.22,1.44-.8,3.85-.51,4.94a.75.75,0,0,1,0,.16s0,0,0,0a.09.09,0,0,0,.07,0"/><path class="cls-7" d="M113.66,38.52a2,2,0,0,1-.23-.16,5.25,5.25,0,0,1-2.1-4.47"/><path class="cls-7" d="M113.73,38.55h0a5.06,5.06,0,0,1-.77,0A4.62,4.62,0,0,1,108.73,35c-.2-.91-.39-1.9-.67-2.87a11.18,11.18,0,0,0-1.14-2.75.11.11,0,0,1,.06-.16c1.14-.38,2.33,1.14,2.33,1.14"/><path class="cls-8" d="M76.92,29.18A2.92,2.92,0,1,1,74,26.26,2.93,2.93,0,0,1,76.92,29.18Z"/><path class="cls-8" d="M76.24,64.65a2.93,2.93,0,0,1-5.16-1.89V35.11A2.94,2.94,0,0,1,74,32.17,3,3,0,0,1,77,35.11V62.76A2.89,2.89,0,0,1,76.24,64.65Z"/><path class="cls-8" d="M76.19,64.64h0c2,.43,3.42,1.4,3.42,2.53,0,1.52-2.55,2.75-5.69,2.75s-5.69-1.23-5.69-2.75c0-1.14,1.43-2.12,3.48-2.54"/><path class="cls-8" d="M127.75,29.18a2.92,2.92,0,1,1-2.92-2.92A2.93,2.93,0,0,1,127.75,29.18Z"/><path class="cls-8" d="M127.08,64.65a2.93,2.93,0,0,1-5.17-1.89V35.11a2.94,2.94,0,0,1,2.93-2.94,3,3,0,0,1,2.94,2.94V62.76A2.93,2.93,0,0,1,127.08,64.65Z"/><path class="cls-8" d="M127.08,64.65c2,.43,3.41,1.4,3.41,2.53,0,1.52-2.55,2.75-5.69,2.75s-5.69-1.23-5.69-2.75c0-1.14,1.43-2.12,3.48-2.54"/><path class="cls-8" d="M93.86,48.93h11.31a1.39,1.39,0,0,1,1.21.72l8.22,15a1.39,1.39,0,0,1-1.22,2.06H85.1a1.38,1.38,0,0,1-1.19-2.09l8.75-15A1.4,1.4,0,0,1,93.86,48.93Z"/><path class="cls-8" d="M77,35.11a72.22,72.22,0,0,0,7.36,2.67l.25.08.1,0L85,38a53.34,53.34,0,0,0,14.53,2.44A50.17,50.17,0,0,0,113,38.5l.47-.14.16,0,.3-.09a47.76,47.76,0,0,0,8-3.12"/><path class="cls-8" d="M100.15,30.16c2.54-1.08,9.42-6.38,9.42-12,0-4.63-4.57-8.3-10.14-4.9-5.58-3.4-10.15.27-10.15,4.9,0,5.58,6.78,10.84,9.37,12"/><path class="cls-9" d="M99.43,32l-.26.86a4.26,4.26,0,0,0,.13,2.86l.35.86a3.26,3.26,0,0,1,.11,2.18l-.33,1.18"/></g></svg>