<svg xmlns="http://www.w3.org/2000/svg" viewBox="0 0 200 200"><defs><style>.cls-1{fill:#fff;}.cls-2{fill:#201600;}.cls-3{fill:#ff85c8;}.cls-3,.cls-4{stroke:#000;stroke-miterlimit:10;stroke-width:2px;}.cls-4,.cls-5{fill:none;stroke-linecap:round;}.cls-5{stroke:#201600;stroke-linejoin:round;stroke-width:4px;}</style></defs><title>Ресурс 4</title><g id="Слой_2" data-name="Слой 2"><g id="Слой_2-2" data-name="Слой 2"><rect class="cls-1" x="2" y="2" width="196" height="196" rx="18" ry="18"/><path class="cls-2" d="M180,4a16,16,0,0,1,16,16V180a16,16,0,0,1-16,16H20A16,16,0,0,1,4,180V20A16,16,0,0,1,20,4H180m0-4H20A20,20,0,0,0,0,20V180a20,20,0,0,0,20,20H180a20,20,0,0,0,20-20V20A20,20,0,0,0,180,0Z"/><path class="cls-3" d="M89.12,28c1.6-1.83,7.12-3,10.25,1a.62.62,0,0,0,1,0c3-4.06,7.79-2.72,10.21-1a.93.93,0,0,1,.35,1.1c-1,2.69-2,3.85-5,5.76a.67.67,0,0,0-.13,1c3.58,3.6,16.67,10,18.2,25.68a.75.75,0,0,1-.35.69c-3,1.88-6.23,2.54-10.7,2.17-5.41,5.39-23.58,4.18-26.51,0-2,.06-6.71-.07-9.83-2.11a1.26,1.26,0,0,1-.6-1.23C78.28,46.4,88.57,39.72,93.64,35.8a.64.64,0,0,0,0-1c-2.54-1.79-4.2-3.54-4.71-5.91A1,1,0,0,1,89.12,28Z"/><path class="cls-4" d="M86.44,64.4c.54-5.67,2.83-11.58,5.65-15.12"/><path class="cls-4" d="M113,64.4c.31-2.81-1.78-11.61-5.2-14.93"/><line class="cls-4" x1="92.09" y1="26.45" x2="92.09" y2="20"/><line class="cls-4" x1="107.47" y1="26.56" x2="107.47" y2="20"/><path d="M32.16,141.06c0,2.91-3.09,7.14-8.85,7.14-7,0-10.31-5-10.31-11.07C13,130.47,17.22,126,23.31,126c5.31,0,8.76,3.84,8.76,6.54a1.88,1.88,0,0,1-1.92,1.86c-1,0-1.34-.42-2.3-2.19a5.12,5.12,0,0,0-4.57-2.76c-3.6,0-5.87,2.82-5.87,7.86s2.25,7.44,5.76,7.44a5,5,0,0,0,5.06-3.66c.6-1.65,1.2-1.92,2-1.92A1.91,1.91,0,0,1,32.16,141.06Z"/><path d="M50.7,143.76c0,2.25-1.65,4.08-5.28,4.08H38c-1.71,0-2.43-.78-2.43-2.43V134.73c0-1.71.78-2.46,2.43-2.46h6.6c3.72,0,5.52,1.38,5.52,4.08a3.59,3.59,0,0,1-2.67,3.54A4,4,0,0,1,50.7,143.76Zm-11.1-5h2.82c3.39,0,3.9-.87,3.9-1.86s-.36-1.71-3.9-1.71H39.6Zm0,6.18H43c2.85,0,3.63-.6,3.63-1.74,0-1.59-1.38-1.95-4.77-1.95H39.6Z"/><path d="M58.59,148.2c-3.45,0-5.37-2-5.37-4.53,0-4.74,5.49-4.38,10.68-5.91,0-2.4-.93-3.09-2.85-3.09s-3,.51-3.57,1.53c-.63,1.17-1,1.59-1.88,1.59a1.6,1.6,0,0,1-1.66-1.5c0-2,2.1-4.35,7-4.35s7,1.23,7,6.39l-.09,3.75c0,2.28.78,3.72.78,4.53a1.78,1.78,0,0,1-1.83,1.59c-.81,0-1.65-.75-2.55-2.25A9.1,9.1,0,0,1,58.59,148.2ZM61,140.94c-2.67.54-3.75,1.05-3.75,2.46,0,1.17.93,2.19,2.61,2.19a4.32,4.32,0,0,0,2.43-.72c1.56-1,1.68-2,1.68-4.71A18,18,0,0,1,61,140.94Z"/><path d="M85.41,147.84H72.76v2.4c0,1.35-.49,2-1.48,2-.81,0-1.43-.63-1.43-2v-2.91c0-2.67-.09-2.4,1.32-2.4,1.82-2.22,2.76-5.4,2.81-9.57a5.48,5.48,0,0,1,.21-1.92c.21-.45.7-1.17,2.25-1.17h7.77c1.71,0,2.43.78,2.43,2.46v10.2h.72c.87,0,1-.15,1,2v3.33c0,1.35-.51,2-1.5,2-.69,0-1.41-.51-1.41-2Zm-2.73-2.91v-9.75H77.61c-.12,4.29-.54,7.23-2.34,9.75Z"/><path d="M94.35,141.06c.09,3,1.86,4.5,4,4.5a5.31,5.31,0,0,0,3.78-1.77c1-1,1.26-1.08,1.83-1.08a1.27,1.27,0,0,1,1.32,1.17c0,1.74-2.61,4.32-6.84,4.32-5.43,0-8.15-3.39-8.15-8.13s2.9-8.13,7.82-8.13,7.38,3.54,7.38,6.75c0,1.44-.63,2.37-3.3,2.37Zm7.29-2.28c-.12-2.64-1.62-4.08-3.63-4.08s-3.33,1.35-3.66,4.08Z"/><path d="M116.46,132.33c4.35,0,7.35,3.48,7.35,7.8a7.83,7.83,0,0,1-8.07,8.07c-5.13,0-7.86-3.72-7.86-10.89s2.19-10.71,7.77-10.71h.42l1.68,0h.42a4.6,4.6,0,0,0,1.35-.12c.6-.18,1.41-1.08,2.37-1.08.75,0,1.14.42,1.14,1.23,0,2.7-1.77,2.91-5.58,3-4.41.09-6,.54-6.42,5.52A6.47,6.47,0,0,1,116.46,132.33Zm-4.53,7.86c0,3.06,1.74,5,3.93,5,2.34,0,3.9-2.22,3.9-5,0-3-1.77-4.89-3.84-4.89S111.93,137.16,111.93,140.19Z"/><path d="M130.8,138.18H137v-3.72c0-1.89,1-2.52,2-2.52s2,.63,2,2.52v11.22c0,1.89-1,2.52-2,2.52s-2-.81-2-2.52v-4.59H130.8v4.59c0,1.89-1,2.52-2,2.52s-2-.63-2-2.52V134.46c0-1.8.93-2.52,2-2.52.93,0,2,.63,2,2.52Z"/><path d="M148.8,138.21h4.14c4.35,0,6.66,1.68,6.66,4.74,0,2.52-1.62,4.89-6.66,4.89h-5.7c-1.71,0-2.43-.78-2.43-2.43V134.46c0-1.8,1-2.52,2.07-2.52s1.92.63,1.92,2.52Zm0,6.72h3.69c2.58,0,3.06-1,3.06-1.92q0-1.89-3.06-1.89H148.8Zm17.25,0c0,2.19-.36,3.3-2,3.3s-2-1.11-2-3.3v-9.66c0-2.49.54-3.3,2-3.3,1.68,0,2,1.11,2,3.27Z"/><path d="M173.34,141.06c.09,3,1.86,4.5,4,4.5a5.31,5.31,0,0,0,3.78-1.77c1-1,1.26-1.08,1.83-1.08a1.27,1.27,0,0,1,1.32,1.17c0,1.74-2.61,4.32-6.84,4.32-5.43,0-8.16-3.39-8.16-8.13s2.91-8.13,7.83-8.13c4.77,0,7.38,3.54,7.38,6.75,0,1.44-.63,2.37-3.3,2.37Zm7.29-2.28c-.12-2.64-1.62-4.08-3.63-4.08s-3.33,1.35-3.66,4.08Z"/><path d="M58.11,170.18H52.24v10.5q0,2.52-2,2.52c-1.08,0-2-.84-2-2.52v-11c0-1.77.75-2.46,2.43-2.46h9c1.78,0,2.43.75,2.43,2.46v11c0,1.92-1,2.52-2.06,2.52s-1.9-.63-1.9-2.52Z"/><path d="M71.38,170.18v7.35c0,4.23-1.41,5.58-4.2,5.58-2.16,0-3.27-.54-3.27-2,0-.93.51-1.38,1.5-1.38.33,0,.75.06.9.06.83,0,1.11-.42,1.11-1.95V169.7c0-1.68.68-2.43,2.39-2.43h9c1.71,0,2.4.75,2.4,2.46v11c0,1.92-1,2.52-2,2.52s-2-.63-2-2.52v-10.5Z"/><path d="M89.7,183.2c-3.44,0-5.36-2-5.36-4.53,0-4.74,5.48-4.38,10.68-5.91,0-2.4-.94-3.09-2.86-3.09s-3,.51-3.56,1.53c-.63,1.17-1,1.59-1.89,1.59a1.59,1.59,0,0,1-1.65-1.5c0-2,2.09-4.35,7-4.35s7,1.23,7,6.39l-.09,3.75c0,2.28.78,3.72.78,4.53a1.78,1.78,0,0,1-1.83,1.59c-.81,0-1.65-.75-2.55-2.25A9.08,9.08,0,0,1,89.7,183.2Zm2.37-7.26c-2.67.54-3.75,1.05-3.75,2.46a2.32,2.32,0,0,0,2.61,2.19,4.32,4.32,0,0,0,2.43-.72c1.56-1,1.68-2,1.68-4.71A18,18,0,0,1,92.07,175.94Z"/><path d="M110.43,170.18v10.5c0,1.89-1,2.52-2,2.52s-2-.63-2-2.52v-10.5h-3.36c-1.35,0-2-.48-2-1.47,0-.69.51-1.44,2-1.44h10.71c1.35,0,2,.51,2,1.5,0,.69-.57,1.41-2,1.41Z"/><path d="M121.86,173.21H126c4.35,0,6.66,1.68,6.66,4.74,0,2.52-1.62,4.89-6.66,4.89h-5.7c-1.71,0-2.43-.78-2.43-2.43V169.46c0-1.8,1-2.52,2.07-2.52s1.92.63,1.92,2.52Zm0,6.72h3.69c2.58,0,3.06-1,3.06-1.92q0-1.89-3.06-1.89h-3.69Z"/><path d="M134.82,171.71c0-3.42,2.07-4.44,6.12-4.44h5.67c1.71,0,2.43.78,2.43,2.46v11c0,1.89-1,2.49-2.07,2.49s-1.92-.78-1.92-2.49v-4.32h-.63c-1.89,0-2.46.24-3.6,2.1l-1.74,2.67c-1.14,1.74-1.5,2-2.43,2a1.85,1.85,0,0,1-2-1.59,3.26,3.26,0,0,1,.66-1.68l1-1.59a5.08,5.08,0,0,1,2.28-2.25A4.09,4.09,0,0,1,134.82,171.71Zm10.23-1.53H142c-3,0-3.36.9-3.36,1.74,0,1.05.42,2,3.63,2h2.79Z"/><line class="cls-5" x1="53.8" y1="44.53" x2="40.01" y2="46.96"/><line class="cls-5" x1="66.78" y1="70.25" x2="54.05" y2="82.98"/><line class="cls-5" x1="100.12" y1="82.63" x2="100.12" y2="104.63"/><line class="cls-5" x1="133.75" y1="70.07" x2="146.47" y2="82.79"/><line class="cls-5" x1="146.2" y1="45.48" x2="159.99" y2="47.91"/><path class="cls-5" d="M146.89,36.7q0,21.6-13.71,33.76a47.42,47.42,0,0,1-32.55,12.17q-19.53,0-33.41-12T53.34,36.7"/></g></g></svg>