<svg xmlns="http://www.w3.org/2000/svg" viewBox="0 0 104 104"><defs><style>.cls-1{fill:#fff;stroke-width:4px;}.cls-1,.cls-3,.cls-4{stroke:#000;stroke-miterlimit:10;}.cls-2{fill:#af54a1;}.cls-3,.cls-4{fill:none;stroke-width:2px;}.cls-4{stroke-linecap:round;}</style></defs><title>Свадебные платья</title><g id="Пиктограммы"><rect class="cls-1" x="2" y="2" width="100" height="100"/><path class="cls-2" d="M28.75,90.25c-3.45.1-11.51-.14-16.87-4a2.46,2.46,0,0,1-1-2.32c3.88-27.49,21.52-40,30.22-47.37A1.23,1.23,0,0,0,41,34.68C36.67,31.3,33.82,28,33,23.6a2.07,2.07,0,0,1,.39-1.67,9.27,9.27,0,0,1,5.1-2.84,11.61,11.61,0,0,1,12.47,4.76,1,1,0,0,0,1.66,0A10.56,10.56,0,0,1,64.8,19.3a15.57,15.57,0,0,1,5.3,2.63A1.86,1.86,0,0,1,70.69,24c-1.75,5.05-3.48,7.22-8.51,10.81A1.3,1.3,0,0,0,62,36.74c6.14,6.75,28.57,18.68,31.2,48.14a1.44,1.44,0,0,1-.6,1.29c-5.13,3.53-10.67,4.77-18.35,4.08C64.93,100.35,33.77,98.09,28.75,90.25Z"/><path class="cls-3" d="M28.75,90.25c-3.45.1-11.51-.14-16.87-4a2.46,2.46,0,0,1-1-2.32c3.88-27.49,21.52-40,30.22-47.37A1.23,1.23,0,0,0,41,34.68C36.67,31.3,33.82,28,33,23.6a2.07,2.07,0,0,1,.39-1.67,9.27,9.27,0,0,1,5.1-2.84,11.61,11.61,0,0,1,12.47,4.76,1,1,0,0,0,1.66,0A10.56,10.56,0,0,1,64.8,19.3a15.57,15.57,0,0,1,5.3,2.63A1.86,1.86,0,0,1,70.69,24c-1.75,5.05-3.48,7.22-8.51,10.81A1.3,1.3,0,0,0,62,36.74c6.14,6.75,28.57,18.68,31.2,48.14a1.44,1.44,0,0,1-.6,1.29c-5.13,3.53-10.67,4.77-18.35,4.08C64.93,100.35,33.77,98.09,28.75,90.25Z"/><path class="cls-4" d="M28.75,90.25c.93-10.64,4.84-21.72,9.69-28.35"/><path class="cls-4" d="M74.2,90.25c.53-5.27-3-21.77-8.91-28"/><line class="cls-4" x1="38.44" y1="19.09" x2="38.44" y2="7"/><line class="cls-4" x1="64.8" y1="19.3" x2="64.8" y2="7"/></g></svg>