<svg xmlns="http://www.w3.org/2000/svg" viewBox="0 0 204 204"><defs><style>.cls-1{fill:#fff;}.cls-1,.cls-2,.cls-4,.cls-5{stroke:#000;stroke-miterlimit:10;}.cls-1,.cls-2{stroke-width:4px;}.cls-2,.cls-4,.cls-5{fill:none;}.cls-2,.cls-5{stroke-linecap:round;}.cls-3{fill:#af54a1;}.cls-4,.cls-5{stroke-width:2px;}</style></defs><title>Свадебные платья_1</title><g id="Категории"><rect class="cls-1" x="2" y="2" width="200" height="200" rx="20" ry="20"/><path class="cls-2" d="M160.55,42c0,27.64-26.49,50.06-59.16,50.06S42.23,69.64,42.23,42"/><line class="cls-2" x1="7.58" y1="42" x2="42.23" y2="42"/><line class="cls-2" x1="10.78" y1="62.62" x2="44.24" y2="55.03"/><line class="cls-2" x1="20.16" y1="81.83" x2="50.17" y2="67.17"/><line class="cls-2" x1="35.11" y1="98.34" x2="59.61" y2="77.61"/><line class="cls-2" x1="54.59" y1="111" x2="71.92" y2="85.62"/><line class="cls-2" x1="77.29" y1="118.97" x2="86.26" y2="90.66"/><line class="cls-2" x1="101.65" y1="121.7" x2="101.65" y2="92.39"/><line class="cls-2" x1="126.02" y1="119" x2="117.05" y2="90.69"/><line class="cls-2" x1="148.73" y1="111.06" x2="131.4" y2="85.67"/><line class="cls-2" x1="168.23" y1="98.41" x2="143.73" y2="77.68"/><line class="cls-2" x1="183.2" y1="81.93" x2="153.2" y2="67.27"/><line class="cls-2" x1="192.62" y1="62.72" x2="159.16" y2="55.14"/><line class="cls-2" x1="195.85" y1="42.11" x2="161.2" y2="42.11"/><path d="M42.09,145.06c0,2.61-2.78,6.42-8,6.42-6.28,0-9.28-4.48-9.28-10,0-6,3.8-10,9.28-10,4.78,0,7.89,3.45,7.89,5.88a1.69,1.69,0,0,1-1.73,1.67c-1,0-1.22-.37-2.08-2a4.6,4.6,0,0,0-4.1-2.48c-3.24,0-5.29,2.54-5.29,7.07s2,6.7,5.18,6.7a4.48,4.48,0,0,0,4.56-3.3c.54-1.48,1.08-1.72,1.81-1.72A1.72,1.72,0,0,1,42.09,145.06Z"/><path d="M58.77,147.49c0,2-1.48,3.67-4.75,3.67H47.38c-1.54,0-2.18-.71-2.18-2.19v-9.61c0-1.54.7-2.21,2.18-2.21h5.94c3.35,0,5,1.24,5,3.67a3.23,3.23,0,0,1-2.4,3.18A3.57,3.57,0,0,1,58.77,147.49Zm-10-4.51h2.53c3,0,3.51-.79,3.51-1.68s-.32-1.53-3.51-1.53H48.79Zm0,5.56h3.07c2.57,0,3.27-.54,3.27-1.57,0-1.43-1.24-1.75-4.29-1.75H48.79Z"/><path d="M65.88,151.48c-3.11,0-4.83-1.81-4.83-4.08,0-4.26,4.94-3.94,9.61-5.31,0-2.16-.84-2.78-2.57-2.78s-2.73.46-3.21,1.37c-.57,1.06-.86,1.43-1.7,1.43a1.44,1.44,0,0,1-1.49-1.35c0-1.78,1.89-3.91,6.29-3.91s6.27,1.11,6.27,5.75L74.16,146c0,2.06.71,3.35.71,4.08a1.61,1.61,0,0,1-1.65,1.43c-.73,0-1.49-.67-2.29-2A8.2,8.2,0,0,1,65.88,151.48ZM68,145c-2.4.48-3.37.94-3.37,2.21a2.07,2.07,0,0,0,2.34,2,3.88,3.88,0,0,0,2.19-.65c1.4-.91,1.51-1.83,1.51-4.23A16.54,16.54,0,0,1,68,145Z"/><path d="M90,151.16H78.62v2.16c0,1.21-.43,1.83-1.32,1.83-.73,0-1.3-.57-1.3-1.83V150.7c0-2.41-.08-2.16,1.19-2.16,1.65-2,2.49-4.86,2.54-8.61a4.88,4.88,0,0,1,.19-1.73c.19-.41.62-1,2-1h7c1.54,0,2.19.7,2.19,2.21v9.18h.65c.78,0,.86-.14.86,1.78v3c0,1.21-.46,1.83-1.35,1.83-.62,0-1.27-.46-1.27-1.83Zm-2.45-2.62v-8.77H83c-.11,3.86-.49,6.5-2.11,8.77Z"/><path d="M98.06,145.06c.08,2.67,1.67,4,3.62,4a4.75,4.75,0,0,0,3.4-1.59c.86-.86,1.13-1,1.65-1a1.14,1.14,0,0,1,1.18,1.05c0,1.57-2.34,3.89-6.15,3.89-4.89,0-7.34-3-7.34-7.31s2.62-7.32,7-7.32a6.28,6.28,0,0,1,6.64,6.07c0,1.3-.56,2.14-3,2.14Zm6.56-2.06c-.11-2.37-1.46-3.67-3.27-3.67s-3,1.22-3.29,3.67Z"/><path d="M118,137.2c3.91,0,6.61,3.13,6.61,7a7.05,7.05,0,0,1-7.26,7.26c-4.61,0-7.07-3.35-7.07-9.8s2-9.64,7-9.64h.38l1.51,0h.38a4.11,4.11,0,0,0,1.21-.11c.54-.16,1.27-1,2.14-1,.67,0,1,.38,1,1.11,0,2.43-1.59,2.62-5,2.67-4,.08-5.37.49-5.78,5A5.83,5.83,0,0,1,118,137.2Zm-4.08,7.07c0,2.76,1.57,4.54,3.54,4.54s3.51-2,3.51-4.51c0-2.67-1.59-4.4-3.46-4.4S113.88,141.55,113.88,144.27Z"/><path d="M130.87,142.46h5.56v-3.34c0-1.7.86-2.27,1.81-2.27s1.78.57,1.78,2.27v10.09c0,1.7-.89,2.27-1.84,2.27s-1.75-.73-1.75-2.27v-4.13h-5.56v4.13c0,1.7-.87,2.27-1.81,2.27s-1.78-.57-1.78-2.27V139.12c0-1.62.83-2.27,1.83-2.27.84,0,1.76.57,1.76,2.27Z"/><path d="M147.07,142.49h3.72c3.92,0,6,1.51,6,4.27,0,2.26-1.45,4.4-6,4.4h-5.13c-1.54,0-2.18-.71-2.18-2.19v-9.85c0-1.62.86-2.27,1.86-2.27s1.73.57,1.73,2.27Zm0,6h3.32c2.32,0,2.75-.92,2.75-1.73,0-1.13-.92-1.7-2.75-1.7h-3.32Zm15.52,0c0,2-.33,3-1.78,3s-1.81-1-1.81-3v-8.69c0-2.24.48-3,1.78-3,1.51,0,1.81,1,1.81,2.94Z"/><path d="M169.15,145.06c.08,2.67,1.68,4,3.62,4a4.75,4.75,0,0,0,3.4-1.59c.87-.86,1.14-1,1.65-1a1.14,1.14,0,0,1,1.19,1.05c0,1.57-2.35,3.89-6.16,3.89-4.88,0-7.34-3-7.34-7.31s2.62-7.32,7-7.32a6.27,6.27,0,0,1,6.64,6.07c0,1.3-.56,2.14-3,2.14Zm6.56-2.06c-.11-2.37-1.45-3.67-3.26-3.67s-3,1.22-3.3,3.67Z"/><path d="M66.62,165.35H59V179.6c0,1.81-.94,2.38-2,2.38s-1.91-.78-1.91-2.38V164.79c0-1.76.78-2.46,2.42-2.46H68.08c1.75,0,2.43.73,2.43,2.46V179.6c0,1.81-1,2.38-2,2.38s-1.92-.78-1.92-2.38Z"/><path d="M79.28,170.27v6.61c0,3.8-1.27,5-3.78,5-1.94,0-2.94-.49-2.94-1.81,0-.84.46-1.24,1.35-1.24.3,0,.68.05.81.05.76,0,1-.37,1-1.75v-7.32c0-1.51.62-2.18,2.16-2.18H86c1.54,0,2.16.67,2.16,2.21v9.85c0,1.73-.89,2.27-1.83,2.27s-1.76-.57-1.76-2.27v-9.44Z"/><path d="M95.78,182c-3.1,0-4.83-1.81-4.83-4.08,0-4.26,4.94-3.94,9.61-5.31,0-2.16-.84-2.78-2.57-2.78s-2.72.46-3.21,1.37c-.56,1.06-.86,1.43-1.7,1.43a1.43,1.43,0,0,1-1.48-1.35c0-1.78,1.89-3.91,6.29-3.91s6.26,1.11,6.26,5.75l-.08,3.37c0,2.06.7,3.35.7,4.08a1.6,1.6,0,0,1-1.65,1.43c-.73,0-1.48-.67-2.29-2A8.17,8.17,0,0,1,95.78,182Zm2.13-6.53c-2.4.48-3.37.94-3.37,2.21a2.08,2.08,0,0,0,2.35,2,3.87,3.87,0,0,0,2.18-.65c1.41-.91,1.51-1.83,1.51-4.23A16.25,16.25,0,0,1,97.91,175.45Z"/><path d="M114.44,170.27v9.44c0,1.7-.87,2.27-1.81,2.27s-1.76-.57-1.76-2.27v-9.44h-3c-1.21,0-1.83-.44-1.83-1.33,0-.62.45-1.29,1.83-1.29h9.64c1.21,0,1.83.46,1.83,1.35,0,.62-.51,1.27-1.83,1.27Z"/><path d="M124.73,173h3.72c3.91,0,6,1.51,6,4.27,0,2.26-1.46,4.4-6,4.4h-5.13c-1.54,0-2.18-.71-2.18-2.19v-9.85c0-1.62.86-2.27,1.86-2.27s1.73.57,1.73,2.27Zm0,6h3.32c2.32,0,2.75-.92,2.75-1.73,0-1.13-.92-1.7-2.75-1.7h-3.32Z"/><path d="M136.39,171.64c0-3.08,1.86-4,5.51-4H147c1.54,0,2.18.7,2.18,2.21v9.88c0,1.7-.91,2.24-1.86,2.24s-1.73-.7-1.73-2.24v-3.89H145c-1.7,0-2.22.22-3.24,1.89l-1.57,2.4c-1,1.57-1.35,1.84-2.18,1.84a1.66,1.66,0,0,1-1.76-1.43,2.89,2.89,0,0,1,.6-1.51l.94-1.43a4.62,4.62,0,0,1,2.05-2A3.68,3.68,0,0,1,136.39,171.64Zm9.2-1.37h-2.75c-2.73,0-3,.81-3,1.56,0,.95.38,1.75,3.26,1.75h2.51Z"/><path class="cls-3" d="M86.4,67.58c-2.22.07-7.42-.09-10.87-2.54a1.61,1.61,0,0,1-.65-1.5C77.38,45.83,88.75,37.76,94.36,33a.81.81,0,0,0,0-1.25c-2.81-2.18-4.65-4.29-5.21-7.14a1.35,1.35,0,0,1,.26-1.08,6,6,0,0,1,3.27-1.83,7.49,7.49,0,0,1,8,3.07.66.66,0,0,0,1.08,0,6.82,6.82,0,0,1,7.89-2.92,10.12,10.12,0,0,1,3.4,1.69,1.19,1.19,0,0,1,.38,1.33c-1.13,3.26-2.24,4.66-5.49,7a.85.85,0,0,0-.14,1.25c4,4.35,18.41,12,20.1,31a.92.92,0,0,1-.38.83c-3.31,2.28-6.88,3.07-11.83,2.63C109.72,74.09,89.64,72.63,86.4,67.58Z"/><path class="cls-4" d="M86.4,67.58c-2.22.07-7.42-.09-10.87-2.54a1.61,1.61,0,0,1-.65-1.5C77.38,45.83,88.75,37.76,94.36,33a.81.81,0,0,0,0-1.25c-2.81-2.18-4.65-4.29-5.21-7.14a1.35,1.35,0,0,1,.26-1.08,6,6,0,0,1,3.27-1.83,7.49,7.49,0,0,1,8,3.07.66.66,0,0,0,1.08,0,6.82,6.82,0,0,1,7.89-2.92,10.12,10.12,0,0,1,3.4,1.69,1.19,1.19,0,0,1,.38,1.33c-1.13,3.26-2.24,4.66-5.49,7a.85.85,0,0,0-.14,1.25c4,4.35,18.41,12,20.1,31a.92.92,0,0,1-.38.83c-3.31,2.28-6.88,3.07-11.83,2.63C109.72,74.09,89.64,72.63,86.4,67.58Z"/><path class="cls-5" d="M86.4,67.58c.6-6.85,3.13-14,6.24-18.27"/><path class="cls-5" d="M115.69,67.58c.35-3.39-2-14-5.74-18"/><line class="cls-5" x1="92.64" y1="21.72" x2="92.64" y2="13.93"/><line class="cls-5" x1="109.65" y1="21.86" x2="109.65" y2="13.93"/></g></svg>