<svg xmlns="http://www.w3.org/2000/svg" viewBox="0 0 200 200"><defs><style>.cls-1{fill:#cf825b;}.cls-2{fill:#fff;}.cls-3{fill:#201600;}.cls-10,.cls-4{fill:none;stroke-linecap:round;}.cls-4{stroke:#000;stroke-miterlimit:10;stroke-width:2px;}.cls-5{fill:#696dcf;}.cls-6{fill:#8affda;}.cls-7{fill:#78ddbb;}.cls-8{fill:#e5df61;}.cls-9{fill:#ff85c8;}.cls-10{stroke:#201600;stroke-linejoin:round;stroke-width:4px;}</style></defs><title>Ресурс 5</title><g id="Слой_2" data-name="Слой 2"><g id="Слой_2-2" data-name="Слой 2"><polygon class="cls-1" points="96.21 21.12 96.96 23.14 99 23.25 97.41 24.62 97.93 26.7 96.21 25.54 94.49 26.7 95.01 24.62 93.42 23.25 95.47 23.14 96.21 21.12"/><rect class="cls-2" x="2" y="2" width="196" height="196" rx="18" ry="18"/><path class="cls-3" d="M180,4a16,16,0,0,1,16,16V180a16,16,0,0,1-16,16H20A16,16,0,0,1,4,180V20A16,16,0,0,1,20,4H180m0-4H20A20,20,0,0,0,0,20V180a20,20,0,0,0,20,20H180a20,20,0,0,0,20-20V20A20,20,0,0,0,180,0Z"/><path class="cls-4" d="M100.12,51.26V69.12M109.05,58a42.88,42.88,0,0,1,1.12,8.93m-6.7-20.09A5.37,5.37,0,0,1,105.7,49M88.07,64.66c-.16,1.36-.23,2.23-.23,2.23M94.54,49a9.5,9.5,0,0,0-3.35,4.46m16.74-10c5,0,8.93,15.63,8.93,15.63M91.19,44.56c-6.39,0-10,14.52-10,14.52M106.82,39c9.53-9.11,16.74,13.4,16.74,13.4M80,42.33a39.58,39.58,0,0,0-4.47,8.93m19-10c-2-2.38-3.86-3.34-5.58-3.35m12.28,2.23c7.25-20.33,17.86-6.7,17.86-6.7M96.77,36.75C89.66,19.73,80,32.29,80,32.29m20.09,1.11s2.28-15.21,7.81-10"/><circle class="cls-5" cx="97.89" cy="45.68" r="1.12"/><circle class="cls-6" cx="80.03" cy="63.54" r="1.12"/><circle class="cls-7" cx="76.68" cy="35.63" r="1.12"/><circle class="cls-8" cx="121.33" cy="36.75" r="1.12"/><polygon class="cls-9" points="83.93 36.75 84.68 38.77 86.72 38.88 85.13 40.25 85.65 42.33 83.93 41.17 82.21 42.33 82.73 40.25 81.14 38.88 83.19 38.77 83.93 36.75"/><polygon class="cls-7" points="108.49 50.15 109.23 52.16 111.28 52.27 109.69 53.65 110.21 55.73 108.49 54.56 106.77 55.73 107.29 53.65 105.7 52.27 107.75 52.16 108.49 50.15"/><polygon class="cls-5" points="118.54 61.31 119.28 63.33 121.33 63.44 119.73 64.81 120.26 66.89 118.54 65.73 116.82 66.89 117.34 64.81 115.75 63.44 117.79 63.33 118.54 61.31"/><polygon class="cls-8" points="90.07 55.73 90.97 58.15 93.42 58.28 91.51 59.93 92.14 62.42 90.07 61.03 88.01 62.42 88.63 59.93 86.72 58.28 89.18 58.15 90.07 55.73"/><path d="M31.41,129.09c6.87.3,9.36,3.84,9.36,8.43s-2.4,8.13-9.36,8.43v.48a2.14,2.14,0,1,1-4.26,0V146c-7-.3-9.39-3.87-9.39-8.43s2.44-8.13,9.39-8.43v-.33a2.13,2.13,0,0,1,2.16-2.16,2.16,2.16,0,0,1,2.1,2.16Zm-4.26,3.48c-2.69,0-5,.93-5,5.07,0,3.21,1.67,4.83,5,4.83Zm4.26,9.9c2.88,0,5-1.2,5-4.92,0-3.87-2.19-5-5-5Z"/><path d="M47.5,141.66c.08,3,1.85,4.5,4,4.5a5.31,5.31,0,0,0,3.78-1.77c1-1,1.26-1.08,1.83-1.08a1.27,1.27,0,0,1,1.32,1.17c0,1.74-2.61,4.32-6.84,4.32-5.43,0-8.15-3.39-8.15-8.13s2.9-8.13,7.82-8.13c4.77,0,7.38,3.54,7.38,6.75,0,1.44-.63,2.37-3.3,2.37Zm7.28-2.28c-.12-2.64-1.61-4.08-3.63-4.08s-3.32,1.35-3.65,4.08Z"/><path d="M65.31,141.66c.09,3,1.86,4.5,4,4.5a5.31,5.31,0,0,0,3.78-1.77c1-1,1.26-1.08,1.83-1.08a1.27,1.27,0,0,1,1.32,1.17c0,1.74-2.61,4.32-6.84,4.32-5.43,0-8.16-3.39-8.16-8.13s2.91-8.13,7.83-8.13c4.77,0,7.38,3.54,7.38,6.75,0,1.44-.63,2.37-3.3,2.37Zm7.29-2.28c-.12-2.64-1.62-4.08-3.63-4.08s-3.33,1.35-3.66,4.08Z"/><path d="M83.4,135.21a6.45,6.45,0,0,1,5.22-2.67c4.08,0,6.69,3.51,6.69,8.31,0,4.53-2.43,8-6.66,8a6.9,6.9,0,0,1-5.25-2.49v5.22c0,3-.87,3.21-2,3.21-1.47,0-2-.81-2-3.33V135.63c0-2.25.35-3.09,2-3.09q2,0,2,2.25Zm4.17.39c-2.28,0-3.93,1.8-3.93,4.89s1.56,5.25,4,5.25c2.16,0,3.66-1.86,3.66-5C91.26,137.25,89.52,135.6,87.57,135.6Z"/><path d="M113.52,144.36c0,2.25-1.65,4.08-5.28,4.08h-7.38c-1.71,0-2.43-.78-2.43-2.43V135.33c0-1.71.78-2.46,2.43-2.46h6.6c3.72,0,5.52,1.38,5.52,4.08a3.59,3.59,0,0,1-2.67,3.54A4,4,0,0,1,113.52,144.36Zm-11.1-5h2.82c3.39,0,3.9-.87,3.9-1.86s-.36-1.71-3.9-1.71h-2.82Zm0,6.18h3.42c2.85,0,3.63-.6,3.63-1.74,0-1.59-1.38-1.95-4.77-1.95h-2.28Z"/><path d="M120.21,141.66c.09,3,1.86,4.5,4,4.5a5.31,5.31,0,0,0,3.78-1.77c1-1,1.26-1.08,1.83-1.08a1.27,1.27,0,0,1,1.32,1.17c0,1.74-2.61,4.32-6.84,4.32-5.43,0-8.15-3.39-8.15-8.13s2.9-8.13,7.82-8.13c4.77,0,7.38,3.54,7.38,6.75,0,1.44-.63,2.37-3.3,2.37Zm7.29-2.28c-.12-2.64-1.62-4.08-3.63-4.08s-3.33,1.35-3.66,4.08Z"/><path d="M138.3,135.21a6.45,6.45,0,0,1,5.22-2.67c4.08,0,6.69,3.51,6.69,8.31,0,4.53-2.43,8-6.66,8a6.9,6.9,0,0,1-5.25-2.49v5.22c0,3-.87,3.21-2,3.21-1.47,0-2-.81-2-3.33V135.63c0-2.25.36-3.09,2-3.09q2,0,2,2.25Zm4.17.39c-2.28,0-3.93,1.8-3.93,4.89s1.56,5.25,4,5.25c2.16,0,3.66-1.86,3.66-5C146.16,137.25,144.42,135.6,142.47,135.6Z"/><path d="M153.33,135c0-1.65.69-2.49,2-2.49,1,0,1.95.66,1.95,2.49v4.2c1.05,0,1.38-.3,2.28-2.85,1.17-3.24,2.43-3.6,4.23-3.6,2.13,0,2.31.75,2.31,1.44,0,.87-.54,1.32-1.65,1.35-1.41.06-1.53.36-2.13,2.25a3.78,3.78,0,0,1-2,2.64c1.14.33,2.34,1.47,3.36,3.48l.87,1.71a3.62,3.62,0,0,1,.51,1.53,1.68,1.68,0,0,1-1.86,1.62c-1.14,0-1.71-.54-2.37-2.07l-1.23-2.79c-.72-1.65-1.29-2.1-2.37-2.13v4.47c0,1.68-.66,2.52-2,2.52-1.11,0-2-.81-2-2.52Z"/><path d="M172.86,142.65l5.34-8.46c1-1.5,1.65-1.65,2.4-1.65q2.43,0,2.43,3.06v10.77c0,1.83-1,2.43-2,2.43s-2-.63-2-2.43v-7.86l-5.43,8.67c-.87,1.41-1.44,1.65-2.31,1.65-1.2,0-2.46-.75-2.46-3V135c0-1.83,1-2.43,2-2.43s2,.66,2,2.43Z"/><line class="cls-10" x1="53.8" y1="43.53" x2="40.01" y2="45.96"/><line class="cls-10" x1="66.78" y1="69.25" x2="54.05" y2="81.98"/><line class="cls-10" x1="100.12" y1="81.63" x2="100.12" y2="103.63"/><line class="cls-10" x1="133.75" y1="69.07" x2="146.47" y2="81.79"/><line class="cls-10" x1="146.2" y1="44.48" x2="159.99" y2="46.91"/><path class="cls-10" d="M146.89,35.7q0,21.6-13.71,33.76a47.42,47.42,0,0,1-32.55,12.17q-19.53,0-33.42-12T53.34,35.7"/></g></g></svg>