<svg xmlns="http://www.w3.org/2000/svg" viewBox="0 0 51.73 50"><defs><style>.cls-1{fill:#cf825b;}.cls-2{fill:none;stroke:#000;stroke-linecap:round;stroke-miterlimit:10;stroke-width:2px;}.cls-3{fill:#696dcf;}.cls-4{fill:#8affda;}.cls-5{fill:#78ddbb;}.cls-6{fill:#e5df61;}.cls-7{fill:#ff85c8;}</style></defs><title>Ресурс 8</title><g id="Слой_2" data-name="Слой 2"><g id="Слой_2-2" data-name="Слой 2"><polygon class="cls-1" points="23.4 5.02 24.02 6.7 25.73 6.79 24.4 7.93 24.84 9.66 23.4 8.69 21.97 9.66 22.41 7.93 21.08 6.79 22.78 6.7 23.4 5.02"/><path class="cls-2" d="M26.65,30.1V45m7.44-9.29A35.75,35.75,0,0,1,35,43.11M29.44,26.39a4.44,4.44,0,0,1,1.86,1.86m-14.67,13c-.14,1.14-.2,1.86-.2,1.86M22,28.25A7.9,7.9,0,0,0,19.22,32M33.16,23.6c4.13,0,7.43,13,7.43,13M19.22,24.53c-5.32,0-8.36,12.08-8.36,12.08M32.23,19.88C40.17,12.29,46.17,31,46.17,31M9.93,22.67A32.59,32.59,0,0,0,6.21,30.1M22,21.74c-1.66-2-3.22-2.78-4.65-2.79m10.22,1.86c6-16.92,14.87-5.57,14.87-5.57M23.87,18C18,3.86,9.93,14.31,9.93,14.31m16.72.93s1.9-12.66,6.51-8.33"/><circle class="cls-3" cx="24.8" cy="25.46" r="0.93"/><circle class="cls-4" cx="9.93" cy="40.32" r="0.93"/><circle class="cls-5" cx="7.14" cy="17.1" r="0.93"/><circle class="cls-6" cx="44.31" cy="18.02" r="0.93"/><polygon class="cls-7" points="13.18 18.02 13.8 19.71 15.51 19.8 14.18 20.94 14.62 22.67 13.18 21.7 11.75 22.67 12.19 20.94 10.86 19.8 12.56 19.71 13.18 18.02"/><polygon class="cls-5" points="33.62 29.18 34.24 30.86 35.95 30.95 34.62 32.09 35.06 33.82 33.62 32.85 32.19 33.82 32.63 32.09 31.3 30.95 33 30.86 33.62 29.18"/><polygon class="cls-3" points="41.99 38.47 42.6 40.15 44.31 40.24 42.98 41.38 43.42 43.11 41.99 42.14 40.55 43.11 40.99 41.38 39.66 40.24 41.37 40.15 41.99 38.47"/><polygon class="cls-6" points="18.29 33.82 19.04 35.84 21.08 35.95 19.49 37.32 20.01 39.4 18.29 38.23 16.57 39.4 17.09 37.32 15.51 35.95 17.55 35.84 18.29 33.82"/><rect class="cls-2" x="1" y="1" width="49.73" height="48"/></g></g></svg>