<svg xmlns="http://www.w3.org/2000/svg" viewBox="0 0 204 204"><defs><style>.cls-1{fill:#fff;}.cls-1,.cls-2,.cls-7{stroke:#000;stroke-miterlimit:10;}.cls-1,.cls-2{stroke-width:4px;}.cls-2,.cls-7{fill:none;stroke-linecap:round;}.cls-3{fill:#ffefbe;}.cls-4{fill:#af54a1;}.cls-5{fill:#51bfb6;}.cls-6{fill:#b1b5dd;}.cls-7{stroke-width:2px;}</style></defs><title>Феерверки_1</title><g id="Категории"><rect class="cls-1" x="2" y="2" width="200" height="200" rx="20" ry="20"/><path class="cls-2" d="M160.55,42c0,27.64-26.49,50.06-59.16,50.06S42.23,69.64,42.23,42"/><line class="cls-2" x1="7.58" y1="42" x2="42.23" y2="42"/><line class="cls-2" x1="10.78" y1="62.62" x2="44.24" y2="55.03"/><line class="cls-2" x1="20.16" y1="81.83" x2="50.17" y2="67.17"/><line class="cls-2" x1="35.11" y1="98.34" x2="59.61" y2="77.61"/><line class="cls-2" x1="54.59" y1="111" x2="71.92" y2="85.62"/><line class="cls-2" x1="77.29" y1="118.97" x2="86.26" y2="90.66"/><line class="cls-2" x1="101.65" y1="121.7" x2="101.65" y2="92.39"/><line class="cls-2" x1="126.02" y1="119" x2="117.05" y2="90.69"/><line class="cls-2" x1="148.73" y1="111.06" x2="131.4" y2="85.67"/><line class="cls-2" x1="168.23" y1="98.41" x2="143.73" y2="77.68"/><line class="cls-2" x1="183.2" y1="81.93" x2="153.2" y2="67.27"/><line class="cls-2" x1="192.62" y1="62.72" x2="159.16" y2="55.14"/><line class="cls-2" x1="195.85" y1="42.11" x2="161.2" y2="42.11"/><path d="M39.56,133.75c6.19.27,8.43,3.45,8.43,7.58s-2.16,7.32-8.43,7.59v.43a1.93,1.93,0,1,1-3.83,0v-.43c-6.29-.27-8.45-3.49-8.45-7.59s2.19-7.31,8.45-7.58v-.3a1.92,1.92,0,0,1,1.94-1.94,1.94,1.94,0,0,1,1.89,1.94Zm-3.83,3.13c-2.43,0-4.53.83-4.53,4.56,0,2.89,1.51,4.35,4.53,4.35Zm3.83,8.91c2.6,0,4.51-1.08,4.51-4.43s-2-4.48-4.51-4.48Z"/><path d="M54,145.06c.08,2.67,1.67,4,3.62,4a4.76,4.76,0,0,0,3.4-1.59c.86-.86,1.13-1,1.64-1a1.14,1.14,0,0,1,1.19,1.05c0,1.57-2.35,3.89-6.15,3.89-4.89,0-7.35-3-7.35-7.31s2.62-7.32,7-7.32a6.28,6.28,0,0,1,6.64,6.07c0,1.3-.57,2.14-3,2.14ZM60.6,143c-.11-2.37-1.46-3.67-3.27-3.67s-3,1.22-3.29,3.67Z"/><path d="M70.08,145.06c.08,2.67,1.67,4,3.61,4a4.73,4.73,0,0,0,3.4-1.59c.87-.86,1.14-1,1.65-1a1.14,1.14,0,0,1,1.19,1.05c0,1.57-2.35,3.89-6.16,3.89-4.88,0-7.34-3-7.34-7.31s2.62-7.32,7-7.32a6.28,6.28,0,0,1,6.64,6.07c0,1.3-.57,2.14-3,2.14ZM76.64,143c-.11-2.37-1.46-3.67-3.27-3.67s-3,1.22-3.29,3.67Z"/><path d="M86.36,139.25a5.81,5.81,0,0,1,4.69-2.4c3.68,0,6,3.16,6,7.48,0,4.07-2.18,7.15-6,7.15a6.21,6.21,0,0,1-4.72-2.24v4.7c0,2.72-.79,2.89-1.78,2.89-1.33,0-1.81-.73-1.81-3v-14.2c0-2,.32-2.78,1.81-2.78,1.18,0,1.78.67,1.78,2Zm3.75.35c-2,0-3.54,1.62-3.54,4.4s1.41,4.73,3.57,4.73c1.94,0,3.29-1.68,3.29-4.48C93.43,141.09,91.86,139.6,90.11,139.6Z"/><path d="M113.46,147.49c0,2-1.48,3.67-4.75,3.67h-6.64c-1.54,0-2.18-.71-2.18-2.19v-9.61c0-1.54.7-2.21,2.18-2.21H108c3.35,0,5,1.24,5,3.67a3.23,3.23,0,0,1-2.41,3.18A3.57,3.57,0,0,1,113.46,147.49Zm-10-4.51H106c3,0,3.51-.79,3.51-1.68s-.32-1.53-3.51-1.53h-2.53Zm0,5.56h3.07c2.57,0,3.27-.54,3.27-1.57,0-1.43-1.24-1.75-4.29-1.75h-2Z"/><path d="M119.49,145.06c.08,2.67,1.67,4,3.61,4a4.73,4.73,0,0,0,3.4-1.59c.87-.86,1.14-1,1.65-1a1.14,1.14,0,0,1,1.19,1.05c0,1.57-2.35,3.89-6.16,3.89-4.88,0-7.34-3-7.34-7.31s2.62-7.32,7-7.32a6.28,6.28,0,0,1,6.64,6.07c0,1.3-.57,2.14-3,2.14Zm6.56-2.06c-.11-2.37-1.46-3.67-3.27-3.67s-3,1.22-3.29,3.67Z"/><path d="M135.77,139.25a5.81,5.81,0,0,1,4.69-2.4c3.68,0,6,3.16,6,7.48,0,4.07-2.18,7.15-6,7.15a6.21,6.21,0,0,1-4.72-2.24v4.7c0,2.72-.79,2.89-1.78,2.89-1.33,0-1.81-.73-1.81-3v-14.2c0-2,.32-2.78,1.81-2.78,1.18,0,1.78.67,1.78,2Zm3.75.35c-2.05,0-3.54,1.62-3.54,4.4s1.41,4.73,3.57,4.73c1.94,0,3.29-1.68,3.29-4.48C142.84,141.09,141.27,139.6,139.52,139.6Z"/><path d="M149.3,139.09c0-1.48.62-2.24,1.83-2.24.86,0,1.76.59,1.76,2.24v3.78c.94,0,1.24-.27,2.05-2.57,1.05-2.91,2.18-3.23,3.8-3.23,1.92,0,2.08.67,2.08,1.29,0,.78-.48,1.19-1.48,1.22-1.27,0-1.38.32-1.92,2a3.41,3.41,0,0,1-1.75,2.38c1,.29,2.1,1.32,3,3.13l.78,1.54a3.17,3.17,0,0,1,.46,1.37,1.51,1.51,0,0,1-1.67,1.46c-1,0-1.54-.49-2.14-1.86l-1.1-2.51c-.65-1.49-1.16-1.89-2.13-1.92v4c0,1.51-.6,2.27-1.81,2.27-1,0-1.78-.73-1.78-2.27Z"/><path d="M166.87,146l4.81-7.62c.86-1.34,1.48-1.48,2.15-1.48,1.46,0,2.19.92,2.19,2.75v9.69c0,1.65-.86,2.19-1.81,2.19s-1.75-.57-1.75-2.19v-7.07l-4.89,7.8c-.78,1.27-1.29,1.49-2.08,1.49-1.08,0-2.21-.68-2.21-2.73V139c0-1.65.86-2.19,1.81-2.19s1.78.59,1.78,2.19Z"/><path class="cls-3" d="M127.69,31.46a1.35,1.35,0,1,1-1.35,1.36A1.35,1.35,0,0,1,127.69,31.46Z"/><polygon class="cls-4" points="127.69 65.06 125.76 66.72 126.4 69.23 124.32 67.83 122.23 69.23 122.87 66.72 120.95 65.06 123.42 64.93 124.32 62.49 125.22 64.93 127.69 65.06"/><polygon class="cls-3" points="115.55 51.57 113.62 53.23 114.25 55.74 112.18 54.34 110.1 55.74 110.73 53.23 108.8 51.57 111.28 51.44 112.18 49 113.08 51.44 115.55 51.57"/><polygon class="cls-4" points="100.71 16.51 98.79 18.16 99.42 20.68 97.34 19.27 95.26 20.68 95.89 18.16 93.97 16.51 96.44 16.37 97.34 13.93 98.24 16.37 100.71 16.51"/><path class="cls-4" d="M99.37,42.26a1.35,1.35,0,0,1,0,2.7,1.35,1.35,0,1,1,0-2.7Z"/><polygon class="cls-5" points="93.97 58.84 91.66 60.82 92.42 63.84 89.92 62.15 87.42 63.84 88.18 60.82 85.88 58.84 88.84 58.67 89.92 55.74 91 58.67 93.97 58.84"/><polygon class="cls-6" points="85.88 35.39 83.95 37.04 84.58 39.56 82.5 38.15 80.42 39.56 81.06 37.04 79.13 35.39 81.6 35.26 82.5 32.82 83.4 35.26 85.88 35.39"/><path class="cls-3" d="M77.78,63.84a1.35,1.35,0,1,1-1.35,1.35A1.34,1.34,0,0,1,77.78,63.84Z"/><path class="cls-5" d="M73.74,30.12a1.35,1.35,0,1,1-1.36,1.34A1.35,1.35,0,0,1,73.74,30.12Z"/><line class="cls-7" x1="102.06" y1="50.35" x2="102.06" y2="71.93"/><path class="cls-7" d="M112.85,58.44a51.94,51.94,0,0,1,1.35,10.79"/><path class="cls-7" d="M106.11,45a6.45,6.45,0,0,1,2.69,2.69"/><path class="cls-7" d="M87.5,66.54c-.19,1.64-.27,2.69-.27,2.69"/><path class="cls-7" d="M95.32,47.65a11.55,11.55,0,0,0-4,5.4"/><path class="cls-7" d="M111.51,40.91c6,0,10.78,18.88,10.78,18.88"/><path class="cls-7" d="M91.27,42.26c-7.73,0-12.14,17.53-12.14,17.53"/><path class="cls-7" d="M110.15,35.51c11.53-11,20.23,16.19,20.23,16.19"/><path class="cls-7" d="M77.78,39.56a47.61,47.61,0,0,0-5.4,10.79"/><path class="cls-7" d="M95.32,38.21c-2.41-2.87-4.67-4-6.75-4.05"/><path class="cls-7" d="M103.41,36.86C112.18,12.3,125,28.77,125,28.77"/><path class="cls-7" d="M98,32.82c-8.59-20.58-20.23-5.4-20.23-5.4"/><path class="cls-7" d="M102.06,28.77s2.76-18.38,9.45-12.08"/></g></svg>