<svg xmlns="http://www.w3.org/2000/svg" viewBox="0 0 204 204"><defs><style>.cls-1,.cls-5{fill:#fff;}.cls-1,.cls-2,.cls-7,.cls-8{stroke:#000;}.cls-1,.cls-2,.cls-7{stroke-miterlimit:10;}.cls-1,.cls-2{stroke-width:4px;}.cls-2,.cls-7,.cls-8{fill:none;}.cls-2,.cls-8{stroke-linecap:round;}.cls-3{fill:#b1b5dd;}.cls-4{fill:#51bfb6;}.cls-6{fill:#af54a1;}.cls-7,.cls-8{stroke-width:2px;}.cls-8{stroke-linejoin:round;}</style></defs><title>Свадебные букеты_1</title><g id="Категории"><rect class="cls-1" x="2" y="2" width="200" height="200" rx="20" ry="20"/><path class="cls-2" d="M160.55,42c0,27.64-26.49,50.06-59.16,50.06S42.23,69.64,42.23,42"/><line class="cls-2" x1="7.58" y1="42" x2="42.23" y2="42"/><line class="cls-2" x1="10.78" y1="62.62" x2="44.24" y2="55.03"/><line class="cls-2" x1="20.16" y1="81.83" x2="50.17" y2="67.17"/><line class="cls-2" x1="35.11" y1="98.34" x2="59.61" y2="77.61"/><line class="cls-2" x1="54.59" y1="111" x2="71.92" y2="85.62"/><line class="cls-2" x1="77.29" y1="118.97" x2="86.26" y2="90.66"/><line class="cls-2" x1="101.65" y1="121.7" x2="101.65" y2="92.39"/><line class="cls-2" x1="126.02" y1="119" x2="117.05" y2="90.69"/><line class="cls-2" x1="148.73" y1="111.06" x2="131.4" y2="85.67"/><line class="cls-2" x1="168.23" y1="98.41" x2="143.73" y2="77.68"/><line class="cls-2" x1="183.2" y1="81.93" x2="153.2" y2="67.27"/><line class="cls-2" x1="192.62" y1="62.72" x2="159.16" y2="55.14"/><line class="cls-2" x1="195.85" y1="42.11" x2="161.2" y2="42.11"/><path d="M42.09,145.06c0,2.61-2.78,6.42-8,6.42-6.28,0-9.28-4.48-9.28-10,0-6,3.8-10,9.28-10,4.78,0,7.89,3.45,7.89,5.88a1.69,1.69,0,0,1-1.73,1.67c-1,0-1.22-.37-2.08-2a4.6,4.6,0,0,0-4.1-2.48c-3.24,0-5.29,2.54-5.29,7.07s2,6.7,5.18,6.7a4.48,4.48,0,0,0,4.56-3.3c.54-1.48,1.08-1.72,1.81-1.72A1.72,1.72,0,0,1,42.09,145.06Z"/><path d="M58.77,147.49c0,2-1.48,3.67-4.75,3.67H47.38c-1.54,0-2.18-.71-2.18-2.19v-9.61c0-1.54.7-2.21,2.18-2.21h5.94c3.35,0,5,1.24,5,3.67a3.23,3.23,0,0,1-2.4,3.18A3.57,3.57,0,0,1,58.77,147.49Zm-10-4.51h2.53c3,0,3.51-.79,3.51-1.68s-.32-1.53-3.51-1.53H48.79Zm0,5.56h3.07c2.57,0,3.27-.54,3.27-1.57,0-1.43-1.24-1.75-4.29-1.75H48.79Z"/><path d="M65.88,151.48c-3.11,0-4.83-1.81-4.83-4.08,0-4.26,4.94-3.94,9.61-5.31,0-2.16-.84-2.78-2.57-2.78s-2.73.46-3.21,1.37c-.57,1.06-.86,1.43-1.7,1.43a1.44,1.44,0,0,1-1.49-1.35c0-1.78,1.89-3.91,6.29-3.91s6.27,1.11,6.27,5.75L74.16,146c0,2.06.71,3.35.71,4.08a1.61,1.61,0,0,1-1.65,1.43c-.73,0-1.49-.67-2.29-2A8.2,8.2,0,0,1,65.88,151.48ZM68,145c-2.4.48-3.37.94-3.37,2.21a2.07,2.07,0,0,0,2.34,2,3.88,3.88,0,0,0,2.19-.65c1.4-.91,1.51-1.83,1.51-4.23A16.54,16.54,0,0,1,68,145Z"/><path d="M90,151.16H78.62v2.16c0,1.21-.43,1.83-1.32,1.83-.73,0-1.3-.57-1.3-1.83V150.7c0-2.41-.08-2.16,1.19-2.16,1.65-2,2.49-4.86,2.54-8.61a4.88,4.88,0,0,1,.19-1.73c.19-.41.62-1,2-1h7c1.54,0,2.19.7,2.19,2.21v9.18h.65c.78,0,.86-.14.86,1.78v3c0,1.21-.46,1.83-1.35,1.83-.62,0-1.27-.46-1.27-1.83Zm-2.45-2.62v-8.77H83c-.11,3.86-.49,6.5-2.11,8.77Z"/><path d="M98.06,145.06c.08,2.67,1.67,4,3.62,4a4.75,4.75,0,0,0,3.4-1.59c.86-.86,1.13-1,1.65-1a1.14,1.14,0,0,1,1.18,1.05c0,1.57-2.34,3.89-6.15,3.89-4.89,0-7.34-3-7.34-7.31s2.62-7.32,7-7.32a6.28,6.28,0,0,1,6.64,6.07c0,1.3-.56,2.14-3,2.14Zm6.56-2.06c-.11-2.37-1.46-3.67-3.27-3.67s-3,1.22-3.29,3.67Z"/><path d="M118,137.2c3.91,0,6.61,3.13,6.61,7a7.05,7.05,0,0,1-7.26,7.26c-4.61,0-7.07-3.35-7.07-9.8s2-9.64,7-9.64h.38l1.51,0h.38a4.11,4.11,0,0,0,1.21-.11c.54-.16,1.27-1,2.14-1,.67,0,1,.38,1,1.11,0,2.43-1.59,2.62-5,2.67-4,.08-5.37.49-5.78,5A5.83,5.83,0,0,1,118,137.2Zm-4.08,7.07c0,2.76,1.57,4.54,3.54,4.54s3.51-2,3.51-4.51c0-2.67-1.59-4.4-3.46-4.4S113.88,141.55,113.88,144.27Z"/><path d="M130.87,142.46h5.56v-3.34c0-1.7.86-2.27,1.81-2.27s1.78.57,1.78,2.27v10.09c0,1.7-.89,2.27-1.84,2.27s-1.75-.73-1.75-2.27v-4.13h-5.56v4.13c0,1.7-.87,2.27-1.81,2.27s-1.78-.57-1.78-2.27V139.12c0-1.62.83-2.27,1.83-2.27.84,0,1.76.57,1.76,2.27Z"/><path d="M147.07,142.49h3.72c3.92,0,6,1.51,6,4.27,0,2.26-1.45,4.4-6,4.4h-5.13c-1.54,0-2.18-.71-2.18-2.19v-9.85c0-1.62.86-2.27,1.86-2.27s1.73.57,1.73,2.27Zm0,6h3.32c2.32,0,2.75-.92,2.75-1.73,0-1.13-.92-1.7-2.75-1.7h-3.32Zm15.52,0c0,2-.33,3-1.78,3s-1.81-1-1.81-3v-8.69c0-2.24.48-3,1.78-3,1.51,0,1.81,1,1.81,2.94Z"/><path d="M169.15,145.06c.08,2.67,1.68,4,3.62,4a4.75,4.75,0,0,0,3.4-1.59c.87-.86,1.14-1,1.65-1a1.14,1.14,0,0,1,1.19,1.05c0,1.57-2.35,3.89-6.16,3.89-4.88,0-7.34-3-7.34-7.31s2.62-7.32,7-7.32a6.27,6.27,0,0,1,6.64,6.07c0,1.3-.56,2.14-3,2.14Zm6.56-2.06c-.11-2.37-1.45-3.67-3.26-3.67s-3,1.22-3.3,3.67Z"/><path d="M58.29,165.27v4.94H63.5c4,0,7,1.7,7,5.67a5.58,5.58,0,0,1-1,3.35c-1.37,1.91-2.78,2.43-6,2.43H56.81c-1.73,0-2.43-.73-2.43-2.43V164.79c0-1.76.78-2.46,2.43-2.46H67.14c1.33,0,2,.51,2,1.51,0,.68-.51,1.43-2,1.43Zm0,13.44h3.78a12.12,12.12,0,0,0,2.67-.21,2.69,2.69,0,0,0,1.89-2.65c0-1.43-.62-2.7-4.37-2.7h-4Z"/><path d="M77.33,181.63l-4.4-11.15a4.45,4.45,0,0,1-.41-1.48,1.74,1.74,0,0,1,1.73-1.65c.78,0,1.32.38,1.86,1.92l3,8.85,2.89-8.21c.81-2.29,1-2.56,2-2.56a1.6,1.6,0,0,1,1.59,1.51,5,5,0,0,1-.43,1.73l-4.69,12.28c-1.27,3.29-2.11,4.46-5.35,4.46-2.08,0-3.13-.54-3.13-1.6a1.2,1.2,0,0,1,1.3-1.24l1.21.08c1.32,0,1.78-.59,2.4-2.13Z"/><path d="M88.18,169.59c0-1.48.62-2.24,1.84-2.24.86,0,1.75.59,1.75,2.24v3.78c1,0,1.24-.27,2-2.57,1.06-2.91,2.19-3.23,3.81-3.23,1.92,0,2.08.67,2.08,1.29,0,.78-.49,1.19-1.49,1.22-1.27,0-1.37.32-1.91,2a3.44,3.44,0,0,1-1.76,2.38c1,.29,2.11,1.32,3,3.13l.79,1.54a3.31,3.31,0,0,1,.46,1.37A1.52,1.52,0,0,1,97.14,182c-1,0-1.54-.49-2.13-1.86l-1.11-2.51c-.64-1.49-1.16-1.89-2.13-1.92v4c0,1.51-.59,2.27-1.81,2.27-1,0-1.78-.73-1.78-2.27Z"/><path d="M104.33,175.56c.08,2.67,1.67,4,3.61,4a4.73,4.73,0,0,0,3.4-1.59c.87-.86,1.14-1,1.65-1a1.14,1.14,0,0,1,1.19,1.05c0,1.57-2.35,3.89-6.16,3.89-4.88,0-7.34-3-7.34-7.31s2.62-7.32,7-7.32a6.28,6.28,0,0,1,6.64,6.07c0,1.3-.57,2.14-3,2.14Zm6.56-2.06c-.11-2.37-1.46-3.67-3.27-3.67s-3,1.22-3.29,3.67Z"/><path d="M124.06,170.27v9.44c0,1.7-.86,2.27-1.81,2.27s-1.75-.57-1.75-2.27v-9.44h-3c-1.22,0-1.84-.44-1.84-1.33,0-.62.46-1.29,1.84-1.29h9.63c1.22,0,1.84.46,1.84,1.35,0,.62-.51,1.27-1.84,1.27Z"/><path d="M134.35,173h3.73c3.91,0,6,1.51,6,4.27,0,2.26-1.46,4.4-6,4.4H133c-1.54,0-2.19-.71-2.19-2.19v-9.85c0-1.62.86-2.27,1.86-2.27s1.73.57,1.73,2.27Zm0,6h3.32c2.32,0,2.75-.92,2.75-1.73,0-1.13-.91-1.7-2.75-1.7h-3.32Zm15.52,0c0,2-.32,3-1.78,3s-1.81-1-1.81-3v-8.69c0-2.24.49-3,1.78-3,1.51,0,1.81,1,1.81,2.94Z"/><path class="cls-3" d="M129,45.57a3.51,3.51,0,0,1-.52,6.11l-4,1.67a3.4,3.4,0,0,0-2,2.42l-1,4.4a3.33,3.33,0,0,1-2,2.43c1.07-2.64-.54-9.07-5-10.4a.44.44,0,0,1-.27-.67,4.75,4.75,0,0,0,.41-1.08,3.81,3.81,0,0,0,1.93.35A3.89,3.89,0,1,0,116,43h0l.79-1.39a3.45,3.45,0,0,1,2.58-1.74l4.3-.45.14,0,.06,1.11a3.42,3.42,0,0,0,1.55,2.71Z"/><path class="cls-4" d="M125.88,33.76a3.51,3.51,0,0,1-2.11,5.68L123.6,36a3.19,3.19,0,0,0-5.33-2.35l-1.5,1.38-.79-.86a3.94,3.94,0,0,0,1.13-2,3.9,3.9,0,0,0-7.62-1.64s0,.05,0,.06l-.25,0A3.41,3.41,0,0,0,108,27.33l-3.46-2.6a3.35,3.35,0,0,1-1-1.19h0l-.11-1.37c-.24-2.78,2.71-4.77,5-3.35L112,21.06a3.1,3.1,0,0,0,3,.14l4-1.92a3.18,3.18,0,0,1,4.42,3.79l-1.07,4.38a3.38,3.38,0,0,0,.7,3Z"/><path class="cls-4" d="M123.6,36l.17,3.4-.14,0-4.3.45a3.45,3.45,0,0,0-2.58,1.74L116,43a3.81,3.81,0,0,0-2.29,1,9.08,9.08,0,0,0-7.86-4.53.46.46,0,0,1-.2,0,.47.47,0,0,1-.26-.44,5.27,5.27,0,0,0-.22-2.06A3,3,0,0,1,108,36.3l4.13,1.11a3.11,3.11,0,0,0,2.93-.74l1.74-1.6,1.5-1.38A3.19,3.19,0,0,1,123.6,36Z"/><path class="cls-5" d="M120.18,46.6a3.91,3.91,0,0,1-3.57,4.2,3.81,3.81,0,0,1-1.93-.35,8.3,8.3,0,0,0-.25-4.69l.1-.17L116,43h0A3.9,3.9,0,0,1,120.18,46.6Z"/><path class="cls-5" d="M114.54,52.2c4.47,1.33,6.08,7.76,5,10.4a3.07,3.07,0,0,1-3.63-1l-2.7-3.48a3.15,3.15,0,0,0-2.76-1.22l-4.26.41c-2.66.26-4.42-2.83-3-5.22l2.31-3.82a3.58,3.58,0,0,0,.27-3.17L104.17,41a3.5,3.5,0,0,1-.21-1.87l.88.17a3.25,3.25,0,0,1,.74.26,3.11,3.11,0,0,1,1.55,1.71l1.59,4.11a3.08,3.08,0,0,0,3.7,1.92,3.85,3.85,0,0,0,2.26,3.2,4.75,4.75,0,0,1-.41,1.08A.44.44,0,0,0,114.54,52.2Z"/><path class="cls-5" d="M119.55,62.6a2.22,2.22,0,0,1-.3.55.48.48,0,0,1-.47.19C110.37,61.6,95.62,58.35,94,58a.45.45,0,0,1-.24-.14l-4-4.42-2-2.16,0,0a.56.56,0,0,1-.07-.16c-.3-1.15-2.91-11.33-5.15-20.51l1.7,6.62,4.28-.07a3.14,3.14,0,0,1,2.65,1.44l2.41,3.68a3.18,3.18,0,0,0,5.74-1l.92-3a1.74,1.74,0,0,0,.39.11l3.32.66a3.5,3.5,0,0,0,.21,1.87l1.64,4.15a3.58,3.58,0,0,1-.27,3.17l-2.31,3.82c-1.45,2.39.31,5.48,3,5.22l4.26-.41a3.15,3.15,0,0,1,2.76,1.22l2.7,3.48A3.07,3.07,0,0,0,119.55,62.6Z"/><path class="cls-5" d="M114.12,27.57a3.89,3.89,0,0,1,3,4.62,3.88,3.88,0,0,1-4.63,3,3.9,3.9,0,0,1-3-4.57s0,0,0-.06A3.89,3.89,0,0,1,114.12,27.57Z"/><path class="cls-4" d="M116.77,35.07,115,36.67a3.11,3.11,0,0,1-2.93.74L108,36.3a3,3,0,0,0-2.84.66,8.19,8.19,0,0,0-1.34-2.56l3.15-1a3.42,3.42,0,0,0,2.29-2.8l.25,0a3.9,3.9,0,0,0,6.5,3.6Z"/><path class="cls-4" d="M116,43l-1.43,2.55-.1.17a9.69,9.69,0,0,0-.76-1.72A3.81,3.81,0,0,1,116,43Z"/><path class="cls-5" d="M114.43,45.76a8.3,8.3,0,0,1,.25,4.69,3.85,3.85,0,0,1-2.26-3.2A3.37,3.37,0,0,0,114.43,45.76Z"/><path class="cls-5" d="M113.67,44a9.69,9.69,0,0,1,.76,1.72,3.37,3.37,0,0,1-2,1.49v0A3.85,3.85,0,0,1,113.67,44Z"/><path class="cls-5" d="M113.67,44a3.85,3.85,0,0,0-1.25,3.19v0a3.08,3.08,0,0,1-3.7-1.92l-1.59-4.11a3.11,3.11,0,0,0-1.55-1.71l0,0a.46.46,0,0,0,.2,0A9.08,9.08,0,0,1,113.67,44Z"/><path class="cls-6" d="M108,27.33a3.51,3.51,0,0,1-1,6l-3.15,1a11.22,11.22,0,0,0-3.29-2.92l2.12-1.91a3.63,3.63,0,0,0,1.17-3l-.26-3.07a3.35,3.35,0,0,0,1,1.19Z"/><path class="cls-5" d="M105.61,39.46l0,0a3.25,3.25,0,0,0-.74-.26l-.88-.17A3.54,3.54,0,0,1,105.13,37a5.27,5.27,0,0,1,.22,2.06A.47.47,0,0,0,105.61,39.46Z"/><path class="cls-5" d="M105.13,37A3.54,3.54,0,0,0,104,39.08l-3.32-.66a1.74,1.74,0,0,1-.39-.11l.42-1.35a3.38,3.38,0,0,1,2.17-2.24l1-.32A8.19,8.19,0,0,1,105.13,37Z"/><path class="cls-6" d="M103.79,26.61a3.63,3.63,0,0,1-1.17,3l-2.12,1.91a10.28,10.28,0,0,0-2.59-1.11,3.89,3.89,0,1,0-6.66-2.73,1.41,1.41,0,0,0,0,.2c-1.34-2-3.19-3.61-6.5-3.12l-1.22-4a3.37,3.37,0,0,1,4.17-4.33l4,1.44a3.12,3.12,0,0,0,3-.5l3.48-2.7a3.18,3.18,0,0,1,5.11,2.77l-.13,4.51a3.57,3.57,0,0,0,.35,1.63h0Z"/><path class="cls-5" d="M103.79,34.4l-1,.32A3.38,3.38,0,0,0,100.67,37l-.42,1.35a3.4,3.4,0,0,1-1-5.75l1.2-1.08A11.22,11.22,0,0,1,103.79,34.4Z"/><path class="cls-5" d="M100.5,31.48l-1.2,1.08a3.4,3.4,0,0,0,1,5.75l-.92,3a3.18,3.18,0,0,1-5.74,1l-2.41-3.68a3.14,3.14,0,0,0-2.65-1.44l-4.28.07-1.7-6.62,1.77-2.45A3.61,3.61,0,0,0,84.84,25l-.08-.26c3.31-.49,5.16,1.12,6.5,3.12a3.89,3.89,0,0,0,6.65,2.53A10.28,10.28,0,0,1,100.5,31.48Z"/><path class="cls-5" d="M95.14,23.75a3.89,3.89,0,0,1,2.77,6.62,8.82,8.82,0,0,0-4.81,0,.48.48,0,0,1-.55-.23,25.8,25.8,0,0,0-1.29-2.27,1.41,1.41,0,0,1,0-.2A3.89,3.89,0,0,1,95.14,23.75Z"/><path class="cls-5" d="M97.91,30.37a3.89,3.89,0,0,1-6.65-2.53,25.8,25.8,0,0,1,1.29,2.27.48.48,0,0,0,.55.23A8.82,8.82,0,0,1,97.91,30.37Z"/><path class="cls-5" d="M89.77,53.44,93.88,58S82.5,68,79,71.51c-2.1,2.09-8.81-4.12-6.16-6.78C76.58,61,87.73,51.19,87.73,51.19l0,.05,0,0Z"/><path class="cls-5" d="M84.84,25a3.61,3.61,0,0,1-.52,3.14l-1.77,2.45c-.37-1.52-.74-3-1.08-4.44a.5.5,0,0,1,.28-.55,12.49,12.49,0,0,1,3-.86Z"/><path class="cls-7" d="M87.77,51.24l0-.05S76.58,61,72.81,64.73c-2.65,2.66,4.06,8.87,6.16,6.78C82.5,68,93.88,58,93.88,58l-4.11-4.53"/><path class="cls-8" d="M123.77,39.44l.06,1.11a3.42,3.42,0,0,0,1.55,2.71L129,45.57a3.51,3.51,0,0,1-.52,6.11l-4,1.67a3.4,3.4,0,0,0-2,2.42l-1,4.4a3.33,3.33,0,0,1-2,2.43"/><path class="cls-8" d="M116,43h0a3.89,3.89,0,1,1,.63,7.76,3.81,3.81,0,0,1-1.93-.35"/><path class="cls-8" d="M103.52,23.53l-.11-1.37c-.24-2.78,2.71-4.77,5-3.35L112,21.06a3.1,3.1,0,0,0,3,.14l4-1.92a3.18,3.18,0,0,1,4.42,3.79l-1.07,4.38a3.38,3.38,0,0,0,.7,3l2.82,3.27a3.51,3.51,0,0,1-2.11,5.68l-.14,0-4.3.45a3.45,3.45,0,0,0-2.58,1.74L116,43l-1.43,2.55-.1.17"/><path class="cls-8" d="M109.48,30.61s0,0,0-.06a3.9,3.9,0,0,1,7.62,1.64,3.88,3.88,0,0,1-4.63,3A3.9,3.9,0,0,1,109.48,30.61Z"/><path class="cls-8" d="M84.76,24.72l-1.22-4a3.37,3.37,0,0,1,4.17-4.33l4,1.44a3.12,3.12,0,0,0,3-.5l3.48-2.7a3.18,3.18,0,0,1,5.11,2.77l-.13,4.51a3.57,3.57,0,0,0,.35,1.63h0a3.35,3.35,0,0,0,1,1.19l3.46,2.6a3.51,3.51,0,0,1-1,6l-3.15,1"/><path class="cls-8" d="M91.26,27.84a1.41,1.41,0,0,1,0-.2,3.89,3.89,0,1,1,6.66,2.73"/><path class="cls-8" d="M87.77,51.24a.56.56,0,0,1-.07-.16c-.3-1.15-2.91-11.33-5.15-20.51-.37-1.52-.74-3-1.08-4.44a.5.5,0,0,1,.28-.55,12.49,12.49,0,0,1,3-.86c3.31-.49,5.16,1.12,6.5,3.12a25.8,25.8,0,0,1,1.29,2.27.48.48,0,0,0,.55.23,8.82,8.82,0,0,1,4.81,0,10.28,10.28,0,0,1,2.59,1.11,11.22,11.22,0,0,1,3.29,2.92A8.19,8.19,0,0,1,105.13,37a5.27,5.27,0,0,1,.22,2.06.47.47,0,0,0,.26.44.46.46,0,0,0,.2,0A9.08,9.08,0,0,1,113.67,44a9.69,9.69,0,0,1,.76,1.72,8.3,8.3,0,0,1,.25,4.69,4.75,4.75,0,0,1-.41,1.08.44.44,0,0,0,.27.67c4.47,1.33,6.08,7.76,5,10.4a2.22,2.22,0,0,1-.3.55.48.48,0,0,1-.47.19C110.37,61.6,95.62,58.35,94,58a.45.45,0,0,1-.24-.14l-4-4.42-2-2.16Z"/><path class="cls-8" d="M107.71,70.6C100.63,71.67,93.88,58,93.88,58s-1.32,12.86,2,14"/></g></svg>