<svg xmlns="http://www.w3.org/2000/svg" viewBox="0 0 204 204"><defs><style>.cls-1,.cls-3{fill:#fff;}.cls-1,.cls-2,.cls-6{stroke:#000;}.cls-1,.cls-2{stroke-miterlimit:10;stroke-width:4px;}.cls-2,.cls-6{fill:none;stroke-linecap:round;}.cls-4{fill:#af54a1;}.cls-5{fill:#b1b5dd;}.cls-6{stroke-linejoin:round;stroke-width:2px;}</style></defs><title>Мужские костюмы_1</title><g id="Категории"><rect class="cls-1" x="2" y="2" width="200" height="200" rx="20" ry="20"/><path class="cls-2" d="M160.55,42c0,27.64-26.49,50.06-59.16,50.06S42.23,69.64,42.23,42"/><line class="cls-2" x1="7.58" y1="42" x2="42.23" y2="42"/><line class="cls-2" x1="10.78" y1="62.62" x2="44.24" y2="55.03"/><line class="cls-2" x1="20.16" y1="81.83" x2="50.17" y2="67.17"/><line class="cls-2" x1="35.11" y1="98.34" x2="59.61" y2="77.61"/><line class="cls-2" x1="54.59" y1="111" x2="71.92" y2="85.62"/><line class="cls-2" x1="77.29" y1="118.97" x2="86.26" y2="90.66"/><line class="cls-2" x1="101.65" y1="121.7" x2="101.65" y2="92.39"/><line class="cls-2" x1="126.02" y1="119" x2="117.05" y2="90.69"/><line class="cls-2" x1="148.73" y1="111.06" x2="131.4" y2="85.67"/><line class="cls-2" x1="168.23" y1="98.41" x2="143.73" y2="77.68"/><line class="cls-2" x1="183.2" y1="81.93" x2="153.2" y2="67.27"/><line class="cls-2" x1="192.62" y1="62.72" x2="159.16" y2="55.14"/><line class="cls-2" x1="195.85" y1="42.11" x2="161.2" y2="42.11"/><path d="M47.56,135.93v12.53c0,2.16-.43,3-1.84,3-1.64,0-1.81-1.11-1.81-3v-14c0-1.73.41-2.62,2.46-2.62h1.19c2.13,0,2.27.27,2.89,2.59L53.25,145,56,134.42c.6-2.32.76-2.59,2.89-2.59h1.19c1.84,0,2.46.57,2.46,2.62v14c0,1.72-.11,3-1.81,3-1.49,0-1.84-.92-1.84-3V135.93l-3.05,12.31c-.73,3-1.4,3.24-2.62,3.24-1.51,0-2-.57-2.64-3.24Z"/><path d="M70,151.13,65.6,140a4.45,4.45,0,0,1-.41-1.48,1.74,1.74,0,0,1,1.73-1.65c.78,0,1.32.38,1.86,1.92l3,8.85,2.89-8.21c.81-2.29,1-2.56,2-2.56a1.6,1.6,0,0,1,1.59,1.51,5,5,0,0,1-.43,1.73l-4.7,12.28c-1.26,3.29-2.1,4.46-5.34,4.46-2.08,0-3.13-.54-3.13-1.6a1.2,1.2,0,0,1,1.3-1.24l1.21.08c1.32,0,1.78-.59,2.4-2.13Z"/><path d="M88,145.19c-1.19.06-1.65,1.19-2,1.92l-1.16,2.62c-.7,1.59-1.08,1.78-2.24,1.78S81,151.13,81,150.35a3.72,3.72,0,0,1,.48-1.6l.6-1.13c1.32-2.54,1.94-3.27,3.27-3.64a3.57,3.57,0,0,1-1.87-2.38,5.77,5.77,0,0,0-.75-1.65c-.73-.81-2.84.09-2.84-1.59,0-.73.35-1.29,2.32-1.29,1.79,0,2.76.37,3.78,3.23.81,2.3,1,2.52,2,2.57v-3.78c0-1.48.62-2.24,1.86-2.24.94,0,1.83.59,1.83,2.24v3.78c.92,0,1.19-.3,2-2.57,1-2.91,2.11-3.23,3.7-3.23,2.18,0,2.4.62,2.4,1.29s-.51,1.19-1.57,1.22c-1.32,0-1.45.27-2,2s-1.13,2.08-1.86,2.38c1.27.4,1.92,1,3.29,3.64l.6,1.13a3.63,3.63,0,0,1,.48,1.54c0,.79-.51,1.19-1.56,1.19-1.51,0-1.7-.46-2.27-1.75l-1.16-2.62c-.38-.73-.89-1.86-2-1.92v4c0,1.51-.62,2.27-1.86,2.27-.94,0-1.83-.57-1.83-2.27Z"/><path d="M114.33,147c0,1.89-2.49,4.45-6.45,4.45-4.75,0-7.16-3-7.16-7.23s2.62-7.4,7.21-7.4c3.62,0,6.21,2.4,6.21,4.18a1.56,1.56,0,0,1-1.59,1.54,1.38,1.38,0,0,1-1.24-.67c-1.35-2-2.22-2.3-3.41-2.3-2.29,0-3.59,2-3.59,4.62s1.43,4.59,3.59,4.59A3.53,3.53,0,0,0,111,147c.76-1.19,1.08-1.57,1.81-1.57A1.62,1.62,0,0,1,114.33,147Z"/><path d="M117.33,139.09c0-1.48.62-2.24,1.83-2.24.87,0,1.76.59,1.76,2.24v3.78c.94,0,1.24-.27,2-2.57,1-2.91,2.19-3.23,3.81-3.23,1.91,0,2.07.67,2.07,1.29,0,.78-.48,1.19-1.48,1.22-1.27,0-1.38.32-1.92,2A3.41,3.41,0,0,1,123.7,144c1,.29,2.1,1.32,3,3.13l.78,1.54A3.17,3.17,0,0,1,128,150a1.51,1.51,0,0,1-1.67,1.46c-1,0-1.54-.49-2.13-1.86l-1.11-2.51c-.65-1.49-1.16-1.89-2.13-1.92v4c0,1.51-.6,2.27-1.81,2.27-1,0-1.78-.73-1.78-2.27Z"/><path d="M134.9,146l4.81-7.62c.86-1.34,1.48-1.48,2.16-1.48,1.45,0,2.18.92,2.18,2.75v9.69c0,1.65-.86,2.19-1.81,2.19s-1.75-.57-1.75-2.19v-7.07l-4.88,7.8c-.79,1.27-1.3,1.49-2.08,1.49-1.08,0-2.22-.68-2.22-2.73V139c0-1.65.87-2.19,1.81-2.19s1.78.59,1.78,2.19Z"/><path d="M150.64,145.06c.09,2.67,1.68,4,3.62,4a4.73,4.73,0,0,0,3.4-1.59c.87-.86,1.14-1,1.65-1a1.14,1.14,0,0,1,1.19,1.05c0,1.57-2.35,3.89-6.16,3.89-4.88,0-7.34-3-7.34-7.31s2.62-7.32,7.05-7.32a6.28,6.28,0,0,1,6.64,6.07c0,1.3-.57,2.14-3,2.14ZM157.2,143c-.1-2.37-1.45-3.67-3.26-3.67s-3,1.22-3.3,3.67Z"/><path d="M44.43,179.63c0,1.76-1,2.35-2,2.35-.89,0-1.92-.59-1.92-2.35V164.35c0-1.75,1-2.34,2-2.34s2,.62,2,2.34v6.21a1.71,1.71,0,0,0,1.29-.56c.68-.73,2.27-5,2.7-5.7a4.72,4.72,0,0,1,4-2.08,1.46,1.46,0,0,1,1.65,1.43,1.55,1.55,0,0,1-1.46,1.54c-1.54.22-1.73.59-2.78,3.56a4.56,4.56,0,0,1-2.27,2.95c1.84.56,3,2.51,4.24,5l.89,1.87a5.1,5.1,0,0,1,.62,1.94c0,.89-1,1.51-2,1.51-1.19,0-1.38-.22-2.27-2.19L47.8,177c0-.14-.22-.38-.41-.73l-.51-.92c-1-1.84-1.51-2.13-2.45-2.13Z"/><path d="M69,174.67c0,4.23-2.81,7.31-7.1,7.31-4.64,0-7.26-3.13-7.26-7.31s2.73-7.32,7.18-7.32S69,170.45,69,174.67Zm-3.64,0c0-2.92-1.38-4.65-3.54-4.65s-3.53,1.76-3.53,4.65,1.37,4.64,3.53,4.64S65.38,177.58,65.38,174.67Z"/><path d="M84.76,177.53c0,1.89-2.48,4.45-6.45,4.45-4.75,0-7.15-3-7.15-7.23s2.62-7.4,7.21-7.4c3.61,0,6.2,2.4,6.2,4.18A1.56,1.56,0,0,1,83,173.07a1.41,1.41,0,0,1-1.24-.67c-1.35-2-2.21-2.3-3.4-2.3-2.3,0-3.59,2-3.59,4.62s1.43,4.59,3.59,4.59a3.51,3.51,0,0,0,3.07-1.78c.76-1.19,1.08-1.57,1.81-1.57A1.62,1.62,0,0,1,84.76,177.53Z"/><path d="M94.56,170.27v9.44c0,1.7-.86,2.27-1.8,2.27S91,181.41,91,179.71v-9.44H88c-1.22,0-1.84-.44-1.84-1.33,0-.62.46-1.29,1.84-1.29h9.64c1.21,0,1.83.46,1.83,1.35,0,.62-.51,1.27-1.83,1.27Z"/><path d="M108,173.26a6.69,6.69,0,0,1,7.07-5.91c4.45,0,7.18,3.13,7.18,7.32s-2.7,7.31-7.18,7.31a6.69,6.69,0,0,1-7.1-6.1h-3.16v3.86c0,1.7-.86,2.24-1.81,2.24s-1.78-.73-1.78-2.24V169.59c0-1.7.87-2.24,1.84-2.24s1.75.59,1.75,2.24v3.67Zm10.61,1.41c0-2.89-1.38-4.65-3.54-4.65s-3.54,1.76-3.54,4.65,1.38,4.64,3.54,4.64S118.65,177.58,118.65,174.67Z"/><path d="M133.07,177.42l3-8.21a1.85,1.85,0,0,1,2.13-1.56h1c1.33,0,2,.73,2,2.21V180c0,1.29-.53,1.94-1.61,1.94-.87,0-1.57-.62-1.57-1.94v-7.59l-2.84,7.69c-.62,1.65-1.4,1.84-2.13,1.84-1,0-1.62-.46-2.13-1.94l-2.7-7.59V180c0,1.29-.54,1.94-1.62,1.94-.75,0-1.56-.51-1.56-1.94V169.86c0-1.48.64-2.21,2-2.21h1a1.88,1.88,0,0,1,2.16,1.56Z"/><path d="M148.22,173h3.72c3.91,0,6,1.51,6,4.27,0,2.26-1.45,4.4-6,4.4h-5.13c-1.54,0-2.18-.71-2.18-2.19v-9.85c0-1.62.86-2.27,1.86-2.27s1.73.57,1.73,2.27Zm0,6h3.32c2.32,0,2.75-.92,2.75-1.73,0-1.13-.92-1.7-2.75-1.7h-3.32Zm15.52,0c0,2-.33,3-1.79,3s-1.81-1-1.81-3v-8.69c0-2.24.49-3,1.79-3,1.51,0,1.81,1,1.81,2.94Z"/><path class="cls-3" d="M134.55,58a.88.88,0,0,1-.62,1l-8.29,2.22a.86.86,0,0,1-1.06-.61l-5.65-20.88a.22.22,0,0,0-.43.06v29.7a2.4,2.4,0,0,1-2.4,2.39H99.81V42.81L112.3,24.92a2.47,2.47,0,0,0,.45-1.42,2.43,2.43,0,0,0-.32-1.23,2.52,2.52,0,0,1,.06-2.56l2.21-3.52L121,18.71a8.15,8.15,0,0,1,4.86,5.52Zm-28.91-8a1.16,1.16,0,1,0-1.15,1.15A1.15,1.15,0,0,0,105.64,50Zm0,7.28a1.16,1.16,0,1,0-1.15,1.15A1.15,1.15,0,0,0,105.64,57.31Zm0,7.28a1.16,1.16,0,1,0-1.15,1.15A1.15,1.15,0,0,0,105.64,64.59Z"/><path class="cls-4" d="M114.7,16.19l-2.21,3.52a2.52,2.52,0,0,0-.06,2.56,2.43,2.43,0,0,1,.32,1.23,2.47,2.47,0,0,1-.45,1.42L99.81,42.81V39.9l1.57-4.51,7.47-21.34h0a7.84,7.84,0,0,1,1.64.46Z"/><path class="cls-5" d="M108.85,14.05h0l-7.47,21.34-7.5-21.21a7.64,7.64,0,0,1,2-.25h11.62A8.07,8.07,0,0,1,108.85,14.05Z"/><path d="M104.49,48.88A1.15,1.15,0,1,1,103.33,50,1.15,1.15,0,0,1,104.49,48.88Z"/><path d="M104.49,56.16a1.15,1.15,0,1,1-1.16,1.15A1.15,1.15,0,0,1,104.49,56.16Z"/><path d="M104.49,63.44a1.15,1.15,0,1,1-1.16,1.15A1.15,1.15,0,0,1,104.49,63.44Z"/><path class="cls-4" d="M101.38,35.39,99.81,39.9l-9.4-14.46A2.48,2.48,0,0,1,90.27,23l.38-.77a2.52,2.52,0,0,0-.22-2.58L88,16.19l5.22-1.81a5.75,5.75,0,0,1,.71-.2Z"/><path class="cls-3" d="M99.81,42.81V71.93H86.92a2.39,2.39,0,0,1-2.4-2.39V39.27a.22.22,0,0,0-.43-.06L77.93,60.69a.86.86,0,0,1-1,.61l-8-2a.86.86,0,0,1-.63-1l8.42-34.19a8.13,8.13,0,0,1,5.23-5.74L88,16.19l2.48,3.43a2.52,2.52,0,0,1,.22,2.58l-.38.77a2.48,2.48,0,0,0,.14,2.47l9.4,14.46Z"/><path class="cls-6" d="M93.88,14.18a5.75,5.75,0,0,0-.71.2L88,16.19l-6.07,2.12a8.13,8.13,0,0,0-5.23,5.74L68.23,58.24a.86.86,0,0,0,.63,1l8,2a.86.86,0,0,0,1-.61l6.16-21.48a.22.22,0,0,1,.43.06V69.54a2.39,2.39,0,0,0,2.4,2.39H116.1a2.4,2.4,0,0,0,2.4-2.39V39.84a.22.22,0,0,1,.43-.06l5.65,20.88a.86.86,0,0,0,1.06.61l8.29-2.22a.88.88,0,0,0,.62-1l-8.71-33.77A8.15,8.15,0,0,0,121,18.71l-6.28-2.52-4.21-1.68a7.84,7.84,0,0,0-1.64-.46,8.07,8.07,0,0,0-1.39-.12H95.84A7.64,7.64,0,0,0,93.88,14.18Z"/><path class="cls-6" d="M88,16.19l2.48,3.43a2.52,2.52,0,0,1,.22,2.58l-.38.77a2.48,2.48,0,0,0,.14,2.47l9.4,14.46"/><path class="cls-6" d="M114.7,16.19l-2.21,3.52a2.52,2.52,0,0,0-.06,2.56,2.43,2.43,0,0,1,.32,1.23,2.47,2.47,0,0,1-.45,1.42L99.81,42.81"/><polyline class="cls-6" points="99.81 71.93 99.81 42.81 99.81 39.9"/><polyline class="cls-6" points="108.85 14.05 101.38 35.39 99.81 39.9"/><line class="cls-6" x1="93.88" y1="14.18" x2="101.38" y2="35.39"/></g></svg>