<svg xmlns="http://www.w3.org/2000/svg" viewBox="0 0 204 204"><defs><style>.cls-1,.cls-4{fill:#fff;}.cls-1,.cls-2,.cls-5,.cls-6,.cls-7{stroke:#000;}.cls-1,.cls-2,.cls-5,.cls-7{stroke-miterlimit:10;}.cls-1,.cls-2{stroke-width:4px;}.cls-2,.cls-5,.cls-6,.cls-7{fill:none;}.cls-2,.cls-6{stroke-linecap:round;}.cls-3{fill:#af54a1;}.cls-5,.cls-6{stroke-width:2px;}.cls-6{stroke-linejoin:round;}</style></defs><title>Музыка и артисты</title><g id="Категории"><rect class="cls-1" x="2" y="2" width="200" height="200" rx="20" ry="20"/><path class="cls-2" d="M160.55,42c0,27.64-26.49,50.06-59.16,50.06S42.23,69.64,42.23,42"/><line class="cls-2" x1="7.58" y1="42" x2="42.23" y2="42"/><line class="cls-2" x1="10.78" y1="62.62" x2="44.24" y2="55.03"/><line class="cls-2" x1="20.16" y1="81.83" x2="50.17" y2="67.17"/><line class="cls-2" x1="35.11" y1="98.34" x2="59.61" y2="77.61"/><line class="cls-2" x1="54.59" y1="111" x2="71.92" y2="85.62"/><line class="cls-2" x1="77.29" y1="118.97" x2="86.26" y2="90.66"/><line class="cls-2" x1="101.65" y1="121.7" x2="101.65" y2="92.39"/><line class="cls-2" x1="126.02" y1="119" x2="117.05" y2="90.69"/><line class="cls-2" x1="148.73" y1="111.06" x2="131.4" y2="85.67"/><line class="cls-2" x1="168.23" y1="98.41" x2="143.73" y2="77.68"/><line class="cls-2" x1="183.2" y1="81.93" x2="153.2" y2="67.27"/><line class="cls-2" x1="192.62" y1="62.72" x2="159.16" y2="55.14"/><line class="cls-2" x1="195.85" y1="42.11" x2="161.2" y2="42.11"/><path d="M43.36,135.93v12.53c0,2.16-.43,3-1.84,3-1.64,0-1.8-1.11-1.8-3v-14c0-1.73.4-2.62,2.45-2.62h1.19c2.13,0,2.27.27,2.89,2.59L49.06,145l2.78-10.58c.59-2.32.75-2.59,2.88-2.59h1.19c1.84,0,2.46.57,2.46,2.62v14c0,1.72-.11,3-1.81,3-1.49,0-1.84-.92-1.84-3V135.93l-3,12.31c-.73,3-1.4,3.24-2.61,3.24-1.52,0-2-.57-2.65-3.24Z"/><path d="M65.8,151.13,61.4,140A4.45,4.45,0,0,1,61,138.5a1.74,1.74,0,0,1,1.73-1.65c.78,0,1.32.38,1.86,1.92l3,8.85,2.89-8.21c.81-2.29,1-2.56,2-2.56a1.6,1.6,0,0,1,1.59,1.51,5,5,0,0,1-.43,1.73L69,152.37c-1.27,3.29-2.11,4.46-5.35,4.46-2.08,0-3.13-.54-3.13-1.6a1.2,1.2,0,0,1,1.3-1.24l1.21.08c1.32,0,1.78-.59,2.4-2.13Z"/><path d="M88,147.49c0,2.1-2.06,4-5.92,4s-6-2-6-3.89a1.71,1.71,0,0,1,1.7-1.67c.84,0,1.22.35,1.81,1.46a2.58,2.58,0,0,0,2.46,1.43c1.4,0,2.32-.78,2.32-1.68s-.76-1.7-2.38-1.72c-1,0-1.48-.41-1.48-1.19S81,143,81.89,143A1.9,1.9,0,0,0,84,141.17a1.7,1.7,0,0,0-1.92-1.65,2.23,2.23,0,0,0-2.29,1.57,1.83,1.83,0,0,1-1.62,1.24,1.56,1.56,0,0,1-1.6-1.57c0-1.86,2.35-3.91,5.56-3.91,3.38,0,5.32,1.73,5.32,4.08,0,1.35-.83,2.4-2.48,3.13C87,144.62,88,145.79,88,147.49Z"/><path d="M94.52,142.49h3.73c3.91,0,6,1.51,6,4.27,0,2.26-1.46,4.4-6,4.4H93.12c-1.54,0-2.18-.71-2.18-2.19v-9.85c0-1.62.86-2.27,1.86-2.27s1.72.57,1.72,2.27Zm0,6h3.33c2.32,0,2.75-.92,2.75-1.73,0-1.13-.92-1.7-2.75-1.7H94.52Zm15.53,0c0,2-.33,3-1.79,3s-1.8-1-1.8-3v-8.69c0-2.24.48-3,1.78-3,1.51,0,1.81,1,1.81,2.94Z"/><path d="M113.51,139.09c0-1.48.62-2.24,1.83-2.24.87,0,1.76.59,1.76,2.24v3.78c.94,0,1.24-.27,2.05-2.57,1-2.91,2.19-3.23,3.8-3.23,1.92,0,2.08.67,2.08,1.29,0,.78-.48,1.19-1.48,1.22-1.27,0-1.38.32-1.92,2a3.41,3.41,0,0,1-1.75,2.38c1,.29,2.1,1.32,3,3.13l.78,1.54a3.17,3.17,0,0,1,.46,1.37,1.51,1.51,0,0,1-1.67,1.46c-1,0-1.54-.49-2.13-1.86l-1.11-2.51c-.65-1.49-1.16-1.89-2.13-1.92v4c0,1.51-.6,2.27-1.81,2.27-1,0-1.78-.73-1.78-2.27Z"/><path d="M131.68,151.48c-3.11,0-4.83-1.81-4.83-4.08,0-4.26,4.93-3.94,9.6-5.31,0-2.16-.83-2.78-2.56-2.78s-2.73.46-3.21,1.37c-.57,1.06-.87,1.43-1.7,1.43a1.44,1.44,0,0,1-1.49-1.35c0-1.78,1.89-3.91,6.29-3.91S140,138,140,142.6L140,146c0,2.06.71,3.35.71,4.08a1.61,1.61,0,0,1-1.65,1.43c-.73,0-1.49-.67-2.3-2A8.17,8.17,0,0,1,131.68,151.48Zm2.13-6.53c-2.4.48-3.37.94-3.37,2.21a2.07,2.07,0,0,0,2.34,2,3.88,3.88,0,0,0,2.19-.65c1.4-.91,1.51-1.83,1.51-4.23A16.54,16.54,0,0,1,133.81,145Z"/><path d="M155.14,146l4.8-7.62c.87-1.34,1.49-1.48,2.16-1.48,1.46,0,2.19.92,2.19,2.75v9.69c0,1.65-.86,2.19-1.81,2.19s-1.75-.57-1.75-2.19v-7.07l-4.89,7.8c-.78,1.27-1.29,1.49-2.08,1.49-1.08,0-2.21-.68-2.21-2.73V139c0-1.65.86-2.19,1.81-2.19s1.78.59,1.78,2.19Z"/><path d="M56.41,177.09H48.58l-.91,2.43c-.79,2-1,2.46-2.19,2.46a1.84,1.84,0,0,1-1.86-1.73,6.25,6.25,0,0,1,.54-2l5-12.55c1-2.73,1.46-3.67,3.35-3.67a2.83,2.83,0,0,1,2.75,2L61,178.12a6.71,6.71,0,0,1,.56,2.08A1.92,1.92,0,0,1,59.6,182c-1.16,0-1.43-.4-2.24-2.51Zm-6.83-3h5.81l-3-7.93Z"/><path d="M67.35,169.75a5.81,5.81,0,0,1,4.7-2.4c3.67,0,6,3.16,6,7.48,0,4.07-2.19,7.15-6,7.15a6.23,6.23,0,0,1-4.72-2.24v4.7c0,2.72-.78,2.89-1.78,2.89-1.32,0-1.81-.73-1.81-3v-14.2c0-2,.32-2.78,1.81-2.78,1.19,0,1.78.67,1.78,2Zm3.75.35c-2,0-3.53,1.62-3.53,4.4s1.4,4.73,3.56,4.73c1.94,0,3.29-1.68,3.29-4.48C74.42,171.59,72.86,170.1,71.1,170.1Z"/><path d="M87.68,170.27v9.44c0,1.7-.86,2.27-1.81,2.27s-1.75-.57-1.75-2.27v-9.44h-3c-1.21,0-1.83-.44-1.83-1.33,0-.62.46-1.29,1.83-1.29h9.64c1.21,0,1.83.46,1.83,1.35,0,.62-.51,1.27-1.83,1.27Z"/><path d="M98,176.45l4.8-7.62c.87-1.34,1.49-1.48,2.16-1.48,1.46,0,2.19.92,2.19,2.75v9.69c0,1.65-.87,2.19-1.81,2.19s-1.75-.57-1.75-2.19v-7.07l-4.89,7.8c-.78,1.27-1.3,1.49-2.08,1.49-1.08,0-2.21-.68-2.21-2.73v-9.74c0-1.65.86-2.19,1.81-2.19s1.78.59,1.78,2.19Z"/><path d="M123.64,177.53c0,1.89-2.48,4.45-6.45,4.45-4.75,0-7.15-3-7.15-7.23s2.62-7.4,7.2-7.4c3.62,0,6.21,2.4,6.21,4.18a1.56,1.56,0,0,1-1.59,1.54,1.41,1.41,0,0,1-1.24-.67c-1.35-2-2.22-2.3-3.4-2.3-2.3,0-3.59,2-3.59,4.62s1.43,4.59,3.59,4.59a3.51,3.51,0,0,0,3.07-1.78c.76-1.19,1.08-1.57,1.81-1.57A1.62,1.62,0,0,1,123.64,177.53Z"/><path d="M133.44,170.27v9.44c0,1.7-.86,2.27-1.8,2.27s-1.76-.57-1.76-2.27v-9.44h-3c-1.22,0-1.84-.44-1.84-1.33,0-.62.46-1.29,1.84-1.29h9.63c1.22,0,1.84.46,1.84,1.35,0,.62-.51,1.27-1.84,1.27Z"/><path d="M143.73,173h3.73c3.91,0,6,1.51,6,4.27,0,2.26-1.46,4.4-6,4.4h-5.13c-1.54,0-2.19-.71-2.19-2.19v-9.85c0-1.62.87-2.27,1.86-2.27s1.73.57,1.73,2.27Zm0,6h3.32c2.32,0,2.76-.92,2.76-1.73,0-1.13-.92-1.7-2.76-1.7h-3.32Zm15.52,0c0,2-.32,3-1.78,3s-1.81-1-1.81-3v-8.69c0-2.24.49-3,1.78-3,1.52,0,1.81,1,1.81,2.94Z"/><path class="cls-3" d="M131.34,58.87v1.05A3.19,3.19,0,0,1,128.81,63a.83.83,0,0,0-.57-.24.78.78,0,0,0-.63.31h-2.52a.84.84,0,0,0-.64-.31.81.81,0,0,0-.64.31H121a.78.78,0,0,0-.63-.31.74.74,0,0,0-.34.08,3.11,3.11,0,0,1-1.68-1.55v-.06a.18.18,0,0,0-.1-.16,3.1,3.1,0,0,1-.23-1.18V58.87a3.19,3.19,0,0,1,0-.45.65.65,0,0,0,.3-.55.55.55,0,0,0-.07-.28A3.19,3.19,0,0,1,120,55.92a.78.78,0,0,0,.37.09.84.84,0,0,0,.65-.32h2.82a.82.82,0,0,0,.66.33.84.84,0,0,0,.66-.33h2.48a.82.82,0,0,0,.65.33.8.8,0,0,0,.59-.25A3.19,3.19,0,0,1,131.34,58.87ZM130,60.6V58.19A1.19,1.19,0,0,0,128.83,57h-8.35a1.19,1.19,0,0,0-1.19,1.19V60.6a1.19,1.19,0,0,0,1.19,1.18h8.35A1.19,1.19,0,0,0,130,60.6Z"/><rect class="cls-4" x="119.29" y="57" width="10.73" height="4.79" rx="1.19" ry="1.19"/><path d="M129.07,63.62v.57a.83.83,0,1,1-1.65,0v-.57a.79.79,0,0,1,.19-.52h.54a2.84,2.84,0,0,0,.66-.07A.81.81,0,0,1,129.07,63.62Z"/><path d="M129.07,54.27v.91a.85.85,0,0,1-.24.58,2.58,2.58,0,0,0-.68-.08h-.56a.8.8,0,0,1-.17-.5v-.91a.83.83,0,0,1,1.65,0Z"/><path class="cls-3" d="M90.28,29.81c6.64.33,13.94.36,20.47.12,7.38-.27,13.77-.92,17.16-1.95a.66.66,0,0,1,.83.8,16.79,16.79,0,0,1-3,6.25,6,6,0,0,0-9.32,2.33c-2.81-4-7.24-4.4-10.82,0-2.42-4.43-7.39-4.64-10.39,0-2.83-4.23-7.7-4.45-10.73,0-1.26-3.65-4.75-5.14-9.08-2.33a15.76,15.76,0,0,1-3.21-6.37.67.67,0,0,1,.8-.81C76.88,28.81,83.21,29.46,90.28,29.81Z"/><path d="M128.15,55.68a2.58,2.58,0,0,1,.68.08.8.8,0,0,1-.59.25.82.82,0,0,1-.65-.33Z"/><path d="M128.81,63a2.84,2.84,0,0,1-.66.07h-.54a.78.78,0,0,1,.63-.31A.83.83,0,0,1,128.81,63Z"/><path d="M125.27,63.62v.57a.83.83,0,0,1-.82.83.84.84,0,0,1-.83-.83v-.57a.79.79,0,0,1,.19-.52h1.28A.84.84,0,0,1,125.27,63.62Z"/><path d="M125.27,54.27v.91a.85.85,0,0,1-.16.5h-1.32a.86.86,0,0,1-.17-.5v-.91a.83.83,0,0,1,.83-.82A.82.82,0,0,1,125.27,54.27Z"/><path d="M123.79,55.68h1.32a.84.84,0,0,1-.66.33A.82.82,0,0,1,123.79,55.68Z"/><path d="M125.09,63.1h-1.28a.81.81,0,0,1,.64-.31A.84.84,0,0,1,125.09,63.1Z"/><path class="cls-4" d="M116.41,37.36A6,6,0,0,1,125.73,35c-5.15,6.52-14.8,7.21-25.45,7.2-6.26,0-18.6.25-24.89-7.2,4.33-2.81,7.82-1.32,9.08,2.33,3-4.45,7.9-4.23,10.73,0,3-4.64,8-4.43,10.39,0C109.17,33,113.6,33.4,116.41,37.36Z"/><path d="M121.15,63.62v.57a.83.83,0,1,1-1.65,0v-.57a.82.82,0,0,1,.48-.75,2.87,2.87,0,0,0,1,.23A.8.8,0,0,1,121.15,63.62Z"/><path d="M121.15,54.27v.91a.83.83,0,0,1-.18.51,2.71,2.71,0,0,0-1,.23.82.82,0,0,1-.45-.74v-.91a.83.83,0,0,1,1.65,0Z"/><path d="M121,55.69a.84.84,0,0,1-.65.32.78.78,0,0,1-.37-.09A2.71,2.71,0,0,1,121,55.69Z"/><path d="M120.32,62.79a.78.78,0,0,1,.63.31,2.87,2.87,0,0,1-1-.23A.74.74,0,0,1,120.32,62.79Z"/><path d="M118.3,61.32v.91a.18.18,0,0,1-.18.17H96.26A4,4,0,0,0,97,61.08h21.15l.08,0A1.47,1.47,0,0,0,118.3,61.32Z"/><path d="M118.3,61.26v.06a1.47,1.47,0,0,1-.1-.22A.18.18,0,0,1,118.3,61.26Z"/><path d="M118.23,57.59a.55.55,0,0,1,.07.28.65.65,0,0,1-.3.55A3.29,3.29,0,0,1,118.23,57.59Z"/><path class="cls-4" d="M118.2,61.1l-.08,0H97a3.86,3.86,0,0,0,.21-1.28,4.07,4.07,0,0,0-.2-1.27h20.66a.64.64,0,0,0,.36-.11,3.19,3.19,0,0,0,0,.45v1.05A3.1,3.1,0,0,0,118.2,61.1Z"/><path d="M118.23,57.59a3.29,3.29,0,0,0-.23.83.64.64,0,0,1-.36.11H97s0,0,0,0a4,4,0,0,0-.7-1.29h21.37A.64.64,0,0,1,118.23,57.59Z"/><path class="cls-4" d="M111,27.26a16.6,16.6,0,0,1-.21,2.67c-6.53.24-13.83.21-20.47-.12a16.55,16.55,0,0,1-.2-2.55c0-7.36,4.68-13.33,10.44-13.33S111,19.9,111,27.26Z"/><path class="cls-4" d="M105.26,62.4c0,2.74.33,8.54-6.84,8.54-4.24,0-3.85-2.56-8.08-2.56-2.65,0-3.31,3.55-11.06,3.55-8.15,0-7.84-8.83-7.84-12.54s.55-12,8.33-12c5.45,0,7.93,4,10.81,4s4.45-2.48,8.25-2.48c2.36,0,6.43-.14,6.43,8.3h-9a4.13,4.13,0,1,0,0,5.19ZM82,61.74v-4a1.34,1.34,0,0,0-.4-1,1.36,1.36,0,0,0-2.32,1v4a1.36,1.36,0,0,0,2.72,0Z"/><path d="M97,58.53a4.07,4.07,0,0,1,.2,1.27A3.86,3.86,0,0,1,97,61.08l-.71,1.32a4.13,4.13,0,1,1,0-5.19h0l.7,1.29S97,58.52,97,58.53Z"/><path d="M96.26,62.4,97,61.08A4,4,0,0,1,96.26,62.4Z"/><path d="M97,58.51l-.7-1.29A4,4,0,0,1,97,58.51Z"/><path d="M82,57.78v4a1.36,1.36,0,0,1-2.72,0v-4a1.36,1.36,0,0,1,2.32-1A1.34,1.34,0,0,1,82,57.78Z"/><path class="cls-5" d="M90.28,29.81c-7.07-.35-13.4-1-17.3-2a.67.67,0,0,0-.8.81A15.76,15.76,0,0,0,75.39,35c6.29,7.45,18.63,7.19,24.89,7.2,10.65,0,20.3-.68,25.45-7.2a16.79,16.79,0,0,0,3-6.25.66.66,0,0,0-.83-.8c-3.39,1-9.78,1.68-17.16,1.95C104.22,30.17,96.92,30.14,90.28,29.81Z"/><path class="cls-5" d="M90.28,29.81h0a16.55,16.55,0,0,1-.2-2.55c0-7.36,4.68-13.33,10.44-13.33S111,19.9,111,27.26a16.6,16.6,0,0,1-.21,2.67"/><path class="cls-6" d="M125.73,35a6,6,0,0,0-9.32,2.33c-2.81-4-7.24-4.4-10.82,0-2.42-4.43-7.39-4.64-10.39,0-2.83-4.23-7.7-4.45-10.73,0-1.26-3.65-4.75-5.14-9.08-2.33"/><rect class="cls-7" x="119.29" y="57" width="10.73" height="4.79" rx="1.19" ry="1.19"/><path class="cls-5" d="M105.26,57.21c0-8.44-4.07-8.3-6.43-8.3-3.8,0-5.39,2.48-8.25,2.48s-5.36-4-10.81-4c-7.78,0-8.33,8.31-8.33,12s-.31,12.54,7.84,12.54c7.75,0,8.41-3.55,11.06-3.55,4.23,0,3.84,2.56,8.08,2.56,7.17,0,6.84-5.8,6.84-8.54"/><path class="cls-7" d="M128.81,63a2.84,2.84,0,0,1-.66.07H121a2.87,2.87,0,0,1-1-.23,3.11,3.11,0,0,1-1.68-1.55,1.47,1.47,0,0,1-.1-.22,3.1,3.1,0,0,1-.23-1.18V58.87a3.19,3.19,0,0,1,0-.45,3.29,3.29,0,0,1,.23-.83A3.19,3.19,0,0,1,120,55.92a2.71,2.71,0,0,1,1-.23h7.18a2.58,2.58,0,0,1,.68.08,3.19,3.19,0,0,1,2.51,3.11v1.05A3.19,3.19,0,0,1,128.81,63Z"/></g></svg>