<svg xmlns="http://www.w3.org/2000/svg" xmlns:xlink="http://www.w3.org/1999/xlink" viewBox="0 0 600 400">
  <defs>
    <style>
      .cls-1, .cls-12, .cls-13, .cls-14, .cls-15, .cls-4, .cls-5, .cls-9 {
        fill: none;
      }

      .cls-2 {
        opacity: 0.4;
      }

      .cls-3 {
        fill: #af54a1;
      }

      .cls-14, .cls-15, .cls-4, .cls-5, .cls-9 {
        stroke: #000;
      }

      .cls-12, .cls-13, .cls-15, .cls-17, .cls-4, .cls-5 {
        stroke-miterlimit: 10;
      }

      .cls-12, .cls-13, .cls-14, .cls-17, .cls-4, .cls-5, .cls-9 {
        stroke-width: 2px;
      }

      .cls-13, .cls-14, .cls-5 {
        stroke-linecap: round;
      }

      .cls-6 {
        fill: #ffefbe;
      }

      .cls-7 {
        fill: #51bfb6;
      }

      .cls-17, .cls-19, .cls-8 {
        fill: #fff;
      }

      .cls-14, .cls-9 {
        stroke-linejoin: round;
      }

      .cls-10 {
        fill: #b1b5dd;
      }

      .cls-11 {
        fill: #201600;
      }

      .cls-12, .cls-13 {
        stroke: #201600;
      }

      .cls-16 {
        fill: url(#Реснички_цвет_40);
      }

      .cls-17 {
        stroke: #000105;
      }

      .cls-17, .cls-19 {
        opacity: 0.9;
      }

      .cls-18 {
        fill: #000105;
      }
    </style>
    <pattern id="Реснички_цвет_40" data-name="Реснички цвет 40" width="381.8" height="387" patternUnits="userSpaceOnUse" viewBox="0 0 381.8 387">
      <rect class="cls-1" width="381.8" height="387"/>
      <g class="cls-2">
        <g>
          <path class="cls-3" d="M360.5,353.3c-3.3,10-25.6,18.2-31.6,14.3-2.3,1.1-8,3.5-12.9,2.5a1.8,1.8,0,0,1-1.5-1.3c-5.9-20.4,2.4-34.7,6.1-42.6a1,1,0,0,0-.7-1.3c-4.1-1-7.1-2.4-9.1-5.2a1.5,1.5,0,0,1-.2-1.3,7,7,0,0,1,2.6-3.6,8.9,8.9,0,0,1,10.2-.6.7.7,0,0,0,1.1-.5,8,8,0,0,1,7.1-7,13.3,13.3,0,0,1,4.5.2,1.4,1.4,0,0,1,1.1,1.2c.3,4.1-.2,6.2-2.6,10.3a1.1,1.1,0,0,0,.5,1.4c6.4,2.8,25.7,4.1,36.9,23.8a1.4,1.4,0,0,1-.1,1.1C369.5,348.8,366,351.4,360.5,353.3Z"/>
          <g>
            <path class="cls-4" d="M328.9,367.6c-2.3,1.1-8,3.5-12.9,2.5a1.8,1.8,0,0,1-1.5-1.3c-5.9-20.4,2.4-34.7,6.1-42.6a1,1,0,0,0-.7-1.3c-4.1-1-7.1-2.4-9.1-5.2a1.5,1.5,0,0,1-.2-1.3,7,7,0,0,1,2.6-3.6,8.9,8.9,0,0,1,10.2-.6.7.7,0,0,0,1.1-.5,8,8,0,0,1,7.1-7,13.3,13.3,0,0,1,4.5.2,1.4,1.4,0,0,1,1.1,1.2c.3,4.1-.2,6.2-2.6,10.3a1.1,1.1,0,0,0,.5,1.4c6.4,2.8,25.7,4.1,36.9,23.8a1.4,1.4,0,0,1-.1,1.1c-2.4,4.1-5.9,6.7-11.4,8.6C357.2,363.3,334.9,371.5,328.9,367.6Z"/>
            <path class="cls-5" d="M328.9,367.6c-2.7-7.7-3.5-16.7-2.2-22.9"/>
            <path class="cls-5" d="M360.5,353.3c-1.3-3.8-9-14.2-15-16.7"/>
            <line class="cls-5" x1="313.2" y1="314.8" x2="309.4" y2="306.4"/>
            <line class="cls-5" x1="331.6" y1="306.7" x2="327.7" y2="298.1"/>
          </g>
        </g>
        <g>
          <g>
            <path class="cls-6" d="M179.2,355.5v16.2a2.2,2.2,0,0,1-2.2,2.2h-1.7a3.6,3.6,0,0,1-2-.6l-3-2a3,3,0,0,1-1.4-2.5V358.4a2.8,2.8,0,0,1,1.3-2.3l2.8-1.7a5,5,0,0,1,2.7-.7h1.7A1.8,1.8,0,0,1,179.2,355.5Z"/>
            <path class="cls-7" d="M165.2,342.9a3.3,3.3,0,0,1,3.2-2.5h7.1a3.3,3.3,0,0,1,3.3,3.3v3.1a3.3,3.3,0,0,1-3.3,3.3h-7.1a3.2,3.2,0,0,1-3.1-2.2,4.3,4.3,0,0,1-.2-1.1v-3.1A1.9,1.9,0,0,1,165.2,342.9Z"/>
            <polygon class="cls-8" points="168.9 358.4 168.9 368.8 168.9 370.1 162.4 370.1 162.4 368 162.4 357.1 168.9 357.1 168.9 358.4"/>
            <path class="cls-8" d="M152.7,377.7a9.6,9.6,0,0,0,9.7-9.7h0v11.5a2.7,2.7,0,0,1-2.7,2.7h-6.4a4.3,4.3,0,0,1-4.4-4.4h3.8Z"/>
            <path class="cls-8" d="M162.4,347.9h0a7.2,7.2,0,0,0-1.7-4.9h4.5a1.9,1.9,0,0,0-.1.8v3.1a4.3,4.3,0,0,0,.2,1.1Z"/>
            <path class="cls-8" d="M158.2,349.4l-1.3.6a8.7,8.7,0,0,0-4.2-1H142.2a4.3,4.3,0,0,1,4-4.3h8C156.4,344.7,158.2,347.2,158.2,349.4Z"/>
            <rect class="cls-3" x="133.2" y="356.1" width="13" height="8.46" rx="2.8" ry="2.8"/>
            <path class="cls-8" d="M142.2,349h-4.4c0-2.3,1.8-7.9,7-7.9h12.4a4.7,4.7,0,0,1,3.5,1.8h0a7.2,7.2,0,0,1,1.7,4.9h0v7.6l-.5.2a9.4,9.4,0,0,0-5-5.7l1.3-.6c0-2.2-1.8-4.7-4-4.7h-8A4.3,4.3,0,0,0,142.2,349Z"/>
            <path class="cls-8" d="M140.6,377.7v.8a3.7,3.7,0,0,1-3.7,3.7h-3.5a1.4,1.4,0,0,1-1.4-1.4v-4a9.6,9.6,0,0,0,4.2.9Z"/>
            <path class="cls-8" d="M126.5,358.7V368a9.7,9.7,0,0,0,5.5,8.8,9.6,9.6,0,0,0,4.2.9h16.5a9.6,9.6,0,0,0,9.7-9.7v-9.3a9.8,9.8,0,0,0-5.5-8.7,8.7,8.7,0,0,0-4.2-1H136.2A9.6,9.6,0,0,0,126.5,358.7Zm16.9,5.9H136a2.9,2.9,0,0,1-2.8-2.8v-2.9a2.9,2.9,0,0,1,2.8-2.8h7.4a2.9,2.9,0,0,1,2.8,2.8v2.9A2.9,2.9,0,0,1,143.4,364.6Z"/>
          </g>
          <g>
            <rect class="cls-9" x="133.2" y="356.1" width="13" height="8.46" rx="2.8" ry="2.8"/>
            <path class="cls-9" d="M137.8,349h-1.6a9.6,9.6,0,0,0-9.7,9.7V368a9.7,9.7,0,0,0,5.5,8.8,9.6,9.6,0,0,0,4.2.9h16.5a9.6,9.6,0,0,0,9.7-9.7v-9.3a9.8,9.8,0,0,0-5.5-8.7,8.7,8.7,0,0,0-4.2-1H142.2"/>
            <polyline class="cls-9" points="168.9 358.4 168.9 357.1 162.4 357.1 162.4 368 162.4 370.1 168.9 370.1 168.9 368.8"/>
            <path class="cls-9" d="M162.4,355.5v-7.6h0a7.2,7.2,0,0,0-1.7-4.9h0a4.7,4.7,0,0,0-3.5-1.8H144.8c-5.2,0-7,5.6-7,7.9h4.4a4.3,4.3,0,0,1,4-4.3h8c2.2,0,4,2.5,4,4.7"/>
            <line class="cls-9" x1="162.4" y1="347.9" x2="162.4" y2="347.9"/>
            <line class="cls-9" x1="162.4" y1="347.9" x2="165.3" y2="347.9"/>
            <line class="cls-9" x1="165.3" y1="347.9" x2="165.9" y2="347.9"/>
            <polyline class="cls-9" points="165.7 342.9 165.2 342.9 160.7 342.9"/>
            <path class="cls-9" d="M165.3,347.9a3.2,3.2,0,0,0,3.1,2.2h7.1a3.3,3.3,0,0,0,3.3-3.3v-3.1a3.3,3.3,0,0,0-3.3-3.3h-7.1a3.3,3.3,0,0,0-3.2,2.5,1.9,1.9,0,0,0-.1.8v3.1A4.3,4.3,0,0,0,165.3,347.9Z"/>
            <path class="cls-9" d="M168.9,368.8a3,3,0,0,0,1.4,2.5l3,2a3.6,3.6,0,0,0,2,.6H177a2.2,2.2,0,0,0,2.2-2.2V355.5a1.8,1.8,0,0,0-1.8-1.8h-1.7a5,5,0,0,0-2.7.7l-2.8,1.7a2.8,2.8,0,0,0-1.3,2.3Z"/>
            <path class="cls-9" d="M148.9,377.8a4.3,4.3,0,0,0,4.4,4.4h6.4a2.7,2.7,0,0,0,2.7-2.7v-9.4"/>
            <path class="cls-9" d="M132,376.8v4a1.4,1.4,0,0,0,1.4,1.4h3.5a3.7,3.7,0,0,0,3.7-3.7v-.8"/>
          </g>
        </g>
        <g>
          <g>
            <path class="cls-8" d="M315.3,248.5a21.8,21.8,0,0,0,17.9,25.2,20.9,20.9,0,0,0,7.5-.1h0a21.8,21.8,0,0,0,15-10.5,22.6,22.6,0,0,0,2.7-7.4,21.8,21.8,0,1,0-43.1-7.2Zm29.8,8a11.4,11.4,0,0,1-4.3,1.7h0a11,11,0,0,1-3.5,4,10.3,10.3,0,1,1-11.6-17.1,9.6,9.6,0,0,1,4.2-1.7h0a11.5,11.5,0,0,1,3.5-4.1,10.4,10.4,0,0,1,11.7,17.2Z"/>
            <path class="cls-3" d="M333.4,239.3a10.4,10.4,0,0,1,11.7,17.2,11.4,11.4,0,0,1-4.3,1.7,10.5,10.5,0,0,1-4.3-.3,10.5,10.5,0,0,1-7.6-10.3h0a6.5,6.5,0,0,1,4.1-.5,6.6,6.6,0,0,0,5.1,7.5,6.7,6.7,0,0,0,3.7-.3l1.3-.7a6.5,6.5,0,1,0-7.3-10.8,5.2,5.2,0,0,0-1.1,1h0a9.8,9.8,0,0,0-4.8-.4h0A11.5,11.5,0,0,1,333.4,239.3Z"/>
            <path class="cls-8" d="M377.6,293.3a5,5,0,0,1,.8,3.6l-1,5.7a4.8,4.8,0,0,1-2,3.2l-.8.5a4.5,4.5,0,0,1-3.4.7l-6-1a5.1,5.1,0,0,1-3.1-1.9l-21.4-30.5a21.8,21.8,0,0,0,15-10.5l4.3,6a1.6,1.6,0,0,1,.2,1.6c-1.1,2.5-.1,3,1.6,2.9a2.5,2.5,0,0,1,2.5,3.5c-1.2,2-.5,3.6,2.2,2.7a1.5,1.5,0,0,1,1.7.6l2.6,3.5a1.5,1.5,0,0,1-.1,1.9c-2.3,3-1.5,5.2,3.3,4.1a1.7,1.7,0,0,1,1.6.7Z"/>
            <path class="cls-8" d="M335.8,242.8a6.5,6.5,0,1,1,7.3,10.8l-1.3.7a10.3,10.3,0,0,0-1.7-6.5,10,10,0,0,0-5.4-4h0A5.2,5.2,0,0,1,335.8,242.8Z"/>
            <path class="cls-7" d="M340.1,247.8a10.3,10.3,0,0,1,1.7,6.5,6.7,6.7,0,0,1-3.7.3,6.4,6.4,0,0,0-1-4.8,6.7,6.7,0,0,0-4.1-2.7,6.5,6.5,0,0,0-4.1.5l-.9.5a6.6,6.6,0,0,0-1.7,9.1,6.7,6.7,0,0,0,9.1,1.7,5.2,5.2,0,0,0,1.1-1,10.5,10.5,0,0,0,4.3.3h0a11,11,0,0,1-3.5,4,10.3,10.3,0,1,1-11.6-17.1,9.6,9.6,0,0,1,4.2-1.7,9.8,9.8,0,0,1,4.8.4A10,10,0,0,1,340.1,247.8Z"/>
            <ellipse class="cls-8" cx="335.6" cy="250.8" rx="4.5" ry="1.8" transform="translate(-60.6 387.1) rotate(-55.8)"/>
            <path class="cls-8" d="M328.9,247.6h0a10.5,10.5,0,0,0,7.6,10.3,5.2,5.2,0,0,1-1.1,1,6.7,6.7,0,0,1-9.1-1.7,6.6,6.6,0,0,1,1.7-9.1Z"/>
          </g>
          <g>
            <path class="cls-4" d="M340.7,273.6l21.4,30.5a5.1,5.1,0,0,0,3.1,1.9l6,1a4.5,4.5,0,0,0,3.4-.7l.8-.5a4.8,4.8,0,0,0,2-3.2l1-5.7a5,5,0,0,0-.8-3.6l-2-2.7a1.7,1.7,0,0,0-1.6-.7c-4.8,1.1-5.6-1.1-3.3-4.1a1.5,1.5,0,0,0,.1-1.9l-2.6-3.5a1.5,1.5,0,0,0-1.7-.6c-2.7.9-3.4-.7-2.2-2.7a2.5,2.5,0,0,0-2.5-3.5c-1.7.1-2.7-.4-1.6-2.9a1.6,1.6,0,0,0-.2-1.6l-4.3-6"/>
            <path class="cls-4" d="M340.8,258.2a11,11,0,0,1-3.5,4,10.3,10.3,0,1,1-11.6-17.1,9.6,9.6,0,0,1,4.2-1.7,9.8,9.8,0,0,1,4.8.4,10,10,0,0,1,5.4,4,10.3,10.3,0,0,1,1.7,6.5"/>
            <path class="cls-4" d="M329.9,243.4a11.5,11.5,0,0,1,3.5-4.1,10.4,10.4,0,0,1,11.7,17.2,11.4,11.4,0,0,1-4.3,1.7,10.5,10.5,0,0,1-4.3-.3,10.5,10.5,0,0,1-7.6-10.3"/>
            <path class="cls-4" d="M334.7,243.8a5.2,5.2,0,0,1,1.1-1,6.5,6.5,0,1,1,7.3,10.8l-1.3.7a6.7,6.7,0,0,1-3.7.3,6.6,6.6,0,0,1-5.1-7.5"/>
            <path class="cls-4" d="M336.5,257.9a5.2,5.2,0,0,1-1.1,1,6.7,6.7,0,0,1-9.1-1.7,6.6,6.6,0,0,1,1.7-9.1l.9-.5a6.5,6.5,0,0,1,4.1-.5,6.7,6.7,0,0,1,4.1,2.7,6.4,6.4,0,0,1,1,4.8"/>
            <path class="cls-4" d="M340.7,273.6a20.9,20.9,0,0,1-7.5.1,21.9,21.9,0,1,1,25.2-18,22.6,22.6,0,0,1-2.7,7.4,21.8,21.8,0,0,1-15,10.5Z"/>
            <line class="cls-5" x1="352" y1="277.3" x2="373" y2="307"/>
          </g>
        </g>
        <g>
          <g>
            <path class="cls-6" d="M282.6,132.7a1.4,1.4,0,1,1-2.2,1.7,1.3,1.3,0,0,1,.2-1.9A1.4,1.4,0,0,1,282.6,132.7Z"/>
            <polygon class="cls-3" points="254.9 154.3 252.3 153.8 250.6 155.9 250.5 153.3 248 152.5 250.4 151.4 250.6 148.7 252.3 150.7 254.9 149.9 253.4 152.2 254.9 154.3"/>
            <polygon class="cls-6" points="258.2 135.6 255.6 135.1 254 137.2 253.8 134.6 251.3 133.8 253.8 132.7 253.9 130.1 255.6 132 258.2 131.2 256.8 133.5 258.2 135.6"/>
            <polygon class="cls-3" points="277.6 100.8 275 100.3 273.3 102.5 273.2 99.8 270.7 99 273.1 97.9 273.3 95.3 275 97.2 277.6 96.4 276.1 98.7 277.6 100.8"/>
            <path class="cls-3" d="M255.5,116.3a1.4,1.4,0,0,1-.2,2,1.5,1.5,0,0,1-2-.3,1.4,1.4,0,0,1,.2-2A1.5,1.5,0,0,1,255.5,116.3Z"/>
            <polygon class="cls-7" points="238.4 122.5 235.3 121.9 233.2 124.4 233 121.3 230 120.3 233 119 233.2 115.8 235.2 118.2 238.3 117.2 236.6 119.9 238.4 122.5"/>
            <polygon class="cls-10" points="252.5 100.7 249.9 100.2 248.2 102.4 248.1 99.7 245.6 98.9 248 97.8 248.2 95.2 249.9 97.1 252.5 96.3 251 98.6 252.5 100.7"/>
            <path class="cls-6" d="M223.8,112.4a1.3,1.3,0,0,1-.2,1.9,1.4,1.4,0,0,1-2-.2,1.4,1.4,0,0,1,.3-2A1.2,1.2,0,0,1,223.8,112.4Z"/>
            <path class="cls-7" d="M249,87.3a1.4,1.4,0,0,1-2.2,1.8,1.4,1.4,0,0,1,.3-2A1.3,1.3,0,0,1,249,87.3Z"/>
          </g>
          <g>
            <line class="cls-5" x1="250.6" y1="123.7" x2="232.8" y2="137.6"/>
            <path class="cls-5" d="M250.8,137.8a51.2,51.2,0,0,1-8,8"/>
            <path class="cls-5" d="M257.6,123.6a6,6,0,0,1-.5,3.9"/>
            <path class="cls-5" d="M227.9,122.1l-2.4,1.5"/>
            <path class="cls-5" d="M248.5,116.4a13,13,0,0,0-7.1.1"/>
            <path class="cls-5" d="M264.4,125.4c3.9,5-8.6,21.1-8.6,21.1"/>
            <path class="cls-5" d="M250.3,109.6c-5-6.4-22.3,1.3-22.3,1.3"/>
            <path class="cls-5" d="M268,120.8c16.5,2.5-.3,27.1-.3,27.1"/>
            <path class="cls-5" d="M243.9,96.8a52.4,52.4,0,0,0-12.4,2.4"/>
            <path class="cls-5" d="M256.2,110.3c.9-3.8.4-6.4-1-8.1"/>
            <path class="cls-5" d="M262.6,116.1c25.8-8.5,20.5,12.6,20.5,12.6"/>
            <path class="cls-5" d="M262.4,109.1c11.5-20.3-8.5-20.2-8.5-20.2"/>
            <path class="cls-5" d="M268.4,109.8s16.9-9.5,16,.1"/>
          </g>
        </g>
        <g>
          <g>
            <path class="cls-8" d="M43.1,239.3v.2l-2.6,5.7h0L34.1,253l-2.7,3.4s9.2,6,8.3,13.1a11.3,11.3,0,0,1-9.1,9.7c-3.4.5-10.9-2.3-9-10L25,256.1,13.9,258c-11,1.9-12.8-7-12.8-7s-1.8-8,9.3-9.9c12.9-2.1,12.7,8.1,12.7,8.1l4.8-.9,3-7.8s9.6-16.5,17.8-24.3a1.1,1.1,0,0,1,1.9,1.1C49.2,224.5,45.6,233.5,43.1,239.3ZM5,250.7c.5,2.7,4,4.3,7.8,3.7s6.7-3.4,6.2-6.1-3.9-4.3-7.8-3.6S4.6,248,5,250.7Zm24.5.1a1.1,1.1,0,1,0,.9-1.3A1.1,1.1,0,0,0,29.5,250.8Zm-1.3,24.1c2.4.9,5.3-1.2,6.6-4.7s.4-6.9-1.9-7.8-5.3,1.2-6.6,4.7S25.8,274.1,28.2,274.9Z"/>
            <path class="cls-8" d="M66.7,234.7a1.5,1.5,0,0,0-1.6-2.5l-22,7.1v.2c-1.3,3.1-2.4,5.3-2.6,5.7h0L34.1,253S59.3,242.3,66.7,234.7Z"/>
            <path class="cls-3" d="M19,248.3c-.4-2.6-3.9-4.3-7.8-3.6s-6.6,3.3-6.2,6,4,4.3,7.8,3.7S19.5,251,19,248.3Z"/>
            <path class="cls-11" d="M31.7,250.4a1.1,1.1,0,1,0-.9,1.3A1.1,1.1,0,0,0,31.7,250.4Z"/>
            <path class="cls-6" d="M81.6,246.1a4,4,0,0,0-5.2.6h0L58.8,267.2l9.7,7.2,14.1-23h.1a4.2,4.2,0,0,0,.5-2.9,3.8,3.8,0,0,0-1.6-2.4Z"/>
            <path class="cls-3" d="M32.9,262.4c-2.4-.9-5.3,1.2-6.6,4.7s-.5,7,1.9,7.8,5.3-1.2,6.6-4.7S35.2,263.3,32.9,262.4Z"/>
            <path class="cls-7" d="M68.5,274.4l-9.7-7.2c-.2,0-12.4,14-12.4,14l12.4,9.4C59,290.5,68.5,274.5,68.5,274.4Z"/>
            <path class="cls-3" d="M37.2,296.8a12.9,12.9,0,0,0,3.9,4.7c4.4,3.2,10.6,2.5,11.3,2.3s2.1-1.7,2.5-2.4c1.3-2.6,3.9-10.8,3.9-10.8l-12.4-9.4s-7.3,5-9.3,7.2c-.6.6-1.8,1.6-1.5,3.2a15.1,15.1,0,0,0,1.1,4.2Z"/>
          </g>
          <g>
            <path class="cls-12" d="M40.4,245.2c.2-.4,1.3-2.6,2.6-5.7"/>
            <path class="cls-12" d="M43.1,239.3c2.5-5.8,6.1-14.8,7.5-22a1.1,1.1,0,0,0-1.9-1.1c-8.2,7.8-17.8,24.3-17.8,24.3l-3,7.8-4.8.9s.2-10.2-12.7-8.1C-.7,243,1.1,251,1.1,251s1.8,8.9,12.8,7L25,256.1l-3.4,13.1c-1.9,7.7,5.6,10.5,9,10a11.3,11.3,0,0,0,9.1-9.7c.9-7.1-8.3-13.1-8.3-13.1l2.7-3.4"/>
            <path class="cls-12" d="M25.5,278.2s-1,8.1,4.4,10.5a1.1,1.1,0,0,0,1.4-1.5c-1.9-4-2.2-6.2-1.5-7.9A9.6,9.6,0,0,1,25.5,278.2Z"/>
            <path class="cls-12" d="M26.3,267.1c-1.3,3.4-.5,7,1.9,7.8s5.3-1.2,6.6-4.7.4-6.9-1.9-7.8S27.6,263.6,26.3,267.1Z"/>
            <path class="cls-12" d="M11.2,244.7c-3.9.6-6.6,3.3-6.2,6s4,4.3,7.8,3.7,6.7-3.4,6.2-6.1S15.1,244,11.2,244.7Z"/>
            <path class="cls-12" d="M43.1,239.3l22-7.1a1.5,1.5,0,0,1,1.6,2.5C59.3,242.3,34.1,253,34.1,253l6.3-7.8h0l2.6-5.7Z"/>
            <path class="cls-12" d="M58.8,267.2l17.6-20.4h0a4,4,0,0,1,5.2-.6h0a3.8,3.8,0,0,1,1.6,2.4,4.2,4.2,0,0,1-.5,2.9h-.1l-14.1,23c0,.1-9.5,16.1-9.7,16.2s-2.6,8.2-3.9,10.8c-.4.7-1.1,2.1-2.5,2.4s-6.9.9-11.3-2.3a12.9,12.9,0,0,1-3.9-4.7l-.5-1a15.1,15.1,0,0,1-1.1-4.2c-.3-1.6.9-2.6,1.5-3.2,2-2.2,9.3-7.2,9.3-7.2S58.6,267.2,58.8,267.2Z"/>
            <line class="cls-12" x1="58.8" y1="290.6" x2="46.4" y2="281.2"/>
            <line class="cls-12" x1="68.5" y1="274.4" x2="58.8" y2="267.2"/>
            <line class="cls-13" x1="47.2" y1="303.8" x2="50.5" y2="296.1"/>
            <line class="cls-13" x1="37.2" y1="296.8" x2="40.5" y2="293.8"/>
          </g>
        </g>
        <g>
          <g>
            <path class="cls-8" d="M259.5,6.8,246.2,9.4a2.9,2.9,0,0,1-2-.5l-3.9-3.2a2.1,2.1,0,0,0-2-.5L228.6,7,219,8.9a2.3,2.3,0,0,0-1.9,1l-1.9,4.4a2.5,2.5,0,0,1-1.8,1.4l-13.2,2.6a2.4,2.4,0,0,0-2,2.8l7.1,36.6a2.4,2.4,0,0,0,2.9,1.9l59.3-11.4a2.5,2.5,0,0,0,1.9-2.9L262.3,8.7A2.3,2.3,0,0,0,259.5,6.8Zm-23,41.1a16.9,16.9,0,1,1,13.4-19.8A16.8,16.8,0,0,1,236.5,47.9ZM209.4,27c-1.7.3-3.2-.5-3.5-1.8s.9-2.6,2.6-2.9,3.2.4,3.5,1.7A2.9,2.9,0,0,1,209.4,27Z"/>
            <path class="cls-3" d="M216.7,34.5a16.9,16.9,0,1,0,13.4-19.8A16.8,16.8,0,0,0,216.7,34.5Zm18.7,7.6a11,11,0,1,1-4.2-21.6,11,11,0,0,1,4.2,21.6Z"/>
            <path class="cls-7" d="M231.2,20.5a11,11,0,0,1,4.2,21.6,11,11,0,1,1-4.2-21.6Z"/>
            <ellipse class="cls-11" cx="209" cy="24.6" rx="2.4" ry="3.1" transform="translate(145.1 225.1) rotate(-79.1)"/>
          </g>
          <g>
            <path class="cls-14" d="M249.9,28.1a16.9,16.9,0,1,1-19.8-13.4A16.9,16.9,0,0,1,249.9,28.1Z"/>
            <path class="cls-14" d="M244.1,29.2a10.9,10.9,0,0,1-8.7,12.9,11,11,0,1,1-4.2-21.6A10.9,10.9,0,0,1,244.1,29.2Z"/>
            <path class="cls-12" d="M228.6,7l9.7-1.8a2.1,2.1,0,0,1,2,.5l3.9,3.2a2.9,2.9,0,0,0,2,.5l13.3-2.6a2.3,2.3,0,0,1,2.8,1.9l7.1,36.6a2.5,2.5,0,0,1-1.9,2.9L208.2,59.6a2.4,2.4,0,0,1-2.9-1.9l-7.1-36.6a2.4,2.4,0,0,1,2-2.8l13.2-2.6a2.5,2.5,0,0,0,1.8-1.4l1.9-4.4a2.3,2.3,0,0,1,1.9-1Z"/>
          </g>
        </g>
        <g>
          <g>
            <path class="cls-3" d="M234.4,271.4a13.1,13.1,0,0,0,2,7.4,11.2,11.2,0,0,0,1.9,2.4,13.5,13.5,0,0,0,19.2-19,13.3,13.3,0,0,0-2.4-1.9h0a21.7,21.7,0,0,0-1-9.8,20.2,20.2,0,0,1,9.5,5.6,21.4,21.4,0,1,1-30.4,30.2,22.3,22.3,0,0,1-5-8.1,22.1,22.1,0,0,1-1.2-8.8,21,21,0,0,1,6.3-13.4,20.4,20.4,0,0,1,11.8-6,13.6,13.6,0,0,1,2.6,8.2,12.9,12.9,0,0,0-9.3,3.9A13.1,13.1,0,0,0,234.4,271.4Z"/>
            <path class="cls-7" d="M247.7,258.2a13.6,13.6,0,0,0-2.6-8.2,10.1,10.1,0,0,0-1.3-1.6,13.5,13.5,0,1,0-19.2,19,21.2,21.2,0,0,0,2.4,2,22.1,22.1,0,0,0,1.2,8.8,21.9,21.9,0,0,1-9.6-5.6A21.4,21.4,0,0,1,249,242.4a21.3,21.3,0,0,1-.1,30.3,20.9,20.9,0,0,1-12.5,6.1,13.1,13.1,0,0,1-2-7.4,13.9,13.9,0,0,0,9.3-3.9A13.6,13.6,0,0,0,247.7,258.2Z"/>
          </g>
          <g>
            <path class="cls-4" d="M228.2,278.2a21.9,21.9,0,0,1-9.6-5.6A21.4,21.4,0,0,1,249,242.4a21.3,21.3,0,0,1-.1,30.3,20.9,20.9,0,0,1-12.5,6.1"/>
            <path class="cls-4" d="M254.1,250.5a20.2,20.2,0,0,1,9.5,5.6,21.4,21.4,0,1,1-30.4,30.2,22.3,22.3,0,0,1-5-8.1,22.1,22.1,0,0,1-1.2-8.8,21,21,0,0,1,6.3-13.4,20.4,20.4,0,0,1,11.8-6"/>
            <path class="cls-4" d="M255.1,260.3a13.3,13.3,0,0,1,2.4,1.9,13.5,13.5,0,0,1-19.2,19,11.2,11.2,0,0,1-1.9-2.4,13.5,13.5,0,0,1,2-16.7,12.9,12.9,0,0,1,9.3-3.9h0"/>
            <path class="cls-4" d="M227,269.4a21.2,21.2,0,0,1-2.4-2,13.5,13.5,0,1,1,19.2-19,10.1,10.1,0,0,1,1.3,1.6,13.4,13.4,0,0,1-1.4,17.5,13.9,13.9,0,0,1-9.3,3.9h0"/>
          </g>
        </g>
        <g>
          <g>
            <path class="cls-8" d="M220.6,197.6a2.4,2.4,0,0,1-1.3,2.3c-2.3,1.3-4.4,2.8-7.3,2.8H165.8c-2.8,0-5-1.3-7.3-2.4a3,3,0,0,1-2-2.7c.2-3.8-.6-7.6.5-11.3l.4-.5a1.8,1.8,0,0,0,.7.5c5.5,2.7,10.8,2.8,16.1-.4a4.2,4.2,0,0,1,4.7,0,20.1,20.1,0,0,0,19.3,0,4.4,4.4,0,0,1,4.8,0c5.4,3.2,10.8,3.3,16.4.1l.7.3C221.2,190,220.4,193.8,220.6,197.6Z"/>
            <path class="cls-8" d="M220.6,183.9a2,2,0,0,1-1.2,2.1c-5.6,3.2-11,3.1-16.4-.1a4.4,4.4,0,0,0-4.8,0,20.1,20.1,0,0,1-19.3,0,4.2,4.2,0,0,0-4.7,0c-5.3,3.2-10.6,3.1-16.1.4a1.8,1.8,0,0,1-.7-.5c-1.4-1-1-2.3-.2-3.5s3.3-2.5,5-3.7h.3c.3.5.9.3,1.3.3h51.1C217.2,179.3,220.5,182,220.6,183.9Z"/>
            <path class="cls-8" d="M215.3,164.5v1.7c-.1,4,.4,8-.3,12v.8H163.8c-.4,0-1,.2-1.3-.3h-.3v-.4c-.8-4-.2-8-.3-12a4.8,4.8,0,0,1,0-1.7h.9c5.6,3.1,11.1,3.7,16.5-.7,6,4.2,12.2,4.5,18.4,0,5.3,4.3,10.9,3.9,16.6.7Z"/>
            <path class="cls-8" d="M215.3,164.5h-1c-5.7,3.2-11.3,3.6-16.6-.7-6.2,4.5-12.4,4.2-18.4,0-5.4,4.4-10.9,3.8-16.5.7h-.9c.2-3.1,1.3-5.6,4.9-6.7,1.6-.5,3.2-.2,4.7-.3,4.6-.3,9.2.7,13.7-.7h.3c1.3,1.2,3.5,1.1,5.3,0h1.4c4,1.5,8.1.3,12.1.7,2,.2,4-.3,6,.3C213.9,158.9,215.1,161.4,215.3,164.5Z"/>
            <path class="cls-3" d="M187.9,139.5h1c.9.1,1.4-.6,2-1.1,2.6-1.7,5.1-1.1,7.3.4s2.9,4.7,2.1,7.4a10.3,10.3,0,0,1-3.7,5.3,23.5,23.5,0,0,0-4.3,4,4.7,4.7,0,0,1-1.5,1.3c-1.8,1.1-4,1.2-5.3,0a1.8,1.8,0,0,1-.5-.7c-1.1-2-3-3.1-4.5-4.5a13.6,13.6,0,0,1-3.6-5.1c-1.8-4.3,2-9.4,6.7-9.1C185.3,137.6,186.5,138.8,187.9,139.5Z"/>
          </g>
          <g>
            <path class="cls-14" d="M157,186.3c-1.1,3.7-.3,7.5-.5,11.3a3,3,0,0,0,2,2.7c2.3,1.1,4.5,2.4,7.3,2.4H212c2.9,0,5-1.5,7.3-2.8a2.4,2.4,0,0,0,1.3-2.3c-.2-3.8.6-7.6-.5-11.3"/>
            <path class="cls-14" d="M162.5,178.6c.3.5.9.3,1.3.3h51.1c2.3.3,5.6,3,5.7,4.9a2,2,0,0,1-1.2,2.1c-5.6,3.2-11,3.1-16.4-.1a4.4,4.4,0,0,0-4.8,0,20.1,20.1,0,0,1-19.3,0,4.2,4.2,0,0,0-4.7,0c-5.3,3.2-10.6,3.1-16.1.4a1.8,1.8,0,0,1-.7-.5c-1.4-1-1-2.3-.2-3.5s3.3-2.5,5-3.7"/>
            <path class="cls-14" d="M188.6,139.8l-.7-.3c-1.4-.7-2.6-1.9-4.3-2.1-4.7-.3-8.5,4.8-6.7,9.1a13.6,13.6,0,0,0,3.6,5.1c1.5,1.4,3.4,2.5,4.5,4.5a1.8,1.8,0,0,0,.5.7c1.3,1.2,3.5,1.1,5.3,0a4.7,4.7,0,0,0,1.5-1.3,23.5,23.5,0,0,1,4.3-4,10.3,10.3,0,0,0,3.7-5.3c.8-2.7,0-6-2.1-7.4s-4.7-2.1-7.3-.4c-.6.5-1.1,1.2-2,1.1"/>
            <path class="cls-14" d="M185.2,156.8c-4.5,1.4-9.1.4-13.7.7-1.5.1-3.1-.2-4.7.3-3.6,1.1-4.7,3.6-4.9,6.7a4.8,4.8,0,0,0,0,1.7c.1,4-.5,8,.3,12"/>
            <path class="cls-14" d="M192.2,156.8c4,1.5,8.1.3,12.1.7,2,.2,4-.3,6,.3,3.6,1.1,4.8,3.6,5,6.7v1.7c-.1,4,.4,8-.3,12"/>
            <path class="cls-14" d="M162.8,164.5c5.6,3.1,11.1,3.7,16.5-.7,6,4.2,12.2,4.5,18.4,0,5.3,4.3,10.9,3.9,16.6.7"/>
          </g>
        </g>
        <g>
          <g>
            <path class="cls-6" d="M66,80a.7.7,0,0,0-.7-.2L13.4,100a.6.6,0,0,0-.3.8l14.7,26.6,2,3.7a.5.5,0,0,0,.7.3l53.8-21.1a.6.6,0,0,0,.3-.8Zm-2,20.6L34.9,112a1.5,1.5,0,0,1-1.9-.8h0a1.5,1.5,0,0,1,.9-1.9l29-11.4a1.4,1.4,0,0,1,1.9.9h0A1.5,1.5,0,0,1,64,100.6Z"/>
            <path d="M64.8,98.7h0a1.5,1.5,0,0,1-.8,1.9L34.9,112a1.5,1.5,0,0,1-1.9-.8h0a1.5,1.5,0,0,1,.9-1.9l29-11.4A1.4,1.4,0,0,1,64.8,98.7Z"/>
            <polygon class="cls-10" points="13.1 100.8 27.8 127.4 17.5 131.5 13.1 100.8"/>
          </g>
          <g>
            <path class="cls-5" d="M13.1,100.8a.6.6,0,0,1,.3-.8L65.3,79.8a.7.7,0,0,1,.7.2l18.6,29.5a.6.6,0,0,1-.3.8L30.5,131.4a.5.5,0,0,1-.7-.3l-2-3.7"/>
            <polygon class="cls-14" points="13.1 100.8 17.5 131.5 27.8 127.4 13.1 100.8"/>
          </g>
        </g>
        <g>
          <g>
            <path class="cls-8" d="M37.4,32.9A32,32,0,1,0,69.3,1,31.9,31.9,0,0,0,37.4,32.9Zm46.6,5a5,5,0,1,1,4.9-5A5,5,0,0,1,84,37.9Zm-14.3,0a5,5,0,1,1,4.9-5A5,5,0,0,1,69.7,37.9Zm-15,0a5,5,0,1,1,4.9-5A5,5,0,0,1,54.7,37.9Z"/>
            <path class="cls-10" d="M84,28a5,5,0,1,1-5,4.9A4.9,4.9,0,0,1,84,28Z"/>
            <path class="cls-3" d="M69.7,28a5,5,0,1,1-5,4.9A4.9,4.9,0,0,1,69.7,28Z"/>
            <path class="cls-7" d="M54.7,28a5,5,0,1,1-5,4.9A4.9,4.9,0,0,1,54.7,28Z"/>
          </g>
          <circle class="cls-4" cx="69.3" cy="32.9" r="31.9"/>
        </g>
        <g>
          <g>
            <path class="cls-3" d="M268.3,230.6a15.9,15.9,0,0,1,6-28.6l5.5,31.3A16,16,0,0,1,268.3,230.6Z"/>
            <path class="cls-8" d="M274.3,202a15.1,15.1,0,0,1,12.2,2.6,15.9,15.9,0,0,1-6.7,28.7Z"/>
            <path class="cls-8" d="M323.3,214.6a3.1,3.1,0,0,0,2.4-3.6l-.4-2.4-.3-1.9a3.2,3.2,0,0,0-3.5-2.6c-7.4.9-27.1,2.8-35,.5a15.8,15.8,0,0,1,3.9,22.1C297.4,221,316.1,216.3,323.3,214.6Zm-17.7-3.8a1.5,1.5,0,0,1,1.8,1.3h0a1.6,1.6,0,0,1-1.2,1.8l-5.4.9a1.5,1.5,0,0,1-1.7-1.2h0a1.4,1.4,0,0,1,1.2-1.7Z"/>
            <path d="M299.1,213.5a1.4,1.4,0,0,1,1.2-1.7l5.3-1a1.5,1.5,0,0,1,1.8,1.3h0a1.6,1.6,0,0,1-1.2,1.8l-5.4.9a1.5,1.5,0,0,1-1.7-1.2Z"/>
          </g>
          <g>
            <path class="cls-4" d="M279.8,233.3a15.9,15.9,0,0,1-5.5-31.3,15.1,15.1,0,0,1,12.2,2.6,15.9,15.9,0,0,1-6.7,28.7Z"/>
            <polyline class="cls-4" points="279.8 233.3 279.8 233.3 274.3 202 274.3 202"/>
            <path class="cls-4" d="M325.3,208.6l-.3-1.9a3.2,3.2,0,0,0-3.5-2.6c-7.4.9-27.1,2.8-35,.5"/>
            <path class="cls-14" d="M290.4,226.7c7-5.7,25.7-10.4,32.9-12.1a3.1,3.1,0,0,0,2.4-3.6l-.4-2.4"/>
            <path class="cls-5" d="M325.3,208.6s3.4-.4,10.6-3.2c9.1-3.7,3.3-18-6.8-16.2l-34,5.7c-8.5,1.5-13.5-15.7-3.8-17.4,4.3-.8,17.1-4.1,17.1-4.1"/>
          </g>
        </g>
        <g>
          <g>
            <path class="cls-8" d="M366,105.3a64.2,64.2,0,0,1,4.5,6h0c-1,.3-1.7,2.2-1.7,2.2l-2.4-2.7c-3.9-4.5-2.9.5-8.5-4.2,3.4,5.9-13,10.1-6.6,17.3l2.4,2.8s-1.8.4-2.3,1.3h-.1a41.1,41.1,0,0,1-4.9-4.6c-4.3-4.9-4.5-11.2,2.6-17.4,4.2-3.7,7.2-1.8,7.2-1.8C361,100,363.9,102.9,366,105.3Z"/>
            <path class="cls-8" d="M371.8,112c1,1.1,1.4,2.2.3,3.4,1.8,5.4,2.5,11.6-1.7,15.3s-10.3,2.1-15.4-.4c-1.3,1-2.4.3-3.3-.7a1.3,1.3,0,0,1-.3-1.5c.5-.9,2.3-1.3,2.3-1.3l-2.4-2.8c-6.4-7.2,10-11.4,6.6-17.3,5.6,4.7,4.6-.3,8.5,4.2l2.4,2.7s.7-1.9,1.7-2.2S371.3,111.4,371.8,112Z"/>
            <path class="cls-7" d="M377.1,126.9l3.5,4a.6.6,0,0,1-.2,1l-4.5,1.3h-.1a.8.8,0,0,0-.2-.5l-1.1-1.3-.3-.2h0L376,127A.6.6,0,0,1,377.1,126.9Z"/>
            <path class="cls-7" d="M374.5,131.5l1.1,1.3a.8.8,0,0,1,.2.5,1.1,1.1,0,0,1-.3.7l-2.5,2.2a.8.8,0,0,1-.8.1l-.4-.2-1.1-1.3-.2-.3a1.4,1.4,0,0,1,.3-.9l2.5-2.2a1,1,0,0,1,.9-.1Z"/>
            <path class="cls-7" d="M372.2,136.3v.2l-1.8,4.2a.6.6,0,0,1-1,.1l-3.5-4c-.3-.4-.3-1,.2-1l4.4-1.3h.1l.2.3,1.1,1.3Z"/>
            <path class="cls-8" d="M344.7,138.3a3.3,3.3,0,0,1,2.2,1.1c1,1.2,1.1,2.7.2,3.5s3.2,10.8-.9,14.5-14.9-1.1-14.9-1.1-2.2.4-3.2-.7a3.3,3.3,0,0,1-.8-2.2,3.1,3.1,0,0,1,.5-1l.9-.4-1.5-1.7a1.3,1.3,0,0,1-.1-1.6,45.7,45.7,0,0,0,4.2-7.2c1.1-2.3,1.4-3.5-.1-6.3,1.6,1.1,3.3,2.7,6.4,2.4l3-.3a1.3,1.3,0,0,1,1.4.6l1.1,1.2.3-.3A2.4,2.4,0,0,1,344.7,138.3Z"/>
            <path class="cls-8" d="M342.2,133.1a10.5,10.5,0,0,1,2.5,5.2,2.4,2.4,0,0,0-1.3.5l-.3.3-1.1-1.2a1.3,1.3,0,0,0-1.4-.6l-3,.3c-3.1.3-4.8-1.3-6.4-2.4,1.5,2.8,1.2,4,.1,6.3a45.7,45.7,0,0,1-4.2,7.2,1.3,1.3,0,0,0,.1,1.6l1.5,1.7-.9.4a3.1,3.1,0,0,0-.5,1,10.7,10.7,0,0,1-4.7-3.2,11.4,11.4,0,0,1-2.6-9.7,8.3,8.3,0,0,1,.4-1.5,13.1,13.1,0,0,1,4.1-6.3,12.9,12.9,0,0,1,7.1-3.3l1.2-.2A12,12,0,0,1,342.2,133.1Z"/>
            <path class="cls-3" d="M331,127a3,3,0,0,1,.8.8,4.5,4.5,0,0,1,1,1.4h0l-1.2.2s-5.6-3.5-7-.1a1.9,1.9,0,0,0-2.6.4c-1,.8-1.3,1.3-.7,2.6-3.4.9-.9,6.7-.9,6.7h0a8.3,8.3,0,0,0-.4,1.5h0a5.3,5.3,0,0,1-1.4-1.2l-.7-.9c-1.9-3.2-1-7.7,2.3-10.6S328.1,124.6,331,127Z"/>
            <path class="cls-10" d="M324.6,129.3c1.4-3.4,7,.1,7,.1a12.9,12.9,0,0,0-7.1,3.3,13.1,13.1,0,0,0-4.1,6.3h0s-2.5-5.8.9-6.7c-.6-1.3-.3-1.8.7-2.6A1.9,1.9,0,0,1,324.6,129.3Z"/>
          </g>
          <g>
            <path class="cls-4" d="M374.2,131.2,376,127a.6.6,0,0,1,1.1-.1l3.5,4a.6.6,0,0,1-.2,1l-4.5,1.3"/>
            <path class="cls-4" d="M370.4,134.5l-4.4,1.3c-.5,0-.5.6-.2,1l3.5,4a.6.6,0,0,0,1-.1l1.8-4.2"/>
            <path class="cls-14" d="M351.3,128.1a41.1,41.1,0,0,1-4.9-4.6c-4.3-4.9-4.5-11.2,2.6-17.4,4.2-3.7,7.2-1.8,7.2-1.8,4.8-4.3,7.7-1.4,9.8,1a64.2,64.2,0,0,1,4.5,6"/>
            <path class="cls-4" d="M374.2,131.3a1,1,0,0,0-.9.1l-2.5,2.2a1.4,1.4,0,0,0-.3.9l.2.3,1.1,1.3.4.2a.8.8,0,0,0,.8-.1l2.5-2.2a1.1,1.1,0,0,0,.3-.7.8.8,0,0,0-.2-.5l-1.1-1.3Z"/>
            <path class="cls-14" d="M370.5,111.4c-1,.3-1.7,2.2-1.7,2.2l-2.4-2.7c-3.9-4.5-2.9.5-8.5-4.2,3.4,5.9-13,10.1-6.6,17.3l2.4,2.8s-1.8.4-2.3,1.3a1.3,1.3,0,0,0,.3,1.5c.9,1,2,1.7,3.3.7,5.1,2.5,11.2,4,15.4.4s3.5-9.9,1.7-15.3c1.1-1.2.7-2.3-.3-3.4S370.9,111.3,370.5,111.4Z"/>
            <path class="cls-9" d="M344.7,138.3a2.4,2.4,0,0,0-1.3.5l-.3.3-1.1-1.2a1.3,1.3,0,0,0-1.4-.6l-3,.3c-3.1.3-4.8-1.3-6.4-2.4,1.5,2.8,1.2,4,.1,6.3a45.7,45.7,0,0,1-4.2,7.2,1.3,1.3,0,0,0,.1,1.6l1.5,1.7-.9.4a3.1,3.1,0,0,0-.5,1,3.3,3.3,0,0,0,.8,2.2c1,1.1,2.4,1.4,3.2.7s11.1,4.4,14.9,1.1.9-14.5.9-14.5.8-2.3-.2-3.5A3.3,3.3,0,0,0,344.7,138.3Z"/>
            <path class="cls-9" d="M327.3,153.4a10.7,10.7,0,0,1-4.7-3.2,11.4,11.4,0,0,1-2.6-9.7,8.3,8.3,0,0,1,.4-1.5,13.1,13.1,0,0,1,4.1-6.3,12.9,12.9,0,0,1,7.1-3.3l1.2-.2a12,12,0,0,1,9.4,3.9,10.5,10.5,0,0,1,2.5,5.2"/>
            <path class="cls-9" d="M320,140.5a5.3,5.3,0,0,1-1.4-1.2l-.7-.9c-1.9-3.2-1-7.7,2.3-10.6s7.9-3.2,10.8-.8a3,3,0,0,1,.8.8,4.5,4.5,0,0,1,1,1.4"/>
            <path class="cls-9" d="M317.9,138.4c-5.6,13.7,14,32.4,14,32.4"/>
            <path class="cls-9" d="M331,127h0c14.3-4.2,30.5,18,30.5,18"/>
            <path class="cls-9" d="M320.4,139s-2.5-5.8.9-6.7c-.6-1.3-.3-1.8.7-2.6a1.9,1.9,0,0,1,2.6-.4c1.4-3.4,7,.1,7,.1"/>
          </g>
        </g>
        <g>
          <g>
            <path class="cls-10" d="M52.7,339.6a2.5,2.5,0,0,1,4.4-.3l1.6,2.6a2.3,2.3,0,0,0,2,1.1l3.2.2a2.4,2.4,0,0,1,1.9,1.2c-2-.5-6.3,1.4-6.7,4.7-.1.2-.3.4-.5.3l-.8-.2a3.3,3.3,0,0,0,0-1.4,2.8,2.8,0,0,0-5.4,1.3h0l-1.1-.4a2.6,2.6,0,0,1-1.5-1.7l-.8-3h.8a2.6,2.6,0,0,0,1.7-1.4Z"/>
            <path class="cls-7" d="M42.7,345.6a2.2,2.2,0,0,1-2,.8l-3.3-.2a2.2,2.2,0,0,0-2.1,3.5l1.8,2.6a2.5,2.5,0,0,1,.2,2.2l-1.2,2.8a2.4,2.4,0,0,0,3,3.1l1-.2a2.7,2.7,0,0,0,.7-.8l1.4-2.8a2.5,2.5,0,0,1,4.4,0l1.1,2.2a5.2,5.2,0,0,1,1.7-1.3,1.9,1.9,0,0,1-.8-1.9l.3-3.1a2.1,2.1,0,0,0-.9-1.9l-2.5-2a2.3,2.3,0,0,1,1.1-4L49,344a2.6,2.6,0,0,0-4.3-.8Zm4.6,6.9a2.9,2.9,0,0,1-3,2.7,2.8,2.8,0,0,1-2.6-3,2.8,2.8,0,0,1,2.9-2.6A2.9,2.9,0,0,1,47.3,352.5Z"/>
            <path class="cls-7" d="M46.6,344.6,49,344h0l.8,3a2.6,2.6,0,0,0,1.5,1.7l1.1.4a3.1,3.1,0,0,0,1,1.5,6.3,6.3,0,0,0-2.3,6v.2l-.3.2-1.4.4a1.9,1.9,0,0,1-.8-1.9l.3-3.1a2.1,2.1,0,0,0-.9-1.9l-2.5-2A2.3,2.3,0,0,1,46.6,344.6Z"/>
            <path class="cls-8" d="M54.4,345.8a2.7,2.7,0,0,1,3.4,2,3.3,3.3,0,0,1,0,1.4,6.8,6.8,0,0,0-3.3.7h-.1l-2-.7h0A2.7,2.7,0,0,1,54.4,345.8Z"/>
            <path class="cls-8" d="M59.1,349.1c.4-3.3,4.7-5.2,6.7-4.7a2.1,2.1,0,0,1-.3,2.7l-2.1,2.3a2.5,2.5,0,0,0-.6,2.1l.8,2.9a2.4,2.4,0,0,1-3.3,2.7l-3-1.2a2.7,2.7,0,0,0-2.3.2l-2.7,1.6a2.2,2.2,0,0,1-1.3.4v-.6c0-.2.1-.4.1-.6a2.6,2.6,0,0,1,1-1.3l2.8-1.6a2.3,2.3,0,0,0,.9-2.8,2.7,2.7,0,0,0,2-2l.8.2C58.8,349.5,59,349.3,59.1,349.1Z"/>
            <path class="cls-8" d="M65.8,344.4h.5c.1.1.2.2.2.3-.3,6.2-.9,17-1,18.2a.1.1,0,0,1-.1.1h0l-3.9,4.9h-.2l-13.8,6,4.4-1.9-.5-3.1a2,2,0,0,1,.7-2l2.3-2.1a2.3,2.3,0,0,0-1.3-4l-2.2-.3v-2.7a2.2,2.2,0,0,0,1.3-.4l2.7-1.6a2.7,2.7,0,0,1,2.3-.2l3,1.2a2.4,2.4,0,0,0,3.3-2.7l-.8-2.9a2.5,2.5,0,0,1,.6-2.1l2.1-2.3A2.1,2.1,0,0,0,65.8,344.4Z"/>
            <path class="cls-8" d="M41.7,352.2a2.8,2.8,0,0,1,2.9-2.6,2.9,2.9,0,0,1,2.7,2.9,2.9,2.9,0,0,1-3,2.7A2.8,2.8,0,0,1,41.7,352.2Z"/>
            <path class="cls-7" d="M52.4,349.2l2,.7h.1l-1.1.8A3.1,3.1,0,0,1,52.4,349.2Z"/>
            <path class="cls-8" d="M54.5,349.9a6.8,6.8,0,0,1,3.3-.7,2.7,2.7,0,0,1-2,2A2.7,2.7,0,0,0,54.5,349.9Z"/>
            <path class="cls-8" d="M53.4,350.7l1.1-.8a2.7,2.7,0,0,1,1.3,1.3h0A2.8,2.8,0,0,1,53.4,350.7Z"/>
            <path class="cls-8" d="M53.4,350.7a2.8,2.8,0,0,0,2.4.5h0a2.3,2.3,0,0,1-.9,2.8l-2.8,1.6a2.6,2.6,0,0,0-1,1.3h0v-.2A6.3,6.3,0,0,1,53.4,350.7Z"/>
            <path class="cls-3" d="M42.2,356.6a2.5,2.5,0,0,1,4.4,0l1.1,2.2a7.8,7.8,0,0,0-1.7,2.6l-1.6-1.3a2.4,2.4,0,0,0-2.2-.4l-2.1.5a2.7,2.7,0,0,0,.7-.8Z"/>
            <path class="cls-8" d="M51.1,356.9h0c0,.2-.1.4-.1.6v.6a2.3,2.3,0,0,1-1.6-.6l1.4-.4Z"/>
            <path class="cls-8" d="M49.4,357.5a2.3,2.3,0,0,0,1.6.6v2.7h-1a2.6,2.6,0,0,1-1.9-1.3l-.3-.6A5.2,5.2,0,0,1,49.4,357.5Z"/>
            <path class="cls-3" d="M42.2,359.7a2.4,2.4,0,0,1,2.2.4l1.6,1.3a11.7,11.7,0,0,0-.5,2,2.9,2.9,0,0,0-2-.5,2.7,2.7,0,0,0-2.3,3.2,2.7,2.7,0,0,0,3.1,2.3h.2a4.3,4.3,0,0,0-1.5,4.9l-2.7,1.3a2.4,2.4,0,0,1-3.5-2.4l.6-3a2.7,2.7,0,0,0-.7-2.1L34.4,365a2.2,2.2,0,0,1,1.3-3.9l3.2-.5a2.8,2.8,0,0,0,1.2-.4Z"/>
            <path class="cls-8" d="M47.7,358.8l.3.6a2.6,2.6,0,0,0,1.9,1.3h1a2.5,2.5,0,0,1-4,1.3l-.9-.7A7.8,7.8,0,0,1,47.7,358.8Z"/>
            <path class="cls-8" d="M46,361.4l.9.7a2.5,2.5,0,0,0,4-1.3l2.2.3a2.3,2.3,0,0,1,1.3,4l-2.3,2.1a2,2,0,0,0-.7,2l.5,3.1-4.4,1.9h-.1l-1.9-1a3.1,3.1,0,0,0-2.3,0H43a4.3,4.3,0,0,1,1.5-4.9,2.7,2.7,0,0,0,1-5A11.7,11.7,0,0,1,46,361.4Z"/>
            <path class="cls-8" d="M41.2,366.1a2.7,2.7,0,0,1,2.3-3.2,2.9,2.9,0,0,1,2,.5,5.9,5.9,0,0,0,.6,3.4.6.6,0,0,1-.1.4,15.8,15.8,0,0,0-1.5,1.2h-.2A2.7,2.7,0,0,1,41.2,366.1Z"/>
            <path class="cls-8" d="M45.5,363.4a2.7,2.7,0,0,1-1,5,15.8,15.8,0,0,1,1.5-1.2.6.6,0,0,0,.1-.4A5.9,5.9,0,0,1,45.5,363.4Z"/>
            <path class="cls-8" d="M65.4,363.1h.1s8.4,6.9,11.3,9-1.9,6.7-4.1,5.1-11.3-9-11.3-9h.1l3.9-4.9Z"/>
            <path class="cls-8" d="M43.2,373.2a3.1,3.1,0,0,1,2.3,0l1.9,1-3,1.3H44a9.7,9.7,0,0,1-1-2.1Z"/>
          </g>
          <g>
            <path class="cls-4" d="M61.5,368.1h-.1s8.2,6.8,11.3,9,5.8-3.9,4.1-5.1-11.3-9-11.3-9h-.1"/>
            <path class="cls-14" d="M49,344h.8a2.6,2.6,0,0,0,1.7-1.4l1.2-2.9a2.5,2.5,0,0,1,4.4-.3l1.6,2.6a2.3,2.3,0,0,0,2,1.1l3.2.2a2.4,2.4,0,0,1,1.9,1.2"/>
            <path class="cls-14" d="M52.4,349.2h0a2.8,2.8,0,0,1,5.4-1.3,3.3,3.3,0,0,1,0,1.4"/>
            <path class="cls-14" d="M40.1,360.2l-1,.2a2.4,2.4,0,0,1-3-3.1l1.2-2.8a2.5,2.5,0,0,0-.2-2.2l-1.8-2.6a2.2,2.2,0,0,1,2.1-3.5l3.3.2a2.2,2.2,0,0,0,2-.8l2-2.4a2.6,2.6,0,0,1,4.3.8h0l.8,3a2.6,2.6,0,0,0,1.5,1.7l1.1.4,2,.7h.1"/>
            <path class="cls-14" d="M44.6,349.6a2.9,2.9,0,0,1,2.7,2.9,2.9,2.9,0,0,1-3,2.7,2.8,2.8,0,0,1-2.6-3A2.8,2.8,0,0,1,44.6,349.6Z"/>
            <path class="cls-14" d="M43,373.3l-2.7,1.3a2.4,2.4,0,0,1-3.5-2.4l.6-3a2.7,2.7,0,0,0-.7-2.1L34.4,365a2.2,2.2,0,0,1,1.3-3.9l3.2-.5a2.8,2.8,0,0,0,1.2-.4,2.7,2.7,0,0,0,.7-.8l1.4-2.8a2.5,2.5,0,0,1,4.4,0l1.1,2.2"/>
            <path class="cls-14" d="M44.5,368.4h-.2a2.7,2.7,0,0,1-3.1-2.3,2.7,2.7,0,0,1,2.3-3.2,2.9,2.9,0,0,1,2,.5"/>
            <path class="cls-14" d="M61.5,368.1h-.2l-13.8,6h-.1l-3,1.3H44a9.7,9.7,0,0,1-1-2.1,4.3,4.3,0,0,1,1.5-4.9,15.8,15.8,0,0,1,1.5-1.2.6.6,0,0,0,.1-.4,5.9,5.9,0,0,1-.6-3.4,11.7,11.7,0,0,1,.5-2,7.8,7.8,0,0,1,1.7-2.6,5.2,5.2,0,0,1,1.7-1.3l1.4-.4.3-.2v-.2a6.3,6.3,0,0,1,2.3-6l1.1-.8a6.8,6.8,0,0,1,3.3-.7l.8.2c.2.1.4-.1.5-.3.4-3.3,4.7-5.2,6.7-4.7h.5c.1.1.2.2.2.3-.3,6.2-.9,17-1,18.2a.1.1,0,0,1-.1.1h0Z"/>
            <path class="cls-14" d="M72.8,351.8c1.6,4.9-7.3,11.3-7.3,11.3s9.2-.6,9.6-3.1"/>
          </g>
        </g>
        <g>
          <g>
            <path class="cls-6" d="M56.6,187.3c12.9,7.4,36.9,6.7,44.1,6.3a1.5,1.5,0,0,0,1.3-2c-2.9-6.8-13.1-29.2-25.6-37.4-7.6-5.1-17.1-3.4-24.1,7.9S48.6,182.7,56.6,187.3Zm26.3-20.6L70.1,187.2a.9.9,0,0,1-1.3.3l-12.7-7.9a1.1,1.1,0,0,1-.3-1.3l2.9-4.6a1,1,0,0,0,.1-.9l-.8-1.7a1,1,0,0,1,.2-.9l2.1-3.3,2.1-3.4a.8.8,0,0,1,.7-.4l2-.3a.8.8,0,0,0,.6-.4l2.9-4.6a.9.9,0,0,1,1.3-.3l12.7,7.8A1.1,1.1,0,0,1,82.9,166.7Z"/>
            <path class="cls-8" d="M68.6,157.8l-2.9,4.6a.8.8,0,0,1-.6.4l-2,.3a.8.8,0,0,0-.7.4l-2.1,3.4-2.1,3.3a1,1,0,0,0-.2.9l.8,1.7a1,1,0,0,1-.1.9l-2.9,4.6a1.1,1.1,0,0,0,.3,1.3l12.7,7.9a.9.9,0,0,0,1.3-.3l12.8-20.5a1.1,1.1,0,0,0-.3-1.4l-12.7-7.8A.9.9,0,0,0,68.6,157.8Zm5.8,17.9a6.7,6.7,0,0,1-9.3,2.2,6.8,6.8,0,1,1,7.1-11.5A6.7,6.7,0,0,1,74.4,175.7ZM60.9,178a1,1,0,1,1-1.6-1.1c.3-.5,1-.8,1.4-.5A1.1,1.1,0,0,1,60.9,178Z"/>
            <path class="cls-3" d="M65.1,177.9a6.8,6.8,0,0,0,7.1-11.5,6.8,6.8,0,1,0-7.1,11.5Zm7.3-3.4a4.4,4.4,0,1,1-7.5-4.7,4.4,4.4,0,1,1,7.5,4.7Z"/>
            <path class="cls-7" d="M64.9,169.8a4.4,4.4,0,1,1,7.5,4.7,4.4,4.4,0,1,1-7.5-4.7Z"/>
            <path d="M59.3,176.9c.3-.5,1-.8,1.4-.5a1.1,1.1,0,0,1,.2,1.6,1,1,0,1,1-1.6-1.1Z"/>
          </g>
          <g>
            <path class="cls-14" d="M72.2,166.4a6.8,6.8,0,0,1-7.1,11.5,6.8,6.8,0,1,1,7.1-11.5Z"/>
            <path class="cls-14" d="M71,168.4a4.4,4.4,0,0,1,1.4,6.1,4.4,4.4,0,1,1-7.5-4.7A4.4,4.4,0,0,1,71,168.4Z"/>
            <path class="cls-4" d="M60.3,166.9l2.1-3.4a.8.8,0,0,1,.7-.4l2-.3a.8.8,0,0,0,.6-.4l2.9-4.6a.9.9,0,0,1,1.3-.3l12.7,7.8a1.1,1.1,0,0,1,.3,1.4L70.1,187.2a.9.9,0,0,1-1.3.3l-12.7-7.9a1.1,1.1,0,0,1-.3-1.3l2.9-4.6a1,1,0,0,0,.1-.9l-.8-1.7a1,1,0,0,1,.2-.9Z"/>
            <path class="cls-4" d="M100.1,176c7.7-9.4,15.2-14.6,18.8-12.3s.6,18.5-9.4,34.6S87.4,225,82.6,222s-2.2-11.8,3.2-23.4"/>
            <path class="cls-9" d="M102,191.6a1.5,1.5,0,0,1-1.3,2c-7.2.4-31.2,1.1-44.1-6.3-8-4.6-11.4-13.8-4.3-25.2s16.5-13,24.1-7.9C88.9,162.4,99.1,184.8,102,191.6Z"/>
          </g>
        </g>
        <g>
          <g>
            <path class="cls-8" d="M358.7,26.7a7.6,7.6,0,0,0-5.7-3.8l-6.2-.7-1.1,3.7a2.4,2.4,0,0,0,.6,2.3,2.1,2.1,0,0,1,.6,1,2.3,2.3,0,0,1-.1,1.4l-6.7,19,7.1,25.9,14.5-4a2.2,2.2,0,0,0,1.6-2.7L356,42.3c-.1-.2.2-.3.4-.1l10.1,17.2a.8.8,0,0,0,1.1.3l6.8-4a.7.7,0,0,0,.3-1.1ZM346.3,55.9a1.1,1.1,0,0,1-1.3-.8,1.1,1.1,0,0,1,.7-1.3,1.1,1.1,0,0,1,1.3.8A1.1,1.1,0,0,1,346.3,55.9Zm1.8,6.5a1.1,1.1,0,0,1-1.3-.8,1,1,0,0,1,.7-1.3,1,1,0,0,1,1.3.8A1.1,1.1,0,0,1,348.1,62.4Zm1.7,6.4a1,1,0,0,1-1.3-.7,1.1,1.1,0,0,1,.8-1.3,1.1,1.1,0,0,1,1.3.7A1.1,1.1,0,0,1,349.8,68.8Z"/>
            <path class="cls-3" d="M346.8,22.2l-1.1,3.7a2.4,2.4,0,0,0,.6,2.3,2.1,2.1,0,0,1,.6,1,2.3,2.3,0,0,1-.1,1.4l-6.7,19-.7-2.6.3-4.4,1.4-20.9h1.6Z"/>
            <path class="cls-10" d="M341.1,21.7h0l-1.4,20.9L327.8,25.5l1.7-.7L339.8,22A6.1,6.1,0,0,1,341.1,21.7Z"/>
            <path d="M345.7,53.8a1.1,1.1,0,0,1,1.3.8,1.1,1.1,0,0,1-.7,1.3,1.1,1.1,0,0,1-1.3-.8A1.1,1.1,0,0,1,345.7,53.8Z"/>
            <path d="M347.5,60.3a1,1,0,0,1,1.3.8,1.1,1.1,0,0,1-.7,1.3,1.1,1.1,0,0,1-1.3-.8A1,1,0,0,1,347.5,60.3Z"/>
            <path d="M349.3,66.8a1.1,1.1,0,0,1,1.3.7,1.1,1.1,0,0,1-.8,1.3,1,1,0,0,1-1.3-.7A1.1,1.1,0,0,1,349.3,66.8Z"/>
            <path class="cls-3" d="M339.7,42.6l-.3,4.4L327.5,36.4a2.4,2.4,0,0,1-.8-2.2l.2-.8a2.4,2.4,0,0,0-.9-2.2l-3-2.5,4.2-2.9.6-.3Z"/>
            <path class="cls-8" d="M340.1,49.6l7.1,25.9-11.5,3.2a2.2,2.2,0,0,1-2.7-1.6l-7.4-27a.2.2,0,0,0-.4.1L325,70.8c-.1.5-.4.8-.8.8l-7.7.2a.8.8,0,0,1-.8-.8l-.8-32.5a7.3,7.3,0,0,1,3.2-6.4l4.9-3.4,3,2.5a2.4,2.4,0,0,1,.9,2.2l-.2.8a2.4,2.4,0,0,0,.8,2.2L339.4,47Z"/>
          </g>
          <g>
            <path class="cls-14" d="M327.8,25.5l-.6.3L323,28.7l-4.9,3.4a7.3,7.3,0,0,0-3.2,6.4l.8,32.5a.8.8,0,0,0,.8.8l7.7-.2c.4,0,.7-.3.8-.8l.2-20.6a.2.2,0,0,1,.4-.1l7.4,27a2.2,2.2,0,0,0,2.7,1.6l11.5-3.2,14.5-4a2.2,2.2,0,0,0,1.6-2.7L356,42.3c-.1-.2.2-.3.4-.1l10.1,17.2a.8.8,0,0,0,1.1.3l6.8-4a.7.7,0,0,0,.3-1.1l-16-27.9a7.6,7.6,0,0,0-5.7-3.8l-6.2-.7-4.1-.5h-1.6a6.1,6.1,0,0,0-1.3.3l-10.3,2.8Z"/>
            <path class="cls-14" d="M323,28.7l3,2.5a2.4,2.4,0,0,1,.9,2.2l-.2.8a2.4,2.4,0,0,0,.8,2.2L339.4,47"/>
            <path class="cls-14" d="M346.8,22.2l-1.1,3.7a2.4,2.4,0,0,0,.6,2.3,2.1,2.1,0,0,1,.6,1,2.3,2.3,0,0,1-.1,1.4l-6.7,19"/>
            <polyline class="cls-14" points="347.2 75.5 340.1 49.6 339.4 47"/>
            <polyline class="cls-14" points="341.1 21.7 339.7 42.6 339.4 47"/>
            <line class="cls-14" x1="327.8" y1="25.5" x2="339.7" y2="42.6"/>
          </g>
        </g>
        <g>
          <g>
            <path class="cls-6" d="M165.2,64.9a1.9,1.9,0,0,1,1.8,2.3,4.4,4.4,0,0,1-1.1,2l-2.6,2.6-4.2-1.2h0l-.8-.8h0l3-2.9C162.1,66.1,164.1,64.7,165.2,64.9Z"/>
            <path class="cls-7" d="M175.6,82.2l2.2,2.1a3.1,3.1,0,0,1,0,4.4L174.5,92a3.1,3.1,0,0,1-4.4,0L168,89.8Z"/>
            <path class="cls-8" d="M159.1,70.6h0c1.1,1.2,2.3,2.9,1.1,4.2L135,100.1s-3,2.5-5,.6a17,17,0,0,0,.9,3.5,11.4,11.4,0,0,0,1.9,4l8.3,8.4,7.6-7.6L168,89.8l7.6-7.6-8.5-8.5a9.6,9.6,0,0,0-3.8-1.9Zm0,16.4c-5.2-4,3.6-12.3,6.8-9.1S165.2,91.7,159.1,87Zm-22.3,19.9c-2.6-2.7,5.2-12,9.2-6.8S139.8,109.8,136.8,106.9Z"/>
            <path class="cls-8" d="M130,100.7h-.1a7.3,7.3,0,0,1-1-1.4c-1.7-2.7-4.3-8.2-4.3-10.5,0-4.7,4.3-9.7,8.9-14.3s7.8-7.8,11.3-8.3c6.6-.8,12.9,3.2,12.9,3.2l.6.5.8.8c1.1,1.2,2.3,2.9,1.1,4.2L135,100.1s-3,2.5-5,.6Z"/>
            <path class="cls-3" d="M159.1,87c-5.2-4,3.6-12.3,6.8-9.1S165.2,91.7,159.1,87Z"/>
            <path class="cls-3" d="M136.8,106.9c-2.6-2.7,5.2-12,9.2-6.8S139.8,109.8,136.8,106.9Z"/>
            <path class="cls-7" d="M148.7,109l2.2,2.2a3.1,3.1,0,0,1,0,4.4l-3.2,3.2a3.1,3.1,0,0,1-4.4,0l-2.2-2.2Z"/>
            <path class="cls-6" d="M126,102.2l2.9-3a7.3,7.3,0,0,0,1,1.4h.1a17,17,0,0,0,.9,3.5l-2.6,2.6a4.3,4.3,0,0,1-2.1,1.1,1.9,1.9,0,0,1-2.2-1.8C123.8,105,125.2,103,126,102.2Z"/>
          </g>
          <g>
            <path class="cls-4" d="M130,100.7c2,1.9,5-.6,5-.6l25.2-25.3c1.2-1.3,0-3-1.1-4.2l-.8-.8-.6-.5s-6.3-4-12.9-3.2c-3.5.5-6.7,3.7-11.3,8.3s-8.9,9.6-8.9,14.3c0,2.3,2.6,7.8,4.3,10.5a7.3,7.3,0,0,0,1,1.4h.1"/>
            <path class="cls-14" d="M175.6,82.2l-8.5-8.5a9.6,9.6,0,0,0-3.8-1.9l-4.2-1.2"/>
            <line class="cls-14" x1="148.7" y1="109" x2="168" y2="89.8"/>
            <path class="cls-14" d="M130,100.7a17,17,0,0,0,.9,3.5,11.4,11.4,0,0,0,1.9,4l8.3,8.4"/>
            <path class="cls-4" d="M130,100.7h0"/>
            <path class="cls-14" d="M130,100.6h0"/>
            <path class="cls-4" d="M148.7,109l2.2,2.2a3.1,3.1,0,0,1,0,4.4l-3.2,3.2a3.1,3.1,0,0,1-4.4,0l-2.2-2.2Z"/>
            <path class="cls-4" d="M168,89.8l2.1,2.2a3.1,3.1,0,0,0,4.4,0l3.3-3.3a3.1,3.1,0,0,0,0-4.4l-2.2-2.1Z"/>
            <path class="cls-4" d="M165.9,77.9c-3.2-3.2-12,5.1-6.8,9.1S168.9,80.9,165.9,77.9Z"/>
            <path class="cls-4" d="M136.8,106.9c-2.6-2.7,5.2-12,9.2-6.8S139.8,109.8,136.8,106.9Z"/>
            <path class="cls-4" d="M128.9,99.2l-2.9,3c-.8.8-2.2,2.8-2,3.9a1.9,1.9,0,0,0,2.2,1.8,4.3,4.3,0,0,0,2.1-1.1l2.6-2.6"/>
            <path class="cls-4" d="M158.3,69.8l3-2.9c.8-.8,2.8-2.2,3.9-2a1.9,1.9,0,0,1,1.8,2.3,4.4,4.4,0,0,1-1.1,2l-2.6,2.6h0"/>
          </g>
        </g>
        <g>
          <g>
            <path class="cls-8" d="M184.1,300.8c2.3-.1,4.1.6,4.5,1.8s-2.1,4.2-5.8,5.3-7.2.6-7.8-1.3.8-2.8,2.9-4a2.4,2.4,0,0,0,2.3.6l2.2-.7A2.3,2.3,0,0,0,184.1,300.8Z"/>
            <path class="cls-8" d="M184.1,300.8a2.3,2.3,0,0,1-1.7,1.7l-2.2.7a2.4,2.4,0,0,1-2.3-.6,2.8,2.8,0,0,1-.8-1.1l-10-34-.4-1.1a2.6,2.6,0,0,1,1.7-3.1l2.2-.6a2.5,2.5,0,0,1,3.1,1.7l10.4,35A3.3,3.3,0,0,1,184.1,300.8Z"/>
            <path class="cls-8" d="M167.4,256a3.6,3.6,0,1,1-2.4,4.5A3.6,3.6,0,0,1,167.4,256Z"/>
            <path class="cls-6" d="M161.5,268.3a1.5,1.5,0,0,1-1.8,1.2,1.4,1.4,0,0,1-1-.5v-.2a2,2,0,0,0-1.4-.6h-.5a1.8,1.8,0,0,1,.9-1h.2a1.5,1.5,0,0,0,.8-.8,1.4,1.4,0,0,0,.9,0,1.4,1.4,0,0,0,1-1.7,1.5,1.5,0,0,0-1.8-1,1.3,1.3,0,0,0-.7.6.1.1,0,0,0-.1-.1h-.2a1.8,1.8,0,0,1-.9-1.3v-.2a2.3,2.3,0,0,0-.5-1,1.6,1.6,0,0,1,1-.1h.2a1.5,1.5,0,0,0,1.4-.4h.1V261a1.5,1.5,0,0,1,1.1-.4,1.9,1.9,0,0,1,1.6,1.6v.2a1.6,1.6,0,0,0,.8,1.3h.2a1.7,1.7,0,0,1-.2,3h-.2a1.7,1.7,0,0,0-.9,1.1Z"/>
            <path class="cls-10" d="M158.4,260.1a2.4,2.4,0,0,0,.6,1.1h-.1a1.5,1.5,0,0,1-1.4.4h-.2a1.6,1.6,0,0,0-1,.1,1.6,1.6,0,0,0-2.3,0l-.2.2a1.8,1.8,0,0,1-1.4.4H152v-.2a1.6,1.6,0,0,1,1.8-2.3h.3a1.8,1.8,0,0,0,1.4-.4l.2-.2a1.7,1.7,0,0,1,2.6.3,1.9,1.9,0,0,1,.2.7Z"/>
            <path class="cls-7" d="M155.4,265.2a1.5,1.5,0,0,1-.9,1.8,1.5,1.5,0,0,1-1.8-1,1.4,1.4,0,0,1,1-1.7A1.3,1.3,0,0,1,155.4,265.2Zm-1.4-3.6-.2.2a1.8,1.8,0,0,1-1.4.4h-.3a1.7,1.7,0,0,0-1.8,2.4v.2a1.5,1.5,0,0,1,0,1.6h-.1a1.5,1.5,0,0,0,.1,1.8,1.6,1.6,0,0,0,1.6.7h.2a1.5,1.5,0,0,1,1.4.5l.2.2.3.2a1.6,1.6,0,0,0,2.5-1.1v-.4a1.8,1.8,0,0,1,.9-1h.2a1.5,1.5,0,0,0,.8-.8,1.8,1.8,0,0,0-.6-2.1.1.1,0,0,0-.1-.1h-.2a1.8,1.8,0,0,1-.9-1.3v-.2a2.3,2.3,0,0,0-.5-1A1.6,1.6,0,0,0,154,261.6Z"/>
            <path class="cls-3" d="M146.4,251.7c2.2,7.5-6,17.6-7.7,18.1s-14.2-3.4-16.4-10.9c-1.6-5.5,2.5-11.5,10.3-9.4C138.1,243.5,144.8,246.2,146.4,251.7Z"/>
            <polygon points="137.6 270.4 139.5 269.9 141 271.8 139.2 272.3 137.4 272.9 137.6 270.4"/>
            <path class="cls-7" d="M123.8,273.9a1.4,1.4,0,0,1-.9,1.7,1.5,1.5,0,0,1-1.8-.9,1.4,1.4,0,0,1,1-1.8A1.4,1.4,0,0,1,123.8,273.9Zm1,3.5v-.2a1.6,1.6,0,0,1,.9-1.2h.2a1.8,1.8,0,0,0,1-1.4,1.9,1.9,0,0,0-.9-1.6h-.2a1.6,1.6,0,0,1-.9-1.3v-.2a1.7,1.7,0,0,0-2.8-1h0l-.2.2a1.5,1.5,0,0,1-1.4.4h-.3a1.6,1.6,0,0,0-1.9,1.2h0a2,2,0,0,0,.1,1.1v.2a1.5,1.5,0,0,1,0,1.6v.2a.1.1,0,0,1-.1.1,1.7,1.7,0,0,0,.7,2.1,1.4,1.4,0,0,0,1.1.2h.2a1.6,1.6,0,0,1,1.3.4h.2v.2a1.7,1.7,0,0,0,2.8-.5Z"/>
            <path class="cls-8" d="M134.4,318a1.6,1.6,0,0,1-2.1-2l5.1-20.9a1.8,1.8,0,0,1,1.2-1.3l13.4-3.9a1.5,1.5,0,0,1,1.7.4l15.1,14.9a1.8,1.8,0,0,1-.7,2.9Z"/>
            <path class="cls-10" d="M117.8,269.5a1.5,1.5,0,0,0,1.4-.4l.2-.2a1.7,1.7,0,0,1,2.8,1v.3h0l-.2.2a1.5,1.5,0,0,1-1.4.4h-.3a1.6,1.6,0,0,0-1.9,1.2h0a2,2,0,0,0-.9.5v.2a1.8,1.8,0,0,1-1.4.4h-.1a1.3,1.3,0,0,0-.1-1.2v-.2a1.3,1.3,0,0,1-.1-.6,1.6,1.6,0,0,1,1.9-1.7Z"/>
            <path class="cls-6" d="M119.9,280.6a1.5,1.5,0,0,1-2.2-.1h-.1a1.7,1.7,0,0,0-1.5-.5h-.2a1.6,1.6,0,0,1-1.7-2.4v-.2a1.6,1.6,0,0,0-.1-1.5v-.2a1.8,1.8,0,0,1,.5-2.2,1.6,1.6,0,0,1,1.2-.2h.2a1.8,1.8,0,0,0,1.4-.4v-.2a2,2,0,0,1,.9-.5,2,2,0,0,0,.1,1.1v.2a1.5,1.5,0,0,1,0,1.6v.2a.1.1,0,0,1-.1.1h0a1.4,1.4,0,1,0-.1,2.7,1.2,1.2,0,0,0,.8-.6,1.4,1.4,0,0,0,1.1.2h.2a1.6,1.6,0,0,1,1.3.4c-.1,0-.2,0-.2.1h-.2a1.6,1.6,0,0,0-.9,1.2v.2A1.2,1.2,0,0,1,119.9,280.6Z"/>
            <path class="cls-8" d="M123.7,318.7c2.3-.1,4.1.6,4.4,1.8s-2,4.2-5.8,5.3-7.2.5-7.7-1.3.8-2.8,2.8-4h0a2.6,2.6,0,0,0,2.4.6l2.2-.7A2.6,2.6,0,0,0,123.7,318.7Z"/>
            <path class="cls-8" d="M123.7,318.7a2.6,2.6,0,0,1-1.7,1.7l-2.2.7a2.6,2.6,0,0,1-2.4-.6h0a2.6,2.6,0,0,1-.7-1.1l-10.4-35.1a2.5,2.5,0,0,1,1.7-3.1l2.2-.6a2.4,2.4,0,0,1,3.1,1.7l.3,1.1,10.1,33.9A3.3,3.3,0,0,1,123.7,318.7Z"/>
            <path class="cls-8" d="M107,273.9a3.6,3.6,0,0,1,4.5,2.4,3.5,3.5,0,0,1-2.5,4.5,3.6,3.6,0,0,1-4.5-2.4A3.7,3.7,0,0,1,107,273.9Z"/>
          </g>
          <g>
            <path class="cls-15" d="M116,273.2h-.1a1.3,1.3,0,0,0-.1-1.2v-.2a1.3,1.3,0,0,1-.1-.6,1.6,1.6,0,0,1,1.9-1.7h.3a1.5,1.5,0,0,0,1.4-.4l.2-.2a1.7,1.7,0,0,1,2.8,1v.3h0"/>
            <path class="cls-15" d="M121.7,278c-.1,0-.2,0-.2.1h-.2a1.6,1.6,0,0,0-.9,1.2v.2a1.2,1.2,0,0,1-.5,1,1.5,1.5,0,0,1-2.2-.1h-.1a1.7,1.7,0,0,0-1.5-.5h-.2a1.6,1.6,0,0,1-1.7-2.4v-.2a1.6,1.6,0,0,0-.1-1.5v-.2a1.8,1.8,0,0,1,.5-2.2,1.6,1.6,0,0,1,1.2-.2h.2a1.8,1.8,0,0,0,1.4-.4v-.2a2,2,0,0,1,.9-.5"/>
            <path class="cls-15" d="M118.4,272.1a1.6,1.6,0,0,1,1.9-1.2h.3a1.5,1.5,0,0,0,1.4-.4l.2-.2h0a1.7,1.7,0,0,1,2.8,1v.2a1.6,1.6,0,0,0,.9,1.3h.2a1.9,1.9,0,0,1,.9,1.6,1.8,1.8,0,0,1-1,1.4h-.2a1.6,1.6,0,0,0-.9,1.2v.6a1.7,1.7,0,0,1-2.8.5v-.2h-.2a1.6,1.6,0,0,0-1.3-.4h-.2a1.4,1.4,0,0,1-1.1-.2,1.7,1.7,0,0,1-.7-2.1.1.1,0,0,0,.1-.1V275a1.5,1.5,0,0,0,0-1.6v-.2a2,2,0,0,1-.1-1.1Z"/>
            <path class="cls-15" d="M119.1,277.4a1.2,1.2,0,0,1-.8.6,1.4,1.4,0,0,1-1.7-1,1.4,1.4,0,0,1,1.8-1.7"/>
            <path class="cls-15" d="M123.8,273.9a1.4,1.4,0,0,1-.9,1.7,1.5,1.5,0,0,1-1.8-.9,1.4,1.4,0,0,1,1-1.8A1.4,1.4,0,0,1,123.8,273.9Z"/>
            <path class="cls-15" d="M115.6,271.2a5.3,5.3,0,0,0-2.9-.1c-.2,0-.2.2-.1.2a5,5,0,0,1,2,2.1"/>
            <path class="cls-15" d="M121.3,278.2c2,1.3,2.3,4.4,2.3,5.7h0c0,.1,0,.2-.1.2h-.1a.3.3,0,0,1-.1-.2c-.7-1.2-2.2-3.6-3.4-3.3"/>
            <path class="cls-15" d="M123.6,284.1l.2-.2a6.7,6.7,0,0,0,1-6.1"/>
            <path class="cls-15" d="M123.5,284.2l.7-.3a5.8,5.8,0,0,0,4-5.8c-.1-1.1-.2-2.4-.2-3.6a15.5,15.5,0,0,1,.4-3.7.3.3,0,0,0-.1-.2c-1.5,0-2.4,2.2-2.4,2.2"/>
            <path class="cls-15" d="M159,261.2a2.4,2.4,0,0,1-.6-1.1v-.2a1.9,1.9,0,0,0-.2-.7,1.7,1.7,0,0,0-2.6-.3l-.2.2a1.8,1.8,0,0,1-1.4.4h-.3a1.6,1.6,0,0,0-1.8,2.3v.2h.1"/>
            <path class="cls-15" d="M156.7,268.3h.5a2,2,0,0,1,1.4.6v.2a1.4,1.4,0,0,0,1,.5,1.5,1.5,0,0,0,1.8-1.2V268a1.7,1.7,0,0,1,.9-1.1h.2a1.7,1.7,0,0,0,.2-3h-.2a1.6,1.6,0,0,1-.8-1.3v-.2a1.9,1.9,0,0,0-1.6-1.6,1.5,1.5,0,0,0-1.1.4v.2h-.1a1.5,1.5,0,0,1-1.4.4h-.2a1.6,1.6,0,0,0-1,.1"/>
            <path class="cls-15" d="M156.3,261.6a1.6,1.6,0,0,0-2.3,0l-.2.2a1.8,1.8,0,0,1-1.4.4h-.3a1.7,1.7,0,0,0-1.8,2.4v.2a1.5,1.5,0,0,1,0,1.6h-.1a1.5,1.5,0,0,0,.1,1.8,1.6,1.6,0,0,0,1.6.7h.2a1.5,1.5,0,0,1,1.4.5l.2.2.3.2a1.6,1.6,0,0,0,2.5-1.1v-.4a1.8,1.8,0,0,1,.9-1h.2a1.5,1.5,0,0,0,.8-.8,1.8,1.8,0,0,0-.6-2.1.1.1,0,0,0-.1-.1h-.2a1.8,1.8,0,0,1-.9-1.3v-.2A2.3,2.3,0,0,0,156.3,261.6Z"/>
            <path class="cls-15" d="M158.6,266.4a1.4,1.4,0,0,0,.9,0,1.4,1.4,0,0,0,1-1.7,1.5,1.5,0,0,0-1.8-1,1.3,1.3,0,0,0-.7.6"/>
            <ellipse class="cls-15" cx="154.1" cy="265.6" rx="1.4" ry="1.4" transform="translate(-144.4 337.9) rotate(-73.5)"/>
            <path class="cls-15" d="M158.2,259.2a5,5,0,0,1,2.4-1.6c.1-.1.2.1.1.2a5.3,5.3,0,0,0-.5,2.8"/>
            <path class="cls-15" d="M157.2,268.2c-1,2.2.4,4.9,1.1,6.1h.3v-.3c-.1-1.5-.1-4.3,1.1-4.6"/>
            <path class="cls-15" d="M158.4,274.5h-.3a6.5,6.5,0,0,1-4-4.6"/>
            <path class="cls-15" d="M158.6,274.5l-1,.2a5.7,5.7,0,0,1-6.3-2.7,35.8,35.8,0,0,0-1.8-3.2,15.4,15.4,0,0,0-2.3-2.9c-.1,0-.1-.1,0-.2s3.2.6,3.2.6"/>
            <path class="cls-4" d="M111.5,276.3a3.5,3.5,0,0,1-2.5,4.5,3.6,3.6,0,0,1-4.5-2.4,3.7,3.7,0,0,1,2.5-4.5A3.6,3.6,0,0,1,111.5,276.3Z"/>
            <path class="cls-4" d="M117.4,320.5a2.6,2.6,0,0,1-.7-1.1l-10.4-35.1a2.5,2.5,0,0,1,1.7-3.1l2.2-.6a2.4,2.4,0,0,1,3.1,1.7l.3,1.1,10.1,33.9a3.3,3.3,0,0,1,0,1.4,2.6,2.6,0,0,1-1.7,1.7l-2.2.7a2.6,2.6,0,0,1-2.4-.6"/>
            <path class="cls-4" d="M123.1,318.7h.6c2.3-.1,4.1.6,4.4,1.8s-2,4.2-5.8,5.3-7.2.5-7.7-1.3.8-2.8,2.8-4h0l.4-.2"/>
            <path class="cls-4" d="M171.9,258.4a3.6,3.6,0,1,1-4.5-2.4A3.6,3.6,0,0,1,171.9,258.4Z"/>
            <path class="cls-4" d="M184.1,300.8a2.3,2.3,0,0,1-1.7,1.7l-2.2.7a2.4,2.4,0,0,1-2.3-.6,2.8,2.8,0,0,1-.8-1.1l-10-34-.4-1.1a2.6,2.6,0,0,1,1.7-3.1l2.2-.6a2.5,2.5,0,0,1,3.1,1.7l10.4,35A3.3,3.3,0,0,1,184.1,300.8Z"/>
            <path class="cls-4" d="M183.6,300.8h.5c2.3-.1,4.1.6,4.5,1.8s-2.1,4.2-5.8,5.3-7.2.6-7.8-1.3.8-2.8,2.9-4l.4-.2"/>
            <path class="cls-4" d="M138.6,293.8l13.4-3.9a1.5,1.5,0,0,1,1.7.4l15.1,14.9a1.8,1.8,0,0,1-.7,2.9L134.4,318a1.6,1.6,0,0,1-2.1-2l5.1-20.9A1.8,1.8,0,0,1,138.6,293.8Z"/>
            <path class="cls-4" d="M113.6,283.4a88.8,88.8,0,0,0,9.7.5h.9a60.6,60.6,0,0,0,18.1-2.2,58.7,58.7,0,0,0,15.3-7l.5-.3h.2l.3-.2a64.1,64.1,0,0,0,8.5-6.6"/>
            <path class="cls-4" d="M132.6,249.5c-7.8-2.1-11.9,3.9-10.3,9.4,2.2,7.5,14.6,11.4,16.4,10.9s9.9-10.6,7.7-18.1C144.8,246.2,138.1,243.5,132.6,249.5Z"/>
            <path class="cls-5" d="M139.2,271.7v1.2a5,5,0,0,0,1.2,3.3l.7.9a3.9,3.9,0,0,1,.9,2.6v1.5"/>
          </g>
        </g>
        <g>
          <g>
            <path class="cls-8" d="M268,379a1.2,1.2,0,0,1,.5,1.6l-1.5,2.9a1.3,1.3,0,0,1-1.6.5l-9-4.8a1.2,1.2,0,0,1-.5-1.6l1.5-2.9a1.1,1.1,0,0,1,1.6-.4Z"/>
            <path d="M267.3,376.3l.5-1a1.1,1.1,0,0,1,1.3-.4h.1a1.1,1.1,0,0,1,.4,1.3l-.6,1a.8.8,0,0,1-.4.4l-.3-.2-1.1-.5A1.3,1.3,0,0,1,267.3,376.3Z"/>
            <path d="M268.3,377.4l.3.2h-.9a1.8,1.8,0,0,1-.5-.7Z"/>
            <path d="M263.2,384.6a.6.6,0,0,1,.8,0h0a.7.7,0,0,1,.5.6h-.3Z"/>
            <path d="M262.8,386.9a1,1,0,0,1-.4-1.3l.3-.6a.7.7,0,0,1,.5-.4l1,.5h.3a.8.8,0,0,1-.1.7l-.3.6a1,1,0,0,1-1.3.4Z"/>
            <path d="M265.6,374.1l-.5,1-.4.4h0l-1.4-.7h0a1.3,1.3,0,0,1,.1-.6l.5-1a1.1,1.1,0,0,1,1.3-.4h0A.8.8,0,0,1,265.6,374.1Z"/>
            <path d="M263.3,374.8l1.4.7a1,1,0,0,1-.9,0h0A1.2,1.2,0,0,1,263.3,374.8Z"/>
            <path d="M260.6,383.2l-1.3-.7a1.1,1.1,0,0,1,.8,0h0C260.4,382.7,260.6,382.9,260.6,383.2Z"/>
            <path d="M260.2,384.4a.9.9,0,0,1-1.3.4h0a.9.9,0,0,1-.4-1.3l.3-.6a1,1,0,0,1,.5-.4h0l1.3.7h0a1.3,1.3,0,0,1-.1.6Z"/>
            <path d="M261.4,371.9l-.5.9a1.2,1.2,0,0,1-.5.5h0l-.3-.2a1.7,1.7,0,0,0-1-.3,1.4,1.4,0,0,1,0-.9l.6-.9a.9.9,0,0,1,1.3-.4h0A1.1,1.1,0,0,1,261.4,371.9Z"/>
            <path d="M260.1,373.1l.3.2a.8.8,0,0,1-.8-.1h-.1c-.1-.1-.3-.2-.4-.4A1.7,1.7,0,0,1,260.1,373.1Z"/>
            <path d="M256.3,380.9h-.2l-.9-.6h.7A.7.7,0,0,1,256.3,380.9Z"/>
            <path d="M255.2,380.2l.9.6h.2a.5.5,0,0,1-.1.6l-.3.7a1.1,1.1,0,0,1-1.3.4h0a1,1,0,0,1-.4-1.2l.3-.7A1.3,1.3,0,0,1,255.2,380.2Z"/>
            <path class="cls-3" d="M255.9,377.6l1.5-2.9a1.1,1.1,0,0,1,1.6-.4l9,4.7a1.2,1.2,0,0,1,.5,1.6l-1.5,2.9a1.3,1.3,0,0,1-1.6.5l-9-4.8A1.2,1.2,0,0,1,255.9,377.6Zm.4,3.3h0l3,1.6h0a1.1,1.1,0,0,1,.8,0h0c.3.2.5.4.5.7h0l2.6,1.4a.6.6,0,0,1,.8,0h0a.7.7,0,0,1,.5.6,3.2,3.2,0,0,0,4.1-1.4l1-2.1a3.2,3.2,0,0,0-1-4.1h-.9a1.8,1.8,0,0,1-.5-.7l-2.5-1.4h0a1,1,0,0,1-.9,0h0a1.2,1.2,0,0,1-.5-.7h0l-2.9-1.5h0a.8.8,0,0,1-.8-.1h-.1c-.1-.1-.3-.2-.4-.4a3.1,3.1,0,0,0-2.6.7.7.7,0,0,1-.1.6c0,.1-.1.2-.6.4l-1.1,2-.3.8h.1c.1,0,.1.2.1.3l-.2.4a3.5,3.5,0,0,0,.8,2.2h.7A.7.7,0,0,1,256.3,380.9Z"/>
            <path d="M256.5,373.5a.7.7,0,0,1-.1.6c0,.1-.1.2-.6.4h0Z"/>
            <path d="M254.4,378v-.7h.1c.1,0,.1.2.1.3Z"/>
            <path d="M254.4,377.3v.7l-.3.6h-.3l-13.3-7-9.3-4.9a7.1,7.1,0,0,0,1.4-1Z"/>
            <path d="M256.5,373.5l-.7.9h-.4L234,363.1h0a4.8,4.8,0,0,0,0-1.7h0l9.3,4.9,12.8,6.8A.7.7,0,0,1,256.5,373.5Z"/>
            <path class="cls-8" d="M254.5,345.9c6.2-2.6,10.5.3,11.2,5.9a7,7,0,0,1,10.9,2.7c-8.9,3.9-19.2-.6-30.2-6.5-6.5-3.4-19.4-9.9-21.8-21.1,6-.5,8.8,3,8.1,7.4,5.6-2.9,10.5,0,11.1,5.9C249.4,337,254.5,340,254.5,345.9Z"/>
            <path class="cls-8" d="M265.6,338.4a14.5,14.5,0,0,1-1.7,2.6c-6.8-3.3-14.4-7.3-21.1-11.3L244,327c4.1-7.7,12.2-11.3,18.1-8.1S269.7,330.8,265.6,338.4Z"/>
            <path class="cls-8" d="M254.4,377.3l-21.8-11.6a4,4,0,0,0,1-1.2,4.3,4.3,0,0,0,.4-1.4l21.4,11.3h.4l-1.1,2Z"/>
            <path d="M231.2,366.7l1.4-1A7.1,7.1,0,0,1,231.2,366.7Z"/>
            <path d="M234,363v-1.7A4.8,4.8,0,0,1,234,363Z"/>
            <path d="M231.5,358a4.4,4.4,0,0,1,2.5,3.3h0V363h0a4.3,4.3,0,0,1-.4,1.4,4,4,0,0,1-1,1.2l-1.4,1a5.2,5.2,0,0,1-4.2-.2,4.9,4.9,0,0,1-2-6.5A4.7,4.7,0,0,1,231.5,358Z"/>
            <path d="M214.6,358.8a1.6,1.6,0,0,1-.6-2.1l2.2-4.1a1.5,1.5,0,0,1,2.1-.7h0a1.6,1.6,0,0,1,.7,2.2l-2.2,4.1a1.6,1.6,0,0,1-2.1.7Z"/>
            <path class="cls-3" d="M224.6,326.9a16.8,16.8,0,0,1,.2-8.3.7.7,0,0,1,1.2-.4c3.5,3.1,9.7,7.3,16.8,11.5s14.3,8,21.1,11.3,14.8,6.6,18.9,7.4a.8.8,0,0,1,.4,1.3,20.6,20.6,0,0,1-6.6,4.8,7,7,0,0,0-10.9-2.7c-.7-5.6-5-8.5-11.2-5.9,0-5.9-5.1-8.9-10.7-5.7-.6-5.9-5.5-8.8-11.1-5.9C233.4,329.9,230.6,326.4,224.6,326.9Z"/>
            <path class="cls-8" d="M240.5,371.6l-9.3-4.9a5.2,5.2,0,0,1-4.2-.2,4.9,4.9,0,0,1-2-6.5,4.7,4.7,0,0,1,6.5-2,4.4,4.4,0,0,1,2.5,3.3l9.3,4.9c4.7-8.7.4-10.8-2.1-12.1s-6.9-.4-9.9-1.9-3.3-7.1-9-10c-8-4.3-13.1,4-15.1,7.8s-7.2,12.8,1.2,17.2,10.7,1,13.4,2.4c4.4,2.3,2.6,4.8,6.9,7.1C236.2,380.6,239,374.4,240.5,371.6Zm-25.8-12.7h-.1a1.6,1.6,0,0,1-.6-2.1l2.2-4.1a1.5,1.5,0,0,1,2.1-.7h0a1.6,1.6,0,0,1,.7,2.2l-2.2,4.1A1.6,1.6,0,0,1,214.7,358.9Z"/>
          </g>
          <g>
            <path class="cls-4" d="M242.8,329.7c-7.1-4.2-13.3-8.4-16.8-11.5a.7.7,0,0,0-1.2.4,16.8,16.8,0,0,0-.2,8.3c2.4,11.2,15.3,17.7,21.8,21.1,11,5.9,21.3,10.4,30.2,6.5a20.6,20.6,0,0,0,6.6-4.8.8.8,0,0,0-.4-1.3c-4.1-.8-11.1-3.6-18.9-7.4S249.5,333.7,242.8,329.7Z"/>
            <path class="cls-4" d="M242.8,329.7h0L244,327c4.1-7.7,12.2-11.3,18.1-8.1s7.6,11.9,3.5,19.5a14.5,14.5,0,0,1-1.7,2.6"/>
            <path class="cls-14" d="M276.6,354.5a7,7,0,0,0-10.9-2.7c-.7-5.6-5-8.5-11.2-5.9,0-5.9-5.1-8.9-10.7-5.7-.6-5.9-5.5-8.8-11.1-5.9.7-4.4-2.1-7.9-8.1-7.4"/>
            <path class="cls-15" d="M255.9,377.6l1.5-2.9a1.1,1.1,0,0,1,1.6-.4l9,4.7a1.2,1.2,0,0,1,.5,1.6l-1.5,2.9a1.3,1.3,0,0,1-1.6.5l-9-4.8A1.2,1.2,0,0,1,255.9,377.6Z"/>
            <path class="cls-4" d="M243.3,366.2c4.7-8.7.4-10.8-2.1-12.1s-6.9-.4-9.9-1.9-3.3-7.1-9-10c-8-4.3-13.1,4-15.1,7.8s-7.2,12.8,1.2,17.2,10.7,1,13.4,2.4c4.4,2.3,2.6,4.8,6.9,7.1,7.5,3.9,10.3-2.3,11.8-5.1"/>
            <path class="cls-15" d="M264.5,385.2h-.3l-1-.5-2.6-1.4h0l-1.3-.7h0l-3-1.6h-.2l-.9-.6a3.5,3.5,0,0,1-.8-2.2v-.7l.3-.8,1.1-2h0l.7-.9a3.1,3.1,0,0,1,2.6-.7,1.7,1.7,0,0,1,1,.3l.3.2h0l2.9,1.5h0l1.4.7h0l2.5,1.4,1.1.5.3.2a3.2,3.2,0,0,1,1,4.1l-1,2.1A3.2,3.2,0,0,1,264.5,385.2Z"/>
          </g>
        </g>
      </g>
    </pattern>
  </defs>
  <title>заглушка нет фотографии 2</title>
  <g id="Категории">
    <rect class="cls-1" width="600" height="400"/>
    <g>
      <rect class="cls-16" x="2" y="2" width="596" height="396" rx="18" ry="18"/>
      <path d="M580,4a16,16,0,0,1,16,16V380a16,16,0,0,1-16,16H20A16,16,0,0,1,4,380V20A16,16,0,0,1,20,4H580m0-4H20A20.1,20.1,0,0,0,0,20V380a20.1,20.1,0,0,0,20,20H580a20.1,20.1,0,0,0,20-20V20A20.1,20.1,0,0,0,580,0Z"/>
    </g>
  </g>
  <g id="Заглушка_нет_фотографии" data-name="Заглушка нет фотографии">
    <g>
      <rect class="cls-17" x="63.8" y="25.8" width="472.3" height="181.04" rx="12" ry="12"/>
      <path class="cls-18" d="M254.4,103H221.9a2.3,2.3,0,0,0-2.3,2.3,52.3,52.3,0,1,1-104.6,0,2.3,2.3,0,0,0-2.3-2.3h-32a2.3,2.3,0,0,0,0,4.6h29.7a58.1,58.1,0,0,0,1.4,10.3l-28.7,7.7a2.3,2.3,0,0,0-1.7,2.8,2.5,2.5,0,0,0,2.3,1.7h.6l28.7-7.7a56.3,56.3,0,0,0,4,9.5L91.2,146.7a2.3,2.3,0,0,0,1.1,4.3,2.7,2.7,0,0,0,1.2-.3l25.8-14.9a62.6,62.6,0,0,0,6.3,8.1L104.5,165a2.4,2.4,0,0,0,0,3.3,2,2,0,0,0,1.6.7,2.3,2.3,0,0,0,1.7-.7l21.1-21.1a55.2,55.2,0,0,0,8.2,6.2l-15,25.9a2.3,2.3,0,0,0,.9,3.2,2,2,0,0,0,1.1.3,2.2,2.2,0,0,0,2-1.2l15-25.9a52.7,52.7,0,0,0,9.5,3.9l-7.8,29a2.3,2.3,0,0,0,1.7,2.8h.6a2.3,2.3,0,0,0,2.2-1.7l7.8-29a54.7,54.7,0,0,0,10.1,1.3v30a2.3,2.3,0,0,0,2.3,2.4,2.4,2.4,0,0,0,2.4-2.4v-30a68.2,68.2,0,0,0,10.1-1.4l7.8,29.1a2.3,2.3,0,0,0,2.2,1.7h.6a2.3,2.3,0,0,0,1.7-2.8l-7.8-29.1a64.7,64.7,0,0,0,9.4-4L209,181.7a2.4,2.4,0,0,0,2,1.2,2,2,0,0,0,1.1-.3,2.4,2.4,0,0,0,.9-3.2l-15.1-26.2a59.1,59.1,0,0,0,8-6.2l21.4,21.4a2.8,2.8,0,0,0,1.7.7,2.4,2.4,0,0,0,1.6-4l-21.4-21.4a62,62,0,0,0,6.2-8.1l26.2,15.2,1.2.3a2.3,2.3,0,0,0,1.1-4.3l-26.2-15.2a51.7,51.7,0,0,0,3.9-9.4l29.3,7.9h.6a2.2,2.2,0,0,0,2.2-1.7,2.3,2.3,0,0,0-1.6-2.8l-29.3-7.9a54.7,54.7,0,0,0,1.3-10h30.3a2.4,2.4,0,1,0,0-4.7Z"/>
      <path class="cls-18" d="M132.3,56.2c0-8.3,4.4-11,11-11h31.3c22.3,0,28.2,12.3,28.2,22.9,0,9-5.2,17.8-14.2,19.8v.3c9.7,1.3,11.4,8.3,11.4,16.7s2.5,13,2.5,16.9-4.5,7.3-8.8,7.3c-10.3,0-11.1-9.9-11.1-13.2,0-14.5-2.7-20.3-13-20.3H151.1v24.1c0,5.7-3.7,9.4-9.4,9.4s-9.4-3.7-9.4-9.4Zm18.8,25.7h18.8c7.1,0,14.2-1.9,14.2-11.1s-5.4-11.1-13.7-11.1H151.1Z"/>
      <path class="cls-18" d="M222.3,54.3c0-4.5,2.4-5.9,6-5.9h23.9c3,0,5.2.8,5.2,4.1s-2.2,4.1-5.2,4.1H232.5v9.7h17.3c2.7,0,4.8.7,4.8,3.9s-2.1,3.9-4.8,3.9H232.5V84.9h20.2c3,0,5.2.9,5.2,4.1s-2.2,4.1-5.2,4.1H228.3c-3.6,0-6-1.4-6-5.9Z"/>
      <path class="cls-18" d="M288.1,67.2c9.3,2.1,11.7,7.7,11.7,12.9,0,8.1-6.1,14.1-18.4,14.1s-18.7-6.5-18.7-11.3a4.1,4.1,0,0,1,4.3-4.2c5.5,0,4.1,8,14.4,8,5.3,0,8.2-2.9,8.2-5.9s-.9-3.8-4.4-4.6l-11.5-3c-9.2-2.3-10.9-7.4-10.9-12.2,0-10,9.2-13.7,17.8-13.7S298,51.8,298,57.8c0,2.5-2.2,4-4.7,4-4.7,0-3.8-6.7-13.3-6.7-4.8,0-7.4,2.2-7.4,5.3s3.8,4.1,7,4.9Z"/>
      <path class="cls-18" d="M307.1,53.5c0-4.2,2-5.9,6.4-5.9a5.8,5.8,0,0,1,5.1,2.6L336.4,79h.1V52.5c0-3.3,1.9-4.9,5-4.9s4.9,1.6,4.9,4.9V87.6c0,4.1-1.8,6.4-6.1,6.4s-4.3-.7-5.6-2.8L317,63.2h-.1V89c0,3.3-1.9,5-4.9,5s-4.9-1.7-4.9-5Z"/>
      <path class="cls-18" d="M355,64.4c0-2.5,1-4.6,4.5-4.6s4.6,2.1,4.6,4.6v25c0,2.4-1,4.6-4.6,4.6s-4.5-2.2-4.5-4.6Z"/>
      <path class="cls-18" d="M393.4,47.3c11.7,0,18.1,7.4,18.1,11.7s-1.6,4.6-4.6,4.6c-5.9,0-4.2-8.1-13.5-8.1-6.4,0-11.7,5.6-11.7,15.3,0,8.1,3.2,15.2,12,15.2s7.9-8.6,12.8-8.6c2.5,0,5,1.4,5,3.9,0,6.5-7.9,12.9-17.8,12.9-13.9,0-22.2-8-22.2-23.4C371.5,58.1,378.9,47.3,393.4,47.3Z"/>
      <path class="cls-18" d="M417.8,52.7a5.1,5.1,0,0,1,10.2,0V65.3h18.5V52.7a5.1,5.1,0,1,1,10.2,0V88.9a5.1,5.1,0,1,1-10.2,0v-15H428v15a5.1,5.1,0,0,1-10.2,0Z"/>
      <path class="cls-18" d="M466.2,52.7a5.1,5.1,0,1,1,10.2,0V67.5l16-17.7c1.2-1.2,2.3-2.2,4.1-2.2s4.8,1.5,4.8,4.1a4.5,4.5,0,0,1-1.7,3.4L489.2,66.2,501.6,85c.9,1.4,1.9,2.7,1.9,4,0,3.8-2.8,5-5.2,5s-3.2-.5-4.6-2.7L482,73.1l-5.6,5.6V88.9a5.1,5.1,0,1,1-10.2,0Z"/>
      <path class="cls-18" d="M508.2,64.4c0-2.5.9-4.6,4.5-4.6s4.5,2.1,4.5,4.6v25c0,2.4-1,4.6-4.5,4.6s-4.5-2.2-4.5-4.6Z"/>
      <path class="cls-18" d="M366.8,49a.6.6,0,0,0,0-1.2h-2.7c-.3,0-.5.2-.5.6a4,4,0,0,1-4,3.9,3.9,3.9,0,0,1-3.9-3.9.6.6,0,0,0-.6-.6h-2.7c-.3,0-.5.2-.5.6a.5.5,0,0,0,.5.5h2.2v.2l-2.1.6a.6.6,0,0,0-.4.7.7.7,0,0,0,.6.4h.1l2.1-.6v.2l-1.8,1.1a.5.5,0,0,0-.2.8l.5.2h.3l1.8-1.1h.1L354.1,53a.7.7,0,0,0,0,.9h.9l1.5-1.5a.1.1,0,0,1,.1.1l-1.1,1.8a.8.8,0,0,0,.2.8h.3a.5.5,0,0,0,.5-.3l1.1-1.8h.2l-.6,2.1a.6.6,0,0,0,.4.7h.2c.2,0,.5-.2.5-.4l.6-2.1h.2v2.2a.6.6,0,0,0,.5.6.6.6,0,0,0,.6-.6V53.4h.2l.5,2.1a.7.7,0,0,0,.6.4h.1a.6.6,0,0,0,.5-.7l-.6-2.1h.2l1,1.9a.5.5,0,0,0,.5.3h.3a.5.5,0,0,0,.2-.8l-1-1.9h.1l1.5,1.6h.8c.3-.3.3-.6,0-.8l-1.5-1.6h.1l1.9,1.1h.3a.5.5,0,0,0,.5-.3.7.7,0,0,0-.2-.8l-1.9-1.1c0-.1,0-.1.1-.2l2,.6h.2a.6.6,0,0,0,.6-.4.8.8,0,0,0-.5-.7l-2.1-.6a.1.1,0,0,0,.1-.1Z"/>
      <path class="cls-18" d="M519.9,48.3a.6.6,0,1,0,0-1.2h-2.7a.6.6,0,0,0-.6.6,4,4,0,1,1-7.9,0,.6.6,0,0,0-.6-.6h-2.6a.6.6,0,0,0,0,1.2h2.1v.2l-2,.5a.6.6,0,0,0-.4.7.5.5,0,0,0,.5.5h.2l2-.5c.1,0,.1.1.1.2l-1.8,1a.5.5,0,0,0-.2.8.5.5,0,0,0,.5.3c.1,0,.2,0,.2-.1l1.9-1a.1.1,0,0,1,.1.1l-1.5,1.5a.6.6,0,0,0,0,.8l.4.2.4-.2,1.5-1.5h.2l-1.1,1.9a.6.6,0,0,0,.2.8h.3a.5.5,0,0,0,.5-.3l1.1-1.8a.1.1,0,0,1,.1.1l-.5,2a.6.6,0,0,0,.4.7h.1a.5.5,0,0,0,.6-.4l.5-2.1h.2v2.1a.6.6,0,1,0,1.2,0V52.8h.1l.6,2.1c.1.3.3.5.5.5h.2c.3,0,.5-.4.4-.7l-.5-2.1h.1l1.1,1.8a.5.5,0,0,0,.5.3h.3a.7.7,0,0,0,.2-.8l-1.1-1.9h.1l1.6,1.5.4.2.4-.2a.6.6,0,0,0,0-.8l-1.5-1.5c0-.1,0-.1.1-.2l1.8,1.1h.3a.5.5,0,0,0,.5-.3.5.5,0,0,0-.2-.8l-1.9-1.1a.1.1,0,0,0,.1-.1l2.1.5a.1.1,0,0,0,.1.1.6.6,0,0,0,.6-.5.6.6,0,0,0-.4-.7l-2.1-.5v-.2Z"/>
    </g>
    <g>
      <path class="cls-19" d="M118.9,288.7A15.6,15.6,0,0,1,103,272.8v-40c0-10.2,6.7-16.9,16.9-16.9H138c16.7,0,27.9,10.6,27.9,26.4s-11.5,26.5-28,26.5h-3.1v4A15.5,15.5,0,0,1,118.9,288.7Zm17.1-49Z"/>
      <path class="cls-19" d="M168.3,288.7c-9,0-15.3-6.3-15.3-15.2V244.4a16.4,16.4,0,0,1,1.5-7.1,15.2,15.2,0,0,1-1.7-7.1,15.5,15.5,0,1,1,30.9,0,15.2,15.2,0,0,1-1.7,7.1,16.4,16.4,0,0,1,1.5,7.1v29.1C183.5,282.4,177.2,288.7,168.3,288.7Z"/>
      <path class="cls-19" d="M199.5,288.7c-17.7,0-29.1-11.4-29.1-29s12-30.5,29.8-30.5c13.9,0,25.3,8.9,25.3,19.8a14.3,14.3,0,0,1-3.5,9.6,13.8,13.8,0,0,1,3.5,9.2C225.5,278.1,215.8,288.7,199.5,288.7Z"/>
      <path class="cls-19" d="M234.6,288.7c-15.3,0-20.8-10-20.8-19.3V254.8a13.6,13.6,0,0,1,.1-22.5c.6-8.1,6.8-13.8,15.2-13.8s14,5.2,15.1,12.8a13.4,13.4,0,0,1,.2,24.5v5.9a13.2,13.2,0,0,1,7.9,12.3C252.3,281.3,246.8,288.7,234.6,288.7Z"/>
      <path class="cls-19" d="M278.6,288.7a15.6,15.6,0,0,1-7.6-1.9,25.4,25.4,0,0,1-10,1.9c-13.9,0-23.3-9.6-23.3-23.8V244.4c0-8.9,6.3-15.2,15.3-15.2,5.5,0,9.9,2.3,12.6,6.1,2.6-3.8,7.1-6.1,12.5-6.1,9,0,15.3,6.3,15.3,15.2v29.1C293.4,282.4,287.3,288.7,278.6,288.7ZM268.3,263Z"/>
      <path class="cls-19" d="M297.6,288.7c-9,0-15.3-6.3-15.3-15.2V244.1a14.5,14.5,0,0,1,14.8-14.9,15.9,15.9,0,0,1,6.6,1.4,17.2,17.2,0,0,1,7-1.4c8.8,0,15.7,6.6,15.7,15.1s-5.6,14.4-13.5,15.2a8.6,8.6,0,0,0-.1,1.7v12.3C312.8,282.4,306.5,288.7,297.6,288.7Z"/>
      <path class="cls-19" d="M339.7,288.7c-20.8,0-30.2-15.1-30.2-29.1,0-17.9,12.2-30.4,29.8-30.4s29,13.8,29,27.2a15.1,15.1,0,0,1-2.7,9.3,11.5,11.5,0,0,1,.6,3.7C366.2,282,352.5,288.7,339.7,288.7Z"/>
      <path class="cls-19" d="M417.5,288.7c-5.4,0-9.9-2.3-12.5-6.1a15.1,15.1,0,0,1-12.6,6.1c-9,0-15.3-6.3-15.3-15.2V244.4c0-8.9,6.1-15.2,14.8-15.2a15.3,15.3,0,0,1,7.6,1.9,25.4,25.4,0,0,1,10-1.9c13.9,0,23.3,9.6,23.3,23.8v20.5C432.8,282.4,426.5,288.7,417.5,288.7Zm-15.2-33.8Z"/>
      <path class="cls-19" d="M249.9,375.1c-17.8,0-29.4-11.7-29.4-29.8s12.1-29.7,29.4-29.7,29.5,12.2,29.5,29.7S267.8,375.1,249.9,375.1Z"/>
      <path class="cls-19" d="M488.7,288.7c-15.3,0-20.8-10-20.8-19.3V254.8a13.5,13.5,0,0,1,.1-22.5c.6-8.1,6.8-13.8,15.2-13.8s14,5.2,15.1,12.8a13.3,13.3,0,0,1,.1,24.5v5.9a13.1,13.1,0,0,1,8,12.3C506.4,281.3,500.9,288.7,488.7,288.7Z"/>
      <path class="cls-19" d="M214,375.1c-8.8,0-15.2-6.4-15.2-15.2V341.6a13.5,13.5,0,0,1,.2-23.3c1.4-10,10.1-17.2,21.3-17.2s17,6.2,17,15a13.5,13.5,0,0,1-1.9,6.9,13.4,13.4,0,0,1,1.9,7,12.9,12.9,0,0,1-8,12.2v17.7C229.3,368.7,222.9,375.1,214,375.1Z"/>
      <path class="cls-19" d="M395,375.1a14.5,14.5,0,0,1-7-1.6,23.6,23.6,0,0,1-9,1.6c-12.7,0-26.5-9.4-26.5-30,0-17.4,10.8-29.5,26.2-29.5h.6c.5-8.3,6.7-14.2,15.2-14.2s15.3,6.4,15.3,15.3v43.4C409.8,369,403.7,375.1,395,375.1Z"/>
      <path class="cls-19" d="M307,375.1a15.9,15.9,0,0,1-7.6-1.9,25.4,25.4,0,0,1-10,1.9c-13.9,0-23.3-9.6-23.3-23.8V330.8c0-8.9,6.3-15.2,15.3-15.2,5.5,0,9.9,2.3,12.6,6.1,2.6-3.8,7.1-6.1,12.5-6.1,9,0,15.3,6.3,15.3,15.2v29.1C321.8,368.8,315.7,375.1,307,375.1Zm-10.3-25.7Z"/>
      <path class="cls-19" d="M350.5,375.1c-5.4,0-9.9-2.3-12.5-6.1a15.1,15.1,0,0,1-12.6,6.1c-9,0-15.3-6.3-15.3-15.2V330.8c0-8.9,6.1-15.2,14.8-15.2a15.3,15.3,0,0,1,7.6,1.9,25.4,25.4,0,0,1,10-1.9c13.9,0,23.3,9.6,23.3,23.8v20.5C365.8,368.8,359.5,375.1,350.5,375.1Zm-15.2-33.8Z"/>
      <path class="cls-19" d="M449,288.7c-17.9,0-29.5-11.7-29.5-29.8s12.1-29.7,29.5-29.7,29.4,12.2,29.4,29.7S466.9,288.7,449,288.7Z"/>
      <path d="M113,232.8c0-5.2,2.8-6.9,6.9-6.9H138c10,0,17.9,4.9,17.9,16.4,0,9.5-6.5,16.5-18,16.5H124.8v14a5.9,5.9,0,1,1-11.8,0Zm11.8,16.9h11.1c4.7,0,8.2-2.9,8.2-7.4s-3.6-7.3-9.5-7.3h-9.8Z"/>
      <path d="M168.3,224.7a5.5,5.5,0,1,1-5.5,5.5A5.5,5.5,0,0,1,168.3,224.7ZM163,244.4c0-2.8,1.2-5.2,5.3-5.2s5.2,2.4,5.2,5.2v29.1c0,2.8-1.1,5.2-5.2,5.2s-5.3-2.4-5.3-5.2Z"/>
      <path d="M200.2,239.2c8.7,0,15.3,4.9,15.3,9.8,0,3.1-2.2,4.6-4.9,4.6-5,0-3.2-6.2-10.7-6.2-4.1,0-9,2.8-9,12.3,0,6.6,3.1,10.8,8.9,10.8s5.8-6.8,11.3-6.8a4.2,4.2,0,0,1,4.4,4.1c0,4.6-5.2,10.9-16,10.9-13,0-19.1-8-19.1-19S187.3,239.2,200.2,239.2Z"/>
      <path d="M223.8,247H222c-2.9,0-4.1-1.1-4.1-3.4s1.2-3.5,4.1-3.5h1.8v-6.4c0-3.4,2.1-5.2,5.3-5.2s5.3,1.8,5.3,5.2v6.4h3.1c3.1,0,4.8,1,4.8,3.5s-1.7,3.4-4.8,3.4h-3.1v21.1c0,1.5.8,2.4,2.7,2.4h1.5c2.3,0,3.7,1.3,3.7,3.5s-2.6,4.7-7.7,4.7c-7.6,0-10.8-3.2-10.8-9.3Z"/>
      <path d="M283.4,273.5c0,3.1-1.5,5.2-4.8,5.2s-4.7-2.1-4.7-5.2v-1.4h-.2c-2.9,3.9-6.7,6.6-12.7,6.6s-13.3-3.2-13.3-13.8V244.4c0-2.8,1.2-5.2,5.3-5.2s5.3,2.4,5.3,5.2v18.4c0,4.2,2,7.3,6.6,7.3a8.2,8.2,0,0,0,8-8.3V244.4c0-2.8,1.1-5.2,5.2-5.2s5.3,2.4,5.3,5.2Z"/>
      <path d="M292.3,244.1a4.8,4.8,0,1,1,9.5,0v4h.2c1.2-4.4,3.6-8.9,8.7-8.9,3.3,0,5.7,2.1,5.7,5.1s-2.6,5.2-5.2,5.2h-1.8c-4.3,0-6.6,3-6.6,11.7v12.3c0,2.8-1.1,5.2-5.2,5.2s-5.3-2.4-5.3-5.2Z"/>
      <path d="M330,260.9c0,5.6,3.6,9.6,9.7,9.6,7.9,0,7.9-5.2,12.2-5.2a4.4,4.4,0,0,1,4.3,4.1c0,6.4-10.2,9.3-16.5,9.3-14.7,0-20.2-9.9-20.2-19.1,0-12.2,7.4-20.4,19.8-20.4s19,8.5,19,17.2c0,3.6-1,4.5-4.6,4.5Zm18.4-6c-.6-4.8-4.2-8.4-8.9-8.4s-8.4,3.3-9.5,8.4Z"/>
      <path d="M387.1,244.4c0-3.1,1.5-5.2,4.8-5.2s4.7,2.1,4.7,5.2v1.4h.2c2.9-3.9,6.8-6.6,12.7-6.6s13.3,3.1,13.3,13.8v20.5c0,2.8-1.2,5.2-5.3,5.2s-5.2-2.4-5.2-5.2V255.1c0-4.3-2.1-7.3-6.7-7.3a8.2,8.2,0,0,0-8,8.3v17.4c0,2.8-1.1,5.2-5.2,5.2s-5.3-2.4-5.3-5.2Z"/>
      <path d="M449,239.2c12.7,0,19.4,8.6,19.4,19.7s-5.1,19.8-19.4,19.8-19.5-9.3-19.5-19.8S436.3,239.2,449,239.2Zm0,31.7c6.2,0,8.9-5.6,8.9-12S455.1,247,449,247s-8.9,5.1-8.9,11.9S442.7,270.9,449,270.9Z"/>
      <path d="M477.9,247h-1.8c-2.9,0-4.2-1.1-4.2-3.4s1.3-3.5,4.2-3.5h1.8v-6.4c0-3.4,2.1-5.2,5.3-5.2s5.2,1.8,5.2,5.2v6.4h3.2c3.1,0,4.8,1,4.8,3.5s-1.7,3.4-4.8,3.4h-3.2v21.1c0,1.5.9,2.4,2.8,2.4h1.5c2.3,0,3.7,1.3,3.7,3.5s-2.6,4.7-7.7,4.7c-7.6,0-10.8-3.2-10.8-9.3Z"/>
      <path d="M208.8,333.4h-2.4c-3,0-4.2-1.1-4.2-3.4s1.2-3.5,4.2-3.5h2.4v-5.2c0-6.7,5.4-10.2,11.5-10.2,3.9,0,7,1.5,7,5a3.5,3.5,0,0,1-3.4,3.6l-2.3-.2a2.2,2.2,0,0,0-2.3,2.5v4.5h3.2c3.1,0,4.8,1,4.8,3.5s-1.7,3.4-4.8,3.4h-3.2v26.5c0,3.4-2.1,5.2-5.3,5.2s-5.2-1.8-5.2-5.2Z"/>
      <path d="M249.9,325.6c12.7,0,19.5,8.6,19.5,19.7s-5.1,19.8-19.5,19.8-19.4-9.3-19.4-19.8S237.3,325.6,249.9,325.6Zm0,31.7c6.3,0,9-5.6,9-12s-2.8-11.9-9-11.9-8.9,5.1-8.9,11.9S243.7,357.3,249.9,357.3Z"/>
      <path d="M311.8,359.9c0,3.1-1.4,5.2-4.8,5.2s-4.7-2.1-4.7-5.2v-1.4h-.2c-2.9,3.9-6.7,6.6-12.7,6.6s-13.3-3.2-13.3-13.8V330.8c0-2.8,1.2-5.2,5.3-5.2s5.3,2.4,5.3,5.2v18.4c0,4.2,2,7.3,6.6,7.3a8.2,8.2,0,0,0,8-8.3V330.8c0-2.8,1.1-5.2,5.2-5.2s5.3,2.4,5.3,5.2Z"/>
      <path d="M320.1,330.8c0-3.1,1.5-5.2,4.8-5.2s4.7,2.1,4.7,5.2v1.4h.2c2.9-3.9,6.8-6.6,12.7-6.6s13.3,3.1,13.3,13.8v20.5c0,2.8-1.2,5.2-5.3,5.2s-5.2-2.4-5.2-5.2V341.5c0-4.3-2.1-7.3-6.7-7.3a8.1,8.1,0,0,0-7.9,8.3v17.4c0,2.8-1.2,5.2-5.3,5.2s-5.3-2.4-5.3-5.2Z"/>
      <path d="M399.8,360.1c0,3.3-1.5,5-4.8,5s-4.7-1.7-4.7-5v-1.6h-.2c-1.7,4.5-6,6.6-11.1,6.6-8.7,0-16.5-6.4-16.5-20,0-10.1,5.2-19.5,16.2-19.5,4.7,0,8.3,1.9,10.4,5.3h.2V316.7c0-3.5,2-5.3,5.2-5.3s5.3,1.8,5.3,5.3Zm-18.4-3.2c6.1,0,8.4-5.5,8.4-11.4s-2-11.8-8.4-11.7-8.3,6.8-8.3,11.7S375.8,356.8,381.4,356.9Z"/>
    </g>
  </g>
</svg>
