<svg xmlns="http://www.w3.org/2000/svg" viewBox="0 0 204 204"><defs><style>.cls-1,.cls-3{fill:#fff;}.cls-1,.cls-2,.cls-7{stroke:#000;stroke-miterlimit:10;}.cls-1,.cls-2{stroke-width:4px;}.cls-2,.cls-7{fill:none;}.cls-2{stroke-linecap:round;}.cls-4{fill:#b1b5dd;}.cls-5{fill:#af54a1;}.cls-6{fill:#51bfb6;}.cls-7{stroke-width:2px;}</style></defs><title>Другое_1</title><g id="Категории"><rect class="cls-1" x="2" y="2" width="200" height="200" rx="20" ry="20"/><path class="cls-2" d="M160.55,42c0,27.64-26.49,50.06-59.16,50.06S42.23,69.64,42.23,42"/><line class="cls-2" x1="7.58" y1="42" x2="42.23" y2="42"/><line class="cls-2" x1="10.78" y1="62.62" x2="44.24" y2="55.03"/><line class="cls-2" x1="20.16" y1="81.83" x2="50.17" y2="67.17"/><line class="cls-2" x1="35.11" y1="98.34" x2="59.61" y2="77.61"/><line class="cls-2" x1="54.59" y1="111" x2="71.92" y2="85.62"/><line class="cls-2" x1="77.29" y1="118.97" x2="86.26" y2="90.66"/><line class="cls-2" x1="101.65" y1="121.7" x2="101.65" y2="92.39"/><line class="cls-2" x1="126.02" y1="119" x2="117.05" y2="90.69"/><line class="cls-2" x1="148.73" y1="111.06" x2="131.4" y2="85.67"/><line class="cls-2" x1="168.23" y1="98.41" x2="143.73" y2="77.68"/><line class="cls-2" x1="183.2" y1="81.93" x2="153.2" y2="67.27"/><line class="cls-2" x1="192.62" y1="62.72" x2="159.16" y2="55.14"/><line class="cls-2" x1="195.85" y1="42.11" x2="161.2" y2="42.11"/><path d="M57.73,151.16v2.56c0,1.32-.52,2-1.54,2-.84,0-1.49-.65-1.49-2v-3.13c0-1.73.38-2.27,1.65-2.46a19.37,19.37,0,0,0,1.19-3.51,71.46,71.46,0,0,0,.75-8.26v-2c0-2,.87-2.56,2.46-2.56h8.47c1.73,0,2.43.75,2.43,2.46v13.84c1.27.19,1.7.7,1.7,2.46v3.13c0,1.32-.51,2-1.54,2-.72,0-1.48-.54-1.48-2v-2.56ZM62,134.85q0,9.08-1.6,13.28h7.35V134.85Z"/><path d="M79.16,139.25a5.82,5.82,0,0,1,4.7-2.4c3.67,0,6,3.16,6,7.48,0,4.07-2.19,7.15-6,7.15a6.23,6.23,0,0,1-4.73-2.24v4.7c0,2.72-.78,2.89-1.78,2.89-1.32,0-1.81-.73-1.81-3v-14.2c0-2,.33-2.78,1.81-2.78,1.19,0,1.78.67,1.78,2Zm3.75.35c-2,0-3.53,1.62-3.53,4.4s1.4,4.73,3.56,4.73c1.94,0,3.29-1.68,3.29-4.48C86.23,141.09,84.67,139.6,82.91,139.6Z"/><path d="M96.06,151.13,91.66,140a4.62,4.62,0,0,1-.4-1.48A1.74,1.74,0,0,1,93,136.85c.78,0,1.32.38,1.86,1.92l3.05,8.85,2.89-8.21c.81-2.29,1-2.56,2-2.56a1.6,1.6,0,0,1,1.59,1.51,5,5,0,0,1-.43,1.73l-4.7,12.28c-1.27,3.29-2.1,4.46-5.34,4.46-2.08,0-3.13-.54-3.13-1.6A1.2,1.2,0,0,1,92.12,154l1.22.08c1.32,0,1.78-.59,2.4-2.13Z"/><path d="M110.51,139.77v9.44c0,1.7-.87,2.27-1.81,2.27s-1.78-.57-1.78-2.27v-9.85c0-1.54.7-2.21,2.18-2.21h5.75c1.22,0,1.84.46,1.84,1.35,0,.62-.46,1.27-1.84,1.27Z"/><path d="M132.13,144.17c0,4.23-2.81,7.31-7.1,7.31-4.64,0-7.26-3.13-7.26-7.31s2.73-7.32,7.18-7.32S132.13,140,132.13,144.17Zm-3.64,0c0-2.92-1.38-4.65-3.54-4.65s-3.53,1.76-3.53,4.65,1.37,4.64,3.53,4.64S128.49,147.08,128.49,144.17Z"/><path d="M137.94,145.06c.08,2.67,1.67,4,3.62,4a4.76,4.76,0,0,0,3.4-1.59c.86-.86,1.13-1,1.64-1a1.14,1.14,0,0,1,1.19,1.05c0,1.57-2.35,3.89-6.15,3.89-4.89,0-7.34-3-7.34-7.31s2.61-7.32,7-7.32a6.28,6.28,0,0,1,6.64,6.07c0,1.3-.57,2.14-3,2.14ZM144.5,143c-.11-2.37-1.46-3.67-3.27-3.67s-3,1.22-3.29,3.67Z"/><path class="cls-3" d="M101.38,13.93a29,29,0,1,1-29,29A29,29,0,0,1,101.38,13.93Zm17.79,29a4.48,4.48,0,1,0-4.48,4.48A4.47,4.47,0,0,0,119.17,42.93Zm-13,0a4.49,4.49,0,1,0-4.48,4.48A4.48,4.48,0,0,0,106.17,42.93Zm-13.6,0a4.49,4.49,0,1,0-4.49,4.48A4.48,4.48,0,0,0,92.57,42.93Z"/><circle class="cls-4" cx="114.69" cy="42.93" r="4.48"/><circle class="cls-5" cx="101.69" cy="42.93" r="4.48"/><circle class="cls-6" cx="88.08" cy="42.93" r="4.48"/><circle class="cls-7" cx="101.38" cy="42.93" r="29"/></g></svg>