<svg xmlns="http://www.w3.org/2000/svg" viewBox="0 0 104 104"><defs><style>.cls-1,.cls-2{fill:#fff;}.cls-1,.cls-6{stroke:#000;stroke-miterlimit:10;}.cls-1{stroke-width:4px;}.cls-3{fill:#b1b5dd;}.cls-4{fill:#af54a1;}.cls-5{fill:#51bfb6;}.cls-6{fill:none;stroke-width:2px;}</style></defs><title>Другое</title><g id="Пиктограммы"><rect class="cls-1" x="2" y="2" width="100" height="100"/><path class="cls-2" d="M52,7A45,45,0,1,1,7,52,45,45,0,0,1,52,7ZM79.6,52a7,7,0,1,0-6.95,7A7,7,0,0,0,79.6,52ZM59.42,52a7,7,0,1,0-7,7A7,7,0,0,0,59.42,52Zm-21.1,0a7,7,0,1,0-7,7A7,7,0,0,0,38.32,52Z"/><path class="cls-3" d="M72.65,45a7,7,0,1,1-7,7A7,7,0,0,1,72.65,45Z"/><path class="cls-4" d="M52.47,45a7,7,0,1,1-7,7A7,7,0,0,1,52.47,45Z"/><path class="cls-5" d="M31.35,45a7,7,0,1,1-7,7A7,7,0,0,1,31.35,45Z"/><circle class="cls-6" cx="52" cy="52" r="45"/></g></svg>