<svg xmlns="http://www.w3.org/2000/svg" viewBox="0 0 204 204"><defs><style>.cls-1,.cls-3{fill:#fff;}.cls-1,.cls-2,.cls-7{stroke:#000;}.cls-1,.cls-2,.cls-8{stroke-miterlimit:10;}.cls-1,.cls-2{stroke-width:4px;}.cls-2,.cls-7,.cls-8{fill:none;}.cls-2,.cls-7{stroke-linecap:round;}.cls-4{fill:#af54a1;}.cls-5{fill:#51bfb6;}.cls-6{fill:#201600;}.cls-7{stroke-linejoin:round;}.cls-7,.cls-8{stroke-width:2px;}.cls-8{stroke:#201600;}</style></defs><title>Фотосъемка_1</title><g id="Категории"><rect class="cls-1" x="2" y="2" width="200" height="200" rx="20" ry="20"/><path class="cls-2" d="M160.55,42c0,27.64-26.49,50.06-59.16,50.06S42.23,69.64,42.23,42"/><line class="cls-2" x1="7.58" y1="42" x2="42.23" y2="42"/><line class="cls-2" x1="10.78" y1="62.62" x2="44.24" y2="55.03"/><line class="cls-2" x1="20.16" y1="81.83" x2="50.17" y2="67.17"/><line class="cls-2" x1="35.11" y1="98.34" x2="59.61" y2="77.61"/><line class="cls-2" x1="54.59" y1="111" x2="71.92" y2="85.62"/><line class="cls-2" x1="77.29" y1="118.97" x2="86.26" y2="90.66"/><line class="cls-2" x1="101.65" y1="121.7" x2="101.65" y2="92.39"/><line class="cls-2" x1="126.02" y1="119" x2="117.05" y2="90.69"/><line class="cls-2" x1="148.73" y1="111.06" x2="131.4" y2="85.67"/><line class="cls-2" x1="168.23" y1="98.41" x2="143.73" y2="77.68"/><line class="cls-2" x1="183.2" y1="81.93" x2="153.2" y2="67.27"/><line class="cls-2" x1="192.62" y1="62.72" x2="159.16" y2="55.14"/><line class="cls-2" x1="195.85" y1="42.11" x2="161.2" y2="42.11"/><path d="M35.61,133.58c5.72.25,7.8,3.2,7.8,7s-2,6.78-7.8,7v.4a1.78,1.78,0,1,1-3.55,0v-.4c-5.82-.25-7.82-3.23-7.82-7s2-6.77,7.82-7v-.28a1.78,1.78,0,1,1,3.55,0Zm-3.55,2.9c-2.25,0-4.2.77-4.2,4.22,0,2.68,1.4,4,4.2,4Zm3.55,8.25c2.4,0,4.17-1,4.17-4.1s-1.82-4.15-4.17-4.15Z"/><path d="M58.73,143.23c0,3.92-2.59,6.77-6.57,6.77-4.3,0-6.72-2.9-6.72-6.77s2.52-6.78,6.65-6.78S58.73,139.33,58.73,143.23Zm-3.37,0c0-2.7-1.27-4.3-3.27-4.3s-3.28,1.62-3.28,4.3,1.28,4.3,3.28,4.3S55.36,145.93,55.36,143.23Z"/><path d="M67.54,139.15v8.75c0,1.58-.8,2.1-1.68,2.1s-1.62-.52-1.62-2.1v-8.75h-2.8c-1.13,0-1.7-.4-1.7-1.22,0-.58.42-1.2,1.7-1.2h8.92c1.12,0,1.7.42,1.7,1.25,0,.57-.48,1.17-1.7,1.17Z"/><path d="M86.33,143.23c0,3.92-2.6,6.77-6.57,6.77-4.3,0-6.72-2.9-6.72-6.77s2.52-6.78,6.65-6.78S86.33,139.33,86.33,143.23Zm-3.37,0c0-2.7-1.27-4.3-3.27-4.3s-3.28,1.62-3.28,4.3,1.28,4.3,3.28,4.3S83,145.93,83,143.23Z"/><path d="M100.91,145.88c0,1.75-2.3,4.12-6,4.12-4.4,0-6.63-2.77-6.63-6.7s2.43-6.85,6.67-6.85c3.35,0,5.75,2.23,5.75,3.88a1.44,1.44,0,0,1-1.47,1.42,1.31,1.31,0,0,1-1.15-.62c-1.25-1.88-2-2.13-3.15-2.13-2.12,0-3.32,1.85-3.32,4.28S93,147.53,95,147.53a3.25,3.25,0,0,0,2.85-1.65c.7-1.1,1-1.45,1.67-1.45A1.49,1.49,0,0,1,100.91,145.88Z"/><path d="M106.84,139.15h-3c-1.13,0-1.7-.4-1.7-1.22,0-.58.42-1.2,1.7-1.2h4.27c1.42,0,2,.62,2,2.05v2.9h3.45c3.6,0,5.55,1.35,5.55,3.95,0,2.1-1.35,4.07-5.55,4.07h-4.75c-1.42,0-2-.62-2-2Zm3.32,8.13h3.07c2.2,0,2.55-.85,2.55-1.6,0-1.05-.85-1.58-2.55-1.58h-3.07Z"/><path d="M124.39,144.05c.07,2.48,1.55,3.75,3.34,3.75a4.46,4.46,0,0,0,3.16-1.47c.79-.8,1-.9,1.52-.9a1.06,1.06,0,0,1,1.1,1c0,1.45-2.18,3.6-5.7,3.6-4.52,0-6.8-2.82-6.8-6.77s2.43-6.78,6.53-6.78a5.8,5.8,0,0,1,6.14,5.63c0,1.2-.52,2-2.75,2Zm6.07-1.9c-.1-2.2-1.35-3.4-3-3.4s-2.78,1.13-3,3.4Z"/><path d="M143.83,145.78l2.75-7.6a1.72,1.72,0,0,1,2-1.45h.95c1.22,0,1.82.67,1.82,2.05v9.42q0,1.8-1.5,1.8c-.8,0-1.45-.58-1.45-1.8v-7l-2.62,7.12c-.58,1.53-1.3,1.7-2,1.7-.95,0-1.49-.42-2-1.8l-2.5-7v7q0,1.8-1.5,1.8c-.7,0-1.45-.47-1.45-1.8v-9.42c0-1.38.6-2.05,1.83-2.05h.95c1.17,0,1.59.32,2,1.45Z"/><path d="M154.54,138.53c0-1.38.57-2.08,1.69-2.08.81,0,1.63.55,1.63,2.08V142c.87,0,1.15-.25,1.9-2.38,1-2.7,2-3,3.52-3,1.78,0,1.93.63,1.93,1.2,0,.73-.45,1.1-1.38,1.13-1.17.05-1.27.3-1.77,1.87a3.13,3.13,0,0,1-1.63,2.2,5.24,5.24,0,0,1,2.8,2.9l.73,1.43a3,3,0,0,1,.42,1.27,1.4,1.4,0,0,1-1.55,1.35c-.94,0-1.42-.45-2-1.72l-1-2.33c-.6-1.37-1.07-1.75-2-1.77v3.72c0,1.4-.55,2.1-1.67,2.1-.93,0-1.65-.67-1.65-2.1Z"/><path d="M171.36,150c-2.87,0-4.47-1.67-4.47-3.77,0-3.95,4.57-3.65,8.89-4.93,0-2-.77-2.57-2.37-2.57s-2.52.42-3,1.27-.8,1.33-1.58,1.33a1.33,1.33,0,0,1-1.37-1.25c0-1.65,1.75-3.63,5.82-3.63s5.8,1,5.8,5.33L179,144.9a22.45,22.45,0,0,0,.65,3.78,1.48,1.48,0,0,1-1.52,1.32c-.68,0-1.38-.62-2.13-1.87A7.54,7.54,0,0,1,171.36,150Zm2-6.05c-2.22.45-3.12.88-3.12,2.05a1.92,1.92,0,0,0,2.18,1.83,3.65,3.65,0,0,0,2-.6c1.3-.85,1.4-1.7,1.4-3.93A14.57,14.57,0,0,1,173.33,144Z"/><path class="cls-3" d="M140.65,23.72V69a2.93,2.93,0,0,1-2.94,2.94H64.37A2.94,2.94,0,0,1,61.43,69V23.72a2.94,2.94,0,0,1,2.94-2.93H80.75a3,3,0,0,0,2.41-1.25l3.35-4.8c.58-.82,1.53-.84,2.53-.8l11.87,0h12a2.91,2.91,0,0,1,2.25,1l3.95,4.71a2.89,2.89,0,0,0,2.25,1.05h16.39A2.94,2.94,0,0,1,140.65,23.72ZM121.4,43.94A20.56,20.56,0,1,0,100.84,64.5,20.56,20.56,0,0,0,121.4,43.94ZM77.14,30.38c0-1.61-1.68-2.92-3.75-2.92s-3.75,1.31-3.75,2.92,1.67,2.92,3.75,2.92S77.14,32,77.14,30.38Z"/><path class="cls-4" d="M100.84,23.38A20.56,20.56,0,1,1,80.28,43.94,20.56,20.56,0,0,1,100.84,23.38Zm13.41,20.56a13.41,13.41,0,1,0-13.41,13.41A13.41,13.41,0,0,0,114.25,43.94Z"/><path class="cls-5" d="M100.84,30.54a13.41,13.41,0,1,1-13.41,13.4A13.41,13.41,0,0,1,100.84,30.54Z"/><ellipse class="cls-6" cx="73.39" cy="30.38" rx="3.75" ry="2.92"/><path class="cls-7" d="M121.4,43.94a20.56,20.56,0,1,1-20.56-20.56A20.56,20.56,0,0,1,121.4,43.94Z"/><path class="cls-7" d="M114.25,43.94a13.41,13.41,0,1,1-13.41-13.4A13.42,13.42,0,0,1,114.25,43.94Z"/><path class="cls-8" d="M100.91,14h12a2.91,2.91,0,0,1,2.25,1l3.95,4.71a2.89,2.89,0,0,0,2.25,1.05h16.39a2.94,2.94,0,0,1,2.94,2.93V69a2.93,2.93,0,0,1-2.94,2.94H64.37A2.94,2.94,0,0,1,61.43,69V23.72a2.94,2.94,0,0,1,2.94-2.93H80.75a3,3,0,0,0,2.41-1.25l3.35-4.8c.58-.82,1.53-.84,2.53-.8Z"/></g></svg>