<svg xmlns="http://www.w3.org/2000/svg" viewBox="0 0 104 104"><defs><style>.cls-1,.cls-3{fill:#fff;}.cls-1,.cls-6,.cls-7,.cls-8{stroke:#000;}.cls-1,.cls-7{stroke-miterlimit:10;}.cls-1{stroke-width:4px;}.cls-2{fill:#ffefbe;}.cls-4{fill:#af54a1;}.cls-5{fill:#51bfb6;}.cls-6,.cls-7,.cls-8{fill:none;stroke-width:2px;}.cls-6{stroke-linecap:round;}.cls-6,.cls-8{stroke-linejoin:round;}</style></defs><title>Места для фотосессий</title><g id="Пиктограммы"><rect class="cls-1" x="2" y="2" width="100" height="100"/><path class="cls-2" d="M52.55,11.47c15.74,0,23.31,8.43,23,19.31-.5,17.61-16.61,41.91-21.57,49a1.78,1.78,0,0,1-2.88,0C46.22,72.8,30.56,49.15,30,31.59,29.61,20.63,36.72,11.47,52.55,11.47ZM68.17,43.92V26.31A1.14,1.14,0,0,0,67,25.17H60.65a1.15,1.15,0,0,1-.88-.41l-1.53-1.83a1.15,1.15,0,0,0-.87-.41H48.09a1.05,1.05,0,0,0-1,.3l-1.3,1.87a1.15,1.15,0,0,1-.93.49H38.49a1.14,1.14,0,0,0-1.14,1.14V43.92a1.14,1.14,0,0,0,1.14,1.14H67A1.14,1.14,0,0,0,68.17,43.92Z"/><path class="cls-3" d="M68.17,26.31V43.92A1.14,1.14,0,0,1,67,45.06H38.49a1.14,1.14,0,0,1-1.14-1.14V26.31a1.14,1.14,0,0,1,1.14-1.14h6.38a1.15,1.15,0,0,0,.93-.49l1.3-1.87a1.05,1.05,0,0,1,1-.3h9.28a1.15,1.15,0,0,1,.87.41l1.53,1.83a1.15,1.15,0,0,0,.88.41H67A1.14,1.14,0,0,1,68.17,26.31Zm-7.49,7.87a8,8,0,1,0-8,8A8,8,0,0,0,60.68,34.18ZM43.46,28.9a1.5,1.5,0,0,0-2.92,0,1.5,1.5,0,0,0,2.92,0Z"/><path class="cls-4" d="M52.68,26.18a8,8,0,1,1-8,8A8,8,0,0,1,52.68,26.18Zm5.21,8a5.21,5.21,0,1,0-5.21,5.21A5.21,5.21,0,0,0,57.89,34.18Z"/><path class="cls-5" d="M52.68,29a5.22,5.22,0,1,1-5.21,5.22A5.21,5.21,0,0,1,52.68,29Z"/><path d="M42,27.76a1.33,1.33,0,0,1,1.46,1.14,1.5,1.5,0,0,1-2.92,0A1.33,1.33,0,0,1,42,27.76Z"/><path class="cls-6" d="M60.68,34.18a8,8,0,1,1-8-8A8,8,0,0,1,60.68,34.18Z"/><path class="cls-6" d="M57.89,34.18A5.21,5.21,0,1,1,52.68,29,5.21,5.21,0,0,1,57.89,34.18Z"/><path class="cls-7" d="M52.71,22.52h4.66a1.15,1.15,0,0,1,.87.41l1.53,1.83a1.15,1.15,0,0,0,.88.41H67a1.14,1.14,0,0,1,1.14,1.14V43.92A1.14,1.14,0,0,1,67,45.06H38.49a1.14,1.14,0,0,1-1.14-1.14V26.31a1.14,1.14,0,0,1,1.14-1.14h6.38a1.15,1.15,0,0,0,.93-.49l1.3-1.87a1.05,1.05,0,0,1,1-.3Z"/><path class="cls-7" d="M68.41,68.09C82.6,70,92.48,74.28,92.48,79.26c0,6.75-18.17,12.23-40.59,12.23S11.31,86,11.31,79.26c0-5.15,10.58-9.56,25.56-11.35"/><path class="cls-8" d="M54,79.76a1.78,1.78,0,0,1-2.88,0C46.22,72.8,30.56,49.15,30,31.59c-.36-11,6.75-20.12,22.58-20.12s23.31,8.43,23,19.31C75.05,48.39,58.94,72.69,54,79.76Z"/></g></svg>