<svg xmlns="http://www.w3.org/2000/svg" viewBox="0 0 104 104"><defs><style>.cls-1,.cls-2{fill:#fff;}.cls-1,.cls-6{stroke:#000;}.cls-1,.cls-7{stroke-miterlimit:10;}.cls-1{stroke-width:4px;}.cls-3{fill:#af54a1;}.cls-4{fill:#51bfb6;}.cls-5{fill:#201600;}.cls-6,.cls-7{fill:none;stroke-width:2px;}.cls-6{stroke-linecap:round;stroke-linejoin:round;}.cls-7{stroke:#201600;}</style></defs><title>Фотосъемка</title><g id="Пиктограммы"><rect class="cls-1" x="2" y="2" width="100" height="100"/><path class="cls-2" d="M93,32.13V79a3,3,0,0,1-3,3H14.07A3,3,0,0,1,11,79V32.13a3,3,0,0,1,3.05-3H31A3,3,0,0,0,33.5,27.8l3.47-5c.59-.84,1.58-.86,2.61-.82l12.28,0H64.24a3,3,0,0,1,2.33,1.08L70.65,28A3,3,0,0,0,73,29.09h17A3,3,0,0,1,93,32.13ZM73.06,53A21.27,21.27,0,1,0,51.79,74.31,21.26,21.26,0,0,0,73.06,53ZM27.27,39c0-1.66-1.74-3-3.88-3s-3.88,1.35-3.88,3,1.73,3,3.88,3S27.27,40.68,27.27,39Z"/><path class="cls-3" d="M51.79,31.78A21.27,21.27,0,1,1,30.53,53,21.26,21.26,0,0,1,51.79,31.78ZM65.66,53A13.87,13.87,0,1,0,51.79,66.91,13.87,13.87,0,0,0,65.66,53Z"/><path class="cls-4" d="M51.79,39.18A13.87,13.87,0,1,1,37.92,53,13.87,13.87,0,0,1,51.79,39.18Z"/><ellipse class="cls-5" cx="23.39" cy="39.01" rx="3.88" ry="3.02"/><path class="cls-6" d="M73.06,53A21.27,21.27,0,1,1,51.79,31.78,21.27,21.27,0,0,1,73.06,53Z"/><path class="cls-6" d="M65.66,53A13.87,13.87,0,1,1,51.79,39.18,13.87,13.87,0,0,1,65.66,53Z"/><path class="cls-7" d="M51.86,22.05H64.24a3,3,0,0,1,2.33,1.08L70.65,28A3,3,0,0,0,73,29.09h17a3,3,0,0,1,3,3V79a3,3,0,0,1-3,3H14.07A3,3,0,0,1,11,79V32.13a3,3,0,0,1,3.05-3H31A3,3,0,0,0,33.5,27.8l3.47-5c.59-.84,1.58-.86,2.61-.82Z"/></g></svg>