<svg xmlns="http://www.w3.org/2000/svg" viewBox="0 0 204 204"><defs><style>.cls-1,.cls-4{fill:#fff;}.cls-1,.cls-2,.cls-7,.cls-8,.cls-9{stroke:#000;}.cls-1,.cls-2,.cls-8{stroke-miterlimit:10;}.cls-1,.cls-2{stroke-width:4px;}.cls-2,.cls-7,.cls-8,.cls-9{fill:none;}.cls-2,.cls-7{stroke-linecap:round;}.cls-3{fill:#ffefbe;}.cls-5{fill:#af54a1;}.cls-6{fill:#51bfb6;}.cls-7,.cls-9{stroke-linejoin:round;}.cls-7,.cls-8,.cls-9{stroke-width:2px;}</style></defs><title>Места для фотосессий_1</title><g id="Категории"><rect class="cls-1" x="2" y="2" width="200" height="200" rx="20" ry="20"/><path class="cls-2" d="M160.55,42c0,27.64-26.49,50.06-59.16,50.06S42.23,69.64,42.23,42"/><line class="cls-2" x1="7.58" y1="42" x2="42.23" y2="42"/><line class="cls-2" x1="10.78" y1="62.62" x2="44.24" y2="55.03"/><line class="cls-2" x1="20.16" y1="81.83" x2="50.17" y2="67.17"/><line class="cls-2" x1="35.11" y1="98.34" x2="59.61" y2="77.61"/><line class="cls-2" x1="54.59" y1="111" x2="71.92" y2="85.62"/><line class="cls-2" x1="77.29" y1="118.97" x2="86.26" y2="90.66"/><line class="cls-2" x1="101.65" y1="121.7" x2="101.65" y2="92.39"/><line class="cls-2" x1="126.02" y1="119" x2="117.05" y2="90.69"/><line class="cls-2" x1="148.73" y1="111.06" x2="131.4" y2="85.67"/><line class="cls-2" x1="168.23" y1="98.41" x2="143.73" y2="77.68"/><line class="cls-2" x1="183.2" y1="81.93" x2="153.2" y2="67.27"/><line class="cls-2" x1="192.62" y1="62.72" x2="159.16" y2="55.14"/><line class="cls-2" x1="195.85" y1="42.11" x2="161.2" y2="42.11"/><path d="M38.8,135.76v12.07c0,2.08-.42,2.91-1.77,2.91-1.59,0-1.74-1.07-1.74-2.91v-13.5c0-1.66.39-2.52,2.36-2.52H38.8c2.05,0,2.18.26,2.78,2.5l2.7,10.19L47,134.31c.57-2.24.73-2.5,2.78-2.5h1.15c1.77,0,2.36.55,2.36,2.52v13.5c0,1.66-.1,2.91-1.74,2.91-1.43,0-1.77-.88-1.77-2.91V135.76l-2.93,11.86c-.71,2.91-1.36,3.12-2.53,3.12-1.45,0-1.92-.55-2.55-3.12Z"/><path d="M59.75,144.55c.08,2.58,1.62,3.9,3.49,3.9a4.59,4.59,0,0,0,3.27-1.53c.84-.83,1.1-.94,1.59-.94a1.1,1.1,0,0,1,1.14,1c0,1.5-2.26,3.74-5.93,3.74-4.7,0-7.07-2.94-7.07-7.05s2.53-7,6.79-7a6,6,0,0,1,6.4,5.85c0,1.25-.55,2.05-2.86,2.05Zm6.32-2c-.1-2.29-1.4-3.54-3.14-3.54s-2.89,1.17-3.18,3.54Z"/><path d="M84.77,146.45c0,1.82-2.4,4.29-6.22,4.29-4.57,0-6.89-2.89-6.89-7s2.52-7.12,6.94-7.12c3.49,0,6,2.31,6,4a1.51,1.51,0,0,1-1.53,1.48,1.38,1.38,0,0,1-1.2-.65c-1.3-1.95-2.13-2.21-3.27-2.21-2.21,0-3.46,1.92-3.46,4.45s1.38,4.42,3.46,4.42a3.4,3.4,0,0,0,3-1.72c.73-1.14,1-1.51,1.74-1.51A1.56,1.56,0,0,1,84.77,146.45Z"/><path d="M94.2,139.46v9.1c0,1.63-.83,2.18-1.74,2.18s-1.69-.55-1.69-2.18v-9.1H87.86c-1.17,0-1.77-.42-1.77-1.28,0-.6.44-1.25,1.77-1.25h9.28c1.17,0,1.77.45,1.77,1.3,0,.6-.49,1.23-1.77,1.23Z"/><path d="M104.68,150.74c-3,0-4.65-1.74-4.65-3.93,0-4.1,4.75-3.79,9.25-5.12,0-2.08-.8-2.68-2.47-2.68s-2.62.45-3.09,1.33-.83,1.38-1.64,1.38a1.39,1.39,0,0,1-1.43-1.3c0-1.72,1.82-3.77,6.06-3.77s6,1.06,6,5.54l-.08,3.25c0,2,.68,3.22.68,3.92a1.54,1.54,0,0,1-1.59,1.38c-.7,0-1.43-.65-2.21-2A7.88,7.88,0,0,1,104.68,150.74Zm2-6.29c-2.31.47-3.25.91-3.25,2.13a2,2,0,0,0,2.27,1.9,3.66,3.66,0,0,0,2.1-.63c1.36-.88,1.46-1.76,1.46-4.08A15.9,15.9,0,0,1,106.73,144.45Z"/><path d="M135.65,150.43h-11v2.08c0,1.17-.41,1.77-1.27,1.77-.7,0-1.25-.55-1.25-1.77V150c0-2.32-.08-2.08,1.15-2.08,1.58-1.93,2.39-4.68,2.44-8.3a4.85,4.85,0,0,1,.18-1.66c.18-.39.6-1,2-1h6.74c1.48,0,2.1.68,2.1,2.14v8.84h.63c.75,0,.83-.13.83,1.71v2.89c0,1.17-.44,1.77-1.3,1.77-.6,0-1.22-.45-1.22-1.77Zm-2.37-2.52v-8.45h-4.39c-.11,3.71-.47,6.26-2,8.45Z"/><path d="M145.14,139.46v6.37c0,3.66-1.23,4.83-3.64,4.83-1.88,0-2.84-.47-2.84-1.74,0-.81.44-1.2,1.3-1.2.29,0,.65.06.78.06.73,0,1-.37,1-1.69V139c0-1.46.6-2.11,2.08-2.11h7.78c1.48,0,2.08.65,2.08,2.14v9.49c0,1.66-.86,2.18-1.77,2.18s-1.69-.55-1.69-2.18v-9.1Z"/><path d="M156.42,140.78c0-3,1.79-3.85,5.3-3.85h4.92c1.48,0,2.1.68,2.1,2.14v9.51c0,1.64-.88,2.16-1.79,2.16s-1.66-.68-1.66-2.16v-3.74h-.55c-1.64,0-2.13.21-3.12,1.82L160.11,149c-1,1.51-1.3,1.77-2.1,1.77a1.6,1.6,0,0,1-1.69-1.38,2.78,2.78,0,0,1,.57-1.45l.91-1.38a4.42,4.42,0,0,1,2-1.95A3.55,3.55,0,0,1,156.42,140.78Zm8.87-1.32h-2.66c-2.62,0-2.91.78-2.91,1.5,0,.91.37,1.69,3.15,1.69h2.42Z"/><path d="M35.07,164.16c6,.26,8.11,3.33,8.11,7.3s-2.08,7-8.11,7.31v.42a1.86,1.86,0,1,1-3.69,0v-.42c-6.06-.26-8.14-3.35-8.14-7.31s2.1-7,8.14-7.3v-.29A1.84,1.84,0,0,1,33.25,162a1.87,1.87,0,0,1,1.82,1.87Zm-3.69,3c-2.35,0-4.37.81-4.37,4.4,0,2.78,1.45,4.18,4.37,4.18Zm3.69,8.58c2.49,0,4.34-1,4.34-4.26s-1.9-4.32-4.34-4.32Z"/><path d="M59.12,174.19c0,4.09-2.71,7.05-6.84,7.05-4.47,0-7-3-7-7.05s2.63-7,6.92-7S59.12,170.14,59.12,174.19Zm-3.51,0c0-2.8-1.33-4.47-3.41-4.47s-3.4,1.69-3.4,4.47,1.32,4.48,3.4,4.48S55.61,177,55.61,174.19Z"/><path d="M68.27,170v9.1c0,1.63-.83,2.18-1.74,2.18s-1.69-.55-1.69-2.18V170H61.92c-1.17,0-1.76-.42-1.76-1.28,0-.6.44-1.25,1.76-1.25h9.29c1.17,0,1.77.45,1.77,1.3,0,.6-.5,1.23-1.77,1.23Z"/><path d="M87.82,174.19c0,4.09-2.7,7.05-6.84,7.05-4.47,0-7-3-7-7.05s2.63-7,6.91-7S87.82,170.14,87.82,174.19Zm-3.51,0c0-2.8-1.33-4.47-3.41-4.47s-3.4,1.69-3.4,4.47,1.32,4.48,3.4,4.48S84.31,177,84.31,174.19Z"/><path d="M103,177c0,1.82-2.39,4.29-6.22,4.29-4.57,0-6.88-2.89-6.88-7s2.52-7.12,6.94-7.12c3.48,0,6,2.31,6,4a1.51,1.51,0,0,1-1.54,1.48,1.35,1.35,0,0,1-1.19-.65c-1.3-1.95-2.13-2.21-3.28-2.21-2.21,0-3.46,1.92-3.46,4.45s1.38,4.42,3.46,4.42a3.39,3.39,0,0,0,3-1.72c.73-1.14,1-1.51,1.75-1.51A1.56,1.56,0,0,1,103,177Z"/><path d="M108.85,175.05c.08,2.58,1.62,3.9,3.49,3.9a4.59,4.59,0,0,0,3.27-1.53c.84-.83,1.1-.94,1.59-.94a1.1,1.1,0,0,1,1.14,1c0,1.5-2.26,3.74-5.92,3.74-4.71,0-7.08-2.94-7.08-7.05s2.53-7,6.79-7a6,6,0,0,1,6.4,5.85c0,1.25-.55,2.05-2.86,2.05Zm6.32-2c-.1-2.29-1.4-3.54-3.14-3.54s-2.89,1.17-3.18,3.54Z"/><path d="M133.87,177c0,1.82-2.4,4.29-6.22,4.29-4.58,0-6.89-2.89-6.89-7s2.52-7.12,6.94-7.12c3.49,0,6,2.31,6,4a1.51,1.51,0,0,1-1.53,1.48A1.38,1.38,0,0,1,131,172c-1.3-1.95-2.13-2.21-3.27-2.21-2.21,0-3.46,1.92-3.46,4.45s1.38,4.42,3.46,4.42a3.4,3.4,0,0,0,3-1.72c.73-1.14,1-1.51,1.74-1.51A1.56,1.56,0,0,1,133.87,177Z"/><path d="M149.31,177c0,1.82-2.39,4.29-6.22,4.29-4.57,0-6.88-2.89-6.88-7s2.52-7.12,6.94-7.12c3.48,0,6,2.31,6,4a1.51,1.51,0,0,1-1.54,1.48,1.35,1.35,0,0,1-1.19-.65c-1.3-1.95-2.13-2.21-3.28-2.21-2.21,0-3.46,1.92-3.46,4.45s1.38,4.42,3.46,4.42a3.39,3.39,0,0,0,3-1.72c.73-1.14,1-1.51,1.75-1.51A1.56,1.56,0,0,1,149.31,177Z"/><path d="M155.65,175.91l4.63-7.33c.83-1.3,1.43-1.43,2.08-1.43,1.4,0,2.11.88,2.11,2.65v9.33c0,1.59-.83,2.11-1.74,2.11s-1.7-.55-1.7-2.11v-6.81l-4.7,7.52c-.76,1.22-1.25,1.43-2,1.43-1,0-2.14-.65-2.14-2.63v-9.39c0-1.58.84-2.1,1.75-2.1s1.71.57,1.71,2.1Z"/><path d="M171.28,175.91l4.63-7.33c.83-1.3,1.43-1.43,2.08-1.43,1.4,0,2.1.88,2.1,2.65v9.33c0,1.59-.83,2.11-1.74,2.11s-1.69-.55-1.69-2.11v-6.81L172,179.84c-.75,1.22-1.24,1.43-2,1.43-1,0-2.13-.65-2.13-2.63v-9.39c0-1.58.83-2.1,1.74-2.1s1.72.57,1.72,2.1Zm.31-13.62a2.56,2.56,0,0,0,4.86-.34c.11-.45.31-.68.73-.68a.83.83,0,0,1,.75.86,3.83,3.83,0,0,1-3.9,3.51,3.9,3.9,0,0,1-4-3.51.88.88,0,0,1,.78-.86C171.17,161.27,171.43,161.61,171.59,162.29Z"/><path class="cls-3" d="M101.86,13.93c11.41,0,16.9,6.11,16.68,14-.37,12.76-12.05,30.37-15.64,35.5a1.28,1.28,0,0,1-2.08,0c-3.55-5-14.9-22.19-15.32-34.92C85.23,20.57,90.39,13.93,101.86,13.93Zm11.33,23.52V24.69a.83.83,0,0,0-.83-.83h-4.63a.83.83,0,0,1-.63-.3L106,22.24a.85.85,0,0,0-.64-.3H98.63a.8.8,0,0,0-.72.22L97,23.5a.81.81,0,0,1-.68.36H91.67a.83.83,0,0,0-.82.83V37.45a.83.83,0,0,0,.82.83h20.69A.83.83,0,0,0,113.19,37.45Z"/><path class="cls-4" d="M113.19,24.69V37.45a.83.83,0,0,1-.83.83H91.67a.83.83,0,0,1-.82-.83V24.69a.83.83,0,0,1,.82-.83h4.62A.81.81,0,0,0,97,23.5l.94-1.35a.8.8,0,0,1,.72-.22h6.72a.85.85,0,0,1,.64.3l1.11,1.32a.83.83,0,0,0,.63.3h4.63A.83.83,0,0,1,113.19,24.69Zm-5.43,5.7a5.8,5.8,0,1,0-5.81,5.8A5.81,5.81,0,0,0,107.76,30.39ZM95.27,26.56a1.09,1.09,0,1,0-1,.83A1,1,0,0,0,95.27,26.56Z"/><path class="cls-5" d="M102,24.59a5.8,5.8,0,1,1-5.79,5.8A5.81,5.81,0,0,1,102,24.59Zm3.79,5.8A3.78,3.78,0,1,0,102,34.17,3.79,3.79,0,0,0,105.74,30.39Z"/><path class="cls-6" d="M102,26.61a3.78,3.78,0,1,1-3.77,3.78A3.79,3.79,0,0,1,102,26.61Z"/><ellipse cx="94.22" cy="26.56" rx="1.06" ry="0.82"/><path class="cls-7" d="M107.76,30.39a5.8,5.8,0,1,1-5.81-5.8A5.81,5.81,0,0,1,107.76,30.39Z"/><path class="cls-7" d="M105.74,30.39A3.78,3.78,0,1,1,102,26.61,3.79,3.79,0,0,1,105.74,30.39Z"/><path class="cls-8" d="M102,21.94h3.37a.85.85,0,0,1,.64.3l1.11,1.32a.83.83,0,0,0,.63.3h4.63a.83.83,0,0,1,.83.83V37.45a.83.83,0,0,1-.83.83H91.67a.83.83,0,0,1-.82-.83V24.69a.83.83,0,0,1,.82-.83h4.62A.81.81,0,0,0,97,23.5l.94-1.35a.8.8,0,0,1,.72-.22Z"/><path class="cls-8" d="M113.36,55c10.28,1.37,17.45,4.48,17.45,8.09,0,4.89-13.17,8.86-29.43,8.86S72,68,72,63.07c0-3.73,7.67-6.93,18.52-8.24"/><path class="cls-9" d="M102.9,63.43a1.28,1.28,0,0,1-2.08,0c-3.55-5-14.9-22.19-15.32-34.92-.27-7.94,4.89-14.58,16.36-14.58s16.9,6.11,16.68,14C118.17,40.69,106.49,58.3,102.9,63.43Z"/></g></svg>