<svg xmlns="http://www.w3.org/2000/svg" viewBox="0 0 200 200"><defs><style>.cls-1{fill:#fff;}.cls-2{fill:#201600;}.cls-3,.cls-6,.cls-7{fill:none;}.cls-3,.cls-7{stroke:#201600;}.cls-3,.cls-6{stroke-linecap:round;stroke-linejoin:round;}.cls-3{stroke-width:4px;}.cls-4{fill:#78ddbb;}.cls-5{fill:#ff85c8;}.cls-6{stroke:#000;}.cls-6,.cls-7{stroke-width:2px;}.cls-7{stroke-miterlimit:10;}</style></defs><title>Ресурс 3</title><g id="Слой_2" data-name="Слой 2"><g id="Слой_2-2" data-name="Слой 2"><rect class="cls-1" x="2" y="2" width="196" height="196" rx="18" ry="18"/><path class="cls-2" d="M180,4a16,16,0,0,1,16,16V180a16,16,0,0,1-16,16H20A16,16,0,0,1,4,180V20A16,16,0,0,1,20,4H180m0-4H20A20,20,0,0,0,0,20V180a20,20,0,0,0,20,20H180a20,20,0,0,0,20-20V20A20,20,0,0,0,180,0Z"/><path d="M25.93,128.37c6.87.3,9.36,3.84,9.36,8.43s-2.4,8.13-9.36,8.43v.48a2.14,2.14,0,1,1-4.26,0v-.48c-7-.3-9.39-3.87-9.39-8.43s2.43-8.13,9.39-8.43V128a2.13,2.13,0,0,1,2.16-2.16,2.16,2.16,0,0,1,2.1,2.16Zm-4.26,3.48c-2.7,0-5,.93-5,5.07,0,3.21,1.68,4.83,5,4.83Zm4.26,9.9c2.88,0,5-1.2,5-4.92,0-3.87-2.19-5-5-5Z"/><path d="M53.68,140c0,4.71-3.12,8.13-7.89,8.13-5.16,0-8.07-3.48-8.07-8.13s3-8.13,8-8.13S53.68,135.27,53.68,140Zm-4,0c0-3.24-1.53-5.16-3.93-5.16s-3.93,2-3.93,5.16,1.53,5.16,3.93,5.16S49.63,143.19,49.63,140Z"/><path d="M64.24,135.06v10.5c0,1.89-1,2.52-2,2.52s-1.95-.63-1.95-2.52v-10.5H56.92c-1.35,0-2-.48-2-1.47,0-.69.51-1.44,2-1.44H67.63c1.35,0,2,.51,2,1.5,0,.69-.57,1.41-2,1.41Z"/><path d="M86.8,140c0,4.71-3.12,8.13-7.89,8.13-5.16,0-8.07-3.48-8.07-8.13s3-8.13,8-8.13S86.8,135.27,86.8,140Zm-4,0c0-3.24-1.53-5.16-3.93-5.16s-3.93,2-3.93,5.16,1.53,5.16,3.93,5.16S82.75,143.19,82.75,140Z"/><path d="M93.79,135.06v10.5c0,1.89-1,2.52-2,2.52s-2-.63-2-2.52V134.61c0-1.71.78-2.46,2.43-2.46h6.39c1.35,0,2,.51,2,1.5,0,.69-.51,1.41-2,1.41Z"/><path d="M106.42,134.49a6.45,6.45,0,0,1,5.22-2.67c4.08,0,6.69,3.51,6.69,8.31,0,4.53-2.43,8-6.66,8a6.9,6.9,0,0,1-5.25-2.49v5.22c0,3-.87,3.21-2,3.21-1.47,0-2-.81-2-3.33V134.91c0-2.25.36-3.09,2-3.09q2,0,2,2.25Zm4.17.39c-2.28,0-3.93,1.8-3.93,4.89s1.56,5.25,4,5.25c2.16,0,3.66-1.86,3.66-5C114.28,136.53,112.54,134.88,110.59,134.88Z"/><path d="M126.1,148.08c-3.45,0-5.37-2-5.37-4.53,0-4.74,5.49-4.38,10.68-5.91,0-2.4-.93-3.09-2.85-3.09s-3,.51-3.57,1.53-1,1.59-1.89,1.59a1.6,1.6,0,0,1-1.65-1.5c0-2,2.1-4.35,7-4.35s7,1.23,7,6.39l-.09,3.75c0,2.28.78,3.72.78,4.53a1.78,1.78,0,0,1-1.83,1.59c-.81,0-1.65-.75-2.55-2.25A9.1,9.1,0,0,1,126.1,148.08Zm2.37-7.26c-2.67.54-3.75,1.05-3.75,2.46,0,1.17.93,2.19,2.61,2.19a4.32,4.32,0,0,0,2.43-.72c1.56-1,1.68-2,1.68-4.71A18,18,0,0,1,128.47,140.82Z"/><path d="M152.35,134.13a4.82,4.82,0,0,1,4.2-2.31c3.36,0,5.7,3.78,5.7,8.22s-2.7,8-6,8a4.79,4.79,0,0,1-3.9-2.19v5.64c0,1.83-1,2.46-2,2.46s-1.95-.78-1.95-2.46v-5.64a5.33,5.33,0,0,1-4.14,2.19c-3.33,0-5.79-3.54-5.79-8.19s3.06-8.07,5.94-8.07a4.81,4.81,0,0,1,4,2.22V128.4c0-1.89,1-2.52,2-2.52s1.95.81,1.95,2.52Zm-6.81.75c-1.65,0-3.06,2-3.06,5.1,0,2.76,1.23,5.07,3,5.07s2.88-2.07,2.88-5.22S147,134.88,145.54,134.88Zm9.63,0c-1.59,0-2.82,2.13-2.82,5.25,0,2.88,1.2,4.92,2.85,4.92s3-2.31,3-5S157.06,134.88,155.17,134.88Z"/><path d="M169.24,138.09h4.14c4.35,0,6.66,1.68,6.66,4.74,0,2.52-1.62,4.89-6.66,4.89h-5.7c-1.71,0-2.43-.78-2.43-2.43V134.34c0-1.8,1-2.52,2.07-2.52s1.92.63,1.92,2.52Zm0,6.72h3.69c2.58,0,3.06-1,3.06-1.92q0-1.89-3.06-1.89h-3.69Zm17.25,0c0,2.19-.36,3.3-2,3.3s-2-1.11-2-3.3v-9.66c0-2.49.54-3.3,2-3.3,1.68,0,2,1.11,2,3.27Z"/><line class="cls-3" x1="53.8" y1="41.5" x2="40.01" y2="43.93"/><line class="cls-3" x1="66.78" y1="67.22" x2="54.05" y2="79.94"/><line class="cls-3" x1="100.12" y1="79.59" x2="100.12" y2="101.59"/><line class="cls-3" x1="133.75" y1="67.03" x2="146.47" y2="79.76"/><line class="cls-3" x1="146.2" y1="42.45" x2="159.99" y2="44.88"/><path class="cls-3" d="M146.89,33.67q0,21.59-13.71,33.75a47.37,47.37,0,0,1-32.55,12.17q-19.53,0-33.42-12T53.34,33.67"/><path class="cls-4" d="M99.3,33A12.46,12.46,0,1,1,86.84,45.48,12.45,12.45,0,0,1,99.3,33Zm8.12,12.45a8.12,8.12,0,1,0-8.12,8.13A8.12,8.12,0,0,0,107.42,45.48Z"/><path class="cls-5" d="M99.3,37.36a8.13,8.13,0,1,1-8.12,8.12A8.12,8.12,0,0,1,99.3,37.36Z"/><path class="cls-2" d="M82.66,35.5a2.07,2.07,0,0,1,2.28,1.77,2.35,2.35,0,0,1-4.55,0A2.07,2.07,0,0,1,82.66,35.5Z"/><path class="cls-6" d="M111.76,45.48A12.46,12.46,0,1,1,99.3,33,12.46,12.46,0,0,1,111.76,45.48Z"/><path class="cls-6" d="M107.42,45.48a8.12,8.12,0,1,1-8.12-8.12A8.12,8.12,0,0,1,107.42,45.48Z"/><path class="cls-7" d="M99.34,27.33h7.25A1.77,1.77,0,0,1,108,28l2.38,2.85a1.79,1.79,0,0,0,1.37.63h9.93a1.78,1.78,0,0,1,1.78,1.78V60.67a1.77,1.77,0,0,1-1.78,1.77H77.2a1.78,1.78,0,0,1-1.78-1.77V33.23a1.78,1.78,0,0,1,1.78-1.78h9.93a1.8,1.8,0,0,0,1.46-.75l2-2.91c.35-.5.92-.51,1.53-.48Z"/></g></g></svg>