<svg xmlns="http://www.w3.org/2000/svg" viewBox="0 0 204 204"><defs><style>.cls-1{fill:#fff;}.cls-1,.cls-2,.cls-5{stroke:#000;stroke-miterlimit:10;}.cls-1,.cls-2{stroke-width:4px;}.cls-2,.cls-5{fill:none;}.cls-2{stroke-linecap:round;}.cls-3{fill:#af54a1;}.cls-4{fill:#51bfb6;}.cls-5{stroke-width:2px;}</style></defs><title>Обручальные кольца_1</title><g id="Категории"><rect class="cls-1" x="2" y="2" width="200" height="200" rx="20" ry="20"/><path class="cls-2" d="M160.55,42c0,27.64-26.49,50.06-59.16,50.06S42.23,69.64,42.23,42"/><line class="cls-2" x1="7.58" y1="42" x2="42.23" y2="42"/><line class="cls-2" x1="10.78" y1="62.62" x2="44.24" y2="55.03"/><line class="cls-2" x1="20.16" y1="81.83" x2="50.17" y2="67.17"/><line class="cls-2" x1="35.11" y1="98.34" x2="59.61" y2="77.61"/><line class="cls-2" x1="54.59" y1="111" x2="71.92" y2="85.62"/><line class="cls-2" x1="77.29" y1="118.97" x2="86.26" y2="90.66"/><line class="cls-2" x1="101.65" y1="121.7" x2="101.65" y2="92.39"/><line class="cls-2" x1="126.02" y1="119" x2="117.05" y2="90.69"/><line class="cls-2" x1="148.73" y1="111.06" x2="131.4" y2="85.67"/><line class="cls-2" x1="168.23" y1="98.41" x2="143.73" y2="77.68"/><line class="cls-2" x1="183.2" y1="81.93" x2="153.2" y2="67.27"/><line class="cls-2" x1="192.62" y1="62.72" x2="159.16" y2="55.14"/><line class="cls-2" x1="195.85" y1="42.11" x2="161.2" y2="42.11"/><path d="M30.9,131.5C36.19,131.5,39,135,39,140s-2.79,8.53-8,8.53-8.07-3.5-8.07-8.44C22.92,134.88,25.89,131.5,30.9,131.5Zm.07,2.65c-2.74,0-4.67,2-4.67,5.86s2.05,5.87,4.65,5.87,4.69-1.94,4.69-5.87C35.64,136.42,33.91,134.15,31,134.15Z"/><path d="M47.48,136.36a5.66,5.66,0,0,1,5.64,6,6,6,0,0,1-6.19,6.19c-3.93,0-6-2.85-6-8.35s1.67-8.21,6-8.21h.32l1.29,0h.32a3.47,3.47,0,0,0,1-.1c.46-.13,1.08-.82,1.81-.82.58,0,.88.32.88.94,0,2.07-1.36,2.23-4.28,2.28-3.38.07-4.58.41-4.92,4.23A5,5,0,0,1,47.48,136.36Zm-3.47,6c0,2.35,1.33,3.86,3,3.86s3-1.7,3-3.84-1.36-3.74-2.94-3.74S44,140.06,44,142.38Z"/><path d="M58.27,138.1a5,5,0,0,1,4-2c3.13,0,5.13,2.69,5.13,6.37,0,3.47-1.86,6.09-5.1,6.09a5.27,5.27,0,0,1-4-1.91v4c0,2.33-.67,2.46-1.52,2.46-1.12,0-1.54-.62-1.54-2.55v-12.1c0-1.72.28-2.36,1.54-2.36,1,0,1.52.57,1.52,1.72Zm3.2.3c-1.75,0-3,1.38-3,3.75s1.2,4,3,4c1.65,0,2.81-1.42,2.81-3.81C64.3,139.67,63,138.4,61.47,138.4Z"/><path d="M72.67,148.22l-3.75-9.5a3.94,3.94,0,0,1-.35-1.26,1.49,1.49,0,0,1,1.48-1.4c.66,0,1.12.32,1.58,1.63l2.6,7.54,2.46-7c.69-2,.83-2.18,1.75-2.18a1.36,1.36,0,0,1,1.36,1.28,4.47,4.47,0,0,1-.37,1.48l-4,10.46c-1.08,2.8-1.79,3.79-4.55,3.79-1.78,0-2.67-.46-2.67-1.35a1,1,0,0,1,1.1-1.06l1,.07c1.12,0,1.51-.51,2-1.82Z"/><path d="M88.93,138c0-1.45.76-1.93,1.56-1.93s1.5.53,1.5,1.93v8.6c0,1.45-.78,1.93-1.54,1.93s-1.52-.48-1.52-1.93v-3.11A12.49,12.49,0,0,1,86,144c-1.93,0-3.65-.9-4.21-2.19a6.42,6.42,0,0,1-.41-2.62V138c0-1.45.78-1.93,1.59-1.93s1.44.48,1.44,1.93v1.17c0,1.66.56,2.53,2.51,2.53a6.08,6.08,0,0,0,2-.39Z"/><path d="M98.5,148.52c-2.65,0-4.12-1.54-4.12-3.47,0-3.63,4.21-3.36,8.19-4.53,0-1.84-.72-2.37-2.19-2.37s-2.32.39-2.73,1.17-.74,1.22-1.45,1.22a1.22,1.22,0,0,1-1.27-1.15c0-1.52,1.61-3.33,5.36-3.33s5.34.94,5.34,4.9l-.07,2.87a20.61,20.61,0,0,0,.59,3.47,1.36,1.36,0,0,1-1.4,1.22c-.62,0-1.26-.57-2-1.72A7,7,0,0,1,98.5,148.52Zm1.81-5.56c-2,.41-2.87.8-2.87,1.88a1.77,1.77,0,0,0,2,1.68,3.32,3.32,0,0,0,1.86-.55c1.2-.78,1.29-1.57,1.29-3.61A14.48,14.48,0,0,1,100.31,143Z"/><path d="M112.78,138.54v5.63c0,3.25-1.08,4.28-3.22,4.28-1.66,0-2.51-.41-2.51-1.54,0-.71.4-1.06,1.15-1.06.26,0,.58.05.69.05.65,0,.85-.32.85-1.5v-6.23c0-1.29.53-1.86,1.84-1.86h6.88c1.31,0,1.84.57,1.84,1.89v8.39c0,1.47-.76,1.93-1.57,1.93s-1.49-.48-1.49-1.93v-8.05Z"/><path d="M126.33,140.86h3.17c3.33,0,5.11,1.29,5.11,3.64,0,1.93-1.25,3.74-5.11,3.74h-4.37c-1.31,0-1.86-.59-1.86-1.86V138c0-1.38.73-1.93,1.59-1.93s1.47.48,1.47,1.93Zm0,5.15h2.82c2,0,2.35-.78,2.35-1.47,0-1-.78-1.45-2.35-1.45h-2.82Z"/><path d="M139.83,140.84h4.73V138c0-1.45.74-1.93,1.55-1.93s1.51.48,1.51,1.93v8.6c0,1.45-.76,1.93-1.56,1.93s-1.5-.62-1.5-1.93v-3.52h-4.73v3.52c0,1.45-.74,1.93-1.54,1.93s-1.52-.48-1.52-1.93V138c0-1.38.71-1.93,1.56-1.93s1.5.48,1.5,1.93Z"/><path d="M153.63,140.86h3.17c3.34,0,5.11,1.29,5.11,3.64,0,1.93-1.25,3.74-5.11,3.74h-4.37c-1.31,0-1.86-.59-1.86-1.86V138c0-1.38.74-1.93,1.59-1.93s1.47.48,1.47,1.93Zm0,5.15h2.83c2,0,2.34-.78,2.34-1.47,0-1-.78-1.45-2.34-1.45h-2.83Zm13.22,0c0,1.68-.28,2.53-1.52,2.53s-1.54-.85-1.54-2.53v-7.4c0-1.91.42-2.53,1.52-2.53,1.29,0,1.54.85,1.54,2.5Z"/><path d="M172.44,143.05c.07,2.27,1.43,3.45,3.08,3.45a4.06,4.06,0,0,0,2.9-1.36c.74-.74,1-.83,1.4-.83a1,1,0,0,1,1,.9c0,1.33-2,3.31-5.24,3.31-4.16,0-6.25-2.6-6.25-6.23s2.23-6.23,6-6.23a5.34,5.34,0,0,1,5.65,5.17c0,1.1-.48,1.82-2.52,1.82ZM178,141.3c-.09-2-1.24-3.13-2.78-3.13s-2.56,1-2.81,3.13Z"/><path d="M65.66,177c0,1.49-.8,2-1.7,2s-1.63-.51-1.63-2V164c0-1.49.83-2,1.68-2s1.65.53,1.65,2v5.29a1.46,1.46,0,0,0,1.11-.48c.57-.62,1.93-4.23,2.3-4.85a4,4,0,0,1,3.45-1.77,1.24,1.24,0,0,1,1.4,1.22,1.32,1.32,0,0,1-1.24,1.31c-1.31.18-1.47.5-2.37,3a3.87,3.87,0,0,1-1.93,2.51c1.56.48,2.6,2.14,3.61,4.23l.76,1.59a4.5,4.5,0,0,1,.53,1.65c0,.76-.88,1.29-1.73,1.29-1,0-1.17-.18-1.93-1.86l-1.08-2.39c-.05-.12-.19-.33-.35-.62l-.43-.79c-.88-1.56-1.29-1.81-2.1-1.81Z"/><path d="M86.62,172.79A5.86,5.86,0,0,1,80.57,179c-4,0-6.19-2.67-6.19-6.23s2.32-6.23,6.12-6.23A5.85,5.85,0,0,1,86.62,172.79Zm-3.11,0c0-2.49-1.17-4-3-4s-3,1.5-3,4,1.17,4,3,4S83.51,175.27,83.51,172.79Z"/><path d="M93.1,169v5.63c0,3.25-1.08,4.28-3.22,4.28-1.65,0-2.5-.41-2.5-1.54,0-.71.39-1.06,1.15-1.06.25,0,.57.05.69.05.64,0,.85-.32.85-1.5v-6.23c0-1.29.53-1.86,1.84-1.86h6.87c1.31,0,1.84.57,1.84,1.89v8.39c0,1.47-.76,1.93-1.56,1.93s-1.5-.48-1.5-1.93V169Z"/><path d="M106.65,171.36h3.17c3.34,0,5.11,1.29,5.11,3.64,0,1.93-1.24,3.74-5.11,3.74h-4.37c-1.31,0-1.86-.59-1.86-1.86v-8.39c0-1.38.74-1.93,1.59-1.93s1.47.48,1.47,1.93Zm0,5.15h2.83c2,0,2.34-.78,2.34-1.47,0-1-.78-1.45-2.34-1.45h-2.83Z"/><path d="M120.15,176.51h4.71v-8c0-1.47.76-1.93,1.57-1.93s1.49.62,1.49,1.93v8h.44c.76,0,.8,0,.8,1.24v2.86c0,1-.36,1.54-1.12,1.54-.55,0-1.11-.42-1.11-1.54v-1.87h-8c-1.31,0-1.86-.59-1.86-1.86v-8.39c0-1.45.74-1.93,1.57-1.93s1.49.48,1.49,1.93Z"/><path d="M134.71,179c-2.65,0-4.12-1.54-4.12-3.47,0-3.63,4.21-3.36,8.19-4.53,0-1.84-.71-2.37-2.18-2.37s-2.33.39-2.74,1.17-.74,1.22-1.45,1.22a1.23,1.23,0,0,1-1.27-1.15c0-1.52,1.61-3.33,5.36-3.33s5.34.94,5.34,4.9l-.07,2.87a20.3,20.3,0,0,0,.6,3.47A1.37,1.37,0,0,1,141,179c-.62,0-1.26-.57-2-1.72A7,7,0,0,1,134.71,179Zm1.82-5.56c-2.05.41-2.88.8-2.88,1.88a1.77,1.77,0,0,0,2,1.68,3.28,3.28,0,0,0,1.86-.55c1.2-.78,1.29-1.57,1.29-3.61A14.6,14.6,0,0,1,136.53,173.46Z"/><path class="cls-3" d="M114.65,13.93A28.48,28.48,0,1,1,91.58,25.67,17.93,17.93,0,0,1,101.72,31a18,18,0,0,0,8.91,30,17.69,17.69,0,0,0,4,.46,18,18,0,0,0,0-35.93,17.69,17.69,0,0,0-4,.45,28.59,28.59,0,0,0-10.17-8.2A28.3,28.3,0,0,1,114.65,13.93Z"/><path class="cls-4" d="M116.64,43.42a28.42,28.42,0,0,1-6,17.51,17.89,17.89,0,0,1-8.91-5A18,18,0,0,0,91.58,25.67a19.44,19.44,0,0,0-2.78-.21,18,18,0,0,0,0,35.93,18.16,18.16,0,0,0,4.13-.48,28.57,28.57,0,0,0,9.39,7.24,28.51,28.51,0,1,1,14.32-24.73Z"/><path class="cls-5" d="M102.32,68.15a28.52,28.52,0,1,1,8.31-7.22"/><path class="cls-5" d="M100.46,17.71A28.51,28.51,0,1,1,114.65,71a28.28,28.28,0,0,1-12.33-2.8A28.53,28.53,0,0,1,91.58,25.67"/><path class="cls-5" d="M110.63,25.91a17.69,17.69,0,0,1,4-.45,18,18,0,0,1,0,35.93,17.69,17.69,0,0,1-4-.46,18,18,0,0,1-8.91-30"/><path class="cls-5" d="M92.93,60.91a18.16,18.16,0,0,1-4.13.48,18,18,0,0,1,0-35.93,19.44,19.44,0,0,1,2.78.21,18,18,0,0,1,10.14,30.22"/></g></svg>