<svg xmlns="http://www.w3.org/2000/svg" viewBox="0 0 200 200"><defs><style>.cls-1{fill:#fff;}.cls-2{fill:#201600;}.cls-3{fill:#8affda;}.cls-4{fill:#ff85c8;}.cls-5,.cls-6{fill:none;}.cls-5{stroke:#000;stroke-miterlimit:10;stroke-width:2px;}.cls-6{stroke:#201600;stroke-linecap:round;stroke-linejoin:round;stroke-width:4px;}</style></defs><title>Ресурс 1</title><g id="Слой_2" data-name="Слой 2"><g id="Слой_2-2" data-name="Слой 2"><rect class="cls-1" x="2" y="2" width="196" height="196" rx="18" ry="18"/><path class="cls-2" d="M180,4a16,16,0,0,1,16,16V180a16,16,0,0,1-16,16H20A16,16,0,0,1,4,180V20A16,16,0,0,1,20,4H180m0-4H20A20,20,0,0,0,0,20V180a20,20,0,0,0,20,20H180a20,20,0,0,0,20-20V20A20,20,0,0,0,180,0Z"/><path d="M32.16,141.06c0,2.91-3.09,7.14-8.85,7.14-7,0-10.32-5-10.32-11.07C13,130.47,17.22,126,23.31,126c5.31,0,8.76,3.84,8.76,6.54a1.88,1.88,0,0,1-1.92,1.86c-1,0-1.35-.42-2.31-2.19a5.12,5.12,0,0,0-4.56-2.76c-3.6,0-5.88,2.82-5.88,7.86s2.25,7.44,5.76,7.44a5,5,0,0,0,5.07-3.66c.6-1.65,1.2-1.92,2-1.92A1.91,1.91,0,0,1,32.16,141.06Z"/><path d="M50.7,143.76c0,2.25-1.65,4.08-5.28,4.08H38c-1.71,0-2.43-.78-2.43-2.43V134.73c0-1.71.79-2.46,2.43-2.46h6.6c3.72,0,5.52,1.38,5.52,4.08a3.59,3.59,0,0,1-2.67,3.54A4,4,0,0,1,50.7,143.76Zm-11.09-5h2.81c3.39,0,3.9-.87,3.9-1.86s-.36-1.71-3.9-1.71H39.61Zm0,6.18H43c2.84,0,3.62-.6,3.62-1.74,0-1.59-1.38-1.95-4.77-1.95H39.61Z"/><path d="M58.59,148.2c-3.44,0-5.36-2-5.36-4.53,0-4.74,5.48-4.38,10.67-5.91,0-2.4-.93-3.09-2.85-3.09s-3,.51-3.56,1.53c-.63,1.17-1,1.59-1.89,1.59a1.6,1.6,0,0,1-1.66-1.5c0-2,2.1-4.35,7-4.35s7,1.23,7,6.39l-.09,3.75c0,2.28.78,3.72.78,4.53a1.78,1.78,0,0,1-1.83,1.59c-.81,0-1.65-.75-2.55-2.25A9.08,9.08,0,0,1,58.59,148.2ZM61,140.94c-2.67.54-3.75,1.05-3.75,2.46a2.32,2.32,0,0,0,2.61,2.19,4.32,4.32,0,0,0,2.43-.72c1.56-1,1.68-2,1.68-4.71A18,18,0,0,1,61,140.94Z"/><path d="M85.41,147.84H72.76v2.4c0,1.35-.48,2-1.48,2-.8,0-1.43-.63-1.43-2v-2.91c0-2.67-.09-2.4,1.32-2.4,1.82-2.22,2.76-5.4,2.82-9.57a5.58,5.58,0,0,1,.2-1.92c.21-.45.7-1.17,2.25-1.17h7.77c1.71,0,2.43.78,2.43,2.46v10.2h.72c.88,0,1-.15,1,2v3.33c0,1.35-.5,2-1.5,2-.69,0-1.41-.51-1.41-2Zm-2.72-2.91v-9.75H77.61c-.12,4.29-.54,7.23-2.33,9.75Z"/><path d="M94.36,141.06c.08,3,1.85,4.5,4,4.5a5.31,5.31,0,0,0,3.78-1.77c1-1,1.26-1.08,1.83-1.08a1.27,1.27,0,0,1,1.32,1.17c0,1.74-2.61,4.32-6.84,4.32-5.43,0-8.15-3.39-8.15-8.13s2.9-8.13,7.82-8.13,7.38,3.54,7.38,6.75c0,1.44-.63,2.37-3.3,2.37Zm7.28-2.28c-.12-2.64-1.61-4.08-3.63-4.08s-3.32,1.35-3.65,4.08Z"/><path d="M116.46,132.33c4.35,0,7.35,3.48,7.35,7.8a7.83,7.83,0,0,1-8.07,8.07c-5.13,0-7.86-3.72-7.86-10.89s2.19-10.71,7.77-10.71h.42l1.68,0h.42a4.6,4.6,0,0,0,1.35-.12c.6-.18,1.41-1.08,2.37-1.08.75,0,1.14.42,1.14,1.23,0,2.7-1.77,2.91-5.58,3-4.41.09-6,.54-6.42,5.52A6.47,6.47,0,0,1,116.46,132.33Zm-4.53,7.86c0,3.06,1.74,5,3.93,5,2.34,0,3.9-2.22,3.9-5,0-3-1.77-4.89-3.84-4.89S111.93,137.16,111.93,140.19Z"/><path d="M130.8,138.18H137v-3.72c0-1.89,1-2.52,2-2.52s2,.63,2,2.52v11.22c0,1.89-1,2.52-2,2.52s-2-.81-2-2.52v-4.59H130.8v4.59c0,1.89-1,2.52-2,2.52s-2-.63-2-2.52V134.46c0-1.8.93-2.52,2-2.52.93,0,2,.63,2,2.52Z"/><path d="M148.8,138.21h4.14c4.35,0,6.66,1.68,6.66,4.74,0,2.52-1.62,4.89-6.66,4.89h-5.7c-1.71,0-2.43-.78-2.43-2.43V134.46c0-1.8,1-2.52,2.07-2.52s1.92.63,1.92,2.52Zm0,6.72h3.69c2.58,0,3.06-1,3.06-1.92q0-1.89-3.06-1.89H148.8Zm17.25,0c0,2.19-.36,3.3-2,3.3s-2-1.11-2-3.3v-9.66c0-2.49.54-3.3,2-3.3,1.68,0,2,1.11,2,3.27Z"/><path d="M173.34,141.06c.09,3,1.86,4.5,4,4.5a5.31,5.31,0,0,0,3.78-1.77c1-1,1.26-1.08,1.83-1.08a1.27,1.27,0,0,1,1.32,1.17c0,1.74-2.61,4.32-6.84,4.32-5.43,0-8.16-3.39-8.16-8.13s2.91-8.13,7.83-8.13c4.77,0,7.38,3.54,7.38,6.75,0,1.44-.63,2.37-3.3,2.37Zm7.29-2.28c-.12-2.64-1.62-4.08-3.63-4.08s-3.33,1.35-3.66,4.08Z"/><path d="M47.81,170.43c0-1.65.69-2.49,2-2.49,1,0,1.95.66,1.95,2.49v4.2c1.05,0,1.38-.3,2.28-2.85,1.17-3.24,2.43-3.6,4.23-3.6,2.13,0,2.31.75,2.31,1.44,0,.87-.54,1.32-1.65,1.35-1.41.06-1.53.36-2.13,2.25a3.78,3.78,0,0,1-2,2.64c1.14.33,2.34,1.47,3.36,3.48l.87,1.71a3.62,3.62,0,0,1,.51,1.53,1.68,1.68,0,0,1-1.86,1.62c-1.14,0-1.71-.54-2.37-2.07l-1.23-2.79c-.72-1.65-1.29-2.1-2.37-2.13v4.47c0,1.68-.66,2.52-2,2.52-1.11,0-2-.81-2-2.52Z"/><path d="M77.42,176.07c0,4.71-3.12,8.13-7.89,8.13-5.16,0-8.07-3.48-8.07-8.13s3-8.13,8-8.13S77.42,171.39,77.42,176.07Zm-4,0c0-3.24-1.53-5.16-3.93-5.16s-3.93,2-3.93,5.16,1.53,5.16,3.93,5.16S73.37,179.31,73.37,176.07Z"/><path d="M85.88,171.18v7.35c0,4.23-1.41,5.58-4.2,5.58-2.16,0-3.27-.54-3.27-2,0-.93.51-1.38,1.5-1.38.33,0,.75.06.9.06.84,0,1.11-.42,1.11-1.95V170.7c0-1.68.69-2.43,2.4-2.43h9c1.71,0,2.4.75,2.4,2.46v11c0,1.92-1,2.52-2,2.52s-2-.63-2-2.52v-10.5Z"/><path d="M103.55,174.21h4.14c4.35,0,6.66,1.68,6.66,4.74,0,2.52-1.62,4.89-6.66,4.89H102c-1.71,0-2.43-.78-2.43-2.43V170.46c0-1.8,1-2.52,2.07-2.52s1.92.63,1.92,2.52Zm0,6.72h3.69c2.58,0,3.06-1,3.06-1.92q0-1.89-3.06-1.89h-3.69Z"/><path d="M121.16,180.93h6.15V170.46c0-1.92,1-2.52,2-2.52s2,.81,2,2.52v10.47h.57c1,0,1,0,1,1.62v3.72c0,1.35-.48,2-1.47,2-.72,0-1.44-.54-1.44-2v-2.43H119.6c-1.71,0-2.43-.78-2.43-2.43V170.46c0-1.89,1-2.52,2-2.52s2,.63,2,2.52Z"/><path d="M140.15,184.2c-3.45,0-5.37-2-5.37-4.53,0-4.74,5.49-4.38,10.68-5.91,0-2.4-.93-3.09-2.85-3.09s-3,.51-3.57,1.53c-.63,1.17-1,1.59-1.89,1.59a1.6,1.6,0,0,1-1.65-1.5c0-2,2.1-4.35,7-4.35s7,1.23,7,6.39l-.09,3.75c0,2.28.78,3.72.78,4.53a1.78,1.78,0,0,1-1.83,1.59c-.81,0-1.65-.75-2.55-2.25A9.1,9.1,0,0,1,140.15,184.2Zm2.37-7.26c-2.67.54-3.75,1.05-3.75,2.46,0,1.17.93,2.19,2.61,2.19a4.32,4.32,0,0,0,2.43-.72c1.56-1,1.68-2,1.68-4.71A18,18,0,0,1,142.52,176.94Z"/><path class="cls-3" d="M109.85,25.39a19.64,19.64,0,1,1-15.91,8.1,12.3,12.3,0,0,1,7,3.64,12.39,12.39,0,0,0,6.15,20.67,12.64,12.64,0,0,0,2.77.31,12.39,12.39,0,1,0,0-24.77,12.64,12.64,0,0,0-2.77.31h0a19.75,19.75,0,0,0-7-5.67A19.66,19.66,0,0,1,109.85,25.39Z"/><path class="cls-4" d="M100.06,28a19.75,19.75,0,0,1,7,5.67,19.65,19.65,0,0,1,0,24.14,12.32,12.32,0,0,1-6.14-3.47A12.39,12.39,0,1,0,92,58.11a12.7,12.7,0,0,0,2.85-.32h0a19.59,19.59,0,0,0,6.47,5A19.65,19.65,0,1,1,100.06,28Z"/><path class="cls-5" d="M101.35,62.78a19.66,19.66,0,1,1,5.73-5"/><path class="cls-5" d="M100.06,28a19.66,19.66,0,1,1-6.12,5.5"/><path class="cls-5" d="M107.08,33.65a12.64,12.64,0,0,1,2.77-.31,12.39,12.39,0,1,1,0,24.77,12.64,12.64,0,0,1-2.77-.31,12.39,12.39,0,0,1-6.15-20.67h0"/><path class="cls-5" d="M94.87,57.79a12.7,12.7,0,0,1-2.85.32,12.39,12.39,0,0,1,0-24.77,12.39,12.39,0,0,1,8.92,21"/><line class="cls-6" x1="53.11" y1="44.9" x2="39.33" y2="47.33"/><line class="cls-6" x1="66.09" y1="70.62" x2="53.36" y2="83.34"/><line class="cls-6" x1="99.43" y1="82.99" x2="99.43" y2="104.99"/><line class="cls-6" x1="133.06" y1="70.43" x2="145.79" y2="83.16"/><line class="cls-6" x1="145.51" y1="45.85" x2="159.3" y2="48.28"/><path class="cls-6" d="M146.21,37.07q0,21.59-13.71,33.75A47.37,47.37,0,0,1,100,83Q80.41,83,66.53,71T52.65,37.07"/></g></g></svg>