<svg xmlns="http://www.w3.org/2000/svg" viewBox="0 0 200 200"><defs><style>.cls-1{fill:#fff;}.cls-2{fill:#201600;}.cls-3,.cls-8,.cls-9{fill:none;}.cls-3,.cls-4,.cls-8,.cls-9{stroke:#201600;}.cls-3,.cls-4,.cls-8{stroke-miterlimit:10;stroke-width:2px;}.cls-4,.cls-7{fill:#ff85c8;}.cls-5{fill:#e5df61;}.cls-6{fill:#78ddbb;}.cls-8,.cls-9{stroke-linecap:round;}.cls-9{stroke-linejoin:round;stroke-width:4px;}</style></defs><title>Ресурс 2</title><g id="Слой_2" data-name="Слой 2"><g id="Слой_2-2" data-name="Слой 2"><rect class="cls-1" x="2" y="2" width="196" height="196" rx="18" ry="18"/><path class="cls-2" d="M180,4a16,16,0,0,1,16,16V180a16,16,0,0,1-16,16H20A16,16,0,0,1,4,180V20A16,16,0,0,1,20,4H180m0-4H20A20,20,0,0,0,0,20V180a20,20,0,0,0,20,20H180a20,20,0,0,0,20-20V20A20,20,0,0,0,180,0Z"/><path class="cls-3" d="M98.92,66.42s3.2,4.48,6.61,2.93a.8.8,0,0,0,0-1.43c-2.61-1-3.68-1.94-4.18-3.15A5.56,5.56,0,0,1,98.92,66.42Z"/><ellipse class="cls-4" cx="96.85" cy="59.16" rx="2.99" ry="4.67" transform="translate(-14.65 37.98) rotate(-20.66)"/><path class="cls-3" d="M88.94,38.3l6.68-14.64a1,1,0,0,1,1.85.45c.2,7.47-6.23,25.5-6.23,25.5l-.78-7Z"/><ellipse class="cls-2" cx="88.51" cy="50.22" rx="0.72" ry="0.79"/><path class="cls-5" d="M109.52,21.83a2.76,2.76,0,0,0-2.06,2.93v0L109,43.74l7.72-1.34-4.26-18.46v0a2.9,2.9,0,0,0-1.07-1.68,2.14,2.14,0,0,0-1.81-.38S109.53,21.82,109.52,21.83Z"/><path class="cls-6" d="M116.68,42.4,109,43.74c-.06.14.85,13.2.86,13.24l10-1.66C119.81,55.22,116.74,42.49,116.68,42.4Z"/><path class="cls-7" d="M119.8,55.32l-10,1.66a63.23,63.23,0,0,0-.87,8.19,2.92,2.92,0,0,0,.78,2.38,11,11,0,0,0,2.46,1.5,8.14,8.14,0,0,0,4.6.62c3.49-.63,5.93-4.12,6.22-4.61a3,3,0,0,0,0-2.42C122.38,60.73,119.8,55.32,119.8,55.32Z"/><path class="cls-3" d="M109,43.74l-1.5-18.94v0a2.76,2.76,0,0,1,2.06-2.93s0,0,0,0a2.14,2.14,0,0,1,1.81.38,2.9,2.9,0,0,1,1.07,1.68v0l4.26,18.46c.06.09,3.13,12.82,3.12,12.92s2.58,5.41,3.18,7.32a3,3,0,0,1,0,2.42c-.29.49-2.73,4-6.22,4.61a8.14,8.14,0,0,1-4.6-.62,11,11,0,0,1-2.46-1.5,2.92,2.92,0,0,1-.78-2.38,63.23,63.23,0,0,1,.87-8.19S108.9,43.88,109,43.74Z"/><line class="cls-3" x1="119.8" y1="55.32" x2="109.82" y2="56.98"/><line class="cls-3" x1="116.68" y1="42.4" x2="108.96" y2="43.74"/><line class="cls-8" x1="120.66" y1="67.7" x2="118.58" y2="62.28"/><line class="cls-8" x1="112.85" y1="69.3" x2="112.98" y2="66.18"/><path d="M44.16,141.06c0,2.91-3.09,7.14-8.85,7.14-7,0-10.31-5-10.31-11.07C25,130.47,29.22,126,35.31,126c5.31,0,8.76,3.84,8.76,6.54a1.88,1.88,0,0,1-1.92,1.86c-1,0-1.35-.42-2.31-2.19a5.12,5.12,0,0,0-4.56-2.76c-3.6,0-5.87,2.82-5.87,7.86s2.24,7.44,5.76,7.44a5,5,0,0,0,5.06-3.66c.6-1.65,1.2-1.92,2-1.92A1.91,1.91,0,0,1,44.16,141.06Z"/><path d="M55.17,135.18v10.5c0,1.89-1,2.52-2,2.52s-2-.63-2-2.52v-10.5H47.86c-1.35,0-2-.48-2-1.47,0-.69.51-1.44,2-1.44h10.7c1.36,0,2,.51,2,1.5,0,.69-.56,1.41-2,1.41Z"/><path d="M66.61,142.05,72,133.59c1-1.5,1.64-1.65,2.39-1.65q2.43,0,2.43,3.06v10.77c0,1.83-1,2.43-2,2.43s-2-.63-2-2.43v-7.86l-5.43,8.67c-.87,1.41-1.43,1.65-2.3,1.65-1.2,0-2.46-.75-2.46-3V134.37c0-1.83,1-2.43,2-2.43s2,.66,2,2.43Z"/><path d="M86.11,135.18v7.35c0,4.23-1.41,5.58-4.2,5.58-2.16,0-3.27-.54-3.27-2,0-.93.51-1.38,1.5-1.38.33,0,.75.06.9.06.84,0,1.11-.42,1.11-1.95V134.7c0-1.68.69-2.43,2.4-2.43h9c1.71,0,2.41.75,2.41,2.46v11c0,1.92-1,2.52-2,2.52s-2-.63-2-2.52v-10.5Z"/><path d="M103.78,142.05l5.34-8.46c1-1.5,1.64-1.65,2.39-1.65q2.43,0,2.43,3.06v10.77c0,1.83-1,2.43-2,2.43s-2-.63-2-2.43v-7.86l-5.43,8.67c-.87,1.41-1.43,1.65-2.3,1.65-1.2,0-2.46-.75-2.46-3V134.37c0-1.83,1-2.43,2-2.43s2,.66,2,2.43Z"/><path d="M132.3,143.25c0,2.1-2.75,4.95-7.17,4.95-5.27,0-7.94-3.33-7.94-8s2.91-8.22,8-8.22c4,0,6.89,2.67,6.89,4.65a1.73,1.73,0,0,1-1.76,1.71,1.57,1.57,0,0,1-1.38-.75c-1.5-2.25-2.46-2.55-3.78-2.55-2.55,0-4,2.22-4,5.13s1.59,5.1,4,5.1a3.91,3.91,0,0,0,3.42-2c.83-1.32,1.2-1.74,2-1.74A1.79,1.79,0,0,1,132.3,143.25Z"/><path d="M143.19,135.18v10.5c0,1.89-1,2.52-2,2.52s-2-.63-2-2.52v-10.5h-3.35c-1.36,0-2-.48-2-1.47,0-.69.5-1.44,2-1.44h10.7c1.35,0,2,.51,2,1.5,0,.69-.57,1.41-2,1.41Z"/><path d="M154.63,138.21h4.13c4.35,0,6.66,1.68,6.66,4.74,0,2.52-1.62,4.89-6.66,4.89h-5.7c-1.71,0-2.43-.78-2.43-2.43V134.46c0-1.8,1-2.52,2.08-2.52,1,0,1.92.63,1.92,2.52Zm0,6.72h3.68c2.58,0,3.06-1,3.06-1.92q0-1.89-3.06-1.89h-3.68Zm17.24,0c0,2.19-.36,3.3-2,3.3s-2-1.11-2-3.3v-9.66c0-2.49.54-3.3,2-3.3,1.68,0,2,1.11,2,3.27Z"/><path class="cls-3" d="M86.26,50.45l-1.77,2.81s-4.65-5.1-9.46,2.47c-4.16,6.55.33,9.56.33,9.56s4.93,3.5,9.06-3l4.12-6.5,4.53,8.12c2.68,4.81,7.41,2.39,8.67.46A8.49,8.49,0,0,0,101.4,55c-2.91-4-9.81-2.27-9.81-2.27L90.46,42.6s-3.95-12-8.26-19a.73.73,0,0,0-1.36.42c-.18,8,3.18,21,3.18,21Z"/><ellipse class="cls-4" cx="79.62" cy="59.07" rx="4.9" ry="3.25" transform="translate(-10.37 100.67) rotate(-61.38)"/><line class="cls-9" x1="52.65" y1="41.09" x2="38.86" y2="43.52"/><line class="cls-9" x1="65.62" y1="66.81" x2="52.89" y2="79.54"/><line class="cls-9" x1="98.96" y1="79.19" x2="98.96" y2="101.19"/><line class="cls-9" x1="132.59" y1="66.63" x2="145.32" y2="79.35"/><line class="cls-9" x1="145.05" y1="42.04" x2="158.83" y2="44.47"/><path class="cls-9" d="M145.74,33.26q0,21.6-13.71,33.76A47.42,47.42,0,0,1,99.48,79.19q-19.55,0-33.42-12T52.18,33.26"/></g></g></svg>