<svg xmlns="http://www.w3.org/2000/svg" viewBox="0 0 104 104"><defs><style>.cls-1,.cls-2{fill:#fff;}.cls-1{stroke:#000;stroke-width:4px;}.cls-1,.cls-7,.cls-8{stroke-miterlimit:10;}.cls-3{fill:#af54a1;}.cls-4{fill:#201600;}.cls-5{fill:#ffefbe;}.cls-6{fill:#51bfb6;}.cls-7,.cls-8{fill:none;stroke:#201600;stroke-width:2px;}.cls-8{stroke-linecap:round;}</style></defs><title>Стилисты</title><g id="Пиктограммы"><rect class="cls-1" x="2" y="2" width="100" height="100"/><path class="cls-2" d="M23.18,15a1.34,1.34,0,0,0-2.45.7c-.31,13.12,5.71,34.49,5.71,34.49l4,8.84-3.19,4.6s-8.34-8.37-17,4.06c-7.46,10.77.6,15.72.6,15.72s8.83,5.73,16.24-5l7.4-10.68,8.12,13.34c4.81,7.9,13.3,3.93,15.54.75a13,13,0,0,0-.59-15.46C52.4,59.92,40,62.72,40,62.72l-.61-5L38,46.15l0-.07-2.63-6.79-.08-.2C32.51,32.3,28,22.05,23.18,15ZM13.87,70c2.59-3.74,6.79-5.31,9.38-3.52s2.58,6.28,0,10S16.45,81.77,13.86,80,11.28,73.7,13.87,70Zm19.57-12a1.29,1.29,0,1,1,2.12,1.48,1.29,1.29,0,0,1-2.12-1.48ZM44.67,75.61c-1.83-3.88-1.18-8,1.46-9.29s6.27.89,8.11,4.78,1.18,8-1.46,9.29S46.51,79.5,44.67,75.61Z"/><path class="cls-2" d="M50.57,15.79a1.75,1.75,0,0,0-3.31-.73l-12,24,.08.2C36.86,43,37.81,45.61,38,46.08l0,.07,1.4,11.52S50.93,28.06,50.57,15.79Z"/><path class="cls-3" d="M23.25,66.44c-2.59-1.79-6.79-.22-9.38,3.52s-2.6,8.22,0,10,6.79.21,9.38-3.52S25.84,68.23,23.25,66.44Z"/><path class="cls-4" d="M35.24,57.61a1.29,1.29,0,1,0-1.47,2.12,1.29,1.29,0,0,0,1.47-2.12Z"/><path class="cls-5" d="M72.2,12.66a4.6,4.6,0,0,0-3.71,4.82.15.15,0,0,0,0,.06l2.69,31.11,13.86-2.19L77.39,16.13a.13.13,0,0,0,0-.06,4.72,4.72,0,0,0-1.9-2.77,4.17,4.17,0,0,0-3.25-.62S72.21,12.65,72.2,12.66Z"/><path class="cls-3" d="M46.13,66.32c-2.64,1.25-3.29,5.41-1.46,9.29s5.46,6,8.11,4.78,3.29-5.4,1.46-9.29S48.77,65.08,46.13,66.32Z"/><path class="cls-6" d="M85.05,46.46,71.19,48.65c-.12.23,1.52,21.69,1.53,21.75l17.92-2.72C90.64,67.5,85.15,46.59,85.05,46.46Z"/><path class="cls-3" d="M78.16,90.63a15.09,15.09,0,0,0,7.06.61c6.28-1,10.66-6.78,11.17-7.57.88-1.37.28-3,0-4-1.09-3.15-5.7-12-5.7-12L72.72,70.4s-1.78,10.07-1.56,13.45c.07,1-.06,2.86,1.4,3.9A18.85,18.85,0,0,0,77,90.21C77.35,90.36,77.75,90.51,78.16,90.63Z"/><path class="cls-7" d="M38,46.08c-.17-.47-1.12-3.1-2.63-6.79"/><path class="cls-7" d="M35.27,39.09C32.51,32.3,28,22.05,23.18,15a1.34,1.34,0,0,0-2.45.7c-.31,13.12,5.71,34.49,5.71,34.49l4,8.84-3.19,4.6s-8.34-8.37-17,4.06c-7.46,10.77.6,15.72.6,15.72s8.83,5.73,16.24-5l7.4-10.68,8.12,13.34c4.81,7.9,13.3,3.93,15.54.75a13,13,0,0,0-.59-15.46C52.4,59.92,40,62.72,40,62.72l-.61-5"/><path class="cls-7" d="M53.22,85.28s6,7.37,12.36,4.82a1.26,1.26,0,0,0-.1-2.35c-4.87-1.63-6.87-3.19-7.8-5.17A10.72,10.72,0,0,1,53.22,85.28Z"/><path class="cls-7" d="M44.67,75.61c1.84,3.89,5.46,6,8.11,4.78s3.29-5.4,1.46-9.29-5.47-6-8.11-4.78S42.84,71.73,44.67,75.61Z"/><path class="cls-7" d="M13.87,70c-2.59,3.74-2.6,8.22,0,10s6.79.21,9.38-3.52,2.6-8.23,0-10S16.46,66.22,13.87,70Z"/><path class="cls-7" d="M35.27,39.09l12-24a1.75,1.75,0,0,1,3.31.73c.36,12.27-11.16,41.88-11.16,41.88L38,46.15l0-.07-2.63-6.79Z"/><path class="cls-7" d="M71.19,48.65,68.5,17.54a.15.15,0,0,1,0-.06,4.6,4.6,0,0,1,3.71-4.82s0,0,0,0a4.17,4.17,0,0,1,3.25.62,4.72,4.72,0,0,1,1.9,2.77.13.13,0,0,1,0,.06l7.66,30.33c.1.13,5.59,21,5.59,21.22,0,0,4.61,8.87,5.7,12,.33.94.93,2.6,0,4-.51.79-4.89,6.53-11.17,7.57a15.09,15.09,0,0,1-7.06-.61c-.41-.12-.81-.27-1.18-.42a18.85,18.85,0,0,1-4.42-2.46c-1.46-1-1.33-2.86-1.4-3.9-.22-3.38,1.56-13.45,1.56-13.45S71.07,48.88,71.19,48.65Z"/><line class="cls-7" x1="90.64" y1="67.68" x2="72.72" y2="70.4"/><line class="cls-7" x1="85.05" y1="46.46" x2="71.19" y2="48.65"/><line class="cls-8" x1="92.17" y1="88" x2="88.43" y2="79.1"/><line class="cls-8" x1="78.16" y1="90.63" x2="78.41" y2="85.51"/></g></svg>