<svg xmlns="http://www.w3.org/2000/svg" viewBox="0 0 204 204"><defs><style>.cls-1,.cls-3{fill:#fff;}.cls-1,.cls-2{stroke:#000;stroke-width:4px;}.cls-1,.cls-2,.cls-8,.cls-9{stroke-miterlimit:10;}.cls-2,.cls-8,.cls-9{fill:none;}.cls-2,.cls-9{stroke-linecap:round;}.cls-4{fill:#af54a1;}.cls-5{fill:#201600;}.cls-6{fill:#ffefbe;}.cls-7{fill:#51bfb6;}.cls-8,.cls-9{stroke:#201600;stroke-width:2px;}</style></defs><title>Стилисты_1</title><g id="Категории"><rect class="cls-1" x="2" y="2" width="200" height="200" rx="20" ry="20"/><path class="cls-2" d="M160.55,42c0,27.64-26.49,50.06-59.16,50.06S42.23,69.64,42.23,42"/><line class="cls-2" x1="7.58" y1="42" x2="42.23" y2="42"/><line class="cls-2" x1="10.78" y1="62.62" x2="44.24" y2="55.03"/><line class="cls-2" x1="20.16" y1="81.83" x2="50.17" y2="67.17"/><line class="cls-2" x1="35.11" y1="98.34" x2="59.61" y2="77.61"/><line class="cls-2" x1="54.59" y1="111" x2="71.92" y2="85.62"/><line class="cls-2" x1="77.29" y1="118.97" x2="86.26" y2="90.66"/><line class="cls-2" x1="101.65" y1="121.7" x2="101.65" y2="92.39"/><line class="cls-2" x1="126.02" y1="119" x2="117.05" y2="90.69"/><line class="cls-2" x1="148.73" y1="111.06" x2="131.4" y2="85.67"/><line class="cls-2" x1="168.23" y1="98.41" x2="143.73" y2="77.68"/><line class="cls-2" x1="183.2" y1="81.93" x2="153.2" y2="67.27"/><line class="cls-2" x1="192.62" y1="62.72" x2="159.16" y2="55.14"/><line class="cls-2" x1="195.85" y1="42.11" x2="161.2" y2="42.11"/><path d="M52.89,145.06c0,2.61-2.78,6.42-8,6.42-6.28,0-9.28-4.48-9.28-10,0-6,3.81-10,9.28-10,4.78,0,7.89,3.45,7.89,5.88a1.69,1.69,0,0,1-1.73,1.67c-.94,0-1.21-.37-2.08-2a4.6,4.6,0,0,0-4.1-2.48c-3.24,0-5.29,2.54-5.29,7.07s2,6.7,5.18,6.7a4.48,4.48,0,0,0,4.56-3.3c.54-1.48,1.08-1.72,1.81-1.72A1.72,1.72,0,0,1,52.89,145.06Z"/><path d="M62.8,139.77v9.44c0,1.7-.86,2.27-1.81,2.27s-1.75-.57-1.75-2.27v-9.44h-3c-1.21,0-1.83-.44-1.83-1.33,0-.62.46-1.29,1.83-1.29h9.64c1.21,0,1.83.46,1.83,1.35,0,.62-.51,1.27-1.83,1.27Z"/><path d="M73.09,146l4.8-7.62c.87-1.34,1.49-1.48,2.16-1.48,1.46,0,2.19.92,2.19,2.75v9.69c0,1.65-.87,2.19-1.81,2.19s-1.76-.57-1.76-2.19v-7.07L73.79,150c-.78,1.27-1.3,1.49-2.08,1.49-1.08,0-2.21-.68-2.21-2.73V139c0-1.65.86-2.19,1.81-2.19s1.78.59,1.78,2.19Z"/><path d="M90.64,139.77v6.61c0,3.8-1.27,5-3.78,5-2,0-3-.49-3-1.81,0-.84.46-1.24,1.35-1.24.3,0,.68.05.81.05.76,0,1-.37,1-1.75v-7.32c0-1.51.62-2.18,2.16-2.18H97.3c1.54,0,2.16.67,2.16,2.21v9.85c0,1.73-.89,2.27-1.83,2.27s-1.76-.57-1.76-2.27v-9.44Z"/><path d="M106.54,146l4.8-7.62c.87-1.34,1.49-1.48,2.16-1.48,1.46,0,2.19.92,2.19,2.75v9.69c0,1.65-.86,2.19-1.81,2.19s-1.75-.57-1.75-2.19v-7.07l-4.89,7.8c-.78,1.27-1.29,1.49-2.08,1.49-1.08,0-2.21-.68-2.21-2.73V139c0-1.65.86-2.19,1.81-2.19s1.78.59,1.78,2.19Z"/><path d="M132.21,147c0,1.89-2.48,4.45-6.45,4.45-4.75,0-7.15-3-7.15-7.23s2.62-7.4,7.21-7.4c3.61,0,6.2,2.4,6.2,4.18a1.56,1.56,0,0,1-1.59,1.54,1.41,1.41,0,0,1-1.24-.67c-1.35-2-2.21-2.3-3.4-2.3-2.3,0-3.59,2-3.59,4.62s1.43,4.59,3.59,4.59a3.54,3.54,0,0,0,3.08-1.78c.75-1.19,1.08-1.57,1.8-1.57A1.62,1.62,0,0,1,132.21,147Z"/><path d="M142,139.77v9.44c0,1.7-.87,2.27-1.81,2.27s-1.76-.57-1.76-2.27v-9.44h-3c-1.21,0-1.84-.44-1.84-1.33,0-.62.46-1.29,1.84-1.29h9.64c1.21,0,1.83.46,1.83,1.35,0,.62-.51,1.27-1.83,1.27Z"/><path d="M152.3,142.49H156c3.91,0,6,1.51,6,4.27,0,2.26-1.46,4.4-6,4.4H150.9c-1.54,0-2.19-.71-2.19-2.19v-9.85c0-1.62.87-2.27,1.87-2.27s1.72.57,1.72,2.27Zm0,6h3.32c2.33,0,2.76-.92,2.76-1.73,0-1.13-.92-1.7-2.76-1.7H152.3Zm15.52,0c0,2-.32,3-1.78,3s-1.81-1-1.81-3v-8.69c0-2.24.49-3,1.79-3,1.51,0,1.8,1,1.8,2.94Z"/><path class="cls-3" d="M80.18,15.73a1,1,0,0,0-1.79.52c-.23,9.65,4.19,25.37,4.19,25.37l3,6.5L83.2,51.51s-6.13-6.16-12.47,3c-5.5,7.92.43,11.55.43,11.55s6.5,4.23,12-3.63l5.45-7.86,6,9.81c3.53,5.82,9.78,2.9,11.44.56a9.57,9.57,0,0,0-.44-11.37c-3.85-4.81-13-2.74-13-2.74l-.45-3.72-1-8.47,0-.06-1.93-5-.06-.14C87.05,28.44,83.71,20.89,80.18,15.73ZM73.34,56.14c1.91-2.75,5-3.91,6.9-2.59s1.89,4.62,0,7.37-5,3.91-6.9,2.59S71.43,58.89,73.34,56.14ZM87.73,47.3A1,1,0,1,1,88,48.62,1,1,0,0,1,87.73,47.3ZM96,60.3c-1.35-2.86-.87-5.92,1.07-6.83s4.61.65,6,3.51.87,5.92-1.07,6.84S97.35,63.16,96,60.3Z"/><path class="cls-3" d="M100.34,16.3a1.29,1.29,0,0,0-2.44-.55C93,25.63,89.08,33.44,89.08,33.44l.06.14c1.1,2.71,1.81,4.65,1.93,5l0,.06,1,8.47S100.6,25.32,100.34,16.3Z"/><path class="cls-4" d="M80.24,53.55c-1.91-1.32-5-.16-6.9,2.59s-1.91,6.06,0,7.37,5,.16,6.9-2.59S82.14,54.87,80.24,53.55Z"/><path class="cls-5" d="M89.06,47.05a1,1,0,0,0-1.33.25,1,1,0,0,0,1.57,1.08A1,1,0,0,0,89.06,47.05Z"/><path class="cls-6" d="M116.24,14a3.38,3.38,0,0,0-2.72,3.54s0,0,0,0l2,22.9,10.2-1.62-5.63-22.31s0,0,0,0a3.49,3.49,0,0,0-1.4-2,3.1,3.1,0,0,0-2.39-.46S116.26,14,116.24,14Z"/><path class="cls-4" d="M97.07,53.47c-1.94.91-2.42,4-1.07,6.83s4,4.44,6,3.52,2.42-4,1.07-6.84S99,52.55,97.07,53.47Z"/><path class="cls-7" d="M125.7,38.85l-10.2,1.62c-.08.17,1.12,16,1.13,16l13.18-2C129.81,54.34,125.77,39,125.7,38.85Z"/><path class="cls-4" d="M120.64,71.35a11.13,11.13,0,0,0,5.19.45c4.62-.76,7.83-5,8.21-5.57a3.33,3.33,0,0,0,0-2.92c-.8-2.31-4.2-8.85-4.2-8.85l-13.18,2s-1.31,7.41-1.14,9.9c0,.75,0,2.09,1,2.86a14.15,14.15,0,0,0,3.25,1.82C120,71.16,120.33,71.26,120.64,71.35Z"/><path class="cls-8" d="M91.07,38.57c-.12-.34-.83-2.28-1.93-5"/><path class="cls-8" d="M89.08,33.44c-2-5-5.37-12.55-8.9-17.71a1,1,0,0,0-1.79.52c-.23,9.65,4.19,25.37,4.19,25.37l3,6.5L83.2,51.51s-6.13-6.16-12.47,3c-5.5,7.92.43,11.55.43,11.55s6.5,4.23,12-3.63l5.45-7.86,6,9.81c3.53,5.82,9.78,2.9,11.44.56a9.57,9.57,0,0,0-.44-11.37c-3.85-4.81-13-2.74-13-2.74l-.45-3.72"/><path class="cls-8" d="M102.29,67.41s4.4,5.42,9.08,3.55a.92.92,0,0,0-.06-1.73c-3.59-1.19-5.06-2.35-5.75-3.81A7.84,7.84,0,0,1,102.29,67.41Z"/><path class="cls-8" d="M96,60.3c1.35,2.86,4,4.44,6,3.52s2.42-4,1.07-6.84-4-4.43-6-3.51S94.65,57.44,96,60.3Z"/><path class="cls-8" d="M73.34,56.14c-1.91,2.75-1.91,6.06,0,7.37s5,.16,6.9-2.59,1.91-6.05,0-7.37S75.25,53.39,73.34,56.14Z"/><path class="cls-8" d="M89.08,33.44S93,25.63,97.9,15.75a1.29,1.29,0,0,1,2.44.55c.26,9-8.22,30.8-8.22,30.8l-1-8.47,0-.06-1.93-5Z"/><path class="cls-8" d="M115.5,40.47l-2-22.9s0,0,0,0A3.38,3.38,0,0,1,116.24,14s0,0,0,0a3.1,3.1,0,0,1,2.39.46,3.49,3.49,0,0,1,1.4,2s0,0,0,0l5.63,22.31c.07.1,4.11,15.49,4.11,15.61s3.4,6.54,4.2,8.85a3.33,3.33,0,0,1,0,2.92c-.38.58-3.59,4.81-8.21,5.57a11.13,11.13,0,0,1-5.19-.45c-.31-.09-.6-.19-.88-.3a14.15,14.15,0,0,1-3.25-1.82c-1.07-.77-1-2.11-1-2.86-.17-2.49,1.14-9.9,1.14-9.9S115.42,40.64,115.5,40.47Z"/><line class="cls-8" x1="129.81" y1="54.46" x2="116.63" y2="56.47"/><line class="cls-8" x1="125.7" y1="38.85" x2="115.5" y2="40.47"/><line class="cls-9" x1="130.93" y1="69.42" x2="128.19" y2="62.87"/><line class="cls-9" x1="120.64" y1="71.35" x2="120.81" y2="67.59"/></g></svg>