<svg xmlns="http://www.w3.org/2000/svg" viewBox="0 0 51 51"><defs><style>.cls-1{fill:#fff;}.cls-1,.cls-2{stroke:#000;stroke-linecap:round;stroke-linejoin:round;stroke-width:3px;}.cls-2{fill:#ff85c8;}</style></defs><title>Ресурс 11</title><g id="Слой_2" data-name="Слой 2"><g id="Слой_5" data-name="Слой 5"><polygon class="cls-1" points="45.14 31.98 5.8 31.76 6.02 27.11 6.44 20.25 45.31 20.41 45.51 26.52 45.14 31.98"/><path class="cls-1" d="M1.93,37.41c-.78,2.76-.25,5.57-.34,8.36a2.16,2.16,0,0,0,1.46,2c1.76.81,3.36,1.79,5.49,1.77q17.22-.15,34.43,0c2.16,0,3.75-1.12,5.47-2a1.84,1.84,0,0,0,1-1.68c-.18-2.79.4-5.6-.38-8.36"/><path class="cls-1" d="M6.05,31.76c.25.41.66.24,1,.24H44.72c1.74,0,4.59,2.12,4.69,3.69a1.45,1.45,0,0,1-.9,1.55,11.62,11.62,0,0,1-12.26-.1,3.23,3.23,0,0,0-3.53,0,14.92,14.92,0,0,1-14.43,0,3.17,3.17,0,0,0-3.52,0c-3.91,2.37-7.89,2.3-12,.3-1.65-.81-1.36-1.9-.7-3,.84-1.35,2.45-1.83,3.71-2.73"/><path class="cls-1" d="M44.72,21.45c-4.26,2.34-8.44,2.62-12.38-.56-4.67,3.31-9.24,3.07-13.77,0-4,3.2-8.1,2.77-12.27.52L5.8,31.52c-.57-2.94-.15-5.9-.23-8.85-.08-2.78.49-5.21,3.71-6.17a15.34,15.34,0,0,1,3.5-.2c3.41-.26,6.87.51,10.23-.5h5.24c2.95,1.05,6,.22,9,.49,1.5.14,3-.22,4.5.22,3.23.94,3.8,3.38,3.72,6.16-.08,2.95.34,5.91-.23,8.85"/><path class="cls-2" d="M25.51,3.27c-1.32-.43-2.24-1.63-3.74-1.74-3.48-.23-6.32,3.48-5,6.64a10.42,10.42,0,0,0,2.68,3.75c1.15,1,2.52,1.84,3.38,3.34,1,1.77,3.95,1.31,5.43-.42a19.26,19.26,0,0,1,3.23-2.95,7.65,7.65,0,0,0,2.72-4c.64-1.92.06-4.35-1.51-5.37S29.16,1,27.24,2.27c-.45.3-.81.84-1.48.75"/></g></g></svg>