<svg xmlns="http://www.w3.org/2000/svg" viewBox="0 0 204 204"><defs><style>.cls-1,.cls-4{fill:#fff;}.cls-1,.cls-2,.cls-5,.cls-6,.cls-7{stroke:#000;}.cls-1,.cls-2,.cls-5,.cls-7{stroke-miterlimit:10;}.cls-1,.cls-2{stroke-width:4px;}.cls-2,.cls-5,.cls-6,.cls-7{fill:none;}.cls-2,.cls-6,.cls-7{stroke-linecap:round;}.cls-3{fill:#af54a1;}.cls-5,.cls-6,.cls-7{stroke-width:2px;}.cls-6{stroke-linejoin:round;}</style></defs><title>Ведущие_1</title><g id="Категории"><rect class="cls-1" x="2" y="2" width="200" height="200" rx="20" ry="20"/><path class="cls-2" d="M160.55,42c0,27.64-26.49,50.06-59.16,50.06S42.23,69.64,42.23,42"/><line class="cls-2" x1="7.58" y1="42" x2="42.23" y2="42"/><line class="cls-2" x1="10.78" y1="62.62" x2="44.24" y2="55.03"/><line class="cls-2" x1="20.16" y1="81.83" x2="50.17" y2="67.17"/><line class="cls-2" x1="35.11" y1="98.34" x2="59.61" y2="77.61"/><line class="cls-2" x1="54.59" y1="111" x2="71.92" y2="85.62"/><line class="cls-2" x1="77.29" y1="118.97" x2="86.26" y2="90.66"/><line class="cls-2" x1="101.65" y1="121.7" x2="101.65" y2="92.39"/><line class="cls-2" x1="126.02" y1="119" x2="117.05" y2="90.69"/><line class="cls-2" x1="148.73" y1="111.06" x2="131.4" y2="85.67"/><line class="cls-2" x1="168.23" y1="98.41" x2="143.73" y2="77.68"/><line class="cls-2" x1="183.2" y1="81.93" x2="153.2" y2="67.27"/><line class="cls-2" x1="192.62" y1="62.72" x2="159.16" y2="55.14"/><line class="cls-2" x1="195.85" y1="42.11" x2="161.2" y2="42.11"/><path d="M46.15,151.16c-3.5,0-3.29-.71-3.29-3.27V135.12c0-3,.22-3.29,3.29-3.29h5.38c4.26,0,6.5,1.78,6.5,4.86a4.43,4.43,0,0,1-2.89,4.24c2.51.73,3.78,2.29,3.78,4.72a5.16,5.16,0,0,1-3.48,5,13.79,13.79,0,0,1-4.26.52Zm.6-16.31v4.83h3.64c3.21,0,3.81-1.08,3.81-2.48s-.57-2.35-4.21-2.35Zm0,7.86v5.42H51c3,0,3.94-1,3.94-2.75s-1-2.67-4.07-2.67Z"/><path d="M65.06,145.06c.08,2.67,1.67,4,3.61,4a4.73,4.73,0,0,0,3.4-1.59c.87-.86,1.14-1,1.65-1a1.14,1.14,0,0,1,1.19,1.05c0,1.57-2.35,3.89-6.16,3.89-4.88,0-7.34-3-7.34-7.31s2.62-7.32,7-7.32a6.28,6.28,0,0,1,6.64,6.07c0,1.3-.57,2.14-3,2.14ZM71.61,143c-.1-2.37-1.45-3.67-3.26-3.67s-3,1.22-3.29,3.67Z"/><path d="M90.27,151.16H78.88v2.16c0,1.21-.43,1.83-1.32,1.83-.73,0-1.3-.57-1.3-1.83V150.7c0-2.41-.08-2.16,1.19-2.16,1.65-2,2.48-4.86,2.54-8.61a4.88,4.88,0,0,1,.19-1.73c.18-.41.62-1,2-1h7c1.54,0,2.19.7,2.19,2.21v9.18H92c.79,0,.87-.14.87,1.78v3c0,1.21-.46,1.83-1.35,1.83-.62,0-1.27-.46-1.27-1.83Zm-2.46-2.62v-8.77H83.25c-.11,3.86-.48,6.5-2.1,8.77Z"/><path d="M99,151.13,94.59,140a4.62,4.62,0,0,1-.4-1.48,1.74,1.74,0,0,1,1.73-1.65c.78,0,1.32.38,1.86,1.92l3,8.85,2.89-8.21c.81-2.29,1-2.56,2-2.56a1.6,1.6,0,0,1,1.59,1.51,5,5,0,0,1-.43,1.73l-4.7,12.28c-1.27,3.29-2.1,4.46-5.34,4.46-2.08,0-3.13-.54-3.13-1.6A1.2,1.2,0,0,1,95.05,154l1.22.08c1.32,0,1.78-.59,2.4-2.13Z"/><path d="M128.66,148.54h.57c.89,0,.94,0,.94,1.46v3.34c0,1.22-.43,1.81-1.32,1.81-.67,0-1.27-.54-1.27-1.81v-2.18H112c-1.53,0-2.18-.71-2.18-2.19v-9.85c0-1.62.86-2.27,1.91-2.27.87,0,1.68.57,1.68,2.27v9.42h4v-9.42c0-1.7.86-2.27,1.81-2.27s1.75.57,1.75,2.27v9.42h4v-9.42c0-1.73.94-2.27,1.84-2.27s1.72.73,1.72,2.27Z"/><path d="M136.09,146l4.8-7.62c.87-1.34,1.49-1.48,2.16-1.48,1.46,0,2.19.92,2.19,2.75v9.69c0,1.65-.86,2.19-1.81,2.19s-1.75-.57-1.75-2.19v-7.07l-4.89,7.8c-.78,1.27-1.29,1.49-2.08,1.49-1.08,0-2.21-.68-2.21-2.73V139c0-1.65.86-2.19,1.81-2.19s1.78.59,1.78,2.19Z"/><path d="M151.83,145.06c.08,2.67,1.67,4,3.62,4a4.75,4.75,0,0,0,3.4-1.59c.86-.86,1.13-1,1.65-1a1.14,1.14,0,0,1,1.18,1.05c0,1.57-2.34,3.89-6.15,3.89-4.89,0-7.34-3-7.34-7.31s2.62-7.32,7-7.32a6.28,6.28,0,0,1,6.64,6.07c0,1.3-.56,2.14-3,2.14Zm6.56-2.06c-.11-2.37-1.46-3.67-3.27-3.67s-3,1.22-3.29,3.67Z"/><path class="cls-3" d="M112,13.93a12.89,12.89,0,0,1,9.33,21.77L103.14,17.48A12.84,12.84,0,0,1,112,13.93Z"/><path class="cls-4" d="M121.35,35.7a12.88,12.88,0,1,1-18.21-18.22Z"/><path class="cls-4" d="M99.13,26.82A12.88,12.88,0,0,0,112,39.7c-6.3,2.12-18.45,12.53-23,16.56a2.55,2.55,0,0,1-3.5-.11L84.38,55,83,53.67a2.56,2.56,0,0,1-.09-3.52C87,45.67,97.15,33.82,99.13,26.82Zm.39,14.5a1.24,1.24,0,0,0,0-1.76,1.23,1.23,0,0,0-1.76,0l-3.09,3.09a1.25,1.25,0,0,0,1.77,1.76Z"/><path d="M99.52,39.56a1.24,1.24,0,0,1,0,1.76l-3.08,3.09a1.25,1.25,0,0,1-1.77-1.76l3.09-3.09a1.23,1.23,0,0,1,1.76,0Z"/><path class="cls-5" d="M103.14,17.48a12.88,12.88,0,1,1-4,9.34A12.84,12.84,0,0,1,103.14,17.48Z"/><line class="cls-5" x1="103.14" y1="17.48" x2="121.35" y2="35.7"/><path class="cls-6" d="M99.13,26.82c-2,7-12.18,18.85-16.2,23.33A2.56,2.56,0,0,0,83,53.67L84.38,55l1.12,1.12a2.55,2.55,0,0,0,3.5.11c4.57-4,16.72-14.44,23-16.56"/><path class="cls-7" d="M84.38,55a41.33,41.33,0,0,0-5.48,7c-4.36,6.7,6.16,13.48,12,7.64,4.95-4.95,14.65-14.34,19.95-19.64,4.91-4.91,16.2,4.13,10.59,9.81C119,62.41,112,70.48,112,70.48"/></g></svg>