<svg xmlns="http://www.w3.org/2000/svg" viewBox="0 0 104 104"><defs><style>.cls-1,.cls-3{fill:#fff;}.cls-1,.cls-6{stroke:#000;}.cls-1{stroke-miterlimit:10;stroke-width:4px;}.cls-2{fill:#ffefbe;}.cls-4{fill:#51bfb6;}.cls-5{fill:#af54a1;}.cls-6{fill:none;stroke-linejoin:round;stroke-width:2px;}</style></defs><title>Видесъемка</title><g id="Пиктограммы"><rect class="cls-1" x="2" y="2" width="100" height="100"/><path class="cls-2" d="M95.61,70.17a2.21,2.21,0,0,1-2.22,2.22H88.53a3.6,3.6,0,0,1-2-.62L80,67.44A3,3,0,0,1,78.7,65V45.9A2.78,2.78,0,0,1,80,43.62l6.16-3.72a5.16,5.16,0,0,1,2.71-.76h5a1.79,1.79,0,0,1,1.78,1.79Z"/><polygon class="cls-3" points="78.7 45.9 78.7 64.99 78.7 66.06 68.02 66.06 68.02 44.8 78.7 44.8 78.7 45.9"/><path class="cls-3" d="M72.45,25.11v.38a7.68,7.68,0,0,0,1.18,4.11H68v0a12.62,12.62,0,0,0-2.74-8l-.11-.13h8.2A7.76,7.76,0,0,0,72.45,25.11Z"/><path class="cls-4" d="M87.16,33.28H80.24a7.79,7.79,0,0,1-6.61-3.68,7.68,7.68,0,0,1-1.18-4.11v-.38a7.82,7.82,0,0,1,7.79-7.8h6.92A7.82,7.82,0,0,1,95,25.11v.38A7.81,7.81,0,0,1,87.16,33.28Z"/><path class="cls-3" d="M68,66.49v15A4.52,4.52,0,0,1,63.5,86H53a7.21,7.21,0,0,1-7.22-7.21v-.17H55.89A12.13,12.13,0,0,0,68,66.49Z"/><path class="cls-3" d="M60.89,32.54l.18-.39c0-3.62-2.92-7.8-6.54-7.8H41.47c-3.62,0-6.54,3.51-6.54,7.12H27.7c0-3.75,2.92-13,11.34-13H59.43a7.48,7.48,0,0,1,5.74,3l.11.13a12.62,12.62,0,0,1,2.74,8V42.16h-.09A12.13,12.13,0,0,0,60.89,32.54Z"/><path class="cls-3" d="M18,78.48l.07-.26a12.18,12.18,0,0,0,3.09.4h11v1.25A6.14,6.14,0,0,1,26.08,86H20.4A2.37,2.37,0,0,1,18,83.63Z"/><path class="cls-5" d="M38.54,57H22.9a2.81,2.81,0,0,1-2.81-2.81V46a2.81,2.81,0,0,1,2.81-2.81H38.54A2.81,2.81,0,0,1,41.36,46v8.26A2.81,2.81,0,0,1,38.54,57Z"/><path class="cls-3" d="M68,66.06v.43A12.13,12.13,0,0,1,55.89,78.62H21.2A12.12,12.12,0,0,1,9.08,66.49V43.6A12.13,12.13,0,0,1,21.2,31.47H55.89a12.28,12.28,0,0,1,5,1.07,12.13,12.13,0,0,1,7,9.63A11.09,11.09,0,0,1,68,43.6V66.06ZM38.54,57a2.81,2.81,0,0,0,2.82-2.81V46a2.81,2.81,0,0,0-2.82-2.81H22.9A2.81,2.81,0,0,0,20.09,46v8.26A2.81,2.81,0,0,0,22.9,57Z"/><path class="cls-6" d="M38.54,57H22.9a2.81,2.81,0,0,1-2.81-2.81V46a2.81,2.81,0,0,1,2.81-2.81H38.54A2.81,2.81,0,0,1,41.36,46v8.26A2.81,2.81,0,0,1,38.54,57Z"/><path class="cls-6" d="M27.7,31.47H21.2A12.13,12.13,0,0,0,9.08,43.6V66.49A12.12,12.12,0,0,0,21.2,78.62H55.89A12.13,12.13,0,0,0,68,66.49"/><path class="cls-6" d="M68,44.8V43.6a11.09,11.09,0,0,0-.09-1.43,12.13,12.13,0,0,0-7-9.63,12.28,12.28,0,0,0-5-1.07h-21"/><polyline class="cls-6" points="78.7 45.9 78.7 44.8 68.02 44.8 68.02 66.06 78.7 66.06 78.7 64.99"/><path class="cls-6" d="M68,42.16V29.58a12.62,12.62,0,0,0-2.74-8l-.11-.13a7.48,7.48,0,0,0-5.74-3H39c-8.42,0-11.34,9.25-11.34,13h7.23c0-3.61,2.92-7.12,6.54-7.12H54.53c3.62,0,6.54,4.18,6.54,7.8"/><line class="cls-6" x1="68.01" y1="29.6" x2="68.02" y2="29.6"/><line class="cls-6" x1="68.02" y1="29.6" x2="73.63" y2="29.6"/><line class="cls-6" x1="73.63" y1="29.6" x2="73.71" y2="29.6"/><polyline class="cls-6" points="73.44 21.45 73.37 21.45 65.17 21.45"/><path class="cls-6" d="M73.63,29.6a7.79,7.79,0,0,0,6.61,3.68h6.92A7.81,7.81,0,0,0,95,25.49v-.38a7.82,7.82,0,0,0-7.79-7.8H80.24a7.82,7.82,0,0,0-7.79,7.8v.38A7.68,7.68,0,0,0,73.63,29.6Z"/><path class="cls-6" d="M78.7,65A3,3,0,0,0,80,67.44l6.46,4.33a3.6,3.6,0,0,0,2,.62h4.86a2.21,2.21,0,0,0,2.22-2.22V40.93a1.79,1.79,0,0,0-1.78-1.79h-5a5.16,5.16,0,0,0-2.71.76L80,43.62A2.78,2.78,0,0,0,78.7,45.9Z"/><path class="cls-6" d="M45.82,78.79A7.21,7.21,0,0,0,53,86H63.5A4.52,4.52,0,0,0,68,81.48V66.06"/><path class="cls-6" d="M18,78.48v5.15A2.37,2.37,0,0,0,20.4,86h5.68a6.14,6.14,0,0,0,6.13-6.13V78.62"/></g></svg>