<svg xmlns="http://www.w3.org/2000/svg" viewBox="0 0 200 200"><defs><style>.cls-1{fill:#fff;}.cls-2{fill:#201600;}.cls-3{fill:#78ddbb;}.cls-4{fill:#ff85c8;}.cls-5,.cls-6,.cls-7{fill:none;}.cls-5,.cls-6{stroke:#000;stroke-width:2px;}.cls-5,.cls-7{stroke-linejoin:round;}.cls-6{stroke-miterlimit:10;}.cls-7{stroke:#201600;stroke-linecap:round;stroke-width:4px;}</style></defs><title>Ресурс 7</title><g id="Слой_2" data-name="Слой 2"><g id="Слой_2-2" data-name="Слой 2"><rect class="cls-1" x="2" y="2" width="196" height="196" rx="18" ry="18"/><path class="cls-2" d="M180,4a16,16,0,0,1,16,16V180a16,16,0,0,1-16,16H20A16,16,0,0,1,4,180V20A16,16,0,0,1,20,4H180m0-4H20A20,20,0,0,0,0,20V180a20,20,0,0,0,20,20H180a20,20,0,0,0,20-20V20A20,20,0,0,0,180,0Z"/><path d="M14.43,149.71c-3.38,0-3.18-.68-3.18-3.15v-12.3c0-2.86.21-3.17,3.18-3.17H19.6c4.11,0,6.27,1.72,6.27,4.68a4.26,4.26,0,0,1-2.79,4.08c2.42.71,3.64,2.21,3.64,4.55a5,5,0,0,1-3.35,4.81,13.21,13.21,0,0,1-4.11.5ZM15,134v4.66h3.51c3.09,0,3.66-1,3.66-2.39S21.63,134,18.12,134Zm0,7.57v5.23h4.11c2.83,0,3.79-1,3.79-2.66s-1-2.57-3.92-2.57Z"/><path d="M33.09,144.69l4.63-7.33c.83-1.3,1.43-1.43,2.08-1.43,1.41,0,2.11.88,2.11,2.65v9.33c0,1.59-.83,2.11-1.74,2.11s-1.69-.55-1.69-2.11V141.1l-4.71,7.52c-.75,1.22-1.25,1.43-2,1.43-1,0-2.13-.65-2.13-2.63V138c0-1.58.83-2.1,1.74-2.1s1.71.57,1.71,2.1Z"/><path d="M57.09,149.71h-11v2.08c0,1.17-.42,1.77-1.27,1.77s-1.25-.55-1.25-1.77v-2.52c0-2.32-.08-2.08,1.14-2.08,1.59-1.93,2.39-4.68,2.45-8.3a4.6,4.6,0,0,1,.18-1.66c.18-.39.6-1,2-1h6.73c1.48,0,2.11.68,2.11,2.14v8.84h.62c.76,0,.83-.13.83,1.71v2.89c0,1.17-.44,1.77-1.3,1.77-.59,0-1.22-.45-1.22-1.77Zm-2.36-2.52v-8.45h-4.4c-.1,3.71-.47,6.26-2,8.45Z"/><path d="M64.84,143.83c.08,2.58,1.61,3.9,3.48,3.9a4.61,4.61,0,0,0,3.28-1.53c.83-.83,1.09-.94,1.59-.94a1.1,1.1,0,0,1,1.14,1c0,1.5-2.26,3.74-5.93,3.74-4.7,0-7.07-2.94-7.07-7.05s2.52-7,6.79-7a6,6,0,0,1,6.39,5.85c0,1.25-.54,2.05-2.86,2.05Zm6.32-2c-.11-2.29-1.41-3.54-3.15-3.54s-2.88,1.17-3.17,3.54Z"/><path d="M90.4,143c0,4.09-2.71,7.05-6.84,7.05-4.47,0-7-3-7-7.05s2.62-7,6.91-7S90.4,138.92,90.4,143Zm-3.51,0c0-2.8-1.33-4.47-3.41-4.47s-3.4,1.69-3.4,4.47,1.32,4.48,3.4,4.48S86.89,145.78,86.89,143Z"/><path d="M105.56,145.73c0,1.82-2.4,4.29-6.22,4.29-4.57,0-6.89-2.89-6.89-7s2.52-7.12,6.94-7.12c3.49,0,6,2.31,6,4a1.51,1.51,0,0,1-1.53,1.48,1.38,1.38,0,0,1-1.2-.65c-1.3-1.95-2.13-2.21-3.27-2.21-2.21,0-3.46,1.92-3.46,4.45s1.38,4.42,3.46,4.42a3.4,3.4,0,0,0,3-1.72c.73-1.14,1-1.51,1.74-1.51A1.56,1.56,0,0,1,105.56,145.73Z"/><path d="M111.72,138.74h-3.07c-1.17,0-1.77-.42-1.77-1.28,0-.6.44-1.25,1.77-1.25h4.45c1.48,0,2.08.65,2.08,2.14v3h3.58c3.75,0,5.78,1.41,5.78,4.11,0,2.18-1.41,4.24-5.78,4.24h-4.94c-1.48,0-2.1-.65-2.1-2.11Zm3.46,8.45h3.19c2.29,0,2.66-.89,2.66-1.67,0-1.09-.89-1.64-2.66-1.64h-3.19Z"/><path d="M130,143.83c.08,2.58,1.61,3.9,3.48,3.9a4.61,4.61,0,0,0,3.28-1.53c.83-.83,1.09-.94,1.59-.94a1.1,1.1,0,0,1,1.14,1c0,1.5-2.26,3.74-5.93,3.74-4.7,0-7.07-2.94-7.07-7.05s2.52-7,6.79-7a6,6,0,0,1,6.39,5.85c0,1.25-.54,2.05-2.86,2.05Zm6.32-2c-.11-2.29-1.41-3.54-3.15-3.54s-2.88,1.17-3.17,3.54Z"/><path d="M150.2,145.63l2.86-7.91c.42-1.25.93-1.51,2.05-1.51h1c1.27,0,1.9.71,1.9,2.14v9.8c0,1.25-.52,1.87-1.56,1.87-.83,0-1.51-.6-1.51-1.87v-7.31l-2.73,7.41c-.6,1.59-1.35,1.77-2,1.77-1,0-1.56-.44-2.06-1.87l-2.6-7.31v7.31c0,1.25-.52,1.87-1.56,1.87-.73,0-1.51-.49-1.51-1.87v-9.8c0-1.43.63-2.14,1.9-2.14h1c1.22,0,1.66.34,2.08,1.51Z"/><path d="M161.33,138.09c0-1.43.59-2.16,1.76-2.16.84,0,1.69.57,1.69,2.16v3.64c.91,0,1.2-.26,2-2.47,1-2.81,2.11-3.12,3.67-3.12,1.84,0,2,.65,2,1.24,0,.76-.47,1.15-1.43,1.17-1.22.06-1.33.32-1.85,1.95a3.24,3.24,0,0,1-1.69,2.29c1,.29,2,1.28,2.91,3l.76,1.48a3.23,3.23,0,0,1,.44,1.33A1.46,1.46,0,0,1,170,150c-1,0-1.48-.47-2.06-1.79l-1.06-2.42c-.63-1.43-1.12-1.82-2.06-1.85v3.88c0,1.45-.57,2.18-1.74,2.18-1,0-1.71-.7-1.71-2.18Z"/><path d="M178.82,150c-3,0-4.65-1.74-4.65-3.93,0-4.1,4.76-3.79,9.26-5.12,0-2.08-.81-2.68-2.47-2.68s-2.63.45-3.1,1.33S177,141,176.22,141a1.39,1.39,0,0,1-1.43-1.3c0-1.72,1.82-3.77,6.06-3.77s6,1.06,6,5.54l-.07,3.25c0,2,.67,3.22.67,3.92A1.54,1.54,0,0,1,185.9,150c-.71,0-1.43-.65-2.21-2A7.9,7.9,0,0,1,178.82,150Zm2.06-6.29c-2.32.47-3.25.91-3.25,2.13a2,2,0,0,0,2.26,1.9,3.71,3.71,0,0,0,2.11-.63c1.35-.88,1.45-1.76,1.45-4.08A16,16,0,0,1,180.88,143.73Z"/><path class="cls-3" d="M129,37.54v17.9a2.21,2.21,0,0,1-2.22,2.21h-2.06a3.6,3.6,0,0,1-2-.62l-3.48-2.33a3,3,0,0,1-1.33-2.5V40.77a2.75,2.75,0,0,1,1.31-2.34l3.17-1.92a5.29,5.29,0,0,1,2.71-.75h2.16A1.77,1.77,0,0,1,129,37.54Z"/><path class="cls-3" d="M123.33,21.38a5.26,5.26,0,0,1,0,10.52H119a5.28,5.28,0,0,1-4.43-2.43,5.2,5.2,0,0,1-.84-2.83,5.13,5.13,0,0,1,.66-2.53,5.21,5.21,0,0,1,.89-1.19A5.27,5.27,0,0,1,119,21.38Z"/><path class="cls-4" d="M110.84,42.83v6.8A12.12,12.12,0,0,1,98.72,61.76H84.15A12.1,12.1,0,0,1,72,49.63v-6.8A12.12,12.12,0,0,1,84.15,30.7H98.72a12.11,12.11,0,0,1,12.12,12.13Zm-17.56,1.9V41.21a2.81,2.81,0,0,0-2.81-2.82H82.09a2.81,2.81,0,0,0-2.81,2.82v3.52a2.81,2.81,0,0,0,2.81,2.81h8.38A2.81,2.81,0,0,0,93.28,44.73Z"/><path class="cls-1" d="M89.05,30.7H84.29c0-2.47,1.92-8.56,7.47-8.56h13.42a4.94,4.94,0,0,1,3.8,2l.07.08a8.34,8.34,0,0,1,1.79,5.27h0v8.27l-1,.37A12.11,12.11,0,0,0,98.72,30.7Z"/><path class="cls-5" d="M90.47,47.54H82.09a2.81,2.81,0,0,1-2.81-2.81V41.21a2.81,2.81,0,0,1,2.81-2.82h8.38a2.81,2.81,0,0,1,2.81,2.82v3.52A2.81,2.81,0,0,1,90.47,47.54Z"/><path class="cls-5" d="M89.05,30.7h9.67a12.11,12.11,0,0,1,12.12,12.13"/><path class="cls-5" d="M110.84,49.63A12.12,12.12,0,0,1,98.72,61.76H84.15A12.1,12.1,0,0,1,72,49.63v-6.8A12.12,12.12,0,0,1,84.15,30.7h.14"/><polyline class="cls-5" points="117.89 52.2 117.89 53.49 110.84 53.49 110.84 49.63 110.84 42.83 110.84 39.48 117.89 39.48 117.89 40.77"/><path class="cls-5" d="M106.28,31.15c0-2.38-1.93-5.14-4.31-5.14H93.36a4.65,4.65,0,0,0-4.31,4.69H84.29c0-2.47,1.92-8.56,7.47-8.56h13.42a4.94,4.94,0,0,1,3.8,2l.07.08a8.34,8.34,0,0,1,1.79,5.27h0v8.27"/><line class="cls-6" x1="110.84" y1="29.47" x2="114.6" y2="29.47"/><line class="cls-6" x1="114.42" y1="24.11" x2="108.98" y2="24.11"/><path class="cls-6" d="M114.42,24.11a5.21,5.21,0,0,1,.89-1.19A5.27,5.27,0,0,1,119,21.38h4.3a5.26,5.26,0,0,1,0,10.52H119a5.28,5.28,0,0,1-4.43-2.43,5.2,5.2,0,0,1-.84-2.83A5.13,5.13,0,0,1,114.42,24.11Z"/><path class="cls-6" d="M117.89,52.2a3,3,0,0,0,1.33,2.5L122.7,57a3.6,3.6,0,0,0,2,.62h2.06A2.21,2.21,0,0,0,129,55.44V37.54a1.77,1.77,0,0,0-1.78-1.78h-2.16a5.29,5.29,0,0,0-2.71.75l-3.17,1.92a2.75,2.75,0,0,0-1.31,2.34Z"/><path class="cls-6" d="M110.84,53.49V63.64a3,3,0,0,1-3,3H101a4.85,4.85,0,0,1-4.76-4.86"/><path class="cls-6" d="M87.26,61.76v.82a4,4,0,0,1-4,4H79.49a1.57,1.57,0,0,1-1.57-1.56V61.67"/><line class="cls-5" x1="106.27" y1="31.15" x2="106.27" y2="33.34"/><line class="cls-5" x1="110.85" y1="37.74" x2="110.85" y2="39.48"/><line class="cls-5" x1="77.93" y1="61.67" x2="77.93" y2="60.34"/><line class="cls-7" x1="52.84" y1="42.39" x2="39.05" y2="44.82"/><line class="cls-7" x1="65.82" y1="68.11" x2="53.09" y2="80.84"/><line class="cls-7" x1="99.15" y1="80.49" x2="99.15" y2="102.49"/><line class="cls-7" x1="132.79" y1="67.93" x2="145.51" y2="80.66"/><line class="cls-7" x1="145.24" y1="43.34" x2="159.03" y2="45.78"/><path class="cls-7" d="M145.93,34.57q0,21.59-13.71,33.75A47.42,47.42,0,0,1,99.67,80.49q-19.53,0-33.42-12T52.38,34.57"/></g></g></svg>