<svg xmlns="http://www.w3.org/2000/svg" viewBox="0 0 204 204"><defs><style>.cls-1,.cls-5{fill:#fff;}.cls-1,.cls-2,.cls-7{stroke:#000;}.cls-1,.cls-2{stroke-miterlimit:10;stroke-width:4px;}.cls-2,.cls-7{fill:none;}.cls-2{stroke-linecap:round;}.cls-3{fill:#ffefbe;}.cls-4{fill:#51bfb6;}.cls-6{fill:#af54a1;}.cls-7{stroke-linejoin:round;stroke-width:2px;}</style></defs><title>Видеосъемка</title><g id="Категории"><rect class="cls-1" x="2" y="2" width="200" height="200" rx="20" ry="20"/><path class="cls-2" d="M160.55,42c0,27.64-26.49,50.06-59.16,50.06S42.23,69.64,42.23,42"/><line class="cls-2" x1="7.58" y1="42" x2="42.23" y2="42"/><line class="cls-2" x1="10.78" y1="62.62" x2="44.24" y2="55.03"/><line class="cls-2" x1="20.16" y1="81.83" x2="50.17" y2="67.17"/><line class="cls-2" x1="35.11" y1="98.34" x2="59.61" y2="77.61"/><line class="cls-2" x1="54.59" y1="111" x2="71.92" y2="85.62"/><line class="cls-2" x1="77.29" y1="118.97" x2="86.26" y2="90.66"/><line class="cls-2" x1="101.65" y1="121.7" x2="101.65" y2="92.39"/><line class="cls-2" x1="126.02" y1="119" x2="117.05" y2="90.69"/><line class="cls-2" x1="148.73" y1="111.06" x2="131.4" y2="85.67"/><line class="cls-2" x1="168.23" y1="98.41" x2="143.73" y2="77.68"/><line class="cls-2" x1="183.2" y1="81.93" x2="153.2" y2="67.27"/><line class="cls-2" x1="192.62" y1="62.72" x2="159.16" y2="55.14"/><line class="cls-2" x1="195.85" y1="42.11" x2="161.2" y2="42.11"/><path d="M27.17,148.24c-3,0-2.8-.59-2.8-2.78V134.58c0-2.52.18-2.8,2.8-2.8h4.58c3.63,0,5.54,1.52,5.54,4.14a3.79,3.79,0,0,1-2.46,3.61,3.91,3.91,0,0,1,3.22,4,4.42,4.42,0,0,1-3,4.26,11.7,11.7,0,0,1-3.63.43Zm.51-13.88v4.11h3.1c2.74,0,3.25-.92,3.25-2.11s-.49-2-3.59-2Zm0,6.69v4.62h3.63c2.51,0,3.36-.9,3.36-2.35s-.87-2.27-3.47-2.27Z"/><path d="M43.69,143.81l4.09-6.49c.74-1.15,1.27-1.26,1.84-1.26q1.86,0,1.86,2.34v8.26c0,1.4-.73,1.86-1.54,1.86s-1.49-.48-1.49-1.86v-6l-4.16,6.65c-.67,1.08-1.11,1.26-1.77,1.26-.92,0-1.89-.57-1.89-2.32v-8.3c0-1.4.74-1.86,1.54-1.86s1.52.5,1.52,1.86Z"/><path d="M64.92,148.24H55.21v1.84c0,1-.37,1.57-1.13,1.57s-1.1-.49-1.1-1.57v-2.23c0-2-.07-1.84,1-1.84,1.4-1.7,2.12-4.13,2.16-7.33a4.21,4.21,0,0,1,.16-1.47c.17-.35.53-.9,1.73-.9h6c1.31,0,1.86.6,1.86,1.89V146h.55c.67,0,.74-.11.74,1.52v2.55c0,1-.39,1.57-1.15,1.57-.53,0-1.08-.39-1.08-1.57ZM62.82,146v-7.47H58.94c-.1,3.29-.42,5.54-1.8,7.47Z"/><path d="M71.77,143.05c.07,2.27,1.43,3.45,3.08,3.45a4.06,4.06,0,0,0,2.9-1.36c.74-.74,1-.83,1.4-.83a1,1,0,0,1,1,.9c0,1.33-2,3.31-5.24,3.31-4.16,0-6.25-2.6-6.25-6.23s2.23-6.23,6-6.23a5.34,5.34,0,0,1,5.65,5.17c0,1.1-.48,1.82-2.52,1.82Zm5.59-1.75c-.09-2-1.24-3.13-2.78-3.13s-2.56,1-2.81,3.13Z"/><path d="M94.38,142.29a5.85,5.85,0,0,1-6,6.23c-4,0-6.19-2.67-6.19-6.23a5.85,5.85,0,0,1,6.12-6.23C92.06,136.06,94.38,138.7,94.38,142.29Zm-3.11,0c0-2.49-1.17-4-3-4s-3,1.5-3,4,1.17,4,3,4S91.27,144.77,91.27,142.29Z"/><path d="M107.79,144.73c0,1.61-2.12,3.79-5.5,3.79-4.05,0-6.09-2.55-6.09-6.16s2.23-6.3,6.14-6.3c3.08,0,5.29,2,5.29,3.56a1.33,1.33,0,0,1-1.36,1.31,1.21,1.21,0,0,1-1.06-.57c-1.15-1.73-1.88-2-2.9-2-2,0-3,1.7-3,3.93s1.22,3.91,3,3.91a3,3,0,0,0,2.63-1.51c.64-1,.92-1.34,1.54-1.34A1.39,1.39,0,0,1,107.79,144.73Z"/><path d="M113.24,138.54h-2.71c-1,0-1.57-.37-1.57-1.13,0-.53.39-1.1,1.57-1.1h3.93c1.31,0,1.84.57,1.84,1.89v2.66h3.17c3.31,0,5.11,1.24,5.11,3.64,0,1.93-1.25,3.74-5.11,3.74H115.1c-1.31,0-1.86-.57-1.86-1.86ZM116.3,146h2.83c2,0,2.34-.78,2.34-1.47,0-1-.78-1.45-2.34-1.45H116.3Z"/><path d="M129.39,143.05c.07,2.27,1.42,3.45,3.08,3.45a4.08,4.08,0,0,0,2.9-1.36c.73-.74,1-.83,1.4-.83a1,1,0,0,1,1,.9c0,1.33-2,3.31-5.24,3.31-4.16,0-6.26-2.6-6.26-6.23s2.23-6.23,6-6.23a5.34,5.34,0,0,1,5.66,5.17c0,1.1-.48,1.82-2.53,1.82ZM135,141.3c-.1-2-1.25-3.13-2.79-3.13s-2.55,1-2.8,3.13Z"/><path d="M147.28,144.63l2.53-7a1.58,1.58,0,0,1,1.82-1.33h.87c1.13,0,1.68.62,1.68,1.89v8.66c0,1.11-.46,1.66-1.38,1.66-.74,0-1.33-.53-1.33-1.66V140.4L149.05,147c-.53,1.4-1.2,1.56-1.82,1.56-.87,0-1.38-.39-1.81-1.66l-2.3-6.46v6.46c0,1.11-.46,1.66-1.38,1.66-.65,0-1.34-.44-1.34-1.66V138.2c0-1.27.56-1.89,1.68-1.89H143a1.61,1.61,0,0,1,1.84,1.33Z"/><path d="M157.13,138c0-1.27.52-1.91,1.56-1.91.73,0,1.49.5,1.49,1.91v3.21c.81,0,1.06-.22,1.75-2.18.9-2.48,1.86-2.76,3.24-2.76,1.64,0,1.77.58,1.77,1.1s-.41,1-1.26,1c-1.08,0-1.17.28-1.63,1.72a2.92,2.92,0,0,1-1.5,2,4.77,4.77,0,0,1,2.58,2.66l.66,1.32a2.65,2.65,0,0,1,.39,1.17,1.28,1.28,0,0,1-1.42,1.24c-.87,0-1.31-.41-1.82-1.59l-.94-2.14c-.55-1.26-1-1.6-1.82-1.63v3.43c0,1.29-.5,1.93-1.54,1.93-.85,0-1.51-.62-1.51-1.93Z"/><path d="M172.6,148.52c-2.64,0-4.11-1.54-4.11-3.47,0-3.63,4.21-3.36,8.18-4.53,0-1.84-.71-2.37-2.18-2.37s-2.32.39-2.74,1.17-.73,1.22-1.45,1.22a1.22,1.22,0,0,1-1.26-1.15c0-1.52,1.61-3.33,5.36-3.33s5.33.94,5.33,4.9l-.07,2.87a20.3,20.3,0,0,0,.6,3.47,1.37,1.37,0,0,1-1.4,1.22c-.62,0-1.27-.57-2-1.72A6.93,6.93,0,0,1,172.6,148.52Zm1.82-5.56c-2,.41-2.87.8-2.87,1.88a1.77,1.77,0,0,0,2,1.68,3.32,3.32,0,0,0,1.86-.55c1.19-.78,1.29-1.57,1.29-3.61A14.48,14.48,0,0,1,174.42,143Z"/><path class="cls-3" d="M137.92,34.15V58.22a2.21,2.21,0,0,1-2.22,2.22h-3.59a3.67,3.67,0,0,1-2-.62L125,56.4a3,3,0,0,1-1.33-2.5V38.36A2.71,2.71,0,0,1,125,36l4.79-2.9a5.28,5.28,0,0,1,2.71-.76h3.68A1.79,1.79,0,0,1,137.92,34.15Z"/><path class="cls-4" d="M130.62,13.93a6.75,6.75,0,0,1,0,13.49H125.1a6.75,6.75,0,0,1,0-13.49Z"/><polygon class="cls-5" points="123.65 53.9 123.65 55.1 114.62 55.1 114.62 53.57 114.62 38.01 114.62 37.14 123.65 37.14 123.65 38.36 123.65 53.9"/><path class="cls-5" d="M119.43,24.3h-4.81a10.73,10.73,0,0,0-2.31-6.76l-.09-.1h7a6.68,6.68,0,0,0,.23,6.87Z"/><path class="cls-5" d="M114.62,55.1v13a3.81,3.81,0,0,1-3.81,3.81H102a6.09,6.09,0,0,1-6.1-6.09V65.7h6.63a12.13,12.13,0,0,0,12.12-12.13Z"/><path class="cls-5" d="M114.62,38V53.57A12.13,12.13,0,0,1,102.5,65.7H77a12,12,0,0,1-4.3-.79,12.11,12.11,0,0,1-7.82-11.34V38A12.11,12.11,0,0,1,77,25.89H102.5A12.1,12.1,0,0,1,114.24,35,12.57,12.57,0,0,1,114.62,38ZM92.11,44.65V38.56a2.81,2.81,0,0,0-2.82-2.81H77a2.8,2.8,0,0,0-2.8,2.81v6.09A2.81,2.81,0,0,0,77,47.47H89.29A2.82,2.82,0,0,0,92.11,44.65Z"/><path class="cls-5" d="M114.62,24.3V34.91l-.38.07a12.14,12.14,0,0,0-7.58-8.36l2.1-.17c0-3-2.48-6.58-5.52-6.58h-11c-3,0-5.52,3-5.52,6H80.57c0-3.17,2.47-11,9.59-11h17.2a6.3,6.3,0,0,1,4.86,2.52l.09.1a10.73,10.73,0,0,1,2.31,6.76Z"/><path class="cls-6" d="M92.11,38.56v6.09a2.82,2.82,0,0,1-2.82,2.82H77a2.81,2.81,0,0,1-2.8-2.82V38.56A2.8,2.8,0,0,1,77,35.75H89.29A2.81,2.81,0,0,1,92.11,38.56Z"/><path class="cls-5" d="M84.39,65.7v1a5.18,5.18,0,0,1-5.18,5.18H74.42a2,2,0,0,1-2-2V65.58l.26-.67a12,12,0,0,0,4.3.79Z"/><path class="cls-7" d="M89.29,47.47H77a2.81,2.81,0,0,1-2.8-2.82V38.56A2.8,2.8,0,0,1,77,35.75H89.29a2.81,2.81,0,0,1,2.82,2.81v6.09A2.82,2.82,0,0,1,89.29,47.47Z"/><path class="cls-7" d="M80.57,25.89H77A12.11,12.11,0,0,0,64.86,38V53.57a12.11,12.11,0,0,0,7.82,11.34,12,12,0,0,0,4.3.79H102.5a12.13,12.13,0,0,0,12.12-12.13"/><path class="cls-7" d="M114.62,38a12.57,12.57,0,0,0-.38-3,12.1,12.1,0,0,0-11.74-9.09H86.68"/><polyline class="cls-7" points="123.65 38.36 123.65 37.14 114.62 37.14 114.62 38.01 114.62 53.57 114.62 55.1 123.65 55.1 123.65 53.9"/><path class="cls-7" d="M114.62,34.91V24.3h0a10.73,10.73,0,0,0-2.31-6.76l-.09-.1a6.3,6.3,0,0,0-4.86-2.52H90.16c-7.12,0-9.59,7.81-9.59,11h6.11c0-3.05,2.47-6,5.52-6h11c3,0,5.52,3.54,5.52,6.58"/><line class="cls-7" x1="114.62" y1="24.3" x2="119.43" y2="24.3"/><line class="cls-7" x1="119.2" y1="17.43" x2="112.22" y2="17.43"/><path class="cls-7" d="M119.43,24.3a6.71,6.71,0,0,0,5.67,3.12h5.52a6.75,6.75,0,0,0,0-13.49H125.1a6.73,6.73,0,0,0-5.67,10.37Z"/><path class="cls-7" d="M123.65,53.9A3,3,0,0,0,125,56.4l5.1,3.42a3.67,3.67,0,0,0,2,.62h3.59a2.21,2.21,0,0,0,2.22-2.22V34.15a1.79,1.79,0,0,0-1.78-1.79h-3.68a5.28,5.28,0,0,0-2.71.76L125,36a2.71,2.71,0,0,0-1.31,2.34Z"/><path class="cls-7" d="M95.87,65.84a6.09,6.09,0,0,0,6.1,6.09h8.84a3.81,3.81,0,0,0,3.81-3.81v-13"/><path class="cls-7" d="M72.42,65.58v4.35a2,2,0,0,0,2,2h4.79a5.18,5.18,0,0,0,5.18-5.18v-1"/></g></svg>