<svg xmlns="http://www.w3.org/2000/svg" viewBox="0 0 204 204"><defs><style>.cls-1{fill:#fff;}.cls-1,.cls-2,.cls-3,.cls-6{stroke:#000;stroke-miterlimit:10;}.cls-1,.cls-2{stroke-width:4px;}.cls-2,.cls-3,.cls-6{fill:none;}.cls-2,.cls-6{stroke-linecap:round;}.cls-3,.cls-6{stroke-width:2px;}.cls-4{fill:#af54a1;}.cls-5{fill:#51bfb6;}</style></defs><title>Организация свадеб_1</title><g id="Категории"><rect class="cls-1" x="2" y="2" width="200" height="200" rx="20" ry="20"/><path class="cls-2" d="M160.55,42c0,27.64-26.49,50.06-59.16,50.06S42.23,69.64,42.23,42"/><line class="cls-2" x1="7.58" y1="42" x2="42.23" y2="42"/><line class="cls-2" x1="10.78" y1="62.62" x2="44.24" y2="55.03"/><line class="cls-2" x1="20.16" y1="81.83" x2="50.17" y2="67.17"/><line class="cls-2" x1="35.11" y1="98.34" x2="59.61" y2="77.61"/><line class="cls-2" x1="54.59" y1="111" x2="71.92" y2="85.62"/><line class="cls-2" x1="77.29" y1="118.97" x2="86.26" y2="90.66"/><line class="cls-2" x1="101.65" y1="121.7" x2="101.65" y2="92.39"/><line class="cls-2" x1="126.02" y1="119" x2="117.05" y2="90.69"/><line class="cls-2" x1="148.73" y1="111.06" x2="131.4" y2="85.67"/><line class="cls-2" x1="168.23" y1="98.41" x2="143.73" y2="77.68"/><line class="cls-2" x1="183.2" y1="81.93" x2="153.2" y2="67.27"/><line class="cls-2" x1="192.62" y1="62.72" x2="159.16" y2="55.14"/><line class="cls-2" x1="195.85" y1="42.11" x2="161.2" y2="42.11"/><path d="M32.67,131.5c5.52,0,8.48,3.65,8.48,8.85s-2.91,8.91-8.38,8.91-8.42-3.65-8.42-8.81C24.35,135,27.44,131.5,32.67,131.5Zm.08,2.76c-2.86,0-4.88,2.06-4.88,6.12s2.14,6.12,4.85,6.12,4.9-2,4.9-6.12C37.62,136.63,35.82,134.26,32.75,134.26Z"/><path d="M46.76,138.39a5.16,5.16,0,0,1,4.18-2.14c3.26,0,5.35,2.81,5.35,6.65,0,3.62-1.94,6.36-5.33,6.36a5.51,5.51,0,0,1-4.2-2v4.17c0,2.43-.7,2.57-1.58,2.57-1.18,0-1.61-.65-1.61-2.66V138.72c0-1.8.29-2.47,1.61-2.47,1,0,1.58.6,1.58,1.8Zm3.34.31c-1.83,0-3.15,1.44-3.15,3.91s1.25,4.2,3.17,4.2c1.73,0,2.93-1.49,2.93-4C53.05,140,51.66,138.7,50.1,138.7Z"/><path d="M62,138.84v8.4c0,1.52-.77,2-1.61,2s-1.59-.5-1.59-2v-8.76c0-1.37.63-2,1.95-2h5.11c1.08,0,1.63.41,1.63,1.2,0,.56-.41,1.13-1.63,1.13Z"/><path d="M72.83,149.26c-2.77,0-4.3-1.61-4.3-3.62,0-3.8,4.39-3.51,8.54-4.73,0-1.92-.74-2.48-2.28-2.48s-2.42.41-2.85,1.23-.77,1.27-1.51,1.27a1.28,1.28,0,0,1-1.33-1.2c0-1.58,1.68-3.48,5.6-3.48s5.57,1,5.57,5.11l-.08,3a21.21,21.21,0,0,0,.63,3.63,1.43,1.43,0,0,1-1.47,1.27q-1,0-2-1.8A7.26,7.26,0,0,1,72.83,149.26Zm1.89-5.81c-2.13.43-3,.84-3,2a1.85,1.85,0,0,0,2.09,1.75,3.5,3.5,0,0,0,1.94-.57c1.25-.82,1.35-1.64,1.35-3.77A14,14,0,0,1,74.72,143.45Z"/><path d="M86.55,141.24h5v-3c0-1.52.77-2,1.61-2s1.58.5,1.58,2v9c0,1.52-.79,2-1.63,2s-1.56-.65-1.56-2v-3.67h-5v3.67c0,1.52-.77,2-1.61,2s-1.58-.5-1.58-2v-9c0-1.44.74-2,1.63-2s1.56.5,1.56,2Z"/><path d="M101,144.34l4.28-6.77c.76-1.2,1.32-1.32,1.91-1.32,1.3,0,2,.82,2,2.45v8.62c0,1.46-.77,1.94-1.61,1.94s-1.56-.5-1.56-1.94V141L101.58,148c-.7,1.13-1.16,1.32-1.85,1.32-1,0-2-.6-2-2.42v-8.67c0-1.46.77-1.94,1.61-1.94s1.58.53,1.58,1.94Z"/><path d="M122.29,145.71c0,1.87-1.83,3.55-5.26,3.55s-5.33-1.82-5.33-3.46a1.52,1.52,0,0,1,1.52-1.48c.74,0,1.08.31,1.6,1.29a2.3,2.3,0,0,0,2.19,1.27c1.25,0,2.06-.69,2.06-1.48s-.67-1.52-2.11-1.54c-.89,0-1.32-.36-1.32-1.06s.41-1.05,1.2-1.08a1.69,1.69,0,0,0,1.85-1.63,1.51,1.51,0,0,0-1.71-1.46,2,2,0,0,0-2,1.39,1.62,1.62,0,0,1-1.44,1.1,1.38,1.38,0,0,1-1.41-1.39c0-1.65,2.09-3.48,4.94-3.48,3,0,4.73,1.54,4.73,3.63,0,1.2-.74,2.13-2.21,2.78C121.38,143.16,122.29,144.2,122.29,145.71Z"/><path d="M128.6,149.26c-2.76,0-4.3-1.61-4.3-3.62,0-3.8,4.4-3.51,8.55-4.73,0-1.92-.75-2.48-2.28-2.48s-2.43.41-2.86,1.23-.77,1.27-1.51,1.27a1.28,1.28,0,0,1-1.32-1.2c0-1.58,1.68-3.48,5.59-3.48s5.57,1,5.57,5.11l-.07,3a21.52,21.52,0,0,0,.62,3.63,1.42,1.42,0,0,1-1.46,1.27c-.65,0-1.32-.6-2-1.8A7.29,7.29,0,0,1,128.6,149.26Zm1.9-5.81c-2.14.43-3,.84-3,2a1.84,1.84,0,0,0,2.08,1.75,3.53,3.53,0,0,0,1.95-.57c1.25-.82,1.34-1.64,1.34-3.77A14.07,14.07,0,0,1,130.5,143.45Z"/><path d="M142.33,146.64h4.92v-8.37c0-1.54.79-2,1.63-2s1.56.65,1.56,2v8.37h.46c.79,0,.84,0,.84,1.3v3c0,1.08-.39,1.6-1.18,1.6-.58,0-1.15-.43-1.15-1.6V149h-8.33c-1.37,0-1.94-.62-1.94-1.94v-8.76c0-1.52.76-2,1.63-2s1.56.5,1.56,2Z"/><path d="M157,144.34l4.28-6.77c.76-1.2,1.32-1.32,1.92-1.32,1.29,0,1.94.82,1.94,2.45v8.62c0,1.46-.77,1.94-1.61,1.94s-1.56-.5-1.56-1.94V141L157.62,148c-.7,1.13-1.16,1.32-1.85,1.32-1,0-2-.6-2-2.42v-8.67c0-1.46.77-1.94,1.61-1.94s1.58.53,1.58,1.94Z"/><path d="M167.7,140.07c0-2.74,1.65-3.56,4.89-3.56h4.54c1.37,0,1.94.63,1.94,2v8.79c0,1.51-.81,2-1.65,2s-1.54-.62-1.54-2v-3.46h-.5c-1.52,0-2,.19-2.88,1.68l-1.4,2.14c-.91,1.39-1.2,1.63-1.94,1.63A1.48,1.48,0,0,1,167.6,148a2.66,2.66,0,0,1,.53-1.35l.84-1.27a4.08,4.08,0,0,1,1.82-1.8A3.26,3.26,0,0,1,167.7,140.07Zm8.18-1.23h-2.45c-2.42,0-2.69.72-2.69,1.4,0,.84.34,1.55,2.91,1.55h2.23Z"/><path d="M63.15,174.05c0,2.33-2.47,5.71-7.08,5.71-5.59,0-8.25-4-8.25-8.86,0-5.33,3.38-8.9,8.25-8.9,4.25,0,7,3.07,7,5.23a1.51,1.51,0,0,1-1.53,1.49c-.84,0-1.08-.34-1.85-1.75a4.1,4.1,0,0,0-3.65-2.21c-2.88,0-4.7,2.25-4.7,6.29S53.14,177,56,177A4,4,0,0,0,60,174.07c.48-1.32,1-1.53,1.61-1.53A1.52,1.52,0,0,1,63.15,174.05Z"/><path d="M78,176.21c0,1.8-1.32,3.26-4.23,3.26h-5.9c-1.37,0-2-.62-2-1.94V169c0-1.37.63-2,2-2h5.28c3,0,4.41,1.11,4.41,3.27a2.87,2.87,0,0,1-2.13,2.83A3.17,3.17,0,0,1,78,176.21Zm-8.88-4h2.25c2.71,0,3.12-.7,3.12-1.49s-.29-1.37-3.12-1.37H69.11Zm0,4.94h2.73c2.28,0,2.91-.48,2.91-1.39,0-1.27-1.11-1.56-3.82-1.56H69.11Z"/><path d="M84.3,179.76c-2.76,0-4.3-1.61-4.3-3.62,0-3.8,4.39-3.51,8.55-4.73,0-1.92-.75-2.48-2.28-2.48s-2.43.41-2.86,1.23-.77,1.27-1.51,1.27a1.28,1.28,0,0,1-1.32-1.2c0-1.58,1.68-3.48,5.59-3.48s5.57,1,5.57,5.11l-.07,3a21.52,21.52,0,0,0,.62,3.63,1.43,1.43,0,0,1-1.46,1.27c-.65,0-1.32-.6-2-1.8A7.31,7.31,0,0,1,84.3,179.76ZM86.19,174c-2.13.43-3,.84-3,2a1.85,1.85,0,0,0,2.09,1.75,3.55,3.55,0,0,0,2-.57c1.24-.82,1.34-1.64,1.34-3.77A14,14,0,0,1,86.19,174Z"/><path d="M105.75,179.47H95.63v1.92c0,1.08-.39,1.63-1.18,1.63s-1.15-.5-1.15-1.63v-2.33c0-2.13-.07-1.92,1-1.92,1.47-1.77,2.21-4.32,2.26-7.65a4.28,4.28,0,0,1,.17-1.54c.17-.36.55-.94,1.8-.94h6.21c1.37,0,1.95.63,1.95,2v8.16h.57c.7,0,.77-.12.77,1.59v2.66c0,1.08-.41,1.63-1.2,1.63-.55,0-1.13-.4-1.13-1.63Zm-2.18-2.33v-7.8H99.51c-.09,3.44-.43,5.79-1.87,7.8Z"/><path d="M113.34,171.77h3.31c3.48,0,5.33,1.34,5.33,3.79,0,2-1.3,3.91-5.33,3.91h-4.56c-1.37,0-2-.62-2-1.94v-8.76c0-1.44.77-2,1.66-2s1.54.5,1.54,2Zm0,5.37h3c2.06,0,2.45-.81,2.45-1.53,0-1-.82-1.52-2.45-1.52h-3Z"/><path d="M130.42,167.06a5.93,5.93,0,0,1,5.89,6.24,6.27,6.27,0,0,1-6.46,6.46c-4.11,0-6.29-3-6.29-8.71s1.75-8.57,6.22-8.57h.33l1.35,0h.33a3.8,3.8,0,0,0,1.08-.09c.48-.15,1.13-.87,1.9-.87.6,0,.91.34.91,1,0,2.16-1.41,2.32-4.46,2.37-3.53.07-4.78.43-5.14,4.42A5.19,5.19,0,0,1,130.42,167.06Zm-3.62,6.29c0,2.45,1.39,4,3.15,4s3.11-1.77,3.11-4-1.41-3.92-3.07-3.92S126.8,170.93,126.8,173.35Z"/><path d="M141.9,171.77h3.31c3.48,0,5.33,1.34,5.33,3.79,0,2-1.3,3.91-5.33,3.91h-4.56c-1.37,0-2-.62-2-1.94v-8.76c0-1.44.77-2,1.66-2s1.54.5,1.54,2Zm0,5.37h2.95c2.06,0,2.45-.81,2.45-1.53,0-1-.82-1.52-2.45-1.52H141.9Zm13.8,0c0,1.75-.29,2.64-1.59,2.64s-1.61-.89-1.61-2.64v-7.73c0-2,.44-2.64,1.59-2.64,1.34,0,1.61.89,1.61,2.62Z"/><path class="cls-3" d="M103.48,34.5l-33.86-.18a4.32,4.32,0,0,0-3.09,1.27l-3.85,3.85a4.37,4.37,0,0,0-1.27,2.93l0,.88a4.32,4.32,0,0,0,1.26,3.19l3.74,3.74a4.38,4.38,0,0,0,3.11,1.27l3,0a1.46,1.46,0,0,0,1.31-.88c1.75-4.13,3.84-3.54,4.79-.24a1.46,1.46,0,0,0,1.4,1l3.9,0a1.43,1.43,0,0,0,1.34-.95c.84-2.52,2.37-2.13,3.25-.23a2.2,2.2,0,0,0,3.9,0c.77-1.36,1.66-1.8,3,.31a1.43,1.43,0,0,0,1.25.71l6.74-.07"/><path class="cls-4" d="M132.75,47.14A9.43,9.43,0,1,1,114.9,42.7a9.61,9.61,0,0,1,2.46-3.06,9.42,9.42,0,0,1,11.66-.2h0a5.93,5.93,0,0,1-1.81,3.32,5.94,5.94,0,0,0-8.25-.17,6,6,0,0,0-1.73,2.91,5.75,5.75,0,0,0-.17,1.32,5.94,5.94,0,1,0,11.75-1.09h0a9.48,9.48,0,0,0,2.78-3.31h0A9.41,9.41,0,0,1,132.75,47.14Z"/><path class="cls-5" d="M123,47.6a9.37,9.37,0,0,1-5.75-2.1A6,6,0,0,1,119,42.59,5.94,5.94,0,0,0,129,39.44a7,7,0,0,0,.09-.92,5.94,5.94,0,0,0-11.88-.24,5.61,5.61,0,0,0,.13,1.36,9.61,9.61,0,0,0-2.46,3.06h0A9.3,9.3,0,0,1,113.75,38a9.43,9.43,0,0,1,18.85.39,9.33,9.33,0,0,1-1,4.05,9.48,9.48,0,0,1-2.78,3.31A9.29,9.29,0,0,1,123,47.6Z"/><path class="cls-3" d="M114.9,42.7A9.3,9.3,0,0,1,113.75,38a9.43,9.43,0,0,1,18.85.39,9.33,9.33,0,0,1-1,4.05,9.48,9.48,0,0,1-2.78,3.31,9.44,9.44,0,0,1-11.58-.23"/><path class="cls-3" d="M131.59,42.42a9.43,9.43,0,1,1-16.69.28,9.61,9.61,0,0,1,2.46-3.06,9.42,9.42,0,0,1,11.66-.2"/><path class="cls-3" d="M128.81,45.73a5.94,5.94,0,1,1-11.75,1.09,5.75,5.75,0,0,1,.17-1.32A6,6,0,0,1,119,42.59a5.94,5.94,0,0,1,8.25.17"/><path class="cls-3" d="M117.36,39.64a5.61,5.61,0,0,1-.13-1.36,5.94,5.94,0,0,1,11.88.24,7,7,0,0,1-.09.92A5.94,5.94,0,0,1,119,42.59"/><circle class="cls-3" cx="121.5" cy="42.93" r="19.89"/><line class="cls-6" x1="94.79" y1="40.88" x2="61.73" y2="40.88"/></g></svg>