<svg xmlns="http://www.w3.org/2000/svg" viewBox="0 0 104 104"><defs><style>.cls-1{fill:#fff;stroke-width:4px;}.cls-1,.cls-2,.cls-5{stroke:#000;stroke-miterlimit:10;}.cls-2,.cls-5{fill:none;stroke-width:2px;}.cls-3{fill:#af54a1;}.cls-4{fill:#51bfb6;}.cls-5{stroke-linecap:round;}</style></defs><title>Организация свадеб</title><g id="Пиктограммы"><rect class="cls-1" x="2" y="2" width="100" height="100"/><path class="cls-2" d="M45.48,41.79,10.34,68.94a5.72,5.72,0,0,0-2.17,3.81L7.3,79.84A5.72,5.72,0,0,0,8.37,83.9l.68.92a5.68,5.68,0,0,0,3.88,2.27l6.89.85a5.71,5.71,0,0,0,4.23-1.2l3.11-2.48a1.89,1.89,0,0,0,.64-2c-1.53-5.68,1.11-6.75,4.76-4.11a1.88,1.88,0,0,0,2.28-.06l4-3.19a1.86,1.86,0,0,0,.62-2.05c-1.17-3.28.72-4.12,3.18-2.88a2.88,2.88,0,0,0,4-3.11c-.3-2,.26-3.2,3.3-2.07a1.89,1.89,0,0,0,1.87-.28L58.75,59"/><path class="cls-3" d="M85.94,31.21a12.37,12.37,0,1,1-17.31-2.48,12.25,12.25,0,0,1,7.23-2.46h0a7.8,7.8,0,0,1,.8,4.9A7.78,7.78,0,0,0,68.58,42a7.5,7.5,0,0,0,.88,1.52,7.8,7.8,0,0,0,12.48-9.35,8.18,8.18,0,0,0-1.21-1.28h0a12.29,12.29,0,0,0,.2-5.66h0A12.41,12.41,0,0,1,85.94,31.21Z"/><path class="cls-4" d="M76.22,39.57A12.31,12.31,0,0,1,68.58,42a7.69,7.69,0,0,1-.57-4.4,7.8,7.8,0,0,0,7.86-11.38,8,8,0,0,0-.66-1,7.79,7.79,0,1,0-12.47,9.34A7.36,7.36,0,0,0,64,35.89,12.41,12.41,0,0,0,63.91,41h0a12.37,12.37,0,1,1,12.31-1.47Z"/><path class="cls-2" d="M63.91,41a12.4,12.4,0,1,1,4.67,1"/><path class="cls-2" d="M80.94,27.27a12.38,12.38,0,1,1-12.31,1.46,12.25,12.25,0,0,1,7.23-2.46"/><path class="cls-2" d="M80.73,32.93a8.18,8.18,0,0,1,1.21,1.28,7.8,7.8,0,0,1-12.48,9.35A7.5,7.5,0,0,1,68.58,42a7.69,7.69,0,0,1-.57-4.4,7.78,7.78,0,0,1,8.66-6.48"/><path class="cls-2" d="M64,35.89a7.36,7.36,0,0,1-1.24-1.31,7.79,7.79,0,1,1,12.47-9.34,8,8,0,0,1,.66,1A7.79,7.79,0,0,1,68,37.64"/><circle class="cls-2" cx="70.91" cy="35.95" r="26.09"/><line class="cls-5" x1="41.65" y1="55.39" x2="7.49" y2="82.09"/></g></svg>