<svg xmlns="http://www.w3.org/2000/svg" viewBox="0 0 104 104"><defs><style>.cls-1,.cls-4{fill:#fff;}.cls-1,.cls-6,.cls-7{stroke:#000;}.cls-1,.cls-6{stroke-miterlimit:10;}.cls-1{stroke-width:4px;}.cls-2{fill:#ffefbe;}.cls-3{fill:#51bfb6;}.cls-5{fill:#af54a1;}.cls-6,.cls-7{fill:none;stroke-width:2px;}.cls-7{stroke-linecap:round;stroke-linejoin:round;}</style></defs><title>Автомобили</title><g id="Пиктограммы"><rect class="cls-1" x="2" y="2" width="100" height="100"/><path class="cls-2" d="M96.23,44.63A2.9,2.9,0,0,1,95.71,49a5.5,5.5,0,0,1-3.36,1h-5.5c-1.5-3-3.26-5.78-3.26-5.78h0c0-.62,0-1.19,0-1.65H90C91.61,42.64,95.24,43.32,96.23,44.63Z"/><path class="cls-3" d="M88.87,74.4V79A4.85,4.85,0,0,1,84,83.78h-6.7A4.84,4.84,0,0,1,72.5,79V74.4Z"/><path class="cls-4" d="M86.85,50.07c1.08,2.2,2,4.54,2,6.07V74.4h-74v-18a20.4,20.4,0,0,1,2.28-6.31A50.09,50.09,0,0,1,20,45.3c.08,4.29,6.06,4.77,6.06,4.77H80.26c2.61-.23,3.24-3.36,3.32-5.78h0S85.35,47.05,86.85,50.07Zm-3.8,9.28C83.05,52.62,64.62,52,66,62,67.5,73.51,83.05,65.84,83.05,59.35ZM37.82,62c1.33-10-17.1-8.32-17.1-2.61C20.72,65.66,36.27,73.51,37.82,62Z"/><path class="cls-4" d="M20,45.29v-.07a13.44,13.44,0,0,1,.41-2.58c1.11-4.74,4.2-13.44,6.74-16,5.07-5.07,15-5.82,24.87-5.82s16.8,0,21,3.27c8,6.23,10.49,17.35,10.49,17.35s.07.46.1,1.18c0,.46,0,1,0,1.65-.08,2.42-.71,5.55-3.32,5.78H26s-6-.48-6.06-4.77Z"/><path class="cls-5" d="M66,62c-1.33-10,17.1-9.34,17.1-2.61C83.05,65.84,67.5,73.51,66,62Z"/><path class="cls-5" d="M20.72,59.35c0-5.71,18.43-7.34,17.1,2.61C36.27,73.51,20.72,65.66,20.72,59.35Z"/><path class="cls-3" d="M31.14,74.4V79a4.85,4.85,0,0,1-4.84,4.83H19.73A4.85,4.85,0,0,1,14.88,79V74.4Z"/><path class="cls-2" d="M14,42.64h6.35A13.44,13.44,0,0,0,20,45.22v.07h0a50.09,50.09,0,0,0-2.82,4.77H11.64a5.5,5.5,0,0,1-3.36-1,2.91,2.91,0,0,1-.52-4.39C8.75,43.32,12.39,42.64,14,42.64Z"/><path class="cls-6" d="M83.58,44.29c0-.62,0-1.19,0-1.65,0-.72-.1-1.18-.1-1.18S80.94,30.34,73,24.11c-4.18-3.26-11-3.27-21-3.27s-19.8.75-24.87,5.82c-2.54,2.54-5.63,11.24-6.74,16A13.44,13.44,0,0,0,20,45.22v.07"/><path class="cls-7" d="M20,45.3c.08,4.29,6.06,4.77,6.06,4.77H80.26c2.61-.23,3.24-3.36,3.32-5.78"/><path class="cls-7" d="M88.87,74.4V56.14c0-1.53-.94-3.87-2-6.07-1.5-3-3.26-5.78-3.26-5.78"/><line class="cls-7" x1="31.14" y1="74.4" x2="72.5" y2="74.4"/><path class="cls-7" d="M20,45.3a50.09,50.09,0,0,0-2.82,4.77,20.4,20.4,0,0,0-2.28,6.31v18"/><path class="cls-6" d="M20,45.29h0"/><path class="cls-7" d="M20,45.22l-.05.07"/><path class="cls-6" d="M31.14,74.4V79a4.85,4.85,0,0,1-4.84,4.83H19.73A4.85,4.85,0,0,1,14.88,79V74.4Z"/><path class="cls-6" d="M72.5,74.4V79a4.84,4.84,0,0,0,4.83,4.83H84A4.85,4.85,0,0,0,88.87,79V74.4Z"/><path class="cls-6" d="M83.05,59.35C83.05,52.62,64.62,52,66,62,67.5,73.51,83.05,65.84,83.05,59.35Z"/><path class="cls-6" d="M20.72,59.35c0-5.71,18.43-7.34,17.1,2.61C36.27,73.51,20.72,65.66,20.72,59.35Z"/><path class="cls-6" d="M20.39,42.64H14c-1.65,0-5.29.68-6.28,2A2.91,2.91,0,0,0,8.28,49a5.5,5.5,0,0,0,3.36,1h5.52"/><path class="cls-6" d="M83.6,42.64H90c1.65,0,5.28.68,6.27,2A2.9,2.9,0,0,1,95.71,49a5.5,5.5,0,0,1-3.36,1H86.84"/></g></svg>