<svg xmlns="http://www.w3.org/2000/svg" viewBox="0 0 104 104"><defs><style>.cls-1,.cls-3{fill:#fff;}.cls-1,.cls-4,.cls-5,.cls-6{stroke:#000;}.cls-1,.cls-4,.cls-6{stroke-miterlimit:10;}.cls-1{stroke-width:4px;}.cls-2{fill:#af54a1;}.cls-4,.cls-5,.cls-6{fill:none;stroke-width:2px;}.cls-5,.cls-6{stroke-linecap:round;}.cls-5{stroke-linejoin:round;}</style></defs><title>Ведущие</title><g id="Пиктограммы"><rect class="cls-1" x="2" y="2" width="100" height="100"/><path class="cls-2" d="M68.43,9.13A18.61,18.61,0,0,1,81.92,40.58L55.61,14.27A18.51,18.51,0,0,1,68.43,9.13Z"/><path class="cls-3" d="M81.92,40.58A18.61,18.61,0,1,1,55.61,14.27Z"/><path class="cls-3" d="M49.81,27.75A18.63,18.63,0,0,0,68.43,46.38c-9.1,3.06-26.66,18.09-33.25,23.93a3.71,3.71,0,0,1-5.08-.16l-1.61-1.61-2-2a3.71,3.71,0,0,1-.15-5.09C32.2,55,47,37.87,49.81,27.75Zm.57,21a1.8,1.8,0,0,0,0-2.54,1.78,1.78,0,0,0-1.28-.53,1.75,1.75,0,0,0-1.27.53l-4.46,4.45a1.79,1.79,0,0,0,0,2.55,1.81,1.81,0,0,0,2.55,0Z"/><path d="M50.38,46.18a1.8,1.8,0,0,1,0,2.54l-4.46,4.46a1.81,1.81,0,0,1-2.55,0,1.79,1.79,0,0,1,0-2.55l4.46-4.45a1.75,1.75,0,0,1,1.27-.53A1.78,1.78,0,0,1,50.38,46.18Z"/><path class="cls-4" d="M55.61,14.27A18.61,18.61,0,0,1,81.92,40.58,18.61,18.61,0,1,1,55.61,14.27Z"/><polyline class="cls-4" points="55.6 14.26 55.61 14.27 81.92 40.58 81.93 40.59"/><path class="cls-5" d="M49.81,27.75C47,37.87,32.2,55,26.38,61.48a3.71,3.71,0,0,0,.15,5.09l2,2,1.61,1.61a3.71,3.71,0,0,0,5.08.16c6.59-5.84,24.15-20.87,33.25-23.93"/><path class="cls-6" d="M28.49,68.54s-3,2.7-7.92,10.17c-6.3,9.68,8.9,19.48,17.35,11C45.07,82.59,59.09,69,66.75,61.37c7.09-7.1,23.42,6,15.31,14.18-3.6,3.65-13.63,15.32-13.63,15.32"/></g></svg>