<svg xmlns="http://www.w3.org/2000/svg" viewBox="0 0 104 104"><defs><style>.cls-1,.cls-2{fill:#fff;}.cls-1,.cls-5{stroke:#000;}.cls-1{stroke-miterlimit:10;stroke-width:4px;}.cls-3{fill:#af54a1;}.cls-4{fill:#b1b5dd;}.cls-5{fill:none;stroke-linecap:round;stroke-linejoin:round;stroke-width:2px;}</style></defs><title>Мужские костюмы</title><g id="Пиктограммы"><rect class="cls-1" x="2" y="2" width="100" height="100"/><path class="cls-2" d="M97.37,72.86a1.17,1.17,0,0,1-.84,1.44L85.14,77.36a1.18,1.18,0,0,1-1.45-.83L75.92,47.84a.3.3,0,0,0-.59.08V88.71A3.29,3.29,0,0,1,72,92H49.67V52L66.82,27.44a3.45,3.45,0,0,0,.62-2A3.41,3.41,0,0,0,67,23.78a3.43,3.43,0,0,1,.09-3.51l3-4.82,8.62,3.45a11.14,11.14,0,0,1,6.67,7.59ZM57.67,61.92a1.59,1.59,0,1,0-1.59,1.58A1.59,1.59,0,0,0,57.67,61.92Zm0,10a1.59,1.59,0,1,0-1.59,1.58A1.59,1.59,0,0,0,57.67,71.92Zm0,10a1.59,1.59,0,1,0-1.59,1.58A1.59,1.59,0,0,0,57.67,81.92Z"/><path class="cls-3" d="M70.12,15.45l-3,4.82A3.43,3.43,0,0,0,67,23.78a3.41,3.41,0,0,1,.44,1.69,3.45,3.45,0,0,1-.62,2L49.67,52V48l2.16-6.19L62.07,12.5h0a11.19,11.19,0,0,1,2.26.64Z"/><path class="cls-4" d="M62.07,12.49h0L51.83,41.81,41.52,12.67a10.69,10.69,0,0,1,2.7-.34h16A10.88,10.88,0,0,1,62.07,12.49Z"/><path d="M56.08,60.33a1.59,1.59,0,1,1-1.58,1.59A1.59,1.59,0,0,1,56.08,60.33Z"/><path d="M56.08,70.33a1.59,1.59,0,1,1-1.58,1.59A1.59,1.59,0,0,1,56.08,70.33Z"/><path d="M56.08,80.33a1.59,1.59,0,1,1-1.58,1.59A1.59,1.59,0,0,1,56.08,80.33Z"/><path class="cls-3" d="M51.83,41.81,49.67,48,36.76,28.15a3.44,3.44,0,0,1-.2-3.41l.52-1a3.46,3.46,0,0,0-.3-3.55l-3.41-4.7L40.55,13a8.25,8.25,0,0,1,1-.28Z"/><path class="cls-2" d="M49.67,52V92H32a3.29,3.29,0,0,1-3.29-3.29V47.14a.3.3,0,0,0-.59-.09L19.62,76.57a1.2,1.2,0,0,1-1.43.82l-11-2.77a1.19,1.19,0,0,1-.86-1.43l11.57-47A11.18,11.18,0,0,1,25,18.34l8.33-2.89,3.41,4.7a3.46,3.46,0,0,1,.3,3.55l-.52,1a3.44,3.44,0,0,0,.2,3.41L49.67,48Z"/><path class="cls-5" d="M41.52,12.67a8.25,8.25,0,0,0-1,.28l-7.18,2.5L25,18.34a11.18,11.18,0,0,0-7.19,7.89l-11.57,47a1.19,1.19,0,0,0,.86,1.43l11.05,2.77a1.2,1.2,0,0,0,1.43-.82l8.46-29.52a.3.3,0,0,1,.59.09V88.71A3.29,3.29,0,0,0,32,92H72a3.29,3.29,0,0,0,3.29-3.29V47.92a.3.3,0,0,1,.59-.08l7.77,28.69a1.18,1.18,0,0,0,1.45.83L96.53,74.3a1.17,1.17,0,0,0,.84-1.44l-12-46.37a11.14,11.14,0,0,0-6.67-7.59l-8.62-3.45-5.79-2.32a11.19,11.19,0,0,0-2.26-.64,10.88,10.88,0,0,0-1.89-.16h-16A10.69,10.69,0,0,0,41.52,12.67Z"/><path class="cls-5" d="M33.37,15.45l3.41,4.7a3.46,3.46,0,0,1,.3,3.55l-.52,1a3.44,3.44,0,0,0,.2,3.41L49.67,48"/><path class="cls-5" d="M70.12,15.45l-3,4.82A3.43,3.43,0,0,0,67,23.78a3.41,3.41,0,0,1,.44,1.69,3.45,3.45,0,0,1-.62,2L49.67,52"/><polyline class="cls-5" points="49.67 92 49.67 52 49.67 48"/><polyline class="cls-5" points="62.07 12.5 51.83 41.81 49.67 48"/><line class="cls-5" x1="41.52" y1="12.67" x2="51.83" y2="41.81"/></g></svg>