<svg xmlns="http://www.w3.org/2000/svg" viewBox="0 0 104 104"><defs><style>.cls-1,.cls-2{fill:#fff;}.cls-1,.cls-4,.cls-5,.cls-6{stroke:#000;}.cls-1,.cls-4,.cls-6{stroke-miterlimit:10;}.cls-1{stroke-width:4px;}.cls-3{fill:#af54a1;}.cls-4,.cls-5,.cls-6{fill:none;}.cls-4,.cls-5{stroke-width:2px;}.cls-5{stroke-linecap:round;stroke-linejoin:round;}</style></defs><title>Музыканты и артисты</title><g id="Пиктограммы"><rect class="cls-1" x="2" y="2" width="100" height="100"/><path d="M89.1,68.82a1.14,1.14,0,0,1-.23-.68V66.9a1.13,1.13,0,0,1,2.25,0v1.24a1.07,1.07,0,0,1-.23.68Z"/><path d="M89.1,68.82h1.79a1.12,1.12,0,0,1-1.79,0Z"/><path d="M91.12,80.43a1.13,1.13,0,0,1-2.25,0v-.78a1.1,1.1,0,0,1,.25-.71h1.74l.26.71Z"/><path d="M89.12,78.94a1.11,1.11,0,0,1,.87-.42c.09,0,.17,0,.87.42Z"/><path d="M85.72,68.82h-1.8a1.07,1.07,0,0,1-.23-.68V66.9a1.13,1.13,0,0,1,2.25,0v1.24A1.13,1.13,0,0,1,85.72,68.82Z"/><path d="M83.92,68.82h1.8a1.14,1.14,0,0,1-.9.45A1.12,1.12,0,0,1,83.92,68.82Z"/><path d="M85.94,80.43a1.13,1.13,0,0,1-2.25,0v-.78a1.1,1.1,0,0,1,.25-.71h1.75a1.1,1.1,0,0,1,.25.71Z"/><path d="M85.69,78.94H83.94a1.13,1.13,0,0,1,.88-.42A1.11,1.11,0,0,1,85.69,78.94Z"/><path d="M79.17,68.82h.92a1.14,1.14,0,0,1-.9.45,1.12,1.12,0,0,1-.8-.35A2.88,2.88,0,0,1,79.17,68.82Z"/><path d="M78.39,68.92a1,1,0,0,1-.32-.78V66.9a1.13,1.13,0,0,1,2.25,0v1.24a1.07,1.07,0,0,1-.23.68h-.92A2.88,2.88,0,0,0,78.39,68.92Z"/><path d="M79.17,78.94a2.73,2.73,0,0,1-.76-.1,1.15,1.15,0,0,1,.78-.32,1.1,1.1,0,0,1,.87.42Z"/><path d="M78.41,78.84a2.73,2.73,0,0,0,.76.1h.89a1.05,1.05,0,0,1,.26.71v.78a1.13,1.13,0,0,1-2.25,0v-.78A1.08,1.08,0,0,1,78.41,78.84Z"/><rect class="cls-2" x="77.79" y="70.62" width="14.63" height="6.52" rx="1.19" ry="1.19"/><path d="M47.36,76.19H76a3.08,3.08,0,0,0,.42,1.19v.37a.25.25,0,0,1-.25.24H46.38A5.72,5.72,0,0,0,47.36,76.19Z"/><path d="M76.44,76.43v.95A3.08,3.08,0,0,1,76,76.19h.17A.25.25,0,0,1,76.44,76.43Z"/><path d="M76,72a3.22,3.22,0,0,1,.12-.88A.88.88,0,0,1,76,72.58Z"/><path d="M76,72v.58a.9.9,0,0,1-.45.13H47.37l0,0a5.67,5.67,0,0,0-1-1.76H75.54a.89.89,0,0,1,.57.21A3.22,3.22,0,0,0,76,72Z"/><path class="cls-3" d="M79,70.62a1.19,1.19,0,0,0-1.19,1.19V76A1.18,1.18,0,0,0,79,77.14H91.22A1.18,1.18,0,0,0,92.41,76V71.81a1.19,1.19,0,0,0-1.19-1.19Zm-2.54,5.81a.25.25,0,0,0-.25-.24H76a3.11,3.11,0,0,1,0-.43V72.58a.88.88,0,0,0,.12-1.46,3.22,3.22,0,0,1,2.28-2.2,1.12,1.12,0,0,0,.8.35,1.14,1.14,0,0,0,.9-.45h3.83a1.12,1.12,0,0,0,.9.45,1.14,1.14,0,0,0,.9-.45H89.1a1.12,1.12,0,0,0,1.79,0H91A3.19,3.19,0,0,1,94.21,72v3.76A3.19,3.19,0,0,1,91,78.94h-.17c-.7-.41-.78-.42-.87-.42a1.11,1.11,0,0,0-.87.42H85.69a1.11,1.11,0,0,0-.87-.42,1.13,1.13,0,0,0-.88.42H80.06a1.1,1.1,0,0,0-.87-.42,1.15,1.15,0,0,0-.78.32,3.09,3.09,0,0,1-2-1.46Z"/><path class="cls-2" d="M59.11,43.84c4.88-6,10.92-5.4,14.74,0a8.13,8.13,0,0,1,12.71-3.17c-7,8.88-20.18,9.82-34.7,9.82-8.53,0-25.35.34-33.93-9.82,5.89-3.84,10.65-1.81,12.38,3.17,4.12-6.07,10.77-5.77,14.63,0C49,37.51,55.81,37.8,59.11,43.84Z"/><path class="cls-2" d="M66.43,30.06a22.86,22.86,0,0,1-.29,3.65c-8.9.33-18.85.28-27.92-.17A23.46,23.46,0,0,1,38,30.06c0-10,6.37-18.17,14.23-18.17S66.43,20,66.43,30.06Z"/><path class="cls-2" d="M58.66,78c0,3.73.45,11.65-9.33,11.65-5.78,0-5.26-3.5-11-3.5-3.6,0-4.5,4.85-15.07,4.85-11.11,0-10.69-12-10.69-17.11s.74-16.31,11.36-16.31c7.43,0,10.81,5.4,14.74,5.4s6.07-3.38,11.25-3.38c3.22,0,8.77-.19,8.77,11.32H46.39a5.63,5.63,0,1,0,0,7.08Zm-31.72-.9v-5.4a1.84,1.84,0,0,0-.55-1.31,1.82,1.82,0,0,0-1.31-.54,1.85,1.85,0,0,0-1.85,1.85v5.4a1.86,1.86,0,0,0,3.71,0Z"/><path class="cls-2" d="M76,76.19H47.36a5.58,5.58,0,0,0,.28-1.75,5.85,5.85,0,0,0-.27-1.73H75.54a.9.9,0,0,0,.45-.13v3.18A3.11,3.11,0,0,0,76,76.19Z"/><path d="M46.38,78l1-1.8A5.72,5.72,0,0,1,46.38,78Z"/><path d="M47.35,72.68l-1-1.76A5.67,5.67,0,0,1,47.35,72.68Z"/><path d="M46.39,70.91h0l1,1.76,0,0a5.85,5.85,0,0,1,.27,1.73,5.58,5.58,0,0,1-.28,1.75l-1,1.8a5.62,5.62,0,1,1,0-7.08Z"/><path d="M26.94,71.69v5.4a1.86,1.86,0,0,1-3.71,0v-5.4a1.85,1.85,0,0,1,1.85-1.85,1.82,1.82,0,0,1,1.31.54A1.84,1.84,0,0,1,26.94,71.69Z"/><path class="cls-3" d="M73.85,43.84c-3.82-5.4-9.86-6-14.74,0-3.3-6-10.09-6.33-14.17,0-3.86-5.77-10.51-6.07-14.63,0-1.73-5-6.49-7-12.38-3.17A21.46,21.46,0,0,1,13.55,32a.9.9,0,0,1,1.08-1.11c5.32,1.31,13.95,2.2,23.59,2.67,9.07.45,19,.5,27.92.17,10.06-.37,18.78-1.25,23.4-2.66a.9.9,0,0,1,1.14,1.08,22.91,22.91,0,0,1-4.12,8.54A8.13,8.13,0,0,0,73.85,43.84Z"/><path class="cls-4" d="M38.22,33.54c-9.64-.47-18.27-1.36-23.59-2.67A.9.9,0,0,0,13.55,32a21.46,21.46,0,0,0,4.38,8.69c8.58,10.16,25.4,9.8,33.93,9.82,14.52,0,27.68-.94,34.7-9.82a22.91,22.91,0,0,0,4.12-8.54.9.9,0,0,0-1.14-1.08c-4.62,1.41-13.34,2.29-23.4,2.66C57.24,34,47.29,34,38.22,33.54Z"/><path class="cls-4" d="M38.22,33.55h0A23.46,23.46,0,0,1,38,30.06c0-10,6.37-18.17,14.23-18.17S66.43,20,66.43,30.06a22.86,22.86,0,0,1-.29,3.65"/><path class="cls-5" d="M86.56,40.67a8.13,8.13,0,0,0-12.71,3.17c-3.82-5.4-9.86-6-14.74,0-3.3-6-10.09-6.33-14.17,0-3.86-5.77-10.51-6.07-14.63,0-1.73-5-6.49-7-12.38-3.17"/><rect class="cls-6" x="77.79" y="70.62" width="14.63" height="6.52" rx="1.19" ry="1.19"/><path class="cls-4" d="M58.66,70.91c0-11.51-5.55-11.32-8.77-11.32-5.18,0-7.36,3.38-11.25,3.38s-7.31-5.4-14.74-5.4c-10.62,0-11.36,11.34-11.36,16.31S12.12,91,23.23,91C33.8,91,34.7,86.14,38.3,86.14c5.77,0,5.25,3.5,11,3.5,9.78,0,9.33-7.92,9.33-11.65"/><path class="cls-6" d="M90.89,68.82H91A3.19,3.19,0,0,1,94.21,72v3.76A3.19,3.19,0,0,1,91,78.94H79.17a2.73,2.73,0,0,1-.76-.1A3.18,3.18,0,0,1,76,75.76V72a3.15,3.15,0,0,1,2.4-3.08,2.88,2.88,0,0,1,.78-.1H90.89Z"/></g></svg>