<svg xmlns="http://www.w3.org/2000/svg" viewBox="0 0 104 104"><defs><style>.cls-1{fill:#fff;stroke-width:4px;}.cls-1,.cls-4{stroke:#000;stroke-miterlimit:10;}.cls-2{fill:#af54a1;}.cls-3{fill:#51bfb6;}.cls-4{fill:none;stroke-width:2px;}</style></defs><title>Обручальные кольца</title><g id="Пиктограммы"><rect class="cls-1" x="2" y="2" width="100" height="100"/><path class="cls-2" d="M52.43,66.16a18.71,18.71,0,0,0,9.32,5.28,18.45,18.45,0,0,0,4.22.48,18.83,18.83,0,1,0,0-37.66,19.63,19.63,0,0,0-4.22.46h0a29.85,29.85,0,0,0-10.65-8.6A29.9,29.9,0,1,1,53,79a30.17,30.17,0,0,1-9.84-7.59,29.91,29.91,0,0,1-1.41-37A18.71,18.71,0,0,1,52.41,40a18.82,18.82,0,0,0,0,26.14Z"/><path class="cls-3" d="M52.41,40a18.71,18.71,0,0,0-10.62-5.54,20.07,20.07,0,0,0-2.92-.22,18.83,18.83,0,1,0,0,37.66,19.29,19.29,0,0,0,4.33-.49A30.17,30.17,0,0,0,53,79a29.94,29.94,0,1,1,8.71-7.58,18.71,18.71,0,0,1-9.32-5.28,18.82,18.82,0,0,0,0-26.14Z"/><path class="cls-4" d="M53,79a29.94,29.94,0,1,1,8.71-7.58"/><path class="cls-4" d="M51.09,26.13A29.9,29.9,0,1,1,53,79a30.17,30.17,0,0,1-9.84-7.59,29.91,29.91,0,0,1-1.41-37"/><path class="cls-4" d="M61.75,34.72A19.63,19.63,0,0,1,66,34.26a18.83,18.83,0,1,1,0,37.66,18.45,18.45,0,0,1-4.22-.48A18.83,18.83,0,0,1,52.41,40h0"/><path class="cls-4" d="M43.2,71.43a19.29,19.29,0,0,1-4.33.49,18.83,18.83,0,1,1,0-37.66,20.07,20.07,0,0,1,2.92.22A18.84,18.84,0,0,1,52.43,66.16h0"/></g></svg>