<svg xmlns="http://www.w3.org/2000/svg" viewBox="0 0 104 104"><defs><style>.cls-1,.cls-4{fill:#fff;}.cls-1,.cls-6,.cls-7{stroke:#000;}.cls-1,.cls-6{stroke-miterlimit:10;}.cls-1{stroke-width:4px;}.cls-2{fill:#b1b5dd;}.cls-3{fill:#51bfb6;}.cls-5{fill:#af54a1;}.cls-6,.cls-7{fill:none;stroke-width:2px;}.cls-7{stroke-linecap:round;stroke-linejoin:round;}</style></defs><title>Свадебные букеты</title><g id="Пиктограммы"><rect class="cls-1" x="2" y="2" width="100" height="100"/><path class="cls-2" d="M93.29,56a5.24,5.24,0,0,1-.77,9.12l-6,2.49a5.1,5.1,0,0,0-2.95,3.61l-1.47,6.59a5,5,0,0,1-3,3.62c1.59-3.95-.81-13.54-7.49-15.54a.66.66,0,0,1-.4-1,7.13,7.13,0,0,0,.63-1.59,5.53,5.53,0,0,0,2.86.5,5.81,5.81,0,1,0-.93-11.59h0l1.16-2.06a5.09,5.09,0,0,1,3.86-2.6l6.43-.68.21,0,.09,1.67a5.08,5.08,0,0,0,2.31,4Z"/><path class="cls-3" d="M88.58,38.38a5.23,5.23,0,0,1-3.14,8.47l-.27-5.07a4.75,4.75,0,0,0-8-3.5l-4.84,4.44A4.67,4.67,0,0,1,68,43.83l-6.16-1.67a4.6,4.6,0,0,0-4.25,1,12.79,12.79,0,0,0-2-3.81l4.7-1.54a5.24,5.24,0,0,0,1.49-9l-5.15-3.88a5,5,0,0,1-1.45-1.77L55,21.06c-.36-4.17,4-7.13,7.45-5l5.42,3.38a4.66,4.66,0,0,0,4.51.21l5.92-2.87a4.76,4.76,0,0,1,6.61,5.66L83.33,29a5,5,0,0,0,1,4.53ZM75.48,36a5.81,5.81,0,1,0-6.9,4.47A5.8,5.8,0,0,0,75.48,36Z"/><path class="cls-3" d="M85.17,41.78l.27,5.07-.21,0-6.43.68a5.09,5.09,0,0,0-3.86,2.6l-1.16,2.06a5.86,5.86,0,0,0-3.44,1.51c-2-3.57-5.83-6.52-11.73-6.76a1,1,0,0,1-.3-.08.65.65,0,0,1-.38-.66,8.08,8.08,0,0,0-.34-3.09,4.6,4.6,0,0,1,4.25-1L68,43.83a4.67,4.67,0,0,0,4.38-1.11l4.84-4.44A4.75,4.75,0,0,1,85.17,41.78Z"/><path class="cls-4" d="M80.06,57.56a5.81,5.81,0,0,1-5.33,6.26,5.53,5.53,0,0,1-2.86-.5,12.62,12.62,0,0,0-.39-7c.06-.08.1-.16.15-.24l2.15-3.82h0A5.81,5.81,0,0,1,80.06,57.56Z"/><path class="cls-4" d="M71.64,65.92c6.68,2,9.08,11.59,7.49,15.54A4.57,4.57,0,0,1,73.72,80l-4-5.19A4.66,4.66,0,0,0,65.55,73l-6.36.61c-4,.38-6.61-4.23-4.44-7.8l3.46-5.71a5.37,5.37,0,0,0,.4-4.73l-2.46-6.2a5.24,5.24,0,0,1-.31-2.79l1.32.26a4.62,4.62,0,0,1,1.1.38,4.71,4.71,0,0,1,2.33,2.55l2.35,6.13a4.61,4.61,0,0,0,5.53,2.87,5.83,5.83,0,0,0,3.4,4.8,7.13,7.13,0,0,1-.63,1.59A.66.66,0,0,0,71.64,65.92Z"/><path class="cls-4" d="M79.13,81.46a3,3,0,0,1-.44.82.74.74,0,0,1-.72.29c-12.55-2.62-34.58-7.45-37-8a.8.8,0,0,1-.34-.18l0,0-8.92-9.84a1,1,0,0,1-.16-.28c-.44-1.73-4.32-16.88-7.67-30.55l2.51,9.78,6.39-.09a4.65,4.65,0,0,1,4,2.15L40.35,51a4.75,4.75,0,0,0,8.58-1.44l1.38-4.41a5.29,5.29,0,0,0,.57.15l5,1a5.24,5.24,0,0,0,.31,2.79l2.46,6.2a5.37,5.37,0,0,1-.4,4.73l-3.46,5.71c-2.17,3.57.46,8.18,4.44,7.8L65.55,73a4.66,4.66,0,0,1,4.13,1.82l4,5.19A4.57,4.57,0,0,0,79.13,81.46Z"/><path class="cls-4" d="M71,29.13a5.81,5.81,0,1,1-6.91,4.46A5.8,5.8,0,0,1,71,29.13Z"/><path class="cls-3" d="M73.78,52.23l-2.15,3.82c0,.08-.09.16-.15.24a13.11,13.11,0,0,0-1.14-2.55A5.86,5.86,0,0,1,73.78,52.23Z"/><path class="cls-4" d="M71.48,56.29a12.62,12.62,0,0,1,.39,7,5.83,5.83,0,0,1-3.4-4.8A4.91,4.91,0,0,0,71.48,56.29Z"/><path class="cls-4" d="M70.34,53.74a13.11,13.11,0,0,1,1.14,2.55,4.91,4.91,0,0,1-3,2.23v0A5.8,5.8,0,0,1,70.34,53.74Z"/><path class="cls-4" d="M70.34,53.74a5.8,5.8,0,0,0-1.87,4.76v0a4.61,4.61,0,0,1-5.53-2.87l-2.35-6.13A4.71,4.71,0,0,0,58.26,47l.05-.07a1,1,0,0,0,.3.08C64.51,47.22,68.31,50.17,70.34,53.74Z"/><path class="cls-5" d="M61.79,28.77a5.24,5.24,0,0,1-1.49,9l-4.7,1.54A16.88,16.88,0,0,0,50.69,35l3.15-2.85a5.35,5.35,0,0,0,1.74-4.41l-.39-4.59a5,5,0,0,0,1.45,1.77Z"/><path class="cls-4" d="M58.31,46.9l-.05.07a4.62,4.62,0,0,0-1.1-.38l-1.32-.26a5.2,5.2,0,0,1,1.75-3.18,8.08,8.08,0,0,1,.34,3.09A.65.65,0,0,0,58.31,46.9Z"/><path class="cls-4" d="M57.59,43.15a5.2,5.2,0,0,0-1.75,3.18l-5-1a5.29,5.29,0,0,1-.57-.15l.62-2a5.09,5.09,0,0,1,3.23-3.36l1.44-.47A12.79,12.79,0,0,1,57.59,43.15Z"/><path class="cls-5" d="M55.58,27.71a5.35,5.35,0,0,1-1.74,4.41L50.69,35a15.81,15.81,0,0,0-3.87-1.66,5.82,5.82,0,1,0-10-4.08,1.72,1.72,0,0,0,0,.32c-2-3-4.76-5.4-9.72-4.68l-1.82-6c-1.22-4,2.46-7.82,6.22-6.47l6,2.15A4.64,4.64,0,0,0,42,13.82l5.18-4a4.75,4.75,0,0,1,7.65,4.13l-.19,6.74a5.39,5.39,0,0,0,.52,2.46Z"/><path class="cls-4" d="M55.6,39.34l-1.44.47a5.09,5.09,0,0,0-3.23,3.36l-.62,2c-3.46-1.16-4.37-5.94-1.42-8.6L50.69,35A16.88,16.88,0,0,1,55.6,39.34Z"/><path class="cls-4" d="M50.69,35l-1.8,1.62c-3,2.66-2,7.44,1.42,8.6L48.93,49.6A4.75,4.75,0,0,1,40.35,51l-3.6-5.49a4.65,4.65,0,0,0-4-2.15l-6.39.09-2.51-9.78s0-.07,0-.1L26.5,30a5.38,5.38,0,0,0,.79-4.68l-.13-.4c5-.72,7.73,1.69,9.72,4.68a5.81,5.81,0,0,0,9.94,3.76A15.81,15.81,0,0,1,50.69,35Z"/><path class="cls-4" d="M42.68,23.41a5.82,5.82,0,0,1,4.14,9.9,13.33,13.33,0,0,0-7.2,0,.71.71,0,0,1-.81-.34,38.23,38.23,0,0,0-1.93-3.39,1.72,1.72,0,0,1,0-.32A5.82,5.82,0,0,1,42.68,23.41Z"/><path class="cls-4" d="M46.82,33.31a5.81,5.81,0,0,1-9.94-3.76,38.23,38.23,0,0,1,1.93,3.39.71.71,0,0,0,.81.34A13.33,13.33,0,0,1,46.82,33.31Z"/><path class="cls-4" d="M40.66,74.41l.13.13s-17,14.94-22.29,20.23C15.38,97.89,5.34,88.6,9.31,84.64,14.94,79,31.6,64.42,31.6,64.42l.11.12,8.92,9.84Z"/><path class="cls-4" d="M27.29,25.27A5.38,5.38,0,0,1,26.5,30l-2.64,3.66c-.56-2.28-1.1-4.51-1.61-6.63a.71.71,0,0,1,.42-.81,18.85,18.85,0,0,1,4.49-1.3Z"/><path class="cls-6" d="M31.71,64.54l-.11-.12S14.94,79,9.31,84.64c-4,4,6.07,13.25,9.19,10.13,5.28-5.29,22.29-20.23,22.29-20.23l-.13-.13"/><path class="cls-7" d="M85.44,46.85l.09,1.67a5.08,5.08,0,0,0,2.31,4L93.29,56a5.24,5.24,0,0,1-.77,9.12l-6,2.49a5.1,5.1,0,0,0-2.95,3.61l-1.47,6.59a5,5,0,0,1-3,3.62"/><path class="cls-7" d="M73.78,52.23h0a5.81,5.81,0,1,1,.93,11.59,5.53,5.53,0,0,1-2.86-.5"/><path class="cls-7" d="M55.19,23.12,55,21.06c-.36-4.17,4-7.13,7.45-5l5.42,3.38a4.66,4.66,0,0,0,4.51.21l5.92-2.87a4.76,4.76,0,0,1,6.61,5.66L83.33,29a5,5,0,0,0,1,4.53l4.22,4.89a5.23,5.23,0,0,1-3.14,8.47l-.21,0-6.43.68a5.09,5.09,0,0,0-3.86,2.6l-1.16,2.06-2.15,3.82c0,.08-.09.16-.15.24"/><path class="cls-7" d="M75.48,36A5.81,5.81,0,1,1,71,29.13,5.81,5.81,0,0,1,75.48,36Z"/><path class="cls-7" d="M27.16,24.87l-1.82-6c-1.22-4,2.46-7.82,6.22-6.47l6,2.15A4.64,4.64,0,0,0,42,13.82l5.18-4a4.75,4.75,0,0,1,7.65,4.13l-.19,6.74a5.39,5.39,0,0,0,.52,2.46,5,5,0,0,0,1.45,1.77l5.15,3.88a5.24,5.24,0,0,1-1.49,9l-4.7,1.54"/><path class="cls-7" d="M36.88,29.55a1.72,1.72,0,0,1,0-.32,5.82,5.82,0,1,1,10,4.08"/><path class="cls-7" d="M31.71,64.54a1,1,0,0,1-.16-.28c-.44-1.73-4.32-16.88-7.67-30.55,0,0,0-.07,0-.1-.56-2.28-1.1-4.51-1.61-6.63a.71.71,0,0,1,.42-.81,18.85,18.85,0,0,1,4.49-1.3c5-.72,7.73,1.69,9.72,4.68a38.23,38.23,0,0,1,1.93,3.39.71.71,0,0,0,.81.34,13.33,13.33,0,0,1,7.2,0A15.81,15.81,0,0,1,50.69,35a16.88,16.88,0,0,1,4.91,4.37,12.79,12.79,0,0,1,2,3.81,8.08,8.08,0,0,1,.34,3.09.65.65,0,0,0,.38.66,1,1,0,0,0,.3.08c5.9.24,9.7,3.19,11.73,6.76a13.11,13.11,0,0,1,1.14,2.55,12.62,12.62,0,0,1,.39,7,7.13,7.13,0,0,1-.63,1.59.66.66,0,0,0,.4,1c6.68,2,9.08,11.59,7.49,15.54a3,3,0,0,1-.44.82.74.74,0,0,1-.72.29c-12.55-2.62-34.58-7.45-37-8a.8.8,0,0,1-.34-.18l0,0Z"/><path class="cls-7" d="M61.45,93.41C50.87,95,40.79,74.54,40.79,74.54s-2,19.2,3,20.86"/></g></svg>