<svg xmlns="http://www.w3.org/2000/svg" viewBox="0 0 104 104"><defs><style>.cls-1{fill:#fff;stroke-width:4px;}.cls-1,.cls-6{stroke:#000;stroke-miterlimit:10;}.cls-2{fill:#ffefbe;}.cls-3{fill:#af54a1;}.cls-4{fill:#51bfb6;}.cls-5{fill:#b1b5dd;}.cls-6{fill:none;stroke-linecap:round;stroke-width:2px;}</style></defs><title>Феерверки</title><g id="Пиктограммы"><rect class="cls-1" x="2" y="2" width="100" height="100"/><path class="cls-2" d="M92.81,34.21a2.09,2.09,0,1,1-2.09,2.09A2.08,2.08,0,0,1,92.81,34.21Z"/><polygon class="cls-3" points="92.81 86.34 89.83 88.91 90.81 92.81 87.58 90.64 84.36 92.81 85.34 88.91 82.35 86.34 86.18 86.14 87.58 82.35 88.98 86.14 92.81 86.34"/><polygon class="cls-2" points="73.98 65.41 70.99 67.98 71.97 71.88 68.74 69.7 65.52 71.88 66.5 67.98 63.51 65.41 67.34 65.2 68.74 61.42 70.14 65.2 73.98 65.41"/><polygon class="cls-3" points="50.96 11 47.97 13.56 48.95 17.47 45.72 15.28 42.5 17.47 43.48 13.56 40.49 11 44.32 10.79 45.72 7 47.11 10.79 50.96 11"/><path class="cls-3" d="M48.86,51A2.09,2.09,0,1,1,46.77,53,2.09,2.09,0,0,1,48.86,51Z"/><polygon class="cls-4" points="40.49 76.68 36.91 79.76 38.08 84.44 34.21 81.83 30.34 84.44 31.52 79.76 27.93 76.68 32.53 76.43 34.21 71.88 35.88 76.43 40.49 76.68"/><polygon class="cls-5" points="27.93 40.3 24.95 42.87 25.93 46.77 22.7 44.58 19.47 46.77 20.45 42.87 17.47 40.3 21.3 40.09 22.7 36.3 24.09 40.09 27.93 40.3"/><path class="cls-2" d="M15.37,84.45a2.09,2.09,0,1,1-2.09,2.08A2.09,2.09,0,0,1,15.37,84.45Z"/><path class="cls-4" d="M9.1,32.12A2.09,2.09,0,1,1,7,34.21,2.09,2.09,0,0,1,9.1,32.12Z"/><line class="cls-6" x1="53.04" y1="63.51" x2="53.04" y2="97"/><path class="cls-6" d="M69.79,76.07a80.81,80.81,0,0,1,2.09,16.75"/><path class="cls-6" d="M59.33,55.14a10,10,0,0,1,4.18,4.19"/><path class="cls-6" d="M30.46,88.63c-.31,2.56-.44,4.19-.44,4.19"/><path class="cls-6" d="M42.58,59.33A17.83,17.83,0,0,0,36.3,67.7"/><path class="cls-6" d="M67.7,48.86c9.3,0,16.74,29.3,16.74,29.3"/><path class="cls-6" d="M36.3,51c-12,0-18.83,27.2-18.83,27.2"/><path class="cls-6" d="M65.61,40.49C83.48,23.4,97,65.61,97,65.61"/><path class="cls-6" d="M15.37,46.77A74.06,74.06,0,0,0,7,63.51"/><path class="cls-6" d="M42.58,44.67c-3.73-4.46-7.24-6.26-10.46-6.28"/><path class="cls-6" d="M55.14,42.58C68.74,4.47,88.63,30,88.63,30"/><path class="cls-6" d="M46.77,36.3c-13.33-31.92-31.4-8.37-31.4-8.37"/><path class="cls-6" d="M53,30S57.32,1.51,67.7,11.28"/></g></svg>