<svg id="Пиктограммы_сайта" data-name="Пиктограммы сайта" xmlns="http://www.w3.org/2000/svg" viewBox="0 0 100 100">
  <defs>
    <style>
      .cls-1 {
        fill: #000105;
      }
    </style>
  </defs>
  <title>Личный кабинет</title>
  <g>
    <path class="cls-1" d="M48,24.9c3.6,0,7.5.2,10.2,2.7a12.7,12.7,0,0,1,1.2,3.6,22.4,22.4,0,0,1-1.3,9.3,1.7,1.7,0,0,0-.1,1c.1.3.6.5.9.8a1.7,1.7,0,0,1,.1,2.2,10.1,10.1,0,0,1-1.3.9c-1.5,1.4-2.5,4.3-3.2,7.5s-.8,7.6.4,10.7c.5,1.5,2.5,1.9,3.9,2.5l9.8,4.7a5,5,0,0,1,2.3,1.7c.5.8.7,2.5-.3,2.5H31.5c-4.6,0-3-1.8.5-3.4l6.5-2.9c2.6-1.3,5.7-3.2,7-5.8s1.1-9.5-1-12-.3-4.5-3-5.4c-.4-.2-.4-.4-.6-.8a1.6,1.6,0,0,1,0-1.8A2.9,2.9,0,0,0,42,41.4c.2-.8-.3-1.5-.5-2.2a15.8,15.8,0,0,1,1.8-12.9c.4-.8,2.8-1.4,3.3-1.4H48m0-6H46.6c-.1,0-6,.3-8.4,4.2a22.1,22.1,0,0,0-2.6,17.2,7.4,7.4,0,0,0,.1,7.5A7.5,7.5,0,0,0,38,50.5a10.4,10.4,0,0,0,1.8,4.2c.6.8,1.2,4,.4,5.6s-.9,1.4-4.3,3.1l-4.1,1.9-2.2,1c-5.3,2.4-7.6,5.5-6.8,9.3.5,2.1,2.2,5.5,8.7,5.5H70.6a6.6,6.6,0,0,0,5.9-3.5,8.8,8.8,0,0,0-.6-8.4,10.9,10.9,0,0,0-4.7-3.7l-4.9-2.3-4.9-2.4-1.2-.5a22.3,22.3,0,0,1,.1-5.9A21.4,21.4,0,0,1,61.7,50a10.1,10.1,0,0,0,1.8-1.5,7.6,7.6,0,0,0,1-8.5,25.4,25.4,0,0,0,.9-9.3s-.7-5.3-3.2-7.6c-4.6-4.2-10.9-4.2-14.2-4.2Z"/>
    <path class="cls-1" d="M50,8.2C72.2,8.2,90.2,26.9,90.2,50S72.2,91.8,50,91.8,9.8,73.1,9.8,50,27.8,8.2,50,8.2m0-6C24.5,2.2,3.8,23.6,3.8,50S24.5,97.8,50,97.8,96.2,76.4,96.2,50,75.5,2.2,50,2.2Z"/>
  </g>
</svg>
