<svg id="Пиктограммы_сайта" data-name="Пиктограммы сайта" xmlns="http://www.w3.org/2000/svg" viewBox="0 0 100 100">
  <defs>
    <style>
      .cls-1 {
        fill: none;
        stroke: #000;
        stroke-linecap: round;
        stroke-miterlimit: 10;
        stroke-width: 6px;
      }
    </style>
  </defs>
  <title>вход</title>
  <path class="cls-1" d="M79.1,72.9A40.2,40.2,0,0,1,45.6,91C23.2,91,5.1,72.6,5.1,50S23.2,9,45.6,9A40.4,40.4,0,0,1,78.3,25.9"/>
  <g>
    <line class="cls-1" x1="40.5" y1="50" x2="94" y2="50"/>
    <path d="M66.3,68.1a1.9,1.9,0,0,0-.6-2.6L41.4,50,65.7,34.5a1.9,1.9,0,0,0,.6-2.6,1.8,1.8,0,0,0-2.6-.6L36.8,48.4a2,2,0,0,0,0,3.2L63.7,68.7a1.9,1.9,0,0,0,1,.3A1.7,1.7,0,0,0,66.3,68.1Z"/>
  </g>
</svg>
