<svg xmlns="http://www.w3.org/2000/svg" viewBox="0 0 62.8 40.79"><defs><style>.cls-1{fill:none;stroke:#201600;stroke-linecap:round;stroke-miterlimit:10;stroke-width:1.5px;}</style></defs><title>40 обв 1.5</title><g id="Слой_2" data-name="Слой 2"><g id="Слой_4" data-name="Слой 4"><path class="cls-1" d="M50.56,9.37A19.27,19.27,0,0,1,12,9.37"/><line class="cls-1" x1="0.75" y1="9.37" x2="12.03" y2="9.37"/><line class="cls-1" x1="1.79" y1="17.3" x2="12.69" y2="14.38"/><line class="cls-1" x1="4.85" y1="24.7" x2="14.62" y2="19.06"/><line class="cls-1" x1="9.71" y1="31.05" x2="17.69" y2="23.07"/><line class="cls-1" x1="16.06" y1="35.92" x2="21.7" y2="26.15"/><line class="cls-1" x1="23.45" y1="38.99" x2="26.37" y2="28.09"/><line class="cls-1" x1="31.38" y1="40.04" x2="31.38" y2="28.76"/><line class="cls-1" x1="39.31" y1="39" x2="36.39" y2="28.1"/><line class="cls-1" x1="46.71" y1="35.94" x2="41.07" y2="26.17"/><line class="cls-1" x1="53.06" y1="31.08" x2="45.08" y2="23.1"/><line class="cls-1" x1="57.93" y1="24.73" x2="48.16" y2="19.09"/><line class="cls-1" x1="61" y1="17.34" x2="50.1" y2="14.42"/><line class="cls-1" x1="62.05" y1="9.41" x2="50.77" y2="9.41"/><path d="M2.23,1.21a.9.9,0,0,1,1-1H6.19c2.09,0,2.65,1.15,2.65,2.15A1.85,1.85,0,0,1,7.51,4.18v0c.9.13,1.06.79,1.06,1.57A10.91,10.91,0,0,0,8.8,7.36.76.76,0,0,1,8,8c-1,0-1-.93-1-1.24,0-1.35-.25-1.9-1.21-1.9H4V7.17A.82.82,0,0,1,3.11,8a.82.82,0,0,1-.88-.87ZM4,3.61H5.75c.66,0,1.33-.17,1.33-1s-.51-1-1.28-1H4Z"/><path d="M10.22,1.21a.9.9,0,0,1,1-1h4.13c.52,0,.89.15.89.71s-.37.71-.89.71H12V3.27h3c.46,0,.83.13.83.68s-.37.67-.83.67H12V6.49h3.49c.51,0,.89.15.89.71s-.38.71-.89.71H11.25a.9.9,0,0,1-1-1Z"/><path d="M21.57,3.43c1.61.37,2,1.32,2,2.22,0,1.4-1.05,2.44-3.18,2.44S17.18,7,17.18,6.14a.71.71,0,0,1,.74-.73c1,0,.71,1.39,2.49,1.39.91,0,1.42-.5,1.42-1,0-.31-.15-.65-.75-.8l-2-.51c-1.6-.4-1.89-1.28-1.89-2.11C17.2.64,18.79,0,20.28,0s3,.77,3,1.8a.74.74,0,0,1-.81.7c-.81,0-.66-1.15-2.3-1.15-.82,0-1.27.38-1.27.91s.64.71,1.2.84Z"/><path d="M24.84,1.07c0-.73.36-1,1.11-1a1,1,0,0,1,.88.46l3.08,5h0V.89a.85.85,0,1,1,1.69,0V7c0,.7-.3,1.09-1,1.09-.56,0-.74-.11-1-.47L26.56,2.75h0V7.2a.85.85,0,0,1-1.7,0Z"/><path d="M33.9,0a.81.81,0,0,1,.81.81.81.81,0,0,1-.81.82A.82.82,0,1,1,33.9,0Zm-.79,2.94a.7.7,0,0,1,.79-.78.69.69,0,0,1,.78.78V7.26A.69.69,0,0,1,33.9,8a.7.7,0,0,1-.79-.78Z"/><path d="M39.73,0c2,0,3.12,1.27,3.12,2a.71.71,0,0,1-.79.79c-1,0-.72-1.39-2.33-1.39-1.1,0-2,1-2,2.62,0,1.41.55,2.63,2.08,2.63S41.15,5.19,42,5.19a.77.77,0,0,1,.85.68c0,1.11-1.35,2.22-3.05,2.22C37.38,8.09,36,6.7,36,4,36,1.87,37.24,0,39.73,0Z"/><path d="M44,.92a.88.88,0,0,1,1.76,0V3.11h3.2V.92a.88.88,0,1,1,1.75,0V7.17a.88.88,0,0,1-1.75,0V4.59h-3.2V7.17a.88.88,0,0,1-1.76,0Z"/><path d="M52.3.92a.88.88,0,0,1,1.76,0V3.47l2.76-3a.93.93,0,0,1,.7-.39.77.77,0,0,1,.84.71.82.82,0,0,1-.29.6l-1.8,1.9L58.4,6.5a1.48,1.48,0,0,1,.33.7.8.8,0,0,1-.9.84.77.77,0,0,1-.78-.46L55,4.45l-1,1V7.17a.88.88,0,0,1-1.76,0Z"/><path d="M60.32,0a.82.82,0,1,1-.81.81A.81.81,0,0,1,60.32,0Zm-.78,2.94a.78.78,0,1,1,1.56,0V7.26a.78.78,0,1,1-1.56,0Z"/></g></g></svg>