<svg xmlns="http://www.w3.org/2000/svg" viewBox="0 0 200 78"><defs><style>.cls-1{fill:#fff;opacity:0.6;}.cls-2,.cls-3{fill:none;stroke:#000;stroke-linecap:round;stroke-miterlimit:10;}.cls-2{stroke-width:2px;}.cls-3{stroke-width:0.5px;}</style></defs><title>голо с подложкой 2</title><g id="Слой_4" data-name="Слой 4"><rect class="cls-1" x="0.23" width="200" height="78" rx="12" ry="12"/><path class="cls-2" d="M67,34.2a23.52,23.52,0,0,1-47,0"/><line class="cls-2" x1="6.16" y1="34.2" x2="19.93" y2="34.2"/><line class="cls-2" x1="7.43" y1="43.89" x2="20.73" y2="40.32"/><line class="cls-2" x1="11.16" y1="52.91" x2="23.09" y2="46.03"/><line class="cls-2" x1="17.1" y1="60.67" x2="26.84" y2="50.93"/><line class="cls-2" x1="24.85" y1="66.62" x2="31.74" y2="54.69"/><line class="cls-2" x1="33.87" y1="70.37" x2="37.44" y2="57.06"/><line class="cls-2" x1="43.56" y1="71.65" x2="43.56" y2="57.87"/><line class="cls-2" x1="53.24" y1="70.38" x2="49.68" y2="57.08"/><line class="cls-2" x1="62.27" y1="66.65" x2="55.38" y2="54.72"/><line class="cls-2" x1="70.03" y1="60.71" x2="60.29" y2="50.97"/><line class="cls-2" x1="75.98" y1="52.96" x2="64.05" y2="46.07"/><line class="cls-2" x1="79.72" y1="43.94" x2="66.42" y2="40.37"/><line class="cls-2" x1="81" y1="34.25" x2="67.23" y2="34.25"/><path d="M28.39,13.09c0-3.6,1.87-4.74,4.73-4.74H46.58c9.62,0,12.18,5.28,12.18,9.86,0,3.85-2.26,7.65-6.11,8.54v.09c4.14.6,4.88,3.6,4.88,7.21,0,4.09,1.09,5.62,1.09,7.29,0,1.88-1.93,3.16-3.8,3.16-4.44,0-4.78-4.29-4.78-5.72,0-6.21-1.14-8.73-5.58-8.73h-8V40.46a3.8,3.8,0,0,1-4,4,3.81,3.81,0,0,1-4-4Zm8.08,11h8.09c3.06,0,6.12-.79,6.12-4.78,0-3.8-2.32-4.78-5.87-4.78H36.47Z"/><path d="M67.16,12.28c0-2,1-2.58,2.57-2.58H80.05c1.28,0,2.22.38,2.22,1.77s-.94,1.77-2.22,1.77h-8.5v4.18H79c1.16,0,2.07.32,2.07,1.69S80.16,20.8,79,20.8H71.55v4.66h8.71c1.29,0,2.23.37,2.23,1.77S81.55,29,80.26,29H69.73c-1.55,0-2.57-.62-2.57-2.58Z"/><path d="M95.5,17.82c4,.91,5,3.3,5,5.55,0,3.48-2.62,6.08-7.93,6.08-5.57,0-8.06-2.79-8.06-4.88a1.76,1.76,0,0,1,1.84-1.82c2.39,0,1.77,3.49,6.22,3.49,2.28,0,3.54-1.26,3.54-2.55,0-.78-.38-1.63-1.88-2l-5-1.26c-4-1-4.72-3.21-4.72-5.28,0-4.28,4-5.89,7.69-5.89,3.43,0,7.48,1.93,7.48,4.5a1.82,1.82,0,0,1-2,1.74c-2,0-1.66-2.87-5.76-2.87-2,0-3.17.94-3.17,2.28s1.61,1.77,3,2.09Z"/><path d="M103.67,11.93c0-1.82.89-2.58,2.76-2.58a2.42,2.42,0,0,1,2.2,1.16l7.69,12.4h.05V11.47a2.12,2.12,0,0,1,4.24,0V26.61c0,1.74-.75,2.73-2.6,2.73-1.39,0-1.85-.29-2.41-1.18l-7.64-12h0V27.23a2.12,2.12,0,0,1-4.24,0Z"/><path d="M124.33,16.59a2,2,0,1,1,3.91,0v10.8a2,2,0,0,1-3.91,0Z"/><path d="M140.86,9.25c5,0,7.8,3.16,7.8,5a1.79,1.79,0,0,1-2,2c-2.55,0-1.8-3.49-5.82-3.49-2.76,0-5,2.39-5,6.57,0,3.51,1.4,6.56,5.2,6.56,3.46,0,3.38-3.69,5.49-3.69,1.08,0,2.15.61,2.15,1.68,0,2.79-3.38,5.55-7.64,5.55-6,0-9.59-3.46-9.59-10.1C131.43,13.91,134.64,9.25,140.86,9.25Z"/><path d="M151.39,11.55a2.2,2.2,0,1,1,4.39,0V17h8V11.55a2.2,2.2,0,1,1,4.39,0v15.6a2.2,2.2,0,0,1-4.39,0V20.72h-8v6.43a2.2,2.2,0,0,1-4.39,0Z"/><path d="M172.23,11.55a2.2,2.2,0,1,1,4.39,0v6.38l6.92-7.61a2.31,2.31,0,0,1,1.74-1,1.92,1.92,0,0,1,2.09,1.77,2.07,2.07,0,0,1-.72,1.5l-4.51,4.75,5.34,8.12a3.64,3.64,0,0,1,.83,1.74,2,2,0,0,1-2.25,2.11,2,2,0,0,1-2-1.15L179,20.37l-2.42,2.41v4.37a2.2,2.2,0,0,1-4.39,0Z"/><path d="M190.31,16.59a2,2,0,1,1,3.91,0v10.8a2,2,0,0,1-3.91,0Z"/><path class="cls-3" d="M128.26,9.7a1.95,1.95,0,1,1-3.89,0"/><line class="cls-3" x1="123.23" y1="9.7" x2="124.37" y2="9.7"/><line class="cls-3" x1="123.33" y1="10.5" x2="124.43" y2="10.21"/><line class="cls-3" x1="123.64" y1="11.25" x2="124.63" y2="10.68"/><line class="cls-3" x1="124.13" y1="11.9" x2="124.94" y2="11.09"/><line class="cls-3" x1="124.77" y1="12.39" x2="125.34" y2="11.4"/><line class="cls-3" x1="125.52" y1="12.7" x2="125.82" y2="11.6"/><line class="cls-3" x1="126.32" y1="12.81" x2="126.32" y2="11.66"/><line class="cls-3" x1="127.13" y1="12.7" x2="126.83" y2="11.6"/><line class="cls-3" x1="127.87" y1="12.39" x2="127.3" y2="11.4"/><line class="cls-3" x1="128.52" y1="11.9" x2="127.71" y2="11.09"/><line class="cls-3" x1="129.01" y1="11.26" x2="128.02" y2="10.69"/><line class="cls-3" x1="129.32" y1="10.51" x2="128.22" y2="10.21"/><line class="cls-3" x1="129.43" y1="9.71" x2="128.29" y2="9.71"/><path class="cls-3" d="M194.21,9.42a1.95,1.95,0,0,1-3.9,0"/><line class="cls-3" x1="189.17" y1="9.42" x2="190.31" y2="9.42"/><line class="cls-3" x1="189.27" y1="10.22" x2="190.38" y2="9.93"/><line class="cls-3" x1="189.58" y1="10.97" x2="190.57" y2="10.4"/><line class="cls-3" x1="190.07" y1="11.61" x2="190.88" y2="10.81"/><line class="cls-3" x1="190.72" y1="12.11" x2="191.29" y2="11.12"/><line class="cls-3" x1="191.46" y1="12.42" x2="191.76" y2="11.31"/><line class="cls-3" x1="192.27" y1="12.52" x2="192.27" y2="11.38"/><line class="cls-3" x1="193.07" y1="12.42" x2="192.77" y2="11.32"/><line class="cls-3" x1="193.82" y1="12.11" x2="193.25" y2="11.12"/><line class="cls-3" x1="194.46" y1="11.62" x2="193.65" y2="10.81"/><line class="cls-3" x1="194.95" y1="10.97" x2="193.96" y2="10.4"/><line class="cls-3" x1="195.26" y1="10.23" x2="194.16" y2="9.93"/><line class="cls-3" x1="195.37" y1="9.42" x2="194.23" y2="9.42"/></g></svg>