<svg xmlns="http://www.w3.org/2000/svg" viewBox="0 0 217.99 85.12"><defs><style>.cls-1{fill:#fff;stroke:#000;stroke-miterlimit:10;stroke-width:2px;opacity:0.9;}</style></defs><title>лого рамка 90</title><g id="Слой_4" data-name="Слой 4"><rect class="cls-1" x="6.74" y="3.56" width="203.5" height="78" rx="12" ry="12"/><path d="M88.87,36.81H75.1a1.17,1.17,0,0,0-.27-.05,1,1,0,0,0-1,1,22.52,22.52,0,1,1-45,0,1,1,0,0,0-1-1H14a1,1,0,0,0,0,2h12.8a24.41,24.41,0,0,0,.58,4.4L15,46.48a1,1,0,0,0,.26,2,1.15,1.15,0,0,0,.26,0L27.92,45.1a25.39,25.39,0,0,0,1.71,4.09L18.52,55.61a1,1,0,0,0,1,1.73l11.12-6.42a25,25,0,0,0,2.71,3.5l-9.09,9.1a1,1,0,0,0,0,1.41,1,1,0,0,0,1.41,0l9.1-9.09a25.53,25.53,0,0,0,3.52,2.68L31.84,69.68a1,1,0,0,0,1.74,1L40,59.51a23.17,23.17,0,0,0,4.08,1.68L40.77,73.67a1,1,0,0,0,.71,1.22,1.09,1.09,0,0,0,.25,0,1,1,0,0,0,1-.75L46,61.7a24.29,24.29,0,0,0,4.38.55v13a1,1,0,0,0,2,0v-13a25,25,0,0,0,4.36-.59L60.14,74.2a1,1,0,0,0,1,.74.75.75,0,0,0,.26,0,1,1,0,0,0,.71-1.22L58.71,61.13a23.27,23.27,0,0,0,4-1.7l6.51,11.28a1,1,0,0,0,1.73-1L64.49,58.42A24.91,24.91,0,0,0,68,55.75L77.18,65a1,1,0,0,0,.71.29,1,1,0,0,0,.7-.29,1,1,0,0,0,0-1.41l-9.22-9.23A25.21,25.21,0,0,0,72,50.85l11.31,6.53a.93.93,0,0,0,.5.14,1,1,0,0,0,.5-1.87L73,49.12a24.41,24.41,0,0,0,1.69-4l12.61,3.38a1.09,1.09,0,0,0,.26,0,1,1,0,0,0,.25-2L75.23,43.15a24.78,24.78,0,0,0,.58-4.34H88.87a1,1,0,0,0,0-2Z"/><path d="M36.25,16.65c0-3.61,1.87-4.74,4.73-4.74H54.45c9.61,0,12.18,5.28,12.18,9.86,0,3.85-2.27,7.65-6.12,8.53v.1c4.14.6,4.88,3.6,4.88,7.2,0,4.1,1.09,5.62,1.09,7.3,0,1.88-1.92,3.16-3.8,3.16-4.44,0-4.78-4.29-4.78-5.72,0-6.22-1.14-8.73-5.58-8.73h-8V44a3.81,3.81,0,0,1-4.05,4.05,3.81,3.81,0,0,1-4-4.05Zm8.09,11h8.08c3.06,0,6.12-.79,6.12-4.78,0-3.8-2.32-4.79-5.87-4.79H44.34Z"/><path d="M75,15.83c0-1.95,1-2.57,2.57-2.57H87.91c1.29,0,2.22.38,2.22,1.77s-.93,1.77-2.22,1.77H79.42V21h7.45c1.15,0,2.06.32,2.06,1.69s-.91,1.68-2.06,1.68H79.42V29h8.7c1.29,0,2.23.37,2.23,1.76s-.94,1.77-2.23,1.77H77.59C76,32.55,75,31.94,75,30Z"/><path d="M103.37,21.38c4,.91,5,3.3,5,5.55,0,3.48-2.62,6.08-7.93,6.08-5.57,0-8.06-2.79-8.06-4.88a1.76,1.76,0,0,1,1.85-1.82c2.38,0,1.77,3.48,6.21,3.48,2.28,0,3.54-1.26,3.54-2.54,0-.78-.37-1.64-1.88-2L97.18,24c-4-1-4.72-3.22-4.72-5.28,0-4.29,4-5.89,7.69-5.89,3.43,0,7.48,1.92,7.48,4.5a1.82,1.82,0,0,1-2,1.74c-2,0-1.66-2.87-5.76-2.87-2,0-3.16.94-3.16,2.28s1.6,1.77,3,2.09Z"/><path d="M111.54,15.48c0-1.82.88-2.57,2.76-2.57a2.4,2.4,0,0,1,2.19,1.16l7.69,12.4h.06V15a2.12,2.12,0,1,1,4.23,0V30.17c0,1.74-.75,2.73-2.6,2.73-1.39,0-1.85-.29-2.41-1.18l-7.64-12h0V30.78a2.12,2.12,0,1,1-4.23,0Z"/><path d="M132.19,20.15a2,2,0,1,1,3.91,0V31a2,2,0,0,1-3.91,0Z"/><path d="M148.72,12.81c5,0,7.8,3.16,7.8,5a1.79,1.79,0,0,1-2,2c-2.55,0-1.8-3.49-5.82-3.49-2.76,0-5,2.39-5,6.57,0,3.51,1.39,6.56,5.19,6.56,3.46,0,3.38-3.7,5.5-3.7a1.93,1.93,0,0,1,2.14,1.69c0,2.79-3.38,5.55-7.64,5.55-6,0-9.59-3.46-9.59-10.1C139.29,17.47,142.51,12.81,148.72,12.81Z"/><path d="M159.25,15.11a2.2,2.2,0,1,1,4.39,0v5.47h8V15.11a2.2,2.2,0,1,1,4.39,0V30.7a2.2,2.2,0,1,1-4.39,0V24.27h-8V30.7a2.2,2.2,0,1,1-4.39,0Z"/><path d="M180.09,15.11a2.2,2.2,0,0,1,4.4,0v6.38l6.91-7.61a2.31,2.31,0,0,1,1.74-1,1.92,1.92,0,0,1,2.09,1.77,2.07,2.07,0,0,1-.72,1.5L190,20.92,195.34,29a3.73,3.73,0,0,1,.83,1.74,2,2,0,0,1-2.25,2.12,2,2,0,0,1-2-1.15l-5.06-7.82-2.41,2.41V30.7a2.2,2.2,0,0,1-4.4,0Z"/><path d="M198.17,20.15a2,2,0,0,1,3.92,0V31a2,2,0,0,1-3.92,0Z"/><path d="M137.29,13.52a.25.25,0,0,0,.25-.25.25.25,0,0,0-.25-.25h-1.16a.25.25,0,0,0-.25.25,1.7,1.7,0,1,1-3.4,0,.25.25,0,0,0-.25-.25h-1.14a.25.25,0,0,0,0,.5H132a.22.22,0,0,1,0,.08l-.88.23a.25.25,0,0,0-.18.31.25.25,0,0,0,.24.18h.07l.88-.23s0,0,0,.07l-.78.45a.27.27,0,0,0-.1.35.26.26,0,0,0,.22.12.31.31,0,0,0,.13,0l.79-.46.05.06-.65.65a.24.24,0,0,0,0,.35.23.23,0,0,0,.17.07.24.24,0,0,0,.18-.07l.65-.65.06,0-.46.79a.25.25,0,0,0,.09.34.2.2,0,0,0,.13,0,.24.24,0,0,0,.21-.13l.46-.79.07,0-.24.89a.26.26,0,0,0,.18.31h.06a.28.28,0,0,0,.25-.19l.23-.89h.08v.93a.25.25,0,0,0,.25.25.25.25,0,0,0,.25-.25v-.93h.07l.24.89a.26.26,0,0,0,.24.19h.06a.25.25,0,0,0,.18-.31L135,15.3l.07,0,.46.8a.26.26,0,0,0,.22.13l.12,0a.26.26,0,0,0,.09-.35l-.46-.8,0,0,.66.66a.24.24,0,0,0,.36,0,.26.26,0,0,0,0-.35l-.67-.66.05-.06.81.47a.27.27,0,0,0,.12,0,.25.25,0,0,0,.22-.12.25.25,0,0,0-.09-.34l-.81-.47,0-.06.9.24h.06a.26.26,0,0,0,.24-.19.24.24,0,0,0-.17-.3l-.91-.25a.13.13,0,0,0,0-.06Z"/><path d="M203.23,13.23a.25.25,0,0,0,0-.5h-1.16a.25.25,0,0,0-.25.25,1.7,1.7,0,1,1-3.4,0,.25.25,0,0,0-.25-.25H197a.25.25,0,0,0,0,.5H198v.07l-.88.24a.26.26,0,0,0-.18.31.25.25,0,0,0,.25.18h.06l.88-.23,0,.07-.79.45a.25.25,0,0,0,.12.47.28.28,0,0,0,.13,0l.79-.46,0,.05-.65.65a.25.25,0,0,0,0,.36.24.24,0,0,0,.18.07.23.23,0,0,0,.17-.07l.65-.65.06,0-.46.8a.25.25,0,0,0,.09.34.31.31,0,0,0,.13,0,.24.24,0,0,0,.21-.12l.46-.79.07,0-.24.89a.27.27,0,0,0,.18.31h.07a.26.26,0,0,0,.24-.19l.24-.89h.07v.93a.25.25,0,0,0,.5,0v-.93h.07l.24.9a.26.26,0,0,0,.24.19H201a.25.25,0,0,0,.17-.31l-.24-.89.07,0,.46.8a.26.26,0,0,0,.22.13.19.19,0,0,0,.12,0,.26.26,0,0,0,.1-.34l-.47-.81,0,0,.66.66a.26.26,0,0,0,.18.07.25.25,0,0,0,.18-.42l-.66-.66,0-.06.81.47a.27.27,0,0,0,.12,0,.25.25,0,0,0,.22-.12.25.25,0,0,0-.09-.34l-.8-.47s0,0,0-.06l.9.24h.07a.25.25,0,0,0,.24-.18.27.27,0,0,0-.18-.31l-.9-.24v-.07Z"/></g></svg>