<svg xmlns="http://www.w3.org/2000/svg" viewBox="0 0 217.99 85.12"><defs><style>.cls-1{fill:#fff;opacity:0.6;}</style></defs><title>голо с подложкой 2</title><g id="Слой_4" data-name="Слой 4"><path class="cls-1" d="M108.28,42.22a12,12,0,0,0-12,12L96.42,70a12,12,0,0,1-12,12H21.1a12,12,0,0,1-12-12V16a12,12,0,0,1,12-12H196.89a12,12,0,0,1,12,12V30.23a12,12,0,0,1-12,12Z"/><path d="M160.27,15.57a2.2,2.2,0,1,1,4.39,0V21h8V15.57a2.2,2.2,0,1,1,4.39,0V31.16a2.2,2.2,0,1,1-4.39,0V24.73h-8v6.43a2.2,2.2,0,1,1-4.39,0Z"/><path d="M181.11,15.57a2.2,2.2,0,1,1,4.39,0v6.37l6.92-7.61a2.33,2.33,0,0,1,1.74-1,1.92,1.92,0,0,1,2.09,1.77,2.09,2.09,0,0,1-.72,1.5L191,21.38l5.34,8.12a3.73,3.73,0,0,1,.83,1.74,2,2,0,0,1-2.25,2.12,2,2,0,0,1-2-1.15l-5.06-7.83-2.42,2.41v4.37a2.2,2.2,0,1,1-4.39,0Z"/><path d="M199.19,20.6a2,2,0,0,1,3.91,0V31.4a2,2,0,1,1-3.91,0Z"/><path d="M52.33,62.73A24.55,24.55,0,0,1,27.81,38.22a1,1,0,0,1,2,0,22.52,22.52,0,0,0,45,0,1,1,0,0,1,2,0A24.55,24.55,0,0,1,52.33,62.73Z"/><path d="M28.81,39.22H15a1,1,0,0,1,0-2H28.81a1,1,0,1,1,0,2Z"/><path d="M16.31,48.9a1,1,0,0,1-.26-2l13.3-3.57a1,1,0,0,1,1.23.71,1,1,0,0,1-.71,1.22l-13.3,3.57Z"/><path d="M20,57.93a1,1,0,0,1-.5-1.87l11.93-6.88a1,1,0,0,1,1.37.36,1,1,0,0,1-.37,1.37L20.54,57.8A1,1,0,0,1,20,57.93Z"/><path d="M26,65.68a1,1,0,0,1-.7-.29,1,1,0,0,1,0-1.41L35,54.24a1,1,0,0,1,1.41,1.41l-9.74,9.74A1,1,0,0,1,26,65.68Z"/><path d="M33.73,71.64a1,1,0,0,1-.5-.14,1,1,0,0,1-.37-1.36l6.89-11.93a1,1,0,1,1,1.73,1L34.59,71.14A1,1,0,0,1,33.73,71.64Z"/><path d="M42.75,75.38l-.26,0a1,1,0,0,1-.7-1.23l3.56-13.3a1,1,0,1,1,1.93.52l-3.56,13.3A1,1,0,0,1,42.75,75.38Z"/><path d="M52.44,76.66a1,1,0,0,1-1-1V61.89a1,1,0,0,1,2,0V75.66A1,1,0,0,1,52.44,76.66Z"/><path d="M62.12,75.4a1,1,0,0,1-1-.75l-3.57-13.3a1,1,0,0,1,.71-1.22,1,1,0,0,1,1.22.7l3.57,13.31a1,1,0,0,1-.71,1.22A.75.75,0,0,1,62.12,75.4Z"/><path d="M71.15,71.66a1,1,0,0,1-.87-.5L63.4,59.23a1,1,0,0,1,.36-1.36,1,1,0,0,1,1.37.36L72,70.16a1,1,0,0,1-.87,1.5Z"/><path d="M78.91,65.72a1,1,0,0,1-.71-.29l-9.74-9.74a1,1,0,0,1,0-1.42,1,1,0,0,1,1.41,0L79.61,64a1,1,0,0,1-.7,1.71Z"/><path d="M84.86,58a1,1,0,0,1-.5-.14L72.43,51a1,1,0,0,1-.37-1.36,1,1,0,0,1,1.37-.37l11.93,6.89a1,1,0,0,1-.5,1.87Z"/><path d="M88.6,49l-.26,0L75,45.35a1,1,0,1,1,.52-1.93L88.86,47a1,1,0,0,1-.26,2Z"/><path d="M89.88,39.27H76.11a1,1,0,0,1,0-2H89.88a1,1,0,0,1,0,2Z"/><path d="M37.27,17.1c0-3.6,1.87-4.73,4.73-4.73H55.46c9.62,0,12.18,5.27,12.18,9.86,0,3.85-2.26,7.64-6.11,8.53v.1c4.14.59,4.88,3.6,4.88,7.2,0,4.09,1.09,5.62,1.09,7.3,0,1.87-1.93,3.15-3.8,3.15-4.44,0-4.78-4.29-4.78-5.71,0-6.22-1.14-8.73-5.58-8.73h-8v10.4a3.8,3.8,0,0,1-4,4,3.8,3.8,0,0,1-4-4Zm8.08,11h8.09c3.06,0,6.12-.79,6.12-4.79,0-3.79-2.32-4.78-5.87-4.78H45.35Z"/><path d="M76,16.29c0-2,1-2.57,2.57-2.57H88.93c1.28,0,2.22.37,2.22,1.77s-.94,1.76-2.22,1.76h-8.5v4.19h7.45c1.16,0,2.07.32,2.07,1.68s-.91,1.69-2.07,1.69H80.43v4.66h8.71c1.29,0,2.23.38,2.23,1.77S90.43,33,89.14,33H78.61C77.06,33,76,32.39,76,30.44Z"/><path d="M104.38,21.84c4,.91,5,3.29,5,5.54,0,3.49-2.62,6.09-7.93,6.09-5.57,0-8.06-2.79-8.06-4.88a1.76,1.76,0,0,1,1.84-1.82c2.39,0,1.77,3.48,6.22,3.48,2.28,0,3.54-1.26,3.54-2.54,0-.78-.38-1.64-1.88-2l-5-1.26c-4-1-4.72-3.22-4.72-5.28,0-4.29,4-5.9,7.69-5.9,3.43,0,7.48,1.93,7.48,4.5a1.83,1.83,0,0,1-2,1.75c-2,0-1.67-2.87-5.77-2.87-2,0-3.16.94-3.16,2.28s1.61,1.76,3,2.09Z"/><path d="M112.55,15.94c0-1.82.89-2.57,2.76-2.57a2.43,2.43,0,0,1,2.2,1.15l7.69,12.41h0V15.49a2.12,2.12,0,0,1,4.24,0V30.63c0,1.74-.75,2.73-2.6,2.73a2.28,2.28,0,0,1-2.41-1.18l-7.64-12.06h0V31.24a2.12,2.12,0,0,1-4.24,0Z"/><path d="M133.21,20.6a2,2,0,0,1,3.91,0V31.4a2,2,0,1,1-3.91,0Z"/><path d="M149.74,13.26c5,0,7.8,3.16,7.8,5a1.79,1.79,0,0,1-2,2c-2.55,0-1.8-3.48-5.82-3.48-2.76,0-5,2.38-5,6.56,0,3.51,1.4,6.57,5.2,6.57,3.46,0,3.38-3.7,5.49-3.7a1.93,1.93,0,0,1,2.15,1.69c0,2.79-3.38,5.55-7.64,5.55-6,0-9.59-3.46-9.59-10.11C140.31,17.92,143.52,13.26,149.74,13.26Z"/><path d="M135.2,15.79a2.08,2.08,0,0,1-2.08-2.07.13.13,0,0,1,.13-.13.12.12,0,0,1,.12.13,1.83,1.83,0,0,0,3.65,0,.12.12,0,0,1,.12-.13.13.13,0,0,1,.13.13A2.07,2.07,0,0,1,135.2,15.79Z"/><path d="M133.25,13.84h-1.14a.12.12,0,0,1-.13-.12.13.13,0,0,1,.13-.13h1.14a.12.12,0,0,1,.12.13A.12.12,0,0,1,133.25,13.84Z"/><path d="M132.21,14.64a.12.12,0,0,1-.12-.09.12.12,0,0,1,.09-.15l1.1-.3a.13.13,0,0,1,.06.25l-1.1.29Z"/><path d="M132.52,15.39a.13.13,0,0,1-.11-.06.13.13,0,0,1,.05-.17l1-.57a.12.12,0,0,1,.17.05.13.13,0,0,1-.05.17l-1,.57Z"/><path d="M133,16a.18.18,0,0,1-.09,0,.13.13,0,0,1,0-.18l.81-.8a.13.13,0,0,1,.18,0,.11.11,0,0,1,0,.17l-.81.81A.15.15,0,0,1,133,16Z"/><path d="M133.65,16.53l-.06,0a.12.12,0,0,1,0-.17l.57-1a.12.12,0,1,1,.21.13l-.57,1A.11.11,0,0,1,133.65,16.53Z"/><path d="M134.4,16.84h0a.13.13,0,0,1-.09-.16l.3-1.1a.11.11,0,0,1,.15-.09.12.12,0,0,1,.09.15l-.3,1.11A.12.12,0,0,1,134.4,16.84Z"/><path d="M135.2,17a.13.13,0,0,1-.12-.13V15.68a.13.13,0,0,1,.12-.13.13.13,0,0,1,.13.13v1.14A.13.13,0,0,1,135.2,17Z"/><path d="M136,16.84a.12.12,0,0,1-.12-.09l-.3-1.11a.12.12,0,1,1,.24-.06l.3,1.1a.13.13,0,0,1-.09.16Z"/><path d="M136.75,16.53a.11.11,0,0,1-.1-.06l-.57-1a.12.12,0,0,1,0-.17.13.13,0,0,1,.17,0l.57,1a.12.12,0,0,1,0,.17Z"/><path d="M137.4,16a.11.11,0,0,1-.09,0l-.81-.8a.13.13,0,0,1,.18-.18l.81.8a.15.15,0,0,1,0,.18A.12.12,0,0,1,137.4,16Z"/><path d="M137.89,15.4l-.06,0-1-.57a.13.13,0,0,1-.05-.17.13.13,0,0,1,.17-.05l1,.57a.13.13,0,0,1,.05.17A.14.14,0,0,1,137.89,15.4Z"/><path d="M138.2,14.65h0l-1.1-.3a.12.12,0,1,1,.06-.24l1.1.29a.13.13,0,0,1,.09.16A.12.12,0,0,1,138.2,14.65Z"/><path d="M138.31,13.85h-1.14a.13.13,0,0,1-.13-.13.12.12,0,0,1,.13-.12h1.14a.12.12,0,0,1,.12.12A.12.12,0,0,1,138.31,13.85Z"/><path d="M201.14,15.51a2.08,2.08,0,0,1-2.08-2.08.13.13,0,0,1,.13-.12.12.12,0,0,1,.12.12,1.83,1.83,0,1,0,3.65,0,.13.13,0,0,1,.13-.12.12.12,0,0,1,.12.12A2.08,2.08,0,0,1,201.14,15.51Z"/><path d="M199.19,13.56h-1.14a.13.13,0,0,1-.13-.13.13.13,0,0,1,.13-.12h1.14a.12.12,0,0,1,.12.12A.12.12,0,0,1,199.19,13.56Z"/><path d="M198.15,14.36a.13.13,0,0,1-.12-.09.12.12,0,0,1,.09-.15l1.1-.3a.13.13,0,1,1,.07.24l-1.1.3Z"/><path d="M198.46,15.11a.14.14,0,0,1-.11-.06.13.13,0,0,1,.05-.17l1-.57a.12.12,0,0,1,.17,0,.13.13,0,0,1-.05.17l-1,.57Z"/><path d="M199,15.75a.11.11,0,0,1-.08,0,.13.13,0,0,1,0-.18l.8-.81a.13.13,0,1,1,.18.18l-.81.81A.12.12,0,0,1,199,15.75Z"/><path d="M199.6,16.25l-.07,0a.12.12,0,0,1,0-.17l.57-1a.13.13,0,0,1,.17-.05.14.14,0,0,1,.05.18l-.58,1A.12.12,0,0,1,199.6,16.25Z"/><path d="M200.34,16.56h0a.13.13,0,0,1-.09-.15l.3-1.1a.12.12,0,1,1,.24.06l-.3,1.1A.12.12,0,0,1,200.34,16.56Z"/><path d="M201.15,16.66a.12.12,0,0,1-.13-.12V15.4a.13.13,0,0,1,.13-.13.12.12,0,0,1,.12.13v1.14A.12.12,0,0,1,201.15,16.66Z"/><path d="M202,16.56a.12.12,0,0,1-.12-.09l-.3-1.11a.12.12,0,0,1,.09-.15.11.11,0,0,1,.15.09l.3,1.1a.11.11,0,0,1-.09.15Z"/><path d="M202.7,16.25a.11.11,0,0,1-.11-.06l-.57-1a.12.12,0,0,1,.21-.13l.58,1a.13.13,0,0,1-.05.17Z"/><path d="M203.34,15.76a.18.18,0,0,1-.09,0l-.81-.81a.14.14,0,0,1,0-.17.13.13,0,0,1,.18,0l.81.8a.13.13,0,0,1,0,.18A.18.18,0,0,1,203.34,15.76Z"/><path d="M203.83,15.11h-.06l-1-.57a.12.12,0,0,1,0-.17.13.13,0,0,1,.17,0l1,.57a.13.13,0,0,1,0,.17A.11.11,0,0,1,203.83,15.11Z"/><path d="M204.14,14.37h0l-1.1-.29a.13.13,0,0,1-.09-.16.12.12,0,0,1,.15-.08l1.11.29a.12.12,0,0,1,.08.15A.12.12,0,0,1,204.14,14.37Z"/><path d="M204.25,13.56h-1.14a.12.12,0,0,1-.13-.12.13.13,0,0,1,.13-.13h1.14a.12.12,0,0,1,.12.13A.12.12,0,0,1,204.25,13.56Z"/></g></svg>