<svg xmlns="http://www.w3.org/2000/svg" xmlns:xlink="http://www.w3.org/1999/xlink" viewBox="0 0 181.17 37.42"><defs><style>.cls-1{fill:url(#Безымянный_градиент_42);}.cls-2{fill:#fff;}.cls-3{fill:none;stroke:#fff;stroke-linecap:round;stroke-linejoin:round;}</style><linearGradient id="Безымянный_градиент_42" x1="12.48" y1="52.77" x2="159.24" y2="-11.23" gradientUnits="userSpaceOnUse"><stop offset="0" stop-color="#e5df61"/><stop offset="0.25" stop-color="#78ddbb"/><stop offset="0.5" stop-color="#696dcf"/><stop offset="0.75" stop-color="#ff85c8"/><stop offset="1" stop-color="#cf825b"/></linearGradient></defs><title>Ресурс 2</title><g id="Слой_2" data-name="Слой 2"><g id="Слой_3" data-name="Слой 3"><rect class="cls-1" width="181.17" height="37.42" rx="6.24" ry="6.24"/><path class="cls-2" d="M17,19.91H15.19V28a3.32,3.32,0,0,1-.7,2.34,2.4,2.4,0,0,1-1.83.76,2.34,2.34,0,0,1-1.88-.79A3.48,3.48,0,0,1,10.11,28V8.66a3.23,3.23,0,0,1,.74-2.38,3.25,3.25,0,0,1,2.37-.73h8.27a27,27,0,0,1,2.93.14,7.65,7.65,0,0,1,2.19.59A6.46,6.46,0,0,1,28.7,7.7a6.31,6.31,0,0,1,1.37,2.15,7,7,0,0,1,.48,2.59A6.25,6.25,0,0,1,29,16.93a9.05,9.05,0,0,1-4.8,2.38,9.38,9.38,0,0,1,2.59,2.12,21.23,21.23,0,0,1,2.19,3,21.3,21.3,0,0,1,1.51,2.86A5.62,5.62,0,0,1,31,29a1.78,1.78,0,0,1-.32,1,2.14,2.14,0,0,1-.86.77,2.73,2.73,0,0,1-1.27.29,2.42,2.42,0,0,1-1.43-.41,3.73,3.73,0,0,1-1-1c-.28-.42-.66-1-1.13-1.82l-2-3.39a18.5,18.5,0,0,0-2-2.84,4.82,4.82,0,0,0-1.76-1.33A6,6,0,0,0,17,19.91ZM19.88,9.36H15.19v6.9h4.56a12.34,12.34,0,0,0,3.08-.32,3.6,3.6,0,0,0,1.9-1.07,3.11,3.11,0,0,0,.66-2.1,3.17,3.17,0,0,0-2-3A10.57,10.57,0,0,0,19.88,9.36Z"/><path class="cls-2" d="M51.89,9.47H40.44v6.16H51a2.5,2.5,0,0,1,1.74.52,1.79,1.79,0,0,1,.57,1.38,1.85,1.85,0,0,1-.56,1.39,2.46,2.46,0,0,1-1.75.54H40.44V26.6H52.28a2.57,2.57,0,0,1,1.81.56,1.92,1.92,0,0,1,.61,1.48,1.88,1.88,0,0,1-.61,1.44,2.61,2.61,0,0,1-1.81.56H38.47a3.27,3.27,0,0,1-2.39-.74,3.31,3.31,0,0,1-.73-2.38V8.66a4.21,4.21,0,0,1,.33-1.79,2,2,0,0,1,1-1,4.29,4.29,0,0,1,1.77-.31H51.89a2.58,2.58,0,0,1,1.8.54,1.8,1.8,0,0,1,.59,1.41,1.83,1.83,0,0,1-.59,1.43A2.58,2.58,0,0,1,51.89,9.47Z"/><path class="cls-2" d="M77.8,23.11a7.38,7.38,0,0,1-1.17,4.09A7.84,7.84,0,0,1,73.2,30a12.94,12.94,0,0,1-5.36,1,12,12,0,0,1-6.13-1.41A8.13,8.13,0,0,1,58.93,27a6.17,6.17,0,0,1-1.07-3.28,2.22,2.22,0,0,1,2.28-2.24A2,2,0,0,1,61.5,22a4,4,0,0,1,1,1.52,10.41,10.41,0,0,0,1,2,4.29,4.29,0,0,0,1.57,1.32,5.76,5.76,0,0,0,2.65.52,6,6,0,0,0,3.67-1,3.14,3.14,0,0,0,1.42-2.62,2.77,2.77,0,0,0-.77-2,4.81,4.81,0,0,0-2-1.19,32.62,32.62,0,0,0-3.23-.88,23.37,23.37,0,0,1-4.53-1.48,7.24,7.24,0,0,1-2.89-2.31,6,6,0,0,1-1.07-3.63,6.26,6.26,0,0,1,1.13-3.68A7.08,7.08,0,0,1,62.74,6a13.51,13.51,0,0,1,5-.86,12.57,12.57,0,0,1,4,.57,8.43,8.43,0,0,1,2.8,1.53,6.24,6.24,0,0,1,1.62,2,4.64,4.64,0,0,1,.52,2,2.39,2.39,0,0,1-.65,1.63,2,2,0,0,1-1.6.73,1.83,1.83,0,0,1-1.32-.44,5.86,5.86,0,0,1-1-1.43,6.41,6.41,0,0,0-1.64-2.21,4.82,4.82,0,0,0-3.08-.8,5.41,5.41,0,0,0-3.18.86,2.52,2.52,0,0,0-1.2,2.08,2,2,0,0,0,.41,1.3,3.46,3.46,0,0,0,1.13.95,7.85,7.85,0,0,0,1.45.61c.49.15,1.3.37,2.43.65a37.72,37.72,0,0,1,3.85,1.1,11.7,11.7,0,0,1,2.92,1.45,6.07,6.07,0,0,1,1.89,2.17A6.93,6.93,0,0,1,77.8,23.11Z"/><path class="cls-2" d="M88.74,8.17,98.51,23V8a3.24,3.24,0,0,1,.63-2.18,2.07,2.07,0,0,1,1.68-.73,2.16,2.16,0,0,1,1.73.73A3.24,3.24,0,0,1,103.18,8V27.76q0,3.31-2.73,3.31a3.71,3.71,0,0,1-1.24-.2,3.08,3.08,0,0,1-1-.63,5.42,5.42,0,0,1-.89-1c-.28-.38-.55-.77-.83-1.17L86.94,13.45V28.16a3.12,3.12,0,0,1-.67,2.17,2.36,2.36,0,0,1-3.44,0,3.2,3.2,0,0,1-.65-2.16V8.8a5.35,5.35,0,0,1,.28-1.94,2.65,2.65,0,0,1,1.08-1.25,2.88,2.88,0,0,1,1.62-.49,2.75,2.75,0,0,1,1.17.22,2.89,2.89,0,0,1,.86.6,6.08,6.08,0,0,1,.75,1Z"/><path class="cls-2" d="M113.09,14.72v13.5a3.05,3.05,0,0,1-.66,2.13,2.22,2.22,0,0,1-1.7.72,2.13,2.13,0,0,1-1.67-.74,3.15,3.15,0,0,1-.64-2.11V14.86a3,3,0,0,1,.64-2.09,2.16,2.16,0,0,1,1.67-.7,2.24,2.24,0,0,1,1.7.7A2.74,2.74,0,0,1,113.09,14.72Z"/><path class="cls-2" d="M127.78,28.46V25.28h-8.59a3.52,3.52,0,0,1-2.44-.73,2.6,2.6,0,0,1-.82-2,2,2,0,0,1,.12-.66,3.59,3.59,0,0,1,.36-.7c.16-.24.33-.48.5-.71l.63-.84L126.62,7.5a13.78,13.78,0,0,1,1.46-1.74,1.93,1.93,0,0,1,1.38-.54c1.73,0,2.6,1,2.6,3V21.45h.73a5.22,5.22,0,0,1,2.12.36,1.53,1.53,0,0,1,.79,1.57,1.63,1.63,0,0,1-.65,1.45,3.43,3.43,0,0,1-2,.45h-1v3.18a2.87,2.87,0,0,1-.58,2,2,2,0,0,1-1.56.65,2,2,0,0,1-1.55-.66A2.86,2.86,0,0,1,127.78,28.46Zm-7.36-7h7.36V11.5Z"/><path class="cls-2" d="M144.19,8.2V17l10-10.41a9.09,9.09,0,0,1,1.23-1.11,2.24,2.24,0,0,1,1.34-.36,2.45,2.45,0,0,1,1.77.64,2.09,2.09,0,0,1,.68,1.57A3.13,3.13,0,0,1,158,9.53l-6.18,5.86L159,25.59a13,13,0,0,1,1.13,1.86,3.61,3.61,0,0,1,.38,1.55,1.93,1.93,0,0,1-.66,1.45,2.53,2.53,0,0,1-1.79.62,3,3,0,0,1-1.73-.46,4,4,0,0,1-1.13-1.2L154.36,28l-6-9.25-4.16,4V28a3.27,3.27,0,0,1-.72,2.33,2.41,2.41,0,0,1-1.84.77,2.46,2.46,0,0,1-1.25-.35,2.35,2.35,0,0,1-.93-.92,3.12,3.12,0,0,1-.29-1.11c0-.42,0-1,0-1.83V8.2a3.36,3.36,0,0,1,.68-2.31,2.33,2.33,0,0,1,1.84-.77,2.4,2.4,0,0,1,1.85.76A3.27,3.27,0,0,1,144.19,8.2Z"/><path class="cls-2" d="M169.37,14.72v13.5a3,3,0,0,1-.67,2.13,2.2,2.2,0,0,1-1.69.72,2.11,2.11,0,0,1-1.67-.74,3.1,3.1,0,0,1-.64-2.11V14.86a3,3,0,0,1,.64-2.09,2.15,2.15,0,0,1,1.67-.7,2.22,2.22,0,0,1,1.69.7A2.7,2.7,0,0,1,169.37,14.72Z"/><path class="cls-3" d="M169.38,6a2.12,2.12,0,0,1-.69,1.68,2.33,2.33,0,0,1-1.62.61,2.46,2.46,0,0,1-1.67-.6A2.12,2.12,0,0,1,164.71,6"/><line class="cls-3" x1="164.74" y1="6.42" x2="162.61" y2="6.78"/><line class="cls-3" x1="165.38" y1="7.7" x2="163.86" y2="9.22"/><line class="cls-3" x1="168.72" y1="7.69" x2="170.24" y2="9.21"/><line class="cls-3" x1="169.34" y1="6.46" x2="171.46" y2="6.86"/><line class="cls-3" x1="167.05" y1="8.32" x2="167.05" y2="10.47"/><line class="cls-3" x1="108.45" y1="6.42" x2="106.33" y2="6.78"/><line class="cls-3" x1="109.1" y1="7.7" x2="107.57" y2="9.22"/><line class="cls-3" x1="112.43" y1="7.69" x2="113.96" y2="9.21"/><line class="cls-3" x1="113.05" y1="6.46" x2="115.17" y2="6.86"/><line class="cls-3" x1="110.77" y1="8.32" x2="110.77" y2="10.47"/><path class="cls-3" d="M113.09,6a2.12,2.12,0,0,1-.68,1.68,2.36,2.36,0,0,1-1.63.61,2.48,2.48,0,0,1-1.67-.6A2.12,2.12,0,0,1,108.42,6"/></g></g></svg>