<svg xmlns="http://www.w3.org/2000/svg" viewBox="0 0 155.09 101"><defs><style>.cls-1{fill:none;stroke:#201600;stroke-linecap:round;stroke-miterlimit:10;stroke-width:2px;}</style></defs><title>100</title><g id="Слой_2" data-name="Слой 2"><g id="Слой_4" data-name="Слой 4"><path class="cls-1" d="M125.38,23.4a48.11,48.11,0,1,1-96.21,0"/><line class="cls-1" x1="1" y1="23.4" x2="29.17" y2="23.4"/><line class="cls-1" x1="3.59" y1="43.22" x2="30.81" y2="35.92"/><line class="cls-1" x1="11.23" y1="61.68" x2="35.63" y2="47.6"/><line class="cls-1" x1="23.38" y1="77.54" x2="43.3" y2="57.62"/><line class="cls-1" x1="39.22" y1="89.72" x2="53.31" y2="65.32"/><line class="cls-1" x1="57.68" y1="97.38" x2="64.97" y2="70.16"/><line class="cls-1" x1="77.49" y1="100" x2="77.49" y2="71.83"/><line class="cls-1" x1="97.3" y1="97.41" x2="90.01" y2="70.19"/><line class="cls-1" x1="115.77" y1="89.77" x2="101.68" y2="65.37"/><line class="cls-1" x1="131.63" y1="77.62" x2="111.71" y2="57.7"/><line class="cls-1" x1="143.8" y1="61.78" x2="119.4" y2="47.69"/><line class="cls-1" x1="151.46" y1="43.32" x2="124.25" y2="36.03"/><line class="cls-1" x1="154.09" y1="23.51" x2="125.91" y2="23.51"/><path d="M4.69,3c0-2,1-2.58,2.57-2.58h7.31c5.23,0,6.62,2.87,6.62,5.36a4.61,4.61,0,0,1-3.32,4.64v.05c2.25.32,2.65,2,2.65,3.92,0,2.22.59,3,.59,4a1.94,1.94,0,0,1-2.06,1.72c-2.41,0-2.6-2.34-2.6-3.11,0-3.38-.62-4.74-3-4.74H9.08V17.9a2.07,2.07,0,0,1-2.2,2.2,2.07,2.07,0,0,1-2.19-2.2ZM9.08,9h4.39c1.66,0,3.33-.43,3.33-2.6s-1.26-2.6-3.19-2.6H9.08Z"/><path d="M24.64,3c0-2,1-2.58,2.58-2.58H37.53c1.29,0,2.23.38,2.23,1.77S38.82,4,37.53,4H29V8.17h7.45c1.15,0,2.06.32,2.06,1.69s-.91,1.69-2.06,1.69H29v4.66h8.71C39,16.21,40,16.59,40,18s-.94,1.77-2.22,1.77H27.22c-1.56,0-2.58-.62-2.58-2.57Z"/><path d="M53,8.57c4,.91,5,3.3,5,5.55,0,3.48-2.63,6.08-7.93,6.08-5.58,0-8.07-2.78-8.07-4.87a1.77,1.77,0,0,1,1.85-1.83c2.38,0,1.77,3.49,6.22,3.49,2.27,0,3.53-1.26,3.53-2.55,0-.77-.37-1.63-1.87-2l-5-1.26c-4-1-4.72-3.21-4.72-5.28,0-4.28,4-5.89,7.69-5.89,3.43,0,7.48,1.93,7.48,4.5a1.82,1.82,0,0,1-2,1.74c-2,0-1.66-2.86-5.76-2.86-2,0-3.16.93-3.16,2.27s1.6,1.77,3,2.09Z"/><path d="M61.16,2.68C61.16.86,62,.11,63.92.11a2.4,2.4,0,0,1,2.19,1.15L73.8,13.67h.06V2.22a2.12,2.12,0,0,1,4.23,0V17.36c0,1.74-.75,2.74-2.6,2.74a2.28,2.28,0,0,1-2.41-1.18L65.44,6.86h0V18a2.12,2.12,0,1,1-4.23,0Z"/><path d="M83.77,0a2,2,0,1,1-2,2A2,2,0,0,1,83.77,0Zm-2,7.34a2,2,0,0,1,3.91,0v10.8a2,2,0,1,1-3.91,0Z"/><path d="M98.34,0c5,0,7.8,3.16,7.8,5a1.79,1.79,0,0,1-2,2c-2.55,0-1.8-3.48-5.82-3.48-2.76,0-5,2.38-5,6.56,0,3.51,1.39,6.57,5.2,6.57,3.45,0,3.37-3.7,5.49-3.7a1.92,1.92,0,0,1,2.14,1.69c0,2.78-3.37,5.54-7.63,5.54-6,0-9.6-3.45-9.6-10.1C88.91,4.66,92.13,0,98.34,0Z"/><path d="M108.87,2.3a2.2,2.2,0,0,1,4.39,0V7.77h8V2.3a2.2,2.2,0,0,1,4.39,0V17.9a2.2,2.2,0,1,1-4.39,0V11.47h-8V17.9a2.2,2.2,0,1,1-4.39,0Z"/><path d="M129.71,2.3a2.2,2.2,0,0,1,4.4,0V8.68L141,1.07a2.34,2.34,0,0,1,1.74-1,1.91,1.91,0,0,1,2.09,1.76,2.1,2.1,0,0,1-.72,1.51l-4.5,4.74L145,16.24a3.69,3.69,0,0,1,.83,1.74,2,2,0,0,1-2.25,2.12,2,2,0,0,1-2-1.16l-5.06-7.82-2.41,2.41V17.9a2.2,2.2,0,0,1-4.4,0Z"/><path d="M149.75,0a2,2,0,1,1-2,2A2,2,0,0,1,149.75,0ZM147.8,7.34a2,2,0,0,1,3.91,0v10.8a2,2,0,1,1-3.91,0Z"/></g></g></svg>