<svg xmlns="http://www.w3.org/2000/svg" viewBox="0 0 217.99 85.12"><defs><style>.cls-1{fill:#fff;opacity:0.5;}</style></defs><title>голо с подложкой 2</title><g id="Слой_4" data-name="Слой 4"><rect class="cls-1" x="9" y="3.56" width="200" height="78" rx="12" ry="12"/><path d="M51.84,62.28A24.55,24.55,0,0,1,27.32,37.76a1,1,0,0,1,2,0,22.52,22.52,0,0,0,45,0,1,1,0,0,1,2,0A24.55,24.55,0,0,1,51.84,62.28Z"/><path d="M28.32,38.76H14.55a1,1,0,0,1,0-2H28.32a1,1,0,0,1,0,2Z"/><path d="M15.82,48.44a1,1,0,0,1-.26-2l13.3-3.57a1,1,0,0,1,.52,1.94L16.07,48.41A1.07,1.07,0,0,1,15.82,48.44Z"/><path d="M19.55,57.47a1,1,0,0,1-.87-.5,1,1,0,0,1,.37-1.36L31,48.72a1,1,0,0,1,1,1.73L20.05,57.34A1,1,0,0,1,19.55,57.47Z"/><path d="M25.49,65.23a1,1,0,0,1-.71-1.71l9.74-9.74a1,1,0,0,1,1.42,0,1,1,0,0,1,0,1.41L26.2,64.93A1,1,0,0,1,25.49,65.23Z"/><path d="M33.24,71.18a1,1,0,0,1-.5-.13,1,1,0,0,1-.37-1.37l6.89-11.93a1,1,0,0,1,1.73,1L34.1,70.68A1,1,0,0,1,33.24,71.18Z"/><path d="M42.26,74.93a1.17,1.17,0,0,1-.26,0,1,1,0,0,1-.71-1.22l3.57-13.31a1,1,0,1,1,1.93.52l-3.56,13.3A1,1,0,0,1,42.26,74.93Z"/><path d="M51.94,76.21a1,1,0,0,1-1-1V61.43a1,1,0,0,1,2,0V75.21A1,1,0,0,1,51.94,76.21Z"/><path d="M61.63,74.94a1,1,0,0,1-1-.74L57.1,60.89A1,1,0,0,1,59,60.37L62.6,73.68a1,1,0,0,1-.71,1.22A.78.78,0,0,1,61.63,74.94Z"/><path d="M70.66,71.21a1,1,0,0,1-.87-.5L62.91,58.78a1,1,0,1,1,1.73-1l6.88,11.93a1,1,0,0,1-.36,1.36A1,1,0,0,1,70.66,71.21Z"/><path d="M78.41,65.26a1,1,0,0,1-.7-.29L68,55.23a1,1,0,0,1,1.41-1.41l9.74,9.74a1,1,0,0,1,0,1.41A1,1,0,0,1,78.41,65.26Z"/><path d="M84.36,57.52a.89.89,0,0,1-.49-.14L71.94,50.5a1,1,0,1,1,1-1.73l11.93,6.88A1,1,0,0,1,85.23,57,1,1,0,0,1,84.36,57.52Z"/><path d="M88.11,48.5a1.27,1.27,0,0,1-.26,0L74.55,44.9A1,1,0,0,1,75.06,43l13.31,3.57a1,1,0,0,1-.26,2Z"/><path d="M89.39,38.81H75.62a1,1,0,0,1,0-2H89.39a1,1,0,0,1,0,2Z"/><path d="M36.78,16.65c0-3.61,1.87-4.74,4.73-4.74H55c9.62,0,12.18,5.28,12.18,9.86,0,3.85-2.27,7.65-6.11,8.53v.1c4.14.6,4.88,3.6,4.88,7.2,0,4.1,1.08,5.62,1.08,7.3,0,1.88-1.92,3.16-3.79,3.16-4.44,0-4.79-4.29-4.79-5.72,0-6.22-1.13-8.73-5.57-8.73h-8V44a3.81,3.81,0,0,1-4,4.05,3.8,3.8,0,0,1-4-4.05Zm8.08,11H53c3.06,0,6.12-.79,6.12-4.78,0-3.8-2.32-4.79-5.87-4.79H44.86Z"/><path d="M75.55,15.83c0-1.95,1-2.57,2.57-2.57H88.44c1.28,0,2.22.38,2.22,1.77s-.94,1.77-2.22,1.77h-8.5V21h7.45c1.15,0,2.06.32,2.06,1.69s-.91,1.68-2.06,1.68H79.94V29h8.71c1.29,0,2.22.37,2.22,1.76s-.93,1.77-2.22,1.77H78.12c-1.55,0-2.57-.61-2.57-2.57Z"/><path d="M103.89,21.38c4,.91,5,3.3,5,5.55,0,3.48-2.63,6.08-7.93,6.08-5.57,0-8.07-2.79-8.07-4.88a1.77,1.77,0,0,1,1.85-1.82c2.39,0,1.77,3.48,6.22,3.48,2.28,0,3.54-1.26,3.54-2.54,0-.78-.38-1.64-1.88-2L97.7,24c-4-1-4.71-3.22-4.71-5.28,0-4.29,4-5.89,7.69-5.89,3.43,0,7.47,1.92,7.47,4.5a1.82,1.82,0,0,1-2,1.74c-2,0-1.66-2.87-5.76-2.87-2,0-3.16.94-3.16,2.28s1.61,1.77,3,2.09Z"/><path d="M112.06,15.48c0-1.82.89-2.57,2.76-2.57a2.42,2.42,0,0,1,2.2,1.16l7.69,12.4h.05V15A2.12,2.12,0,0,1,129,15V30.17c0,1.74-.75,2.73-2.6,2.73-1.4,0-1.85-.29-2.41-1.18l-7.64-12h-.06V30.78a2.12,2.12,0,1,1-4.23,0Z"/><path d="M132.72,20.15a2,2,0,1,1,3.91,0V31a2,2,0,0,1-3.91,0Z"/><path d="M149.25,12.81c5,0,7.8,3.16,7.8,5a1.8,1.8,0,0,1-2,2c-2.54,0-1.79-3.49-5.81-3.49-2.76,0-5,2.39-5,6.57,0,3.51,1.39,6.56,5.2,6.56,3.46,0,3.38-3.7,5.49-3.7,1.07,0,2.15.62,2.15,1.69,0,2.79-3.38,5.55-7.64,5.55-6,0-9.59-3.46-9.59-10.1C139.82,17.47,143,12.81,149.25,12.81Z"/><path d="M159.77,15.11a2.2,2.2,0,1,1,4.4,0v5.47h8V15.11a2.2,2.2,0,0,1,4.4,0V30.7a2.2,2.2,0,0,1-4.4,0V24.27h-8V30.7a2.2,2.2,0,1,1-4.4,0Z"/><path d="M180.62,15.11a2.2,2.2,0,1,1,4.39,0v6.38l6.91-7.61a2.33,2.33,0,0,1,1.75-1,1.92,1.92,0,0,1,2.09,1.77,2,2,0,0,1-.73,1.5l-4.5,4.74L195.86,29a3.64,3.64,0,0,1,.83,1.74,2,2,0,0,1-2.25,2.12,2,2,0,0,1-1.95-1.15l-5.07-7.82L185,26.34V30.7a2.2,2.2,0,1,1-4.39,0Z"/><path d="M198.7,20.15a2,2,0,1,1,3.91,0V31a2,2,0,0,1-3.91,0Z"/><path d="M134.7,15.46a2.21,2.21,0,0,1-2.2-2.2.25.25,0,0,1,.25-.25.25.25,0,0,1,.25.25,1.7,1.7,0,0,0,3.4,0,.25.25,0,1,1,.5,0A2.2,2.2,0,0,1,134.7,15.46Z"/><path d="M132.75,13.51h-1.14a.25.25,0,0,1,0-.5h1.14a.25.25,0,0,1,0,.5Z"/><path d="M131.72,14.31a.25.25,0,0,1-.07-.49l1.11-.29a.24.24,0,0,1,.3.17.25.25,0,0,1-.17.31l-1.11.29Z"/><path d="M132,15.06a.25.25,0,0,1-.22-.12.26.26,0,0,1,.09-.35l1-.57a.25.25,0,0,1,.34.1.25.25,0,0,1-.09.34l-1,.57A.27.27,0,0,1,132,15.06Z"/><path d="M132.52,15.7a.26.26,0,0,1-.18-.07.26.26,0,0,1,0-.35l.81-.81a.25.25,0,0,1,.35.35l-.8.81A.26.26,0,0,1,132.52,15.7Z"/><path d="M133.16,16.2a.19.19,0,0,1-.12,0,.25.25,0,0,1-.09-.34l.57-1a.25.25,0,1,1,.43.25l-.57,1A.26.26,0,0,1,133.16,16.2Z"/><path d="M133.91,16.51h-.07a.25.25,0,0,1-.17-.31l.29-1.1a.25.25,0,1,1,.49.13l-.3,1.1A.26.26,0,0,1,133.91,16.51Z"/><path d="M134.71,16.61a.25.25,0,0,1-.25-.25V15.22a.25.25,0,1,1,.5,0v1.14A.25.25,0,0,1,134.71,16.61Z"/><path d="M135.51,16.51a.26.26,0,0,1-.24-.19l-.29-1.1a.25.25,0,0,1,.17-.31.26.26,0,0,1,.31.18l.3,1.1a.26.26,0,0,1-.18.31Z"/><path d="M136.26,16.2a.24.24,0,0,1-.21-.13l-.57-1a.25.25,0,1,1,.43-.25l.57,1a.26.26,0,0,1-.09.35A.31.31,0,0,1,136.26,16.2Z"/><path d="M136.9,15.71a.25.25,0,0,1-.17-.08l-.81-.8a.25.25,0,0,1,0-.36.26.26,0,0,1,.35,0l.81.81a.24.24,0,0,1,0,.35A.25.25,0,0,1,136.9,15.71Z"/><path d="M137.4,15.06a.31.31,0,0,1-.13,0l-1-.57a.25.25,0,1,1,.25-.43l1,.57a.25.25,0,0,1,.09.34A.24.24,0,0,1,137.4,15.06Z"/><path d="M137.71,14.32h-.07l-1.1-.3a.25.25,0,1,1,.13-.48l1.1.3a.24.24,0,0,1,.18.3A.26.26,0,0,1,137.71,14.32Z"/><path d="M137.81,13.52h-1.14a.25.25,0,0,1-.25-.25.25.25,0,0,1,.25-.25h1.14a.25.25,0,0,1,.25.25A.25.25,0,0,1,137.81,13.52Z"/><path d="M200.65,15.18a2.2,2.2,0,0,1-2.2-2.2.25.25,0,0,1,.25-.25A.25.25,0,0,1,199,13a1.7,1.7,0,1,0,3.39,0,.25.25,0,0,1,.25-.25.25.25,0,0,1,.25.25A2.2,2.2,0,0,1,200.65,15.18Z"/><path d="M198.7,13.23h-1.14a.25.25,0,0,1,0-.5h1.14a.25.25,0,0,1,0,.5Z"/><path d="M197.66,14a.25.25,0,0,1-.24-.18.24.24,0,0,1,.18-.31l1.1-.3a.25.25,0,0,1,.13.49l-1.1.29Z"/><path d="M198,14.78a.26.26,0,0,1-.22-.13.25.25,0,0,1,.09-.34l1-.57a.26.26,0,0,1,.35.09.27.27,0,0,1-.1.35l-1,.57A.27.27,0,0,1,198,14.78Z"/><path d="M198.46,15.42a.22.22,0,0,1-.17-.07.25.25,0,0,1,0-.36l.8-.8a.25.25,0,0,1,.36,0,.26.26,0,0,1,0,.35l-.81.81A.24.24,0,0,1,198.46,15.42Z"/><path d="M199.1,15.91l-.12,0a.25.25,0,0,1-.09-.34l.57-1a.25.25,0,1,1,.43.25l-.57,1A.25.25,0,0,1,199.1,15.91Z"/><path d="M199.85,16.23h-.06a.25.25,0,0,1-.18-.31l.3-1.1a.24.24,0,0,1,.3-.18.26.26,0,0,1,.18.31l-.3,1.1A.26.26,0,0,1,199.85,16.23Z"/><path d="M200.65,16.33a.25.25,0,0,1-.25-.25V14.94a.25.25,0,0,1,.25-.25.25.25,0,0,1,.25.25v1.14A.25.25,0,0,1,200.65,16.33Z"/><path d="M201.46,16.23a.27.27,0,0,1-.25-.19l-.29-1.1a.25.25,0,1,1,.48-.13l.3,1.1a.27.27,0,0,1-.18.31Z"/><path d="M202.2,15.92a.24.24,0,0,1-.21-.13l-.57-1a.25.25,0,1,1,.43-.25l.57,1a.25.25,0,0,1-.09.34A.2.2,0,0,1,202.2,15.92Z"/><path d="M202.85,15.42a.24.24,0,0,1-.18-.07l-.81-.81a.26.26,0,0,1,0-.35.25.25,0,0,1,.36,0l.8.81a.24.24,0,0,1,0,.35A.23.23,0,0,1,202.85,15.42Z"/><path d="M203.34,14.78a.24.24,0,0,1-.12,0l-1-.57a.25.25,0,0,1-.09-.34.26.26,0,0,1,.34-.1l1,.58a.26.26,0,0,1,.09.34A.25.25,0,0,1,203.34,14.78Z"/><path d="M203.65,14h-.06l-1.11-.3a.25.25,0,0,1,.13-.48l1.11.29a.25.25,0,0,1,.17.31A.25.25,0,0,1,203.65,14Z"/><path d="M203.76,13.23h-1.14a.25.25,0,0,1,0-.5h1.14a.25.25,0,0,1,0,.5Z"/></g></svg>