<svg xmlns="http://www.w3.org/2000/svg" viewBox="0 0 62.3 40.54"><defs><style>.cls-1{fill:none;stroke:#201600;stroke-linecap:round;stroke-miterlimit:10;}</style></defs><title>40 обв1</title><g id="Слой_2" data-name="Слой 2"><g id="Слой_4" data-name="Слой 4"><path class="cls-1" d="M50.31,9.37a19.27,19.27,0,0,1-38.53,0"/><line class="cls-1" x1="0.5" y1="9.37" x2="11.78" y2="9.37"/><line class="cls-1" x1="1.54" y1="17.3" x2="12.44" y2="14.38"/><line class="cls-1" x1="4.6" y1="24.7" x2="14.37" y2="19.06"/><line class="cls-1" x1="9.46" y1="31.05" x2="17.44" y2="23.07"/><line class="cls-1" x1="15.81" y1="35.92" x2="21.45" y2="26.15"/><line class="cls-1" x1="23.2" y1="38.99" x2="26.12" y2="28.09"/><line class="cls-1" x1="31.13" y1="40.04" x2="31.13" y2="28.76"/><line class="cls-1" x1="39.06" y1="39" x2="36.14" y2="28.1"/><line class="cls-1" x1="46.46" y1="35.95" x2="40.82" y2="26.17"/><line class="cls-1" x1="52.81" y1="31.08" x2="44.83" y2="23.1"/><line class="cls-1" x1="57.68" y1="24.73" x2="47.91" y2="19.09"/><line class="cls-1" x1="60.75" y1="17.34" x2="49.85" y2="14.42"/><line class="cls-1" x1="61.8" y1="9.41" x2="50.52" y2="9.41"/><path d="M2,1.21a.9.9,0,0,1,1-1H5.94C8,.18,8.59,1.33,8.59,2.33A1.85,1.85,0,0,1,7.26,4.18v0c.9.13,1.06.79,1.06,1.57a10.91,10.91,0,0,0,.23,1.59A.76.76,0,0,1,7.73,8c-1,0-1-.93-1-1.24,0-1.35-.25-1.9-1.21-1.9H3.74V7.17A.82.82,0,0,1,2.86,8,.82.82,0,0,1,2,7.17Zm1.76,2.4H5.5c.66,0,1.33-.17,1.33-1s-.51-1-1.28-1H3.74Z"/><path d="M10,1.21a.9.9,0,0,1,1-1h4.13c.52,0,.89.15.89.71s-.37.71-.89.71h-3.4V3.27h3c.46,0,.83.13.83.68s-.37.67-.83.67h-3V6.49h3.49c.51,0,.89.15.89.71s-.38.71-.89.71H11a.9.9,0,0,1-1-1Z"/><path d="M21.32,3.43c1.61.37,2,1.32,2,2.22,0,1.4-1.05,2.44-3.18,2.44S16.93,7,16.93,6.14a.71.71,0,0,1,.74-.73c1,0,.71,1.39,2.49,1.39.91,0,1.42-.5,1.42-1,0-.31-.15-.65-.75-.8l-2-.51C17.24,4.07,17,3.19,17,2.36,17,.64,18.54,0,20,0s3,.77,3,1.8a.74.74,0,0,1-.81.7c-.81,0-.66-1.15-2.3-1.15-.82,0-1.27.38-1.27.91s.64.71,1.2.84Z"/><path d="M24.59,1.07c0-.73.36-1,1.11-1a1,1,0,0,1,.88.46l3.08,5h0V.89a.85.85,0,1,1,1.69,0V7c0,.7-.3,1.09-1,1.09-.56,0-.74-.11-1-.47L26.31,2.75h0V7.2a.85.85,0,0,1-1.7,0Z"/><path d="M33.65,0a.81.81,0,0,1,.81.81.81.81,0,0,1-.81.82.82.82,0,1,1,0-1.63Zm-.79,2.94a.7.7,0,0,1,.79-.78.69.69,0,0,1,.78.78V7.26a.69.69,0,0,1-.78.78.7.7,0,0,1-.79-.78Z"/><path d="M39.48,0c2,0,3.13,1.27,3.13,2a.72.72,0,0,1-.8.79c-1,0-.72-1.39-2.33-1.39-1.1,0-2,1-2,2.62,0,1.41.56,2.63,2.08,2.63s1.35-1.48,2.2-1.48a.78.78,0,0,1,.86.68c0,1.11-1.36,2.22-3.06,2.22-2.42,0-3.84-1.39-3.84-4C35.71,1.87,37,0,39.48,0Z"/><path d="M43.7.92a.88.88,0,0,1,1.76,0V3.11h3.2V.92a.88.88,0,1,1,1.75,0V7.17a.88.88,0,0,1-1.75,0V4.59h-3.2V7.17a.88.88,0,0,1-1.76,0Z"/><path d="M52.05.92a.88.88,0,0,1,1.76,0V3.47l2.76-3a.93.93,0,0,1,.7-.39.77.77,0,0,1,.84.71.82.82,0,0,1-.29.6L56,3.25,58.15,6.5a1.48,1.48,0,0,1,.33.7.8.8,0,0,1-.9.84.77.77,0,0,1-.78-.46l-2-3.13-1,1V7.17a.88.88,0,0,1-1.76,0Z"/><path d="M60.07,0a.82.82,0,1,1-.81.81A.81.81,0,0,1,60.07,0Zm-.78,2.94a.78.78,0,1,1,1.56,0V7.26a.78.78,0,1,1-1.56,0Z"/></g></g></svg>