<svg xmlns="http://www.w3.org/2000/svg" viewBox="0 0 93.95 61.07"><defs><style>.cls-1{fill:none;stroke:#201600;stroke-linecap:round;stroke-miterlimit:10;stroke-width:2px;}</style></defs><title>60</title><g id="Слой_2" data-name="Слой 2"><g id="Слой_4" data-name="Слой 4"><path class="cls-1" d="M75.71,14.06a28.9,28.9,0,0,1-57.79,0"/><line class="cls-1" x1="1" y1="14.06" x2="17.92" y2="14.06"/><line class="cls-1" x1="2.56" y1="25.96" x2="18.9" y2="21.58"/><line class="cls-1" x1="7.14" y1="37.05" x2="21.8" y2="28.59"/><line class="cls-1" x1="14.44" y1="46.58" x2="26.41" y2="34.61"/><line class="cls-1" x1="23.96" y1="53.89" x2="32.42" y2="39.24"/><line class="cls-1" x1="35.05" y1="58.49" x2="39.43" y2="42.15"/><line class="cls-1" x1="46.94" y1="60.07" x2="46.94" y2="43.15"/><line class="cls-1" x1="58.85" y1="58.51" x2="54.47" y2="42.16"/><line class="cls-1" x1="69.94" y1="53.93" x2="61.48" y2="39.27"/><line class="cls-1" x1="79.46" y1="46.63" x2="67.5" y2="34.66"/><line class="cls-1" x1="86.78" y1="37.11" x2="72.12" y2="28.65"/><line class="cls-1" x1="91.38" y1="26.02" x2="75.03" y2="21.64"/><line class="cls-1" x1="92.95" y1="14.12" x2="76.03" y2="14.12"/><path d="M3.22,1.82C3.22.64,3.83.27,4.76.27h4.4c3.13,0,4,1.73,4,3.22a2.77,2.77,0,0,1-2,2.79v0c1.35.19,1.59,1.18,1.59,2.35A15.59,15.59,0,0,0,13.08,11a1.15,1.15,0,0,1-1.24,1c-1.44,0-1.56-1.4-1.56-1.86,0-2-.37-2.85-1.82-2.85H5.86v3.39a1.24,1.24,0,0,1-1.32,1.32,1.24,1.24,0,0,1-1.32-1.32Zm2.64,3.6H8.5c1,0,2-.25,2-1.56S9.74,2.3,8.58,2.3H5.86Z"/><path d="M15.2,1.82A1.35,1.35,0,0,1,16.75.27H23c.77,0,1.33.23,1.33,1.07S23.72,2.4,23,2.4H17.84V4.91h4.48c.69,0,1.24.19,1.24,1s-.55,1-1.24,1H17.84v2.8h5.24c.77,0,1.33.22,1.33,1.06s-.56,1.06-1.33,1.06H16.75c-.93,0-1.55-.37-1.55-1.54Z"/><path d="M32.23,5.15c2.42.55,3,2,3,3.33,0,2.1-1.58,3.66-4.77,3.66-3.35,0-4.84-1.68-4.84-2.93a1.06,1.06,0,0,1,1.11-1.1c1.43,0,1.06,2.1,3.73,2.1,1.37,0,2.13-.76,2.13-1.53,0-.47-.23-1-1.13-1.21l-3-.76c-2.4-.61-2.83-1.93-2.83-3.17C25.68,1,28.06,0,30.3,0c2.06,0,4.49,1.16,4.49,2.7a1.1,1.1,0,0,1-1.21,1c-1.22,0-1-1.72-3.46-1.72-1.22,0-1.9.56-1.9,1.37s1,1.06,1.81,1.25Z"/><path d="M37.14,1.61c0-1.09.53-1.55,1.65-1.55a1.45,1.45,0,0,1,1.32.7l4.62,7.45h0V1.34a1.27,1.27,0,1,1,2.54,0v9.09c0,1.05-.45,1.64-1.56,1.64-.84,0-1.11-.17-1.45-.7L39.71,4.12h0V10.8a1.27,1.27,0,0,1-2.54,0Z"/><path d="M50.72,0A1.23,1.23,0,1,1,49.5,1.22,1.22,1.22,0,0,1,50.72,0ZM49.54,4.41a1.18,1.18,0,0,1,2.35,0V10.9a1.18,1.18,0,0,1-2.35,0Z"/><path d="M59.47,0c3,0,4.69,1.9,4.69,3A1.08,1.08,0,0,1,63,4.22c-1.53,0-1.08-2.09-3.5-2.09-1.65,0-3,1.43-3,3.94,0,2.11.83,3.94,3.12,3.94,2.08,0,2-2.22,3.3-2.22a1.16,1.16,0,0,1,1.29,1c0,1.67-2,3.33-4.59,3.33-3.62,0-5.76-2.08-5.76-6.07C53.81,2.8,55.74,0,59.47,0Z"/><path d="M65.8,1.38a1.32,1.32,0,1,1,2.64,0V4.67h4.79V1.38a1.32,1.32,0,0,1,2.64,0v9.37a1.32,1.32,0,0,1-2.64,0V6.89H68.44v3.86a1.32,1.32,0,1,1-2.64,0Z"/><path d="M78.32,1.38a1.32,1.32,0,1,1,2.64,0V5.22L85.11.64a1.39,1.39,0,0,1,1-.58,1.15,1.15,0,0,1,1.25,1.07A1.27,1.27,0,0,1,87,2L84.27,4.88l3.2,4.88a2.11,2.11,0,0,1,.5,1,1.21,1.21,0,0,1-1.35,1.27,1.17,1.17,0,0,1-1.17-.69l-3-4.7L81,8.13v2.62a1.32,1.32,0,1,1-2.64,0Z"/><path d="M90.35,0a1.23,1.23,0,1,1-1.22,1.22A1.23,1.23,0,0,1,90.35,0ZM89.18,4.41a1.18,1.18,0,0,1,2.35,0V10.9a1.18,1.18,0,0,1-2.35,0Z"/></g></g></svg>