<svg xmlns="http://www.w3.org/2000/svg" viewBox="0 0 124.6 81.08"><defs><style>.cls-1{fill:none;stroke:#201600;stroke-linecap:round;stroke-miterlimit:10;stroke-width:2px;}</style></defs><title>80</title><g id="Слой_2" data-name="Слой 2"><g id="Слой_4" data-name="Слой 4"><path class="cls-1" d="M100.62,18.74a38.53,38.53,0,0,1-77.06,0"/><line class="cls-1" x1="1" y1="18.74" x2="23.56" y2="18.74"/><line class="cls-1" x1="3.08" y1="34.6" x2="24.87" y2="28.77"/><line class="cls-1" x1="9.19" y1="49.39" x2="28.73" y2="38.11"/><line class="cls-1" x1="18.92" y1="62.1" x2="34.88" y2="46.14"/><line class="cls-1" x1="31.61" y1="71.85" x2="42.9" y2="52.31"/><line class="cls-1" x1="46.39" y1="77.98" x2="52.23" y2="56.19"/><line class="cls-1" x1="62.26" y1="80.08" x2="62.26" y2="57.52"/><line class="cls-1" x1="78.13" y1="78" x2="72.29" y2="56.21"/><line class="cls-1" x1="92.92" y1="71.89" x2="81.63" y2="52.35"/><line class="cls-1" x1="105.62" y1="62.16" x2="89.66" y2="46.2"/><line class="cls-1" x1="115.37" y1="49.47" x2="95.83" y2="38.19"/><line class="cls-1" x1="121.5" y1="34.69" x2="99.71" y2="28.85"/><line class="cls-1" x1="123.6" y1="18.82" x2="101.04" y2="18.82"/><path d="M4,2.42A1.8,1.8,0,0,1,6,.36h5.86c4.18,0,5.3,2.3,5.3,4.3a3.7,3.7,0,0,1-2.66,3.71v0c1.8.26,2.12,1.57,2.12,3.13a21.15,21.15,0,0,0,.47,3.18,1.55,1.55,0,0,1-1.65,1.37c-1.93,0-2.08-1.87-2.08-2.49,0-2.7-.49-3.8-2.42-3.8H7.47v4.53a1.66,1.66,0,0,1-1.76,1.76A1.66,1.66,0,0,1,4,14.33ZM7.47,7.23H11c1.33,0,2.66-.34,2.66-2.08s-1-2.08-2.55-2.08H7.47Z"/><path d="M19.94,2.42c0-1.56.81-2.06,2-2.06h8.26c1,0,1.79.31,1.79,1.42S31.28,3.2,30.25,3.2h-6.8V6.54h6c.92,0,1.65.26,1.65,1.36s-.73,1.35-1.65,1.35h-6V13h7c1,0,1.78.3,1.78,1.42s-.75,1.41-1.78,1.41H22c-1.24,0-2-.49-2-2.06Z"/><path d="M42.64,6.87c3.21.72,4,2.63,4,4.44,0,2.78-2.1,4.87-6.35,4.87-4.46,0-6.46-2.23-6.46-3.91a1.41,1.41,0,0,1,1.48-1.46c1.91,0,1.42,2.79,5,2.79,1.82,0,2.83-1,2.83-2,0-.62-.3-1.31-1.5-1.6l-4-1c-3.2-.82-3.78-2.58-3.78-4.23C33.9,1.29,37.08,0,40.06,0c2.75,0,6,1.54,6,3.6A1.47,1.47,0,0,1,44.44,5c-1.63,0-1.33-2.3-4.61-2.3-1.64,0-2.54.75-2.54,1.83S38.58,5.94,39.7,6.2Z"/><path d="M49.18,2.15c0-1.46.71-2.06,2.21-2.06A1.93,1.93,0,0,1,53.15,1l6.16,9.93h0V1.78a1.7,1.7,0,0,1,3.39,0V13.9c0,1.4-.6,2.19-2.08,2.19a1.82,1.82,0,0,1-1.93-.94L52.61,5.49h0V14.4a1.7,1.7,0,0,1-3.39,0Z"/><path d="M67.29,0a1.63,1.63,0,1,1-1.63,1.63A1.63,1.63,0,0,1,67.29,0ZM65.72,5.88a1.57,1.57,0,1,1,3.13,0v8.64a1.57,1.57,0,1,1-3.13,0Z"/><path d="M79,0c4,0,6.24,2.53,6.24,4a1.43,1.43,0,0,1-1.58,1.59c-2,0-1.44-2.79-4.66-2.79-2.21,0-4,1.91-4,5.26,0,2.81,1.11,5.25,4.16,5.25,2.77,0,2.7-3,4.4-3a1.55,1.55,0,0,1,1.71,1.36c0,2.23-2.7,4.44-6.11,4.44-4.83,0-7.68-2.77-7.68-8.09C71.41,3.73,74,0,79,0Z"/><path d="M87.39,1.84a1.76,1.76,0,0,1,3.52,0V6.22H97.3V1.84a1.76,1.76,0,0,1,3.52,0V14.33a1.76,1.76,0,1,1-3.52,0V9.18H90.91v5.15a1.76,1.76,0,1,1-3.52,0Z"/><path d="M104.09,1.84a1.76,1.76,0,0,1,3.51,0V7L113.14.86a1.85,1.85,0,0,1,1.39-.77,1.53,1.53,0,0,1,1.68,1.41,1.65,1.65,0,0,1-.58,1.2L112,6.5l4.27,6.5a3,3,0,0,1,.67,1.4,1.62,1.62,0,0,1-1.8,1.69,1.57,1.57,0,0,1-1.57-.92L109.53,8.9l-1.93,1.93v3.5a1.76,1.76,0,1,1-3.51,0Z"/><path d="M120.13,0a1.63,1.63,0,1,1-1.63,1.63A1.63,1.63,0,0,1,120.13,0Zm-1.56,5.88a1.57,1.57,0,1,1,3.13,0v8.64a1.57,1.57,0,1,1-3.13,0Z"/></g></g></svg>