<svg id="Пиктограммы_сайта" data-name="Пиктограммы сайта" xmlns="http://www.w3.org/2000/svg" viewBox="0 0 100 100">
  <defs>
    <style>
      .cls-1 {
        fill: none;
        stroke: #000;
        stroke-linecap: round;
        stroke-miterlimit: 10;
        stroke-width: 6px;
      }
    </style>
  </defs>
  <title>Выход</title>
  <g>
    <path class="cls-1" d="M79.1,72.9A40.2,40.2,0,0,1,45.6,91C23.2,91,5.1,72.6,5.1,50S23.2,9,45.6,9A40.4,40.4,0,0,1,78.3,25.9"/>
    <g>
      <line class="cls-1" x1="46.3" y1="50" x2="92.3" y2="50"/>
      <path d="M66.5,68.1a1.9,1.9,0,0,1,.6-2.6L91.5,50,67.1,34.5a1.9,1.9,0,0,1,2-3.2L96,48.4a1.9,1.9,0,0,1,0,3.2L69.1,68.7a1.7,1.7,0,0,1-1,.3A1.9,1.9,0,0,1,66.5,68.1Z"/>
    </g>
  </g>
</svg>
