<svg xmlns="http://www.w3.org/2000/svg" viewBox="0 0 217.99 85.12"><defs><style>.cls-1{fill:#fff;opacity:0.5;}.cls-2{fill:none;stroke:#000;stroke-miterlimit:10;stroke-width:2px;}</style></defs><title>голо с рамкой</title><g id="Слой_4" data-name="Слой 4"><rect class="cls-1" x="8.47" y="3.56" width="200" height="78" rx="12" ry="12"/><rect class="cls-2" x="8.47" y="3.56" width="200" height="78" rx="12" ry="12"/><path d="M51.32,62.28A24.55,24.55,0,0,1,26.8,37.76a1,1,0,0,1,2,0,22.52,22.52,0,1,0,45,0,1,1,0,0,1,2,0A24.55,24.55,0,0,1,51.32,62.28Z"/><path d="M27.8,38.76H14a1,1,0,0,1,0-2H27.8a1,1,0,1,1,0,2Z"/><path d="M15.29,48.44a1,1,0,0,1-.26-2l13.31-3.57a1,1,0,0,1,.51,1.94l-13.3,3.56A1.15,1.15,0,0,1,15.29,48.44Z"/><path d="M19,57.47a1,1,0,0,1-.5-1.86l11.93-6.89a1,1,0,1,1,1,1.73L19.52,57.34A1,1,0,0,1,19,57.47Z"/><path d="M25,65.23a1,1,0,0,1-.7-.3,1,1,0,0,1,0-1.41L34,53.78a1,1,0,0,1,1.41,1.41l-9.74,9.74A1,1,0,0,1,25,65.23Z"/><path d="M32.71,71.18a1,1,0,0,1-.87-1.5l6.89-11.93a1,1,0,0,1,1.37-.36,1,1,0,0,1,.36,1.36L33.58,70.68A1,1,0,0,1,32.71,71.18Z"/><path d="M41.73,74.93a1.09,1.09,0,0,1-.25,0,1,1,0,0,1-.71-1.22l3.56-13.31a1,1,0,1,1,1.93.52L42.7,74.18A1,1,0,0,1,41.73,74.93Z"/><path d="M51.42,76.21a1,1,0,0,1-1-1V61.43a1,1,0,1,1,2,0V75.21A1,1,0,0,1,51.42,76.21Z"/><path d="M61.1,74.94a1,1,0,0,1-1-.74L56.57,60.89a1,1,0,0,1,1.94-.52l3.56,13.31a1,1,0,0,1-.71,1.22A.75.75,0,0,1,61.1,74.94Z"/><path d="M70.13,71.21a1,1,0,0,1-.86-.5L62.38,58.78a1,1,0,0,1,.37-1.37,1,1,0,0,1,1.36.37L71,69.71a1,1,0,0,1-.87,1.5Z"/><path d="M77.89,65.26a1,1,0,0,1-.71-.29l-9.74-9.74a1,1,0,0,1,1.41-1.41l9.74,9.74a1,1,0,0,1,0,1.41A1,1,0,0,1,77.89,65.26Z"/><path d="M83.84,57.52a.93.93,0,0,1-.5-.14L71.41,50.5a1,1,0,0,1-.36-1.37,1,1,0,0,1,1.36-.36l11.93,6.88a1,1,0,0,1-.5,1.87Z"/><path d="M87.59,48.5a1.09,1.09,0,0,1-.26,0L74,44.9A1,1,0,1,1,74.54,43l13.3,3.57a1,1,0,0,1-.25,2Z"/><path d="M88.87,38.81H75.09a1,1,0,0,1,0-2H88.87a1,1,0,0,1,0,2Z"/><path d="M36.25,16.65c0-3.61,1.87-4.74,4.73-4.74H54.45c9.61,0,12.18,5.28,12.18,9.86,0,3.85-2.27,7.65-6.12,8.53v.1c4.14.6,4.88,3.6,4.88,7.2,0,4.1,1.09,5.62,1.09,7.3,0,1.88-1.92,3.16-3.8,3.16-4.44,0-4.78-4.29-4.78-5.72,0-6.22-1.14-8.73-5.58-8.73h-8V44a3.81,3.81,0,0,1-4.05,4.05,3.81,3.81,0,0,1-4-4.05Zm8.09,11h8.08c3.06,0,6.12-.79,6.12-4.78,0-3.8-2.32-4.79-5.87-4.79H44.34Z"/><path d="M75,15.83c0-1.95,1-2.57,2.57-2.57H87.91c1.29,0,2.22.38,2.22,1.77s-.93,1.77-2.22,1.77H79.42V21h7.45c1.15,0,2.06.32,2.06,1.69s-.91,1.68-2.06,1.68H79.42V29h8.7c1.29,0,2.23.37,2.23,1.76s-.94,1.77-2.23,1.77H77.59C76,32.55,75,31.94,75,30Z"/><path d="M103.37,21.38c4,.91,5,3.3,5,5.55,0,3.48-2.62,6.08-7.93,6.08-5.57,0-8.06-2.79-8.06-4.88a1.76,1.76,0,0,1,1.85-1.82c2.38,0,1.77,3.48,6.21,3.48,2.28,0,3.54-1.26,3.54-2.54,0-.78-.37-1.64-1.88-2L97.18,24c-4-1-4.72-3.22-4.72-5.28,0-4.29,4-5.89,7.69-5.89,3.43,0,7.48,1.92,7.48,4.5a1.82,1.82,0,0,1-2,1.74c-2,0-1.66-2.87-5.76-2.87-2,0-3.16.94-3.16,2.28s1.6,1.77,3,2.09Z"/><path d="M111.54,15.48c0-1.82.88-2.57,2.76-2.57a2.4,2.4,0,0,1,2.19,1.16l7.69,12.4h.06V15a2.12,2.12,0,1,1,4.23,0V30.17c0,1.74-.75,2.73-2.6,2.73-1.39,0-1.85-.29-2.41-1.18l-7.64-12h0V30.78a2.12,2.12,0,1,1-4.23,0Z"/><path d="M132.19,20.15a2,2,0,1,1,3.91,0V31a2,2,0,0,1-3.91,0Z"/><path d="M148.72,12.81c5,0,7.8,3.16,7.8,5a1.79,1.79,0,0,1-2,2c-2.55,0-1.8-3.49-5.82-3.49-2.76,0-5,2.39-5,6.57,0,3.51,1.39,6.56,5.19,6.56,3.46,0,3.38-3.7,5.5-3.7a1.93,1.93,0,0,1,2.14,1.69c0,2.79-3.38,5.55-7.64,5.55-6,0-9.59-3.46-9.59-10.1C139.29,17.47,142.51,12.81,148.72,12.81Z"/><path d="M159.25,15.11a2.2,2.2,0,1,1,4.39,0v5.47h8V15.11a2.2,2.2,0,1,1,4.39,0V30.7a2.2,2.2,0,1,1-4.39,0V24.27h-8V30.7a2.2,2.2,0,1,1-4.39,0Z"/><path d="M180.09,15.11a2.2,2.2,0,0,1,4.4,0v6.38l6.91-7.61a2.31,2.31,0,0,1,1.74-1,1.92,1.92,0,0,1,2.09,1.77,2.07,2.07,0,0,1-.72,1.5L190,20.92,195.34,29a3.73,3.73,0,0,1,.83,1.74,2,2,0,0,1-2.25,2.12,2,2,0,0,1-2-1.15l-5.06-7.82-2.41,2.41V30.7a2.2,2.2,0,0,1-4.4,0Z"/><path d="M198.17,20.15a2,2,0,0,1,3.92,0V31a2,2,0,0,1-3.92,0Z"/><path d="M134.18,15.46a2.21,2.21,0,0,1-2.2-2.2.25.25,0,1,1,.5,0,1.7,1.7,0,1,0,3.4,0,.25.25,0,0,1,.25-.25.25.25,0,0,1,.25.25A2.21,2.21,0,0,1,134.18,15.46Z"/><path d="M132.23,13.51h-1.14a.25.25,0,0,1,0-.5h1.14a.25.25,0,0,1,0,.5Z"/><path d="M131.19,14.31a.25.25,0,0,1-.24-.18.25.25,0,0,1,.18-.31l1.1-.29a.25.25,0,0,1,.31.17.26.26,0,0,1-.18.31l-1.1.29Z"/><path d="M131.5,15.06a.26.26,0,0,1-.22-.12.27.27,0,0,1,.1-.35l1-.57a.25.25,0,0,1,.34.1.25.25,0,0,1-.09.34l-1,.57A.31.31,0,0,1,131.5,15.06Z"/><path d="M132,15.7a.23.23,0,0,1-.17-.07.24.24,0,0,1,0-.35l.8-.81a.25.25,0,0,1,.36,0,.24.24,0,0,1,0,.35l-.81.81A.24.24,0,0,1,132,15.7Z"/><path d="M132.64,16.2a.2.2,0,0,1-.13,0,.25.25,0,0,1-.09-.34l.57-1a.25.25,0,1,1,.43.25l-.57,1A.24.24,0,0,1,132.64,16.2Z"/><path d="M133.38,16.51h-.06a.26.26,0,0,1-.18-.31l.3-1.1a.25.25,0,1,1,.48.13l-.29,1.1A.28.28,0,0,1,133.38,16.51Z"/><path d="M134.19,16.61a.25.25,0,0,1-.25-.25V15.22a.25.25,0,0,1,.25-.25.25.25,0,0,1,.25.25v1.14A.25.25,0,0,1,134.19,16.61Z"/><path d="M135,16.51a.26.26,0,0,1-.24-.19l-.3-1.1a.26.26,0,0,1,.18-.31.25.25,0,0,1,.3.18l.3,1.1a.25.25,0,0,1-.18.31Z"/><path d="M135.74,16.2a.26.26,0,0,1-.22-.13l-.57-1a.25.25,0,1,1,.43-.25l.57,1a.26.26,0,0,1-.09.35Z"/><path d="M136.38,15.71a.27.27,0,0,1-.18-.08l-.8-.8a.25.25,0,0,1,0-.36.26.26,0,0,1,.35,0l.81.81a.26.26,0,0,1,0,.35A.27.27,0,0,1,136.38,15.71Z"/><path d="M136.87,15.06a.27.27,0,0,1-.12,0l-1-.57A.25.25,0,1,1,136,14l1,.57a.25.25,0,0,1,.09.34A.25.25,0,0,1,136.87,15.06Z"/><path d="M137.18,14.32h-.06L136,14a.25.25,0,1,1,.12-.48l1.11.3a.24.24,0,0,1,.17.3A.26.26,0,0,1,137.18,14.32Z"/><path d="M137.29,13.52h-1.14a.25.25,0,0,1-.25-.25.25.25,0,0,1,.25-.25h1.14a.25.25,0,0,1,.25.25A.25.25,0,0,1,137.29,13.52Z"/><path d="M200.12,15.18a2.21,2.21,0,0,1-2.2-2.2.25.25,0,1,1,.5,0,1.7,1.7,0,1,0,3.4,0,.25.25,0,1,1,.5,0A2.21,2.21,0,0,1,200.12,15.18Z"/><path d="M198.17,13.23H197a.25.25,0,0,1,0-.5h1.14a.25.25,0,0,1,0,.5Z"/><path d="M197.14,14a.25.25,0,0,1-.25-.18.26.26,0,0,1,.18-.31l1.1-.3a.26.26,0,0,1,.31.18.26.26,0,0,1-.18.31l-1.1.29Z"/><path d="M197.44,14.78a.25.25,0,0,1-.12-.47l1-.57a.25.25,0,0,1,.34.09.26.26,0,0,1-.09.35l-1,.57A.28.28,0,0,1,197.44,14.78Z"/><path d="M197.94,15.42a.24.24,0,0,1-.18-.07.25.25,0,0,1,0-.36l.81-.8a.25.25,0,1,1,.35.35l-.81.81A.23.23,0,0,1,197.94,15.42Z"/><path d="M198.58,15.91a.31.31,0,0,1-.13,0,.25.25,0,0,1-.09-.34l.57-1a.25.25,0,0,1,.34-.09.26.26,0,0,1,.1.34l-.58,1A.24.24,0,0,1,198.58,15.91Z"/><path d="M199.33,16.23h-.07a.27.27,0,0,1-.18-.31l.3-1.1a.25.25,0,0,1,.31-.18.25.25,0,0,1,.17.31l-.29,1.1A.26.26,0,0,1,199.33,16.23Z"/><path d="M200.13,16.33a.25.25,0,0,1-.25-.25V14.94a.25.25,0,1,1,.5,0v1.14A.25.25,0,0,1,200.13,16.33Z"/><path d="M200.93,16.23a.26.26,0,0,1-.24-.19l-.3-1.1a.27.27,0,0,1,.18-.31.26.26,0,0,1,.31.18l.29,1.1a.25.25,0,0,1-.17.31Z"/><path d="M201.68,15.92a.26.26,0,0,1-.22-.13l-.57-1a.25.25,0,1,1,.43-.25l.58,1a.26.26,0,0,1-.1.34A.19.19,0,0,1,201.68,15.92Z"/><path d="M202.32,15.42a.26.26,0,0,1-.18-.07l-.8-.81a.25.25,0,1,1,.35-.35l.81.81a.25.25,0,0,1-.18.42Z"/><path d="M202.81,14.78a.27.27,0,0,1-.12,0l-1-.57a.25.25,0,0,1-.09-.34.26.26,0,0,1,.34-.1l1,.58a.25.25,0,0,1,.09.34A.25.25,0,0,1,202.81,14.78Z"/><path d="M203.13,14h-.07l-1.1-.3a.24.24,0,0,1-.18-.3.25.25,0,0,1,.31-.18l1.1.29a.27.27,0,0,1,.18.31A.25.25,0,0,1,203.13,14Z"/><path d="M203.23,13.23h-1.14a.25.25,0,0,1,0-.5h1.14a.25.25,0,0,1,0,.5Z"/></g></svg>