<svg xmlns="http://www.w3.org/2000/svg" viewBox="0 0 410.66 65.88"><defs><style>.cls-1,.cls-2{fill:none;stroke:#201600;stroke-linecap:round;stroke-linejoin:round;}.cls-1{stroke-width:2px;}.cls-2{stroke-width:3px;}</style></defs><title>Ресурс 4</title><g id="Слой_2" data-name="Слой 2"><g id="Слой_1-2" data-name="Слой 1"><path d="M17.43,37.55H12.91V58c0,2.69-.6,4.67-1.78,5.95a6.08,6.08,0,0,1-4.65,1.91,6,6,0,0,1-4.79-2A8.85,8.85,0,0,1,0,58V9Q0,4.81,1.87,3c1.24-1.25,3.26-1.87,6-1.87h21a62.91,62.91,0,0,1,7.43.37A18.25,18.25,0,0,1,41.89,3a16.08,16.08,0,0,1,5.3,3.6A15.63,15.63,0,0,1,50.69,12a18.08,18.08,0,0,1,1.2,6.58q0,7.13-4,11.39T35.68,36a23.57,23.57,0,0,1,6.56,5.38A54.05,54.05,0,0,1,47.82,49a55.5,55.5,0,0,1,3.83,7.26A14.35,14.35,0,0,1,53,60.71a4.54,4.54,0,0,1-.81,2.5A5.53,5.53,0,0,1,50,65.16a6.91,6.91,0,0,1-3.22.72,6.28,6.28,0,0,1-3.65-1,9.79,9.79,0,0,1-2.54-2.59q-1.06-1.56-2.89-4.6l-5.17-8.61a47.5,47.5,0,0,0-5-7.21,12.25,12.25,0,0,0-4.45-3.39A15.31,15.31,0,0,0,17.43,37.55Zm7.38-26.77H12.91V28.29H24.47a32.72,32.72,0,0,0,7.82-.8,9.18,9.18,0,0,0,4.84-2.74,7.84,7.84,0,0,0,1.68-5.32,8,8,0,0,0-5.09-7.7Q31.47,10.79,24.81,10.78Z"/><path d="M106.08,11H77V26.68h26.77A6.34,6.34,0,0,1,108.19,28a4.5,4.5,0,0,1,1.45,3.5,4.69,4.69,0,0,1-1.43,3.54,6.25,6.25,0,0,1-4.43,1.37H77V54.54h30.07A6.57,6.57,0,0,1,111.66,56a4.86,4.86,0,0,1,1.55,3.76,4.74,4.74,0,0,1-1.55,3.67,6.57,6.57,0,0,1-4.58,1.41H72q-4.22,0-6.06-1.86c-1.24-1.25-1.85-3.26-1.85-6V9a10.8,10.8,0,0,1,.82-4.55,5.17,5.17,0,0,1,2.59-2.56,10.79,10.79,0,0,1,4.5-.8h34.07a6.57,6.57,0,0,1,4.58,1.37A4.61,4.61,0,0,1,112.16,6a4.67,4.67,0,0,1-1.5,3.63A6.62,6.62,0,0,1,106.08,11Z"/><path d="M171.87,45.67a18.75,18.75,0,0,1-3,10.39,19.74,19.74,0,0,1-8.72,7.21,32.61,32.61,0,0,1-13.6,2.61q-9.44,0-15.56-3.56A20.74,20.74,0,0,1,124,55.47a15.5,15.5,0,0,1-2.71-8.32A5.62,5.62,0,0,1,127,41.46a4.9,4.9,0,0,1,3.46,1.3,10.33,10.33,0,0,1,2.41,3.87,25.71,25.71,0,0,0,2.63,5.08,10.55,10.55,0,0,0,4,3.37,14.59,14.59,0,0,0,6.73,1.33,15.13,15.13,0,0,0,9.32-2.68,8,8,0,0,0,3.59-6.67,7.1,7.1,0,0,0-1.93-5.15,12.65,12.65,0,0,0-5-3c-2-.69-4.78-1.43-8.19-2.21a60.36,60.36,0,0,1-11.5-3.76,18.63,18.63,0,0,1-7.34-5.87,15.23,15.23,0,0,1-2.72-9.23,15.9,15.9,0,0,1,2.87-9.35,18.15,18.15,0,0,1,8.3-6.28A34.05,34.05,0,0,1,146.41,0a31.55,31.55,0,0,1,10.14,1.46,21.5,21.5,0,0,1,7.11,3.86,16.23,16.23,0,0,1,4.13,5.07,11.63,11.63,0,0,1,1.3,5.17,6.1,6.1,0,0,1-1.63,4.15,5.18,5.18,0,0,1-4.06,1.84,4.67,4.67,0,0,1-3.37-1.1,15,15,0,0,1-2.5-3.63,16.48,16.48,0,0,0-4.17-5.63q-2.43-2-7.82-2a13.56,13.56,0,0,0-8.06,2.19,6.39,6.39,0,0,0-3.07,5.28A5.34,5.34,0,0,0,135.46,20a8.89,8.89,0,0,0,2.86,2.39A19.32,19.32,0,0,0,142,23.9q1.86.57,6.17,1.65a97.78,97.78,0,0,1,9.75,2.78,29.86,29.86,0,0,1,7.44,3.7,15.31,15.31,0,0,1,4.78,5.49A17.7,17.7,0,0,1,171.87,45.67Z"/><path d="M199.64,7.74l24.82,37.54V7.39c0-2.46.52-4.31,1.58-5.54A5.37,5.37,0,0,1,230.32,0a5.52,5.52,0,0,1,4.39,1.85,8.25,8.25,0,0,1,1.61,5.54v50.1q0,8.4-6.95,8.39a9.26,9.26,0,0,1-3.13-.5,7.78,7.78,0,0,1-2.61-1.59,15.55,15.55,0,0,1-2.26-2.54c-.69-1-1.39-2-2.09-3l-24.2-37.12V58.49a8,8,0,0,1-1.7,5.52,6,6,0,0,1-8.73,0,8.12,8.12,0,0,1-1.65-5.5V9.34a14,14,0,0,1,.69-4.91,7,7,0,0,1,2.74-3.19A7.43,7.43,0,0,1,190.56,0a7.27,7.27,0,0,1,3,.56,7.23,7.23,0,0,1,2.17,1.53,15.52,15.52,0,0,1,1.91,2.47C198.27,5.58,199,6.63,199.64,7.74Z"/><path d="M261.48,24.38V58.67a7.67,7.67,0,0,1-1.69,5.39,5.65,5.65,0,0,1-4.31,1.82A5.33,5.33,0,0,1,251.25,64a7.84,7.84,0,0,1-1.63-5.34V24.73a7.58,7.58,0,0,1,1.63-5.3,5.46,5.46,0,0,1,4.23-1.79,5.7,5.7,0,0,1,4.31,1.79A6.88,6.88,0,0,1,261.48,24.38Z"/><path d="M298.77,59.28V51.19H277q-4.12,0-6.19-1.87a6.49,6.49,0,0,1-2.07-5.08,5,5,0,0,1,.31-1.67,8.9,8.9,0,0,1,.91-1.79q.61-.93,1.26-1.8l1.61-2.13L295.81,6a35,35,0,0,1,3.72-4.41A4.93,4.93,0,0,1,303,.26q6.6,0,6.6,7.56V41.46h1.87a13.21,13.21,0,0,1,5.37.91c1.34.61,2,1.94,2,4A4.16,4.16,0,0,1,317.24,50a8.7,8.7,0,0,1-5,1.15h-2.65v8.09a7.18,7.18,0,0,1-1.48,5,5.53,5.53,0,0,1-7.88,0A7.18,7.18,0,0,1,298.77,59.28ZM280.08,41.46h18.69V16.21Z"/><path d="M340.44,7.82V30.16L365.78,3.74A22.94,22.94,0,0,1,368.89.91,5.74,5.74,0,0,1,372.3,0a6.27,6.27,0,0,1,4.5,1.63,5.29,5.29,0,0,1,1.71,4q0,2.82-2.91,5.6L359.91,26.07,378,52a32.24,32.24,0,0,1,2.87,4.72,9.13,9.13,0,0,1,.95,3.93,4.9,4.9,0,0,1-1.67,3.7,6.39,6.39,0,0,1-4.54,1.56,7.64,7.64,0,0,1-4.39-1.15,10,10,0,0,1-2.87-3.06c-.78-1.28-1.47-2.44-2.08-3.48L351,34.72,340.44,44.85V58q0,4-1.82,5.93a6.17,6.17,0,0,1-4.7,1.93,6.31,6.31,0,0,1-3.17-.87,6.12,6.12,0,0,1-2.34-2.34,7.52,7.52,0,0,1-.74-2.83c-.09-1.07-.13-2.62-.13-4.65V7.82q0-3.92,1.71-5.86a5.88,5.88,0,0,1,4.67-2,6.17,6.17,0,0,1,4.72,1.93C339.84,3.22,340.44,5.19,340.44,7.82Z"/><path d="M404.37,24.38V58.67a7.68,7.68,0,0,1-1.7,5.39,5.63,5.63,0,0,1-4.3,1.82A5.35,5.35,0,0,1,394.13,64a7.89,7.89,0,0,1-1.63-5.34V24.73a7.62,7.62,0,0,1,1.63-5.3,5.48,5.48,0,0,1,4.24-1.79,5.67,5.67,0,0,1,4.3,1.79A6.88,6.88,0,0,1,404.37,24.38Z"/><line class="cls-1" x1="249.7" y1="3.3" x2="244.3" y2="4.21"/><line class="cls-1" x1="251.34" y1="6.55" x2="247.46" y2="10.42"/><line class="cls-1" x1="259.8" y1="6.52" x2="263.67" y2="10.39"/><line class="cls-1" x1="261.38" y1="3.4" x2="266.76" y2="4.42"/><line class="cls-1" x1="255.58" y1="8.12" x2="255.58" y2="13.6"/><path class="cls-2" d="M404.39,2.3a5.42,5.42,0,0,1-1.74,4.28,6,6,0,0,1-4.13,1.54,6.21,6.21,0,0,1-4.23-1.52,5.34,5.34,0,0,1-1.76-4.3"/><line class="cls-1" x1="392.61" y1="3.3" x2="387.21" y2="4.21"/><line class="cls-1" x1="394.24" y1="6.55" x2="390.37" y2="10.42"/><line class="cls-1" x1="402.71" y1="6.52" x2="406.58" y2="10.39"/><line class="cls-1" x1="404.29" y1="3.4" x2="409.66" y2="4.42"/><line class="cls-1" x1="398.49" y1="8.12" x2="398.49" y2="13.6"/><path class="cls-2" d="M261.48,2.3a5.42,5.42,0,0,1-1.74,4.28,6,6,0,0,1-4.13,1.54,6.21,6.21,0,0,1-4.23-1.52,5.34,5.34,0,0,1-1.76-4.3"/></g></g></svg>