<svg xmlns="http://www.w3.org/2000/svg" viewBox="0 0 189.15 64.3"><defs><style>.cls-1{fill:none;stroke:#201600;stroke-linecap:round;stroke-miterlimit:10;stroke-width:2px;}</style></defs><title>Ресурс 59</title><g id="Слой_2" data-name="Слой 2"><g id="Слой_4" data-name="Слой 4"><path class="cls-1" d="M61.81,25.85a23.52,23.52,0,0,1-47,0"/><line class="cls-1" x1="1" y1="25.85" x2="14.77" y2="25.85"/><line class="cls-1" x1="2.27" y1="35.54" x2="15.57" y2="31.97"/><line class="cls-1" x1="6" y1="44.56" x2="17.93" y2="37.68"/><line class="cls-1" x1="11.94" y1="52.32" x2="21.68" y2="42.58"/><line class="cls-1" x1="19.69" y1="58.27" x2="26.58" y2="46.34"/><line class="cls-1" x1="28.71" y1="62.02" x2="32.28" y2="48.71"/><line class="cls-1" x1="38.4" y1="63.3" x2="38.4" y2="49.52"/><line class="cls-1" x1="48.08" y1="62.03" x2="44.52" y2="48.72"/><line class="cls-1" x1="57.11" y1="58.3" x2="50.22" y2="46.37"/><line class="cls-1" x1="64.87" y1="52.36" x2="55.13" y2="42.62"/><line class="cls-1" x1="70.82" y1="44.61" x2="58.89" y2="37.72"/><line class="cls-1" x1="74.56" y1="35.59" x2="61.26" y2="32.02"/><line class="cls-1" x1="75.84" y1="25.9" x2="62.07" y2="25.9"/><path d="M23.23,4.74C23.23,1.13,25.1,0,28,0H41.42C51,0,53.6,5.28,53.6,9.86c0,3.85-2.26,7.65-6.11,8.53v.1c4.14.6,4.88,3.6,4.88,7.2,0,4.1,1.09,5.63,1.09,7.3,0,1.88-1.93,3.16-3.8,3.16-4.44,0-4.78-4.29-4.78-5.72,0-6.22-1.14-8.73-5.58-8.73h-8V32.11a3.8,3.8,0,0,1-4,4,3.81,3.81,0,0,1-4-4Zm8.08,11H39.4c3.06,0,6.12-.79,6.12-4.78,0-3.8-2.32-4.78-5.87-4.78H31.31Z"/><path d="M62,3.92C62,2,63,1.35,64.57,1.35H74.89c1.28,0,2.22.38,2.22,1.77s-.94,1.77-2.22,1.77h-8.5V9.07h7.45c1.16,0,2.07.32,2.07,1.69s-.91,1.69-2.07,1.69H66.39v4.66H75.1c1.29,0,2.23.37,2.23,1.77s-.94,1.76-2.23,1.76H64.57C63,20.64,62,20,62,18.07Z"/><path d="M90.34,9.47c4,.91,5,3.3,5,5.55,0,3.48-2.62,6.08-7.93,6.08-5.57,0-8.06-2.79-8.06-4.88a1.76,1.76,0,0,1,1.84-1.82c2.39,0,1.77,3.48,6.22,3.48,2.28,0,3.54-1.25,3.54-2.54,0-.78-.38-1.64-1.88-2l-5-1.26c-4-1-4.72-3.22-4.72-5.28,0-4.29,4-5.89,7.69-5.89,3.43,0,7.48,1.92,7.48,4.5a1.82,1.82,0,0,1-2,1.74c-2,0-1.67-2.87-5.77-2.87-2,0-3.16.94-3.16,2.28s1.61,1.77,3,2.09Z"/><path d="M98.51,3.58c0-1.83.89-2.58,2.76-2.58a2.42,2.42,0,0,1,2.2,1.16l7.69,12.4h0V3.12a2.12,2.12,0,0,1,4.24,0V18.26c0,1.74-.75,2.73-2.6,2.73-1.39,0-1.85-.29-2.41-1.18l-7.64-12h0V18.88a2.12,2.12,0,0,1-4.24,0Z"/><path d="M121.12.9a2,2,0,1,1-2,2A2,2,0,0,1,121.12.9Zm-2,7.34a2,2,0,1,1,3.91,0V19a2,2,0,0,1-3.91,0Z"/><path d="M135.7.9c5,0,7.8,3.16,7.8,5a1.79,1.79,0,0,1-2,2c-2.55,0-1.8-3.49-5.82-3.49-2.76,0-5,2.39-5,6.57,0,3.51,1.4,6.56,5.2,6.56,3.46,0,3.38-3.7,5.49-3.7a1.93,1.93,0,0,1,2.15,1.69c0,2.79-3.38,5.55-7.64,5.55-6,0-9.59-3.46-9.59-10.1C126.27,5.56,129.48.9,135.7.9Z"/><path d="M146.23,3.2a2.2,2.2,0,1,1,4.39,0V8.67h8V3.2a2.2,2.2,0,1,1,4.39,0V18.8a2.2,2.2,0,0,1-4.39,0V12.36h-8V18.8a2.2,2.2,0,0,1-4.39,0Z"/><path d="M167.07,3.2a2.2,2.2,0,1,1,4.39,0V9.58L178.38,2a2.31,2.31,0,0,1,1.74-1,1.92,1.92,0,0,1,2.09,1.77,2.07,2.07,0,0,1-.72,1.5L177,9l5.34,8.11a3.72,3.72,0,0,1,.83,1.75A2,2,0,0,1,180.9,21a2,2,0,0,1-2-1.15L173.88,12l-2.42,2.41V18.8a2.2,2.2,0,0,1-4.39,0Z"/><path d="M187.11.9a2,2,0,1,1-2,2A2,2,0,0,1,187.11.9Zm-2,7.34a2,2,0,1,1,3.91,0V19a2,2,0,0,1-3.91,0Z"/></g></g></svg>