<svg xmlns="http://www.w3.org/2000/svg" viewBox="0 0 299.43 109.12"><defs><style>.cls-1{fill:#fff;}.cls-2{fill:none;stroke:#201600;stroke-linecap:round;stroke-linejoin:round;stroke-width:4px;}</style></defs><title>Ресурс 12</title><g id="Слой_2" data-name="Слой 2"><g id="Слой_5" data-name="Слой 5"><path d="M143.09,7H127.85v8.2h14a3.36,3.36,0,0,1,2.31.69A2.38,2.38,0,0,1,145,17.7a2.44,2.44,0,0,1-.75,1.85,3.24,3.24,0,0,1-2.32.72h-14v9.5h15.76a3.42,3.42,0,0,1,2.4.74,2.53,2.53,0,0,1,.81,2A2.47,2.47,0,0,1,146,34.4a3.42,3.42,0,0,1-2.4.74H125.23a4.31,4.31,0,0,1-3.18-1,4.38,4.38,0,0,1-1-3.16V5.9a5.59,5.59,0,0,1,.44-2.38,2.65,2.65,0,0,1,1.35-1.35,5.73,5.73,0,0,1,2.36-.42h17.86a3.48,3.48,0,0,1,2.4.72,2.43,2.43,0,0,1,.78,1.88,2.46,2.46,0,0,1-.78,1.9A3.48,3.48,0,0,1,143.09,7Z"/><path d="M177.57,25.12A9.78,9.78,0,0,1,176,30.56a10.42,10.42,0,0,1-4.57,3.79,17.12,17.12,0,0,1-7.13,1.36,16,16,0,0,1-8.15-1.87,10.83,10.83,0,0,1-3.7-3.58A8.16,8.16,0,0,1,151,25.9a2.91,2.91,0,0,1,.86-2.11,2.88,2.88,0,0,1,2.17-.88,2.54,2.54,0,0,1,1.81.69,5.28,5.28,0,0,1,1.27,2,13,13,0,0,0,1.38,2.67,5.51,5.51,0,0,0,2.08,1.76,7.61,7.61,0,0,0,3.53.7,8,8,0,0,0,4.89-1.4,4.23,4.23,0,0,0,1.88-3.5,3.68,3.68,0,0,0-1-2.7,6.46,6.46,0,0,0-2.62-1.58A43.49,43.49,0,0,0,163,20.41a32.32,32.32,0,0,1-6-2,9.76,9.76,0,0,1-3.84-3.08,8,8,0,0,1-1.43-4.84,8.27,8.27,0,0,1,1.51-4.9,9.52,9.52,0,0,1,4.35-3.29,17.91,17.91,0,0,1,6.69-1.15,16.55,16.55,0,0,1,5.32.77,11,11,0,0,1,3.72,2,8.57,8.57,0,0,1,2.17,2.66,6.17,6.17,0,0,1,.68,2.71,3.18,3.18,0,0,1-.85,2.17,2.71,2.71,0,0,1-2.13,1,2.44,2.44,0,0,1-1.77-.58,7.93,7.93,0,0,1-1.31-1.9,8.47,8.47,0,0,0-2.18-2.95A6.38,6.38,0,0,0,163.77,6a7.08,7.08,0,0,0-4.23,1.15,3.35,3.35,0,0,0-1.6,2.77,2.85,2.85,0,0,0,.54,1.73A4.74,4.74,0,0,0,160,12.89a10.07,10.07,0,0,0,1.93.82q1,.3,3.24.87A51.57,51.57,0,0,1,170.27,16,15.35,15.35,0,0,1,174.16,18a8,8,0,0,1,2.51,2.88A9.23,9.23,0,0,1,177.57,25.12Z"/><path d="M192.12,5.24l13,19.68V5.05a4.38,4.38,0,0,1,.83-2.9,2.81,2.81,0,0,1,2.24-1,2.9,2.9,0,0,1,2.3,1,4.27,4.27,0,0,1,.85,2.9V31.32q0,4.4-3.65,4.39a5,5,0,0,1-1.64-.26,4.06,4.06,0,0,1-1.36-.83,8.1,8.1,0,0,1-1.19-1.33c-.36-.51-.73-1-1.09-1.56L189.73,12.28V31.84a4.12,4.12,0,0,1-.89,2.89,3.14,3.14,0,0,1-4.57,0,4.24,4.24,0,0,1-.87-2.88V6.08a7.35,7.35,0,0,1,.36-2.57,3.65,3.65,0,0,1,1.44-1.68,3.93,3.93,0,0,1,2.16-.65,3.68,3.68,0,0,1,1.56.3,3.56,3.56,0,0,1,1.14.8,7.72,7.72,0,0,1,1,1.29C191.41,4.11,191.76,4.66,192.12,5.24Z"/><path d="M221.46,7.54a3.27,3.27,0,0,1-2.22-.8,2.79,2.79,0,0,1-.92-2.25,2.81,2.81,0,0,1,.94-2.18,3.17,3.17,0,0,1,2.2-.85,3.24,3.24,0,0,1,2.14.77,2.78,2.78,0,0,1,.93,2.26,2.84,2.84,0,0,1-.91,2.24A3.12,3.12,0,0,1,221.46,7.54ZM224.53,14v18a4,4,0,0,1-.88,2.83,3,3,0,0,1-2.26,1,2.79,2.79,0,0,1-2.22-1,4.11,4.11,0,0,1-.85-2.8V14.14a4,4,0,0,1,.85-2.78,2.88,2.88,0,0,1,2.22-.93,3,3,0,0,1,2.26.93A3.64,3.64,0,0,1,224.53,14Z"/><path d="M244.08,32.25V28H232.64a4.65,4.65,0,0,1-3.24-1,3.41,3.41,0,0,1-1.08-2.66,2.52,2.52,0,0,1,.16-.88,4.51,4.51,0,0,1,.47-.93c.22-.33.44-.64.66-.95l.85-1.11L242.53,4.35A18.59,18.59,0,0,1,244.48,2a2.56,2.56,0,0,1,1.83-.72q3.47,0,3.46,4V22.91h1a6.86,6.86,0,0,1,2.81.48,2.05,2.05,0,0,1,1.06,2.1,2.18,2.18,0,0,1-.86,1.92,4.6,4.6,0,0,1-2.6.6h-1.39v4.24a3.82,3.82,0,0,1-.77,2.61,2.92,2.92,0,0,1-4.14,0A3.8,3.8,0,0,1,244.08,32.25Zm-9.8-9.34h9.8V9.68Z"/><path d="M265.92,5.28V17L279.2,3.14a12.12,12.12,0,0,1,1.63-1.48,3,3,0,0,1,1.79-.48A3.27,3.27,0,0,1,285,2a2.76,2.76,0,0,1,.9,2.08,4.16,4.16,0,0,1-1.52,2.94l-8.22,7.79,9.47,13.57a16.66,16.66,0,0,1,1.5,2.48,4.69,4.69,0,0,1,.5,2.06,2.56,2.56,0,0,1-.87,1.93,3.34,3.34,0,0,1-2.38.82,4,4,0,0,1-2.3-.6,5.08,5.08,0,0,1-1.51-1.61c-.41-.66-.77-1.27-1.09-1.82l-8-12.3-5.54,5.31v6.9a4.39,4.39,0,0,1-1,3.11,3.23,3.23,0,0,1-2.46,1,3.34,3.34,0,0,1-1.66-.45A3.3,3.3,0,0,1,259.61,34a4.18,4.18,0,0,1-.39-1.48c0-.56-.06-1.38-.06-2.44V5.28a4.54,4.54,0,0,1,.9-3.07,3.06,3.06,0,0,1,2.44-1,3.23,3.23,0,0,1,2.48,1A4.37,4.37,0,0,1,265.92,5.28Z"/><path d="M296.35,7.54a3.27,3.27,0,0,1-2.22-.8,2.79,2.79,0,0,1-.92-2.25,2.81,2.81,0,0,1,.94-2.18,3.18,3.18,0,0,1,2.2-.85,3.22,3.22,0,0,1,2.14.77,2.78,2.78,0,0,1,.94,2.26,2.84,2.84,0,0,1-.92,2.24A3.12,3.12,0,0,1,296.35,7.54ZM299.43,14v18a4,4,0,0,1-.89,2.83,3,3,0,0,1-2.26,1,2.79,2.79,0,0,1-2.22-1,4.11,4.11,0,0,1-.85-2.8V14.14a4,4,0,0,1,.85-2.78,2.88,2.88,0,0,1,2.22-.93,3,3,0,0,1,2.26.93A3.64,3.64,0,0,1,299.43,14Z"/><path d="M55.27,36.46H50.75V56.93c0,2.69-.59,4.68-1.78,6a6,6,0,0,1-4.65,1.91,5.92,5.92,0,0,1-4.78-2,8.88,8.88,0,0,1-1.69-5.87v-49c0-2.78.62-4.8,1.87-6S43,0,45.76,0h21a63,63,0,0,1,7.43.37,18.92,18.92,0,0,1,5.56,1.5A16,16,0,0,1,85,5.48a15.74,15.74,0,0,1,3.5,5.45,18.11,18.11,0,0,1,1.19,6.58q0,7.14-4,11.39t-12.19,6a23.76,23.76,0,0,1,6.56,5.39,55,55,0,0,1,5.58,7.58,56.75,56.75,0,0,1,3.83,7.26,14.32,14.32,0,0,1,1.36,4.45,4.5,4.5,0,0,1-.8,2.5,5.69,5.69,0,0,1-2.19,2,6.91,6.91,0,0,1-3.22.71,6.26,6.26,0,0,1-3.65-1,9.75,9.75,0,0,1-2.54-2.58c-.71-1-1.68-2.58-2.89-4.61L70.4,48a47.89,47.89,0,0,0-5-7.22A12.33,12.33,0,0,0,61,37.37,15.33,15.33,0,0,0,55.27,36.46Z"/><path class="cls-1" d="M62.66,9.69H55a4.21,4.21,0,0,0-4.21,4.2v7.85a5.46,5.46,0,0,0,5.47,5.46h6.09a32.3,32.3,0,0,0,7.83-.8A9.18,9.18,0,0,0,75,23.66a7.84,7.84,0,0,0,1.67-5.32,8.26,8.26,0,0,0-1.34-4.67,8.12,8.12,0,0,0-3.74-3Q69.31,9.69,62.66,9.69Z"/><line class="cls-2" x1="15.79" y1="47.03" x2="2" y2="49.46"/><line class="cls-2" x1="28.76" y1="72.75" x2="16.03" y2="85.48"/><line class="cls-2" x1="62.1" y1="85.12" x2="62.1" y2="107.12"/><line class="cls-2" x1="95.73" y1="72.56" x2="108.46" y2="85.29"/><line class="cls-2" x1="108.19" y1="47.98" x2="121.97" y2="50.41"/><path class="cls-2" d="M108.88,39.2q0,21.6-13.71,33.76A47.41,47.41,0,0,1,62.62,85.12q-19.54,0-33.42-12T15.32,39.2"/></g></g></svg>