<svg xmlns="http://www.w3.org/2000/svg" viewBox="0 0 218 85.1">
  <defs>
    <style>
      .cls-1 {
        fill: #fff;
        stroke: #000;
        stroke-miterlimit: 10;
        stroke-width: 2px;
        opacity: 0.9;
      }
    </style>
  </defs>
  <title>лого рамка 90</title>
  <g id="Слой_4" data-name="Слой 4">
    <rect class="cls-1" x="6.7" y="3.6" width="203.5" height="78" rx="12" ry="12"/>
    <path d="M88.9,36.8H74.8a1,1,0,0,0-1,1,22.5,22.5,0,0,1-45,0,1,1,0,0,0-1-1H14a1,1,0,0,0-1,1,1.1,1.1,0,0,0,1,1H26.8a33.2,33.2,0,0,0,.6,4.4L15,46.5a1,1,0,0,0-.7,1.2.9.9,0,0,0,1,.7h.2l12.4-3.3a29.5,29.5,0,0,0,1.7,4.1L18.5,55.6a1,1,0,0,0-.3,1.4.9.9,0,0,0,.8.5l.5-.2,11.1-6.4a18.7,18.7,0,0,0,2.8,3.5l-9.1,9.1a1,1,0,0,0,0,1.4.9.9,0,0,0,.7.3,1.1,1.1,0,0,0,.7-.3l9.1-9.1a23.3,23.3,0,0,0,3.5,2.7L31.8,69.7a1,1,0,0,0,.4,1.3l.5.2a1.1,1.1,0,0,0,.9-.5L40,59.5a20.9,20.9,0,0,0,4.1,1.7L40.8,73.7a.9.9,0,0,0,.7,1.2h.2a1,1,0,0,0,1-.7L46,61.7a33.2,33.2,0,0,0,4.4.6V75.2a1,1,0,0,0,1,1,.9.9,0,0,0,1-1v-13a21.2,21.2,0,0,0,4.4-.5l3.3,12.5a1.2,1.2,0,0,0,1,.7h.3a1,1,0,0,0,.7-1.2L58.7,61.1a20.9,20.9,0,0,0,4.1-1.7l6.5,11.3a1,1,0,0,0,.8.5h.5a1,1,0,0,0,.4-1.4L64.5,58.4A29.7,29.7,0,0,0,68,55.7L77.2,65a.9.9,0,0,0,.7.3,1.1,1.1,0,0,0,.7-.3,1,1,0,0,0,0-1.4l-9.2-9.3A21.8,21.8,0,0,0,72,50.9l11.3,6.5h.5a1.1,1.1,0,0,0,.9-.5.9.9,0,0,0-.4-1.3L73,49.1a20,20,0,0,0,1.7-4l12.6,3.4h.3a1.2,1.2,0,0,0,1-.7,1.1,1.1,0,0,0-.8-1.3L75.2,43.1a29.7,29.7,0,0,0,.6-4.3H88.9a1,1,0,0,0,1-1A1.1,1.1,0,0,0,88.9,36.8Z"/>
    <path d="M36.2,16.6c0-3.6,1.9-4.7,4.8-4.7H54.4c9.7,0,12.2,5.3,12.2,9.9s-2.2,7.6-6.1,8.5h0c4.2.6,4.9,3.6,4.9,7.2s1.1,5.6,1.1,7.3-1.9,3.2-3.8,3.2c-4.5,0-4.8-4.3-4.8-5.8,0-6.2-1.1-8.7-5.6-8.7h-8V44a3.8,3.8,0,0,1-4,4.1A3.9,3.9,0,0,1,36.2,44Zm8.1,11.1h8.1c3.1,0,6.1-.8,6.1-4.8s-2.3-4.8-5.8-4.8H44.3Z"/>
    <path d="M75,15.8c0-1.9,1-2.5,2.6-2.5H87.9c1.3,0,2.2.3,2.2,1.7s-.9,1.8-2.2,1.8H79.4V21h7.5c1.1,0,2,.3,2,1.7s-.9,1.7-2,1.7H79.4V29h8.7c1.3,0,2.2.4,2.2,1.8s-.9,1.8-2.2,1.8H77.6A2.3,2.3,0,0,1,75,30Z"/>
    <path d="M103.4,21.4c4,.9,5,3.3,5,5.5s-2.6,6.1-7.9,6.1-8.1-2.8-8.1-4.9a1.8,1.8,0,0,1,1.9-1.8c2.3,0,1.7,3.5,6.2,3.5,2.3,0,3.5-1.3,3.5-2.6s-.4-1.6-1.9-2L97.2,24c-4-1-4.7-3.2-4.7-5.3,0-4.3,3.9-5.9,7.7-5.9s7.4,1.9,7.4,4.5a1.8,1.8,0,0,1-2,1.7c-2,0-1.6-2.8-5.7-2.8-2.1,0-3.2.9-3.2,2.3s1.6,1.7,3,2Z"/>
    <path d="M111.5,15.5c0-1.8.9-2.6,2.8-2.6a2.5,2.5,0,0,1,2.2,1.2l7.7,12.4h0V15a1.9,1.9,0,0,1,2.2-2.1,1.9,1.9,0,0,1,2.1,2.1V30.2c0,1.7-.8,2.7-2.6,2.7s-1.9-.3-2.4-1.2l-7.7-12h0V30.8a1.9,1.9,0,0,1-2.1,2.1,1.9,1.9,0,0,1-2.2-2.1Z"/>
    <path d="M132.2,20.1a1.7,1.7,0,0,1,1.9-1.9c1.6,0,2,.9,2,1.9V30.9a1.7,1.7,0,0,1-2,2c-1.5,0-1.9-.9-1.9-2Z"/>
    <path d="M148.7,12.8c5.1,0,7.8,3.2,7.8,5a1.8,1.8,0,0,1-2,2c-2.5,0-1.8-3.5-5.8-3.5s-5,2.4-5,6.6,1.4,6.6,5.2,6.6,3.4-3.7,5.5-3.7a1.9,1.9,0,0,1,2.1,1.7c0,2.7-3.4,5.5-7.6,5.5-6,0-9.6-3.4-9.6-10.1S142.5,12.8,148.7,12.8Z"/>
    <path d="M159.2,15.1a2.1,2.1,0,0,1,2.2-2.2,2,2,0,0,1,2.2,2.2v5.5h8V15.1a2.1,2.1,0,0,1,2.2-2.2,2,2,0,0,1,2.2,2.2V30.7a2,2,0,0,1-2.2,2.2,2.1,2.1,0,0,1-2.2-2.2V24.3h-8v6.4a2,2,0,0,1-2.2,2.2,2.1,2.1,0,0,1-2.2-2.2Z"/>
    <path d="M180.1,15.1a2,2,0,0,1,2.2-2.2,2.1,2.1,0,0,1,2.2,2.2v6.4l6.9-7.6a2.2,2.2,0,0,1,1.7-1,1.9,1.9,0,0,1,2.1,1.8,2,2,0,0,1-.7,1.5L190,20.9l5.3,8.1c.4.7.9,1.2.9,1.8a2,2,0,0,1-2.3,2.1c-.9,0-1.3-.2-1.9-1.2l-5.1-7.8-2.4,2.4v4.4a2.1,2.1,0,0,1-2.2,2.2,2,2,0,0,1-2.2-2.2Z"/>
    <path d="M198.2,20.1a1.7,1.7,0,0,1,1.9-1.9c1.6,0,2,.9,2,1.9V30.9a1.7,1.7,0,0,1-2,2c-1.5,0-1.9-.9-1.9-2Z"/>
    <path d="M137.3,13.5l.2-.2c0-.2-.1-.3-.2-.3h-1.2c-.1,0-.2.1-.2.3a1.8,1.8,0,0,1-1.7,1.7,1.7,1.7,0,0,1-1.7-1.7.3.3,0,0,0-.3-.3h-1.1a.3.3,0,0,0-.3.3c0,.1.1.2.3.2h.9l-.9.2c-.1.1-.2.2-.1.3a.2.2,0,0,0,.2.2h.1l.8-.2h.1l-.8.5c-.1.1-.2.2-.1.3l.2.2h.1l.8-.4h.1l-.7.7a.2.2,0,0,0,0,.3h.4l.6-.6h.1l-.5.8a.6.6,0,0,0,.1.4h.4l.4-.8h.1l-.3.9c0,.1.1.3.2.3h.1a.2.2,0,0,0,.2-.2l.3-.9h0v1c0,.1.1.2.3.2a.2.2,0,0,0,.2-.2v-1h.1l.2.9.3.2h.1a.2.2,0,0,0,.1-.3l-.2-.9h.1l.4.8h.4a.6.6,0,0,0,.1-.4l-.5-.8h0l.7.6h.4a.2.2,0,0,0,0-.3l-.7-.7h0l.8.4h.2l.2-.2c.1-.1,0-.2-.1-.3l-.8-.5h0l.9.2h.1a.2.2,0,0,0,.2-.2c.1-.1,0-.2-.2-.3l-.9-.2h1Z"/>
    <path d="M203.2,13.2c.2,0,.3-.1.3-.2a.3.3,0,0,0-.3-.3h-1.1a.3.3,0,0,0-.3.3,1.7,1.7,0,0,1-1.7,1.7,1.8,1.8,0,0,1-1.7-1.7c0-.2-.1-.3-.2-.3H197c-.1,0-.2.1-.2.3l.2.2h.9a.1.1,0,0,0,.1.1l-.9.2c-.2.1-.2.2-.2.3s.1.2.2.2h.1l.9-.2h0l-.8.4c-.1.1-.1.2-.1.4h.4l.8-.4h0l-.6.7c-.1.1-.1.3,0,.3h.3l.7-.6h0l-.4.8c-.1.2-.1.3.1.4h.3l.5-.8h0l-.2.9c-.1.1,0,.3.2.3h0c.1,0,.2,0,.3-.2l.2-.9h.1v.9l.2.2c.2,0,.3-.1.3-.2v-.9h0l.3.9c0,.2.1.2.2.2h.1c.1,0,.2-.2.2-.3l-.3-.9h.1l.5.8h.3c.1-.1.2-.2.1-.4l-.5-.8h.1l.6.7h.4a.3.3,0,0,0,0-.4l-.7-.7h.1l.8.4a.1.1,0,0,0,.1.1h.2c.1-.2.1-.3-.1-.4l-.8-.4h.1l.9.2h0c.1,0,.2,0,.3-.2s-.1-.2-.2-.3l-.9-.2h.9Z"/>
  </g>
</svg>
