<svg xmlns="http://www.w3.org/2000/svg" viewBox="0 0 452.7 158">
  <defs>
    <style>
      .cls-1 {
        fill: #000105;
      }
    </style>
  </defs>
  <title>лого без рамки</title>
  <g id="Заглушка_нет_фотографии" data-name="Заглушка нет фотографии">
    <g>
      <path class="cls-1" d="M180.6,62.1H148.1a2.3,2.3,0,0,0-2.4,2.3,52.3,52.3,0,1,1-104.5,0A2.3,2.3,0,0,0,38.9,62H6.9a2.3,2.3,0,0,0,0,4.6H36.6A58.1,58.1,0,0,0,38,76.9L9.3,84.6a2.3,2.3,0,0,0-1.7,2.8,2.4,2.4,0,0,0,2.3,1.7h.6l28.7-7.6a56.3,56.3,0,0,0,4,9.5L17.4,105.8a2.3,2.3,0,0,0-.9,3.1,2.2,2.2,0,0,0,2,1.2,2.7,2.7,0,0,0,1.2-.3L45.5,94.9a54.9,54.9,0,0,0,6.3,8.1L30.7,124.1a2.4,2.4,0,0,0,0,3.3,2,2,0,0,0,1.6.7,2.3,2.3,0,0,0,1.7-.7l21.1-21.1a54.3,54.3,0,0,0,8.1,6.2L48.3,138.4a2.3,2.3,0,0,0,.8,3.2,2.7,2.7,0,0,0,1.2.3,2.2,2.2,0,0,0,2-1.2l15-25.9a51.7,51.7,0,0,0,9.4,3.9l-7.7,29a2.3,2.3,0,0,0,1.6,2.8h.6a2.4,2.4,0,0,0,2.3-1.7l7.7-29a56.9,56.9,0,0,0,10.2,1.3v30a2.3,2.3,0,1,0,4.6,0v-30a67.7,67.7,0,0,0,10.2-1.4l7.8,29.1a2.3,2.3,0,0,0,2.2,1.7h.6a2.2,2.2,0,0,0,1.6-2.8l-7.8-29.1a60.3,60.3,0,0,0,9.4-4l15.1,26.2a2.6,2.6,0,0,0,2.1,1.2,1.9,1.9,0,0,0,1.1-.4,2.3,2.3,0,0,0,.9-3.1L124,112.3a54.3,54.3,0,0,0,8.1-6.2l21.4,21.4a2.3,2.3,0,0,0,3.3,0,2.4,2.4,0,0,0,0-3.3l-21.4-21.4a53.7,53.7,0,0,0,6.1-8.1l26.3,15.2a2.7,2.7,0,0,0,1.2.3,2.3,2.3,0,0,0,1.1-4.3L143.9,90.7a60,60,0,0,0,3.9-9.4l29.3,7.9h.6a2.2,2.2,0,0,0,2.2-1.7,2.3,2.3,0,0,0-1.6-2.8L149,76.8a54.7,54.7,0,0,0,1.3-10h30.3a2.4,2.4,0,1,0,0-4.7Z"/>
      <path class="cls-1" d="M58.5,15.3c0-8.3,4.4-11,11-11h31.2c22.4,0,28.3,12.3,28.3,22.9,0,9-5.3,17.8-14.2,19.8v.3c9.6,1.3,11.4,8.3,11.4,16.7s2.5,13,2.5,16.9-4.5,7.3-8.8,7.3c-10.3,0-11.2-9.9-11.2-13.2,0-14.5-2.6-20.3-12.9-20.3H77.3V78.8c0,5.7-3.7,9.4-9.4,9.4s-9.4-3.7-9.4-9.4ZM77.3,41H96c7.1,0,14.2-1.9,14.2-11.1s-5.3-11.1-13.6-11.1H77.3Z"/>
      <path class="cls-1" d="M148.5,13.4c0-4.5,2.4-5.9,6-5.9h23.9c3,0,5.2.8,5.2,4.1s-2.2,4.1-5.2,4.1H158.7v9.7H176c2.7,0,4.8.7,4.8,3.9s-2.1,3.9-4.8,3.9H158.7V44h20.2c3,0,5.2.9,5.2,4.1s-2.2,4.1-5.2,4.1H154.5c-3.6,0-6-1.4-6-5.9Z"/>
      <path class="cls-1" d="M214.3,26.3C223.6,28.4,226,34,226,39.2c0,8.1-6.1,14.1-18.4,14.1S188.8,46.8,188.8,42a4.1,4.1,0,0,1,4.3-4.2c5.6,0,4.1,8,14.5,8,5.3,0,8.2-2.9,8.2-5.9s-.9-3.8-4.4-4.6l-11.5-3C190.7,30,189,24.9,189,20.1c0-10,9.2-13.7,17.8-13.7s17.4,4.5,17.4,10.5c0,2.5-2.2,4-4.7,4-4.7,0-3.8-6.7-13.4-6.7-4.7,0-7.3,2.2-7.3,5.3s3.7,4.1,7,4.9Z"/>
      <path class="cls-1" d="M233.2,12.6c0-4.2,2.1-5.9,6.4-5.9a5.6,5.6,0,0,1,5.1,2.6l17.9,28.8h.1V11.6c0-3.3,1.9-4.9,4.9-4.9s4.9,1.6,4.9,4.9V46.7c0,4.1-1.7,6.4-6,6.4s-4.3-.7-5.6-2.8l-17.7-28h-.1V48.1c0,3.3-1.9,5-4.9,5s-5-1.7-5-5Z"/>
      <path class="cls-1" d="M281.2,23.5c0-2.5,1-4.6,4.5-4.6s4.6,2.1,4.6,4.6v25c0,2.4-1,4.6-4.6,4.6s-4.5-2.2-4.5-4.6Z"/>
      <path class="cls-1" d="M319.6,6.4c11.6,0,18.1,7.3,18.1,11.7,0,2.9-1.6,4.6-4.6,4.6-6,0-4.2-8.1-13.5-8.1-6.4,0-11.7,5.6-11.7,15.3,0,8.1,3.2,15.2,12,15.2s7.9-8.6,12.8-8.6c2.5,0,5,1.4,5,3.9,0,6.5-7.9,12.9-17.8,12.9-14,0-22.2-8-22.2-23.4C297.7,17.2,305.1,6.4,319.6,6.4Z"/>
      <path class="cls-1" d="M344,11.8a5.1,5.1,0,1,1,10.2,0V24.4h18.5V11.8a5.1,5.1,0,1,1,10.2,0V48a5.1,5.1,0,1,1-10.2,0V33H354.2V48A5.1,5.1,0,1,1,344,48Z"/>
      <path class="cls-1" d="M392.4,11.8a5.1,5.1,0,0,1,10.2,0V26.6l16-17.7c1.2-1.2,2.2-2.2,4.1-2.2s4.8,1.5,4.8,4.1a4.5,4.5,0,0,1-1.7,3.4L415.4,25.3l12.3,18.8c1,1.4,2,2.7,2,4,0,3.8-2.8,5-5.2,5s-3.2-.5-4.6-2.7L408.2,32.2l-5.6,5.6V48a5.1,5.1,0,0,1-10.2,0Z"/>
      <path class="cls-1" d="M434.3,23.5c0-2.5,1-4.6,4.6-4.6s4.5,2.1,4.5,4.6v25c0,2.4-1,4.6-4.5,4.6s-4.6-2.2-4.6-4.6Z"/>
      <path class="cls-1" d="M293,8.1a.6.6,0,0,0,.6-.6.6.6,0,0,0-.6-.6h-2.7a.6.6,0,0,0-.6.6,3.9,3.9,0,1,1-7.8,0,.6.6,0,0,0-.6-.6h-2.7a.6.6,0,0,0-.6.6.6.6,0,0,0,.6.5h2.2v.2l-2.1.6a.6.6,0,0,0-.4.7.7.7,0,0,0,.6.4h.1l2.1-.6v.2l-1.8,1.1a.5.5,0,0,0-.2.8l.5.2h.3l1.8-1.1h.1l-1.5,1.5a.7.7,0,0,0,0,.9h.8l1.6-1.5h.1l-1.1,1.8a.8.8,0,0,0,.2.8h.3a.5.5,0,0,0,.5-.3l1.1-1.8h.1l-.5,2.1a.6.6,0,0,0,.4.7h.2a.7.7,0,0,0,.5-.4l.6-2.1h.1v2.2a.6.6,0,0,0,1.2,0V12.5h.2l.5,2.1a.7.7,0,0,0,.6.4h.1a.6.6,0,0,0,.4-.7l-.5-2.1h.1l1.1,1.9a.5.5,0,0,0,.5.3h.3a.5.5,0,0,0,.2-.8l-1.1-1.9h.2l1.5,1.6h.8a.6.6,0,0,0,0-.8l-1.5-1.6h.1l1.9,1.1h.3l.5-.3a.6.6,0,0,0-.3-.8l-1.8-1.1V9.3l2.1.6h.2c.2,0,.5-.2.5-.4a.6.6,0,0,0-.4-.7l-2.1-.6H293Z"/>
      <path class="cls-1" d="M446.1,7.4a.6.6,0,0,0,.5-.6.6.6,0,0,0-.5-.6h-2.7a.6.6,0,0,0-.6.6,4,4,0,1,1-7.9,0,.6.6,0,0,0-.6-.6h-2.6a.6.6,0,0,0-.6.6.6.6,0,0,0,.6.6h2.1v.2l-2,.5a.6.6,0,0,0-.4.7.5.5,0,0,0,.5.5h.2l2-.5v.2l-1.9,1a.8.8,0,0,0-.2.8.5.5,0,0,0,.5.3h.3l1.9-1.1V10l-1.5,1.5a.5.5,0,0,0,0,.8l.4.2.4-.2,1.5-1.5h.1l-1,1.9a.4.4,0,0,0,.2.7h.3a.5.5,0,0,0,.5-.3l1-1.8h.2l-.6,2a.6.6,0,0,0,.5.7h.1a.5.5,0,0,0,.6-.4l.5-2.1h.2V14a.6.6,0,0,0,.6.6.6.6,0,0,0,.5-.6V11.9h.2l.6,2.1c0,.3.3.4.5.4h.2a.6.6,0,0,0,.4-.7l-.6-2.1h.2l1.1,1.8a.5.5,0,0,0,.5.3h.3a.8.8,0,0,0,.2-.8l-1.1-1.9h.1l1.5,1.5.5.2.4-.2a.6.6,0,0,0,0-.8L442.8,10V9.8l1.9,1.1h.3a.5.5,0,0,0,.5-.3.5.5,0,0,0-.2-.8l-1.9-1.1h.1l2.1.5a.1.1,0,0,0,.1.1.6.6,0,0,0,.6-.5.6.6,0,0,0-.4-.7l-2.1-.5V7.4Z"/>
    </g>
  </g>
</svg>
