<?xml version="1.0" encoding="utf-8"?>
<!-- Generator: Adobe Illustrator 22.1.0, SVG Export Plug-In . SVG Version: 6.00 Build 0)  -->
<svg version="1.1" id="Слой_1" xmlns="http://www.w3.org/2000/svg" xmlns:xlink="http://www.w3.org/1999/xlink" x="0px" y="0px"
	 viewBox="0 0 200 200" style="enable-background:new 0 0 200 200;" xml:space="preserve">
<style type="text/css">
	.st0{fill:none;stroke:#F0E2F3;stroke-width:0.5;stroke-linecap:round;stroke-linejoin:round;}
	.st1{fill:none;stroke:#F0E2F3;stroke-width:0.5;stroke-miterlimit:10;}
	.st2{opacity:0.5;fill:#FFFFFF;stroke:#201600;stroke-width:0.6804;stroke-miterlimit:10;}
	.st3{fill:none;}
	.st4{opacity:0.5;}
	.st5{opacity:0.5;fill:#FFFFFF;stroke:#201600;stroke-width:0.6545;stroke-miterlimit:10;}
	.st6{display:none;}
	.st7{display:inline;fill:#FFBA40;stroke:#201600;stroke-width:0.3024;stroke-miterlimit:10;}
	.st8{display:inline;fill:#FFC358;}
	.st9{display:inline;fill:#FFCB70;}
	.st10{display:inline;fill:#FFD488;}
	.st11{display:inline;fill:#FFDDA0;}
	.st12{display:inline;fill:#FFE5B7;}
	.st13{display:inline;fill:#FFEECF;}
	.st14{display:inline;fill:#FFF6E7;}
	.st15{display:inline;fill:#FFFFFF;}
	.st16{fill:#ECAEEA;}
	.st17{fill:#ECAFEA;}
	.st18{fill:#ECB0EB;}
	.st19{fill:#EDB1EB;}
	.st20{fill:#EDB2EB;}
	.st21{fill:#EDB3EB;}
	.st22{fill:#EDB4EC;}
	.st23{fill:#EEB5EC;}
	.st24{fill:#EEB6EC;}
	.st25{fill:#EEB7EC;}
	.st26{fill:#EEB8ED;}
	.st27{fill:#EFB9ED;}
	.st28{fill:#EFBAED;}
	.st29{fill:#EFBBED;}
	.st30{fill:#EFBCEE;}
	.st31{fill:#EFBDEE;}
	.st32{fill:#F0BEEE;}
	.st33{fill:#F0BFEE;}
	.st34{fill:#F0C0EF;}
	.st35{fill:#F0C1EF;}
	.st36{fill:#F1C2EF;}
	.st37{fill:#F1C3EF;}
	.st38{fill:#F1C4F0;}
	.st39{fill:#F1C5F0;}
	.st40{fill:#F2C6F0;}
	.st41{fill:#F2C7F0;}
	.st42{fill:#F2C8F1;}
	.st43{fill:#F2C9F1;}
	.st44{fill:#F2CAF1;}
	.st45{fill:#F3CBF1;}
	.st46{fill:#F3CCF2;}
	.st47{fill:#F3CDF2;}
	.st48{fill:#F3CEF2;}
	.st49{fill:#F4CFF2;}
	.st50{fill:#F4D0F3;}
	.st51{fill:#F4D1F3;}
	.st52{fill:#F4D2F3;}
	.st53{fill:#F5D3F3;}
	.st54{fill:#F5D4F4;}
	.st55{fill:#F5D5F4;}
	.st56{fill:#F5D6F4;}
	.st57{fill:#F6D7F4;}
	.st58{fill:#F6D7F5;}
	.st59{fill:#F6D8F5;}
	.st60{fill:#F6D9F5;}
	.st61{fill:#F6DAF6;}
	.st62{fill:#F7DBF6;}
	.st63{fill:#F7DCF6;}
	.st64{fill:#F7DDF6;}
	.st65{fill:#F7DEF7;}
	.st66{fill:#F8DFF7;}
	.st67{fill:#F8E0F7;}
	.st68{fill:#F8E1F7;}
	.st69{fill:#F8E2F8;}
	.st70{fill:#F9E3F8;}
	.st71{fill:#F9E4F8;}
	.st72{fill:#F9E5F8;}
	.st73{fill:#F9E6F9;}
	.st74{fill:#F9E7F9;}
	.st75{fill:#FAE8F9;}
	.st76{fill:#FAE9F9;}
	.st77{fill:#FAEAFA;}
	.st78{fill:#FAEBFA;}
	.st79{fill:#FBECFA;}
	.st80{fill:#FBEDFA;}
	.st81{fill:#FBEEFB;}
	.st82{fill:#FBEFFB;}
	.st83{fill:#FCF0FB;}
	.st84{fill:#FCF1FB;}
	.st85{fill:#FCF2FC;}
	.st86{fill:#FCF3FC;}
	.st87{fill:#FCF4FC;}
	.st88{fill:#FDF5FC;}
	.st89{fill:#FDF6FD;}
	.st90{fill:#FDF7FD;}
	.st91{fill:#FDF8FD;}
	.st92{fill:#FEF9FD;}
	.st93{fill:#FEFAFE;}
	.st94{fill:#FEFBFE;}
	.st95{fill:#FEFCFE;}
	.st96{fill:#FFFDFE;}
	.st97{fill:#FFFEFF;}
	.st98{fill:#FFFFFF;}
</style>
<g>
	<g>
		<g>
			<path class="st0" d="M143.9,62c0.2,0.4,1,0.1,1.7-0.6c0.9-0.8,1.5-1.9,1.3-2.4c-0.3-0.6-1.5-0.2-2.7,0.9c-1.5,1.3-2.4,3-2,3.7
				c0.5,0.9,2.3,0.3,4.2-1.4c2.3-2.1,3.7-4.7,3.1-5.8c-0.7-1.4-3.6-0.4-6.5,2.1c0,0-27.1,25.3-39.8,38.1"/>
			<path class="st0" d="M137.9,56c-0.4-0.2-0.1-1,0.6-1.7c0.9-0.9,1.9-1.5,2.4-1.3c0.6,0.3,0.2,1.5-0.9,2.7c-1.3,1.5-3,2.4-3.7,2
				c-0.9-0.5-0.3-2.3,1.4-4.2c2.1-2.3,4.7-3.7,5.8-3.1c1.4,0.7,0.4,3.6-2.1,6.5c0,0-25.3,27.1-38.1,39.8"/>
			<path class="st1" d="M153.9,49.5l4.1-7.4l-7.4,4.1c0,0,17-13.6,44.5-41.1C167.5,32.5,153.9,49.5,153.9,49.5z"/>
			<path class="st1" d="M199.6,0.4c-0.5-0.5-2,0.1-3.3,1.5c-1.3,1.3-2,2.8-1.5,3.3s2-0.1,3.3-1.5C199.5,2.4,200.1,0.9,199.6,0.4z"/>
			<path class="st1" d="M145.7,54.2c-0.7-0.7,0.2-2.7,1.9-4.4c1.8-1.8,3.7-2.6,4.4-1.9c0.7,0.7-0.2,2.7-1.9,4.4
				C148.4,54.1,146.4,54.9,145.7,54.2z"/>
			<path class="st1" d="M96.8,103.1c-0.7-0.7,0.2-2.7,1.9-4.4c1.8-1.8,3.7-2.6,4.4-1.9c0.7,0.7-0.2,2.7-1.9,4.4
				C99.5,103,97.5,103.8,96.8,103.1z"/>
			<path class="st0" d="M62.1,143.9c0.4,0.2,0.1,1-0.6,1.7c-0.8,0.9-1.9,1.5-2.4,1.3c-0.6-0.3-0.2-1.5,0.9-2.7c1.3-1.5,3-2.4,3.7-2
				c0.9,0.5,0.3,2.3-1.4,4.2c-2.1,2.3-4.7,3.7-5.8,3.1c-1.4-0.7-0.4-3.6,2.1-6.5c0,0,25.3-27.1,38.1-39.8"/>
			<path class="st0" d="M56.1,137.8c-0.2-0.4-1-0.1-1.7,0.6c-0.9,0.9-1.5,1.9-1.3,2.4c0.3,0.6,1.5,0.2,2.7-0.9c1.5-1.3,2.4-3,2-3.7
				c-0.5-0.9-2.3-0.3-4.1,1.4c-2.3,2.1-3.7,4.7-3.1,5.8c0.7,1.4,3.6,0.4,6.5-2.1c0,0,27.1-25.3,39.8-38.1"/>
			<path class="st1" d="M49.5,153.8l-7.4,4.1l4.1-7.4c0,0-13.6,17-41.1,44.5C32.5,167.4,49.5,153.8,49.5,153.8z"/>
			<path class="st1" d="M0.4,199.5c-0.5-0.5,0.1-2,1.5-3.3c1.3-1.3,2.8-2,3.3-1.5s-0.1,2-1.5,3.3C2.4,199.4,0.9,200,0.4,199.5z"/>
			<path class="st1" d="M54.3,145.6c-0.7-0.7-2.7,0.2-4.4,1.9c-1.8,1.8-2.6,3.7-1.9,4.4c0.7,0.7,2.7-0.2,4.4-1.9
				C54.1,148.3,55,146.3,54.3,145.6z"/>
		</g>
	</g>
</g>
<g>
	<g>
		<g>
			<path class="st0" d="M62.2,56.2c0.4-0.2,0.1-1-0.6-1.7c-0.8-0.9-1.9-1.5-2.4-1.3c-0.6,0.3-0.2,1.5,0.9,2.7c1.3,1.5,3,2.4,3.7,2
				c0.9-0.5,0.3-2.3-1.4-4.1c-2.1-2.3-4.7-3.7-5.8-3.1c-1.4,0.7-0.4,3.6,2.1,6.5c0,0,25.3,27,38.1,39.8"/>
			<path class="st0" d="M56.2,62.3c-0.2,0.4-1,0.1-1.7-0.6c-0.9-0.9-1.5-1.9-1.3-2.4c0.3-0.6,1.5-0.2,2.7,0.9c1.5,1.3,2.4,3,2,3.7
				c-0.5,0.9-2.3,0.3-4.1-1.4c-2.3-2.1-3.7-4.7-3.1-5.8c0.7-1.4,3.6-0.4,6.5,2.1c0,0,27,25.3,39.8,38.1"/>
			<path class="st1" d="M49.6,46.3l-7.4-4.1l4.1,7.4c0,0-13.6-17-41.1-44.5C32.7,32.7,49.6,46.3,49.6,46.3z"/>
			<path class="st1" d="M0.6,0.6C0.1,1.1,0.7,2.6,2,3.9s2.8,2,3.3,1.4s-0.1-2-1.4-3.3S1.1,0.1,0.6,0.6z"/>
			<path class="st1" d="M54.4,54.5c-0.7,0.7-2.7-0.2-4.4-1.9c-1.8-1.8-2.6-3.7-1.9-4.4c0.7-0.7,2.7,0.2,4.4,1.9
				C54.2,51.8,55.1,53.8,54.4,54.5z"/>
			<path class="st1" d="M103.3,103.3c-0.7,0.7-2.7-0.2-4.4-1.9c-1.8-1.8-2.6-3.7-1.9-4.4c0.7-0.7,2.7,0.2,4.4,1.9
				C103.1,100.7,104,102.7,103.3,103.3z"/>
			<path class="st0" d="M144,138c0.2-0.4,1-0.1,1.7,0.6c0.9,0.8,1.5,1.9,1.3,2.4c-0.3,0.6-1.5,0.2-2.7-0.9c-1.5-1.3-2.4-3-2-3.7
				c0.5-0.9,2.3-0.3,4.1,1.4c2.3,2.1,3.7,4.7,3.1,5.8c-0.7,1.4-3.6,0.4-6.5-2.1c0,0-27-25.3-39.8-38.1"/>
			<path class="st0" d="M138,144c-0.4,0.2-0.1,1,0.6,1.7c0.9,0.9,1.9,1.5,2.4,1.3c0.6-0.3,0.2-1.5-0.9-2.7c-1.3-1.5-3-2.4-3.7-2
				c-0.9,0.5-0.3,2.3,1.4,4.1c2.1,2.3,4.7,3.7,5.8,3.1c1.4-0.7,0.4-3.6-2.1-6.5c0,0-25.3-27-38.1-39.8"/>
			<path class="st1" d="M153.9,150.6l4.1,7.4l-7.4-4.1c0,0,17,13.6,44.5,41.1C167.5,167.6,153.9,150.6,153.9,150.6z"/>
			<path class="st1" d="M199.6,199.6c-0.5,0.5-2-0.1-3.3-1.5c-1.3-1.3-2-2.8-1.4-3.3c0.5-0.5,2,0.1,3.3,1.4
				C199.5,197.6,200.1,199.1,199.6,199.6z"/>
			<path class="st1" d="M145.7,145.8c-0.7,0.7,0.2,2.7,1.9,4.4c1.8,1.8,3.7,2.6,4.4,1.9c0.7-0.7-0.2-2.7-1.9-4.4
				C148.4,146,146.4,145.1,145.7,145.8z"/>
		</g>
	</g>
</g>
<path class="st2" d="M156.6,99.9c0,0-25.3,27.2-56.6,27.2S43.4,99.9,43.4,99.9S68.8,72.7,100,72.7S156.6,99.9,156.6,99.9z"/>
<path id="SVGID_x5F_1_x5F_" class="st3" d="M156.6,99.9c0,0-25.3,27.2-56.6,27.2S43.4,99.9,43.4,99.9S68.8,72.7,100,72.7
	S156.6,99.9,156.6,99.9z"/>
<text class="st4"><textPath  xlink:href="#SVGID_x5F_1_x5F_" startOffset="-1526.1393%">
<tspan  style="fill:#ECAEEA;stroke:#201600;stroke-width:0.2;stroke-miterlimit:10; font-family:'MyriadPro-Regular'; font-size:10.1076px;">RESNICHKI               RESNICHK       RESNICHKI             RESNICHKI </tspan></textPath>
</text>
<path class="st5" d="M156.6,99.9c0,0-32.8,21.1-56.6,21.1S43.4,99.9,43.4,99.9S76.2,78,100,78S156.6,99.9,156.6,99.9z"/>
<circle class="st2" cx="100" cy="99.7" r="15.3"/>
<g class="st6">
	<circle class="st7" cx="98.6" cy="-14" r="6.8"/>
	<circle class="st8" cx="98.6" cy="-14" r="6.1"/>
	<circle class="st9" cx="98.6" cy="-14" r="5.4"/>
	<circle class="st10" cx="98.6" cy="-14" r="4.8"/>
	<circle class="st11" cx="98.6" cy="-14" r="4.1"/>
	<circle class="st12" cx="98.6" cy="-14" r="3.4"/>
	<circle class="st13" cx="98.6" cy="-14" r="2.7"/>
	<circle class="st14" cx="98.6" cy="-14" r="2.1"/>
	<circle class="st15" cx="98.6" cy="-14" r="1.4"/>
</g>
<circle class="st2" cx="100" cy="99.7" r="10.1"/>
<g class="st4">
	<circle class="st16" cx="100" cy="99.7" r="10.1"/>
	<circle class="st17" cx="100" cy="99.7" r="10"/>
	<circle class="st18" cx="100" cy="99.7" r="9.9"/>
	<circle class="st19" cx="100" cy="99.7" r="9.8"/>
	<circle class="st20" cx="100" cy="99.7" r="9.7"/>
	<circle class="st21" cx="100" cy="99.7" r="9.6"/>
	<circle class="st22" cx="100" cy="99.7" r="9.4"/>
	<circle class="st23" cx="100" cy="99.7" r="9.3"/>
	<circle class="st24" cx="100" cy="99.7" r="9.2"/>
	<circle class="st25" cx="100" cy="99.7" r="9.1"/>
	<circle class="st26" cx="100" cy="99.7" r="9"/>
	<circle class="st27" cx="100" cy="99.7" r="8.9"/>
	<circle class="st28" cx="100" cy="99.7" r="8.8"/>
	<circle class="st29" cx="100" cy="99.7" r="8.7"/>
	<circle class="st30" cx="100" cy="99.7" r="8.6"/>
	<circle class="st31" cx="100" cy="99.7" r="8.4"/>
	<circle class="st32" cx="100" cy="99.7" r="8.3"/>
	<circle class="st33" cx="100" cy="99.7" r="8.2"/>
	<circle class="st34" cx="100" cy="99.7" r="8.1"/>
	<circle class="st35" cx="100" cy="99.7" r="8"/>
	<circle class="st36" cx="100" cy="99.7" r="7.9"/>
	<circle class="st37" cx="100" cy="99.7" r="7.8"/>
	<circle class="st38" cx="100" cy="99.7" r="7.7"/>
	<circle class="st39" cx="100" cy="99.7" r="7.6"/>
	<circle class="st40" cx="100" cy="99.7" r="7.5"/>
	<circle class="st41" cx="100" cy="99.7" r="7.3"/>
	<circle class="st42" cx="100" cy="99.7" r="7.2"/>
	<circle class="st43" cx="100" cy="99.7" r="7.1"/>
	<circle class="st44" cx="100" cy="99.7" r="7"/>
	<circle class="st45" cx="100" cy="99.7" r="6.9"/>
	<circle class="st46" cx="100" cy="99.7" r="6.8"/>
	<circle class="st47" cx="100" cy="99.7" r="6.7"/>
	<circle class="st48" cx="100" cy="99.7" r="6.6"/>
	<circle class="st49" cx="100" cy="99.7" r="6.5"/>
	<circle class="st50" cx="100" cy="99.7" r="6.4"/>
	<circle class="st51" cx="100" cy="99.7" r="6.2"/>
	<circle class="st52" cx="100" cy="99.7" r="6.1"/>
	<circle class="st53" cx="100" cy="99.7" r="6"/>
	<circle class="st54" cx="100" cy="99.7" r="5.9"/>
	<circle class="st55" cx="100" cy="99.7" r="5.8"/>
	<circle class="st56" cx="100" cy="99.7" r="5.7"/>
	<circle class="st57" cx="100" cy="99.7" r="5.6"/>
	<circle class="st58" cx="100" cy="99.7" r="5.5"/>
	<circle class="st59" cx="100" cy="99.7" r="5.4"/>
	<circle class="st60" cx="100" cy="99.7" r="5.3"/>
	<circle class="st61" cx="100" cy="99.7" r="5.1"/>
	<circle class="st62" cx="100" cy="99.7" r="5"/>
	<circle class="st63" cx="100" cy="99.7" r="4.9"/>
	<circle class="st64" cx="100" cy="99.7" r="4.8"/>
	<circle class="st65" cx="100" cy="99.7" r="4.7"/>
	<circle class="st66" cx="100" cy="99.7" r="4.6"/>
	<circle class="st67" cx="100" cy="99.7" r="4.5"/>
	<circle class="st68" cx="100" cy="99.7" r="4.4"/>
	<circle class="st69" cx="100" cy="99.7" r="4.3"/>
	<circle class="st70" cx="100" cy="99.7" r="4.1"/>
	<circle class="st71" cx="100" cy="99.7" r="4"/>
	<circle class="st72" cx="100" cy="99.7" r="3.9"/>
	<circle class="st73" cx="100" cy="99.7" r="3.8"/>
	<circle class="st74" cx="100" cy="99.7" r="3.7"/>
	<circle class="st75" cx="100" cy="99.7" r="3.6"/>
	<circle class="st76" cx="100" cy="99.7" r="3.5"/>
	<circle class="st77" cx="100" cy="99.7" r="3.4"/>
	<circle class="st78" cx="100" cy="99.7" r="3.3"/>
	<circle class="st79" cx="100" cy="99.7" r="3.2"/>
	<circle class="st80" cx="100" cy="99.7" r="3"/>
	<circle class="st81" cx="100" cy="99.7" r="2.9"/>
	<circle class="st82" cx="100" cy="99.7" r="2.8"/>
	<circle class="st83" cx="100" cy="99.7" r="2.7"/>
	<circle class="st84" cx="100" cy="99.7" r="2.6"/>
	<circle class="st85" cx="100" cy="99.7" r="2.5"/>
	<circle class="st86" cx="100" cy="99.7" r="2.4"/>
	<circle class="st87" cx="100" cy="99.7" r="2.3"/>
	<circle class="st88" cx="100" cy="99.7" r="2.2"/>
	<circle class="st89" cx="100" cy="99.7" r="2.1"/>
	<circle class="st90" cx="100" cy="99.7" r="1.9"/>
	<circle class="st91" cx="100" cy="99.7" r="1.8"/>
	<circle class="st92" cx="100" cy="99.7" r="1.7"/>
	<circle class="st93" cx="100" cy="99.7" r="1.6"/>
	<circle class="st94" cx="100" cy="99.7" r="1.5"/>
	<circle class="st95" cx="100" cy="99.7" r="1.4"/>
	<circle class="st96" cx="100" cy="99.7" r="1.3"/>
	<circle class="st97" cx="100" cy="99.7" r="1.2"/>
	<circle class="st98" cx="100" cy="99.7" r="1.1"/>
</g>
<text transform="matrix(1 0 0 1 413 102.5)" style="font-family:'MyriadPro-Regular'; font-size:12px;"> </text>
</svg>
