<svg xmlns="http://www.w3.org/2000/svg" viewBox="0 0 400 400"><defs><style>.cls-1{opacity:0.4;}.cls-2{fill:#af54a1;}.cls-11,.cls-12,.cls-13,.cls-14,.cls-3,.cls-4,.cls-8{fill:none;}.cls-13,.cls-14,.cls-3,.cls-4,.cls-8{stroke:#000;}.cls-11,.cls-12,.cls-14,.cls-3,.cls-4{stroke-miterlimit:10;}.cls-11,.cls-12,.cls-13,.cls-3,.cls-4,.cls-8{stroke-width:2px;}.cls-12,.cls-13,.cls-4{stroke-linecap:round;}.cls-5{fill:#ffefbe;}.cls-6{fill:#51bfb6;}.cls-7{fill:#fff;}.cls-13,.cls-8{stroke-linejoin:round;}.cls-9{fill:#b1b5dd;}.cls-10{fill:#201600;}.cls-11,.cls-12{stroke:#201600;}</style></defs><title>Паттерн цвет 40</title><g id="Паттерн"><g class="cls-1"><path class="cls-2" d="M368.08,356c-3.25,10-25.61,18.16-31.57,14.26-2.36,1.15-8,3.51-13,2.53a1.87,1.87,0,0,1-1.44-1.3c-6-20.42,2.33-34.69,6.05-42.56a1,1,0,0,0-.66-1.33c-4.09-1-7.1-2.38-9.1-5.21a1.58,1.58,0,0,1-.26-1.28,7.06,7.06,0,0,1,2.65-3.59,8.8,8.8,0,0,1,10.16-.58.77.77,0,0,0,1.15-.54,8,8,0,0,1,7.07-7,11.75,11.75,0,0,1,4.5.17,1.42,1.42,0,0,1,1.06,1.26c.38,4.08-.13,6.13-2.5,10.22a1,1,0,0,0,.45,1.43c6.4,2.78,25.74,4.07,36.86,23.82a1.11,1.11,0,0,1,0,1.1C377.09,351.45,373.63,354.05,368.08,356Z"/><path class="cls-3" d="M336.51,370.24c-2.36,1.15-8,3.51-13,2.53a1.87,1.87,0,0,1-1.44-1.3c-6-20.42,2.33-34.69,6.05-42.56a1,1,0,0,0-.66-1.33c-4.09-1-7.1-2.38-9.1-5.21a1.58,1.58,0,0,1-.26-1.28,7.06,7.06,0,0,1,2.65-3.59,8.8,8.8,0,0,1,10.16-.58.77.77,0,0,0,1.15-.54,8,8,0,0,1,7.07-7,11.75,11.75,0,0,1,4.5.17,1.42,1.42,0,0,1,1.06,1.26c.38,4.08-.13,6.13-2.5,10.22a1,1,0,0,0,.45,1.43c6.4,2.78,25.74,4.07,36.86,23.82a1.11,1.11,0,0,1,0,1.1c-2.44,4.07-5.9,6.67-11.45,8.6C364.83,365.94,342.47,374.14,336.51,370.24Z"/><path class="cls-4" d="M336.51,370.24c-2.71-7.72-3.49-16.68-2.22-22.84"/><path class="cls-4" d="M368.08,356c-1.3-3.85-9-14.25-15-16.75"/><line class="cls-4" x1="320.79" y1="317.5" x2="316.97" y2="309.06"/><line class="cls-4" x1="339.17" y1="309.38" x2="335.28" y2="300.79"/><path class="cls-5" d="M186.81,358.13v16.26a2.23,2.23,0,0,1-2.22,2.22h-1.67a3.67,3.67,0,0,1-2-.62l-3.06-2.05a3,3,0,0,1-1.33-2.5V361.1a2.72,2.72,0,0,1,1.32-2.33l2.74-1.66a5.21,5.21,0,0,1,2.71-.76H185A1.78,1.78,0,0,1,186.81,358.13Z"/><path class="cls-6" d="M172.79,345.57a3.28,3.28,0,0,1,3.19-2.52h7.14a3.28,3.28,0,0,1,3.28,3.28v3.17a3.29,3.29,0,0,1-3.28,3.28H176a3.28,3.28,0,0,1-3.11-2.25,2.94,2.94,0,0,1-.18-1v-3.17A3.17,3.17,0,0,1,172.79,345.57Z"/><polygon class="cls-7" points="176.5 361.1 176.5 371.44 176.5 372.75 169.99 372.75 169.99 370.71 169.99 359.79 176.5 359.79 176.5 361.1"/><path class="cls-7" d="M160.3,380.4a9.69,9.69,0,0,0,9.69-9.68h0v11.43a2.75,2.75,0,0,1-2.75,2.75h-6.38a4.39,4.39,0,0,1-4.39-4.39v-.11Z"/><path class="cls-7" d="M170,350.53h0a7.65,7.65,0,0,0-1.67-4.87l-.06-.08h4.53a3.17,3.17,0,0,0-.1.76v3.17a2.94,2.94,0,0,0,.18,1Z"/><path class="cls-7" d="M165.76,352.09l-1.26.54a9.7,9.7,0,0,0-4.2-1H149.83a4.3,4.3,0,0,1,4-4.34h8C164,347.33,165.76,349.88,165.76,352.09Z"/><rect class="cls-2" x="140.79" y="358.79" width="12.96" height="8.46" rx="2.81" ry="2.81"/><path class="cls-7" d="M149.83,351.67h-4.41c0-2.28,1.78-7.92,6.92-7.92h12.42a4.56,4.56,0,0,1,3.5,1.82l.06.08a7.65,7.65,0,0,1,1.67,4.87h0v7.65l-.49.16a9.65,9.65,0,0,0-5-5.71l1.26-.54c0-2.21-1.78-4.76-4-4.76h-8A4.3,4.3,0,0,0,149.83,351.67Z"/><path class="cls-7" d="M148.17,380.4v.77a3.73,3.73,0,0,1-3.73,3.73H141a1.44,1.44,0,0,1-1.44-1.44v-4a9.66,9.66,0,0,0,4.23,1Z"/><path class="cls-7" d="M143.77,351.67H160.3a9.69,9.69,0,0,1,9.2,6.67,9.46,9.46,0,0,1,.49,3v9.36a9.69,9.69,0,0,1-9.69,9.68H143.77a9.68,9.68,0,0,1-9.69-9.68v-9.36A9.69,9.69,0,0,1,143.77,351.67Zm10,12.76V361.6a2.81,2.81,0,0,0-2.82-2.81H143.6a2.81,2.81,0,0,0-2.81,2.81v2.83a2.81,2.81,0,0,0,2.81,2.82h7.33A2.82,2.82,0,0,0,153.75,364.43Z"/><rect class="cls-8" x="140.79" y="358.79" width="12.96" height="8.46" rx="2.81" ry="2.81"/><path class="cls-8" d="M145.42,351.67h-1.65a9.69,9.69,0,0,0-9.69,9.69v9.36a9.68,9.68,0,0,0,9.69,9.68H160.3a9.69,9.69,0,0,0,9.69-9.68v-9.36a9.46,9.46,0,0,0-.49-3,9.69,9.69,0,0,0-9.2-6.67H149.83"/><polyline class="cls-8" points="176.5 361.1 176.5 359.79 169.99 359.79 169.99 370.71 169.99 372.75 176.5 372.75 176.5 371.44"/><path class="cls-8" d="M170,358.18v-7.65h0a7.65,7.65,0,0,0-1.67-4.87l-.06-.08a4.56,4.56,0,0,0-3.5-1.82H152.34c-5.14,0-6.92,5.64-6.92,7.92h4.41a4.3,4.3,0,0,1,4-4.34h8c2.2,0,4,2.55,4,4.76"/><line class="cls-8" x1="169.99" y1="350.53" x2="169.99" y2="350.53"/><line class="cls-8" x1="169.99" y1="350.53" x2="172.87" y2="350.53"/><line class="cls-8" x1="172.87" y1="350.53" x2="173.46" y2="350.53"/><polyline class="cls-8" points="173.3 345.57 172.79 345.57 168.26 345.57"/><path class="cls-8" d="M172.87,350.53a3.28,3.28,0,0,0,3.11,2.25h7.14a3.29,3.29,0,0,0,3.28-3.28v-3.17a3.28,3.28,0,0,0-3.28-3.28H176a3.28,3.28,0,0,0-3.19,2.52,3.17,3.17,0,0,0-.1.76v3.17A2.94,2.94,0,0,0,172.87,350.53Z"/><path class="cls-8" d="M176.5,371.44a3,3,0,0,0,1.33,2.5l3.06,2.05a3.67,3.67,0,0,0,2,.62h1.67a2.23,2.23,0,0,0,2.22-2.22V358.13a1.78,1.78,0,0,0-1.79-1.78h-1.75a5.21,5.21,0,0,0-2.71.76l-2.74,1.66a2.72,2.72,0,0,0-1.32,2.33Z"/><path class="cls-8" d="M156.47,380.51a4.39,4.39,0,0,0,4.39,4.39h6.38a2.75,2.75,0,0,0,2.75-2.75v-9.4"/><path class="cls-8" d="M139.54,379.43v4A1.44,1.44,0,0,0,141,384.9h3.46a3.73,3.73,0,0,0,3.73-3.73v-.77"/><path class="cls-7" d="M348,233.2A21.87,21.87,0,0,1,366,258.4a21.61,21.61,0,0,1-2.69,7.42,22,22,0,0,1-14.94,10.46h0A21.87,21.87,0,1,1,348,233.2Zm7.37,11.54a10.38,10.38,0,0,0-17.9,1.3h0a10.36,10.36,0,1,0,10.88,14.78h0a10.37,10.37,0,0,0,7-16.08Z"/><path class="cls-2" d="M341,242a10.37,10.37,0,1,1,7.38,18.82,10.37,10.37,0,0,1-11.91-10.57h0a6.43,6.43,0,0,1,4.13-.49,6.52,6.52,0,0,0,8.8,7.19,6.1,6.1,0,0,0,1.31-.69,6.53,6.53,0,0,0-7.36-10.8,7.36,7.36,0,0,0-1.11,1h0a10.24,10.24,0,0,0-4.73-.39h0A10.33,10.33,0,0,1,341,242Z"/><path class="cls-7" d="M385.15,295.93a4.78,4.78,0,0,1,.85,3.59l-1,5.73a4.71,4.71,0,0,1-2,3.17l-.81.53a4.75,4.75,0,0,1-3.44.74l-5.9-1a4.75,4.75,0,0,1-3.1-1.95l-21.4-30.46a22,22,0,0,0,14.94-10.46l4.35,6a1.59,1.59,0,0,1,.16,1.58c-1.06,2.49-.11,3,1.61,2.83a2.42,2.42,0,0,1,2.45,3.51c-1.14,2-.5,3.62,2.29,2.77a1.57,1.57,0,0,1,1.7.6l2.52,3.46a1.61,1.61,0,0,1,0,1.92c-2.35,3-1.55,5.2,3.26,4.14a1.57,1.57,0,0,1,1.62.61Z"/><path class="cls-7" d="M343.36,245.46a6.53,6.53,0,0,1,7.36,10.8,6.1,6.1,0,0,1-1.31.69,10.34,10.34,0,0,0-7.16-10.52h0A7.36,7.36,0,0,1,343.36,245.46Z"/><path class="cls-6" d="M347.64,250.46a10.25,10.25,0,0,1,1.77,6.49,6.52,6.52,0,0,1-3.7.31,6.54,6.54,0,0,0-5.1-7.5,6.58,6.58,0,0,0-5,1,6.53,6.53,0,1,0,7.35,10.8,6.75,6.75,0,0,0,1.14-1,10.22,10.22,0,0,0,4.3.26h0a10.36,10.36,0,1,1-.76-10.36Z"/><ellipse class="cls-7" cx="343.16" cy="253.51" rx="1.83" ry="4.53" transform="matrix(0.83, -0.56, 0.56, 0.83, -83.17, 237.04)"/><path class="cls-7" d="M336.48,250.25h0a10.36,10.36,0,0,0,7.61,10.31,6.75,6.75,0,0,1-1.14,1,6.53,6.53,0,1,1-7.35-10.8A6.41,6.41,0,0,1,336.48,250.25Z"/><path class="cls-3" d="M348.33,276.28l21.4,30.46a4.75,4.75,0,0,0,3.1,1.95l5.9,1a4.75,4.75,0,0,0,3.44-.74l.81-.53a4.71,4.71,0,0,0,2-3.17l1-5.73a4.78,4.78,0,0,0-.85-3.59l-2-2.7a1.57,1.57,0,0,0-1.62-.61c-4.81,1.06-5.61-1.18-3.26-4.14a1.61,1.61,0,0,0,0-1.92l-2.52-3.46a1.57,1.57,0,0,0-1.7-.6c-2.79.85-3.43-.76-2.29-2.77a2.42,2.42,0,0,0-2.45-3.51c-1.72.18-2.67-.34-1.61-2.83a1.59,1.59,0,0,0-.16-1.58l-4.35-6"/><path class="cls-3" d="M348.4,260.82a10.43,10.43,0,1,1,1-3.87"/><path class="cls-3" d="M337.51,246a10.37,10.37,0,1,1,10.88,14.78,10.37,10.37,0,0,1-11.91-10.57"/><path class="cls-3" d="M342.25,246.42a7.36,7.36,0,0,1,1.11-1,6.53,6.53,0,0,1,7.36,10.8,6.1,6.1,0,0,1-1.31.69,6.52,6.52,0,0,1-8.8-7.19"/><path class="cls-3" d="M344.09,260.56a6.75,6.75,0,0,1-1.14,1,6.53,6.53,0,1,1-7.35-10.8,6.58,6.58,0,0,1,5-1,6.54,6.54,0,0,1,5.1,7.5"/><path class="cls-3" d="M348.33,276.28A21.87,21.87,0,1,1,366,258.4a21.61,21.61,0,0,1-2.69,7.42,22,22,0,0,1-14.94,10.46Z"/><line class="cls-4" x1="359.57" y1="280" x2="380.63" y2="309.62"/><path class="cls-5" d="M290.19,135.37a1.41,1.41,0,1,1-2-.25A1.41,1.41,0,0,1,290.19,135.37Z"/><polygon class="cls-2" points="262.49 156.96 259.89 156.44 258.22 158.57 258.04 155.96 255.55 155.15 258.03 154.05 258.15 151.4 259.85 153.35 262.44 152.52 261.01 154.84 262.49 156.96"/><polygon class="cls-5" points="265.81 138.28 263.21 137.76 261.54 139.89 261.36 137.28 258.87 136.47 261.35 135.37 261.48 132.72 263.17 134.67 265.76 133.85 264.33 136.16 265.81 138.28"/><polygon class="cls-2" points="285.19 103.51 282.59 102.99 280.92 105.13 280.75 102.5 278.25 101.7 280.73 100.6 280.86 97.95 282.55 99.9 285.14 99.07 283.71 101.38 285.19 103.51"/><path class="cls-2" d="M263.09,119a1.41,1.41,0,1,1-2-.25A1.41,1.41,0,0,1,263.09,119Z"/><polygon class="cls-6" points="245.95 125.15 242.83 124.52 240.83 127.09 240.62 123.95 237.62 122.97 240.6 121.66 240.75 118.48 242.79 120.82 245.9 119.83 244.18 122.6 245.95 125.15"/><polygon class="cls-9" points="260.08 103.41 257.48 102.89 255.81 105.03 255.64 102.41 253.14 101.6 255.62 100.5 255.75 97.85 257.45 99.8 260.04 98.98 258.6 101.29 260.08 103.41"/><path class="cls-5" d="M231.42,115a1.41,1.41,0,1,1-2.22,1.73,1.41,1.41,0,0,1,2.22-1.73Z"/><path class="cls-6" d="M256.63,90a1.41,1.41,0,1,1-2-.25A1.39,1.39,0,0,1,256.63,90Z"/><line class="cls-4" x1="258.15" y1="126.37" x2="240.35" y2="140.24"/><path class="cls-4" d="M258.42,140.47a54.65,54.65,0,0,1-8,8.05"/><path class="cls-4" d="M265.2,126.24a6.73,6.73,0,0,1-.49,4"/><path class="cls-4" d="M235.45,124.77c-1.49.9-2.41,1.5-2.41,1.5"/><path class="cls-4" d="M256,119.08a12,12,0,0,0-7.05.13"/><path class="cls-4" d="M272,128.09c3.86,4.94-8.63,21-8.63,21"/><path class="cls-4" d="M257.89,112.28c-5-6.37-22.26,1.25-22.26,1.25"/><path class="cls-4" d="M275.59,123.51c16.48,2.42-.35,27.09-.35,27.09"/><path class="cls-4" d="M251.44,99.42a50,50,0,0,0-12.36,2.48"/><path class="cls-4" d="M263.82,113c.83-3.83.34-6.44-1-8.16"/><path class="cls-4" d="M270.14,118.81c25.88-8.55,20.54,12.6,20.54,12.6"/><path class="cls-4" d="M270,111.77c11.44-20.31-8.56-20.15-8.56-20.15"/><path class="cls-4" d="M276,112.5s16.92-9.54,16,0"/><path class="cls-7" d="M58.23,220a1.15,1.15,0,0,0-1.91-1.08c-8.27,7.71-17.81,24.29-17.81,24.29l-3,7.81-4.76.8s.14-10.18-12.72-8c-11.13,1.88-9.32,9.83-9.32,9.83s1.79,8.9,12.83,7l11.05-1.87s-1.37,5.31-3.34,13,5.59,10.56,8.91,10a11.18,11.18,0,0,0,9.16-9.67C48.17,265,39,259.11,39,259.11l2.74-3.43,6.25-7.8,0-.06,2.6-5.7.08-.17C53.2,236.15,56.79,227.18,58.23,220ZM18.77,247.35c3.87-.65,7.37,1,7.83,3.66s-2.32,5.37-6.18,6-7.37-1-7.82-3.66S14.91,248,18.77,247.35ZM38,252.16a1.12,1.12,0,1,1,.37,2.2,1.1,1.1,0,0,1-1.28-.91A1.13,1.13,0,0,1,38,252.16Zm-4.12,17.58c1.29-3.47,4.24-5.58,6.6-4.7s3.23,4.4,1.94,7.87-4.25,5.57-6.61,4.7S32.55,273.21,33.85,269.74Z"/><path class="cls-7" d="M74.26,237.34a1.51,1.51,0,0,0-1.54-2.49l-22,7.1-.08.17c-1.37,3.14-2.41,5.32-2.6,5.7l0,.06-6.25,7.8S66.91,245,74.26,237.34Z"/><path class="cls-2" d="M26.6,251c-.46-2.67-4-4.31-7.83-3.66s-6.63,3.36-6.17,6,4,4.31,7.82,3.66S27.05,253.69,26.6,251Z"/><path class="cls-10" d="M39.26,253.08a1.12,1.12,0,1,0-2.2.37,1.12,1.12,0,0,0,2.2-.37Z"/><path class="cls-5" d="M89.22,248.77a4,4,0,0,0-5.2.63s0,0,0,0l-17.55,20.4,9.7,7.21,14.08-23,0,0a4,4,0,0,0,.55-2.84,3.51,3.51,0,0,0-1.56-2.38S89.23,248.78,89.22,248.77Z"/><path class="cls-2" d="M40.45,265c-2.36-.88-5.31,1.23-6.6,4.7s-.43,7,1.93,7.87,5.32-1.23,6.61-4.7S42.81,265.92,40.45,265Z"/><path class="cls-6" d="M76.13,277.05l-9.7-7.21c-.21.06-12.44,14-12.48,14l12.48,9.4C66.53,293.18,76.11,277.2,76.13,277.05Z"/><path class="cls-2" d="M44.76,299.42a13.18,13.18,0,0,0,3.88,4.72c4.42,3.24,10.59,2.48,11.39,2.32,1.38-.28,2-1.66,2.42-2.42,1.28-2.57,4-10.76,4-10.76L54,283.88s-7.28,5-9.22,7.14c-.6.67-1.8,1.69-1.57,3.21a16.87,16.87,0,0,0,1.15,4.21C44.44,298.76,44.6,299.09,44.76,299.42Z"/><path class="cls-11" d="M48,247.82c.19-.38,1.23-2.56,2.6-5.7"/><path class="cls-11" d="M50.69,242c2.51-5.8,6.1-14.77,7.54-21.95a1.15,1.15,0,0,0-1.91-1.08c-8.27,7.71-17.81,24.29-17.81,24.29l-3,7.81-4.76.8s.14-10.18-12.72-8c-11.13,1.88-9.32,9.83-9.32,9.83s1.79,8.9,12.83,7l11.05-1.87s-1.37,5.31-3.34,13,5.59,10.56,8.91,10a11.18,11.18,0,0,0,9.16-9.67C48.17,265,39,259.11,39,259.11l2.74-3.43"/><path class="cls-11" d="M33,280.83s-.93,8.13,4.47,10.51a1.08,1.08,0,0,0,1.39-1.47c-1.93-4-2.17-6.16-1.51-7.93A9.19,9.19,0,0,1,33,280.83Z"/><path class="cls-11" d="M33.85,269.74c-1.3,3.47-.43,7,1.93,7.87s5.32-1.23,6.61-4.7.42-7-1.94-7.87S35.14,266.27,33.85,269.74Z"/><path class="cls-11" d="M18.77,247.35c-3.86.66-6.63,3.36-6.17,6s4,4.31,7.82,3.66,6.63-3.35,6.18-6S22.64,246.7,18.77,247.35Z"/><path class="cls-11" d="M50.69,242l22-7.1a1.51,1.51,0,0,1,1.54,2.49c-7.35,7.61-32.53,18.34-32.53,18.34l6.25-7.8,0-.06,2.6-5.7Z"/><path class="cls-11" d="M66.43,269.84,84,249.44s0,0,0,0a4,4,0,0,1,5.2-.63s0,0,0,0a3.51,3.51,0,0,1,1.56,2.38,4,4,0,0,1-.55,2.84l0,0-14.08,23c0,.15-9.6,16.13-9.7,16.23s-2.7,8.19-4,10.76c-.38.76-1,2.14-2.42,2.42-.8.16-7,.92-11.39-2.32a13.18,13.18,0,0,1-3.88-4.72c-.16-.33-.32-.66-.45-1a16.87,16.87,0,0,1-1.15-4.21c-.23-1.52,1-2.54,1.57-3.21,1.94-2.17,9.22-7.14,9.22-7.14S66.22,269.9,66.43,269.84Z"/><line class="cls-11" x1="66.43" y1="293.28" x2="53.95" y2="283.88"/><line class="cls-11" x1="76.13" y1="277.05" x2="66.43" y2="269.84"/><line class="cls-12" x1="54.82" y1="306.46" x2="58.06" y2="298.8"/><line class="cls-12" x1="44.76" y1="299.42" x2="48.06" y2="296.49"/><path class="cls-7" d="M269.9,11.38,277,48a2.4,2.4,0,0,1-1.91,2.83L215.74,62.31a2.43,2.43,0,0,1-2.84-1.92l-7.08-36.62a2.43,2.43,0,0,1,1.92-2.83L221,18.38A2.43,2.43,0,0,0,222.74,17l2-4.41c.34-.75,1.11-.91,1.92-1l9.61-1.83,9.68-1.87a2.4,2.4,0,0,1,2,.5l3.93,3.19a2.36,2.36,0,0,0,2,.5l13.27-2.56A2.41,2.41,0,0,1,269.9,11.38ZM257.49,30.74a16.94,16.94,0,1,0-13.41,19.85A16.94,16.94,0,0,0,257.49,30.74Zm-37.92-4c-.25-1.3-1.82-2.1-3.49-1.77s-2.83,1.64-2.58,2.94,1.81,2.1,3.49,1.78S219.82,28,219.57,26.7Z"/><path class="cls-2" d="M237.64,17.33a16.94,16.94,0,1,1-13.41,19.84A16.94,16.94,0,0,1,237.64,17.33Zm14.07,14.53a11.05,11.05,0,1,0-8.75,13A11.05,11.05,0,0,0,251.71,31.86Z"/><path class="cls-6" d="M238.76,23.12A11,11,0,1,1,230,36.06,11.05,11.05,0,0,1,238.76,23.12Z"/><ellipse class="cls-10" cx="216.53" cy="27.29" rx="3.09" ry="2.4" transform="translate(-1.24 41.61) rotate(-10.95)"/><path class="cls-13" d="M257.49,30.74a16.94,16.94,0,1,1-19.85-13.41A16.93,16.93,0,0,1,257.49,30.74Z"/><path class="cls-13" d="M251.71,31.86a11.05,11.05,0,1,1-13-8.74A11.06,11.06,0,0,1,251.71,31.86Z"/><path class="cls-11" d="M236.23,9.71l9.68-1.87a2.4,2.4,0,0,1,2,.5l3.93,3.19a2.36,2.36,0,0,0,2,.5l13.27-2.56a2.41,2.41,0,0,1,2.83,1.91L277,48a2.4,2.4,0,0,1-1.91,2.83L215.74,62.31a2.43,2.43,0,0,1-2.84-1.92l-7.08-36.62a2.43,2.43,0,0,1,1.92-2.83L221,18.38A2.43,2.43,0,0,0,222.74,17l2-4.41c.34-.75,1.11-.91,1.92-1Z"/><path class="cls-2" d="M242,274.06a13.46,13.46,0,0,0,2,7.41,13.33,13.33,0,0,0,1.89,2.39,13.5,13.5,0,1,0,19.15-19,13.78,13.78,0,0,0-2.37-1.91h0a21.25,21.25,0,0,0-1-9.77,21.49,21.49,0,1,1-8.94-.5,13.35,13.35,0,0,1,2.55,8.19A13.49,13.49,0,0,0,242,274.06Z"/><path class="cls-6" d="M255.25,260.84a13.35,13.35,0,0,0-2.55-8.19,14.67,14.67,0,0,0-1.36-1.61,13.51,13.51,0,0,0-19.16,19,14.4,14.4,0,0,0,2.44,1.95,21.48,21.48,0,0,0,1.11,8.84,21.47,21.47,0,1,1,8.26.6,13.46,13.46,0,0,1-2-7.41,13.48,13.48,0,0,0,13.29-13.22Z"/><path class="cls-3" d="M235.73,280.87a21.47,21.47,0,1,1,8.26.6"/><path class="cls-3" d="M261.64,253.15a21.49,21.49,0,1,1-8.94-.5"/><path class="cls-3" d="M262.66,262.92a13.78,13.78,0,0,1,2.37,1.91,13.5,13.5,0,1,1-19.15,19,13.33,13.33,0,0,1-1.89-2.39,13.5,13.5,0,0,1,11.26-20.63h0"/><path class="cls-3" d="M234.62,272a14.4,14.4,0,0,1-2.44-1.95,13.51,13.51,0,0,1,19.16-19,14.67,14.67,0,0,1,1.36,1.61,13.53,13.53,0,0,1-1.42,17.49,13.49,13.49,0,0,1-9.32,3.92h0"/><path class="cls-7" d="M228.23,200.29a2.5,2.5,0,0,1-1.36,2.29c-2.3,1.24-4.43,2.78-7.33,2.77-15.37-.1-30.75-.12-46.12,0-2.85,0-5-1.32-7.35-2.41a3,3,0,0,1-2-2.67c.13-3.79-.58-7.62.46-11.36l.39-.43a4.76,4.76,0,0,0,.76.47c5.47,2.72,10.8,2.82,16-.41a4.23,4.23,0,0,1,4.72,0,19.71,19.71,0,0,0,19.34,0,4.26,4.26,0,0,1,4.72,0c5.41,3.24,10.82,3.26,16.42.14l.77.23C228.77,192.67,228,196.51,228.23,200.29Z"/><path class="cls-7" d="M228.17,186.59A2,2,0,0,1,227,188.7c-5.6,3.12-11,3.1-16.42-.14a4.26,4.26,0,0,0-4.72,0,19.71,19.71,0,0,1-19.34,0,4.23,4.23,0,0,0-4.72,0c-5.24,3.23-10.57,3.13-16,.41a4.76,4.76,0,0,1-.76-.47c-1.33-1-1-2.31-.18-3.56,1.13-1.83,3.29-2.49,5-3.7h.34c.33.55.87.32,1.33.32q25.23,0,50.46,0a2.87,2.87,0,0,1,.57.05C224.78,182,228.05,184.63,228.17,186.59Z"/><path class="cls-7" d="M222.84,167.14c0,.56,0,1.14,0,1.73-.12,4,.45,8-.32,12l-.1.72a2.87,2.87,0,0,0-.57-.05q-25.23,0-50.46,0c-.46,0-1,.23-1.33-.32h-.34v-.34c-.77-4-.2-8-.32-12,0-.59,0-1.17,0-1.73l.95.06c5.6,3.07,11.09,3.66,16.45-.69,6.06,4.11,12.18,4.44,18.44-.06,5.28,4.32,10.88,3.94,16.58.75Z"/><path class="cls-7" d="M222.84,167.14l-1,.06c-5.7,3.19-11.3,3.57-16.58-.75-6.26,4.5-12.38,4.17-18.44.06-5.36,4.35-10.85,3.76-16.45.69l-.95-.06c.2-3,1.31-5.57,5-6.67,1.59-.47,3.13-.16,4.68-.28,4.57-.34,9.2.71,13.71-.67l.31-.05c1.26,1.19,3.5,1.05,5.27,0l1.44.07c3.94,1.44,8,.3,12,.67,2,.19,4-.3,6,.3C221.53,161.56,222.64,164.11,222.84,167.14Z"/><path class="cls-2" d="M195.51,142.21l1-.07c.9.12,1.39-.61,2-1,2.56-1.74,5.06-1.12,7.34.39,2.09,1.4,2.87,4.69,2,7.31a10.49,10.49,0,0,1-3.65,5.39,26.06,26.06,0,0,0-4.33,4,6,6,0,0,1-1.47,1.24c-1.77,1.07-4,1.21-5.27,0a2.54,2.54,0,0,1-.53-.68c-1.15-2-3-3.13-4.53-4.54a14.18,14.18,0,0,1-3.58-5.1c-1.81-4.31,2-9.36,6.66-9C192.9,140.24,194.07,141.5,195.51,142.21Z"/><path class="cls-13" d="M164.57,188.93c-1,3.74-.33,7.57-.46,11.36a3,3,0,0,0,2,2.67c2.36,1.09,4.5,2.43,7.35,2.41,15.37-.14,30.75-.12,46.12,0,2.9,0,5-1.53,7.33-2.77a2.5,2.5,0,0,0,1.36-2.29c-.24-3.78.54-7.62-.5-11.36"/><path class="cls-13" d="M170.09,181.24c.33.55.87.32,1.33.32q25.23,0,50.46,0a2.87,2.87,0,0,1,.57.05c2.33.39,5.6,3,5.72,5A2,2,0,0,1,227,188.7c-5.6,3.12-11,3.1-16.42-.14a4.26,4.26,0,0,0-4.72,0,19.71,19.71,0,0,1-19.34,0,4.23,4.23,0,0,0-4.72,0c-5.24,3.23-10.57,3.13-16,.41a4.76,4.76,0,0,1-.76-.47c-1.33-1-1-2.31-.18-3.56,1.13-1.83,3.29-2.49,5-3.7"/><path class="cls-13" d="M196.15,142.47a5,5,0,0,1-.64-.26c-1.44-.71-2.61-2-4.37-2.09-4.66-.33-8.47,4.72-6.66,9a14.18,14.18,0,0,0,3.58,5.1c1.54,1.41,3.38,2.5,4.53,4.54a2.54,2.54,0,0,0,.53.68c1.26,1.19,3.5,1.05,5.27,0a6,6,0,0,0,1.47-1.24,26.06,26.06,0,0,1,4.33-4,10.49,10.49,0,0,0,3.65-5.39c.85-2.62.07-5.91-2-7.31-2.28-1.51-4.78-2.13-7.34-.39-.61.41-1.1,1.14-2,1"/><path class="cls-13" d="M192.81,159.52c-4.51,1.38-9.14.33-13.71.67-1.55.12-3.09-.19-4.68.28-3.65,1.1-4.76,3.64-5,6.67,0,.56,0,1.14,0,1.73.12,4-.45,8,.32,12"/><path class="cls-13" d="M199.83,159.52c3.94,1.44,8,.3,12,.67,2,.19,4-.3,6,.3,3.65,1.07,4.76,3.62,5,6.65,0,.56,0,1.14,0,1.73-.12,4,.45,8-.32,12"/><path class="cls-13" d="M170.41,167.2c5.6,3.07,11.09,3.66,16.45-.69,6.06,4.11,12.18,4.44,18.44-.06,5.28,4.32,10.88,3.94,16.58.75"/><path class="cls-5" d="M92.15,112.12a.59.59,0,0,1-.28.86L38.09,134.07a.59.59,0,0,1-.72-.27l-2-3.7L20.71,103.47a.59.59,0,0,1,.31-.82l51.82-20.2a.58.58,0,0,1,.69.24ZM72.4,101.37v0a1.48,1.48,0,0,0-1.9-.84l-29,11.4a1.46,1.46,0,0,0-.82,1.9v0a1.47,1.47,0,0,0,1.89.83l29-11.39A1.47,1.47,0,0,0,72.4,101.37Z"/><path d="M72.39,101.34v0a1.47,1.47,0,0,1-.83,1.9l-29,11.39a1.47,1.47,0,0,1-1.89-.83v0a1.46,1.46,0,0,1,.82-1.9l29.05-11.4A1.48,1.48,0,0,1,72.39,101.34Z"/><polygon class="cls-9" points="20.71 103.47 35.34 130.1 25.08 134.12 20.71 103.47"/><path class="cls-4" d="M20.71,103.47a.59.59,0,0,1,.31-.82l51.82-20.2a.58.58,0,0,1,.69.24l18.62,29.43a.59.59,0,0,1-.28.86L38.09,134.07a.59.59,0,0,1-.72-.27l-2-3.7"/><polygon class="cls-13" points="20.71 103.47 25.08 134.12 35.34 130.1 20.71 103.47"/><path class="cls-7" d="M76.9,3.67A31.94,31.94,0,1,1,45,35.61,31.95,31.95,0,0,1,76.9,3.67ZM96.5,35.61a4.95,4.95,0,1,0-4.94,4.94A4.94,4.94,0,0,0,96.5,35.61Zm-14.33,0a4.94,4.94,0,1,0-4.93,4.94A4.94,4.94,0,0,0,82.17,35.61Zm-15,0a4.94,4.94,0,1,0-4.94,4.94A4.94,4.94,0,0,0,67.19,35.61Z"/><path class="cls-9" d="M91.56,30.67a4.94,4.94,0,1,1-5,4.94A4.94,4.94,0,0,1,91.56,30.67Z"/><path class="cls-2" d="M77.24,30.67a4.94,4.94,0,1,1-4.95,4.94A4.94,4.94,0,0,1,77.24,30.67Z"/><path class="cls-6" d="M62.25,30.67a4.94,4.94,0,1,1-4.94,4.94A4.94,4.94,0,0,1,62.25,30.67Z"/><circle class="cls-3" cx="76.9" cy="35.61" r="31.94"/><path class="cls-2" d="M275.86,233.26a15.89,15.89,0,0,1,6-28.6l5.5,31.29A15.75,15.75,0,0,1,275.86,233.26Z"/><path class="cls-7" d="M281.85,204.66a15.89,15.89,0,1,1,5.5,31.29Z"/><path class="cls-7" d="M298,229.38a15.9,15.9,0,0,0-3.88-22.16c7.86,2.32,27.51.42,35-.43a3.18,3.18,0,0,1,3.47,2.6l.33,1.92.42,2.34a3.17,3.17,0,0,1-2.4,3.63C323.68,219,305,223.7,298,229.38Zm9.86-14.94a1.54,1.54,0,0,0-1.23,1.76v0a1.52,1.52,0,0,0,1.76,1.23l5.34-.93a1.52,1.52,0,0,0,1.24-1.76v0a1.53,1.53,0,0,0-1.76-1.24Z"/><path d="M306.64,216.2a1.54,1.54,0,0,1,1.23-1.76l5.35-.94a1.53,1.53,0,0,1,1.76,1.24v0a1.52,1.52,0,0,1-1.24,1.76l-5.34.93a1.52,1.52,0,0,1-1.76-1.23Z"/><path class="cls-3" d="M287.35,236A15.89,15.89,0,1,1,298,229.38,15.75,15.75,0,0,1,287.35,236Z"/><polyline class="cls-3" points="287.35 235.97 287.35 235.95 281.85 204.66 281.85 204.65"/><path class="cls-3" d="M332.91,211.31l-.33-1.92a3.18,3.18,0,0,0-3.47-2.6c-7.47.85-27.12,2.75-35,.43"/><path class="cls-13" d="M298,229.38c7-5.68,25.67-10.43,32.92-12.1a3.17,3.17,0,0,0,2.4-3.63l-.42-2.34"/><path class="cls-4" d="M332.91,211.31s3.42-.42,10.53-3.23c9.16-3.68,3.33-18-6.71-16.22-8.51,1.5-25,4.11-34.08,5.71-8.43,1.48-13.45-15.66-3.75-17.42,4.31-.79,17-4,17-4"/><path class="cls-7" d="M373.54,107.93a66.14,66.14,0,0,1,4.51,6l0,.09c-1,.29-1.66,2.23-1.66,2.23L374,113.52c-3.9-4.46-2.94.58-8.48-4.12,3.34,5.85-13,10-6.61,17.32l2.42,2.76s-1.87.38-2.37,1.3l-.08,0a38.83,38.83,0,0,1-4.9-4.59c-4.29-4.91-4.52-11.14,2.59-17.35,4.27-3.74,7.22-1.88,7.22-1.88C368.63,102.68,371.51,105.6,373.54,107.93Z"/><path class="cls-7" d="M379.42,114.66c.94,1.07,1.4,2.22.31,3.4,1.71,5.38,2.48,11.58-1.74,15.27s-10.26,2.09-15.37-.32c-1.3.91-2.39.31-3.32-.76-.52-.59-.56-1.08-.35-1.47.5-.92,2.37-1.3,2.37-1.3l-2.42-2.76c-6.38-7.3,10-11.47,6.61-17.32,5.54,4.7,4.58-.34,8.48,4.12l2.42,2.77s.63-1.94,1.66-2.23C378.47,114,378.92,114.08,379.42,114.66Z"/><path class="cls-6" d="M384.7,129.57l3.46,4a.64.64,0,0,1-.19,1.06l-4.47,1.24-.12.09a.89.89,0,0,0-.2-.47l-1.1-1.25a1,1,0,0,0-.32-.24l0-.08,1.83-4.26C383.78,129.15,384.37,129.2,384.7,129.57Z"/><path class="cls-6" d="M382.08,134.2l1.1,1.25a.89.89,0,0,1,.2.47.85.85,0,0,1-.28.71l-2.52,2.2a.83.83,0,0,1-.79.17.78.78,0,0,1-.39-.25l-1.1-1.25a.86.86,0,0,1-.18-.34.88.88,0,0,1,.26-.85l2.52-2.2a.78.78,0,0,1,.86-.15A1,1,0,0,1,382.08,134.2Z"/><path class="cls-6" d="M379.79,139l-.06.13-1.82,4.26a.63.63,0,0,1-1.07,0l-3.46-4c-.33-.38-.3-1,.19-1.05l4.45-1.24.1,0a.86.86,0,0,0,.18.34l1.1,1.25A.78.78,0,0,0,379.79,139Z"/><path class="cls-7" d="M352.33,141a3,3,0,0,1,2.14,1.08,2.53,2.53,0,0,1,.17,3.52s3.28,10.78-.88,14.41c-3.79,3.31-14.89-1-14.89-1-.79.69-2.2.37-3.15-.72a3,3,0,0,1-.8-2.22,1.54,1.54,0,0,1,.51-1,1.44,1.44,0,0,1,.87-.35L334.81,153a1.4,1.4,0,0,1-.15-1.64,41.93,41.93,0,0,0,4.26-7.19c1.08-2.34,1.33-3.5-.19-6.29,1.62,1,3.36,2.72,6.46,2.41l3-.34a1.69,1.69,0,0,1,1.46.57l1.1,1.25a1.76,1.76,0,0,1,.29-.33A1.89,1.89,0,0,1,352.33,141Z"/><path class="cls-7" d="M349.77,135.75a11.13,11.13,0,0,1,2.56,5.26,1.89,1.89,0,0,0-1.32.44,1.76,1.76,0,0,0-.29.33l-1.1-1.25a1.69,1.69,0,0,0-1.46-.57l-3,.34c-3.1.31-4.84-1.37-6.46-2.41,1.52,2.79,1.27,4,.19,6.29a41.93,41.93,0,0,1-4.26,7.19,1.4,1.4,0,0,0,.15,1.64l1.49,1.71a1.44,1.44,0,0,0-.87.35,1.54,1.54,0,0,0-.51,1,11.08,11.08,0,0,1-4.75-3.2,11.47,11.47,0,0,1-2.56-9.68,10.16,10.16,0,0,1,.37-1.54A13.94,13.94,0,0,1,339.2,132a9.71,9.71,0,0,1,1.21-.11A11.47,11.47,0,0,1,349.77,135.75Z"/><path class="cls-2" d="M338.62,129.63a7.53,7.53,0,0,1,.81.79,6.85,6.85,0,0,1,1,1.49h0a9.71,9.71,0,0,0-1.21.11s-5.63-3.5-7,0a1.86,1.86,0,0,0-2.61.34c-.95.83-1.24,1.31-.66,2.6-3.39.93-1,6.72-1,6.72h0a10.16,10.16,0,0,0-.37,1.54h0a6.8,6.8,0,0,1-1.41-1.22,6.6,6.6,0,0,1-.66-.91c-2-3.19-1.09-7.73,2.24-10.64S335.71,127.26,338.62,129.63Z"/><path class="cls-9" d="M332.18,132c1.39-3.47,7,0,7,0A13.94,13.94,0,0,0,328,141.66h0s-2.44-5.79,1-6.72c-.58-1.29-.29-1.77.66-2.6A1.86,1.86,0,0,1,332.18,132Z"/><path class="cls-3" d="M381.8,133.88l1.83-4.26c.15-.47.74-.42,1.07-.05l3.46,4a.64.64,0,0,1-.19,1.06l-4.47,1.24"/><path class="cls-3" d="M378,137.18l-4.45,1.24c-.49.08-.52.67-.19,1.05l3.46,4a.63.63,0,0,0,1.07,0l1.82-4.26"/><path class="cls-13" d="M358.87,130.74a38.83,38.83,0,0,1-4.9-4.59c-4.29-4.91-4.52-11.14,2.59-17.35,4.27-3.74,7.22-1.88,7.22-1.88,4.85-4.24,7.73-1.32,9.76,1a66.14,66.14,0,0,1,4.51,6"/><path class="cls-3" d="M381.76,134a.78.78,0,0,0-.86.15l-2.52,2.2a.88.88,0,0,0-.26.85.86.86,0,0,0,.18.34l1.1,1.25a.78.78,0,0,0,.39.25.83.83,0,0,0,.79-.17l2.52-2.2a.85.85,0,0,0,.28-.71.89.89,0,0,0-.2-.47l-1.1-1.25A1,1,0,0,0,381.76,134Z"/><path class="cls-13" d="M378.07,114.06c-1,.29-1.66,2.23-1.66,2.23L374,113.52c-3.9-4.46-2.94.58-8.48-4.12,3.34,5.85-13,10-6.61,17.32l2.42,2.76s-1.87.38-2.37,1.3c-.21.39-.17.88.35,1.47.93,1.07,2,1.67,3.32.76,5.11,2.41,11.16,4,15.37.32s3.45-9.89,1.74-15.27c1.09-1.18.63-2.33-.31-3.4C378.92,114.08,378.47,114,378.07,114.06Z"/><path class="cls-8" d="M352.33,141a1.89,1.89,0,0,0-1.32.44,1.76,1.76,0,0,0-.29.33l-1.1-1.25a1.69,1.69,0,0,0-1.46-.57l-3,.34c-3.1.31-4.84-1.37-6.46-2.41,1.52,2.79,1.27,4,.19,6.29a41.93,41.93,0,0,1-4.26,7.19,1.4,1.4,0,0,0,.15,1.64l1.49,1.71a1.44,1.44,0,0,0-.87.35,1.54,1.54,0,0,0-.51,1,3,3,0,0,0,.8,2.22c.95,1.09,2.36,1.41,3.15.72,0,0,11.1,4.31,14.89,1,4.16-3.63.88-14.41.88-14.41a2.53,2.53,0,0,0-.17-3.52A3,3,0,0,0,352.33,141Z"/><path class="cls-8" d="M334.92,156.08a11.08,11.08,0,0,1-4.75-3.2,11.47,11.47,0,0,1-2.56-9.68,10.16,10.16,0,0,1,.37-1.54A13.94,13.94,0,0,1,339.2,132a9.71,9.71,0,0,1,1.21-.11,11.47,11.47,0,0,1,9.36,3.83,11.13,11.13,0,0,1,2.56,5.26"/><path class="cls-8" d="M327.6,143.2a6.8,6.8,0,0,1-1.41-1.22,6.6,6.6,0,0,1-.66-.91c-2-3.19-1.09-7.73,2.24-10.64s7.94-3.17,10.85-.8a7.53,7.53,0,0,1,.81.79,6.85,6.85,0,0,1,1,1.49"/><path class="cls-8" d="M325.53,141.07c-5.69,13.65,14,32.42,14,32.42"/><path class="cls-8" d="M338.61,129.64h0c14.28-4.12,30.45,18,30.45,18"/><path class="cls-8" d="M328,141.66s-2.44-5.79,1-6.72c-.58-1.29-.29-1.77.66-2.6a1.86,1.86,0,0,1,2.61-.34c1.39-3.47,7,0,7,0"/><path class="cls-9" d="M60.29,342.3a2.52,2.52,0,0,1,4.38-.34l1.64,2.63a2.44,2.44,0,0,0,1.93,1.12l3.23.19a2.37,2.37,0,0,1,2,1.15c-2-.45-6.35,1.42-6.78,4.74a.32.32,0,0,1-.45.26,3.9,3.9,0,0,0-.8-.17,2.88,2.88,0,0,0,0-1.4A2.79,2.79,0,0,0,60,351.82h0l-1.06-.39a2.42,2.42,0,0,1-1.53-1.63l-.82-3,0-.09.78-.18a2.46,2.46,0,0,0,1.75-1.4Z"/><path class="cls-6" d="M52.3,345.88a2.51,2.51,0,0,1,4.25.84l-2.38.51a2.28,2.28,0,0,0-1.05,4l2.48,2a2.22,2.22,0,0,1,.85,2l-.31,3.05a2.21,2.21,0,0,0,.79,1.94,6.06,6.06,0,0,0-1.65,1.23l-1.09-2.11a2.51,2.51,0,0,0-4.39,0L48.36,362a2.32,2.32,0,0,1-.73.83l-1,.23a2.42,2.42,0,0,1-3-3.13l1.18-2.83a2.21,2.21,0,0,0-.24-2.15l-1.81-2.59A2.28,2.28,0,0,1,45,348.83l3.22.26a2.42,2.42,0,0,0,2.07-.84Zm-.11,6.38a2.79,2.79,0,1,0,2.64,2.93A2.78,2.78,0,0,0,52.19,352.26Z"/><path class="cls-6" d="M54.17,347.23l2.38-.51,0,.09.82,3a2.42,2.42,0,0,0,1.53,1.63l1.06.39a2.79,2.79,0,0,0,1,1.52,6.47,6.47,0,0,0-2.3,6.07.39.39,0,0,1,0,.15.32.32,0,0,1-.28.23,3.85,3.85,0,0,0-1.44.4,2.21,2.21,0,0,1-.79-1.94l.31-3.05a2.22,2.22,0,0,0-.85-2l-2.48-2A2.28,2.28,0,0,1,54.17,347.23Z"/><path class="cls-7" d="M62,348.44a2.8,2.8,0,0,1,3.38,2,2.88,2.88,0,0,1,0,1.4,6.05,6.05,0,0,0-3.3.72l-.13-.05-2-.73h0A2.8,2.8,0,0,1,62,348.44Z"/><path class="cls-7" d="M66.64,351.79c.43-3.32,4.79-5.19,6.78-4.74a2.2,2.2,0,0,1-.3,2.68L71,352a2.24,2.24,0,0,0-.54,2.09l.78,3a2.42,2.42,0,0,1-3.36,2.69l-3-1.19a2.56,2.56,0,0,0-2.27.17l-2.75,1.64a2.53,2.53,0,0,1-1.3.36l0-.64a2.13,2.13,0,0,1,.1-.56,2.26,2.26,0,0,1,1-1.29l2.72-1.59a2.21,2.21,0,0,0,.94-2.83,2.81,2.81,0,0,0,2-2,3.9,3.9,0,0,1,.8.17A.32.32,0,0,0,66.64,351.79Z"/><path class="cls-7" d="M73.42,347.05a1.59,1.59,0,0,1,.42.14.37.37,0,0,1,.19.32c-.27,6.15-.87,16.95-.94,18.12a.43.43,0,0,1-.06.17v0l-4,5-.13.09c-.78.35-7.66,3.34-13.87,6l4.44-1.94-.54-3a2.22,2.22,0,0,1,.71-2L62,367.74a2.28,2.28,0,0,0-1.34-3.95l-2.2-.31a1.36,1.36,0,0,0,0-.29l.09-2.42a2.53,2.53,0,0,0,1.3-.36l2.75-1.64a2.56,2.56,0,0,1,2.27-.17l3,1.19a2.42,2.42,0,0,0,3.36-2.69l-.78-3A2.24,2.24,0,0,1,71,352l2.15-2.31A2.2,2.2,0,0,0,73.42,347.05Z"/><path class="cls-7" d="M49.27,354.9a2.78,2.78,0,1,1,2.64,2.93A2.78,2.78,0,0,1,49.27,354.9Z"/><path class="cls-6" d="M60,351.82l2,.73.13.05a6.2,6.2,0,0,0-1.12.74A2.79,2.79,0,0,1,60,351.82Z"/><path class="cls-7" d="M62.09,352.6a6.05,6.05,0,0,1,3.3-.72,2.81,2.81,0,0,1-2,2A2.41,2.41,0,0,0,62.09,352.6Z"/><path class="cls-7" d="M61,353.34a6.2,6.2,0,0,1,1.12-.74,2.41,2.41,0,0,1,1.29,1.26h0A2.81,2.81,0,0,1,61,353.34Z"/><path class="cls-7" d="M61,353.34a2.81,2.81,0,0,0,2.39.52h0a2.21,2.21,0,0,1-.94,2.83l-2.72,1.59a2.26,2.26,0,0,0-1,1.29h0a.39.39,0,0,0,0-.15A6.47,6.47,0,0,1,61,353.34Z"/><path class="cls-2" d="M49.8,359.3a2.51,2.51,0,0,1,4.39,0l1.09,2.11a8,8,0,0,0-1.69,2.66L52,362.81a2.58,2.58,0,0,0-2.22-.49l-2.15.54a2.32,2.32,0,0,0,.73-.83Z"/><path class="cls-7" d="M58.65,359.56h0a2.13,2.13,0,0,0-.1.56l0,.64a2.51,2.51,0,0,1-1.64-.58,3.85,3.85,0,0,1,1.44-.4A.32.32,0,0,0,58.65,359.56Z"/><path class="cls-7" d="M56.93,360.19a2.51,2.51,0,0,0,1.64.58l-.09,2.42a1.36,1.36,0,0,1,0,.29l-1-.14a2.43,2.43,0,0,1-1.83-1.27l-.34-.65A6.06,6.06,0,0,1,56.93,360.19Z"/><path class="cls-2" d="M49.78,362.32a2.58,2.58,0,0,1,2.22.49l1.59,1.27a7.23,7.23,0,0,0-.49,2,2.79,2.79,0,1,0-1.17,5l.15,0a4.42,4.42,0,0,0-1.47,5l-2.69,1.32a2.42,2.42,0,0,1-3.54-2.45l.56-3a2.22,2.22,0,0,0-.7-2.05l-2.31-2.14a2.28,2.28,0,0,1,1.37-3.94l3.21-.43a2.55,2.55,0,0,0,1.12-.43Z"/><path class="cls-7" d="M55.28,361.42l.34.65a2.43,2.43,0,0,0,1.83,1.27l1,.14a2.44,2.44,0,0,1-4,1.33l-.9-.73A8,8,0,0,1,55.28,361.42Z"/><path class="cls-7" d="M53.59,364.08l.9.73a2.44,2.44,0,0,0,4-1.33l2.2.31A2.28,2.28,0,0,1,62,367.74l-2.33,2.13a2.22,2.22,0,0,0-.71,2l.54,3-4.44,1.94,0,0-1.93-1a2.61,2.61,0,0,0-2.28,0l-.18.09a4.42,4.42,0,0,1,1.47-5,2.78,2.78,0,0,0,1-5A7.23,7.23,0,0,1,53.59,364.08Z"/><path class="cls-7" d="M48.73,368.76A2.79,2.79,0,0,1,53.1,366a6.28,6.28,0,0,0,.54,3.41.35.35,0,0,1-.1.41A17.8,17.8,0,0,0,52.08,371l-.15,0A2.8,2.8,0,0,1,48.73,368.76Z"/><path class="cls-7" d="M53.1,366a2.78,2.78,0,0,1-1,5,17.8,17.8,0,0,1,1.46-1.17.35.35,0,0,0,.1-.41A6.28,6.28,0,0,1,53.1,366Z"/><path class="cls-7" d="M73,365.8l0-.07s8.38,6.91,11.29,9c1.71,1.24-1.91,6.71-4.09,5.13-3.1-2.23-11.29-9-11.29-9l.06-.06,4-5Z"/><path class="cls-7" d="M50.79,375.9a2.61,2.61,0,0,1,2.28,0l1.93,1-3,1.26a.33.33,0,0,1-.42-.13,8.71,8.71,0,0,1-1-2Z"/><path class="cls-3" d="M69.05,370.8l-.06.06s8.19,6.77,11.29,9c2.18,1.58,5.8-3.89,4.09-5.13-2.91-2.09-11.29-9-11.29-9l0,.07"/><path class="cls-13" d="M56.55,346.72l.78-.18a2.46,2.46,0,0,0,1.75-1.4l1.21-2.84a2.52,2.52,0,0,1,4.38-.34l1.64,2.63a2.44,2.44,0,0,0,1.93,1.12l3.23.19a2.37,2.37,0,0,1,2,1.15"/><path class="cls-13" d="M60,351.82h0a2.79,2.79,0,0,1,5.42-1.34,2.88,2.88,0,0,1,0,1.4"/><path class="cls-13" d="M47.63,362.86l-1,.23a2.42,2.42,0,0,1-3-3.13l1.18-2.83a2.21,2.21,0,0,0-.24-2.15l-1.81-2.59A2.28,2.28,0,0,1,45,348.83l3.22.26a2.42,2.42,0,0,0,2.07-.84l2-2.37a2.51,2.51,0,0,1,4.25.84l0,.09.82,3a2.42,2.42,0,0,0,1.53,1.63l1.06.39,2,.73.13.05"/><path class="cls-13" d="M52.19,352.26a2.79,2.79,0,1,1-2.92,2.64A2.79,2.79,0,0,1,52.19,352.26Z"/><path class="cls-13" d="M50.61,376l-2.69,1.32a2.42,2.42,0,0,1-3.54-2.45l.56-3a2.22,2.22,0,0,0-.7-2.05l-2.31-2.14a2.28,2.28,0,0,1,1.37-3.94l3.21-.43a2.55,2.55,0,0,0,1.12-.43,2.32,2.32,0,0,0,.73-.83l1.44-2.73a2.51,2.51,0,0,1,4.39,0l1.09,2.11"/><path class="cls-13" d="M52.08,371l-.15,0a2.79,2.79,0,1,1,1.17-5"/><path class="cls-13" d="M69.05,370.8l-.13.09c-.78.35-7.66,3.34-13.87,6l0,0-3,1.26a.33.33,0,0,1-.42-.13,8.71,8.71,0,0,1-1-2,4.42,4.42,0,0,1,1.47-5,17.8,17.8,0,0,1,1.46-1.17.35.35,0,0,0,.1-.41A6.28,6.28,0,0,1,53.1,366a7.23,7.23,0,0,1,.49-2,8,8,0,0,1,1.69-2.66,6.06,6.06,0,0,1,1.65-1.23,3.85,3.85,0,0,1,1.44-.4.32.32,0,0,0,.28-.23.39.39,0,0,0,0-.15,6.47,6.47,0,0,1,2.3-6.07,6.2,6.2,0,0,1,1.12-.74,6.05,6.05,0,0,1,3.3-.72,3.9,3.9,0,0,1,.8.17.32.32,0,0,0,.45-.26c.43-3.32,4.79-5.19,6.78-4.74a1.59,1.59,0,0,1,.42.14.37.37,0,0,1,.19.32c-.27,6.15-.87,16.95-.94,18.12a.43.43,0,0,1-.06.17v0Z"/><path class="cls-13" d="M80.43,354.5c1.57,4.89-7.35,11.23-7.35,11.23s9.24-.53,9.64-3"/><path class="cls-5" d="M59.85,164.74c7-11.32,16.48-13,24.17-7.91,12.43,8.23,22.7,30.68,25.57,37.41a1.5,1.5,0,0,1-1.29,2.07c-7.18.4-31.19,1.08-44.07-6.34C56.18,185.33,52.78,176.12,59.85,164.74ZM90.17,168l-12.66-7.87a1,1,0,0,0-1.33.31L73.32,165a1,1,0,0,1-.68.44l-2,.29a1,1,0,0,0-.68.44l-2.08,3.35-2.08,3.32a.9.9,0,0,0-.22.84l.77,1.78a1,1,0,0,1-.07.88L63.42,181a1,1,0,0,0,.31,1.33l12.66,7.87a1,1,0,0,0,1.33-.31l12.76-20.51A1,1,0,0,0,90.17,168Z"/><path class="cls-7" d="M77.51,160.14,90.17,168a1,1,0,0,1,.31,1.34L77.72,189.86a1,1,0,0,1-1.33.31L63.73,182.3a1,1,0,0,1-.31-1.33l2.85-4.59a1,1,0,0,0,.07-.88l-.77-1.78a.9.9,0,0,1,.22-.84l2.08-3.32L70,166.21a1,1,0,0,1,.68-.44l2-.29a1,1,0,0,0,.68-.44l2.86-4.59A1,1,0,0,1,77.51,160.14Zm2.3,8.9A6.78,6.78,0,1,0,82,178.37,6.77,6.77,0,0,0,79.81,169Zm-11.49,10a1.27,1.27,0,1,0,.17,1.56A1.13,1.13,0,0,0,68.32,179.06Z"/><path class="cls-2" d="M70.49,171.21a6.77,6.77,0,1,1,2.17,9.34A6.77,6.77,0,0,1,70.49,171.21Zm8.08-.16A4.41,4.41,0,1,0,80,177.12,4.41,4.41,0,0,0,78.57,171.05Z"/><path class="cls-6" d="M72.49,172.46a4.41,4.41,0,1,1,1.42,6.08A4.41,4.41,0,0,1,72.49,172.46Z"/><path d="M66.85,179.6a1,1,0,1,1,.16,1.56A1.13,1.13,0,0,1,66.85,179.6Z"/><path class="cls-13" d="M79.81,169a6.78,6.78,0,1,1-9.32,2.17A6.77,6.77,0,0,1,79.81,169Z"/><path class="cls-13" d="M78.57,171.05a4.41,4.41,0,1,1-6.08,1.41A4.4,4.4,0,0,1,78.57,171.05Z"/><path class="cls-3" d="M67.87,169.56,70,166.21a1,1,0,0,1,.68-.44l2-.29a1,1,0,0,0,.68-.44l2.86-4.59a1,1,0,0,1,1.33-.31L90.17,168a1,1,0,0,1,.31,1.34L77.72,189.86a1,1,0,0,1-1.33.31L63.73,182.3a1,1,0,0,1-.31-1.33l2.85-4.59a1,1,0,0,0,.07-.88l-.77-1.78a.9.9,0,0,1,.22-.84Z"/><path class="cls-3" d="M107.66,178.65c7.71-9.35,15.2-14.54,18.79-12.31,4.85,3,.66,18.52-9.36,34.64S95,227.71,90.16,224.7c-3.71-2.31-2.15-11.88,3.26-23.45"/><path class="cls-8" d="M109.59,194.24a1.5,1.5,0,0,1-1.29,2.07c-7.18.4-31.19,1.08-44.07-6.34-8.05-4.64-11.45-13.85-4.38-25.23s16.48-13,24.17-7.91C96.45,165.06,106.72,187.51,109.59,194.24Z"/><path class="cls-7" d="M382.31,57.27a.8.8,0,0,1-.29,1.09l-6.84,4a.81.81,0,0,1-1.09-.28L364,44.86a.2.2,0,0,0-.37.15l7.25,26.46a2.21,2.21,0,0,1-1.55,2.72l-14.51,4-7.11-25.95,6.76-19a2.32,2.32,0,0,0-.54-2.41,2.28,2.28,0,0,1-.56-2.29l1.1-3.67,6.21.71a7.52,7.52,0,0,1,5.68,3.74Zm-27.7,0a1.06,1.06,0,1,0-.75,1.31A1.05,1.05,0,0,0,354.61,57.23Zm1.78,6.49a1.07,1.07,0,1,0-.75,1.31A1.07,1.07,0,0,0,356.39,63.72Zm1.78,6.49a1.07,1.07,0,1,0-.75,1.31A1.07,1.07,0,0,0,358.17,70.21Z"/><path class="cls-2" d="M354.42,24.87l-1.1,3.67a2.28,2.28,0,0,0,.56,2.29,2.32,2.32,0,0,1,.54,2.41l-6.76,19L347,49.63l.3-4.4,1.43-20.84h0a7,7,0,0,1,1.58,0Z"/><path class="cls-9" d="M348.68,24.39h0l-1.43,20.84L335.38,28.16a6.93,6.93,0,0,1,1.69-.7l10.35-2.84A6.66,6.66,0,0,1,348.68,24.39Z"/><path d="M353.3,56.49a1.06,1.06,0,1,1-.74,1.31A1.05,1.05,0,0,1,353.3,56.49Z"/><path d="M355.08,63a1.07,1.07,0,1,1-.75,1.32A1.07,1.07,0,0,1,355.08,63Z"/><path d="M356.85,69.46a1.07,1.07,0,1,1-.74,1.31A1.07,1.07,0,0,1,356.85,69.46Z"/><path class="cls-2" d="M347.25,45.23l-.3,4.4L335,39.05a2.33,2.33,0,0,1-.73-2.18l.15-.77a2.34,2.34,0,0,0-.83-2.25l-3.05-2.44,4.22-2.9a5,5,0,0,1,.58-.35Z"/><path class="cls-7" d="M347.66,52.22l7.11,26-11.49,3.15a2.22,2.22,0,0,1-2.72-1.55l-7.39-27a.2.2,0,0,0-.4.05l-.24,20.66a.8.8,0,0,1-.78.78l-7.66.17a.79.79,0,0,1-.81-.78l-.85-32.52a7.52,7.52,0,0,1,3.26-6.39l4.89-3.36,3.05,2.44a2.34,2.34,0,0,1,.83,2.25l-.15.77a2.33,2.33,0,0,0,.73,2.18L347,49.63Z"/><path class="cls-13" d="M335.38,28.16a5,5,0,0,0-.58.35l-4.22,2.9-4.89,3.36a7.52,7.52,0,0,0-3.26,6.39l.85,32.52a.79.79,0,0,0,.81.78l7.66-.17a.8.8,0,0,0,.78-.78l.24-20.66a.2.2,0,0,1,.4-.05l7.39,27a2.22,2.22,0,0,0,2.72,1.55l11.49-3.15,14.51-4a2.21,2.21,0,0,0,1.55-2.72L363.58,45a.2.2,0,0,1,.37-.15l10.14,17.23a.81.81,0,0,0,1.09.28l6.84-4a.8.8,0,0,0,.29-1.09l-16-27.95a7.52,7.52,0,0,0-5.68-3.74l-6.21-.71-4.16-.47a7,7,0,0,0-1.58,0,6.66,6.66,0,0,0-1.26.23l-10.35,2.84A6.93,6.93,0,0,0,335.38,28.16Z"/><path class="cls-13" d="M330.58,31.41l3.05,2.44a2.34,2.34,0,0,1,.83,2.25l-.15.77a2.33,2.33,0,0,0,.73,2.18L347,49.63"/><path class="cls-13" d="M354.42,24.87l-1.1,3.67a2.28,2.28,0,0,0,.56,2.29,2.32,2.32,0,0,1,.54,2.41l-6.76,19"/><polyline class="cls-13" points="354.77 78.17 347.66 52.22 346.95 49.63"/><polyline class="cls-13" points="348.68 24.39 347.25 45.23 346.95 49.63"/><line class="cls-13" x1="335.38" y1="28.16" x2="347.25" y2="45.23"/><path class="cls-5" d="M172.74,67.54a1.91,1.91,0,0,1,1.8,2.28,3.63,3.63,0,0,1-1.08,2.06l-2.56,2.56a43.11,43.11,0,0,0-4.21-1.18h0c-.28-.3-.55-.56-.78-.77h0l3-3C169.65,68.76,171.67,67.38,172.74,67.54Z"/><path class="cls-6" d="M183.17,84.82,185.35,87a3.11,3.11,0,0,1,0,4.38l-3.24,3.24a3.11,3.11,0,0,1-4.39,0l-2.17-2.18Z"/><path class="cls-7" d="M170.9,74.44a11,11,0,0,1,3.77,1.88l8.5,8.5-7.62,7.62L156.29,111.7l-7.57,7.56-8.39-8.38a13.47,13.47,0,0,1-1.87-4,33.54,33.54,0,0,1-.91-3.53c2,2,5-.61,5-.61L167.83,77.5c1.11-1.32-.05-3.07-1.14-4.23h0A43.11,43.11,0,0,1,170.9,74.44Zm2.55,6.08c-3.13-3.13-12,5.17-6.75,9.18C172.81,94.36,176.47,83.55,173.45,80.52ZM153.61,102.8c-4-5.25-11.84,4.09-9.18,6.74C147.37,112.48,158.27,108.9,153.61,102.8Z"/><path class="cls-7" d="M137.54,103.34l0,0a9.23,9.23,0,0,1-1-1.4c-1.69-2.72-4.3-8.21-4.3-10.57,0-4.72,4.29-9.71,8.87-14.29s7.82-7.82,11.29-8.24c6.61-.81,13,3.19,13,3.19s.25.19.59.5.5.47.78.77c1.09,1.16,2.25,2.91,1.14,4.23l-25.24,25.24s-3,2.57-5,.61Z"/><path class="cls-2" d="M166.7,89.7c-5.25-4,3.62-12.31,6.75-9.18S172.81,94.36,166.7,89.7Z"/><path class="cls-2" d="M144.43,109.54c-2.66-2.65,5.17-12,9.18-6.74C158.27,108.9,147.37,112.48,144.43,109.54Z"/><path class="cls-6" d="M156.29,111.7l2.19,2.19a3.08,3.08,0,0,1,0,4.35l-3.21,3.22a3.09,3.09,0,0,1-4.35,0l-2.2-2.2Z"/><path class="cls-5" d="M133.54,104.87l3-3a9.23,9.23,0,0,0,1,1.4l0,0h0a33.54,33.54,0,0,0,.91,3.53l-2.57,2.57a3.59,3.59,0,0,1-2.06,1.07,1.91,1.91,0,0,1-2.28-1.79C131.4,107.65,132.77,105.64,133.54,104.87Z"/><path class="cls-3" d="M137.55,103.35c2,2,5-.61,5-.61L167.83,77.5c1.11-1.32-.05-3.07-1.14-4.23-.28-.3-.55-.56-.78-.77s-.59-.5-.59-.5-6.35-4-13-3.19c-3.47.42-6.66,3.61-11.29,8.24s-8.87,9.57-8.87,14.29c0,2.36,2.61,7.85,4.3,10.57a9.23,9.23,0,0,0,1,1.4l0,0"/><path class="cls-13" d="M183.17,84.82l-8.5-8.5a11,11,0,0,0-3.77-1.88,43.11,43.11,0,0,0-4.21-1.18"/><line class="cls-13" x1="156.29" y1="111.7" x2="175.55" y2="92.44"/><path class="cls-13" d="M137.55,103.35a33.54,33.54,0,0,0,.91,3.53,13.47,13.47,0,0,0,1.87,4l8.39,8.38"/><path class="cls-3" d="M137.54,103.34h0"/><path class="cls-13" d="M137.53,103.28a.15.15,0,0,1,0,.06"/><path class="cls-3" d="M156.29,111.7l2.19,2.19a3.08,3.08,0,0,1,0,4.35l-3.21,3.22a3.09,3.09,0,0,1-4.35,0l-2.2-2.2Z"/><path class="cls-3" d="M175.55,92.44l2.17,2.18a3.11,3.11,0,0,0,4.39,0l3.24-3.24a3.11,3.11,0,0,0,0-4.38l-2.18-2.18Z"/><path class="cls-3" d="M173.45,80.52c-3.13-3.13-12,5.17-6.75,9.18C172.81,94.36,176.47,83.55,173.45,80.52Z"/><path class="cls-3" d="M144.43,109.54c-2.66-2.65,5.17-12,9.18-6.74C158.27,108.9,147.37,112.48,144.43,109.54Z"/><path class="cls-3" d="M136.5,101.91l-3,3c-.77.77-2.14,2.78-2,3.86a1.91,1.91,0,0,0,2.28,1.79,3.59,3.59,0,0,0,2.06-1.07l2.57-2.57"/><path class="cls-3" d="M165.93,72.49l3-3c.76-.77,2.78-2.15,3.85-2a1.91,1.91,0,0,1,1.8,2.28,3.63,3.63,0,0,1-1.08,2.06l-2.56,2.56h0"/><path class="cls-7" d="M191.69,303.47c2.3-.08,4.09.58,4.46,1.83.53,1.81-2.06,4.17-5.8,5.28s-7.21.54-7.75-1.27c-.37-1.27.81-2.82,2.84-4a2.54,2.54,0,0,0,2.39.55l2.15-.64A2.53,2.53,0,0,0,191.69,303.47Z"/><path class="cls-7" d="M191.69,303.47a2.53,2.53,0,0,1-1.71,1.74l-2.15.64a2.54,2.54,0,0,1-2.39-.55,2.42,2.42,0,0,1-.74-1.15l-10-34-.32-1.08A2.53,2.53,0,0,1,176,266l2.16-.63a2.52,2.52,0,0,1,3.13,1.69l10.38,35A2.53,2.53,0,0,1,191.69,303.47Z"/><path class="cls-7" d="M175,258.65a3.62,3.62,0,1,1-2.44,4.49A3.63,3.63,0,0,1,175,258.65Z"/><path class="cls-5" d="M169.05,270.93a1.57,1.57,0,0,1-2.77.71l-.14-.17a1.58,1.58,0,0,0-1.38-.57h-.44a1.61,1.61,0,0,1,.87-1l.2-.1a1.58,1.58,0,0,0,.8-.79,1.34,1.34,0,0,0,.93.05,1.41,1.41,0,0,0-.8-2.7,1.37,1.37,0,0,0-.73.53l-.13-.07-.19-.11a1.64,1.64,0,0,1-.87-1.27l0-.23a1.64,1.64,0,0,0-.49-1,1.39,1.39,0,0,1,1-.08l.21.05a1.55,1.55,0,0,0,1.44-.37l0,0,.12-.12a1.49,1.49,0,0,1,1.1-.43,1.67,1.67,0,0,1,1.58,1.54l0,.22a1.72,1.72,0,0,0,.81,1.32l.19.11a1.69,1.69,0,0,1-.14,3l-.2.08a1.61,1.61,0,0,0-.93,1.19Z"/><path class="cls-9" d="M166,262.8a1.69,1.69,0,0,0,.55,1l0,0a1.55,1.55,0,0,1-1.44.37l-.21-.05a1.39,1.39,0,0,0-1,.08,1.64,1.64,0,0,0-2.3,0l-.16.16a1.64,1.64,0,0,1-1.48.43l-.21,0h-.06v0l0-.1-.1-.2a1.65,1.65,0,0,1,1.8-2.36l.22,0a1.61,1.61,0,0,0,1.47-.44l.16-.15a1.66,1.66,0,0,1,2.58.35,1.85,1.85,0,0,1,.22.65Z"/><path class="cls-6" d="M161.25,266.93a1.4,1.4,0,1,0,1.73.95A1.38,1.38,0,0,0,161.25,266.93Zm2.62-2.67a1.64,1.64,0,0,1,.49,1l0,.23a1.64,1.64,0,0,0,.87,1.27l.19.11.13.07a1.68,1.68,0,0,1,.6,2.12,1.58,1.58,0,0,1-.8.79l-.2.1a1.61,1.61,0,0,0-.87,1,1.82,1.82,0,0,0-.07.25l0,.22a1.64,1.64,0,0,1-2.58,1.07,1.13,1.13,0,0,1-.26-.23l-.16-.16a1.63,1.63,0,0,0-1.44-.52l-.22,0a1.64,1.64,0,0,1-1.58-.67,1.68,1.68,0,0,1-.11-1.8l.11-.19a1.68,1.68,0,0,0,0-1.54l-.11-.21a1.66,1.66,0,0,1,1.75-2.37h.06l.21,0a1.64,1.64,0,0,0,1.48-.43l.16-.16A1.64,1.64,0,0,1,163.87,264.26Z"/><path class="cls-2" d="M154,254.39c2.22,7.49-6,17.55-7.76,18.07s-14.14-3.44-16.36-10.93c-1.63-5.51,2.51-11.48,10.34-9.41C145.66,246.12,152.38,248.88,154,254.39Z"/><polygon points="145.23 273.05 147.04 272.54 148.58 274.47 146.82 274.99 145.01 275.53 145.23 273.05"/><path class="cls-6" d="M129.65,275.59a1.41,1.41,0,1,0,1.73,1A1.4,1.4,0,0,0,129.65,275.59Zm2.68,4.87a1.64,1.64,0,0,1-2.74.5l-.15-.17a1.54,1.54,0,0,0-.19-.17,1.61,1.61,0,0,0-1.26-.35l-.22,0a1.61,1.61,0,0,1-1.1-.22A1.65,1.65,0,0,1,126,278a.35.35,0,0,1,.06-.14l.1-.19a1.7,1.7,0,0,0,0-1.55l-.1-.2a1.71,1.71,0,0,1-.14-1.12h0a1.64,1.64,0,0,1,1.92-1.25l.22.05a1.64,1.64,0,0,0,1.48-.43l.16-.17,0,0a1.65,1.65,0,0,1,2.76,1l0,.22a1.7,1.7,0,0,0,.88,1.28l.19.11a1.66,1.66,0,0,1-.07,3l-.2.09a1.68,1.68,0,0,0-.94,1.23l0,.22A1.33,1.33,0,0,1,132.33,280.46Z"/><path class="cls-7" d="M142,320.71a1.73,1.73,0,0,1-2.17-2.06L145,297.74a1.7,1.7,0,0,1,1.19-1.23l13.43-4a1.76,1.76,0,0,1,1.71.43l15.05,14.94a1.71,1.71,0,0,1-.72,2.86Z"/><path class="cls-9" d="M125.34,272.19a1.65,1.65,0,0,0,1.48-.43l.16-.16a1.65,1.65,0,0,1,2.79,1l0,.22a.5.5,0,0,1,0,.12h0l0,0-.16.17a1.64,1.64,0,0,1-1.48.43l-.22-.05a1.64,1.64,0,0,0-1.92,1.25h0a1.44,1.44,0,0,0-.87.48l-.15.16a1.5,1.5,0,0,1-1.4.46h0a1.64,1.64,0,0,0-.11-1.17l-.1-.2a1.84,1.84,0,0,1-.17-.67,1.65,1.65,0,0,1,2-1.69Z"/><path class="cls-5" d="M127.5,283.29a1.56,1.56,0,0,1-2.21-.08l-.15-.16a1.56,1.56,0,0,0-1.43-.48l-.21,0a1.69,1.69,0,0,1-1.74-2.42l.1-.19a1.71,1.71,0,0,0,0-1.54l-.1-.2a1.66,1.66,0,0,1,.48-2.15,1.45,1.45,0,0,1,1.15-.25l.17,0h0a1.5,1.5,0,0,0,1.4-.46l.15-.16a1.44,1.44,0,0,1,.87-.48,1.71,1.71,0,0,0,.14,1.12l.1.2a1.7,1.7,0,0,1,0,1.55l-.1.19a.35.35,0,0,0-.06.14h0a1.38,1.38,0,0,0-.9,0,1.41,1.41,0,1,0,1.55,2.15,1.61,1.61,0,0,0,1.1.22l.22,0a1.61,1.61,0,0,1,1.26.35,1.18,1.18,0,0,1-.19.11l-.19.1a1.6,1.6,0,0,0-.85,1.25l0,.22A1.6,1.6,0,0,1,127.5,283.29Z"/><path class="cls-7" d="M131.25,321.37c2.3-.09,4.09.57,4.46,1.82.53,1.82-2.06,4.18-5.8,5.29s-7.21.54-7.74-1.28c-.38-1.27.8-2.82,2.82-4h0a2.48,2.48,0,0,0,2.39.55l2.15-.64A2.52,2.52,0,0,0,131.25,321.37Z"/><path class="cls-7" d="M131.25,321.37a2.52,2.52,0,0,1-1.71,1.73l-2.15.64a2.48,2.48,0,0,1-2.39-.55h0a2.5,2.5,0,0,1-.73-1.15l-10.37-35a2.51,2.51,0,0,1,1.69-3.12l2.16-.64a2.51,2.51,0,0,1,3.12,1.7l.32,1.08,10.06,34A2.53,2.53,0,0,1,131.25,321.37Z"/><path class="cls-7" d="M114.56,276.54a3.62,3.62,0,1,1-2.44,4.5A3.63,3.63,0,0,1,114.56,276.54Z"/><path class="cls-14" d="M123.53,275.89h0a1.64,1.64,0,0,0-.11-1.17l-.1-.2a1.84,1.84,0,0,1-.17-.67,1.65,1.65,0,0,1,2-1.69l.22,0a1.65,1.65,0,0,0,1.48-.43l.16-.16a1.65,1.65,0,0,1,2.79,1l0,.22a.5.5,0,0,1,0,.12"/><path class="cls-14" d="M129.25,280.62a1.18,1.18,0,0,1-.19.11l-.19.1a1.6,1.6,0,0,0-.85,1.25l0,.22a1.6,1.6,0,0,1-.5,1,1.56,1.56,0,0,1-2.21-.08l-.15-.16a1.56,1.56,0,0,0-1.43-.48l-.21,0a1.69,1.69,0,0,1-1.74-2.42l.1-.19a1.71,1.71,0,0,0,0-1.54l-.1-.2a1.66,1.66,0,0,1,.48-2.15,1.45,1.45,0,0,1,1.15-.25l.17,0h0a1.5,1.5,0,0,0,1.4-.46l.15-.16a1.44,1.44,0,0,1,.87-.48"/><path class="cls-14" d="M126,274.78a1.64,1.64,0,0,1,1.92-1.25l.22.05a1.64,1.64,0,0,0,1.48-.43l.16-.17,0,0a1.65,1.65,0,0,1,2.76,1l0,.22a1.7,1.7,0,0,0,.88,1.28l.19.11a1.66,1.66,0,0,1-.07,3l-.2.09a1.68,1.68,0,0,0-.94,1.23l0,.22a1.33,1.33,0,0,1-.1.34,1.64,1.64,0,0,1-2.74.5l-.15-.17a1.54,1.54,0,0,0-.19-.17,1.61,1.61,0,0,0-1.26-.35l-.22,0a1.61,1.61,0,0,1-1.1-.22A1.65,1.65,0,0,1,126,278a.35.35,0,0,1,.06-.14l.1-.19a1.7,1.7,0,0,0,0-1.55l-.1-.2a1.71,1.71,0,0,1-.14-1.12Z"/><path class="cls-14" d="M126.67,280.08a1.39,1.39,0,0,1-.75.55,1.41,1.41,0,0,1-.8-2.7,1.38,1.38,0,0,1,.9,0"/><path class="cls-14" d="M131.38,276.55a1.39,1.39,0,1,1-1.73-1A1.4,1.4,0,0,1,131.38,276.55Z"/><path class="cls-14" d="M123.15,273.84a5.7,5.7,0,0,0-2.91-.09.13.13,0,0,0,0,.24,5.21,5.21,0,0,1,2,2.11"/><path class="cls-14" d="M128.87,280.83c2,1.31,2.31,4.43,2.33,5.78a.38.38,0,0,1,0,.1.15.15,0,0,1-.08.14.14.14,0,0,1-.16-.07c0-.06-.06-.12-.09-.17-.67-1.21-2.22-3.69-3.38-3.32"/><path class="cls-14" d="M131.2,286.77a1,1,0,0,0,.14-.16,6.55,6.55,0,0,0,1-6.16"/><path class="cls-14" d="M131.13,286.85a5.84,5.84,0,0,0,.66-.24,5.78,5.78,0,0,0,4-5.81c-.09-1.15-.2-2.39-.21-3.64a14.21,14.21,0,0,1,.38-3.68.14.14,0,0,0-.12-.17c-1.49-.05-2.37,2.18-2.37,2.18"/><path class="cls-14" d="M166.54,263.84a1.69,1.69,0,0,1-.55-1l0-.23a1.85,1.85,0,0,0-.22-.65,1.66,1.66,0,0,0-2.58-.35l-.16.15a1.61,1.61,0,0,1-1.47.44l-.22,0a1.65,1.65,0,0,0-1.8,2.36l.1.2,0,.1"/><path class="cls-14" d="M164.32,270.92h.44a1.58,1.58,0,0,1,1.38.57l.14.17a1.57,1.57,0,0,0,2.77-.71l0-.21a1.61,1.61,0,0,1,.93-1.19l.2-.08a1.69,1.69,0,0,0,.14-3l-.19-.11a1.72,1.72,0,0,1-.81-1.32l0-.22a1.67,1.67,0,0,0-1.58-1.54,1.49,1.49,0,0,0-1.1.43l-.12.12,0,0a1.55,1.55,0,0,1-1.44.37l-.21-.05a1.39,1.39,0,0,0-1,.08"/><path class="cls-14" d="M163.87,264.26a1.64,1.64,0,0,0-2.3,0l-.16.16a1.64,1.64,0,0,1-1.48.43l-.21,0h-.06a1.66,1.66,0,0,0-1.75,2.37l.11.21a1.68,1.68,0,0,1,0,1.54l-.11.19a1.68,1.68,0,0,0,.11,1.8,1.64,1.64,0,0,0,1.58.67l.22,0a1.63,1.63,0,0,1,1.44.52l.16.16a1.13,1.13,0,0,0,.26.23,1.64,1.64,0,0,0,2.58-1.07l0-.22a1.82,1.82,0,0,1,.07-.25,1.61,1.61,0,0,1,.87-1l.2-.1a1.58,1.58,0,0,0,.8-.79,1.68,1.68,0,0,0-.6-2.12l-.13-.07-.19-.11a1.64,1.64,0,0,1-.87-1.27l0-.23A1.64,1.64,0,0,0,163.87,264.26Z"/><path class="cls-14" d="M166.19,269.06a1.34,1.34,0,0,0,.93.05,1.41,1.41,0,0,0-.8-2.7,1.37,1.37,0,0,0-.73.53"/><ellipse class="cls-14" cx="161.65" cy="268.28" rx="1.39" ry="1.4" transform="translate(-69.51 56.93) rotate(-16.49)"/><path class="cls-14" d="M165.75,261.92a5.61,5.61,0,0,1,2.39-1.67.13.13,0,0,1,.16.19,5.24,5.24,0,0,0-.54,2.85"/><path class="cls-14" d="M164.76,270.9c-1,2.13.4,4.84,1.12,6l.11.17,0,0a.12.12,0,0,0,.1,0,.12.12,0,0,0,.1-.13l0-.3c-.08-1.42-.11-4.21,1-4.51"/><path class="cls-14" d="M166,277.15l-.32-.11a6.51,6.51,0,0,1-4.07-4.58"/><path class="cls-14" d="M166.13,277.16a6.79,6.79,0,0,1-.94.22,5.71,5.71,0,0,1-6.26-2.74c-.56-1-1.14-2.11-1.81-3.17a14,14,0,0,0-2.33-2.88.12.12,0,0,1,0-.2c1.21-.86,3.17.53,3.17.53"/><path class="cls-3" d="M119.07,279a3.62,3.62,0,1,1-4.51-2.44A3.63,3.63,0,0,1,119.07,279Z"/><path class="cls-3" d="M125,323.19a2.5,2.5,0,0,1-.73-1.15l-10.37-35a2.51,2.51,0,0,1,1.69-3.12l2.16-.64a2.51,2.51,0,0,1,3.12,1.7l.32,1.08,10.06,34a2.51,2.51,0,0,1-1.7,3.12l-2.15.64a2.48,2.48,0,0,1-2.39-.55"/><path class="cls-3" d="M130.68,321.4l.57,0c2.3-.09,4.09.57,4.46,1.82.53,1.82-2.06,4.18-5.8,5.29s-7.21.54-7.74-1.28c-.38-1.27.8-2.82,2.82-4h0l.41-.23"/><path class="cls-3" d="M179.51,261.09a3.62,3.62,0,1,1-4.51-2.44A3.62,3.62,0,0,1,179.51,261.09Z"/><path class="cls-3" d="M191.69,303.47a2.53,2.53,0,0,1-1.71,1.74l-2.15.64a2.54,2.54,0,0,1-2.39-.55,2.42,2.42,0,0,1-.74-1.15l-10-34-.32-1.08A2.53,2.53,0,0,1,176,266l2.16-.63a2.52,2.52,0,0,1,3.13,1.69l10.38,35A2.53,2.53,0,0,1,191.69,303.47Z"/><path class="cls-3" d="M191.2,303.5l.49,0c2.3-.08,4.09.58,4.46,1.83.53,1.81-2.06,4.17-5.8,5.28s-7.21.54-7.75-1.27c-.37-1.27.81-2.82,2.84-4l.41-.23"/><path class="cls-3" d="M146.17,296.51l13.43-4a1.76,1.76,0,0,1,1.71.43l15.05,14.94a1.71,1.71,0,0,1-.72,2.86l-33.63,10a1.73,1.73,0,0,1-2.17-2.06L145,297.74A1.7,1.7,0,0,1,146.17,296.51Z"/><path class="cls-3" d="M121.18,286a90.44,90.44,0,0,0,9.7.59h.91a65.69,65.69,0,0,0,18.12-2.21,62.27,62.27,0,0,0,15.28-7l.52-.34a.75.75,0,0,0,.17-.1l.32-.21a59.05,59.05,0,0,0,8.45-6.54"/><path class="cls-3" d="M140.23,252.12c-7.83-2.07-12,3.9-10.34,9.41,2.22,7.49,14.59,11.46,16.36,10.93s10-10.58,7.76-18.07C152.38,248.88,145.66,246.12,140.23,252.12Z"/><path class="cls-4" d="M146.82,274.41v1.12a5.3,5.3,0,0,0,1.17,3.35l.72.9a4.16,4.16,0,0,1,.91,2.55v1.52"/><rect class="cls-7" x="266.97" y="375.5" width="5.6" height="12.55" rx="1.19" ry="1.19" transform="translate(-193.88 441.44) rotate(-62.09)"/><path d="M274.92,379l.51-1a.94.94,0,0,1,1.29-.39h0a.94.94,0,0,1,.39,1.28l-.51,1a.92.92,0,0,1-.45.42l-.28-.17-1.07-.56A.93.93,0,0,1,274.92,379Z"/><path d="M275.89,380.1l.28.17a.93.93,0,0,1-.83,0h0a1,1,0,0,1-.5-.7Z"/><path d="M270.78,387.23a.91.91,0,0,1,.82,0h0a1,1,0,0,1,.48.65l-.28-.13Z"/><path d="M270.39,389.55a1,1,0,0,1-.4-1.29l.32-.62a.85.85,0,0,1,.47-.41l1,.55.28.13a.9.9,0,0,1-.08.64l-.33.61a1,1,0,0,1-1.28.4Z"/><path d="M273.21,376.81l-.51,1a1,1,0,0,1-.43.41h0l-1.37-.72h0a1,1,0,0,1,.1-.59l.51-1a1,1,0,0,1,1.3-.4h0A1,1,0,0,1,273.21,376.81Z"/><path d="M270.9,377.46l1.37.72a.91.91,0,0,1-.85,0h0A1,1,0,0,1,270.9,377.46Z"/><path d="M268.18,385.85l-1.32-.7a.91.91,0,0,1,.82,0h0A.89.89,0,0,1,268.18,385.85Z"/><path d="M267.77,387.08a1,1,0,0,1-1.29.4h0a1,1,0,0,1-.4-1.29l.33-.62a.94.94,0,0,1,.46-.42h0l1.32.7h0a1,1,0,0,1-.09.62Z"/><path d="M269,374.55l-.51,1a1,1,0,0,1-.43.41h0l-.29-.15a3.1,3.1,0,0,0-1-.33.93.93,0,0,1,0-.83l.51-1a1,1,0,0,1,1.29-.4h0A1,1,0,0,1,269,374.55Z"/><path d="M267.71,375.77l.29.15a.91.91,0,0,1-.85,0h0a.93.93,0,0,1-.42-.46A3.1,3.1,0,0,1,267.71,375.77Z"/><path d="M263.91,383.59l-.27-.15a3.11,3.11,0,0,1-.81-.62,1,1,0,0,1,.59.09h0A.92.92,0,0,1,263.91,383.59Z"/><path d="M262.83,382.82a3.11,3.11,0,0,0,.81.62l.27.15h0a.9.9,0,0,1-.09.62l-.32.61a1,1,0,0,1-1.29.4h0a1,1,0,0,1-.4-1.29l.32-.61A1,1,0,0,1,262.83,382.82Z"/><path class="cls-2" d="M264,381.87l9,4.76a1.2,1.2,0,0,0,1.61-.5l1.5-2.84a1.19,1.19,0,0,0-.49-1.61l-9-4.76a1.19,1.19,0,0,0-1.61.49l-1.5,2.85A1.19,1.19,0,0,0,264,381.87Zm-.52,1.05h0a1,1,0,0,0-.59-.09,3.17,3.17,0,0,1-.88-2.17l.22-.42a.2.2,0,0,0-.08-.28l-.06,0a3,3,0,0,1,.29-.79l1.06-2c.49-.18.58-.28.65-.41a.79.79,0,0,0,.08-.52,3.18,3.18,0,0,1,2.6-.76.93.93,0,0,0,.42.46h0a.91.91,0,0,0,.85,0h0l2.88,1.53h0a1,1,0,0,0,.5.7h0a.91.91,0,0,0,.85,0h0l2.55,1.35a1,1,0,0,0,.5.7h0a.93.93,0,0,0,.83,0,3.2,3.2,0,0,1,1,4.14l-1.08,2a3.21,3.21,0,0,1-4,1.46,1,1,0,0,0-.48-.65h0a.91.91,0,0,0-.82,0l-2.59-1.38h0a.89.89,0,0,0-.48-.67h0a.91.91,0,0,0-.82,0h0l-2.93-1.55h0A.92.92,0,0,0,263.44,382.92Z"/><path d="M264.11,376.2a.79.79,0,0,1-.08.52c-.07.13-.16.23-.65.41l0,0A2.94,2.94,0,0,1,264.11,376.2Z"/><path d="M262,380.65a3.08,3.08,0,0,1,.08-.73l.06,0a.2.2,0,0,1,.08.28Z"/><path d="M262,379.92a3.08,3.08,0,0,0-.08.73l-.3.57a.21.21,0,0,1-.29.09l-13.29-7-9.31-4.93a4.94,4.94,0,0,0,1.47-1Z"/><path d="M264.11,376.2a2.94,2.94,0,0,0-.71.89l0,0A.75.75,0,0,1,263,377l-21.36-11.31v0a4.68,4.68,0,0,0,0-1.71v0l9.31,4.93,12.79,6.78A.78.78,0,0,1,264.11,376.2Z"/><path class="cls-7" d="M262.13,348.56c6.11-2.59,10.44.29,11.17,5.92a7,7,0,0,1,10.91,2.7c-8.89,3.91-19.24-.65-30.25-6.49-6.46-3.44-19.35-9.92-21.78-21.07,6-.54,8.81,2.9,8.11,7.38,5.57-2.95,10.48-.06,11.09,5.87C257,339.71,262.05,342.66,262.13,348.56Z"/><path class="cls-7" d="M273.21,341.06a19.46,19.46,0,0,1-1.68,2.64c-6.89-3.32-14.41-7.36-21.1-11.34a18.83,18.83,0,0,1,1.2-2.74c4-7.6,12.12-11.21,18.08-8.06S277.24,333.45,273.21,341.06Z"/><path class="cls-7" d="M262,379.92l-21.8-11.55a5.11,5.11,0,0,0,.91-1.22,5,5,0,0,0,.49-1.42L263,377a.75.75,0,0,0,.39.09l-1.06,2A3,3,0,0,0,262,379.92Z"/><path d="M238.76,369.34l1.47-1A4.94,4.94,0,0,1,238.76,369.34Z"/><path d="M241.63,365.7l0-1.71A4.68,4.68,0,0,1,241.63,365.7Z"/><path d="M239.13,360.63a4.85,4.85,0,0,1,2.48,3.34v0l0,1.71v0a5,5,0,0,1-.49,1.42,5.11,5.11,0,0,1-.91,1.22l-1.47,1a4.83,4.83,0,1,1,.37-8.71Z"/><path d="M222.21,361.5a1.6,1.6,0,0,1-.66-2.13l2.2-4.13a1.58,1.58,0,0,1,2.12-.65l0,0a1.57,1.57,0,0,1,.65,2.12l-2.19,4.14a1.59,1.59,0,0,1-2.12.65Z"/><path class="cls-2" d="M232.18,329.62a18.37,18.37,0,0,1,.17-8.35.78.78,0,0,1,1.27-.4c3.5,3.12,9.69,7.27,16.81,11.49,6.69,4,14.21,8,21.1,11.34,7.77,3.77,14.74,6.6,18.81,7.38a.77.77,0,0,1,.42,1.28,19.65,19.65,0,0,1-6.55,4.82,7,7,0,0,0-10.91-2.7c-.73-5.63-5.06-8.51-11.17-5.92-.08-5.9-5.11-8.85-10.75-5.69-.61-5.93-5.52-8.82-11.09-5.87C241,332.52,238.19,329.08,232.18,329.62Z"/><path class="cls-7" d="M236.32,379.35c-4.38-2.32-2.58-4.76-7-7.07-2.73-1.45-5.35,1.86-13.37-2.39-8.42-4.46-3.27-13.42-1.23-17.26s7.11-12.07,15.16-7.8c5.63,3,6,8.43,9,10s6-.12,9.89,2c2.44,1.29,6.73,3.38,2.11,12.1L241.61,364a4.83,4.83,0,1,0-2.85,5.37l9.31,4.93C246.58,377.1,243.74,383.28,236.32,379.35Zm-11.95-18.48,2.19-4.14a1.57,1.57,0,0,0-.65-2.12l0,0a1.58,1.58,0,0,0-2.12.65l-2.2,4.13a1.6,1.6,0,0,0,.66,2.13l0,0A1.59,1.59,0,0,0,224.37,360.87Z"/><path class="cls-3" d="M250.43,332.36c-7.12-4.22-13.31-8.37-16.81-11.49a.78.78,0,0,0-1.27.4,18.37,18.37,0,0,0-.17,8.35c2.43,11.15,15.32,17.63,21.78,21.07,11,5.84,21.36,10.4,30.25,6.49a19.65,19.65,0,0,0,6.55-4.82.77.77,0,0,0-.42-1.28c-4.07-.78-11-3.61-18.81-7.38C264.64,340.38,257.12,336.34,250.43,332.36Z"/><path class="cls-3" d="M250.43,332.37h0a18.83,18.83,0,0,1,1.2-2.74c4-7.6,12.12-11.21,18.08-8.06s7.53,11.89,3.5,19.5a19.46,19.46,0,0,1-1.68,2.64"/><path class="cls-13" d="M284.21,357.18a7,7,0,0,0-10.91-2.7c-.73-5.63-5.06-8.51-11.17-5.92-.08-5.9-5.11-8.85-10.75-5.69-.61-5.93-5.52-8.82-11.09-5.87.7-4.48-2.1-7.92-8.11-7.38"/><rect class="cls-14" x="266.97" y="375.5" width="5.6" height="12.55" rx="1.19" ry="1.19" transform="translate(-193.88 441.44) rotate(-62.09)"/><path class="cls-3" d="M250.92,368.9c4.62-8.72.33-10.81-2.11-12.1-3.93-2.08-6.93-.39-9.89-2s-3.37-7-9-10c-8-4.27-13.17,4-15.16,7.8s-7.19,12.8,1.23,17.26c8,4.25,10.64.94,13.37,2.39,4.38,2.31,2.58,4.75,7,7.07,7.42,3.93,10.26-2.25,11.75-5.08"/><path class="cls-14" d="M272.1,387.91l-.28-.13-1-.55-2.59-1.38h0l-1.32-.7h0l-2.93-1.55h0l-.27-.15a3.11,3.11,0,0,1-.81-.62,3.17,3.17,0,0,1-.88-2.17,3.08,3.08,0,0,1,.08-.73,3,3,0,0,1,.29-.79l1.06-2,0,0a2.94,2.94,0,0,1,.71-.89,3.18,3.18,0,0,1,2.6-.76,3.1,3.1,0,0,1,1,.33l.29.15h0l2.88,1.53h0l1.37.72h0l2.55,1.35,1.07.56.28.17a3.2,3.2,0,0,1,1,4.14l-1.08,2A3.21,3.21,0,0,1,272.1,387.91Z"/></g></g></svg>